<svg id="Layer_1" xmlns="http://www.w3.org/2000/svg" viewBox="0 0 72.8 75"><style>.st0{fill:#f6c75b}.st1{fill:#fce6ac}.st2{fill:#f8d174}.st3{fill:#eab646}.st4{fill:#f3c355}.st5{fill:#fbd071}.st6{fill:#e9b444}.st7{fill:#f8ce68}.st8{fill:#fbe2a2}.st9{fill:#fdebbd}.st10{fill:#d9c298}.st11{fill:#f0c051}.st12{fill:#fce4a6}.st13{fill:#f3c152}.st14{fill:#f6c75d}.st15{fill:#fce19e}.st16{fill:#fad270}.st17{fill:#a16800}.st18{fill:#dba22f}.st19{fill:#602e25}.st20{fill:#b9861b}.st21{fill:#f1bf50}.st22{fill:#e0a734}.st23{fill:#ecb848}.st24{fill:#dda431}.st25{fill:#cc8b17}.st26{fill:#d0911d}.st27{fill:#d29522}.st28{fill:#ca8b17}.st29{fill:#e5b03e}.st30{fill:#e2aa39}.st31{fill:#dca02e}.st32{fill:#e5ad3c}.st33{fill:#cb8a16}.st34{fill:#d39824}.st35{fill:#cd8c18}.st36{fill:#cf9420}.st37{fill:#ce8d19}.st38{fill:#a96e06}.st39{fill:#e8b13c}.st40{fill:#d9a02c}.st41{fill:#da9a1f}.st42{fill:#aa6f07}.st43{fill:#9d6300}.st44{fill:#a56c05}.st45{fill:#9f6501}.st46{fill:#a46b04}.st47{fill:#b57b0d}.st48{fill:#ab710d}.st49{fill:#e8b341}.st50{fill:#e5ae39}.st51{fill:#d69f2b}.st52{fill:#3e1b15}.st53{fill:#3c1b14}.st54{fill:#56261c}.st55{fill:#ce9625}.st56{fill:#cc9423}.st57{fill:#5a2a1e}.st58{fill:#c38b1a}.st59{fill:#55261e}.st60{fill:#b77d0f}.st61{fill:#d9a22e}.st62{fill:#d49c2b}.st63{fill:#51261d}.st64{fill:#d1992c}.st65{fill:#8d6355}.st66{fill:#431c15}.st67{fill:#d19116}.st68{fill:#b98112}.st69{fill:#a76c04}.st70{fill:#b77f10}.st71{fill:#c99120}.st72{fill:#c78a17}.st73{fill:#b57c13}.st74{fill:#bc831a}.st75{fill:#c58c21}.st76{fill:#a06700}.st77{fill:#a66d04}.st78{fill:#e1ac3c}.st79{fill:#4b241d}.st80{fill:#673c33}.st81{fill:#704034}.st82{fill:#683429}.st83{fill:#5e2e24}.st84{fill:#ae7607}.st85{fill:#d39b2e}.st86{fill:#48211a}.st87{fill:#552e27}.st88{fill:#60352c}.st89{fill:#c1891c}.st90{fill:#d29a2b}.st91{fill:#713e2d}.st92{fill:#cd9528}.st93{fill:#5a322a}.st94{fill:#c29822}.st95{fill:#ad7305}.st96{fill:#a16c04}.st97{fill:#63372e}.st98{fill:#9c6707}.st99{fill:#c49724}.st100{fill:#d0b437}.st101{fill:#6c3a2f}.st102{fill:#81473b}.st103{fill:#a16a06}.st104{fill:#9a6402}.st105{fill:#e2ad3b}.st106{fill:#a8740e}.st107{fill:#572f27}.st108{fill:#5b3027}.st109{fill:#ac7815}.st110{fill:#6a3f36}.st111{fill:#daa535}.st112{fill:#a36a01}.st113{fill:#a16801}.st114{fill:#774338}.st115{fill:#9f6b44}.st116{fill:#dccb55}.st117{fill:#cd972b}.st118{fill:#dbc94d}.st119{fill:#ab7d70}.st120{fill:#ecb842}.st121{fill:#c78f22}.st122{fill:#ba8116}.st123{fill:#c89023}.st124{fill:#d7a232}.st125{fill:#6c4035}.st126{fill:#bb8217}.st127{fill:#d0b13c}.st128{fill:#b88319}.st129{fill:#b0760b}.st130{fill:#986813}.st131{fill:#dccc5d}.st132{fill:#79493d}.st133{fill:#9c6a09}.st134{fill:#663a2f}.st135{fill:#a58200}.st136{fill:#f4e8b8}.st137{fill:#9c6802}.st138{fill:#a76e05}.st139{fill:#a26902}.st140{fill:#a46d06}.st141{fill:#a66d06}.st142{fill:#dea635}.st143{fill:#d69821}.st144{fill:#d0c80b}.st145{fill:#b98015}.st146{fill:#784c41}.st147{fill:#eab33f}.st148{fill:#9b6505}.st149{fill:#704235}.st150{fill:#76473d}.st151{fill:#ad7611}.st152{fill:#895045}.st153{fill:#e3ac37}.st154{fill:#ae750c}.st155{fill:#d9ac35}.st156{fill:#a66f0b}.st157{fill:#c9a551}.st158{fill:#d3b640}.st159{fill:#916356}.st160{fill:#b17d18}.st161{fill:#d1b93b}.st162{fill:#c08a20}.st163{fill:#d6c048}.st164{fill:#7c4e41}.st165{fill:#8f6559}.st166{fill:#ad7717}.st167{fill:#ad7715}.st168{fill:#b27d17}.st169{fill:#a86f06}.st170{fill:#834f41}.st171{fill:#ab7209}.st172{fill:#d1b740}.st173{fill:#b5801a}.st174{fill:#a36f0a}.st175{fill:#e4d970}.st176{fill:#a67109}.st177{fill:#c49730}.st178{fill:#aa7412}.st179{fill:#e2ab36}.st180{fill:#eebc4d}.st181{fill:#af7a1e}.st182{fill:#bb861e}.st183{fill:#d8c15b}.st184{fill:#a66f0a}.st185{fill:#b67f18}.st186{fill:#79493b}.st187{fill:#bc931f}.st188{fill:#b0770c}.st189{fill:#af760b}.st190{fill:#bf8c23}.st191{fill:#deaa3a}.st192{fill:#d9a537}.st193{fill:#a36c05}.st194{fill:#c39e95}.st195{fill:#af7b18}.st196{fill:#96685b}.st197{fill:#dccd66}.st198{fill:#a4700d}.st199{fill:#d1a02a}.st200{fill:#f4f0ca}.st201{fill:#ae780e}.st202{fill:#a1796f}.st203{fill:#9b690a}.st204{fill:#dbc467}.st205{fill:#a87a1a}.st206{fill:#a8771b}.st207{fill:#b88c2b}.st208{fill:#b98b1b}.st209{fill:#a26b04}.st210{fill:#bd9526}.st211{fill:#eae29a}.st212{fill:#f2efba}.st213{fill:#dcc869}.st214{fill:#f5f2cf}.st215{fill:#fbf9ea}.st216{fill:#caa82d}.st217{fill:#a8710a}.st218{fill:#98690d}.st219{fill:#b78c1c}.st220{fill:#bc902d}.st221{fill:#ba810e}.st222{fill:#f8f6b9}.st223{fill:#a38178}.st224{fill:#bb9832}.st225{fill:#c49e49}.st226{fill:#ba903c}.st227{fill:#d5b73b}.st228{fill:#e3d475}.st229{fill:#f2ecc8}.st230{fill:#ad8176}.st231{fill:#e4cf80}.st232{fill:#845042}.st233{fill:#b68f34}.st234{fill:#d5bf48}.st235{fill:#753f35}.st236{fill:#aa7815}.st237{fill:#a97d72}.st238{fill:#ddcf4c}.st239{fill:#b27c18}.st240{fill:#7c4b3d}.st241{fill:#e3d87f}.st242{fill:#976f63}.st243{fill:#b38516}.st244{fill:#724238}.st245{fill:#ae8215}.st246{fill:#ae8028}.st247{fill:#eee4af}.st248{fill:#caad49}.st249{fill:#d2ba56}.st250{fill:#9a6c17}.st251{fill:#cbb471}.st252{fill:#d9c771}.st253{fill:#b58725}.st254{fill:#e8ddb0}.st255{fill:#a6857c}.st256{fill:#f5c95e}.st257{fill:#af8316}.st258{fill:#cfa344}.st259{fill:#d8a741}.st260{fill:#dab05a}.st261{fill:#cfaf58}.st262{fill:#b08220}.st263{fill:#d5c35d}.st264{fill:#c5aa5b}.st265{fill:#c1902a}.st266{fill:#be9a28}.st267{fill:#a67822}.st268{fill:#977168}.st269{fill:#b28327}.st270{fill:#f9f39b}.st271{fill:#deb253}.st272{fill:#ebe790}.st273{fill:#b57c11}.st274{fill:#e8dca2}.st275{fill:#dac872}.st276{fill:#e5daac}.st277{fill:#cfb963}.st278{fill:#ae750e}.st279{fill:#c09f2c}.st280{fill:#e0d36d}.st281{fill:#e8e57a}.st282{fill:#9d7c73}.st283{fill:#d0b750}.st284{fill:#b47b12}.st285{fill:#b98927}.st286{fill:#c1a333}.st287{fill:#e9db7a}.st288{fill:#b48630}.st289{fill:#a77009}.st290{fill:#f0e79a}.st291{fill:#7c5246}.st292{fill:#936158}.st293{fill:#c69127}.st294{fill:#c08b23}.st295{fill:#b99332}.st296{fill:#b68e1f}.st297{fill:#b58320}.st298{fill:#be972e}.st299{fill:#7f493d}.st300{fill:#a6700c}.st301{fill:#6d4138}.st302{fill:#d3c062}.st303{fill:#6c3d33}.st304{fill:#ac770f}.st305{fill:#bb841f}.st306{fill:#6b3c32}.st307{fill:#b48223}.st308{fill:#693a30}.st309{fill:#c98c19}.st310{fill:#8a561c}.st311{fill:#a87411}.st312{fill:#b87f14}.st313{fill:#b38822}.st314{fill:#63342c}.st315{fill:#ab7610}.st316{fill:#b88011}.st317{fill:#b2780c}.st318{fill:#69372c}.st319{fill:#5a2f28}.st320{fill:#b07608}.st321{fill:#744035}.st322{fill:#ad7307}.st323{fill:#b37b0e}.st324{fill:#5c3128}.st325{fill:#b78b1e}.st326{fill:#af7b15}.st327{fill:#e2d98a}.st328{fill:#d0bb5e}.st329{fill:#bf861b}.st330{fill:#c58d1e}.st331{fill:#c38a1f}.st332{fill:#bf8718}.st333{fill:#ac7a1b}.st334{fill:#b07d21}.st335{fill:#bc8415}.st336{fill:#502721}.st337{fill:#b17f20}.st338{fill:#512822}.st339{fill:#d1921e}.st340{fill:#c68e1d}.st341{fill:#4e251f}.st342{fill:#bc871f}.st343{fill:#6a382d}.st344{fill:#633329}.st345{fill:#61322a}.st346{fill:#b58a2e}.st347{fill:#67322a}.st348{fill:#cc9427}.st349{fill:#ca8d1a}.st350{fill:#cc9725}.st351{fill:#d49f2d}.st352{fill:#b18429}.st353{fill:#c1881d}.st354{fill:#cd9524}.st355{fill:#d29c2f}.st356{fill:#c0871e}.st357{fill:#d5a036}.st358{fill:#e2ad3d}.st359{fill:#e9b442}.st360{fill:#eab541}.st361{fill:#dca737}.st362{fill:#e2ad39}.st363{fill:#e3ae3e}.st364{fill:#dba538}.st365{fill:#d09a2d}.st366{fill:#dda838}.st367{fill:#cc8f1a}.st368{fill:#dea62f}.st369{fill:#d69b25}.st370{fill:#dea532}.st371{fill:#d69a28}.st372{fill:#e7b23e}.st373{fill:#e0a935}.st374{fill:#cc8a19}.st375{fill:#e9b545}.st376{fill:#d99e2a}</style><path class="st0" d="M70.7 9.4l.8 4.3 1.3-5.8z"/><path class="st1" d="M72.8 3.6l-2.1 1.6 2.1 2.7z"/><path class="st2" d="M70.7 5.2v4.2l2.1-1.5z"/><path class="st3" d="M3.1 12l-1.6 1.3 3.1 1.9z"/><path class="st4" d="M2.1 8.8L.2 10.1 3.1 12z"/><path class="st5" d="M0 6.7l2.1 2.1.1-3.4z"/><path class="st6" d="M1.5 13.3l1 3 2.1-1.1z"/><path class="st7" d="M0 6.7l.2 3.4 1.9-1.3z"/><path class="st8" d="M.1 2.9l2.1 2.5.6-2.2z"/><path class="st9" d="M.1 2.9L0 6.7l2.2-1.3z"/><path class="st10" d="M69 2.7l1.7 2.5 2.1-1.6z"/><path class="st11" d="M1.5 13.3L.2 10.1l2.3 6.2z"/><path class="st12" d="M2 .6L.1 2.9l2.7.3z"/><path class="st13" d="M.2 10.1l1.3 3.2L3.1 12z"/><path class="st14" d="M4.7 0L2.8 3.2l2.9-.9z"/><path class="st15" d="M69.8.5L69 2.7l3.8.9z"/><path class="st16" d="M2 .6l.8 2.6L4.7 0z"/><path class="st17" d="M29 38.8l1.5 1.3.6-2.6z"/><path class="st18" d="M2.5 16.3l2.7 4.2L7 18.9z"/><path class="st19" d="M21.9 60.2l.5 1.1 1.2-1.1z"/><path class="st20" d="M30.4 53.3l.7.9.3-1.5z"/><path class="st21" d="M4.7 0l1 2.3 1.7-2z"/><path class="st22" d="M4.6 15.2l-2.1 1.1L7 18.9z"/><path class="st23" d="M7.4.3l-1.7 2 2.2.8z"/><path class="st24" d="M10 2.7l-1.3 3 2.2-.8z"/><path class="st25" d="M5.2 20.5l2.7 3.3 1.8-1.5z"/><path class="st26" d="M7 18.9l-1.8 1.6 4.5 1.8z"/><path class="st27" d="M9.9 8.4l1.8 1.4.4-2.6z"/><path class="st28" d="M9.7 22.3l-1.8 1.5 3.3 3.3z"/><path class="st29" d="M7.4.3l.5 2.8 2.1-.4z"/><path class="st30" d="M7.9 3.1l.8 2.6 1.3-3z"/><path class="st31" d="M8.7 5.7l1.2 2.7 1-3.5z"/><path class="st32" d="M25.3 1.5l-4.7.6L25.4 7z"/><path class="st33" d="M13.8 8.1l-2.1 1.7 2.3.8z"/><path class="st34" d="M10.9 4.9l-1 3.5 2.2-1.2z"/><path class="st35" d="M9.7 22.3l1.5 4.8 2.3-1.2z"/><path class="st36" d="M13.5 25.9l-2.3 1.2 4.2 2.9z"/><path class="st37" d="M12.1 7.2l-.4 2.6 2.1-1.7z"/><path class="st38" d="M14 10.6l.8 4.3 3.6-3.8z"/><path class="st39" d="M16.6 28.3L15.4 30l3.2 2.2z"/><path class="st40" d="M13.5 25.9l1.9 4.1 1.2-1.7z"/><path class="st41" d="M22.4 61.3l1.7.8.2-1.3z"/><path class="st42" d="M17.3 21.4l2.2 5.1.4-7z"/><path class="st43" d="M14 10.6l4.4.5.1-3.9z"/><path class="st44" d="M13.8 8.1l.2 2.5 4.5-3.4z"/><path class="st45" d="M16 3.3l-2.2 1.6 4.7 2.3z"/><path class="st46" d="M13.8 4.9v3.2l4.7-.9z"/><path class="st47" d="M23.3 36.6l-2 3.1 3.3-.4z"/><path class="st48" d="M16 3.3l2.5 3.9 2.1-5.1z"/><path class="st49" d="M68.9 13.6l.4 4.7 2.2-4.6z"/><path class="st50" d="M16.6 28.3l2 3.9 1.2-1.7z"/><path class="st45" d="M18.4 11.1l-3.6 3.8 5.1 4.6z"/><path class="st42" d="M14.8 14.9l2.5 6.5 2.6-1.9z"/><path class="st51" d="M17.8 35.7l.3 1.7 2-2.3z"/><path class="st52" d="M19.1 66.2l-.1 3.1 1.9-4.7z"/><path class="st53" d="M19.1 63.4v2.8l1.8-1.6z"/><path class="st54" d="M19.4 61.8l-.3 1.6 1.8 1.2z"/><path class="st55" d="M20.1 35.1l-2 2.3 3-.3z"/><path class="st56" d="M18.1 37.4l1.6 1.8 1.4-2.1z"/><path class="st57" d="M21.9 60.2l-2.5 1.6 3-.5z"/><path class="st58" d="M21.1 37.1l-1.4 2.1 1.6.5z"/><path class="st59" d="M19.4 61.8l1.5 2.8 1.5-3.3z"/><path class="st60" d="M23.4 34.8l-.1 1.8 2.1-2.3z"/><path class="st61" d="M19.8 30.5l-1.2 1.7 3-.8z"/><path class="st62" d="M18.6 32.2l2.4 1.3.6-2.1z"/><path class="st63" d="M22.4 61.3l-1.5 3.3 2-1.4z"/><path class="st64" d="M20.6 2.1l-2.1 5.1 6.9-.2z"/><path class="st65" d="M36.6 65.6l1 1.3 1.5-1.3z"/><path class="st66" d="M19 69.3v1.9l3.8 2.3z"/><path class="st67" d="M23.6 60.2l-1.2 1.1 1.9-.5z"/><path class="st68" d="M23.6 32.4l-.2 2.4 2-.5z"/><path class="st69" d="M21.2 28.7l1.5 2.3 1.5-2.8z"/><path class="st70" d="M21.1 37.1l.2 2.6 2-3.1z"/><path class="st71" d="M21.6 31.4l-.6 2.1 2.6-1.1z"/><path class="st58" d="M21 33.5l2.4 1.3.2-2.4z"/><path class="st72" d="M22.4 61.3l.5 1.9 1.2-1.1z"/><path class="st73" d="M18.4 11.1l1.5 8.4 4-7.5z"/><path class="st74" d="M18.5 7.2l-.1 3.9 5.5.9z"/><path class="st75" d="M23.9 12l-4 7.5 5.3-2.5z"/><path class="st76" d="M19.9 19.5l-.4 7 4.7 1.7z"/><path class="st38" d="M19.5 26.5l1.7 2.2 3-.5z"/><path class="st77" d="M22.7 31l.9 1.4.6-4.2z"/><path class="st78" d="M25.3 1.5l4.2 5.8 1.7-6.2z"/><path class="st79" d="M19 69.3l3.8 4.2 2.2-7.8z"/><path class="st80" d="M27.6 64.5l1.7 2.1.6-1.4z"/><path class="st81" d="M21.9 60.2h1.7l1.2-.8z"/><path class="st82" d="M23.6 60.2l.7.6.5-1.4z"/><path class="st83" d="M22.9 63.2l-2 1.4 4.1 1.1z"/><path class="st84" d="M25.4 34.3l-2.1 2.3 2.6 1.1z"/><path class="st85" d="M18.5 7.2l5.4 4.8 1.5-5z"/><path class="st86" d="M20.9 64.6L19 69.3l6-3.6z"/><path class="st87" d="M22.9 63.2l2.1 2.5.8-1.4z"/><path class="st88" d="M27.3 66.2l-2.3-.5 3.1 2.4z"/><path class="st89" d="M31.5 28.7l-2.7 4.6 4.8.4z"/><path class="st90" d="M28.5 47.5l3.4 2 .2-3.2z"/><path class="st91" d="M24.8 59.4l-.5 1.4 1.3-1.2z"/><path class="st92" d="M31 43.8l1.1 2.5 1.9-2.7z"/><path class="st93" d="M25.8 64.3l1.5 1.9.3-1.7z"/><path class="st81" d="M24.8 59.4l.8.2.7-.6z"/><path class="st94" d="M24.1 62.1l-1.2 1.1 2.9 1.1z"/><path class="st95" d="M23.3 36.6l1.3 2.7 1.3-1.6z"/><path class="st96" d="M25.4 34.3l.5 3.4 1.2-1.5z"/><path class="st97" d="M28.1 70.8l-1.7 3.4 1.8-1.3z"/><path class="st98" d="M25.6 59.6l1.6 3.8.6-4.7z"/><path class="st99" d="M24.1 62.1l1.7 2.2 1.4-.9z"/><path class="st100" d="M27.2 63.4l-1.4.9 1.8.2z"/><path class="st101" d="M25.8 64.3l-.8 1.4 2.3.5z"/><path class="st102" d="M26.3 59l-.7.6 2.2-.9z"/><path class="st103" d="M24.3 60.8l-.2 1.3 3.1 1.3z"/><path class="st104" d="M25.6 59.6l-1.3 1.2 2.9 2.6z"/><path class="st105" d="M23.9 12l5.2 2.5.4-7.2z"/><path class="st106" d="M38.1 40.2l2.7 1.3.5-4z"/><path class="st107" d="M25 65.7l-2.2 7.8 5.3-2.7z"/><path class="st88" d="M28.1 68.1L25 65.7l3.1 5.1z"/><path class="st29" d="M25.4 7l-1.5 5 5.6-4.7z"/><path class="st108" d="M22.8 73.5l3.6.7 1.7-3.4z"/><path class="st109" d="M29.5 57.8l-1.7.9 2.8 4.9z"/><path class="st110" d="M27.3 66.2l.8 1.9 1.2-1.5z"/><path class="st111" d="M23.9 12l1.3 5 3.9-2.5z"/><path class="st76" d="M24.2 28.2l-.6 4.2 5.2.9z"/><path class="st112" d="M23.6 32.4l1.8 1.9 3.4-1z"/><path class="st113" d="M25.4 34.3l1.7 1.9 1.7-2.9z"/><path class="st114" d="M27.6 64.5l-.3 1.7 2 .4z"/><path class="st115" d="M34.6 67.1l-2 1.5 2.2.1z"/><path class="st116" d="M30.6 63.6l-.7 1.6h1.6z"/><path class="st117" d="M27.8 58.7l-.6 4.7 3.4.2z"/><path class="st118" d="M27.6 64.5l2.3.7.7-1.6z"/><path class="st119" d="M34 65.6l-2 1.3 2.6.2z"/><path class="st120" d="M25.3 1.5l.1 5.5 4.1.3z"/><path class="st121" d="M29.6 23.1l-5.4 5.1 7.3.5z"/><path class="st122" d="M19.9 19.5l4.3 8.7 5.4-5.1z"/><path class="st123" d="M25.2 17l-5.3 2.5 9.7 3.6z"/><path class="st124" d="M29.1 14.5L25.2 17l4.4 6.1z"/><path class="st125" d="M29.3 66.6l-1.2 1.5 2.7.7z"/><path class="st126" d="M24.2 28.2l4.6 5.1 2.7-4.6z"/><path class="st127" d="M27.2 63.4l.4 1.1 3-.9z"/><path class="st128" d="M28.6 56.8l.9 1 .7-.8z"/><path class="st129" d="M29.6 55.7l-1 1.1 1.6.2z"/><path class="st130" d="M31.3 42.8l-.3 1 3-.2z"/><path class="st131" d="M31.3 42.8l2.7.8.2-1.1z"/><path class="st132" d="M32 66.9l-1.2 1.9 1.8-.2z"/><path class="st133" d="M29.7 50.4l1.7 2.3.5-3.2z"/><path class="st134" d="M28.2 72.9l-1.8 1.3 4.6.5z"/><path class="st135" d="M28.1 68.1v2.7l2.7-2z"/><path class="st136" d="M40.4 46.1l-4 .4 4.3 3.2z"/><path class="st137" d="M29.6 55.7l.6 1.3.9-2.8z"/><path class="st138" d="M28.8 33.3l-1.7 2.9 4 1.3z"/><path class="st139" d="M27.1 36.2l1.9 2.6 2.1-1.3z"/><path class="st140" d="M33.6 33.7l2.9.5.1-7z"/><path class="st141" d="M31.5 28.7l2.1 5 3-6.5z"/><path class="st142" d="M30.8 68.8l-2.7 2 3.6 2.4z"/><path class="st143" d="M30.8 42l.5.8.6-1.3z"/><path class="st144" d="M28.1 70.8l.1 2.1 3.5.3z"/><path class="st145" d="M28.8 33.3l2.3 4.2 2.5-3.8z"/><path class="st146" d="M29.3 66.6l1.5 2.2 1.2-1.9z"/><path class="st147" d="M30.8 68.8l.9 4.4.9-4.6z"/><path class="st148" d="M47.6 59.4l-.8.2 1.8 1.3z"/><path class="st149" d="M28.2 72.9l2.8 1.8.7-1.5z"/><path class="st150" d="M31.5 65.2h-1.6l2.1 1.7z"/><path class="st151" d="M28.5 47.5l1.2 2.9 2.2-.9z"/><path class="st152" d="M29.9 65.2l-.6 1.4 2.7.3z"/><path class="st153" d="M32.6 68.6l-.9 4.6 3.1-4.5z"/><path class="st154" d="M29.4 45.3l-.9 2.2 3.6-1.2z"/><path class="st155" d="M31.9 41.5l-.6 1.3 2.9-.3z"/><path class="st156" d="M31 43.8l-1.6 1.5 2.7 1z"/><path class="st157" d="M36.4 46.5l.1 3.3 4.2-.1z"/><path class="st158" d="M40.2 18.3l-4.3 2.9 5.3 5.2z"/><path class="st159" d="M37.6 66.9l-2.8 1.8h4.6z"/><path class="st160" d="M29.5 57.8l1.1 5.8 2.6-4.9z"/><path class="st161" d="M30.2 57l-.7.8 3.7.9z"/><path class="st162" d="M31.1 54.2l-.9 2.8 3.4.7z"/><path class="st163" d="M30.2 57l3 1.7.4-1z"/><path class="st164" d="M31.5 65.2l.5 1.7 2-1.3z"/><path class="st165" d="M32 66.9l.6 1.7 2-1.5z"/><path class="st166" d="M34.3 6.1l-4.8 1.2 6 6z"/><path class="st167" d="M31.2 1.1l-1.7 6.2 4.8-1.2z"/><path class="st168" d="M29.5 7.3l-.4 7.2 6.4-1.2z"/><path class="st169" d="M34.2 40l-2.3 1.5 2.3 1z"/><path class="st46" d="M33.6 33.7l2.3 4.3.6-3.8z"/><path class="st170" d="M35.7 73.4L31 74.7l5.5.3z"/><path class="st171" d="M31.1 37.5l-.6 2.6 3.7-.1z"/><path class="st77" d="M30.5 40.1l1.4 1.4 2.3-1.5z"/><path class="st172" d="M31.4 52.7l-.3 1.5 3.2.5z"/><path class="st173" d="M31.1 54.2l2.5 3.5.7-3z"/><path class="st174" d="M31.9 49.5l-.5 3.2 3.4.9z"/><path class="st175" d="M31.5 65.2l2.5.4.9-1.7z"/><path class="st176" d="M34.2 40l3.6 2.5.3-2.3z"/><path class="st177" d="M31.4 52.7l2.9 2 .5-1.1z"/><path class="st178" d="M35.5 13.3l-6.4 1.2 6.8 6.7z"/><path class="st179" d="M34.8 68.7l-3.1 4.5 4 .2z"/><path class="st180" d="M70.7 9.4l-1.8 4.2 2.6.1z"/><path class="st181" d="M31.2 1.1l3.1 5 3.1-5z"/><path class="st182" d="M33.2 58.7l-2.6 4.9 4.3.3z"/><path class="st183" d="M30.6 63.6l.9 1.6 3.4-1.3z"/><path class="st184" d="M35.9 21.2l-6.3 1.9 7 4.1z"/><path class="st185" d="M29.1 14.5l.5 8.6 6.3-1.9z"/><path class="st186" d="M31.7 73.2l-.7 1.5 4.7-1.3z"/><path class="st187" d="M39.8 33.5l-3.3.7 4.8 3.3z"/><path class="st188" d="M33.6 33.7l-2.5 3.8 4.8.5z"/><path class="st189" d="M31.1 37.5l3.1 2.5 1.7-2z"/><path class="st190" d="M36.4 46.5l-4.5 3 4.6.3z"/><path class="st191" d="M32.1 46.3l-.2 3.2 4.5-3z"/><path class="st192" d="M34 43.6l-1.9 2.7 4.3.2z"/><path class="st193" d="M35.9 38l-1.7 2 3.9.2z"/><path class="st194" d="M36.6 65.6l-2 1.5 3-.2z"/><path class="st195" d="M31.9 49.5l2.9 4.1 1.7-3.8z"/><path class="st196" d="M34 65.6l.6 1.5 2-1.5z"/><path class="st197" d="M34.9 63.9l-.9 1.7h2.6z"/><path class="st198" d="M34.3 54.7l-.7 3 4-.1z"/><path class="st199" d="M34.8 68.7l.9 4.7 3.7-4.7z"/><path class="st200" d="M37.6 57.6l-4.4 1.1 5 .1z"/><path class="st201" d="M29.6 23.1l1.9 5.6 5.1-1.5z"/><path class="st202" d="M34.6 67.1l.2 1.6 2.8-1.8z"/><path class="st203" d="M33.2 58.7l1.7 5.2 3.3-5.1z"/><path class="st204" d="M33.6 57.7l-.4 1 4.4-1.1z"/><path class="st205" d="M34.3 54.7l3.3 2.9.8-2.8z"/><path class="st206" d="M34 43.6l2.4 2.9 1.6-2.7z"/><path class="st207" d="M35.5 13.3l.4 7.9 4.3-2.9z"/><path class="st208" d="M36.5 34.2l-.6 3.8 5.4-.5z"/><path class="st209" d="M34.2 40v2.5h3.6z"/><path class="st210" d="M35.9 21.2l.7 6 4.6-.8z"/><path class="st211" d="M34.2 42.5l-.2 1.1 4 .2z"/><path class="st212" d="M37.8 42.5h-3.6l3.8 1.3z"/><path class="st213" d="M38.4 53.8l-3.6-.2 3.6 1.2z"/><path class="st214" d="M34.8 53.6l-.5 1.1 4.1.1z"/><path class="st215" d="M40.2 6.8l4.9 4 .8-6.7z"/><path class="st216" d="M36.6 27.2l3.2 6.3 1.4-7.1z"/><path class="st217" d="M41.3 37.5l-.5 4 2-1.6z"/><path class="st218" d="M36.5 49.8l-1.7 3.8 3.6.2z"/><path class="st219" d="M36.6 27.2l-.1 7 3.3-.7z"/><path class="st220" d="M38.4 53.8l3.1.3v-1.4z"/><path class="st221" d="M49.7 36.9v2.6l1.9-2.4z"/><path class="st222" d="M44.3 1.4l-4.1 5.4 5.7-2.7z"/><path class="st223" d="M37.6 66.9l1.8 1.8.6-1.7z"/><path class="st224" d="M38.2 58.8l-3.3 5.1 5-.2z"/><path class="st225" d="M37.4 1.1l-3.1 5 5.9.7z"/><path class="st226" d="M34.3 6.1l1.2 7.2 4.7-6.5z"/><path class="st227" d="M39.4 68.7l-3.7 4.7H41z"/><path class="st228" d="M36.6 65.6h2.5l.8-1.9z"/><path class="st229" d="M34.9 63.9l1.7 1.7 3.3-1.9z"/><path class="st230" d="M39.1 65.6l-1.5 1.3 2.4.1z"/><path class="st231" d="M38 43.8l-1.6 2.7 4-.4z"/><path class="st232" d="M35.7 73.4l.8 1.6 4.5-1.6z"/><path class="st233" d="M36.5 49.8l1.9 4 2.3-4.1z"/><path class="st234" d="M40.2 18.3l1 8.1 3.7-5.8z"/><path class="st235" d="M47.6 59.4l1 1.5.8-1.2z"/><path class="st236" d="M38.1 40.2l-.3 2.3 3-1z"/><path class="st237" d="M41.2 65.4L40 67l2-.1z"/><path class="st238" d="M44.5 68.1L41 73.4l3.7-.9z"/><path class="st239" d="M41.5 52.7v1.4l.6-.8z"/><path class="st240" d="M41 73.4L36.5 75h5.9z"/><path class="st241" d="M39.9 63.7l-.8 1.9 2.1-.2z"/><path class="st242" d="M39.1 65.6L40 67l1.2-1.6z"/><path class="st243" d="M35.9 38l2.2 2.2 3.2-2.7z"/><path class="st244" d="M41 73.4l1.4 1.6 2.3-2.5z"/><path class="st245" d="M39.8 33.5l1.5 4 1.4-2.4z"/><path class="st246" d="M41.5 54.1l-3.1.7 3.3 2.2z"/><path class="st247" d="M38.4 54.8l-.8 2.8 4.1-.6z"/><path class="st248" d="M40.8 41.5l-3 1 3.7.6z"/><path class="st249" d="M38.4 53.8v1l3.1-.7z"/><path class="st250" d="M40.7 49.7l-2.3 4.1 3.1-1.1z"/><path class="st251" d="M38 43.8l2.4 2.3 1.1-3z"/><path class="st252" d="M37.8 42.5l.2 1.3 3.5-.7z"/><path class="st253" d="M40.8 41.5l.7 1.6.3-1.1z"/><path class="st254" d="M37.6 57.6l.6 1.2 3.5-1.8z"/><path class="st255" d="M40 67l-.6 1.7 2.6-1.8z"/><path class="st256" d="M66.3.2L69 2.7l.8-2.2z"/><path class="st257" d="M39.8 33.5l2.9 1.6 1.7-4.2z"/><path class="st258" d="M43.8 46l-3.4.1 3.9 2z"/><path class="st259" d="M41.7 57l1.1.8V56z"/><path class="st260" d="M41.5 43.1l-1.1 3 2.2-1.6z"/><path class="st261" d="M40.4 46.1l.3 3.6 3.6-1.6z"/><path class="st262" d="M42.8 56v1.8l.8-1z"/><path class="st263" d="M41.7 57l-3.5 1.8 4.6-1z"/><path class="st264" d="M38.2 58.8l1.7 4.9 2.9-5.9z"/><path class="st265" d="M41.5 54.1l.2 2.9 1.1-1z"/><path class="st266" d="M41.2 26.4l-1.4 7.1 4.6-2.6z"/><path class="st267" d="M40.7 49.7l.8 3 1.5-2.3z"/><path class="st268" d="M41.2 65.4l.8 1.5 1.6-1.8z"/><path class="st269" d="M40.7 49.7l2.3.7 1.3-2.3z"/><path class="st270" d="M37.4 1.1l2.8 5.7 4.1-5.4z"/><path class="st271" d="M42.6 44.5l-2.2 1.6 3.4-.1z"/><path class="st272" d="M44.3 1.4l1.6 2.7 4.8-2z"/><path class="st273" d="M42.7 35.1l2.3 2.3 1.4-1.7z"/><path class="st274" d="M39.9 63.7l1.3 1.7 2.9-1.9z"/><path class="st275" d="M41.2 65.4l2.4-.3.5-1.6z"/><path class="st276" d="M42.8 57.8l-2.9 5.9 4.2-.2z"/><path class="st277" d="M45.1 10.8l4.3 2.4 1.3-5.9z"/><path class="st278" d="M41.3 37.5l1.5 2.4 2.2-2.5z"/><path class="st279" d="M47.5 62.3l-2.1 2.3 2.5-.3z"/><path class="st146" d="M43.6 65.1l1.6 1.4.2-1.9z"/><path class="st280" d="M40.2 18.3l4.7 2.3.2-9.8z"/><path class="st193" d="M42.7 35.1l-1.4 2.4 3.7-.1z"/><path class="st281" d="M39.4 68.7l1.6 4.7 3.5-5.3z"/><path class="st282" d="M42 66.9l-2.6 1.8 5.1-.6z"/><path class="st283" d="M44.1 63.5l-.5 1.6 1.8-.5z"/><path class="st284" d="M47.3 30.8l-2.9.1 3.4 3.3z"/><path class="st285" d="M45.1 58.8l-1 4.7 2.7-3.9z"/><path class="st286" d="M44.9 20.6l-3.7 5.8 5-.1z"/><path class="st287" d="M35.5 13.3l4.7 5 4.9-7.5z"/><path class="st288" d="M42.8 57.8l1.3 5.7 1-4.7z"/><path class="st289" d="M44.4 30.9l-1.7 4.2 3.7.6z"/><path class="st290" d="M40.2 6.8l-4.7 6.5 9.6-2.5z"/><path class="st291" d="M42 66.9l2.5 1.2.7-1.6z"/><path class="st292" d="M43.6 65.1L42 66.9l3.2-.4z"/><path class="st293" d="M46.8 59.6l.7 2.7 1.1-1.4z"/><path class="st294" d="M53 17.5l-3.9 4.3 3.9.4z"/><path class="st295" d="M44.9 20.6l4.2 1.2.3-8.6z"/><path class="st102" d="M45.1 58.8l1.7.8.8-.2z"/><path class="st296" d="M41.2 26.4l3.2 4.5 1.8-4.6z"/><path class="st80" d="M47.3 66.1l-2.8 2 3.3 5.7z"/><path class="st145" d="M44.4 30.9l2 4.8 1.4-1.5z"/><path class="st297" d="M46.8 59.6l-2.7 3.9 3.4-1.2z"/><path class="st298" d="M44.1 63.5l1.3 1.1 2.1-2.3z"/><path class="st299" d="M45.4 64.6l-.2 1.9 2.1-.4z"/><path class="st300" d="M46.2 26.3l-1.8 4.6 2.9-.1z"/><path class="st301" d="M45.2 66.5l-.7 1.6 2.8-2z"/><path class="st302" d="M45.1 10.8l-.2 9.8 4.5-7.4z"/><path class="st303" d="M45.4 64.6l1.9 1.5.6-1.8z"/><path class="st304" d="M48.6 60.9l1.3 2.2.2-1.9z"/><path class="st305" d="M66.3.2l-.4 2.7 3.1-.2z"/><path class="st306" d="M44.7 72.5L42.4 75l5.4-1.2z"/><path class="st307" d="M50.7 7.3l3.2 4.3 1.6-4.8z"/><path class="st308" d="M44.5 68.1l.2 4.4 3.1 1.3z"/><path class="st309" d="M61.4 24.1l-2.6 2.3 4.1-.8z"/><path class="st310" d="M49.4 59.7l-.8 1.2 1.5.3z"/><path class="st311" d="M46.2 26.3l2.8.6.1-5.1z"/><path class="st312" d="M47.3 30.8l.5 3.4 1-1.5z"/><path class="st313" d="M44.9 20.6l1.3 5.7 2.9-4.5z"/><path class="st314" d="M47.9 64.3l1.9 1.1.1-2.3z"/><path class="st315" d="M46.2 26.3l1.1 4.5 1.7-3.9z"/><path class="st316" d="M48.8 32.7l-1 1.5 1.5 1z"/><path class="st317" d="M47.8 34.2l-1.4 1.5 2.9-.5z"/><path class="st318" d="M49.9 63.1l-.1 2.3 2.2-1z"/><path class="st319" d="M49.8 65.4l-2.5.7 4.8 6.4z"/><path class="st320" d="M47.2 38.4l2.5 1.1v-2.6z"/><path class="st321" d="M47.9 64.3l-.6 1.8 2.5-.7z"/><path class="st322" d="M46.4 35.7l.8 2.7 2.5-1.5z"/><path class="st323" d="M49.3 35.2l-2.9.5 3.3 1.2z"/><path class="st324" d="M47.3 66.1l.5 7.7 4.3-1.3z"/><path class="st325" d="M47.5 62.3l.4 2 2-1.2z"/><path class="st326" d="M48.6 60.9l-1.1 1.4 2.4.8z"/><path class="st327" d="M45.9 4.1l-.8 6.7 5.6-3.5z"/><path class="st328" d="M50.7 2.1l-4.8 2 4.8 3.2z"/><path class="st329" d="M49 26.9l1.3 4 1.1-1.3z"/><path class="st330" d="M50.3 31.9l-1.5.8 2.3 1.3z"/><path class="st145" d="M47.3 30.8l1.5 1.9 1.5-1.8z"/><path class="st331" d="M49 26.9l-1.7 3.9 3 .1z"/><path class="st329" d="M49 26.9l2.4 2.7 1.1-2z"/><path class="st332" d="M48.8 32.7l.5 2.5 1.8-1.2z"/><path class="st333" d="M49.4 13.2l-.3 8.6 3.9-4.3z"/><path class="st334" d="M53.4 2.6l-2.7 4.7 4.8-.5z"/><path class="st335" d="M51.6 37.1l-1.9 2.4 2.4.1z"/><path class="st336" d="M53.6 66.6l-3.8-1.2 3.9 5.6z"/><path class="st337" d="M49.4 13.2l3.6 4.3.9-5.9z"/><path class="st338" d="M49.8 65.4l2.3 7.1 1.6-1.5z"/><path class="st339" d="M64.1 21.4l2.1 1.2.6-4.8z"/><path class="st340" d="M51.6 37.1l.5 2.5 1.8-.9z"/><path class="st341" d="M53.4 63.6l-1.4.8 1.6 2.2z"/><path class="st338" d="M52 64.4l-2.2 1 3.8 1.2z"/><path class="st342" d="M49.1 21.8l-.1 5.1 4-4.7z"/><path class="st343" d="M49.4 59.7l.7 1.5 2.9.2z"/><path class="st344" d="M49.9 63.1l2.1 1.3 1-3z"/><path class="st345" d="M50.1 61.2l-.2 1.9 3.1-1.7z"/><path class="st346" d="M50.7 2.1v5.2l2.7-4.7z"/><path class="st347" d="M53 61.4l-1 3 1.4-.8z"/><path class="st348" d="M53 22.2l-4 4.7 4.8-1.3z"/><path class="st349" d="M58.8 26.4l1.2 1.8 2.9-2.6z"/><path class="st350" d="M50.3 31.9l.8 2.1 2.6-1.3z"/><path class="st351" d="M53 30.5l-2.7 1.4 3.4.8z"/><path class="st352" d="M50.7 7.3l-1.3 5.9 4.5-1.6z"/><path class="st62" d="M54.2 35.2l-2 .1 2.4 1.8z"/><path class="st353" d="M49 26.9l3.5.7 1.3-2z"/><path class="st354" d="M52.2 35.3l-.6 1.8h3zm-.6 1.8l2.3 1.6.7-1.6z"/><path class="st355" d="M53 17.5v4.7l3.3-1.9z"/><path class="st356" d="M53 22.2l.8 3.4 2.5-5.3z"/><path class="st357" d="M53.4 2.6l2.1 4.2 2.1-3.2z"/><path class="st358" d="M55.5 6.8l3.5.7v-3z"/><path class="st359" d="M57.6 3.6l-2.1 3.2L59 4.5z"/><path class="st360" d="M55.8 28.5l-2.8 2 3.8.2z"/><path class="st361" d="M53.9 11.6l4 3.5.6-3.8z"/><path class="st362" d="M53 30.5l.7 2.2 3.1-2z"/><path class="st363" d="M55.5 6.8l-1.6 4.8 4.6-.3z"/><path class="st364" d="M53.9 11.6l-.9 5.9 4.9-2.4z"/><path class="st365" d="M53 17.5l3.3 2.8 1.6-5.2z"/><path class="st366" d="M55.5 6.8l3 4.5.5-3.8z"/><path class="st32" d="M63 2.1l1.1 3.1 1.8-2.3z"/><path class="st367" d="M60.3 7.3l-1.3.2 2.7 2.3z"/><path class="st368" d="M55.8 28.5l1 2.2 3.2-2.5z"/><path class="st369" d="M58.8 26.4l-3 2.1 4.2-.3z"/><path class="st25" d="M59 7.5l-.5 3.8 3.2-1.5z"/><path class="st370" d="M63 2.1l-1.5 2.4 2.6.7z"/><path class="st371" d="M60.3 7.3l1.4 2.5 2.4-4.6z"/><path class="st372" d="M61.5 4.5l-1.2 2.8 3.8-2.1z"/><path class="st373" d="M68.9 13.6l-2.1 4.2 2.5.5z"/><path class="st374" d="M61.4 24.1l1.5 1.5 1.2-4.2z"/><path class="st33" d="M64.1 21.4l-1.2 4.2 3.3-3z"/><path class="st375" d="M63 2.1l2.9.8.4-2.7z"/><path class="st376" d="M66.8 17.8l-.6 4.8 3.1-4.3z"/></svg>