<svg id="Layer_1" xmlns="http://www.w3.org/2000/svg" viewBox="0 0 547.5 732"><style>.st0{fill:#26281d}.st1{fill:#bec3a4}.st2{fill:#bac1a3}.st3{fill:#d3d8b4}.st4{fill:#1e1f13}.st5{fill:#3b3b33}.st6{fill:#fcfbdc}.st7{fill:#d8deb6}.st8{fill:#0e0f0a}.st9{fill:#ced4b4}.st10{fill:#070505}.st11{fill:#8b9183}.st12{fill:#040102}.st13{fill:#040000}.st14{fill:#999c8b}.st15{fill:#969d8b}.st16{fill:#a3a892}.st17{fill:#fefefa}.st18{fill:#878e7e}.st19{fill:#d1d7b2}.st20{fill:#bec4a4}.st21{fill:#afb49e}.st22{fill:#c0c5a7}.st23{fill:#7a7f70}.st24{fill:#ccd2b2}.st25{fill:#cad1b0}.st26{fill:#b7bd9f}.st27{fill:#afb59a}.st28{fill:#929781}.st29{fill:#f3f6d3}.st30{fill:#9b9f89}.st31{fill:#7c8375}.st32{fill:#7b8073}.st33{fill:#808779}.st34{fill:#050101}.st35{fill:#d0d7b6}.st36{fill:#b4baa1}.st37{fill:#747973}.st38{fill:#7e8274}.st39{fill:#717771}.st40{fill:#72756a}.st41{fill:#0f1009}.st42{fill:#a2a993}.st43{fill:#979e8e}.st44{fill:#717670}.st45{fill:#767c75}.st46{fill:#6c716b}.st47{fill:#797f75}.st48{fill:#6f756d}.st49{fill:#6e736d}.st50{fill:#dbe4c9}.st51{fill:#7d8478}.st52{fill:#aaaf99}.st53{fill:#0c0c0a}.st54{fill:#313127}.st55{fill:#0b0908}.st56{fill:#4e4e4e}.st57{fill:#504f4f}.st58{fill:#5a5a5a}.st59{fill:#c1c8a9}.st60{fill:#0c0c0c}.st61{fill:#6a706c}.st62{fill:#090806}.st63{fill:#12140e}.st64{fill:#838a7e}.st65{fill:#7e857b}.st66{fill:#656b67}.st67{fill:#4b4a4a}.st68{fill:#060303}.st69{fill:#0c0d08}.st70{fill:#c8cfae}.st71{fill:#767a6c}.st72{fill:#6b706a}.st73{fill:#b2b7a1}.st74{fill:#b6d4ef}.st75{fill:#545440}.st76{fill:#10120d}.st77{fill:#747a78}.st78{fill:#dfe5bd}.st79{fill:#a4ab99}.st80{fill:#171813}.st81{fill:#aeaeae}.st82{fill:#565657}.st83{fill:#6d736f}.st84{fill:#787979}.st85{fill:#0f100b}.st86{fill:#4a4949}.st87{fill:#999e88}.st88{fill:#5d5d5d}.st89{fill:#737876}.st90{fill:#757575}.st91{fill:#636361}.st92{fill:#7a7c6e}.st93{fill:#6b6f69}.st94{fill:#727272}.st95{fill:#434341}.st96{fill:#4e4d4d}.st97{fill:#8f958a}.st98{fill:#838a80}.st99{fill:#0b0d08}.st100{fill:#535353}.st101{fill:#f2f6d2}.st102{fill:#6a6b6b}.st103{fill:#151511}.st104{fill:#373528}.st105{fill:#060203}.st106{fill:#9e9d9d}.st107{fill:#646363}.st108{fill:#0d0e08}.st109{fill:#b5bca6}.st110{fill:#d4dbbb}.st111{fill:#6b716a}.st112{fill:#1b1a15}.st113{fill:#0d0f08}.st114{fill:#706f6f}.st115{fill:#7d8172}.st116{fill:#26261c}.st117{fill:#b5d7ec}.st118{fill:#707673}.st119{fill:#8e968c}.st120{fill:#6e746a}.st121{fill:#d3d9b6}.st122{fill:#8a9292}.st123{fill:#a2a999}.st124{fill:#464646}.st125{fill:#a0a0a0}.st126{fill:#575758}.st127{fill:#8a9492}.st128{fill:#828282}.st129{fill:#afb495}.st130{fill:#767a6b}.st131{fill:#7b8480}.st132{fill:#0e0e0c}.st133{fill:#9b9b9b}.st134{fill:#e1e7c0}.st135{fill:#8b8b8b}.st136{fill:#0f110b}.st137{fill:#f2f6d5}.st138{fill:#e1e8c8}.st139{fill:#c0bfbf}.st140{fill:#939293}.st141{fill:#cacaca}.st142{fill:#5c5c5c}.st143{fill:#838c8b}.st144{fill:#c2c1c1}.st145{fill:#f8f8f8}.st146{fill:#dddcdc}.st147{fill:#bfbebe}.st148{fill:#0a0a06}.st149{fill:#12110d}.st150{fill:#161612}.st151{fill:#0d0d0b}.st152{fill:#0c0b09}.st153{fill:#c0c8b3}.st154{fill:#454444}.st155{fill:#cececf}.st156{fill:#eff4c9}.st157{fill:#6a7066}.st158{fill:#7f7f7f}.st159{fill:#656666}.st160{fill:#c0c9b4}.st161{fill:#abb2a3}.st162{fill:#181a15}.st163{fill:#959494}.st164{fill:#98a098}.st165{fill:#212537}.st166{fill:#9eb5de}.st167{fill:#bec4a2}.st168{fill:#f8f9e1}.st169{fill:#a6a6a5}.st170{fill:#e6e6e5}.st171{fill:#eaeaea}.st172{fill:#d6dcbc}.st173{fill:#353428}.st174{fill:#808081}.st175{fill:#505d8b}.st176{fill:#413f32}.st177{fill:#c2cab5}.st178{fill:#8b9593}.st179{fill:#e0e9cd}.st180{fill:#ddddde}.st181{fill:#292a1c}.st182{fill:#eff3c7}.st183{fill:#8d927d}.st184{fill:#707672}.st185{fill:#727a77}.st186{fill:#848e8a}.st187{fill:#626760}.st188{fill:#c9cacc}.st189{fill:#0b0a0a}.st190{fill:#5d5e5e}.st191{fill:#bebdbd}.st192{fill:#cdcdcd}.st193{fill:#e9f0c9}.st194{fill:#201f1b}.st195{fill:#696b5b}.st196{fill:#2e3652}.st197{fill:#5b6c99}.st198{fill:#49537f}.st199{fill:#7184c1}.st200{fill:#909a99}.st201{fill:#9aa59c}.st202{fill:#90a7d6}.st203{fill:#506284}.st204{fill:#868687}.st205{fill:#adacac}.st206{fill:#0d0d0d}.st207{fill:#3a4463}.st208{fill:#eaf1cb}.st209{fill:#b8bc9d}.st210{fill:#6b6f5e}.st211{fill:#8a8b86}.st212{fill:#a0b8e0}.st213{fill:#8a8f6f}.st214{fill:#8f937b}.st215{fill:#8d9796}.st216{fill:#a3a889}.st217{fill:#7386c2}.st218{fill:#6075b7}.st219{fill:#666b64}.st220{fill:#242736}.st221{fill:#c1c0be}.st222{fill:#949879}.st223{fill:#d29f98}.st224{fill:#afcaea}.st225{fill:#fcfbe2}.st226{fill:#bec4a7}.st227{fill:#fafafb}.st228{fill:#c0ccca}.st229{fill:#7a7e68}.st230{fill:#2b334e}.st231{fill:#a3a690}.st232{fill:#bcc5b4}.st233{fill:#848976}.st234{fill:#717466}.st235{fill:#b4b3b5}.st236{fill:#060202}.st237{fill:#525252}.st238{fill:#0e0f11}.st239{fill:#868f8d}.st240{fill:#75796b}.st241{fill:#888e7a}.st242{fill:#737975}.st243{fill:#252628}.st244{fill:#434135}.st245{fill:#bdc7c2}.st246{fill:#89a2d3}.st247{fill:#95b2dd}.st248{fill:#6abc6f}.st249{fill:#4f4c3d}.st250{fill:#272e43}.st251{fill:#919192}.st252{fill:#7d7d7e}.st253{fill:#353c59}.st254{fill:#646a60}.st255{fill:#a0b8df}.st256{fill:#0a0909}.st257{fill:#dbe3ce}.st258{fill:#b3d1ee}.st259{fill:#c6e7f9}.st260{fill:#a9a8a6}.st261{fill:#717171}.st262{fill:#b8b9bd}.st263{fill:#798079}.st264{fill:#0c0c0e}.st265{fill:#575d53}.st266{fill:#b2bbb3}.st267{fill:#0d0d12}.st268{fill:#8d9793}.st269{fill:#d4ddc8}.st270{fill:#90a5d5}.st271{fill:#fff}.st272{fill:#2d2d23}.st273{fill:#e4e3e3}.st274{fill:#181711}.st275{fill:#b5bb9d}.st276{fill:#818785}.st277{fill:#2c2c2c}.st278{fill:#989aa0}.st279{fill:#dadad8}.st280{fill:#050000}.st281{fill:#5b617a}.st282{fill:#757b94}.st283{fill:#1a1a1a}.st284{fill:#a43b43}.st285{fill:#9ca08a}.st286{fill:#cbcfb1}.st287{fill:#c7cdad}.st288{fill:#76796e}.st289{fill:#8b9393}.st290{fill:#b5d3ef}.st291{fill:#53513c}.st292{fill:#2f3651}.st293{fill:#889fd1}.st294{fill:#c3c2c0}.st295{fill:#f7f9df}.st296{fill:#0d0f0e}.st297{fill:#fdfefe}.st298{fill:#545b6b}.st299{fill:#8d9695}.st300{fill:#838c89}.st301{fill:#6e756e}.st302{fill:#858b8b}.st303{fill:#8e9380}.st304{fill:#a9a8a4}.st305{fill:#9a9b9f}.st306{fill:#8da4d4}.st307{fill:#b2ceec}.st308{fill:#0d0c0c}.st309{fill:#2f344e}.st310{fill:#2f2f25}.st311{fill:#96a09e}.st312{fill:#0a090b}.st313{fill:#2c2c22}.st314{fill:#353529}.st315{fill:#202118}.st316{fill:#060102}.st317{fill:#0b0a09}.st318{fill:#8ca1d3}.st319{fill:#ae474c}.st320{fill:#9ca1b4}.st321{fill:#676e67}.st322{fill:#838d8a}.st323{fill:#999d87}.st324{fill:#fffefe}.st325{fill:#fcfdfd}.st326{fill:#fffefa}.st327{fill:#15161a}.st328{fill:#5f645e}.st329{fill:#0f0f0f}.st330{fill:#a0a696}.st331{fill:#a0b9e0}.st332{fill:#818a87}.st333{fill:#8c9591}.st334{fill:#697068}.st335{fill:#646b5c}.st336{fill:#949d9b}.st337{fill:#8e9995}.st338{fill:#848d8c}.st339{fill:#191919}.st340{fill:#6e7470}.st341{fill:#acb097}.st342{fill:#6b7069}.st343{fill:#70766a}.st344{fill:#717874}.st345{fill:#c6d2ce}.st346{fill:#858b7a}.st347{fill:#6c716a}.st348{fill:#80879b}.st349{fill:#feffff}.st350{fill:#70756e}.st351{fill:#7c90c8}.st352{fill:#6b83c0}.st353{fill:#4a4e62}.st354{fill:#6c726e}.st355{fill:#666b65}.st356{fill:#474a51}.st357{fill:#fcfcfa}.st358{fill:#65656d}.st359{fill:#a3aa98}.st360{fill:#c1bfbd}.st361{fill:#515459}.st362{fill:#202739}.st363{fill:#6477b6}.st364{fill:#787b70}.st365{fill:#505c8c}.st366{fill:#6c7268}.st367{fill:#767c6e}.st368{fill:#6f7469}.st369{fill:#191d28}.st370{fill:#81897b}.st371{fill:#4c5c90}.st372{fill:#9faaa4}.st373{fill:#dad8d9}.st374{fill:#717567}.st375{fill:#161a29}.st376{fill:#272935}.st377{fill:#424960}.st378{fill:#2f2f27}.st379{fill:#fafbe6}.st380{fill:#656963}.st381{fill:#72786a}.st382{fill:#ea5a6f}.st383{fill:#ea5a6e}.st384{fill:#404970}.st385{fill:#536299}.st386{fill:#646463}.st387{fill:#bbc8c4}.st388{fill:#0a0907}.st389{fill:#616763}.st390{fill:#7d8381}.st391{fill:#7f8375}.st392{fill:#a0a98d}.st393{fill:#666b67}.st394{fill:#bdc6ae}.st395{fill:#858e8a}.st396{fill:#e8f2db}.st397{fill:#626763}.st398{fill:#77817e}.st399{fill:#767d76}.st400{fill:#676c68}.st401{fill:#e9556a}.st402{fill:#7d847c}.st403{fill:#6b6f6e}.st404{fill:#7b807c}.st405{fill:#d0daca}.st406{fill:#a6b2b0}.st407{fill:#a8b5ae}.st408{fill:#7b817d}.st409{fill:#fffffe}.st410{fill:#dae1c3}.st411{fill:#97998f}.st412{fill:#676c66}.st413{fill:#717769}.st414{fill:#e9515f}.st415{fill:#656768}.st416{fill:#3b0103}.st417{fill:#979996}.st418{fill:#847d80}.st419{fill:#6c7365}.st420{fill:#ea596b}.st421{fill:#8a9390}.st422{fill:#ea596d}.st423{fill:#a13138}.st424{fill:#e95062}.st425{fill:#d53c4a}.st426{fill:#76382f}.st427{fill:#a8ad96}.st428{fill:#767c78}.st429{fill:#83877a}.st430{fill:#deece9}.st431{fill:#6f746e}.st432{fill:#e94e5f}.st433{fill:#737c78}.st434{fill:#909994}.st435{fill:#b0acaa}.st436{fill:#c8d5ce}.st437{fill:#747d79}.st438{fill:#e8434f}.st439{fill:#76807d}.st440{fill:#eb677a}.st441{fill:#585855}.st442{fill:#89918e}.st443{fill:#646968}.st444{fill:#ea5667}.st445{fill:#ea566b}.st446{fill:#ea5e73}.st447{fill:#ea5d72}.st448{fill:#8f9790}.st449{fill:#5e5956}.st450{fill:#ea5f73}.st451{fill:#e94957}.st452{fill:#9ea9a4}.st453{fill:#7b7f79}.st454{fill:#fefdf3}.st455{fill:#c2cec8}.st456{fill:#5f6563}.st457{fill:#686d66}.st458{fill:#070405}.st459{fill:#e94d5b}.st460{fill:#ed7f94}.st461{fill:#e95264}.st462{fill:#440306}.st463{fill:#ddece9}.st464{fill:#9e9593}.st465{fill:#9faba1}.st466{fill:#eff6e1}.st467{fill:#e94e5d}.st468{fill:#fefdf5}.st469{fill:#919b9a}.st470{fill:#9b9f9e}.st471{fill:#ea596a}.st472{fill:#ea596e}.st473{fill:#f0f6e2}.st474{fill:#e95361}.st475{fill:#8e9483}.st476{fill:#767e71}.st477{fill:#ea5b70}.st478{fill:#9ca6a7}.st479{fill:#380303}.st480{fill:#8b7a79}.st481{fill:#e9556b}.st482{fill:#96a29b}.st483{fill:#68635f}.st484{fill:#9aa09f}.st485{fill:#e94f5f}.st486{fill:#ea5563}.st487{fill:#97a39e}.st488{fill:#ea586b}.st489{fill:#e94854}.st490{fill:#87908d}.st491{fill:#3b0204}.st492{fill:#28291f}.st493{fill:#727b76}.st494{fill:#71776d}.st495{fill:#998682}.st496{fill:#cbd9d6}.st497{fill:#afbcb2}.st498{fill:#747a8c}.st499{fill:#ccdad5}.st500{fill:#c2cdca}.st501{fill:#e95467}.st502{fill:#ea5769}.st503{fill:#858f85}.st504{fill:#9ca18b}.st505{fill:#370305}.st506{fill:#8a938f}.st507{fill:#777d7b}.st508{fill:#c3cebe}.st509{fill:#777d79}.st510{fill:#1c1d1d}.st511{fill:#a2aca6}.st512{fill:#7f8579}.st513{fill:#94262e}.st514{fill:#d5d8d7}.st515{fill:#b0b4b3}.st516{fill:#c0cdc7}.st517{fill:#a18f84}.st518{fill:#acb7b3}.st519{fill:#ea5b6f}.st520{fill:#c3c9c9}.st521{fill:#d0d6b3}.st522{fill:#858b89}.st523{fill:#808684}.st524{fill:#cb3643}.st525{fill:#7a8074}.st526{fill:#858786}.st527{fill:#a9a5a4}.st528{fill:#757e7b}.st529{fill:#080606}.st530{fill:#ea5c6f}.st531{fill:#eb6c80}.st532{fill:#d1e0dd}.st533{fill:#ebece3}.st534{fill:#d2e0e0}.st535{fill:#141413}.st536{fill:#fefef7}.st537{fill:#7f8679}.st538{fill:#131313}.st539{fill:#360205}.st540{fill:#818982}.st541{fill:#8c9792}.st542{fill:#0d0e09}.st543{fill:#a0aaa9}.st544{fill:#8d9692}.st545{fill:#cfdedb}.st546{fill:#848e86}.st547{fill:#dae9e6}.st548{fill:#d4e2df}.st549{fill:#c9d5d0}.st550{fill:#340306}.st551{fill:#d3e1de}.st552{fill:#ecf3cc}.st553{fill:#8d9387}.st554{fill:#2f3124}.st555{fill:#909890}.st556{fill:#767f7a}.st557{fill:#e2ece6}.st558{fill:#c9d0b0}.st559{fill:#2e0303}.st560{fill:#879289}.st561{fill:#ced8d7}.st562{fill:#d3e0dd}.st563{fill:#939e96}.st564{fill:#cddcd9}.st565{fill:#a6b1ab}.st566{fill:#909787}.st567{fill:#8e9485}.st568{fill:#87918c}.st569{fill:#b8c3c2}.st570{fill:#bbc7c5}.st571{fill:#9da296}.st572{fill:#e2f0ed}.st573{fill:#959f9b}.st574{fill:#d3dfdd}.st575{fill:#c4d0cc}.st576{fill:#121216}.st577{fill:#2b0405}.st578{fill:#c8d6d3}.st579{fill:#9ea9a7}.st580{fill:#969b86}.st581{fill:#e0f0e7}.st582{fill:#e5f2e1}.st583{fill:#360208}.st584{fill:#c7d5d2}.st585{fill:#340405}.st586{fill:#4f4f4d}.st587{fill:#e1efec}.st588{fill:#dfefe9}.st589{fill:#b8c1ad}.st590{fill:#cfd9b7}.st591{fill:#cddddd}.st592{fill:#d9e8e5}.st593{fill:#b4bba7}.st594{fill:#d1e0db}.st595{fill:#e2f1ee}.st596{fill:#d0dcd9}.st597{fill:#d8e7e3}.st598{fill:#a7b2ac}.st599{fill:#8d9894}.st600{fill:#d5dedf}.st601{fill:#dceae7}.st602{fill:#e5f3f0}.st603{fill:#96796f}.st604{fill:#252d42}.st605{fill:#d4dfdb}.st606{fill:#e5f3f4}.st607{fill:#a8ab98}.st608{fill:#310304}.st609{fill:#e4efed}.st610{fill:#c4d0ce}.st611{fill:#dff0ec}.st612{fill:#bac5c4}.st613{fill:#d5dcbc}.st614{fill:#b9bea8}.st615{fill:#d9e6e6}.st616{fill:#ceddda}.st617{fill:#bdc5a8}.st618{fill:#b3bba9}.st619{fill:#11120c}.st620{fill:#4e4c39}.st621{fill:#b0b0b0}.st622{fill:#dceaea}.st623{fill:#370804}.st624{fill:#300303}.st625{fill:#8d9589}.st626{fill:#2f2f23}.st627{fill:#d9ede5}.st628{fill:#f5faf8}.st629{fill:#ceddb7}.st630{fill:#878d80}.st631{fill:#899083}.st632{fill:#8f9486}.st633{fill:#d3dbb4}.st634{fill:#746f5c}.st635{fill:#8a9284}.st636{fill:#b7c3bf}.st637{fill:#c5d1cf}.st638{fill:#c2d0cc}.st639{fill:#bbc6c5}.st640{fill:#cad6d3}.st641{fill:#949f97}.st642{fill:#848c7d}.st643{fill:#ccd8d5}.st644{fill:#afbab4}.st645{fill:#b0b799}.st646{fill:#d0d0d0}.st647{fill:#939e9a}.st648{fill:#f4fafc}.st649{fill:#899286}.st650{fill:#ccddd7}.st651{fill:#8c9487}.st652{fill:#b9c6bd}.st653{fill:#ddeee4}.st654{fill:#e3f1ec}.st655{fill:#424244}.st656{fill:#3b4869}.st657{fill:#949c8b}.st658{fill:#b1bbb7}.st659{fill:#aab3b2}.st660{fill:#abb5b1}.st661{fill:#88928d}.st662{fill:#c2cdbc}.st663{fill:#90988a}.st664{fill:#d6e3dc}.st665{fill:#bcc8ac}.st666{fill:#cad6d1}.st667{fill:#404041}.st668{fill:#1c212d}.st669{fill:#666563}.st670{fill:#929c94}.st671{fill:#40403e}.st672{fill:#dbe3bb}.st673{fill:#9fa798}.st674{fill:#f4f8ea}.st675{fill:#494846}.st676{fill:#8e968a}.st677{fill:#e5eec5}.st678{fill:#70716c}.st679{fill:#474745}.st680{fill:#525250}.st681{fill:#e8f4f2}.st682{fill:#262d3e}.st683{fill:#ebf6f4}.st684{fill:#bfcbc9}.st685{fill:#dae6e0}.st686{fill:#cddac8}.st687{fill:#4f4e4c}.st688{fill:#414348}.st689{fill:#8c9585}.st690{fill:#989e91}.st691{fill:#d7e0be}.st692{fill:#f7fbf5}.st693{fill:#879ecb}.st694{fill:#c9d4d2}.st695{fill:#c4cfcb}.st696{fill:#242b3e}.st697{fill:#1c202c}.st698{fill:#6a7cb5}.st699{fill:#4c5984}.st700{fill:#c1cdcb}.st701{fill:#bcc7c4}.st702{fill:#879cca}.st703{fill:#e6f3ee}.st704{fill:#909988}.st705{fill:#c8d1b0}.st706{fill:#3c3d2f}.st707{fill:#7a7a7a}.st708{fill:#9ba295}.st709{fill:#bdc3a5}.st710{fill:#7d7d7b}.st711{fill:#e0eeeb}.st712{fill:#f0f8f6}.st713{fill:#9b9b99}.st714{fill:#abb7b5}.st715{fill:#9ca193}.st716{fill:#f3f9f3}.st717{fill:#97a198}.st718{fill:#b1bcbb}.st719{fill:#a7a7a6}.st720{fill:#e4f1dd}.st721{fill:#fbfcf4}.st722{fill:#8e9385}.st723{fill:#464f7f}.st724{fill:#91998b}.st725{fill:#cbd7d3}.st726{fill:#9fa897}.st727{fill:#8f9789}.st728{fill:#adb8b2}.st729{fill:#89a0bd}.st730{fill:#c8d4d0}.st731{fill:#d5dcb9}.st732{fill:#979f92}.st733{fill:#c6d7d1}.st734{fill:#1f2537}.st735{fill:#758aba}.st736{fill:#9d9c9c}.st737{fill:#262626}.st738{fill:#101111}.st739{fill:#d7e3df}.st740{fill:#c7d3d1}.st741{fill:#6f80ab}.st742{fill:#e2e9c4}.st743{fill:#dbe9e6}.st744{fill:#97a29a}.st745{fill:#eff4ce}.st746{fill:#deedea}.st747{fill:#98a190}.st748{fill:#dcdde2}.st749{fill:#b9c4c3}.st750{fill:#e6f3ef}.st751{fill:#98a297}.st752{fill:#fefefe}.st753{fill:#565340}.st754{fill:#222a3c}.st755{fill:#474a58}.st756{fill:#9ea695}.st757{fill:#b3beb8}.st758{fill:#6a6c77}.st759{fill:#4f5e8e}.st760{fill:#c2cfc5}.st761{fill:#dadada}.st762{fill:#8da3cd}.st763{fill:#7184b8}.st764{fill:#9ca394}.st765{fill:#cfded8}.st766{fill:#1e1f19}.st767{fill:#959c8e}.st768{fill:#a0aca2}.st769{fill:#91998d}.st770{fill:#99a496}.st771{fill:#eff7f1}.st772{fill:#5e6376}.st773{fill:#898f9d}.st774{fill:#303344}.st775{fill:#eaf5ef}.st776{fill:#22283a}.st777{fill:#374062}.st778{fill:#eef3cd}.st779{fill:#cbd7d4}.st780{fill:#9ea99b}.st781{fill:#c7d8d2}.st782{fill:#7789bf}.st783{fill:#d2d2d2}.st784{fill:#404f70}.st785{fill:#1d222e}.st786{fill:#dfe6c2}.st787{fill:#e3f1ee}.st788{fill:#43495c}.st789{fill:#dcdbdb}.st790{fill:#59699a}.st791{fill:#37415e}.st792{fill:#201f1a}.st793{fill:#a2aca3}.st794{fill:#676d7c}.st795{fill:#b8b8b8}.st796{fill:#9ca69b}.st797{fill:#bfc7b1}.st798{fill:#adb7ae}.st799{fill:#11110b}.st800{fill:#dce3bf}.st801{fill:#d4e3e1}.st802{fill:#070506}.st803{fill:#c9c9c9}.st804{fill:#2d324f}.st805{fill:#f0f0f0}.st806{fill:#eae9e9}.st807{fill:#ced5b8}.st808{fill:#f7f5f6}.st809{fill:#2f323e}.st810{fill:#868686}.st811{fill:#fbfbfc}.st812{fill:#cfded9}.st813{fill:#d7d7d7}.st814{fill:#b0bbb9}.st815{fill:#d6e5e2}.st816{fill:#21293b}.st817{fill:#adb6a3}.st818{fill:#b2bbaa}.st819{fill:#2a2a1e}.st820{fill:#b3bba4}.st821{fill:#cdd3b5}.st822{fill:#afb9ae}.st823{fill:#b5bda7}.st824{fill:#070404}.st825{fill:#24231d}.st826{fill:#1e1d18}.st827{fill:#f3f8e7}.st828{fill:#f1f1f1}.st829{fill:#bdc7b0}.st830{fill:#10110a}.st831{fill:#dde5bc}.st832{fill:#b7c0a2}.st833{fill:#5e5d49}.st834{fill:#f2f6d3}.st835{fill:#f8fbec}.st836{fill:#bcbfa8}.st837{fill:#c5ccb9}.st838{fill:#f4f4f5}.st839{fill:#eef7f1}.st840{fill:#b5c0ba}.st841{fill:#eaf5f1}.st842{fill:#eef7f4}.st843{fill:#e0ecc5}.st844{fill:#ecf5ee}.st845{fill:#424236}.st846{fill:#fefef3}.st847{fill:#b0b9a6}.st848{fill:#14130f}.st849{fill:#282a23}.st850{fill:#f9f9d7}.st851{fill:#cfd7c2}.st852{fill:#f2f5ce}.st853{fill:#fffffc}.st854{fill:#ced9cb}.st855{fill:#c4cdba}.st856{fill:#080704}.st857{fill:#bac2ab}.st858{fill:#f5f7d2}.st859{fill:#e2e8c3}.st860{fill:#fcfcf1}.st861{fill:#10100e}.st862{fill:#f0f5d1}.st863{fill:#f5f9ea}.st864{fill:#f2f6d9}.st865{fill:#b7c2ba}.st866{fill:#fdfdf1}.st867{fill:#fefefc}.st868{fill:#191914}.st869{fill:#6ebc65}.st870{fill:#38382c}.st871{fill:#bcc4b0}.st872{fill:#e2eac6}.st873{fill:#0c0c07}.st874{fill:#d4ddc3}.st875{fill:#eef6e9}.st876{fill:#d9e5cf}.st877{fill:#d8dfbe}.st878{fill:#f2f5d1}.st879{fill:#f3f6d5}.st880{fill:#ecf3cd}.st881{fill:#c6ceb7}.st882{fill:#ebf2cc}.st883{fill:#cad1bb}.st884{fill:#f4f9f1}.st885{fill:#060403}.st886{fill:#28281f}.st887{fill:#d5e4e0}.st888{fill:#bcc7b6}.st889{fill:#f9f9d6}.st890{fill:#d8e3c4}.st891{fill:#5a5947}.st892{fill:#dbe6d6}.st893{fill:#dceae5}.st894{fill:#1c1b16}.st895{fill:#171713}.st896{fill:#1f1f17}.st897{fill:#464438}.st898{fill:#e4f2ef}.st899{fill:#e5ebcb}.st900{fill:#090a06}.st901{fill:#fefffe}.st902{fill:#f2f9f9}.st903{fill:#ebf5ed}.st904{fill:#ecf4d8}.st905{fill:#fdfdf9}.st906{fill:#141608}.st907{fill:#fffffd}.st908{fill:#2a2b25}</style><path class="st0" d="M17.1 250.6l-6.4-12.3L21 260.9z"/><path class="st1" d="M50.1 337.3l1.3 28.5 17.5-13.6z"/><path class="st2" d="M58.5 282.3L76 297.2l8.4-17.5z"/><path class="st3" d="M70.2 262.9l-11.7 19.4 25.9-2.6z"/><path class="st4" d="M17.1 250.6l3.9 10.3 9.1 8.5z"/><path class="st5" d="M123.9 559.3l-11-5.2 11.7 7.1z"/><path class="st6" d="M56.1 302.8l2.9-4.6.7-4.5z"/><path class="st7" d="M91.6 230.5l-21.4 32.4 29.1-13.6z"/><path class="st8" d="M105.8 308.8l-3.2 15.6 5.7-4.1z"/><path class="st9" d="M63.7 414.3l9.7 7.1 3.9-22z"/><path class="st10" d="M101.3 348.3l3.2 17.5 9.7-21.4z"/><path class="st11" d="M75.4 316.6l12.3 9.7 3.2-25.9z"/><path class="st12" d="M43.7 277.1l14.8 5.2 11.7-19.4z"/><path class="st13" d="M30.1 269.4l13.6 7.7 26.5-14.2z"/><path class="st14" d="M76 297.2l-.6 19.4 15.5-16.2z"/><path class="st15" d="M84.4 279.7L76 297.2l14.9 3.2z"/><path class="st16" d="M50.1 337.3l18.8 14.9 6.5-35.6z"/><path class="st17" d="M73.4 421.4l-9.7-7.1 11.7 18.8z"/><path class="st18" d="M75.4 316.6l-6.5 35.6 13.6-5.8z"/><path class="st13" d="M17.1 250.6l13 18.8 40.1-6.5z"/><path class="st19" d="M58.5 282.3l1.2 11.4 16.3 3.5z"/><path class="st20" d="M59 298.2l-2.9 4.6 19.3 13.8z"/><path class="st21" d="M59 298.2l16.4 18.4.6-19.4z"/><path class="st22" d="M56.1 302.8l-6 34.5 25.3-20.7z"/><path class="st23" d="M77.3 399.4l11 16.2 6.5-22z"/><path class="st13" d="M112.9 160.6l14.2 44 3.3-26.5z"/><path class="st24" d="M56 391.7l7.7 22.6 13.6-14.9z"/><path class="st25" d="M59.7 293.7l-.7 4.5 17-1z"/><path class="st26" d="M70.2 262.9l14.2 16.8 14.9-30.4z"/><path class="st27" d="M51.4 365.8l4.6 25.9L79.1 381z"/><path class="st28" d="M68.9 352.2l-17.5 13.6L79.1 381z"/><path class="st29" d="M75.4 433.1L89.6 448l5.8-14.9z"/><path class="st30" d="M56 391.7l21.3 7.7 1.8-18.4z"/><path class="st13" d="M7.4 228.6l3.3 9.7 80.9-7.8z"/><path class="st31" d="M68.9 352.2L79.1 381l7.9-18.4z"/><path class="st32" d="M82.5 346.4l-13.6 5.8L87 362.6z"/><path class="st33" d="M75.4 316.6l7.1 29.8 5.2-20.1z"/><path class="st34" d="M8.7 194.3l-1.3 34.3 84.2 1.9z"/><path class="st30" d="M77.3 399.4l-3.9 22 14.9-5.8z"/><path class="st35" d="M73.4 421.4l2 11.7 12.9-17.5z"/><path class="st13" d="M10.7 238.3l6.4 12.3 74.5-20.1z"/><path class="st13" d="M17.1 250.6l53.1 12.3 21.4-32.4z"/><path class="st13" d="M69.5 150.3l-42 14.9 64.1 65.3z"/><path class="st13" d="M27.5 165.2L8.7 194.3l82.9 36.2z"/><path class="st36" d="M88.3 415.6l-12.9 17.5h20z"/><path class="st37" d="M87.7 326.3l14.9-1.9 3.2-15.6z"/><path class="st38" d="M79.1 381l-1.8 18.4 17.5-5.8z"/><path class="st39" d="M87.7 326.3l14.2 10.4.7-12.3z"/><path class="st40" d="M88.3 415.6l7.1 17.5 20.7-19.4z"/><path class="st41" d="M115.5 288.1l1.3 16.9 5.2-11z"/><path class="st42" d="M99.3 249.3l-14.9 30.4 19.5-7.8z"/><path class="st43" d="M84.4 279.7l6.5 20.7 13-28.5z"/><path class="st44" d="M82.5 346.4l4.5 16.2 14.3-14.3z"/><path class="st45" d="M82.5 346.4l18.8 1.9.6-11.6z"/><path class="st46" d="M101.3 348.3L87 362.6l17.5 3.2z"/><path class="st47" d="M87.7 326.3l-5.2 20.1 19.4-9.7z"/><path class="st48" d="M87 362.6L79.1 381l25.4-15.2z"/><path class="st49" d="M79.1 381l15.7 12.6 9.7-27.8z"/><path class="st13" d="M69.5 150.3l22.1 80.2 21.3-69.9z"/><path class="st50" d="M162.7 186.5L164 204h3.3z"/><path class="st51" d="M90.9 300.4l-3.2 25.9 18.1-17.5z"/><path class="st52" d="M95.4 433.1L89.6 448l23.3-8.4z"/><path class="st53" d="M102.6 324.4l-.7 12.3 10.4-6.5z"/><path class="st53" d="M108.3 320.3l-5.7 4.1 9.7 5.8z"/><path class="st54" d="M165.3 512.1l-7.7 14.2 12.9 5.8z"/><path class="st13" d="M192.5 255.8l-7.1 5.8 10.4-.7z"/><path class="st55" d="M150.4 262.2l2.6 3.3h10.4z"/><path class="st56" d="M113.6 316l-1.3 14.2 10.3-11.7z"/><path class="st53" d="M108.3 320.3l4 9.9 1.3-14.2z"/><path class="st57" d="M126.5 335.4l-12.3 9 17.5 3.9z"/><path class="st8" d="M105.8 308.8l2.5 11.5 5.3-4.3z"/><path class="st58" d="M114.2 344.4l8.4 10.4 9.1-6.5z"/><path class="st59" d="M112.9 439.6L89.6 448l31.1 20z"/><path class="st60" d="M112.3 330.2l-10.4 6.5 12.3 7.7z"/><path class="st61" d="M104.5 365.8l-9.7 27.8 19.4-11.6z"/><path class="st62" d="M101.9 336.7l-.6 11.6 12.9-3.9z"/><path class="st63" d="M115.5 288.1l-9.7 20.7 11-3.8z"/><path class="st64" d="M103.9 271.9l-13 28.5 24.6-12.3z"/><path class="st65" d="M90.9 300.4l14.9 8.4 9.7-20.7z"/><path class="st66" d="M114.2 382l-19.4 11.6 21.3 20.1z"/><path class="st67" d="M116.8 305l-3.2 11 9 2.5z"/><path class="st68" d="M114.2 382l15.5 13.6 6.5-30.5z"/><path class="st46" d="M94.8 393.6l-6.5 22 27.8-1.9z"/><path class="st69" d="M105.8 308.8l7.8 7.2 3.2-11z"/><path class="st70" d="M91.6 230.5l7.7 18.8 18.1-20.7z"/><path class="st71" d="M95.4 433.1l17.5 6.5 5.8-12.3z"/><path class="st72" d="M116.1 413.7l-20.7 19.4 23.3-5.8z"/><path class="st73" d="M117.4 228.6l-18.1 20.7 24-1.3z"/><path class="st74" d="M216.5 342.5l-3.9 9.7 11-.6z"/><path class="st75" d="M157.6 526.3l-4.6 22 17.5-16.2z"/><path class="st62" d="M114.2 344.4l-9.7 21.4 18.1-11z"/><path class="st34" d="M104.5 365.8l9.7 16.2 8.4-27.2z"/><path class="st76" d="M112.9 554.1l11 5.2 10.4-18.8z"/><path class="st34" d="M122.6 354.8l-8.4 27.2 22-16.9z"/><path class="st77" d="M144.6 403.3l-25.9 24 32.4 1.3z"/><path class="st78" d="M91.6 230.5l25.8-1.9 9.7-24z"/><path class="st13" d="M112.9 160.6l-21.3 69.9 35.5-25.9z"/><path class="st79" d="M99.3 249.3l4.6 22.6 19.4-23.9z"/><path class="st76" d="M109 539.2l3.9 14.9 21.4-13.6z"/><path class="st80" d="M116.1 514l-7.1 25.2 25.3 1.3z"/><path class="st81" d="M151.7 304.3l-14.8 10.4 19.4 14.8z"/><path class="st82" d="M112.3 330.2l1.9 14.2 12.3-9z"/><path class="st82" d="M122.6 318.5l-10.3 11.7 14.2 5.2z"/><path class="st83" d="M118.7 427.3l11.1 13.6 21.3-12.3z"/><path class="st84" d="M130.4 299.8l-7.8 18.7 14.3-3.8z"/><path class="st85" d="M115.5 288.1l6.5 5.9 6.4-9.8z"/><path class="st86" d="M131.7 348.3l4.5 16.8 5.2-5.8z"/><path class="st87" d="M112.9 439.6l7.8 28.4 7.7-9.7z"/><path class="st88" d="M116.8 305l5.8 13.5 7.8-18.7z"/><path class="st89" d="M114.2 382l1.9 31.7 13.6-18.1z"/><path class="st90" d="M153 265.5l9.1 12.9 1.3-12.9z"/><path class="st91" d="M136.9 277.1l7.1 10.4.6-14.9z"/><path class="st92" d="M112.9 439.6l15.5 18.7 1.4-17.4z"/><path class="st93" d="M118.7 427.3l-5.8 12.3 16.9 1.3z"/><path class="st94" d="M122.6 318.5l3.9 16.9 10.4-20.7z"/><path class="st95" d="M128.4 284.2L122 294l8.4 5.8z"/><path class="st96" d="M122 294l-5.2 11 13.6-5.2z"/><path class="st97" d="M123.3 248l-19.4 23.9 28.4 2z"/><path class="st98" d="M103.9 271.9l11.6 16.2 16.8-14.2z"/><path class="st99" d="M115.5 288.1l12.9-3.9 3.9-10.3z"/><path class="st100" d="M131.7 348.3l-9.1 6.5 13.6 10.3z"/><path class="st101" d="M127.1 204.6l10.4 8.4 1.3-19.4z"/><path class="st102" d="M153 265.5l-8.4 7.1 17.5 5.8z"/><path class="st103" d="M134.3 540.5l-10.4 18.8 12.3-2.6z"/><path class="st104" d="M123.9 559.3l.7 1.9 11.6-4.5z"/><path class="st105" d="M130.4 178.1l-3.3 26.5 11.7-11z"/><path class="st84" d="M136.9 314.7l-10.4 20.7 11.7.6z"/><path class="st106" d="M136.9 314.7l1.3 21.3 18.1-6.5z"/><path class="st85" d="M132.3 273.9l-3.9 10.3 8.5-7.1z"/><path class="st107" d="M126.5 335.4l5.2 12.9 6.5-12.3z"/><path class="st82" d="M136.9 277.1l-8.5 7.1 15.6 3.3z"/><path class="st108" d="M132.3 273.9l4.6 3.2 7.7-4.5z"/><path class="st109" d="M117.4 228.6l5.9 19.4 14.2-35z"/><path class="st110" d="M127.1 204.6l-9.7 24 20.1-15.6z"/><path class="st111" d="M129.8 440.9l14.9 8.9 6.4-21.2z"/><path class="st112" d="M134.3 540.5l18.7 7.8 4.6-22z"/><path class="st113" d="M132.3 273.9l12.3-1.3 5.8-10.4z"/><path class="st114" d="M128.4 284.2l2 15.6 13.6-12.3z"/><path class="st115" d="M154.3 473.2L177 481l1.9-13.6z"/><path class="st116" d="M134.3 540.5l1.9 16.2 16.8-8.4z"/><path class="st117" d="M192.5 339.9l9.7 3.2 2.6-12.9z"/><path class="st118" d="M116.1 413.7l2.6 13.6 25.9-24z"/><path class="st89" d="M129.7 395.6l-13.6 18.1 28.5-10.4z"/><path class="st119" d="M123.3 248l9 25.9 18.1-11.7z"/><path class="st120" d="M129.8 440.9l-1.4 17.4 16.3-8.5z"/><path class="st121" d="M128.4 458.3l-7.7 9.7 26.5 16.2z"/><path class="st122" d="M176.3 426l7.8 18.7 7.8-19.4z"/><path class="st58" d="M131.7 348.3l9.7 11 7.1-7.7z"/><path class="st114" d="M138.2 336l-6.5 12.3 16.8 3.3z"/><path class="st105" d="M129.7 395.6l14.9 7.7L153 371z"/><path class="st34" d="M136.2 365.1l-6.5 30.5L153 371z"/><path class="st123" d="M137.5 213l-14.2 35 27.1 14.2z"/><path class="st124" d="M141.4 359.3l-5.2 5.8L153 371z"/><path class="st106" d="M130.4 299.8l6.5 14.9 14.8-10.4z"/><path class="st125" d="M144 287.5l-13.6 12.3 21.3 4.5z"/><path class="st126" d="M148.5 351.6l-7.1 7.7L153 371z"/><path class="st127" d="M180.2 407.2l-3.9 18.8 15.6-.7z"/><path class="st128" d="M148.5 351.6l14.9 12.9 1.3-18.1z"/><path class="st129" d="M128.4 458.3l18.8 25.9 7.1-11z"/><path class="st130" d="M144.7 449.8l-16.3 8.5 25.9 14.9z"/><path class="st131" d="M144.6 403.3l6.5 25.3 12.9-21.4z"/><path class="st132" d="M150.4 262.2l-5.8 10.4 8.4-7.1z"/><path class="st13" d="M116.1 514l18.2 26.5 23.3-14.2z"/><path class="st133" d="M156.3 329.5l-7.8 22.1 16.2-5.2z"/><path class="st134" d="M154.3 473.2l-7.1 11 14.9 4.6z"/><path class="st135" d="M138.2 336l10.3 15.6 7.8-22.1z"/><path class="st136" d="M131 493.3L116.1 514l41.5 12.3z"/><path class="st137" d="M162.7 186.5l-23.9 7.1L164 204z"/><path class="st138" d="M138.8 193.6l-1.3 19.4 26.5-9z"/><path class="st139" d="M144 287.5l7.7 16.8 10.4-25.9z"/><path class="st140" d="M144.6 272.6l-.6 14.9 18.1-9.1z"/><path class="st141" d="M176.3 329.5l-11.6 16.9 20.7-2z"/><path class="st142" d="M148.5 351.6L153 371l10.4-6.5z"/><path class="st143" d="M164 407.2l-12.9 21.4 25.2-2.6z"/><path class="st144" d="M185.4 261.6l-12.9.6 16.8 14.9z"/><path class="st145" d="M162.1 278.4l14.2 13 13-14.3z"/><path class="st146" d="M169.9 310.1l-13.6 19.4h20z"/><path class="st147" d="M156.3 329.5l8.4 16.9 11.6-16.9z"/><path class="st148" d="M163.4 265.5l9.1-3.3 1.2-6.4z"/><path class="st13" d="M144.6 403.3l19.4 3.9 3.9-32.3z"/><path class="st149" d="M162.1 488.8l-14.9-4.6 18.1 27.9z"/><path class="st150" d="M147.2 484.2l-16.2 9.1 34.3 18.8z"/><path class="st151" d="M131 493.3l26.6 33 7.7-14.2z"/><path class="st152" d="M150.4 262.2l13 3.3 10.3-9.7z"/><path class="st153" d="M164 204l-26.5 9 34.3 14.3z"/><path class="st13" d="M153 371l-8.4 32.3 23.3-28.4z"/><path class="st154" d="M163.4 364.5L153 371l14.9 3.9z"/><path class="st155" d="M151.7 304.3l4.6 25.2 13.6-19.4z"/><path class="st156" d="M162.1 488.8l14.2 3.8.7-11.6z"/><path class="st157" d="M144.7 449.8l9.6 23.4 24.6-5.8z"/><path class="st158" d="M164.7 346.4l-1.3 18.1 8.4-3.2z"/><path class="st159" d="M163.4 364.5l4.5 10.4 3.9-13.6z"/><path class="st160" d="M167.3 204H164l7.8 23.3z"/><path class="st161" d="M137.5 213l12.9 49.2 21.4-34.9z"/><path class="st162" d="M184.8 493.3l-8.5-.7 13 10.4z"/><path class="st163" d="M163.4 265.5l-1.3 12.9 10.4-16.2z"/><path class="st164" d="M171.8 227.3l-21.4 34.9 23.3-6.4z"/><path class="st62" d="M173.7 255.8l-1.2 6.4 12.9-.6z"/><path class="st8" d="M162.1 488.8l3.2 23.3 11-19.5z"/><path class="st165" d="M189.3 277.1l-13 14.3 18.8-9.1z"/><path class="st166" d="M197.7 321.8l-5.2 18.1 12.3-9.7z"/><path class="st13" d="M167.9 374.9l-3.9 32.3h16.2z"/><path class="st167" d="M154.3 473.2l7.8 15.6L177 481z"/><path class="st107" d="M171.8 361.3l-3.9 13.6 10.4-7.2z"/><path class="st168" d="M204.2 169.7l-16.9 22 20.8-9.7z"/><path class="st169" d="M164.7 346.4l7.1 14.9 13.6-16.9z"/><path class="st170" d="M162.1 278.4l-10.4 25.9 24.6-12.9z"/><path class="st171" d="M151.7 304.3l18.2 5.8 6.4-18.7z"/><path class="st172" d="M202.9 589.7l-3.9 9.7 4.8 9z"/><path class="st173" d="M165.3 512.1l13.6 12.3 3.9-11.7z"/><path class="st174" d="M193.2 361.9l-14.9 5.8h16.8z"/><path class="st175" d="M169.9 310.1l6.4 19.4 6.5-7.1z"/><path class="st143" d="M164 407.2l12.3 18.8 3.9-18.8z"/><path class="st176" d="M165.3 512.1l5.2 20 8.4-7.7z"/><path class="st177" d="M167.3 204l4.5 23.3 15.5-35.6z"/><path class="st178" d="M191.9 425.3l-7.8 19.4 23.3-13.5z"/><path class="st179" d="M162.7 186.5l4.6 17.5 20-12.3z"/><path class="st180" d="M172.5 262.2l-10.4 16.2 27.2-1.3z"/><path class="st181" d="M214.5 614.3l4 6.9 3.8-4.9z"/><path class="st112" d="M176.3 492.6l-11 19.5 17.5.6z"/><path class="st182" d="M177 481l-.7 11.6 8.5.7z"/><path class="st183" d="M178.9 467.4L177 481l7.8 12.3z"/><path class="st184" d="M144.7 449.8l34.2 17.6 5.2-22.7z"/><path class="st185" d="M151.1 428.6l-6.4 21.2 39.4-5.1z"/><path class="st186" d="M176.3 426l-25.2 2.6 33 16.1z"/><path class="st187" d="M218.6 531.8l-17.9 4.7 20.9 33.8z"/><path class="st188" d="M212.6 352.2l-14.9-1.3 14.9 10.4z"/><path class="st189" d="M199.6 294l-7.7 18.1 13.6-11z"/><path class="st190" d="M178.3 367.7l12.3 7.8 4.5-7.8z"/><path class="st191" d="M185.4 344.4l7.8 17.5 4.5-11z"/><path class="st85" d="M205.5 301.1l-13.6 11 14.2 2.6z"/><path class="st192" d="M185.4 261.6l3.9 15.5 6.5-16.2z"/><path class="st193" d="M178.9 535.4l3.3 13.5 7.7-5.1z"/><path class="st194" d="M176.3 492.6l6.5 20.1 6.5-9.7z"/><path class="st195" d="M182.8 512.7l17.9 23.8 5.4-27.7z"/><path class="st196" d="M195.1 282.3l-18.8 9.1 23.3 2.6z"/><path class="st197" d="M176.3 329.5l9.1 14.9 7.1-4.5z"/><path class="st13" d="M167.9 374.9l12.3 32.3 10.4-31.7z"/><path class="st124" d="M178.3 367.7l-10.4 7.2 22.7.6z"/><path class="st198" d="M176.3 291.4l-6.4 18.7 22 2z"/><path class="st199" d="M169.9 310.1l12.9 12.3 9.1-10.3z"/><path class="st200" d="M197.7 402.7l-5.8 22.6 15.5 5.9z"/><path class="st201" d="M171.8 227.3l1.9 28.5h18.8z"/><path class="st62" d="M173.7 255.8l11.7 5.8 7.1-5.8z"/><path class="st202" d="M182.8 322.4l-6.5 7.1 16.2 10.4z"/><path class="st203" d="M192.5 339.9l-7.1 4.5 12.3 6.5z"/><path class="st204" d="M171.8 361.3l6.5 6.4 14.9-5.8z"/><path class="st205" d="M185.4 344.4l-13.6 16.9 21.4.6z"/><path class="st206" d="M227.5 327.6l-2.6 3.9 2.6 1.9z"/><path class="st207" d="M176.3 291.4l15.6 20.7 7.7-18.1z"/><path class="st208" d="M182.2 548.9l5.8 28.5 7.1-.6z"/><path class="st209" d="M189.9 543.8l-7.7 5.1 12.9 27.9z"/><path class="st210" d="M189.3 503l16.8 5.8 5.5-16.1z"/><path class="st211" d="M233.3 278.4l.6 3.3 3.9.6z"/><path class="st212" d="M182.8 322.4l9.7 17.5 5.2-18.1z"/><path class="st213" d="M184.8 493.3l4.5 9.7 22.3-10.3z"/><path class="st214" d="M178.9 535.4l11 8.4 10.8-7.3z"/><path class="st34" d="M190.6 375.5l-10.4 31.7 17.5-4.5z"/><path class="st215" d="M180.2 407.2l11.7 18.1 5.8-22.6z"/><path class="st216" d="M178.9 524.4v11l21.8 1.1z"/><path class="st217" d="M191.9 312.1l-9.1 10.3 14.9-.6z"/><path class="st218" d="M227.5 333.4l2.6 3.9.6-7.1z"/><path class="st219" d="M221.6 570.3l-12.3 6.5 13 9z"/><path class="st220" d="M189.3 277.1l5.8 5.2 14.9-9.7z"/><path class="st221" d="M208.1 264.8l-12.3-3.9 14.2 11.7z"/><path class="st13" d="M250.8 328.3l7.7 4.5.7-17.5z"/><path class="st206" d="M205.5 301.1l.6 13.6 6.5-13.6z"/><path class="st222" d="M182.8 512.7l-3.9 11.7 21.8 12.1z"/><path class="st223" d="M295.8 407.4l-2.3 3 3 3.6z"/><path class="st224" d="M192.5 339.9l5.2 11 4.5-7.8z"/><path class="st225" d="M162.7 186.5l24.6 5.2 16.9-22z"/><path class="st25" d="M188 577.4l11 22 3.9-9.7z"/><path class="st226" d="M195.1 576.8l-7.1.6 14.9 12.3z"/><path class="st189" d="M191.9 312.1l5.8 9.7 8.4-7.1z"/><path class="st152" d="M197.7 321.8l7.1 8.4 1.3-15.5z"/><path class="st227" d="M195.8 260.9l-6.5 16.2 20.7-4.5z"/><path class="st228" d="M258.5 332.8l-3.2 14.9 14.9 4.5z"/><path class="st13" d="M195.8 260.9l12.3 3.9 3.8-6.4z"/><path class="st229" d="M189.3 503l-6.5 9.7 23.3-3.9z"/><path class="st230" d="M195.1 282.3l4.5 11.7 10.4-21.4z"/><path class="st231" d="M178.9 467.4l5.9 25.9 26.8-.6z"/><path class="st206" d="M206.1 314.7l-1.3 15.5 7.8 1.3z"/><path class="st232" d="M187.3 191.7l-15.5 35.6 48.5-10.4z"/><path class="st233" d="M195.1 576.8l7.8 12.9 6.4-12.9z"/><path class="st234" d="M200.7 536.5l-10.8 7.3 19.4 33z"/><path class="st235" d="M197.7 350.9l-4.5 11 19.4-.6z"/><path class="st236" d="M192.5 255.8l3.3 5.1 16.1-2.5z"/><path class="st237" d="M195.1 367.7l-4.5 7.8 17.5-4.5z"/><path class="st238" d="M199.6 294l13 7.1 7.7-11.7z"/><path class="st239" d="M235.2 385.4l-7.1-.2 7.1 8.4z"/><path class="st240" d="M209.3 576.8l-6.4 12.9 19.4-3.9z"/><path class="st241" d="M189.9 543.8l5.2 33h14.2z"/><path class="st242" d="M237.8 556.1l-16.2 14.2 22.7 11.7z"/><path class="st243" d="M235.2 347l-6.4 1.3 7.1 3.3z"/><path class="st244" d="M214.5 614.3l1.3 17.5 2.7-10.6z"/><path class="st245" d="M192.5 255.8l19.4 2.6 8.4-41.5z"/><path class="st246" d="M212.6 331.5l3.9 11 .6-7.8z"/><path class="st247" d="M202.2 343.1l-4.5 7.8 14.9 1.3z"/><path class="st248" d="M215.8 631.8l7.1 29.8 1.2-7.8z"/><path class="st249" d="M224.1 653.8l-1.2 7.8 2.7-8.1z"/><path class="st250" d="M210 272.6L199.6 294l20.7-4.6z"/><path class="st251" d="M193.2 361.9l1.9 5.8 17.5-6.4z"/><path class="st252" d="M195.1 367.7l13 3.3 4.5-9.7z"/><path class="st253" d="M210 272.6l10.3 16.8 2-13.6z"/><path class="st254" d="M200.7 536.5l8.6 40.3 12.3-6.5z"/><path class="st255" d="M204.8 330.2l-2.6 12.9 10.4-11.6z"/><path class="st256" d="M199.6 294l5.9 7.1h7.1z"/><path class="st257" d="M208.1 182l12.2 34.9 12.3-36.2z"/><path class="st13" d="M233.3 278.4l4.5 3.9.7-6.5zm-42.7 97.1l7.1 27.2 18.1-9.7z"/><path class="st258" d="M212.6 331.5l-10.4 11.6 14.3-.6z"/><path class="st13" d="M230.1 358l-7.2 5.2 11 2.8zm-39.5 17.5l25.2 17.5.7-14zm17.5-4.5l-17.5 4.5 25.9 3.5z"/><path class="st13" d="M208.1 371l8.4 8 6.4-15.8z"/><path class="st259" d="M202.2 343.1l10.4 9.1 3.9-9.7z"/><path class="st260" d="M212.6 361.3l10.3 1.9.7-11.6z"/><path class="st261" d="M212.6 361.3l-4.5 9.7 14.8-7.8z"/><path class="st262" d="M212.6 352.2v9.1l11-9.7z"/><path class="st263" d="M235.2 385.4l2.6 1.1.7-7.8z"/><path class="st264" d="M224.9 331.5l-7.8 3.2 10.4-1.3z"/><path class="st265" d="M206.1 508.8l-5.4 27.7 17.9-4.7z"/><path class="st266" d="M171.8 227.3l20.7 28.5 27.8-38.9z"/><path class="st267" d="M212.6 331.5l4.5 3.2 2-2.6z"/><path class="st189" d="M206.1 314.7l6.5 16.8 6.5.6z"/><path class="st268" d="M215.8 393l16.2 20 .6-7.7z"/><path class="st269" d="M208.1 182l-20.8 9.7 33 25.2z"/><path class="st270" d="M217.1 334.7l-.6 7.8 11-9.1z"/><path class="st271" d="M222.3 275.8l9.1 6.5 1.9-3.9z"/><path class="st13" d="M216.5 379l-.7 14 6.5-5.9z"/><path class="st272" d="M218.5 621.2l-2.7 10.6 7.9-4.5z"/><path class="st13" d="M244.3 290.7l1.3 5.8 9.7-1.3z"/><path class="st273" d="M223.6 271.3l-1.3 4.5 11 2.6z"/><path class="st274" d="M222.3 616.3l-3.8 4.9 5.2 6.1z"/><path class="st275" d="M214.5 614.3l7.8 2 1.9-14.3z"/><path class="st276" d="M233.9 383.3l1.3 2.1 3.3-6.7z"/><path class="st277" d="M226.2 292.7l-13.6 8.4h22.6z"/><path class="st271" d="M210 272.6l12.3 3.2 1.3-4.5z"/><path class="st278" d="M233.9 281.7l-2.5.6 2.5 3.9z"/><path class="st279" d="M208.1 264.8l1.9 7.8 13.6-1.3z"/><path class="st280" d="M211.9 258.4l-3.8 6.4 15.5 6.5z"/><path class="st281" d="M222.3 275.8l-2 13.6 4.6-5.8z"/><path class="st282" d="M224.9 283.6l-4.6 5.8 5.9 3.3z"/><path class="st283" d="M220.3 289.4l-7.7 11.7 13.6-8.4z"/><path class="st284" d="M272.4 429.1l1.4 2.8 6.1-7.2z"/><path class="st60" d="M227.5 327.6v5.8l3.2-3.2z"/><path class="st285" d="M202.9 589.7l.9 18.7 20.4-6.4z"/><path class="st286" d="M203.8 608.4l5.8 3.1 14.6-9.5z"/><path class="st287" d="M209.6 611.5l4.9 2.8 9.7-12.3z"/><path class="st288" d="M222.3 585.8l-19.4 3.9 21.3 12.3z"/><path class="st289" d="M215.8 393l-18.1 9.7L232 413z"/><path class="st290" d="M216.5 342.5l7.1 9.1 5.2-3.3z"/><path class="st291" d="M215.8 631.8l8.3 22 1.5-.3z"/><path class="st151" d="M219.1 332.1l5.8-.6 2.6-3.9zm0 0l-2 2.6 7.8-3.2z"/><path class="st292" d="M237.8 312.7l13 15.6.6-11.1z"/><path class="st293" d="M239.8 336l-9.7 1.3 10.3 2.6z"/><path class="st60" d="M206.1 314.7l13 17.4 8.4-4.5z"/><path class="st13" d="M216.5 379l11.6 6.2 5.8-19.2zm0 0l5.8 8.1 5.8-1.9z"/><path class="st294" d="M228.8 348.3l1.3 9.7 5.8-6.4z"/><path class="st219" d="M222.3 585.8l1.9 16.2 9.7-8.4z"/><path class="st295" d="M204.2 169.7l3.9 12.3 24.5-1.3z"/><path class="st296" d="M227.5 327.6l3.2 2.6 1.3-1.9z"/><path class="st297" d="M233.9 286.2l3.3.6.6-4.5z"/><path class="st298" d="M222.3 275.8l2.6 7.8 6.5-1.3z"/><path class="st299" d="M207.4 431.2l-23.3 13.5 44.7 7.2z"/><path class="st300" d="M184.1 444.7l-5.2 22.7 49.9-15.5z"/><path class="st301" d="M178.9 467.4l32.7 25.3 17.2-40.8z"/><path class="st302" d="M277.3 377.4l-5.8-2.5 6.6 14.4z"/><path class="st303" d="M238.5 473.9l-26.9 18.8 27.3 1.9z"/><path class="st304" d="M223.6 351.6l-.7 11.6 7.2-5.2z"/><path class="st305" d="M228.8 348.3l-5.2 3.3 6.5 6.4z"/><path class="st306" d="M227.5 333.4l-11 9.1 13.6-5.2z"/><path class="st307" d="M216.5 342.5l12.3 5.8 1.3-11z"/><path class="st206" d="M212.6 301.1l-6.5 13.6 24 10.3z"/><path class="st308" d="M206.1 314.7l21.4 12.9 2.6-2.6z"/><path class="st186" d="M244.9 438.9l-16.1 13 23.9-7.8z"/><path class="st309" d="M247.5 308.8l-9.7 3.9 13.6 4.5z"/><path class="st13" d="M222.9 363.2l-6.4 15.8 17.4-13z"/><path class="st310" d="M215.8 631.8l9.8 21.7 6.4-3.9z"/><path class="st311" d="M197.7 402.7l9.7 28.5L232 413z"/><path class="st312" d="M230.1 325l-2.6 2.6 4.5.7z"/><path class="st313" d="M225.6 653.5l-2.7 8.1 9.1-12z"/><path class="st314" d="M222.9 661.6l5.9 11.6 3.2-23.6z"/><path class="st151" d="M222.3 616.3l1.4 11 11.5-5.9z"/><path class="st315" d="M223.7 627.3l-7.9 4.5 16.2 17.8z"/><path class="st13" d="M230.1 358l3.8 8 2-14.4z"/><path class="st34" d="M233.9 366l-5.8 19.2 5.8-1.9z"/><path class="st316" d="M233.9 366v17.3l4.6-4.6z"/><path class="st317" d="M223.7 627.3l8.3 22.3 3.2-28.2z"/><path class="st318" d="M230.1 337.3l5.1 9.7 5.2-7.1z"/><path class="st319" d="M264.4 404l2 .2.9-6.3z"/><path class="st320" d="M231.4 282.3l-6.5 1.3 9 2.6z"/><path class="st321" d="M222.3 585.8l11.6 7.8 10.4-11.6z"/><path class="st322" d="M233.9 383.3l-5.8 1.9 7.1.2z"/><path class="st323" d="M238.5 378.7l-.7 7.8 4.6-6.5z"/><path class="st324" d="M233.3 278.4l-1.9 3.9 2.5-.6z"/><path class="st325" d="M224.9 283.6l1.3 9.1 7.7-6.5z"/><path class="st326" d="M279.9 165.2h21.3l3.9-16.2z"/><path class="st327" d="M251.4 306.9l-3.9 1.9 3.9 8.4z"/><path class="st328" d="M206.1 508.8l12.5 23 15.3-2.3z"/><path class="st329" d="M230.1 325l1.9 3.3 5.8-15.6z"/><path class="st330" d="M235.2 385.4v8.2l2.6-7.1z"/><path class="st66" d="M221.6 570.3l.7 15.5 22-3.8z"/><path class="st13" d="M251.4 317.2l-.6 11.1 8.4-13z"/><path class="st34" d="M244.9 299.1l6.5 7.8 3.9-11.7z"/><path class="st271" d="M226.2 292.7l9 8.4 4.6-5.9z"/><path class="st331" d="M230.1 337.3l-1.3 11 6.4-1.3z"/><path class="st332" d="M228.1 385.2l-5.8 1.9 12.9 6.5z"/><path class="st239" d="M222.3 387.1l-6.5 5.9 19.4.6z"/><path class="st333" d="M215.8 393l16.8 12.3 2.6-11.7z"/><path class="st271" d="M233.9 281.7v4.5l3.9-3.9z"/><path class="st334" d="M206.1 508.8l27.8 20.7 5-34.9z"/><path class="st271" d="M233.9 286.2l-7.7 6.5 13.6 2.5z"/><path class="st13" d="M223.6 271.3l9.7 7.1 5.2-2.6z"/><path class="st335" d="M211.6 492.7l-5.5 16.1 32.8-14.2z"/><path class="st336" d="M207.4 431.2l21.4 20.7 7.1-24z"/><path class="st337" d="M232 413l-24.6 18.2 28.5-3.3z"/><path class="st13" d="M211.9 258.4l11.7 12.9 14.9 4.5z"/><path class="st338" d="M228.8 451.9l9.7 22 14.2-29.8z"/><path class="st271" d="M243 288.8l-3.2 6.4 4.5-4.5z"/><path class="st308" d="M212.6 301.1l17.5 23.9 7.7-12.3z"/><path class="st339" d="M235.2 301.1h-22.6l25.2 11.6z"/><path class="st242" d="M233.9 529.5l-15.3 2.3 19.2 24.3z"/><path class="st340" d="M218.6 531.8l3 38.5 16.2-14.2z"/><path class="st341" d="M222.3 616.3l12.9 5.1 5.9-13.6z"/><path class="st342" d="M232.6 405.3l11.7 14.2.6-20.7z"/><path class="st343" d="M235.2 393.6l-2.6 11.7 12.3-6.5z"/><path class="st344" d="M228.8 451.9l-17.2 40.8 26.9-18.8z"/><path class="st34" d="M233.9 366l9.7 6.1 2-2.6z"/><path class="st345" d="M220.3 216.9l-8.4 41.5 26.6 17.4z"/><path class="st346" d="M224.2 602l-1.9 14.3 18.8-8.5z"/><path class="st347" d="M233.9 593.6l-9.7 8.4 16.9 5.8z"/><path class="st348" d="M239.8 295.2l-4.6 5.9 9.7-2z"/><path class="st349" d="M237.2 286.8l-3.3-.6 5.9 9z"/><path class="st350" d="M237.8 386.5l-2.6 7.1 9.7 5.2z"/><path class="st351" d="M230.7 330.2l-.6 7.1 9.7-1.3z"/><path class="st352" d="M232 328.3l-1.3 1.9 9.1 5.8z"/><path class="st353" d="M239.8 295.2l5.1 3.9.7-2.6z"/><path class="st13" d="M235.9 351.6l-2 14.4 11.7 3.5z"/><path class="st354" d="M244.3 582l-10.4 11.6 18.8 3.2z"/><path class="st355" d="M233.9 593.6l7.2 14.2 11.6-11z"/><path class="st356" d="M244.3 290.7l-4.5 4.5 5.8 1.3z"/><path class="st357" d="M237.8 282.3l-.6 4.5 5.8 2z"/><path class="st358" d="M237.2 286.8l2.6 8.4 3.2-6.4z"/><path class="st271" d="M261.1 154.8l18.8 10.4 25.2-16.2z"/><path class="st13" d="M238.5 275.8l-.7 6.5 5.2 6.5z"/><path class="st280" d="M233.9 366l4.6 12.7 5.1-6.6z"/><path class="st359" d="M238.5 378.7l3.9 1.3 1.2-7.9z"/><path class="st360" d="M235.2 347l.7 4.6 7.7-4.6z"/><path class="st361" d="M240.4 339.9l-5.2 7.1h8.4z"/><path class="st362" d="M244.9 299.1l2.6 9.7 3.9-1.9z"/><path class="st363" d="M232 328.3l7.8 7.7 4.5-2.6z"/><path class="st364" d="M243.6 372.1l-1.2 7.9 4.5.7z"/><path class="st365" d="M244.3 333.4l-4.5 2.6 7.1 3.3z"/><path class="st366" d="M237.8 386.5l7.1 12.3 2-18.1z"/><path class="st367" d="M232.6 405.3l-.6 7.7 12.3 6.5z"/><path class="st368" d="M232 413l3.9 14.9 8.4-8.4z"/><path class="st13" d="M283.8 361.9l3.2 3.9.7-9.1z"/><path class="st369" d="M244.3 333.4l3.9 1.3 2.6-6.4z"/><path class="st68" d="M235.2 621.4l-3.2 28.2 19.4 2.9z"/><path class="st370" d="M279 492.2l-20.5 17.9 20.6-17z"/><path class="st371" d="M239.8 336l.6 3.9 6.5-.6z"/><path class="st239" d="M235.9 427.9l-7.1 24 16.1-13z"/><path class="st372" d="M245.6 369.5l7-6.4.3-5.3z"/><path class="st373" d="M240.4 339.9l3.2 7.1 3.3-7.7z"/><path class="st374" d="M242.4 380l-4.6 6.5 9.1-5.8z"/><path class="st13" d="M235.9 351.6l9.7 17.9 7.3-11.7z"/><path class="st375" d="M244.3 333.4l2.6 5.9 1.3-4.6z"/><path class="st376" d="M235.2 301.1l2.6 11.6 9.7-3.9z"/><path class="st377" d="M244.9 299.1l-9.7 2 12.3 7.7z"/><path class="st378" d="M320 636.3L304.5 626l16.2 21.3z"/><path class="st379" d="M204.2 169.7l28.4 11 18.8-12.3z"/><path class="st332" d="M238.5 473.9l34.9.6 1.3-16.2z"/><path class="st380" d="M244.3 419.5l-8.4 8.4 13.6-.6z"/><path class="st381" d="M235.9 427.9l9 11 4.6-11.6z"/><path class="st13" d="M245.6 296.5l-.7 2.6 10.4-3.9z"/><path class="st382" d="M265 416.9l4.5 1.3.7-5.6z"/><path class="st383" d="M268.2 405.8l-5.8 4.6 7.8 2.2z"/><path class="st384" d="M237.8 312.7l-5.8 15.6h18.8z"/><path class="st385" d="M232 328.3l12.3 5.1 6.5-5.1z"/><path class="st386" d="M258.5 416.9l-9 10.4 11.6-2.6z"/><path class="st387" d="M255.3 347.7l2.6 13.6 12.3-9.1z"/><path class="st103" d="M232 649.6l-3.2 23.6 22.6-20.7z"/><path class="st388" d="M228.8 673.2l20.7 5.2 1.9-25.9z"/><path class="st389" d="M249.5 427.3l8.4 3.9 3.2-6.5z"/><path class="st300" d="M233.9 529.5l3.9 26.6 15.6-17.5z"/><path class="st390" d="M255.3 403.8l-1.2 6.8 2.9-3.5z"/><path class="st391" d="M243.6 372.1l3.3 8.6 5.2-9.7z"/><path class="st392" d="M245.6 369.5l-2 2.6 8.5-1.1z"/><path class="st13" d="M243.6 347l-7.7 4.6 17 6.2z"/><path class="st393" d="M254.1 410.6l-9.8 8.9 14.2-2.6z"/><path class="st394" d="M245.6 369.5l6.5 1.5.5-7.9z"/><path class="st13" d="M287 365.8l3.6 4.3 9.4-8.8z"/><path class="st395" d="M233.9 529.5l19.5 9.1 5.1-28.5z"/><path class="st396" d="M251.4 168.4l-18.8 12.3 37.6 25.2z"/><path class="st397" d="M244.9 398.8l-.6 20.7 9.8-8.9z"/><path class="st13" d="M246.9 339.3l8.4 8.4 3.2-14.9z"/><path class="st398" d="M244.9 398.8l10.4 5 2.3-19.8z"/><path class="st13" d="M246.9 339.3l-3.3 7.7 11.7.7z"/><path class="st13" d="M243.6 347l9.3 10.8 2.4-10.1z"/><path class="st399" d="M238.9 494.6l-5 34.9 24.6-19.4z"/><path class="st400" d="M244.3 419.5l5.2 7.8 9-10.4z"/><path class="st13" d="M238.5 275.8l4.5 13 12.3 6.4z"/><path class="st13" d="M243 288.8l1.3 1.9 11 4.5z"/><path class="st401" d="M262.4 410.4l2.6 6.5 5.2-4.3z"/><path class="st402" d="M252.1 371l-5.2 9.7 8.4-6.5z"/><path class="st403" d="M244.9 398.8l9.2 11.8 1.2-6.8z"/><path class="st404" d="M246.9 380.7l-2 18.1 12.7-14.8z"/><path class="st405" d="M232.6 180.7l-12.3 36.2 49.9-11z"/><path class="st406" d="M255.3 347.7l-2.4 10.1 5 3.5z"/><path class="st407" d="M252.9 357.8l-.3 5.3 5.3-1.8z"/><path class="st408" d="M255.3 374.2l-8.4 6.5 10.7 3.3z"/><path class="st409" d="M204.2 169.7l47.2-1.3 9.7-13.6z"/><path class="st410" d="M252.6 363.1l-.5 7.9 5.8-9.7z"/><path class="st411" d="M252.1 371l3.2 3.2 2.6-12.9z"/><path class="st412" d="M249.5 427.3l-4.6 11.6 13-7.7z"/><path class="st413" d="M244.9 438.9l7.8 5.2 5.2-12.9z"/><path class="st13" d="M278.6 359.3l-7.1 15.6 7.1-5.2z"/><path class="st34" d="M251.4 306.9v10.3l7.8-1.9z"/><path class="st13" d="M250.8 328.3l-2.6 6.4 10.3-1.9z"/><path class="st13" d="M248.2 334.7l-1.3 4.6 11.6-6.5zm7.1-39.5l-3.9 11.7 7.8 8.4z"/><path class="st414" d="M265 416.9l-3.9 7.8 8.4-6.5z"/><path class="st415" d="M254.1 410.6l4.4 6.3 3.9-6.5z"/><path class="st416" d="M255.3 403.8l9.1.2 2.9-6.1z"/><path class="st417" d="M257.6 384l-2.3 19.8 12-5.9z"/><path class="st13" d="M251.4 652.5l-1.9 25.9 13.6-16.8z"/><path class="st418" d="M257 407.1l-2.9 3.5 8.3-.2z"/><path class="st419" d="M257.9 431.2l-5.2 12.9 9.7-.6z"/><path class="st420" d="M280 399l3.8 8.2 5.3-2.4z"/><path class="st421" d="M252.7 444.1l-14.2 29.8 36.2-15.6z"/><path class="st422" d="M266.4 404.2l-2-.2 3.8 1.8z"/><path class="st34" d="M235.2 621.4l16.2 31.1 16.2-27.8z"/><path class="st423" d="M257 407.1l5.4 3.3 2-6.4z"/><path class="st424" d="M262.4 410.4l-3.9 6.5h6.5z"/><path class="st425" d="M258.5 416.9l2.6 7.8 3.9-7.8z"/><path class="st426" d="M255.3 403.8l1.7 3.3 7.4-3.1z"/><path class="st427" d="M241.1 607.8l-5.9 13.6 32.4 3.3z"/><path class="st428" d="M270.8 591l-18.1 5.8 18.8 11.7z"/><path class="st429" d="M241.1 607.8l26.5 16.9 3.9-16.2z"/><path class="st430" d="M322.6 399.5l-5.1 6.9 6.4 8.6z"/><path class="st431" d="M252.7 596.8l-11.6 11 30.4.7z"/><path class="st432" d="M267.3 397.9l-.9 6.3 1.8 1.6z"/><path class="st13" d="M271.5 374.9l5.8 2.5 1.3-7.7z"/><path class="st420" d="M264.4 404l-2 6.4 5.8-4.6z"/><path class="st433" d="M262.4 443.5l-9.7.6 22 14.2z"/><path class="st434" d="M258.5 510.1l-5.1 28.5 17.4-14.2z"/><path class="st435" d="M278.1 389.3l1.9 9.7 1.8-10.7z"/><path class="st436" d="M220.3 216.9l18.2 58.9 31.7-69.9z"/><path class="st382" d="M283.8 407.2l-1.3 5.8 6.5 2.6z"/><path class="st34" d="M281.8 654.4l2.6 21.4 8.4-16.2z"/><path class="st437" d="M270.8 444.1l-8.4-.6 12.3 14.8z"/><path class="st438" d="M279.9 404.6l-4.7-1.6 5.3 4.9z"/><path class="st439" d="M244.3 582l8.4 14.8 18.1-5.8z"/><path class="st440" d="M275.2 403l-4.2 5.3 9.5-.4z"/><path class="st441" d="M261.1 424.7l-3.2 6.5 14.5-2.1z"/><path class="st442" d="M255.3 374.2l2.3 9.8 13.9-9.1z"/><path class="st443" d="M273.8 431.9l-3 12.2 5.2-7.8z"/><path class="st444" d="M276.7 413l-2.6 2.6 3.2 2z"/><path class="st445" d="M279.2 413l-1.9 4.6 1.9 1.3z"/><path class="st446" d="M282.5 413l-3.3 5.9 9.8-3.3z"/><path class="st447" d="M268.2 405.8l2 6.8.8-4.3z"/><path class="st448" d="M257.9 361.3l-2.6 12.9 16.2.7z"/><path class="st449" d="M272.4 429.1l-14.5 2.1 15.9.7z"/><path class="st450" d="M270.2 412.6l-.7 5.6 4.6-2.6z"/><path class="st451" d="M269.5 418.2l-8.4 6.5 11.3 4.4z"/><path class="st452" d="M270.8 524.4l-17.4 14.2 27.8 11.6z"/><path class="st453" d="M238.5 473.9l.4 20.7 34.5-20.1z"/><path class="st454" d="M274.1 354.1l-16.2 7.2 20.7-2z"/><path class="st455" d="M270.2 352.2l-12.3 9.1 16.2-7.2z"/><path class="st456" d="M257.9 431.2l4.5 12.3 11.4-11.6z"/><path class="st13" d="M292 378.3l-5.6 1.7 6.4 4.6z"/><path class="st457" d="M262.4 443.5l8.4.6 3-12.2z"/><path class="st458" d="M283.8 361.9l-5.2-2.6 5.8 5.2z"/><path class="st13" d="M281.8 654.4l-18.7 7.2 21.3 14.2z"/><path class="st13" d="M263.1 661.6l-13.6 16.8 34.9-2.6z"/><path class="st459" d="M270.2 412.6l3.9 3 2.6-2.6z"/><path class="st460" d="M271 408.3l-.8 4.3 6.5.4z"/><path class="st422" d="M268.2 405.8l2.8 2.5 4.2-5.3z"/><path class="st461" d="M267.3 397.9l.9 7.9 7-2.8z"/><path class="st462" d="M273.4 396.9l-6.1 1 7.9 5.1z"/><path class="st463" d="M315.8 407.4l-11.9 4 12.4-1.3z"/><path class="st464" d="M267.3 397.9l6.1-1 4.7-7.6z"/><path class="st465" d="M257.9 361.3l13.6 13.6 7.1-15.6z"/><path class="st466" d="M251.4 168.4l18.8 37.5 9.7-40.7z"/><path class="st467" d="M274.1 415.6l-4.6 2.6 7.8-.6z"/><path class="st468" d="M261.1 154.8l-9.7 13.6 28.5-3.2z"/><path class="st469" d="M271.5 374.9l-13.9 9.1 20.5 5.3z"/><path class="st470" d="M257.6 384l9.7 13.9 10.8-8.6z"/><path class="st471" d="M280.5 407.9l-1.3 5.1h3.3z"/><path class="st472" d="M279.2 413v5.9l3.3-5.9z"/><path class="st473" d="M279.9 165.2l-9.7 40.7 31-40.7z"/><path class="st474" d="M275.2 403l4.7 1.6.1-5.6z"/><path class="st475" d="M273.4 474.5l-34.5 20.1 40.1-2.4z"/><path class="st476" d="M238.9 494.6l19.6 15.5 20.5-17.9z"/><path class="st477" d="M280.5 407.9l2 5.1 1.3-5.8z"/><path class="st478" d="M237.8 556.1l42.7 16.8.7-22.7z"/><path class="st479" d="M273.4 396.9l1.8 6.1 4.8-4z"/><path class="st480" d="M278.1 389.3l-4.7 7.6 6.6 2.1z"/><path class="st481" d="M276.7 413l.6 4.6 1.9-4.6z"/><path class="st444" d="M279.2 418.9l-1.9-1.3 2.6 7.1z"/><path class="st482" d="M312.2 390.4l-4 .7 4.3 4.5z"/><path class="st483" d="M273.8 431.9l2.2 4.4 3.9-11.6z"/><path class="st447" d="M279.2 418.9l.7 5.8 9.1-9.1z"/><path class="st484" d="M277.3 377.4l.8 11.9 3.7-1z"/><path class="st485" d="M269.5 418.2l2.9 10.9 7.5-4.4z"/><path class="st486" d="M277.3 417.6l-7.8.6 10.4 6.5z"/><path class="st13" d="M267.6 624.7l-16.2 27.8 30.4 1.9z"/><path class="st487" d="M253.4 538.6l-15.6 17.5 43.4-5.9z"/><path class="st488" d="M276.7 413h2.5l1.3-5.1z"/><path class="st489" d="M271 408.3l5.7 4.7 3.8-5.1z"/><path class="st490" d="M237.8 556.1l6.5 25.9 36.2-9.1z"/><path class="st491" d="M280 399l9.1 5.8 2.4-9.2z"/><path class="st333" d="M244.3 582l26.5 9 9.7-18.1z"/><path class="st492" d="M251.4 652.5l11.7 9.1 18.7-7.2z"/><path class="st13" d="M278.6 359.3v10.4l5.8-5.2zm8.4 6.5l-8.4 3.9 10.4.3z"/><path class="st493" d="M270.8 444.1l3.9 14.2 7.1-14.2z"/><path class="st494" d="M276 436.3l-5.2 7.8h11z"/><path class="st495" d="M281.8 388.3L280 399l11.5-3.4z"/><path class="st13" d="M278.6 369.7l-1.3 7.7 9.1 2.6zm5.8-5.2l-5.8 5.2 8.4-3.9z"/><path class="st496" d="M259.2 315.3l-.7 17.5 24.6 18.1z"/><path class="st497" d="M274.1 354.1l4.5 5.2 4.5-8.4z"/><path class="st498" d="M378.9 279.1l-1.9 2.6 2.6 5.1z"/><path class="st499" d="M258.5 332.8l11.7 19.4 12.9-1.3z"/><path class="st500" d="M270.2 352.2l3.9 1.9 9-3.2z"/><path class="st13" d="M325.2 295.9l-18.8 12.9 20.1-4.5z"/><path class="st501" d="M280 399l-.1 5.6 3.9 2.6z"/><path class="st502" d="M279.9 404.6l.6 3.3 3.3-.7z"/><path class="st503" d="M279.1 493.1l-20.6 17 27.2-1.3z"/><path class="st504" d="M289 604.6l-21.4 20.1 36.9 1.3z"/><path class="st34" d="M300 370.6l-8 7.7 9.9-.2z"/><path class="st505" d="M302.3 399l-1.9.2 3.5 12.2z"/><path class="st13" d="M292 378.3l.8 6.3 9.1-6.5z"/><path class="st506" d="M258.5 510.1l12.3 14.3 14.9-15.6z"/><path class="st507" d="M277.3 377.4l4.5 10.9 4.6-8.3z"/><path class="st508" d="M278.6 359.3l5.2 2.6 3.9-5.2z"/><path class="st324" d="M283.1 350.9l-4.5 8.4 9.1-2.6z"/><path class="st13" d="M283.8 361.9l.6 2.6 2.6 1.3z"/><path class="st68" d="M290.6 370.1l-1.6-.1 3 8.3z"/><path class="st13" d="M289 370l-2.6 10 5.6-1.7z"/><path class="st509" d="M270.8 591l.7 17.5 17.5-3.9z"/><path class="st510" d="M300 361.3l-9.4 8.8 9.4.5z"/><path class="st511" d="M285.7 508.8l-14.9 15.6 20.7 5.8z"/><path class="st512" d="M271.5 608.5l-3.9 16.2 21.4-20.1z"/><path class="st513" d="M300.4 399.2l-4.6 8.2 8.1 4z"/><path class="st514" d="M289 415.6l7.1 13.6.4-15.2z"/><path class="st13" d="M278.6 369.7l7.8 10.3 2.6-10z"/><path class="st515" d="M281.8 388.3l9.7 7.3 1.3-11z"/><path class="st13" d="M287 365.8l2 4.2 1.6.1z"/><path class="st360" d="M293.5 410.4l-4.5 5.2 7.5-1.6z"/><path class="st516" d="M283.1 350.9l4.6 5.8 3.2-6.4z"/><path class="st517" d="M291.5 395.6l8.9 3.6 2.5-7.5z"/><path class="st518" d="M270.8 524.4l10.4 25.8 10.3-20z"/><path class="st519" d="M289.1 404.8l4.4 5.6 2.3-3z"/><path class="st520" d="M292.8 384.6l-1.3 11 11.4-3.9z"/><path class="st521" d="M307.7 613.7l-3.2 12.3h13.6z"/><path class="st522" d="M276 436.3l16.8 5.9 3.3-13z"/><path class="st523" d="M286.4 380l-4.6 8.3 11-3.7z"/><path class="st524" d="M291.5 395.6l-2.4 9.2 6.7 2.6z"/><path class="st525" d="M276 436.3l5.8 7.8 11-1.9z"/><path class="st526" d="M279.9 424.7l-3.9 11.6 20.1-7.1z"/><path class="st527" d="M289 415.6l-9.1 9.1 16.2 4.5z"/><path class="st491" d="M291.5 395.6l4.3 11.8 4.6-8.2z"/><path class="st528" d="M281.8 444.1l-7.1 14.2 21.4-12.9z"/><path class="st529" d="M292.8 659.6l-8.4 16.2 18.1-1.3z"/><path class="st530" d="M289.1 404.8l-5.3 2.4 9.7 3.2z"/><path class="st531" d="M283.8 407.2l5.2 8.4 4.5-5.2z"/><path class="st532" d="M301.9 378.1l4.2 7.5.1-15.5z"/><path class="st533" d="M292.8 442.2l-11 1.9 14.3 1.3z"/><path class="st534" d="M313 387.8l-.3 1.2 2.8-.5z"/><path class="st535" d="M290.6 370.1l1.4 8.2 8-7.7z"/><path class="st536" d="M290.9 350.3l-3.2 6.4 12.3 4.6z"/><path class="st537" d="M279.1 493.1l6.6 15.7 16.8-19.4z"/><path class="st538" d="M300 370.6l1.9 7.5 4.3-8z"/><path class="st539" d="M300.4 399.2l1.9-.2.6-7.3z"/><path class="st13" d="M287.7 356.7l-.7 9.1 13-4.5z"/><path class="st540" d="M273.4 474.5l5.6 17.7 21.6-22.9z"/><path class="st541" d="M296.1 445.4l-21.4 12.9 25.9 11z"/><path class="st239" d="M274.7 458.3l-1.3 16.2 27.2-5.2z"/><path class="st13" d="M305.8 286.8l19.4 9.1 1.9-10.4z"/><path class="st542" d="M292.8 659.6l9.7 14.9 2-1.9z"/><path class="st543" d="M280.5 572.9l-9.7 18.1 30.4-8.4z"/><path class="st544" d="M270.8 591l18.2 13.6 12.2-22z"/><path class="st545" d="M306.4 308.8l-15.5 41.5 21.4-24.6z"/><path class="st546" d="M325.8 591l-18.1 22.7 20.1-10.4z"/><path class="st547" d="M303.9 411.4l9 13.9 3.4-15.2z"/><path class="st13" d="M267.6 624.7l14.2 29.7 22.7-28.4z"/><path class="st548" d="M305.8 286.8l-50.5 8.4 51.1 13.6z"/><path class="st549" d="M307.8 389.8l-.6 1.3h1z"/><path class="st550" d="M310.2 396.7l-7.9 2.3 8 3z"/><path class="st551" d="M255.3 295.2l3.9 20.1 47.2-6.5z"/><path class="st333" d="M307.5 441.5l-3.7 1.4 5.2 9z"/><path class="st552" d="M279 492.2l.1.9 23.4-3.7z"/><path class="st553" d="M300.6 469.3L279 492.2l23.5-2.8z"/><path class="st554" d="M304.5 672.6l-2 1.9 9.8-3.2z"/><path class="st555" d="M296.1 429.2l-3.3 13 11 .7z"/><path class="st556" d="M292.8 442.2l3.3 3.2 7.7-2.5z"/><path class="st557" d="M295.8 407.4l.7 6.6 7.4-2.6z"/><path class="st34" d="M281.8 654.4l11 5.2 11.7-33.6z"/><path class="st553" d="M300.6 469.3l6.4 19.4 4.6-.6z"/><path class="st206" d="M300 361.3v9.3l6.2-.5z"/><path class="st558" d="M331.5 483.4l1.7.8.4-1.3z"/><path class="st548" d="M238.5 275.8l16.8 19.4 50.5-8.4z"/><path class="st13" d="M373.1 351.6L355 367.7l21.3 7.8z"/><path class="st559" d="M302.3 399l1.6 12.4 6.4-9.4z"/><path class="st560" d="M307 488.7l-4.5.7 4.6 31.7z"/><path class="st561" d="M292.8 384.6l10.1 7.1 3.2-6.1z"/><path class="st562" d="M301.9 378.1l-9.1 6.5 13.3 1z"/><path class="st532" d="M283.1 350.9l7.8-.6 15.5-41.5z"/><path class="st563" d="M302.5 489.4l-16.8 19.4 21.4 12.3z"/><path class="st564" d="M259.2 315.3l23.9 35.6 23.3-42.1z"/><path class="st565" d="M285.7 508.8l5.8 21.4 15.6-9.1z"/><path class="st566" d="M289 604.6l15.5 21.4 3.2-12.3z"/><path class="st13" d="M300 361.3l6.2 8.8 3.5-4.3z"/><path class="st567" d="M300.6 469.3l1.9 20.1 4.5-.7z"/><path class="st568" d="M301.2 582.6l-12.2 22 18.7 9.1z"/><path class="st569" d="M280.5 572.9l20.7 9.7 11.1-20.7z"/><path class="st570" d="M281.2 550.2l-.7 22.7 31.8-11z"/><path class="st442" d="M303.8 442.9l-7.7 2.5 12.9 6.5z"/><path class="st571" d="M296.1 429.2l7.7 13.7 3.7-1.4z"/><path class="st572" d="M315.8 407.4l1.7-1 .4-2.8z"/><path class="st573" d="M296.1 445.4l4.5 23.9 8.4-17.4z"/><path class="st574" d="M306.1 385.6l-3.2 6.1 4.9-1.9z"/><path class="st575" d="M302.9 391.7l4.3-.6.6-1.3z"/><path class="st576" d="M369.9 294l12.2 20 .7-11z"/><path class="st573" d="M315.5 437.8l-6.5 14.1 8-14.9z"/><path class="st577" d="M308.2 391.1l2 5.6 2.3-1.1z"/><path class="st578" d="M311.9 389.1l-3.7 2 4-.7z"/><path class="st579" d="M308.2 391.1h-1l3 5.6z"/><path class="st580" d="M307.2 391.1l-4.3.6 7.3 5z"/><path class="st581" d="M316 394.8l1.9 8.8 4.7-4.1z"/><path class="st582" d="M301.2 165.2l-31 40.7 43.3.7z"/><path class="st583" d="M302.9 391.7l-.6 7.3 7.9-2.3z"/><path class="st574" d="M306.1 385.6l1.7 4.2 4.1-.7z"/><path class="st584" d="M307.8 389.8l.4 1.3 3.7-2z"/><path class="st585" d="M310.2 396.7l.1 5.3 2.2-6.4z"/><path class="st586" d="M328.4 287.5v6.5l5.9-2z"/><path class="st587" d="M317.5 406.4l-1.2 3.7 7.6 4.9z"/><path class="st588" d="M313.5 206.6l-43.3-.7 46.6 58.3z"/><path class="st589" d="M312.9 425.3l.4 13.6 2.2-1.1z"/><path class="st573" d="M313.3 438.9l-4.3 13 6.5-14.1z"/><path class="st590" d="M329.9 483.6l.6 1.2 1-1.4z"/><path class="st591" d="M315.5 388.5l-2.8.5 3.3.7z"/><path class="st592" d="M238.5 275.8l67.3 11 11-22.6z"/><path class="st593" d="M312.9 425.3l-5.4 16.2 5.8-2.6z"/><path class="st594" d="M311.9 389.1l.3 1.3.5-1.4z"/><path class="st595" d="M310.3 402l5.5 5.4 2.1-3.8z"/><path class="st596" d="M296.5 414l-.4 15.2 16.8-3.9z"/><path class="st597" d="M303.9 411.4l-7.4 2.6 16.4 11.3z"/><path class="st598" d="M296.1 429.2l11.4 12.3 5.4-16.2z"/><path class="st599" d="M307.5 441.5l1.5 10.4 4.3-13z"/><path class="st548" d="M306.1 385.6l5.8 3.5 1.1-1.3z"/><path class="st600" d="M311.9 389.1l.8-.1.3-1.2z"/><path class="st601" d="M306.2 370.1l-.1 15.5 6.9 2.2z"/><path class="st602" d="M309.7 365.8l-3.5 4.3 6.8 17.7z"/><path class="st603" d="M312.2 390.4l.3 5.2 2.5-1.3z"/><path class="st604" d="M349.1 273.2l8.5 9.7.6-11.6z"/><path class="st605" d="M312.7 389l-.5 1.4 3.8-.7z"/><path class="st606" d="M317.9 403.6l-.4 2.8 5.1-6.9z"/><path class="st387" d="M307.1 521.1l-15.6 9.1 24.6 20.7z"/><path class="st607" d="M315 394.3l1 .5v-5.1z"/><path class="st608" d="M315 394.3l-2.5 1.3 3.5-.8z"/><path class="st542" d="M304.5 626l-11.7 33.6 27.9-12.3z"/><path class="st609" d="M309.7 365.8l3.3 22 2.5.7z"/><path class="st610" d="M281.2 550.2l31.1 11.7 3.8-11z"/><path class="st611" d="M310.3 402l-6.4 9.4 11.9-4z"/><path class="st612" d="M291.5 530.2l-10.3 20 34.9.7zm20.7-139.8l2.8 3.9 1-4.6z"/><path class="st613" d="M329.9 483.6l-3.3 1.9 3.9-.7z"/><path class="st614" d="M312.9 425.3l5.1 11.1 2.4-1.3z"/><path class="st615" d="M270.2 205.9l-31.7 69.9 78.3-11.6z"/><path class="st601" d="M316.3 410.1l-3.4 15.2 11-10.3z"/><path class="st13" d="M316.8 264.2l-11 22.6 21.3-1.3z"/><path class="st616" d="M312.3 325.7l6.4 25.2 3.3-4.5z"/><path class="st617" d="M312.9 425.3l2.6 12.5 1.5-.8z"/><path class="st618" d="M312.9 425.3L317 437l1-.6z"/><path class="st619" d="M292.8 659.6l11.7 13 12.3-6.5z"/><path class="st620" d="M304.5 672.6l7.8-1.3 4.5-5.2z"/><path class="st621" d="M367.3 339.3l5.8 12.3 1.3-13.6z"/><path class="st622" d="M315.8 407.4l.5 2.7 1.2-3.7z"/><path class="st623" d="M312.5 395.6l-2.2 6.4 7.6 1.6z"/><path class="st624" d="M316 394.8l-3.5.8 5.4 8z"/><path class="st616" d="M312.3 325.7l-21.4 24.6 27.8.6z"/><path class="st271" d="M290.9 350.3l9.1 11 18.7-10.4z"/><path class="st625" d="M329.7 463.5l.2 20.1 1.6-.2z"/><path class="st626" d="M318.1 626h-13.6l15.5 10.3z"/><path class="st112" d="M292.8 659.6l24 6.5 3.9-18.8z"/><path class="st627" d="M316 394.8l6.6 4.7 1-1.9z"/><path class="st628" d="M300 361.3l9.7 4.5 9-14.9z"/><path class="st629" d="M331.5 483.4l-1 1.4 2.7-.6z"/><path class="st630" d="M300.6 469.3l11 18.8 7.9-1.3z"/><path class="st631" d="M319.5 486.8l-7.9 1.3 11.7 17.5z"/><path class="st632" d="M329.7 463.5l-3.1 22 3.3-1.9z"/><path class="st633" d="M333.6 482.9h6.6l.3-1.3z"/><path class="st30" d="M307.7 613.7l10.4 12.3 9.7-22.7z"/><path class="st13" d="M325.2 295.9l3.2-1.9v-6.5z"/><path class="st634" d="M316 389.7v5.1l5.5-1.8z"/><path class="st635" d="M326.6 485.5l-3.3 20.1 7.2-20.8z"/><path class="st636" d="M347.8 571l-22 20 25.9 13.6z"/><path class="st637" d="M312.3 561.9l-11.1 20.7 25.9-3.9z"/><path class="st638" d="M315.5 388.5l.5 1.2 5.5 3.3z"/><path class="st639" d="M301.2 582.6l24.6 8.4 1.3-12.3z"/><path class="st13" d="M305.8 286.8l.6 22 18.8-12.9z"/><path class="st640" d="M342 416.9l-9.9 10.4 14.5 14.2z"/><path class="st641" d="M307 488.7l.1 32.4 16.2-15.5z"/><path class="st642" d="M311.6 488.1l-4.6.6 16.3 16.9z"/><path class="st559" d="M321.5 393l-5.5 1.8 7.6 2.8z"/><path class="st643" d="M316.1 550.9l-3.8 11 14.8 16.8z"/><path class="st644" d="M323.3 505.6l-16.2 15.5 29.7-2.6z"/><path class="st13" d="M327.1 285.5l-1.9 10.4 3.2-8.4z"/><path class="st597" d="M340.7 539.9l-24.6 11 31.7 20.1z"/><path class="st645" d="M327.8 603.3l-9.7 22.7 11.3-3.2z"/><path class="st646" d="M351.7 257.7l-2.6 15.5 9.1-1.9z"/><path class="st647" d="M301.2 582.6l6.5 31.1 18.1-22.7z"/><path class="st648" d="M338.1 358.7l-22.6 29.8 31.1-18.8z"/><path class="st649" d="M319.5 486.8l3.8 18.8 3.3-20.1z"/><path class="st13" d="M333.6 270.7l-3.2 9 3.9-3.9z"/><path class="st650" d="M322 346.4l-3.3 4.5h9.1z"/><path class="st651" d="M329.7 463.5l1.8 19.9 2.1-.5z"/><path class="st13" d="M327.1 285.5l1.3 2 2-7.8z"/><path class="st652" d="M355 498.5l-18.2 20 25.3-4.5z"/><path class="st13" d="M326.5 304.3l-20.1 4.5 23.3 6.5z"/><path class="st34" d="M306.4 308.8l5.9 16.9 17.4-10.4z"/><path class="st297" d="M318.7 350.9l-9 14.9 18.7-11z"/><path class="st653" d="M327.8 350.9h-9.1l9.7 3.9z"/><path class="st654" d="M313.5 206.6l3.3 57.6 21.3-24z"/><path class="st655" d="M333 304.3l-3.3 11 9.1 2.6z"/><path class="st13" d="M333.6 270.7l.7 5.1 6.4-11zm-8.4 25.2l1.3 8.4 1.9-10.3z"/><path class="st656" d="M334.3 292l11 14.2 3.2-16.1z"/><path class="st13" d="M316.8 264.2l10.3 21.3 3.3-5.8z"/><path class="st564" d="M316.1 550.9l11 27.8 20.7-7.7z"/><path class="st657" d="M319.5 486.8l7.1-1.3 3.1-22z"/><path class="st658" d="M320.4 435.1l-2.4 1.3 11.7 27.1z"/><path class="st659" d="M317 437l-8 14.9 20.7 11.6z"/><path class="st660" d="M318 436.4l-1 .6 12.7 26.5z"/><path class="st452" d="M309 451.9l-8.4 17.4 29.1-5.8z"/><path class="st661" d="M300.6 469.3l18.9 17.5 10.2-23.3z"/><path class="st662" d="M323.9 415l7.4 12.9.8-.6z"/><path class="st663" d="M329.7 463.5l3.9 19.4 6.9-1.3z"/><path class="st13" d="M391.9 354.1l2.5 23.3 19.5-29.7z"/><path class="st664" d="M327.8 350.9l.6 3.9 9.7 3.9z"/><path class="st665" d="M312.9 425.3l7.5 9.8 10.9-7.2z"/><path class="st666" d="M323.9 415l-11 10.3 18.4 2.6z"/><path class="st667" d="M326.5 304.3l3.2 11 3.3-11z"/><path class="st547" d="M322.6 399.5l1.3 15.5 13.6-7.1z"/><path class="st592" d="M323.6 397.6l-1 1.9 14.9 8.4z"/><path class="st13" d="M329.7 315.3l-17.4 10.4 19.4-3.9z"/><path class="st668" d="M369.2 272.6l-11-1.3 12.3 7.8z"/><path class="st669" d="M328.4 294l4.6 10.3 1.3-12.3z"/><path class="st670" d="M325.8 591l2 12.3 23.9 1.3z"/><path class="st671" d="M328.4 294l-1.9 10.3h6.5z"/><path class="st672" d="M333.6 482.9l-.4 1.3h.8z"/><path class="st13" d="M316.8 264.2l13.6 15.5 3.2-9z"/><path class="st673" d="M369.9 450.6l-.4 23.9 1.7-.5z"/><path class="st674" d="M301.2 165.2l12.3 41.4 21.4-40.8z"/><path class="st675" d="M329.7 315.3l2 6.5 7.1-3.9z"/><path class="st13" d="M338.1 240.2l-21.3 24 23.9.6z"/><path class="st676" d="M330.5 484.8l-7.2 20.8 10.7-21.4z"/><path class="st677" d="M333.2 484.2l-2.7.6 3.5-.6z"/><path class="st678" d="M328.4 287.5l5.9 4.5 4.5-10.3z"/><path class="st679" d="M330.4 279.7l-2 7.8 10.4-5.8z"/><path class="st409" d="M305.1 149l-3.9 16.2 33.7.6z"/><path class="st675" d="M331.7 321.8l4.5 9.7 2.6-13.6z"/><path class="st261" d="M346.6 339.9l13.5 7.8.7-10.4z"/><path class="st13" d="M322 346.4l5.8 4.5 8.4-19.4z"/><path class="st13" d="M312.3 325.7l9.7 20.7 14.2-14.9z"/><path class="st13" d="M331.7 321.8l-19.4 3.9 23.9 5.8z"/><path class="st680" d="M334.3 275.8l-3.9 3.9 8.4 2z"/><path class="st681" d="M315.5 388.5l6 4.5 25.1-23.3z"/><path class="st13" d="M316.8 264.2l16.8 6.5 7.1-5.9z"/><path class="st682" d="M338.8 281.7l-4.5 10.3 14.2-1.9z"/><path class="st271" d="M328.4 354.8l-18.7 11 28.4-7.1z"/><path class="st663" d="M329.7 463.5l10.8 18.1 6.3-1.4z"/><path class="st683" d="M309.7 365.8l5.8 22.7 22.6-29.8z"/><path class="st684" d="M332.1 427.3l-.8.6 15.3 13.6z"/><path class="st685" d="M337.5 407.9l-13.6 7.1 18.1 1.9z"/><path class="st686" d="M323.9 415l8.2 12.3 9.9-10.4z"/><path class="st687" d="M336.2 331.5l10.4 8.4.6-9.7z"/><path class="st688" d="M338.8 317.9l-2.6 13.6 11-1.3z"/><path class="st689" d="M349.2 479.7l5.8 18.8 7.3-22.1z"/><path class="st690" d="M350.4 457l-1.2 22.7 13.1-3.3z"/><path class="st691" d="M333.6 482.9l.4 1.3 6.2-1.3z"/><path class="st692" d="M337.5 407.9h12.3l3.2-11.7z"/><path class="st693" d="M338.8 317.9l8.4 12.3 3.9-15.5z"/><path class="st694" d="M307.1 521.1l9 29.8 24.6-11z"/><path class="st695" d="M336.8 518.5l-29.7 2.6 33.6 18.8z"/><path class="st13" d="M327.8 350.9l10.3 7.8 8.5-18.8z"/><path class="st13" d="M336.2 331.5l-8.4 19.4 18.8-11z"/><path class="st696" d="M338.8 281.7l9.7 8.4.6-16.9z"/><path class="st697" d="M347.2 330.2l-.6 9.7 14.2-2.6z"/><path class="st698" d="M333 304.3l5.8 13.6 6.5-11.7z"/><path class="st699" d="M334.3 292l-1.3 12.3 12.3 1.9z"/><path class="st700" d="M320.4 435.1l9.3 28.4 16.9-22z"/><path class="st701" d="M331.3 427.9l-10.9 7.2 26.2 6.4z"/><path class="st325" d="M346.6 369.7l2.5 14.9.7-8.5z"/><path class="st702" d="M372.4 328.3l-5.1 11 7.1-1.3z"/><path class="st703" d="M323.6 397.6l13.9 10.3 11.6-23.3z"/><path class="st704" d="M346.8 480.2l2.4-.5 1.2-22.7z"/><path class="st705" d="M340.5 481.6l-.3 1.3 6.6-2.7z"/><path class="st706" d="M365.5 618.8l-2.2-.6 4.6 4.5z"/><path class="st694" d="M327.1 578.7l-1.3 12.3 22-20z"/><path class="st707" d="M340.7 264.8l8.4 8.4 2.6-15.5z"/><path class="st13" d="M338.1 240.2l2.6 24.6 11-7.1z"/><path class="st708" d="M350.4 457l11.9 19.4 2.4-.7z"/><path class="st709" d="M351.7 604.6l-22.3 18.2 25.5-8.5z"/><path class="st710" d="M340.7 264.8l-6.4 11 14.8-2.6z"/><path class="st711" d="M321.5 393l2.1 4.6 25.5-13z"/><path class="st712" d="M346.6 369.7L321.5 393l27.6-8.4z"/><path class="st713" d="M334.3 275.8l4.5 5.9 10.3-8.5z"/><path class="st714" d="M355 367.7l12.3 16.9 9-9.1z"/><path class="st715" d="M327.8 603.3l1.6 19.5 22.3-18.2z"/><path class="st716" d="M349.1 384.6l-11.6 23.3 15.5-11.7z"/><path class="st717" d="M329.7 463.5l17.1 16.7 3.6-23.2z"/><path class="st718" d="M346.6 441.5l-16.9 22 20.7-6.5z"/><path class="st458" d="M378.9 226L366 253.8h13.6z"/><path class="st719" d="M374.4 338l-1.3 13.6 7.1-3.9z"/><path class="st720" d="M337.5 407.9l4.5 9 7.8-9z"/><path class="st721" d="M334.9 165.8l-21.4 40.8 47.3-39.5z"/><path class="st722" d="M349.2 479.7l-2.4.5 8.2 18.3z"/><path class="st723" d="M345.3 306.2l-6.5 11.7 12.3-3.2z"/><path class="st724" d="M346.8 480.2l-6.6 2.7 14.8 15.6z"/><path class="st725" d="M336.8 518.5l3.9 21.4 21.4-25.9z"/><path class="st726" d="M364.7 475.7l4.8-1.2.4-23.9z"/><path class="st717" d="M334 484.2l-10.7 21.4 31.7-7.1z"/><path class="st727" d="M340.2 482.9l-6.2 1.3 21 14.3z"/><path class="st728" d="M323.3 505.6l13.5 12.9 18.2-20z"/><path class="st729" d="M355.6 321.8l-8.4 8.4 13.6 7.1z"/><path class="st730" d="M338.1 358.7l8.5 11 8.4-2z"/><path class="st731" d="M374.4 473.1l6.5-2 1.5-1.8z"/><path class="st732" d="M374.4 473.1l-1.2.3 4.4 20.5z"/><path class="st733" d="M346.6 369.7l3.2 6.4 5.2-8.4z"/><path class="st734" d="M349.1 273.2l-.6 16.9 9.1-7.2z"/><path class="st735" d="M351.1 314.7l-3.9 15.5 8.4-8.4z"/><path class="st34" d="M338.1 240.2l13.6 17.5 14.3-3.9z"/><path class="st736" d="M360.8 337.3l-.7 10.4 7.2-8.4z"/><path class="st619" d="M374.4 637l25.2 6.4 1.2-15.1z"/><path class="st13" d="M338.1 358.7l16.9 9 5.1-20z"/><path class="st13" d="M346.6 339.9l-8.5 18.8 22-11z"/><path class="st308" d="M351.1 314.7l4.5 7.1 11 .6z"/><path class="st737" d="M367.3 288.1l-18.8 2 21.4 3.9z"/><path class="st287" d="M351.7 604.6l3.2 9.7 8.4 3.9z"/><path class="st205" d="M351.7 257.7l6.5 13.6 7.8-17.5z"/><path class="st738" d="M357.6 282.9l-9.1 7.2 18.8-2z"/><path class="st739" d="M349.8 376.1l-.7 8.5h18.2z"/><path class="st740" d="M355 367.7l-5.2 8.4 17.5 8.5z"/><path class="st741" d="M355.6 321.8l5.2 15.5 5.8-14.9z"/><path class="st60" d="M348.5 290.1l-3.2 16.1 24.6-12.2z"/><path class="st742" d="M380.9 471.1l-6.5 2 6.5-.7z"/><path class="st743" d="M367.3 384.6L353 396.2l26.6 20.1z"/><path class="st744" d="M350.4 457l14.3 18.7 5.2-25.1z"/><path class="st745" d="M351.7 604.6l11.6 13.6 2.2.6z"/><path class="st746" d="M340.7 539.9l7.1 31.1 18.2-11.7z"/><path class="st747" d="M374.4 473.1l3.2 20.8 3.3-21.5z"/><path class="st748" d="M370.5 279.1l-3.2 9 9.7-6.4z"/><path class="st297" d="M334.9 165.8l25.9 1.3 10.3-16.2z"/><path class="st749" d="M346.6 441.5l3.8 15.5 19.5-6.4z"/><path class="st750" d="M349.1 384.6l3.9 11.6 14.3-11.6z"/><path class="st325" d="M377 281.7l-9.7 6.4 12.3-1.3z"/><path class="st751" d="M373.2 473.4l-2 .6 6.4 19.9z"/><path class="st752" d="M305.1 149l29.8 16.8 36.2-14.9z"/><path class="st753" d="M363.3 618.2l-8.4-3.9 13 8.4z"/><path class="st754" d="M358.2 271.3l-.6 11.6 12.9-3.8z"/><path class="st755" d="M357.6 282.9l9.7 5.2 3.2-9z"/><path class="st227" d="M366 253.8l-7.8 17.5 11 1.3z"/><path class="st756" d="M369.9 450.6l3.3 22.8 1.2-.3z"/><path class="st206" d="M345.3 306.2l5.8 8.5 18.8-20.7z"/><path class="st757" d="M355 498.5l7.1 15.5 15.5-20.1z"/><path class="st271" d="M367.3 288.1l9 5.9 3.3-7.2z"/><path class="st758" d="M376.3 294h-6.4l12.9 9z"/><path class="st189" d="M351.1 314.7l15.5 7.7 3.3-28.4z"/><path class="st13" d="M360.1 347.7l-5.1 20 18.1-16.1z"/><path class="st532" d="M379.6 416.3l-29.8-8.4 30.4 22.6z"/><path class="st592" d="M366 559.3L347.8 571l23.3 6.4z"/><path class="st610" d="M347.8 571l3.9 33.6 19.4-27.2z"/><path class="st759" d="M385.4 319.2l-3.9 14.9 8.4-5.2z"/><path class="st760" d="M408 483.6l-30.4 10.3 31.7 11.7z"/><path class="st761" d="M366 253.8l3.2 18.8 10.4-18.8z"/><path class="st34" d="M404.2 602l12.3 13.6 6.4-27.2z"/><path class="st762" d="M360.8 337.3l6.5 2 5.1-11z"/><path class="st763" d="M366.6 322.4l-5.8 14.9 11.6-9z"/><path class="st135" d="M367.3 339.3l-7.2 8.4 13 3.9z"/><path class="st764" d="M369.9 450.6l1.3 23.4 2-.6z"/><path class="st765" d="M377.6 493.9l3.9 38.2 27.8-26.5z"/><path class="st766" d="M430.5 622.3l-15.3 27.6 19.4-19.4z"/><path class="st271" d="M379.6 253.8l-10.4 18.8 14.9-9.1z"/><path class="st34" d="M404.2 602l-3.4 26.3 15.7-12.7z"/><path class="st767" d="M371.2 474l-1.7.5 8.1 19.4z"/><path class="st271" d="M367.3 288.1l2.6 5.9h6.4z"/><path class="st764" d="M369.9 450.6l4.5 22.5 8-3.8z"/><path class="st768" d="M362.3 476.4l-7.3 22.1 22.6-4.6z"/><path class="st769" d="M364.7 475.7l-2.4.7 15.3 17.5z"/><path class="st770" d="M369.5 474.5l-4.8 1.2 12.9 18.2z"/><path class="st532" d="M425.5 373.6l-22 45.9 32.4 7.8z"/><path class="st271" d="M369.2 272.6l9.7 6.5 5.2-15.6z"/><path class="st771" d="M360.8 167.1l-47.3 39.5 65.4 19.4z"/><path class="st772" d="M370.5 279.1l6.5 2.6 1.9-2.6z"/><path class="st773" d="M379.6 286.8l-3.3 7.2 11-6.5z"/><path class="st774" d="M369.2 272.6l1.3 6.5h8.4z"/><path class="st68" d="M338.1 240.2l27.9 13.6 12.9-27.8z"/><path class="st775" d="M313.5 206.6l24.6 33.6 40.8-14.2z"/><path class="st13" d="M391.8 138.7l-.7 2 23.4 27z"/><path class="st776" d="M382.1 314l12.3 2.6.7-11z"/><path class="st777" d="M385.4 319.2l4.5 9.7 4.5-12.3z"/><path class="st778" d="M382.4 469.3l-1.5 3.1 10.3-.5z"/><path class="st430" d="M353 396.2l-3.2 11.7 29.8 8.4z"/><path class="st564" d="M349.8 407.9l-7.8 9 38.2 13.6z"/><path class="st779" d="M342 416.9l4.6 24.6 33.6-11z"/><path class="st740" d="M346.6 441.5l23.3 9.1 10.3-20.1z"/><path class="st62" d="M389.9 606.6l-22 16.1 32.9 5.6z"/><path class="st746" d="M340.7 539.9l25.3 19.4 15.5-27.2z"/><path class="st780" d="M380.9 472.4l-3.3 21.5 13.6-22z"/><path class="st781" d="M377.6 493.9L362.1 514l19.4 18.1z"/><path class="st622" d="M362.1 514l-21.4 25.9 40.8-7.8z"/><path class="st782" d="M372.4 328.3l2 9.7 7.1-3.9z"/><path class="st783" d="M374.4 338l5.8 9.7 1.3-13.6z"/><path class="st784" d="M366.6 322.4l5.8 5.9 9.7-14.3z"/><path class="st329" d="M369.9 294l-3.3 28.4 15.5-8.4z"/><path class="st785" d="M382.8 303l-.7 11 13-8.4z"/><path class="st786" d="M380.9 471.1v1.3l1.5-3.1z"/><path class="st787" d="M381.5 532.1L366 559.3l20.7-7.1z"/><path class="st779" d="M380.2 430.5l17.5 13.6 5.8-24.6z"/><path class="st788" d="M387.3 287.5l-11 6.5 15.6 1.2z"/><path class="st789" d="M411.3 340.5l-17.5 3.9 20.1 3.3z"/><path class="st790" d="M372.4 328.3l9.1 5.8 3.9-14.9z"/><path class="st791" d="M382.1 314l-9.7 14.3 13-9.1z"/><path class="st746" d="M366 559.3l5.1 18.1 15.6-25.2z"/><path class="st792" d="M367.9 622.7l6.5 14.3 26.4-8.7z"/><path class="st793" d="M369.9 450.6l12.5 18.7 15.3-25.2z"/><path class="st794" d="M378.9 279.1l.7 7.7 7.7.7z"/><path class="st795" d="M393.8 344.4l-1.9 9.7 22-6.4z"/><path class="st271" d="M371.1 150.9l19.5 14.9v-6.5z"/><path class="st492" d="M384.1 653.8l7.8 1.9 7.7-12.3z"/><path class="st796" d="M371.1 577.4l-19.4 27.2 38.2 2z"/><path class="st797" d="M432.2 449.8l2.6-1.4 1.1-21.1z"/><path class="st548" d="M379.6 416.3l.6 14.2 23.3-11z"/><path class="st798" d="M371.1 577.4l18.8 29.2 2.6-15.6z"/><path class="st799" d="M365.5 618.8l2.4 3.9 22-16.1z"/><path class="st800" d="M351.7 604.6l13.8 14.2 24.4-12.2z"/><path class="st271" d="M360.8 167.1l18.1 58.9 11.7-60.2zm32.4 99.7l11 7.1 3.8-9.1z"/><path class="st801" d="M394.4 377.4l-14.8 38.9 23.9 3.2z"/><path class="st271" d="M371.1 150.9l-10.3 16.2 29.8-1.3z"/><path class="st802" d="M378.9 226l.7 27.8 11 3.9z"/><path class="st803" d="M379.6 253.8l4.5 9.7 6.5-5.8z"/><path class="st804" d="M382.1 314l3.3 5.2 9-2.6z"/><path class="st387" d="M380.2 430.5l-10.3 20.1 27.8-6.5z"/><path class="st805" d="M426.8 322.4l7.1 3.3 2-16.9z"/><path class="st271" d="M393.2 266.8l-5.9 20.7 16.9-13.6z"/><path class="st806" d="M390.6 257.7l2.6 9.1 14.8-2z"/><path class="st807" d="M392.5 591l11.7 11 18.7-13.6z"/><path class="st271" d="M387.3 287.5l4.6 7.7 12.3-21.3z"/><path class="st808" d="M389.9 328.9l-8.4 5.2 12.3 10.3z"/><path class="st809" d="M376.3 294l6.5 9 9.1-7.8z"/><path class="st13" d="M373.1 351.6l3.2 23.9 15.6-21.4z"/><path class="st810" d="M380.2 347.7l-7.1 3.9 18.8 2.5z"/><path class="st271" d="M378.9 279.1l8.4 8.4 5.9-20.7z"/><path class="st271" d="M384.1 263.5l-5.2 15.6 14.3-12.3z"/><path class="st811" d="M390.6 257.7l-6.5 5.8 9.1 3.3z"/><path class="st812" d="M386.7 552.2l-15.6 25.2 21.4 13.6z"/><path class="st13" d="M389.2 147.8l1.4 11.5 23.9 8.4z"/><path class="st81" d="M380.2 347.7l11.7 6.4 1.9-9.7z"/><path class="st813" d="M381.5 334.1l-1.3 13.6 13.6-3.3z"/><path class="st13" d="M391.9 354.1l-15.6 21.4 18.1 1.9zm-2-208.9l-.7 2.6 25.3 19.9z"/><path class="st814" d="M376.3 375.5l-9 9.1 27.1-7.2z"/><path class="st815" d="M367.3 384.6l12.3 31.7 14.8-38.9z"/><path class="st816" d="M391.9 295.2l-9.1 7.8 12.3 2.6z"/><path class="st13" d="M423.6 340.5l-9.7 7.2 11.6 25.9z"/><path class="st817" d="M382.4 469.3l8.8 2.6 6.5-27.8z"/><path class="st818" d="M404.2 465.5l-13 6.4 16.8 11.7z"/><path class="st819" d="M374.4 637l9.7 16.8 15.5-10.4z"/><path class="st29" d="M409.2 463.4l1.7-.9 3.9-4z"/><path class="st13" d="M405.4 117.3l9.1 50.4 18.6-71.3z"/><path class="st820" d="M397.7 444.1l-6.5 27.8 13-6.4z"/><path class="st13" d="M389.9 606.6l10.9 21.7 3.4-26.3z"/><path class="st821" d="M392.5 591l-2.6 15.6 14.3-4.6z"/><path class="st752" d="M378.9 226l31.1 2.6 8.4-48.6z"/><path class="st10" d="M378.9 226l11.7 31.7 19.4-29.1z"/><path class="st822" d="M391.2 471.9l-13.6 22 30.4-10.3z"/><path class="st823" d="M397.7 444.1l11.5 19.3 5.6-4.9z"/><path class="st824" d="M416.5 615.6l14 6.7 1.5-17z"/><path class="st68" d="M390.6 257.7l17.4 7.1 2-36.2z"/><path class="st271" d="M390.6 165.8L378.9 226l39.5-46z"/><path class="st825" d="M426.8 457.7l-2.7 6.5 4 11z"/><path class="st826" d="M399.6 643.4l-7.7 12.3 23.3-5.8z"/><path class="st109" d="M397.7 444.1l6.5 21.4 5-2.1z"/><path class="st13" d="M422.9 588.4l-6.4 27.2 15.5-10.3z"/><path class="st827" d="M480.5 379.4l24 16.8 1.3-33z"/><path class="st828" d="M389.9 328.9l3.9 15.5 17.5-3.9z"/><path class="st271" d="M394.4 316.6l-4.5 12.3 21.4 11.6z"/><path class="st829" d="M427.1 452.2l5.1-2.4 3.7-22.5z"/><path class="st830" d="M400.8 628.3l-1.2 15.1 15.6 6.5z"/><path class="st13" d="M405.4 117.3l-13.6 21.4 22.7 29z"/><path class="st13" d="M391.1 140.7l-.6 2.3 24 24.7z"/><path class="st811" d="M390.6 159.3v6.5l23.9 1.9z"/><path class="st13" d="M390.5 143l-.6 2.2 24.6 22.5z"/><path class="st271" d="M404.2 273.9l12.3 13.6 3.2-13zm10.3-106.2l-23.9-1.9 27.8 14.2z"/><path class="st139" d="M411.3 340.5l2.6 7.2 9.7-7.2z"/><path class="st831" d="M427.1 452.2l-.2 1.3 5.3-3.7z"/><path class="st832" d="M409.2 463.4l-5 2.1 14.8 3.9z"/><path class="st271" d="M391.9 295.2l3.2 10.4 21.4-18.1z"/><path class="st271" d="M404.2 273.9l-12.3 21.3 24.6-7.7z"/><path class="st833" d="M434.6 630.5l-19.4 19.4 22-9.7z"/><path class="st834" d="M426.9 453.5l-.1 4.2 5.4-7.9z"/><path class="st835" d="M414.8 458.5l-3.9 4 8.1 6.9z"/><path class="st313" d="M424.1 464.2l-5.1 5.2 9.1 5.8z"/><path class="st836" d="M410.9 462.5l-1.7.9 9.8 6z"/><path class="st837" d="M404.2 465.5l3.8 18.1 11-14.2z"/><path class="st838" d="M408 264.8l-3.8 9.1 15.5.6z"/><path class="st839" d="M422.3 535.4l-35.6 16.8 38.8 3.9z"/><path class="st13" d="M413.9 347.7l-19.5 29.7 31.1-3.8z"/><path class="st840" d="M403.5 419.5l-5.8 24.6 26.7 9.4z"/><path class="st841" d="M409.3 505.6l-27.8 26.5 40.8 3.3z"/><path class="st842" d="M381.5 532.1l5.2 20.1 35.6-16.8z"/><path class="st843" d="M424.4 453.5h2.5l.2-1.3z"/><path class="st592" d="M394.4 377.4l9.1 42.1 22-45.9z"/><path class="st844" d="M425.5 556.1l-38.8-3.9 41.4 23.9z"/><path class="st552" d="M414.8 458.5l6.3-1 3.3-4z"/><path class="st845" d="M414.8 458.5l4.2 10.9 5.1-5.2z"/><path class="st846" d="M421.1 457.5l-6.3 1 9.3 5.7z"/><path class="st847" d="M397.7 444.1l17.1 14.4 9.6-5z"/><path class="st848" d="M473.4 593.6l-6 17 6 .7z"/><path class="st271" d="M395.1 305.6l-.7 11 31.1-9.7z"/><path class="st271" d="M416.5 287.5l-21.4 18.1 30.4 1.3z"/><path class="st325" d="M425.5 306.9l1.3 15.5 9.1-13.6z"/><path class="st824" d="M416.5 615.6l-15.7 12.7 29.7-6z"/><path class="st685" d="M386.7 552.2l5.8 38.8 35.6-14.9z"/><path class="st849" d="M421.1 457.5l3 6.7 2.7-6.5z"/><path class="st850" d="M424.4 453.5l-3.3 4 5.7.2z"/><path class="st851" d="M392.5 591l30.4-2.6 5.2-12.3z"/><path class="st828" d="M411.3 340.5h12.3l3.2-18.1z"/><path class="st811" d="M394.4 316.6l16.9 23.9 15.5-18.1z"/><path class="st297" d="M425.5 306.9l-31.1 9.7 32.4 5.8z"/><path class="st852" d="M424.4 453.5l2.4 4.2.1-4.2z"/><path class="st853" d="M447.5 534.7l-22 21.4 22 7.2z"/><path class="st802" d="M408 264.8l11.7 9.7 12.3-34.9z"/><path class="st529" d="M410 228.6l-2 36.2 24-25.2z"/><path class="st854" d="M408 483.6l1.3 22 18.8-30.4z"/><path class="st855" d="M419 469.4l-11 14.2 20.1-8.4z"/><path class="st856" d="M400.8 628.3l14.4 21.6 15.3-27.6z"/><path class="st297" d="M419.7 274.5l-3.2 13 14.2 5.2z"/><path class="st752" d="M416.5 287.5l9 19.4 5.2-14.2z"/><path class="st10" d="M460.5 595.5l-11.1 6.8 18 8.3z"/><path class="st857" d="M424.4 453.5l2.7-1.3 8.8-24.9z"/><path class="st170" d="M426.8 322.4l-3.2 18.1 10.3-14.8z"/><path class="st271" d="M430.7 292.7l-5.2 14.2 10.4 1.9z"/><path class="st858" d="M450.2 439.6l-.1 5.1 2.1-6.4z"/><path class="st859" d="M440.3 445.6l1.7-1 .6-2.8z"/><path class="st860" d="M425.5 556.1l13.6 19.4 8.4-12.2z"/><path class="st752" d="M414.5 167.7l3.9 12.3 18.1 3.9z"/><path class="st861" d="M426.8 457.7l1.3 17.5 6.7-26.8z"/><path class="st862" d="M432.2 449.8l-5.4 7.9 8-9.3z"/><path class="st13" d="M445.7 92.6l3.1 87.4.3-88z"/><path class="st863" d="M425.5 556.1l2.6 20 11-.6z"/><path class="st34" d="M422.9 588.4l9.1 16.9 7.1-29.8z"/><path class="st864" d="M428.1 576.1l-5.2 12.3 16.2-12.9z"/><path class="st865" d="M403.5 419.5l20.9 34 11.5-26.2z"/><path class="st271" d="M418.4 180l-8.4 48.6 26.5-44.7zm-8.4 48.6l22 11 4.5-55.7z"/><path class="st177" d="M435.9 427.3l6.7 14.5 1.8-1.1z"/><path class="st866" d="M443.6 499.1l-21.3 36.3 25.2-.7z"/><path class="st867" d="M422.3 535.4l3.2 20.7 22-21.4z"/><path class="st868" d="M467.4 610.6l4.1 15.4 1.9-14.7z"/><path class="st13" d="M439.1 575.5l-7.1 29.8 17.4-3z"/><path class="st869" d="M436.5 93.9l-3.4 2.5 7.2-2.4z"/><path class="st870" d="M467.4 610.6l-32.8 19.9 36.9-4.5z"/><path class="st871" d="M435.9 427.3l-1.1 21.1 7.8-6.6z"/><path class="st872" d="M434.8 448.4l5.5-2.8 2.3-3.8z"/><path class="st873" d="M446.9 251.2l-27.2 23.3 38.8-9z"/><path class="st874" d="M461.8 408.5l-9.6 29.8 10.2-3.3z"/><path class="st875" d="M409.3 505.6l13 29.8 21.3-36.3z"/><path class="st876" d="M428.1 475.2l-18.8 30.4 34.3-6.5z"/><path class="st13" d="M430.5 622.3l4.1 8.2 14.8-28.2zm1.5-17l-1.5 17 18.9-20z"/><path class="st877" d="M442.6 441.8l-.6 2.8 2.4-3.9z"/><path class="st53" d="M432 239.6l-12.3 34.9 27.2-23.3z"/><path class="st271" d="M448.8 180l-12.3 3.9 24.6 18.8z"/><path class="st13" d="M445.7 92.6l-2.9.7 6 86.7z"/><path class="st13" d="M442.8 93.3l-2.5.7 8.5 86z"/><path class="st271" d="M414.5 167.7l22 16.2 12.3-3.9z"/><path class="st13" d="M433.1 96.4l-18.6 71.3 34.3 12.3z"/><path class="st13" d="M440.3 94l-7.2 2.4 15.7 83.6z"/><path class="st878" d="M442 444.6l-1.7 1 9.8-.9z"/><path class="st10" d="M434.8 448.4l-6.7 26.8 22-30.5z"/><path class="st879" d="M440.3 445.6l-5.5 2.8 15.3-3.7z"/><path class="st880" d="M444.4 440.7l5.7 4 .1-5.1z"/><path class="st881" d="M435.9 427.3l8.5 13.4 5.8-1.1z"/><path class="st882" d="M444.4 440.7l-2.4 3.9 8.1.1z"/><path class="st236" d="M419.7 274.5l11 18.2 27.8-27.2z"/><path class="st13" d="M433.9 325.7l18.8 25.2 11-16.8z"/><path class="st883" d="M435.9 427.3l14.3 12.3 2-1.3z"/><path class="st152" d="M439.1 575.5l21.4 20v-18.7z"/><path class="st13" d="M423.6 340.5l1.9 33.1 27.2-22.7z"/><path class="st13" d="M433.9 325.7l-10.3 14.8 29.1 10.4z"/><path class="st848" d="M447.5 563.3l-8.4 12.2 21.4 1.3z"/><path class="st884" d="M501.2 346.4l-20.7 33 25.3-16.2z"/><path class="st529" d="M458.5 265.5l-27.8 27.2 37.5-2z"/><path class="st13" d="M433.9 325.7l29.8 8.4 5.2-18.8z"/><path class="st885" d="M439.1 575.5l10.3 26.8 11.1-6.8z"/><path class="st886" d="M428.1 475.2l15.5 23.9 17.5 2.6z"/><path class="st529" d="M450.1 444.7l-22 30.5 33 26.5z"/><path class="st271" d="M501.2 231.8l-42.7 33.7 57-11zm-69.2 7.8l14.9 11.6 14.2-48.5z"/><path class="st271" d="M436.5 183.9l-4.5 55.7 29.1-36.9z"/><path class="st887" d="M425.5 373.6l10.4 53.7 25.9-18.8z"/><path class="st888" d="M435.9 427.3l16.3 11 9.6-29.8z"/><path class="st889" d="M452.2 438.3l-2.1 6.4 12.3-9.7z"/><path class="st271" d="M492.2 219.5l-31.1-16.8 31.9 19.7z"/><path class="st13" d="M435.9 308.8l-2 16.9 35-10.4z"/><path class="st890" d="M461.8 408.5l.6 26.5 9.7-4.5z"/><path class="st891" d="M434.6 630.5l2.6 9.7 34.3-14.2z"/><path class="st13" d="M449.4 602.3l-14.8 28.2 32.8-19.9z"/><path class="st297" d="M493 222.4l-34.5 43.1 42.7-33.7z"/><path class="st271" d="M448.8 180l12.3 22.7 7.1-9.7z"/><path class="st802" d="M430.7 292.7l5.2 16.1 32.3-18.1z"/><path class="st892" d="M480.5 379.4l-18.7 29.1 23.3 11.7z"/><path class="st68" d="M468.2 290.7l-32.3 18.1 33 6.5z"/><path class="st893" d="M425.5 373.6l36.3 34.9 18.7-29.1z"/><path class="st894" d="M460.5 576.8v18.7l12.9-1.9z"/><path class="st895" d="M460.5 595.5l6.9 15.1 6-17z"/><path class="st13" d="M450.1 444.7l11 57 15.5-61.5z"/><path class="st896" d="M462.4 435l-12.3 9.7 26.5-4.5z"/><path class="st313" d="M482.5 606.6l-9.1 4.7 9.7 5z"/><path class="st897" d="M473.4 611.3l-1.9 14.7 11.6-9.7z"/><path class="st898" d="M463.7 334.1l-11 16.8 27.8 28.5z"/><path class="st746" d="M452.7 350.9l-27.2 22.7 55 5.8z"/><path class="st173" d="M473.4 593.6v17.7l9.1-4.7z"/><path class="st899" d="M461.8 408.5l10.3 22 13-10.3z"/><path class="st752" d="M461.1 202.7l-14.2 48.5 46.1-28.8z"/><path class="st811" d="M446.9 251.2l11.6 14.3 34.5-43.1z"/><path class="st271" d="M468.2 193l-7.1 9.7 31.1 16.8z"/><path class="st13" d="M449.1 92l-.3 88 46-75.7z"/><path class="st900" d="M476.4 92h-27.3l56.4 15.2-13.3-7.1z"/><path class="st901" d="M468.9 315.3l32.3 31.1 6.5-27.9zm-.7-24.6l.7 24.6 38.8 3.2z"/><path class="st902" d="M468.9 315.3l-5.2 18.8 37.5 12.3z"/><path class="st903" d="M463.7 334.1l16.8 45.3 20.7-33z"/><path class="st13" d="M494.8 104.3l-46 75.7 58.9-68.6zM468.2 193l24 26.5 18.1-12.9z"/><path class="st904" d="M480.5 379.4l4.6 40.8 19.4-24z"/><path class="st13" d="M476.6 440.2l-15.5 61.5 46-49.2z"/><path class="st529" d="M461.1 501.7l29.8 7.1 16.2-56.3z"/><path class="st13" d="M468.2 193l42.1 13.6 10.4-14.9z"/><path class="st905" d="M505.8 363.2l-1.3 33 19.4-31.7z"/><path class="st906" d="M492.2 219.5l.8 2.9 17.3-15.8z"/><path class="st271" d="M468.2 290.7l45.3-1.9 2-34.3z"/><path class="st752" d="M458.5 265.5l9.7 25.2 47.3-36.2z"/><path class="st13" d="M518.1 464.2l-27.2 44.6 34.3-35.6z"/><path class="st271" d="M468.2 290.7l39.5 27.8 5.8-29.7z"/><path class="st13" d="M507.1 452.5l-16.2 56.3 27.2-44.6z"/><path class="st271" d="M527.1 288.1l-19.4 30.4 23.3 5.2z"/><path class="st13" d="M507.7 111.4L448.8 180l76.5-42.6zM448.8 180l19.4 13 57.1-55.6z"/><path class="st907" d="M501.2 346.4l4.6 16.8 18.1 1.3z"/><path class="st271" d="M501.2 346.4l22.7 18.1 7.1-40.8z"/><path class="st13" d="M468.2 193l52.5-1.3 5.8-14.2z"/><path class="st271" d="M507.7 318.5l-6.5 27.9 29.8-22.7z"/><path class="st908" d="M518.7 508.8l9.1-12.3.6-10.3z"/><path class="st13" d="M525.3 137.4L468.2 193l58.3-51.8z"/><path class="st752" d="M513.5 288.8l-5.8 29.7 19.4-30.4z"/><path class="st752" d="M515.5 254.5l-2 34.3 13.6-.7z"/><path class="st34" d="M525.2 473.2l-34.3 35.6 37.5-22.6z"/><path class="st8" d="M490.9 508.8h27.8l9.7-22.6z"/><path class="st34" d="M526.5 141.2L468.2 193l60.3-44.1z"/><path class="st13" d="M468.2 193l58.3-15.5 2.7-24.6z"/><path class="st13" d="M528.5 148.9L468.2 193l61-40.1z"/><path class="st900" d="M509.9 114.7l-4.4-7.5-14.6-3.9-6.5 3.9z"/></svg>