<svg id="Layer_1" xmlns="http://www.w3.org/2000/svg" viewBox="0 0 669.4 818"><style>.st0{fill:#fdfceb}.st1{fill:#3d2f25}.st2{fill:#b59e7d}.st3{fill:#8a765d}.st4{fill:#907663}.st5{fill:#7a6150}.st6{fill:#55432f}.st7{fill:#62512b}.st8{fill:#371e0f}.st9{fill:#b29e64}.st10{fill:#756646}.st11{fill:#4f442c}.st12{fill:#a38c7f}.st13{fill:#7e6856}.st14{fill:#422d12}.st15{fill:#e6d8b1}.st16{fill:#523e23}.st17{fill:#beaf76}.st18{fill:#decf98}.st19{fill:#b8a670}.st20{fill:#040000}.st21{fill:#312a24}.st22{fill:#cec18e}.st23{fill:#100d06}.st24{fill:#bba57d}.st25{fill:#3d2113}.st26{fill:#644037}.st27{fill:#433222}.st28{fill:#8e7568}.st29{fill:#1c1206}.st30{fill:#160e07}.st31{fill:#c7a588}.st32{fill:#2f2522}.st33{fill:#3f352c}.st34{fill:#e1d19f}.st35{fill:#716339}.st36{fill:#836a59}.st37{fill:#6f5341}.st38{fill:#0b0706}.st39{fill:#433014}.st40{fill:#3a3024}.st41{fill:#615549}.st42{fill:#5f4d2c}.st43{fill:#5f4a32}.st44{fill:#6e5c49}.st45{fill:#b2a575}.st46{fill:#babbba}.st47{fill:#453c33}.st48{fill:#525151}.st49{fill:#8a7757}.st50{fill:#231915}.st51{fill:#2d1f0b}.st52{fill:#080203}.st53{fill:#544538}.st54{fill:#917d74}.st55{fill:#9d8f87}.st56{fill:#1d1306}.st57{fill:#4e3a2f}.st58{fill:#170e05}.st59{fill:#e4d0ad}.st60{fill:#0c0205}.st61{fill:#231104}.st62{fill:#745951}.st63{fill:#171106}.st64{fill:#5a4031}.st65{fill:#1a160b}.st66{fill:#705a4a}.st67{fill:#b4a680}.st68{fill:#5e605f}.st69{fill:#797571}.st70{fill:#1c1707}.st71{fill:#837757}.st72{fill:#060102}.st73{fill:#160505}.st74{fill:#3d2414}.st75{fill:#896e58}.st76{fill:#31240d}.st77{fill:#2c190d}.st78{fill:#33251a}.st79{fill:#160b09}.st80{fill:#080505}.st81{fill:#1f1209}.st82{fill:#866851}.st83{fill:#40362d}.st84{fill:#63564e}.st85{fill:#0d0305}.st86{fill:#202322}.st87{fill:#191411}.st88{fill:#1b1817}.st89{fill:#0a0304}.st90{fill:#050000}.st91{fill:#939496}.st92{fill:#271f17}.st93{fill:#402017}.st94{fill:#422f1e}.st95{fill:#513b24}.st96{fill:#30240d}.st97{fill:#140f08}.st98{fill:#130806}.st99{fill:#5a462b}.st100{fill:#050101}.st101{fill:#595035}.st102{fill:#070303}.st103{fill:#755a49}.st104{fill:#bebdbd}.st105{fill:#0a0504}.st106{fill:#503e26}.st107{fill:#3d271b}.st108{fill:#3a2c12}.st109{fill:#433a2b}.st110{fill:#78624b}.st111{fill:#1c1006}.st112{fill:#b4a685}.st113{fill:#81674f}.st114{fill:#f2e2b5}.st115{fill:#b8aa86}.st116{fill:#140d05}.st117{fill:#2b2218}.st118{fill:#080102}.st119{fill:#6b5625}.st120{fill:#45342a}.st121{fill:#cebc9e}.st122{fill:#6d5e40}.st123{fill:#9a837b}.st124{fill:#edd3b6}.st125{fill:#493029}.st126{fill:#604c21}.st127{fill:#95814f}.st128{fill:#ebccb5}.st129{fill:#4a3d44}.st130{fill:#58461f}.st131{fill:#c8c2b4}.st132{fill:#a79a80}.st133{fill:#938582}.st134{fill:#fffffc}.st135{fill:#45291a}.st136{fill:#110504}.st137{fill:#8e785a}.st138{fill:#746251}.st139{fill:#483524}.st140{fill:#eacea7}.st141{fill:#090404}.st142{fill:#0e0504}.st143{fill:#35210d}.st144{fill:#392c24}.st145{fill:#180804}.st146{fill:#806e4b}.st147{fill:#4f3a27}.st148{fill:#3c2a1b}.st149{fill:#6e6367}.st150{fill:#806052}.st151{fill:#bca18d}.st152{fill:#3b291f}.st153{fill:#2b160e}.st154{fill:#493627}.st155{fill:#4b3832}.st156{fill:#291a12}.st157{fill:#968363}.st158{fill:#574921}.st159{fill:#b0925d}.st160{fill:#c5af99}.st161{fill:#ead3c7}.st162{fill:#d5b5a6}.st163{fill:#785131}.st164{fill:#edd7b3}.st165{fill:#857970}.st166{fill:#b1947a}.st167{fill:#a18e81}.st168{fill:#6e6458}.st169{fill:#5e503d}.st170{fill:#352c1d}.st171{fill:#9a7e71}.st172{fill:#564742}.st173{fill:#2b1e0a}.st174{fill:#3e2518}.st175{fill:#b8977d}.st176{fill:#fffffe}.st177{fill:#a68a7b}.st178{fill:#261807}.st179{fill:#2e1506}.st180{fill:#3c2b11}.st181{fill:#e6d4c8}.st182{fill:#644337}.st183{fill:#504026}.st184{fill:#643318}.st185{fill:#634139}.st186{fill:#070001}.st187{fill:#d9cbc1}.st188{fill:#f1d5b9}.st189{fill:#5f3d1d}.st190{fill:#685b41}.st191{fill:#362810}.st192{fill:#5f4035}.st193{fill:#e1d0b4}.st194{fill:#765954}.st195{fill:#735a55}.st196{fill:#c79f87}.st197{fill:#311c08}.st198{fill:#d3aa8b}.st199{fill:#ae948b}.st200{fill:#ac8f84}.st201{fill:#694840}.st202{fill:#795e41}.st203{fill:#866248}.st204{fill:#55401c}.st205{fill:#806c5c}.st206{fill:#e7d9be}.st207{fill:#644b32}.st208{fill:#413120}.st209{fill:#674436}.st210{fill:#4f2619}.st211{fill:#2c1108}.st212{fill:#7f634b}.st213{fill:#706538}.st214{fill:#6d5827}.st215{fill:#fceec0}.st216{fill:#bca694}.st217{fill:#a38479}.st218{fill:#5d5325}.st219{fill:#91674e}.st220{fill:#bca746}.st221{fill:#514235}.st222{fill:#4f3528}.st223{fill:#6e4f42}.st224{fill:#060001}.st225{fill:#5e4528}.st226{fill:#6b562f}.st227{fill:#7d6750}.st228{fill:#341613}.st229{fill:#583e2d}.st230{fill:#482a1f}.st231{fill:#846e54}.st232{fill:#402518}.st233{fill:#150305}.st234{fill:#837d75}.st235{fill:#bd977e}.st236{fill:#966f56}.st237{fill:#170f05}.st238{fill:#ad9376}.st239{fill:#583819}.st240{fill:#a58469}.st241{fill:#2a2016}.st242{fill:#fcf4c8}.st243{fill:#270e09}.st244{fill:#cdba7a}.st245{fill:#ba9880}.st246{fill:#5f4431}.st247{fill:#553424}.st248{fill:#240905}.st249{fill:#b9947e}.st250{fill:#452b24}.st251{fill:#120a07}.st252{fill:#72554b}.st253{fill:#978c52}.st254{fill:#c2a888}.st255{fill:#fef9f3}.st256{fill:#070404}.st257{fill:#705638}.st258{fill:#654f30}.st259{fill:#271a12}.st260{fill:#3e1f0b}.st261{fill:#906950}.st262{fill:#8f7458}.st263{fill:#734a37}.st264{fill:#aba284}.st265{fill:#50411d}.st266{fill:#1f1009}.st267{fill:#b0836a}.st268{fill:#2d2220}.st269{fill:#180a05}.st270{fill:#2b1d09}.st271{fill:#d1ba95}.st272{fill:#4a3718}.st273{fill:#7b6052}.st274{fill:#c8ad87}.st275{fill:#2e1606}.st276{fill:#3f2e13}.st277{fill:#2e1a11}.st278{fill:#0f0306}.st279{fill:#5c412b}.st280{fill:#56412c}.st281{fill:#cfbf84}.st282{fill:#593d31}.st283{fill:#2c2411}.st284{fill:#513619}.st285{fill:#372810}.st286{fill:#d5bd9a}.st287{fill:#221a0d}.st288{fill:#503119}.st289{fill:#483819}.st290{fill:#c1a877}.st291{fill:#b49b7e}.st292{fill:#3e3820}.st293{fill:#52411d}.st294{fill:#735d26}.st295{fill:#332415}.st296{fill:#0a0704}.st297{fill:#774f3c}.st298{fill:#0d0205}.st299{fill:#8b622f}.st300{fill:#95836c}.st301{fill:#807050}.st302{fill:#190e06}.st303{fill:#fff}.st304{fill:#0e0405}.st305{fill:#f8e4c0}.st306{fill:#7a5a3e}.st307{fill:#846e43}.st308{fill:#efe1c1}.st309{fill:#8d6844}.st310{fill:#281a08}.st311{fill:#988774}.st312{fill:#2d1808}.st313{fill:#b59f76}.st314{fill:#1e1409}.st315{fill:#897365}.st316{fill:#1c0604}.st317{fill:#0e0205}.st318{fill:#2d1e09}.st319{fill:#887357}.st320{fill:#eacd8e}.st321{fill:#484429}.st322{fill:#7f704c}.st323{fill:#ac958b}.st324{fill:#675236}.st325{fill:#635035}.st326{fill:#4d3a19}.st327{fill:#c7bbab}.st328{fill:#675739}.st329{fill:#3c3322}.st330{fill:#c5c5c3}.st331{fill:#442e21}.st332{fill:#bab47c}.st333{fill:#795c39}.st334{fill:#6a5b42}.st335{fill:#785334}.st336{fill:#95874c}.st337{fill:#7b5c50}.st338{fill:#655424}.st339{fill:#b2aa6e}.st340{fill:#927065}.st341{fill:#a6957d}.st342{fill:#a2775b}.st343{fill:#55331d}.st344{fill:#060202}.st345{fill:#a4995d}.st346{fill:#a28965}.st347{fill:#cdbe8c}.st348{fill:#bdaf84}.st349{fill:#73694d}.st350{fill:#ae9373}.st351{fill:#2b221b}.st352{fill:#766b4c}.st353{fill:#807646}.st354{fill:#3d3b2e}.st355{fill:#4f341f}.st356{fill:#482e16}.st357{fill:#4d3a29}.st358{fill:#0e0305}.st359{fill:#9d8c72}.st360{fill:#0c0305}.st361{fill:#4e3115}.st362{fill:#70564b}.st363{fill:#6e5444}.st364{fill:#0d0504}.st365{fill:#201005}.st366{fill:#4f473c}.st367{fill:#846757}.st368{fill:#43260f}.st369{fill:#543a1d}.st370{fill:#d9c08e}.st371{fill:#f4dc95}.st372{fill:#5b5023}.st373{fill:#1a0904}.st374{fill:#92633d}.st375{fill:#907661}.st376{fill:#80634c}.st377{fill:#604436}.st378{fill:#c8be8a}.st379{fill:#a1955c}.st380{fill:#a5857e}.st381{fill:#543318}.st382{fill:#48331e}.st383{fill:#4d3b1a}.st384{fill:#c5af63}.st385{fill:#1a1708}.st386{fill:#fcf0c0}.st387{fill:#090403}.st388{fill:#cdc391}.st389{fill:#916140}.st390{fill:#270c05}.st391{fill:#b99b84}.st392{fill:#827541}.st393{fill:#b4a386}.st394{fill:#ad7a57}.st395{fill:#d5cb96}.st396{fill:#fdf8d5}.st397{fill:#f7eccf}.st398{fill:#797149}.st399{fill:#52421d}.st400{fill:#95756c}.st401{fill:#937468}.st402{fill:#956845}.st403{fill:#3a3518}.st404{fill:#675b29}.st405{fill:#040102}.st406{fill:#ded39f}.st407{fill:#452a11}.st408{fill:#050001}.st409{fill:#090506}.st410{fill:#b9b7b8}.st411{fill:#b78b6d}.st412{fill:#afa768}.st413{fill:#553a2e}.st414{fill:#b8b075}.st415{fill:#d7bda4}.st416{fill:#735344}.st417{fill:#7e5c35}.st418{fill:#7a5e54}.st419{fill:#f3d7a1}.st420{fill:#bda79f}.st421{fill:#d1c88d}.st422{fill:#8b8047}.st423{fill:#22180c}.st424{fill:#d3b67d}.st425{fill:#755a35}.st426{fill:#636162}.st427{fill:#383518}.st428{fill:#c9ae99}.st429{fill:#c8be8b}.st430{fill:#d1c88e}.st431{fill:#937166}.st432{fill:#331c0f}.st433{fill:#c8bb85}.st434{fill:#aea365}.st435{fill:#0b0204}.st436{fill:#b07d5e}.st437{fill:#2a1205}.st438{fill:#ad7a59}.st439{fill:#b7ad6f}.st440{fill:#986545}.st441{fill:#c1906f}.st442{fill:#f2e6be}.st443{fill:#b6aa98}.st444{fill:#d1bb93}.st445{fill:#e9d8c1}.st446{fill:#775c2c}.st447{fill:#cc9a75}.st448{fill:#d5cc95}.st449{fill:#7f7360}.st450{fill:#9d8971}.st451{fill:#74502c}.st452{fill:#4c2b12}.st453{fill:#815336}.st454{fill:#605731}.st455{fill:#ada465}.st456{fill:#635b2d}.st457{fill:#786d40}.st458{fill:#ede3b0}.st459{fill:#a59b78}.st460{fill:#805c53}.st461{fill:#221107}.st462{fill:#b0805c}.st463{fill:#d6ca98}.st464{fill:#beb376}.st465{fill:#bda480}.st466{fill:#482d13}.st467{fill:#6e5a50}.st468{fill:#bbac97}.st469{fill:#fdfce3}.st470{fill:#120f06}.st471{fill:#ddd39d}.st472{fill:#2f1a0b}.st473{fill:#9b6b48}.st474{fill:#c0a180}.st475{fill:#e9ddab}.st476{fill:#fdf9dd}.st477{fill:#070403}.st478{fill:#694321}.st479{fill:#503417}.st480{fill:#a6744f}.st481{fill:#bd8669}.st482{fill:#ca9872}.st483{fill:#503d1d}.st484{fill:#9c8270}.st485{fill:#fbf9d1}.st486{fill:#200604}.st487{fill:#b2a76b}.st488{fill:#e4ddad}.st489{fill:#bcb278}.st490{fill:#c5ba82}.st491{fill:#b29d82}.st492{fill:#d1b39f}.st493{fill:#ca9673}.st494{fill:#432d13}.st495{fill:#2b2622}.st496{fill:#544c24}.st497{fill:#a19661}.st498{fill:#f9f0c0}.st499{fill:#574e31}.st500{fill:#070202}.st501{fill:#b38560}.st502{fill:#887946}.st503{fill:#714d30}.st504{fill:#c3af8d}.st505{fill:#b9ad73}.st506{fill:#704626}.st507{fill:#635b35}.st508{fill:#5e351d}.st509{fill:#eee8bc}.st510{fill:#d5c6a2}.st511{fill:#9b876a}.st512{fill:#8f6761}.st513{fill:#1b1707}.st514{fill:#d1b78b}.st515{fill:#5a552e}.st516{fill:#af9763}.st517{fill:#988272}.st518{fill:#d8ab86}.st519{fill:#dbac85}.st520{fill:#807340}.st521{fill:#745e3f}.st522{fill:#3c210c}.st523{fill:#cac086}.st524{fill:#120405}.st525{fill:#7b522f}.st526{fill:#926440}.st527{fill:#4c2711}.st528{fill:#b59783}.st529{fill:#090103}.st530{fill:#614c35}.st531{fill:#685649}.st532{fill:#8c5f3e}.st533{fill:#d1c798}.st534{fill:#886a4e}.st535{fill:#543117}.st536{fill:#b88962}.st537{fill:#fdfadd}.st538{fill:#f8e3b5}.st539{fill:#9f8355}.st540{fill:#d2b2a3}.st541{fill:#baaf7b}.st542{fill:#060201}.st543{fill:#fdf2d5}.st544{fill:#a3867e}.st545{fill:#ccc18d}.st546{fill:#d7c8af}.st547{fill:#c5936e}.st548{fill:#9d7f64}.st549{fill:#7b634a}.st550{fill:#c18f6a}.st551{fill:#251207}.st552{fill:#524e26}.st553{fill:#311a07}.st554{fill:#c4ba84}.st555{fill:#ab8c66}.st556{fill:#5c4b37}.st557{fill:#30261c}.st558{fill:#bf8d6a}.st559{fill:#a6765c}.st560{fill:#bbb16f}.st561{fill:#887b4b}.st562{fill:#f5e2c1}.st563{fill:#af926f}.st564{fill:#3d230e}.st565{fill:#331a07}.st566{fill:#090303}.st567{fill:#fcfcef}.st568{fill:#462b18}.st569{fill:#d8c3b6}.st570{fill:#c79473}.st571{fill:#bc8b67}.st572{fill:#7e563a}.st573{fill:#fffef4}.st574{fill:#fdf4d7}.st575{fill:#130307}.st576{fill:#72482d}.st577{fill:#5a321b}.st578{fill:#6a4520}.st579{fill:#56351a}.st580{fill:#6a4424}.st581{fill:#bcad76}.st582{fill:#d1a27b}.st583{fill:#cd9d79}.st584{fill:#c1b77e}.st585{fill:#c8c185}.st586{fill:#92785e}.st587{fill:#84784d}.st588{fill:#613822}.st589{fill:#5e4833}.st590{fill:#070102}.st591{fill:#070203}.st592{fill:#5a4d3a}.st593{fill:#9b766e}.st594{fill:#6d5141}.st595{fill:#c7956f}.st596{fill:#b17f5b}.st597{fill:#bb978a}.st598{fill:#988b55}.st599{fill:#0e0604}.st600{fill:#ad7e59}.st601{fill:#c59670}.st602{fill:#968956}.st603{fill:#705349}.st604{fill:#967d6e}.st605{fill:#bdb37a}.st606{fill:#dbcbbd}.st607{fill:#c5ad8c}.st608{fill:#a48d6c}.st609{fill:#40220d}.st610{fill:#bc9988}.st611{fill:#a7806a}.st612{fill:#c29e8e}.st613{fill:#e1d7a3}.st614{fill:#83714e}.st615{fill:#7a5237}.st616{fill:#764e38}.st617{fill:#a09754}.st618{fill:#3c200b}.st619{fill:#b9ad75}.st620{fill:#210505}.st621{fill:#9a8267}.st622{fill:#c6bc86}.st623{fill:#d4cb8f}.st624{fill:#503021}.st625{fill:#54351c}.st626{fill:#8a695d}.st627{fill:#3e391a}.st628{fill:#422710}.st629{fill:#726639}.st630{fill:#d2c98d}.st631{fill:#d9cf95}.st632{fill:#bdb27e}.st633{fill:#fdfce2}.st634{fill:#d5cb93}.st635{fill:#7b5939}.st636{fill:#381e0a}.st637{fill:#331a0a}.st638{fill:#746056}.st639{fill:#a7795c}.st640{fill:#2b1205}.st641{fill:#845d42}.st642{fill:#a0735b}.st643{fill:#dac296}.st644{fill:#d0b489}.st645{fill:#c9ad77}.st646{fill:#fbeec5}.st647{fill:#c9c295}.st648{fill:#8c7a50}.st649{fill:#796a38}.st650{fill:#5e542e}.st651{fill:#aba363}.st652{fill:#a19660}.st653{fill:#917064}.st654{fill:#c0b67c}.st655{fill:#6d5246}.st656{fill:#bcb277}.st657{fill:#442a19}.st658{fill:#190d05}.st659{fill:#070506}.st660{fill:#896e4a}.st661{fill:#927b72}.st662{fill:#2d1d17}.st663{fill:#ba9790}.st664{fill:#6b5f32}.st665{fill:#8c655f}.st666{fill:#8a6a5b}.st667{fill:#dad097}.st668{fill:#463931}.st669{fill:#c0a394}.st670{fill:#6c5145}.st671{fill:#6c4f35}.st672{fill:#f9f3c8}.st673{fill:#766a3f}.st674{fill:#c49a82}.st675{fill:#0a0204}.st676{fill:#bfb57b}.st677{fill:#312c12}.st678{fill:#ccb38e}.st679{fill:#e1ccb1}.st680{fill:#a89170}.st681{fill:#bcac9f}.st682{fill:#fffef6}.st683{fill:#c6bd82}.st684{fill:#b6a96c}.st685{fill:#ccc288}.st686{fill:#f3ecbf}.st687{fill:#d1c595}.st688{fill:#b5ae72}.st689{fill:#795b4e}.st690{fill:#ded6a1}.st691{fill:#c3a097}.st692{fill:#654f44}.st693{fill:#8c8246}.st694{fill:#a69963}.st695{fill:#c29478}.st696{fill:#fef0e6}.st697{fill:#66623d}.st698{fill:#8a746c}.st699{fill:#bb8c6a}.st700{fill:#847946}.st701{fill:#93736a}.st702{fill:#c7b4ad}.st703{fill:#ba978f}.st704{fill:#7d5b4e}.st705{fill:#92705d}.st706{fill:#625f32}.st707{fill:#d1c693}.st708{fill:#100e05}.st709{fill:#c5ac94}.st710{fill:#201e09}.st711{fill:#2b201e}.st712{fill:#bf9f80}.st713{fill:#fcfcf4}.st714{fill:#785c4e}.st715{fill:#553d31}.st716{fill:#dcd39e}.st717{fill:#846f62}.st718{fill:#140405}.st719{fill:#c6a292}.st720{fill:#ddc0b8}.st721{fill:#a9887f}.st722{fill:#bda091}.st723{fill:#151307}.st724{fill:#4b322b}.st725{fill:#fffffa}.st726{fill:#a8a281}.st727{fill:#fffefd}.st728{fill:#837849}.st729{fill:#766c40}.st730{fill:#fefdef}.st731{fill:#9d935a}.st732{fill:#fffff8}.st733{fill:#e9dabd}.st734{fill:#361f16}.st735{fill:#836451}.st736{fill:#5e4338}.st737{fill:#988c5b}.st738{fill:#605527}.st739{fill:#bf9c87}.st740{fill:#3d2216}.st741{fill:#966f50}.st742{fill:#a28761}.st743{fill:#f3e4d0}.st744{fill:#3f3b1b}.st745{fill:#6e6a3c}.st746{fill:#86794a}.st747{fill:#666034}.st748{fill:#322f14}.st749{fill:#9f7c74}.st750{fill:#544c3d}.st751{fill:#6d6843}.st752{fill:#694c3b}.st753{fill:#bdb47f}.st754{fill:#5d562c}.st755{fill:#1e1c09}.st756{fill:#b9af7c}.st757{fill:#7f794e}.st758{fill:#9f965c}.st759{fill:#b5ad6e}.st760{fill:#e1c0a4}.st761{fill:#aea56a}.st762{fill:#c0b779}.st763{fill:#f5f5de}.st764{fill:#2e2422}.st765{fill:#eae4b1}.st766{fill:#bea78f}</style><path class="st0" d="M639.7 296.5l13.4 20.2 4.7 6.1z"/><path class="st1" d="M653.1 351l3.4 4.7 1.3-32.9z"/><path class="st2" d="M90.1 353l6.8 2.7 39-6.7z"/><path class="st3" d="M65.2 346.3L0 382l70.6-29z"/><path class="st4" d="M65.2 346.3l5.4 6.7h19.5z"/><path class="st5" d="M90.1 353H70.6l26.3 2.7z"/><path class="st6" d="M70.6 353L0 382l96.9-26.3z"/><path class="st7" d="M135.9 349l-39 6.7 60.5-1.3z"/><path class="st8" d="M90.1 353l45.8-4 31.6-33z"/><path class="st9" d="M206.5 352.4l-9.4 6 12.1 3.4z"/><path class="st10" d="M167.5 316l-10.1 38.4 21.5-4.7z"/><path class="st11" d="M216.6 358.4l30.3 20.9 2-62.6z"/><path class="st12" d="M339.7 258.2l.6 7.4 12.8-10.8z"/><path class="st13" d="M135.9 349l21.5 5.4 10.1-38.4z"/><path class="st14" d="M65.2 346.3l24.9 6.7 77.4-37z"/><path class="st15" d="M178.9 349.7l18.2 8.7 9.4-6z"/><path class="st16" d="M167.5 316l11.4 33.7 27.6 2.7z"/><path class="st17" d="M178.9 349.7l-21.5 4.7 39.7 4z"/><path class="st18" d="M209.2 361.8l2 4.7 5.4-8.1z"/><path class="st19" d="M209.2 361.8l-12.1-3.4 14.1 8.1z"/><path class="st20" d="M284.5 503.7l1.4 11.4.6-12.7z"/><path class="st21" d="M211.9 688.7l.6 12.1v-4z"/><path class="st22" d="M206.5 352.4l2.7 9.4 7.4-3.4z"/><path class="st23" d="M284.5 492.3l-34.3 4 34.3 7.4z"/><path class="st24" d="M206.5 352.4l10.1 6 32.3-41.7z"/><path class="st25" d="M225.3 680.6l.7 12.8 10.8-13.5z"/><path class="st26" d="M649.1 346.3l4 4.7 4.7-28.2z"/><path class="st27" d="M240.8 563.6l-2 34.3 14.8-.7z"/><path class="st28" d="M211.9 688.7l5.4-6.7 6-12.2z"/><path class="st29" d="M239.5 529.9h-7.4l8.7 33.7z"/><path class="st30" d="M225.3 680.6l-8 1.4 8.7 11.4z"/><path class="st31" d="M223.3 669.8l-6 12.2 8-1.4z"/><path class="st32" d="M211.9 688.7l.6 8.1 13.5-3.4z"/><path class="st33" d="M217.3 682l-5.4 6.7 14.1 4.7z"/><path class="st34" d="M212.5 696.8v4l13.5-7.4z"/><path class="st35" d="M225.3 466l6.8 63.9 1.3-21.5z"/><path class="st36" d="M235.4 640.3l10.8 28.2 2.7-24.2z"/><path class="st20" d="M284.5 492.3v11.4l2-1.3z"/><path class="st37" d="M223.3 669.8l2 10.8 11.5-.7z"/><path class="st38" d="M266.4 567.6l-12.8 29.6 19.5-16.8z"/><path class="st39" d="M248.9 644.3l-2.7 24.2 18.8-16.1z"/><path class="st40" d="M233.4 508.4l-1.3 21.5h7.4z"/><path class="st41" d="M167.5 316l39 36.4 42.4-35.7z"/><path class="st42" d="M373.3 509.8l-11.4 48.4 26.9 7.4z"/><path class="st43" d="M235.4 640.3l-12.1 29.5 22.9-1.3z"/><path class="st44" d="M223.3 669.8l13.5 10.1 9.4-11.4z"/><path class="st45" d="M216.6 358.4l-5.4 8.1 35.7 12.8z"/><path class="st46" d="M257.6 680.6l-20.8-.7 22.2 14.2z"/><path class="st47" d="M256.9 483.5l-6.7 12.8 34.3-4z"/><path class="st48" d="M246.2 668.5l-9.4 11.4 10.7-5.3z"/><path class="st49" d="M254.3 464l-29 2 31.6 17.5z"/><path class="st50" d="M298 676.6l-1.4 9.4h6.1z"/><path class="st51" d="M225.3 466l24.9 30.3 6.7-12.8z"/><path class="st52" d="M239.5 529.9l12.7 28.3 3.4-32.3z"/><path class="st53" d="M225.3 466l8.1 42.4 16.8-12.1z"/><path class="st54" d="M235.4 640.3l13.5 4 4.7-47.1z"/><path class="st55" d="M238.8 597.9l-3.4 42.4 18.2-43.1z"/><path class="st56" d="M250.2 496.3l-16.8 12.1 18.2 12.1z"/><path class="st57" d="M233.4 508.4l6.1 21.5 12.1-9.4z"/><path class="st58" d="M239.5 529.9l1.3 33.7 11.4-5.4z"/><path class="st59" d="M248.9 316.7l-2 62.6 44.3-35z"/><path class="st60" d="M229.4 433.8l-4.1 32.2 29-2z"/><path class="st35" d="M229.4 433.8l24.9 30.2 1.3-30.2z"/><path class="st61" d="M238.1 402.8l-8.7 31h26.2z"/><path class="st62" d="M269.7 633.5l-4.7 18.9 10.8-16.2z"/><path class="st63" d="M251.6 520.5l-12.1 9.4 16.1-4z"/><path class="st64" d="M273.8 671.2l16.8 6.7 3.3-10.1z"/><path class="st65" d="M238.1 402.8l17.5 31 7.4-44.4z"/><path class="st66" d="M246.2 668.5l1.3 6.1 10.1 6z"/><path class="st67" d="M246.9 379.3l-8.8 23.5 24.9-13.4z"/><path class="st68" d="M247.5 674.6l-10.7 5.3 20.8.7z"/><path class="st69" d="M308.7 682l-6 4 6.7 3.4z"/><path class="st70" d="M281.8 474.8l-24.9 8.7 27.6 8.8z"/><path class="st71" d="M297.3 507.1l8.1 22.2 4-22.9z"/><path class="st72" d="M252.2 558.2l-11.4 5.4 25.6 4z"/><path class="st20" d="M240.8 563.6l12.8 33.6 12.8-29.6z"/><path class="st73" d="M253.6 597.2l16.1 36.3 2-23.5z"/><path class="st74" d="M246.2 668.5l11.4 12.1 10.1-3.4z"/><path class="st75" d="M265 652.4l-18.8 16.1 21.5 8.7z"/><path class="st76" d="M255.6 433.8l-1.3 30.2 24.8-35.6z"/><path class="st77" d="M248.9 644.3l16.1 8.1 4.7-18.9z"/><path class="st78" d="M315.5 623.4l5.3 2.1.7-6.1z"/><path class="st79" d="M253.6 597.2l-4.7 47.1 20.8-10.8z"/><path class="st80" d="M266.4 567.6l6.7 12.8 6.7-33.6z"/><path class="st81" d="M317.5 618.1l-2 5.3 6-4z"/><path class="st82" d="M267.7 677.2l-10.1 3.4 16.2 10.1z"/><path class="st83" d="M257.6 680.6l1.4 13.5 14.8-3.4z"/><path class="st84" d="M265 652.4l2.7 24.8 6.1-6z"/><path class="st85" d="M273.1 580.4l-19.5 16.8 21.5 4z"/><path class="st86" d="M273.8 671.2l-6.1 6 15.5 4.8z"/><path class="st87" d="M253.6 597.2l18.1 12.8 3.4-8.8z"/><path class="st88" d="M279.1 428.4L254.3 464l27.5 10.8z"/><path class="st89" d="M254.3 464l2.6 19.5 24.9-8.7z"/><path class="st90" d="M252.2 558.2l14.2 9.4 13.4-20.8z"/><path class="st20" d="M255.6 525.9l-3.4 32.3 27.6-11.4z"/><path class="st91" d="M267.7 677.2l6.1 13.5 9.4-8.7z"/><path class="st92" d="M255.6 525.9l24.2 20.9 2.7-18.9z"/><path class="st93" d="M265 652.4l8.8 18.8 7.4-27.6z"/><path class="st94" d="M275.8 636.2L265 652.4l16.2-8.8z"/><path class="st95" d="M281.2 643.6l-7.4 27.6 20.1-3.4z"/><path class="st96" d="M255.6 433.8l23.5-5.4 2.7-26.9z"/><path class="st97" d="M263 389.4l-7.4 44.4 26.2-32.3z"/><path class="st98" d="M302.7 686l4.7 10.1 2-6.7z"/><path class="st99" d="M291.2 344.3l-44.3 35 44.3-13.5z"/><path class="st100" d="M284.5 503.7l-32.9 16.8 34.3-5.4z"/><path class="st101" d="M298.6 501.7l-1.3 5.4 12.1-.7z"/><path class="st100" d="M271.7 610l-2 23.5h14.8z"/><path class="st102" d="M250.2 496.3l1.4 24.2 32.9-16.8z"/><path class="st103" d="M290.6 677.9l-7.4 4.1 13.4 4z"/><path class="st104" d="M283.2 682l-9.4 8.7 22.8-4.7z"/><path class="st105" d="M255.6 525.9l26.9 2 3.4-12.8z"/><path class="st72" d="M251.6 520.5l4 5.4 30.3-10.8z"/><path class="st106" d="M246.9 379.3l16.1 10.1 28.2-23.6z"/><path class="st107" d="M273.8 671.2l9.4 10.8 7.4-4.1z"/><path class="st108" d="M263 389.4l18.8 12.1 9.4-35.7z"/><path class="st109" d="M248.9 316.7l42.3 27.6 11.5-27.6z"/><path class="st110" d="M322.9 506.4l-5.4 34.3 27.6 18.8z"/><path class="st111" d="M314.1 552.8l18.8 23.6 12.2-16.9z"/><path class="st85" d="M290.6 677.9l6 8.1 1.4-9.4z"/><path class="st112" d="M279.1 428.4l2.7 46.4 18.9-36.3z"/><path class="st113" d="M293.9 667.8l-3.3 10.1 7.4-1.3z"/><path class="st114" d="M281.8 401.5l-2.7 26.9 21.6 10.1z"/><path class="st115" d="M284.5 492.3l2 10.1 12.1-.7z"/><path class="st116" d="M286.5 502.4l10.8 4.7 1.3-5.4z"/><path class="st117" d="M298 676.6l4.7 9.4 6-4z"/><path class="st118" d="M302.7 686h-6.1l10.8 10.1z"/><path class="st119" d="M315.5 494.3l59.8-13.5.7-12.1z"/><path class="st120" d="M378.7 693.4l-8.1 18.8h9.4z"/><path class="st121" d="M298.6 501.7l10.8 4.7 6.1-12.1z"/><path class="st122" d="M302.7 316.7l-11.5 27.6 25.6-12.1z"/><path class="st123" d="M293.9 667.8l4.1 8.8 10.7 5.4z"/><path class="st124" d="M343.7 406.2l-8.1-3.4 8.1 14.8z"/><path class="st125" d="M312.8 610l2.7 13.4 2-5.3z"/><path class="st126" d="M281.8 474.8l2.7 17.5 31 2z"/><path class="st127" d="M284.5 492.3l14.1 9.4 16.9-7.4z"/><path class="st128" d="M316.8 332.2l7.4 24.9 3.4-8.1z"/><path class="st129" d="M335.6 402.8l-34.9 35.7 43-20.9z"/><path class="st130" d="M300.7 438.5l-18.9 36.3 33.7 19.5z"/><path class="st131" d="M316.8 332.2l-25.6 12.1 33 12.8z"/><path class="st132" d="M305.4 529.3l12.1 11.4 5.4-34.3z"/><path class="st133" d="M291.2 344.3v21.5l33-8.7z"/><path class="st134" d="M343 251.5l5.4-13.5 1.4-8z"/><path class="st135" d="M315.5 623.4l-1.4 16.9 6.7-14.8z"/><path class="st136" d="M314.1 640.3h3.4l3.3-14.8z"/><path class="st20" d="M370.6 712.2l-6 15.5 15.4-15.5z"/><path class="st137" d="M315.5 494.3l-6.1 12.1h13.5z"/><path class="st138" d="M309.4 506.4l-4 22.9 17.5-22.9z"/><path class="st139" d="M315.5 582.4l14.8 8.8 2.6-14.8z"/><path class="st140" d="M330.9 377.3l-49.1 24.2 53.8 1.3z"/><path class="st141" d="M317.5 618.1l4 1.3 4-10.1z"/><path class="st142" d="M312.8 610l4.7 8.1 8-8.8z"/><path class="st143" d="M315.5 589.1l-2.7 20.9 12.7-.7z"/><path class="st144" d="M315.5 589.1l10 20.2 4.8-18.1z"/><path class="st145" d="M315.5 582.4v6.7l14.8 2.1z"/><path class="st146" d="M314.1 552.8l1.4 29.6 17.4-6z"/><path class="st147" d="M330.3 591.2l-4.8 18.1h8.8z"/><path class="st148" d="M334.3 609.3l-7.4 9.4 7.4 12.8z"/><path class="st149" d="M291.2 365.8l-9.4 35.7 49.1-24.2z"/><path class="st150" d="M324.2 357.1l-33 8.7 39.7 11.5z"/><path class="st151" d="M361.2 188.3l-4 12.7 26.9 12.1z"/><path class="st152" d="M359.9 358.4l-20.2 28.3 20.8 7.4z"/><path class="st153" d="M326.9 611.3v7.4l7.4-9.4z"/><path class="st154" d="M325.5 609.3l1.4 2 7.4-2z"/><path class="st155" d="M339.7 386.7l12.8 18.1 8-10.7z"/><path class="st156" d="M391.5 582.4l-6.1 26.9 20.2 2z"/><path class="st157" d="M281.8 401.5l18.9 37 34.9-35.7z"/><path class="st158" d="M317.5 540.7l-3.4 12.1 31 6.7z"/><path class="st159" d="M351.8 349l-20.9 28.3 29-18.9z"/><path class="st160" d="M343 251.5l4.7-2.7.7-10.8z"/><path class="st161" d="M316.8 332.2l10.8 16.8 10.7-18.8z"/><path class="st162" d="M341 298.6l33 42.3 13.4-37.6z"/><path class="st163" d="M365.2 273.7L341 298.6l46.4 4.7z"/><path class="st164" d="M341 278.4l-.7 14.8 1.4-10.8z"/><path class="st165" d="M330.9 377.3l4.7 25.5 4.1-16.1z"/><path class="st166" d="M347.7 248.8l-4.7 2.7 10.1 3.3z"/><path class="st167" d="M316.8 332.2l21.5-2 2.7-31.6z"/><path class="st168" d="M340.3 293.2l-37.6 23.5 38.3-18.1z"/><path class="st169" d="M330.9 377.3l8.8 9.4 20.2-28.3z"/><path class="st170" d="M302.7 316.7l14.1 15.5 24.2-33.6z"/><path class="st171" d="M343.7 406.2l8.1 10.1.7-11.5z"/><path class="st172" d="M339.7 386.7l-4.1 16.1 8.1 3.4z"/><path class="st173" d="M371.3 495l-48.4 11.4 50.4 3.4z"/><path class="st174" d="M339.7 386.7l4 19.5 8.8-1.4z"/><path class="st175" d="M343.7 406.2v11.4l8.1-1.3z"/><path class="st176" d="M363.2 724.3l1.4 3.4 6-15.5z"/><path class="st177" d="M327.6 349l-3.4 8.1 27.6-8.1z"/><path class="st178" d="M324.2 357.1l6.7 20.2 20.9-28.3z"/><path class="st179" d="M647.1 335.6l2 10.7 8.7-23.5z"/><path class="st180" d="M345.1 559.5l16.8-1.3 11.4-48.4z"/><path class="st181" d="M338.3 330.2L327.6 349h24.2z"/><path class="st182" d="M372 672.5l-6.1-.6 12.8 21.5z"/><path class="st183" d="M341 278.4l.7 4 23.5-8.7z"/><path class="st184" d="M348.4 238l-.7 10.8 5.4 6z"/><path class="st185" d="M365.9 671.9l4.7 40.3 8.1-18.8z"/><path class="st186" d="M387.4 232l5.4 7.4 4.7-10.8z"/><path class="st187" d="M343 251.5l-3.3 6.7 13.4-3.4z"/><path class="st188" d="M365.9 421l-22.2-3.4 32.3 51.1z"/><path class="st189" d="M341.7 282.4l-1.4 10.8 24.9-19.5z"/><path class="st190" d="M322.9 506.4l22.2 53.1 28.2-49.7z"/><path class="st191" d="M370.6 179.5l13.5 33.6 1.3-34.3z"/><path class="st192" d="M370.6 659.1l-4.7 12.8 6.1.6z"/><path class="st193" d="M315.5 494.3l7.4 12.1 48.4-11.4z"/><path class="st194" d="M382 684l-3.3 9.4 6.7 3.4z"/><path class="st195" d="M378.7 693.4l1.3 18.8 5.4-15.4z"/><path class="st103" d="M361.9 661.8l4 10.1 4.7-12.8z"/><path class="st196" d="M351.8 416.3l-8.1 1.3 22.2 3.4z"/><path class="st85" d="M340.3 265.6l.7 12.8 24.2-4.7z"/><path class="st197" d="M353.1 254.8l-12.8 10.8 24.9 8.1z"/><path class="st198" d="M340.3 293.2l.7 5.4 24.2-24.9z"/><path class="st199" d="M352.5 404.8l-.7 11.5 14.1 4.7z"/><path class="st200" d="M360.5 394.1l-8 10.7 13.4 16.2z"/><path class="st201" d="M361.2 645.6l.7 16.2 8.7-2.7z"/><path class="st202" d="M653.1 316.7l-6 18.9 10.7-12.8z"/><path class="st90" d="M394.2 243.4l2.6 4 4.1-6.7z"/><path class="st203" d="M396.8 400.1l11.5 22.2 11.4-36.3z"/><path class="st204" d="M382.7 256.9l-17.5 16.8 18.9-11.5z"/><path class="st205" d="M391.5 735.8l-8.8 4.7 9.4 12.8z"/><path class="st20" d="M392.8 239.4l-10.1 17.5 11.5-13.5z"/><path class="st206" d="M343.7 417.6l-43 20.9 75.3 30.2z"/><path class="st207" d="M353.1 254.8l12.1 18.9 17.5-16.8z"/><path class="st208" d="M387.4 352.4l-27.5 6 27.5 14.1z"/><path class="st209" d="M338.3 330.2l13.5 18.8 22.2-8.1z"/><path class="st210" d="M341 298.6l-2.7 31.6 35.7 10.7z"/><path class="st211" d="M382.7 740.5l2.7 16.8 6.7-4z"/><path class="st212" d="M351.8 349l8.1 9.4 14.1-17.5z"/><path class="st213" d="M443.9 383.3l-24.2 2.7 24.9 16.1z"/><path class="st214" d="M315.5 494.3l55.8.7 4-14.2z"/><path class="st215" d="M300.7 438.5l14.8 55.8 60.5-25.6z"/><path class="st216" d="M357.2 216.5l-7.4 13.5 29.6-9.5z"/><path class="st217" d="M406.9 741.8l-6 20.9 12.1 4z"/><path class="st218" d="M397.5 228.6l-4.7 10.8 8.1 1.3z"/><path class="st219" d="M360.5 394.1l25.6-4.7 1.3-16.9z"/><path class="st220" d="M392.8 239.4l1.4 4 6.7-2.7z"/><path class="st221" d="M385.4 636.9l16.2 7.4 4-33z"/><path class="st222" d="M361.9 558.2l6.7 37.7 20.2-30.3z"/><path class="st223" d="M372 672.5l6.7 20.9 3.3-9.4z"/><path class="st224" d="M359.9 358.4l.6 35.7 26.9-21.6z"/><path class="st20" d="M384.1 213.1l-4.7 7.4 8 11.5z"/><path class="st225" d="M357.2 216.5l22.2 4 4.7-7.4z"/><path class="st60" d="M357.2 201v15.5l26.9-3.4z"/><path class="st226" d="M370.6 179.5l-9.4 8.8 22.9 24.8z"/><path class="st227" d="M385.4 696.8l9.4 9.4 5.4-30.3z"/><path class="st228" d="M361.2 645.6l24.2-8.7v-27.6z"/><path class="st229" d="M361.2 645.6l9.4 13.5 14.8-22.2z"/><path class="st230" d="M382 684l3.4 12.8 14.8-20.9z"/><path class="st231" d="M374 340.9l-14.1 17.5 27.5-6z"/><path class="st232" d="M368.6 595.9l-7.4 49.7 24.2-36.3z"/><path class="st233" d="M385.4 609.3v27.6l20.2-25.6z"/><path class="st234" d="M400.9 762.7l-.7 19.5 12.8-15.5z"/><path class="st235" d="M360.5 394.1l5.4 26.9 20.2-31.6z"/><path class="st236" d="M386.1 389.4L365.9 421l30.9-20.9z"/><path class="st237" d="M405.6 219.9l-8.1 8.7 16.8-1.3z"/><path class="st238" d="M348.4 238l4.7 16.8 34.3-22.8z"/><path class="st239" d="M353.1 254.8l29.6 2.1 4.7-24.9z"/><path class="st240" d="M349.8 230l-1.4 8 39-6z"/><path class="st241" d="M379.4 220.5l-29.6 9.5 37.6 2z"/><path class="st242" d="M387.4 352.4L409 347l.6-28.9z"/><path class="st243" d="M385.4 696.8l-5.4 15.4 14.8-6z"/><path class="st244" d="M425.1 246.1l-8.7 12.8 16.1 4.7z"/><path class="st245" d="M419 374.6l-22.8-3.4 23.5 14.8z"/><path class="st246" d="M370.6 659.1l1.4 13.4 18.8-16.8z"/><path class="st247" d="M372 672.5l10 11.5 8.8-28.3z"/><path class="st248" d="M385.4 636.9l-14.8 22.2 20.2-3.4z"/><path class="st249" d="M374 340.9l13.4 11.5 22.2-34.3z"/><path class="st250" d="M368.6 595.9l16.8 13.4 6.1-26.9z"/><path class="st251" d="M388.8 565.6l-20.2 30.3 22.9-13.5z"/><path class="st100" d="M384.1 213.1l3.3 18.9 10.1-3.4z"/><path class="st252" d="M380 712.2l2.7 28.3 8.8-4.7z"/><path class="st253" d="M419.7 386l18.2 23.5 6.7-7.4z"/><path class="st254" d="M385.4 178.8l6.7-.6 5.4-5.4z"/><path class="st255" d="M370.6 179.5l14.8-.7 12.1-6z"/><path class="st256" d="M394.2 243.4l-11.5 13.5 14.1-9.5z"/><path class="st20" d="M387.4 232l-4.7 24.9 10.1-17.5z"/><path class="st257" d="M387.4 352.4l16.2 5.4L409 347z"/><path class="st258" d="M392.1 178.2l-6.7.6 13.5 24.9z"/><path class="st259" d="M387.4 352.4v20.1l8.8-1.3z"/><path class="st260" d="M387.4 372.5l-1.3 16.9 10.1-18.2z"/><path class="st261" d="M396.2 371.2l-10.1 18.2 10.7 10.7z"/><path class="st262" d="M392.1 753.3l8.8 9.4 6-20.9z"/><path class="st263" d="M391.5 735.8l.6 17.5 14.8-11.5z"/><path class="st264" d="M396.8 247.4l-12.7 14.8 14.1 16.2z"/><path class="st265" d="M382.7 256.9l1.4 5.3 12.7-14.8z"/><path class="st266" d="M388.8 565.6l35 2 1.3-10.8z"/><path class="st267" d="M396.8 400.1L365.9 421l42.4 1.3z"/><path class="st268" d="M385.4 757.3l14.8 24.9.7-19.5z"/><path class="st269" d="M385.4 636.9l5.4 18.8 10.8-11.4z"/><path class="st270" d="M384.1 262.2l-18.9 11.5 33 4.7z"/><path class="st271" d="M365.2 273.7l22.2 29.6 10.8-24.9z"/><path class="st272" d="M385.4 178.8l-1.3 34.3 14.8-9.4z"/><path class="st273" d="M390.8 655.7L382 684l18.2-8.1z"/><path class="st274" d="M409 347l39 4.7.6-27.6z"/><path class="st275" d="M380 712.2l11.5 23.6 8.7-16.2z"/><path class="st179" d="M394.8 706.2l-14.8 6 20.2 7.4z"/><path class="st276" d="M398.9 203.7l6.7 16.2 12.1-24.9z"/><path class="st277" d="M392.1 753.3l-6.7 4 15.5 5.4z"/><path class="st278" d="M387.4 352.4l8.8 18.8 7.4-13.4z"/><path class="st279" d="M365.9 421l10.1 47.7 32.3-46.4z"/><path class="st280" d="M390.8 655.7l9.4 20.2 1.4-31.6z"/><path class="st281" d="M425.1 246.1l12.8 8.7 1.3-12.7z"/><path class="st282" d="M400.2 719.6l-8.7 16.2 15.4 6z"/><path class="st283" d="M400.9 240.7l-4.1 6.7 17.5 6.1z"/><path class="st284" d="M398.9 203.7l-14.8 9.4 21.5 6.8z"/><path class="st20" d="M384.1 213.1l13.4 15.5 8.1-8.7z"/><path class="st285" d="M409 276.4l-21.6 26.9 22.2 14.8z"/><path class="st286" d="M387.4 303.3L374 340.9l35.6-22.8z"/><path class="st287" d="M437.9 212.5l-13.5 5.3 15.5 2.7z"/><path class="st288" d="M429.1 427l-4.7 21.6 7.4-16.2z"/><path class="st278" d="M398.2 278.4l-10.8 24.9 21.6-26.9z"/><path class="st289" d="M420.4 234l4.7 12.1 14.1-4z"/><path class="st290" d="M392.1 178.2l6.8 25.5 18.8-8.7z"/><path class="st291" d="M396.8 247.4l1.4 31 10.8-2z"/><path class="st292" d="M373.3 509.8l15.5 55.8 36.3-8.8z"/><path class="st293" d="M397.5 172.8l20.2 22.2 3.4-26.9z"/><path class="st294" d="M416.4 258.9l7.4 10.7 8.7-6z"/><path class="st295" d="M408.3 422.3l20.8 4.7 8.8-17.5z"/><path class="st296" d="M397.5 228.6l3.4 12.1 13.4-13.4z"/><path class="st297" d="M396.2 371.2l.6 28.9 22.9-14.1z"/><path class="st298" d="M397.5 172.8l-5.4 5.4 25.6 16.8z"/><path class="st299" d="M416.4 258.9l-7.4 17.5 14.8-6.8z"/><path class="st300" d="M396.8 247.4l12.2 29 7.4-17.5z"/><path class="st301" d="M414.3 253.5l-17.5-6.1 19.6 11.5z"/><path class="st302" d="M448 351.7l-4.1 31.6 9.4-2.7z"/><path class="st303" d="M423.1 151.9h5.4l2.7-7.4z"/><path class="st304" d="M464.1 521.9l3.4 12.1 4-9.4z"/><path class="st305" d="M409 347l-5.4 10.8 15.4 16.8z"/><path class="st306" d="M403.6 357.8l-7.4 13.4 22.8 3.4z"/><path class="st307" d="M409 276.4l.6 41.7 14.2-48.5z"/><path class="st308" d="M409.6 318.1L409 347l39.6-22.9z"/><path class="st309" d="M441.9 168.7l3.4 26.3 16.8-26.3z"/><path class="st310" d="M400.9 240.7l13.4 12.8 6.1-19.5z"/><path class="st118" d="M414.3 227.3l-13.4 13.4 19.5-6.7z"/><path class="st311" d="M423.1 151.9l-2 6.1 7.4-6.1z"/><path class="st312" d="M400.2 719.6l6.7 22.2 14.8-8.7z"/><path class="st313" d="M414.3 227.3l6.1 6.7 4-16.2z"/><path class="st314" d="M419.7 386l-11.4 36.3 29.6-12.8z"/><path class="st315" d="M408.3 422.3L376 468.7l48.4-20.1z"/><path class="st316" d="M457.4 488.2l3.3 19.5 2.7-12.7z"/><path class="st73" d="M388.8 565.6l2.7 16.8 32.3-14.8z"/><path class="st317" d="M391.5 582.4l14.1 28.9 18.2-43.7z"/><path class="st318" d="M417.7 195l-12.1 24.9 18.8-2.1z"/><path class="st319" d="M420.4 234l-6.1 19.5 10.8-7.4z"/><path class="st320" d="M376 468.7l-.7 12.1 49.1-32.2z"/><path class="st321" d="M439.2 436.4l10.1 2.1L452 423z"/><path class="st322" d="M405.6 219.9l8.7 7.4 10.1-9.5z"/><path class="st323" d="M401.6 644.3l-1.4 31.6 24.9 19.5z"/><path class="st324" d="M400.2 675.9l-5.4 30.3 30.3-10.8z"/><path class="st325" d="M394.8 706.2l5.4 13.4 24.9-24.2z"/><path class="st326" d="M400.2 719.6l21.5 13.5 3.4-37.7z"/><path class="st327" d="M428.5 151.9l-7.4 6.1 14.8-2z"/><path class="st328" d="M414.3 253.5l2.1 5.4 8.7-12.8z"/><path class="st329" d="M435.9 156l-14.8 12.1 20.8.6z"/><path class="st330" d="M406.9 741.8l6.1 24.9 14.1-10.1z"/><path class="st331" d="M421.7 733.1l-14.8 8.7 20.2 14.8z"/><path class="st332" d="M439.2 421.7v14.7L452 423z"/><path class="st333" d="M441.9 168.7L417.7 195h27.6z"/><path class="st334" d="M421.1 158v10.1l14.8-12.1z"/><path class="st335" d="M408.3 422.3l16.1 26.3 4.7-21.6z"/><path class="st336" d="M636.3 349l5.4 21.5 12.1-15.4z"/><path class="st20" d="M431.8 432.4l7.4 9.4v-5.4z"/><path class="st337" d="M421.7 733.1l5.4 23.5 6.1-11.4z"/><path class="st338" d="M425.1 246.1l7.4 17.5 5.4-8.8z"/><path class="st339" d="M457.4 488.2l-15.5 1.4 18.8 18.1z"/><path class="st340" d="M433.2 745.2l-6.1 11.4 16.2-3.3z"/><path class="st341" d="M431.2 144.5l-2.7 7.4 7.4 4.1z"/><path class="st342" d="M424.4 448.6l17.5 41 4-33.6z"/><path class="st100" d="M373.3 509.8l51.8 47 16.8-67.2z"/><path class="st343" d="M439.2 441.8l-14.8 6.8 21.5 7.4z"/><path class="st85" d="M478.2 616l-8.7 2.1 8.7 12.7z"/><path class="st344" d="M425.1 556.8l-1.3 10.8 14.1-10.1z"/><path class="st345" d="M443.9 383.3l.7 18.8 8.7-21.5z"/><path class="st346" d="M424.4 448.6l-49.1 32.2 66.6 8.8z"/><path class="st347" d="M417.7 195l6.7 22.8 13.5-5.3z"/><path class="st348" d="M420.4 234l18.8 8.1.7-21.6z"/><path class="st349" d="M424.4 217.8l-4 16.2 19.5-13.5z"/><path class="st20" d="M439.2 421.7l-7.4 10.7 7.4 4z"/><path class="st350" d="M421.1 168.1l-3.4 26.9 24.2-26.3z"/><path class="st351" d="M443.3 753.3l10.7 14.1 7.4-14.8z"/><path class="st352" d="M375.3 480.8l-4 14.2 70.6-5.4z"/><path class="st353" d="M437.9 409.5l-8.8 17.5 10.1-5.3z"/><path class="st354" d="M429.1 427l2.7 5.4 7.4-10.7z"/><path class="st355" d="M451.3 739.1l-8 14.2 18.1-.7z"/><path class="st356" d="M431.8 432.4l-7.4 16.2 14.8-6.8z"/><path class="st357" d="M371.3 495l2 14.8 68.6-20.2z"/><path class="st358" d="M481.6 167.4l6.1 29.6 8-41.7z"/><path class="st359" d="M481.6 167.4l-19.5 1.3 25.6 28.3z"/><path class="st360" d="M471.5 524.6l-4 9.4 6.7 8.7z"/><path class="st361" d="M421.7 733.1l11.5 12.1 18.1-6.1z"/><path class="st73" d="M447.3 583.1l7.4 13.4.7-16.1z"/><path class="st362" d="M419 374.6l.7 11.4 24.2-2.7z"/><path class="st363" d="M443.3 753.3l-16.2 3.3 18.2 12.1z"/><path class="st364" d="M421.7 733.1l29.6 6 4.7-17.5z"/><path class="st365" d="M437.9 212.5l2 8 5.4-25.5z"/><path class="st366" d="M461.4 752.6l-7.4 14.8 17.5 8.7z"/><path class="st56" d="M417.7 195l20.2 17.5 7.4-17.5z"/><path class="st367" d="M452.7 564.2l-5.4 18.9 8.1-2.7z"/><path class="st368" d="M433.2 745.2l10.1 8.1 8-14.2z"/><path class="st369" d="M419 374.6l24.9 8.7 4.1-31.6z"/><path class="st370" d="M409 347l10 27.6 29-22.9z"/><path class="st34" d="M423.8 269.6l-14.2 48.5 39 6z"/><path class="st371" d="M432.5 263.6l-8.7 6 24.8 54.5z"/><path class="st372" d="M498.4 364.5l18.8 2 1.4-7.4z"/><path class="st373" d="M454.7 596.5l10.1 44.4 4.7-22.8z"/><path class="st374" d="M445.9 456l-4 33.6 8.8-11.4z"/><path class="st20" d="M439.2 436.4v5.4l10.1-3.3zm0 5.4l6.7 14.2 3.4-17.5z"/><path class="st375" d="M425.1 695.4l-3.4 37.7 34.3-11.5z"/><path class="st72" d="M439.2 242.1l-1.3 12.7h17.5z"/><path class="st376" d="M437.9 557.5l9.4 25.6 5.4-18.9z"/><path class="st377" d="M441.9 489.6l-16.8 67.2 35.6-49.1z"/><path class="st378" d="M437.9 409.5l1.3 12.2L452 423z"/><path class="st379" d="M444.6 402.1l-6.7 7.4L452 423z"/><path class="st100" d="M480.9 398.1l6.1 6.1.7-3.4z"/><path class="st90" d="M443.3 753.3l2 15.4 8.7-1.3z"/><path class="st20" d="M497.1 386l-.7 2.7 7.4 5.4z"/><path class="st380" d="M437.9 557.5l14.8 6.7 2.7-16.8z"/><path class="st381" d="M468.8 436.4l-9.4 21.6 15.5-19.5z"/><path class="st382" d="M474.9 341.6l.6 24.2 10.8-.6z"/><path class="st20" d="M493.7 367.8l2.7.7 2-4z"/><path class="st383" d="M437.9 254.8l-5.4 8.8 22.9-8.8z"/><path class="st384" d="M432.5 263.6l16.1 60.5 6.8-69.3z"/><path class="st385" d="M425.1 556.8l12.8.7 17.5-10.1z"/><path class="st386" d="M464.1 521.9l-8.7 25.5 12.1-13.4z"/><path class="st387" d="M464.1 597.2l-9.4-.7 14.8 21.6z"/><path class="st388" d="M444.6 402.1L452 423l7.4.7z"/><path class="st389" d="M450.7 478.2l-8.8 11.4 15.5-1.4z"/><path class="st20" d="M452 423l-2.7 15.5 10.1-14.8z"/><path class="st390" d="M449.3 438.5l-3.4 17.5 13.5 2z"/><path class="st90" d="M445.9 456l4.8 22.2 8.7-20.2z"/><path class="st391" d="M445.3 195l-5.4 25.5 22.9 14.2z"/><path class="st392" d="M439.2 242.1l16.2 12.7 7.4-20.1z"/><path class="st393" d="M462.1 168.7L445.3 195l42.4 2z"/><path class="st394" d="M474.9 493.6l-14.2 14.1 22.2 2.1z"/><path class="st395" d="M516.6 628.1l8.7 14.8 7.4-25.5z"/><path class="st396" d="M448.6 324.1l-.6 27.6 26.9-10.1z"/><path class="st397" d="M488.3 305.3l23.6 4 1.3-36.3z"/><path class="st398" d="M468.8 398.8l7.4 10.1 4.7-10.8z"/><path class="st399" d="M439.9 220.5l-.7 21.6 23.6-7.4z"/><path class="st28" d="M460.7 507.7l-35.6 49.1 39-34.9z"/><path class="st400" d="M425.1 556.8l30.3-9.4 8.7-25.5z"/><path class="st401" d="M455.4 580.4l-.7 16.1 9.4.7z"/><path class="st402" d="M468.8 473.4l-11.4 14.8 17.5 5.4z"/><path class="st403" d="M444.6 402.1l14.8 21.6 9.4-24.9z"/><path class="st404" d="M453.3 380.6l-8.7 21.5 24.2-3.3z"/><path class="st405" d="M457.4 488.2l6 6.8 11.5-1.4z"/><path class="st406" d="M486.3 560.2l-7.4 10.8 10.1 2z"/><path class="st407" d="M449.3 438.5l10.1 19.5 9.4-21.6z"/><path class="st408" d="M459.4 423.7l-10.1 14.8 19.5-2.1z"/><path class="st409" d="M450.7 478.2l6.7 10 11.4-14.8z"/><path class="st163" d="M459.4 458l-8.7 20.2 18.1-4.8z"/><path class="st410" d="M454 767.4l-8.7 1.3 26.2 7.4z"/><path class="st20" d="M486.3 365.2l6.7 13.4.7-10.8z"/><path class="st411" d="M455.4 547.4l-2.7 16.8 21.5-21.5z"/><path class="st412" d="M467.5 534l-12.1 13.4 18.8-4.7z"/><path class="st413" d="M455.4 580.4l19.5 13.4 4-22.8z"/><path class="st414" d="M502.4 406.9l6.1 6.7 6.7-12.8z"/><path class="st20" d="M474.9 438.5h4.7v-27.6zM463.4 495l-2.7 12.7 14.2-14.1z"/><path class="st415" d="M474.9 593.8l-10.8 3.4 14.1 18.8z"/><path class="st416" d="M464.1 597.2l5.4 20.9 8.7-2.1z"/><path class="st417" d="M474.9 341.6L448 351.7l27.5 14.1z"/><path class="st418" d="M452.7 564.2l2.7 16.2 23.5-9.4z"/><path class="st419" d="M478.2 252.2l10.1 53.1 24.9-32.3z"/><path class="st420" d="M455.4 580.4l8.7 16.8 10.8-3.4z"/><path class="st421" d="M468.8 398.8l-9.4 24.9 16.8-14.8z"/><path class="st422" d="M453.3 380.6l15.5 18.2 6.7-33z"/><path class="st423" d="M448 351.7l5.3 28.9 22.2-14.8z"/><path class="st424" d="M462.8 234.7l-7.4 20.1 22.8-2.6z"/><path class="st425" d="M445.3 195l17.5 39.7 24.9-37.7z"/><path class="st405" d="M493.7 398.1l8.7 8.8 1.4-12.8z"/><path class="st426" d="M451.3 739.1l10.1 13.5 18.2-2.7z"/><path class="st427" d="M475.5 365.8l-6.7 33 12.1-.7z"/><path class="st428" d="M478.2 616l14.2 14.8 8.7-36.3z"/><path class="st429" d="M478.9 571l-4 22.8L489 573z"/><path class="st430" d="M474.2 542.7l-21.5 21.5 26.2 6.8z"/><path class="st431" d="M532.7 320.1l-21.5 2.7 22.9 13.4z"/><path class="st432" d="M456 721.6l-4.7 17.5 28.3 10.8z"/><path class="st20" d="M468.8 436.4l6.1 2.1 4.7-27.6z"/><path class="st433" d="M459.4 423.7l9.4 12.7 10.8-25.5z"/><path class="st434" d="M476.2 408.9l-16.8 14.8 20.2-12.8z"/><path class="st278" d="M486.3 560.2L489 573l6-3.4z"/><path class="st435" d="M492.4 630.8l-7.4 6.8 15.4-1.4z"/><path class="st405" d="M460.7 507.7l3.4 14.2 18.8-12.1z"/><path class="st20" d="M464.1 521.9l7.4 2.7 11.4-14.8z"/><path class="st436" d="M482.9 509.8l-11.4 14.8 17.5 2z"/><path class="st437" d="M474.2 542.7l4.7 28.3 7.4-10.8z"/><path class="st20" d="M488.3 392.1l-.6 8.7 6-2.7z"/><path class="st438" d="M492.4 452.6l-23.6 20.8 37.7-2.6z"/><path class="st90" d="M480.9 398.1l6.8 2.7.6-8.7z"/><path class="st20" d="M486.3 365.2l7.4 2.6 4.7-3.3z"/><path class="st439" d="M475.5 365.8l5.4 32.3 7.4-6z"/><path class="st20" d="M476.2 408.9l3.4 2 7.4-6.7z"/><path class="st20" d="M480.9 398.1l-4.7 10.8 10.8-4.7z"/><path class="st440" d="M468.8 473.4l6.1 20.2 31.6-22.8z"/><path class="st441" d="M506.5 470.8l-31.6 22.8 36.3 1.4z"/><path class="st442" d="M448.6 324.1l26.3 17.5 13.4-36.3z"/><path class="st443" d="M462.8 234.7l15.4 17.5 9.5-55.2z"/><path class="st444" d="M478.2 252.2l-22.8 2.6 32.9 50.5z"/><path class="st445" d="M455.4 254.8l-6.8 69.3 39.7-18.8z"/><path class="st446" d="M512.5 207.1l4.1 48.4 12.1-10.1z"/><path class="st447" d="M474.9 493.6l8 16.2 28.3-14.8z"/><path class="st448" d="M503.8 394.1l-1.4 12.8 12.8-6.1z"/><path class="st405" d="M471.5 524.6l2.7 18.1 14.8-16.1z"/><path class="st449" d="M478.2 630.8l6.8 6.8 7.4-6.8z"/><path class="st450" d="M478.2 616v14.8h14.2z"/><path class="st451" d="M474.9 438.5L459.4 458l33-5.4z"/><path class="st452" d="M479.6 438.5h-4.7l17.5 14.1z"/><path class="st453" d="M459.4 458l9.4 15.4 23.6-20.8z"/><path class="st20" d="M488.3 392.1l8.1-3.4.7-2.7zm4.7-13.5l-4.7 13.5 8.8-6.1z"/><path class="st454" d="M500.4 636.2L485.6 651l24.9 5.4z"/><path class="st455" d="M498.4 364.5l15.5 7.4.7-2z"/><path class="st456" d="M486.3 365.2l-10.8.6 17.5 12.8z"/><path class="st457" d="M475.5 365.8l12.8 26.3 4.7-13.5z"/><path class="st20" d="M487.7 400.8l-.7 3.4 6.7-6.1z"/><path class="st458" d="M489 573l-14.1 20.8 26.2.7z"/><path class="st459" d="M485 637.6l.6 13.4 14.8-14.8z"/><path class="st460" d="M456 721.6l23.6 28.3 22.8-8.1z"/><path class="st461" d="M474.9 341.6l11.4 23.6 12.1-.7z"/><path class="st405" d="M474.2 542.7l12.1 17.5 8.7-16.1z"/><path class="st462" d="M489 526.6l-14.8 16.1 20.8 1.4z"/><path class="st463" d="M523.3 375.2l7.4 15.5 4-18.8z"/><path class="st464" d="M519.9 599.2l-18.8-4.7 19.5 14.1z"/><path class="st20" d="M493.7 367.8l-.7 10.8 3.4-10.1z"/><path class="st465" d="M541.5 264.3l-3.4 2 8.1 4z"/><path class="st466" d="M474.9 593.8l3.3 22.2 22.9-21.5z"/><path class="st20" d="M488.3 392.1l5.4 6 2.7-9.4zm5.4 6l-6.7 6.1 15.4 2.7z"/><path class="st186" d="M533.4 260.2l2 14.1 2.7-8z"/><path class="st20" d="M491 751.9l7.4-3.4 4-6.7zm-4-347.7l-7.4 6.7 22.8-4z"/><path class="st467" d="M479.6 749.9l11.4 2 11.4-10.1z"/><path class="st20" d="M496.4 388.7l-2.7 9.4 10.1-4zm14.8-45.1l7.4 15.5 2-2.7z"/><path class="st468" d="M474.9 341.6l36.3 2v-20.8z"/><path class="st469" d="M516.6 255.5l-3.4 17.5 4-6.7z"/><path class="st470" d="M492.4 630.8l24.2-2.7 4-19.5z"/><path class="st471" d="M501.1 594.5l-8.7 36.3 28.2-22.2z"/><path class="st472" d="M486.3 560.2l8.7 9.4 10.1-10.7z"/><path class="st473" d="M495 544.1l-8.7 16.1 18.8-1.3z"/><path class="st474" d="M488.3 305.3l-13.4 36.3 36.3-18.8z"/><path class="st100" d="M502.4 406.9l-22.8 4 28.9 2.7z"/><path class="st475" d="M489 573l12.1 21.5 6.1-10.1z"/><path class="st476" d="M495 569.6l-6 3.4 18.2 11.4z"/><path class="st118" d="M528.7 346.3l-8.1 10.1 15.5 2z"/><path class="st237" d="M487.7 197l-9.5 55.2 34.3-45.1z"/><path class="st477" d="M517.2 366.5l-2.6 3.4 4 4.7z"/><path class="st20" d="M479.6 410.9v27.6l28.9-24.9z"/><path class="st478" d="M495 569.6l12.2 14.8 7.4-12.1z"/><path class="st479" d="M474.9 341.6l23.5 22.9 12.8-20.9z"/><path class="st118" d="M575.1 527.3l-5.4 5.3 9.4 4.7z"/><path class="st480" d="M505.1 558.9L495 569.6l19.6 2.7z"/><path class="st481" d="M482.9 509.8l6.1 16.8 22.2-31.6z"/><path class="st20" d="M530.7 585.8l-10.8 13.4 12.1 5.4z"/><path class="st482" d="M520.6 579l29.6.7 4.7-17.5z"/><path class="st483" d="M495.7 155.3l-8 41.7 24.8 10.1z"/><path class="st484" d="M488.3 305.3l22.9 17.5.7-13.5z"/><path class="st485" d="M532 604.6l-11.4 4 12.1 8.8z"/><path class="st20" d="M511.2 343.6l-12.8 20.9 20.2-5.4z"/><path class="st486" d="M507.2 584.4l-6.1 10.1 11.4-4.7z"/><path class="st487" d="M498.4 364.5l-2 4 17.5 3.4z"/><path class="st488" d="M497.1 386l6.7 8.1 10.1-22.2z"/><path class="st489" d="M496.4 368.5l-3.4 10.1 20.9-6.7z"/><path class="st490" d="M493 378.6l4.1 7.4 16.8-14.1z"/><path class="st491" d="M540.1 252.2l-6.7 8 8.1 4.1z"/><path class="st492" d="M516.6 628.1l-16.2 8.1 24.9 6.7z"/><path class="st493" d="M495 544.1l10.1 14.8 20.9-35.7z"/><path class="st494" d="M478.2 252.2l35 20.8 3.4-17.5z"/><path class="st495" d="M502.4 741.8l-4 6.7 22.2 6.8z"/><path class="st496" d="M514.6 369.9l-.7 2 4.7 2.7z"/><path class="st497" d="M524 388.7l.6 8.1 6.1-6.1z"/><path class="st498" d="M520.6 608.6l-4 19.5 16.1-10.7z"/><path class="st20" d="M649.1 346.3l-12.8 2.7 17.5 6.1z"/><path class="st137" d="M492.4 630.8l8 5.4 16.2-8.1z"/><path class="st499" d="M512.5 207.1l-34.3 45.1 38.4 3.3z"/><path class="st500" d="M523.3 375.2l-4.7-.6 5.4 14.1z"/><path class="st501" d="M514.6 572.3l-7.4 12.1 13.4-5.4z"/><path class="st502" d="M498.4 364.5l16.2 5.4 2.6-3.4z"/><path class="st503" d="M507.2 584.4l5.3 5.4 8.1-10.8z"/><path class="st504" d="M495.7 155.3l16.8 51.8 12.1-53.2z"/><path class="st505" d="M513.9 371.9l-10.1 22.2 14.8-19.5z"/><path class="st506" d="M492.4 452.6l14.1 18.2 12.1-30.3z"/><path class="st507" d="M518.6 374.6l-14.8 19.5 20.2-5.4z"/><path class="st278" d="M508.5 413.6l-28.9 24.9 39 2z"/><path class="st508" d="M479.6 438.5l12.8 14.1 26.2-12.1z"/><path class="st509" d="M512.5 589.8l-11.4 4.7 18.8 4.7z"/><path class="st510" d="M591.9 244.1v16.1l3.4-5.4z"/><path class="st330" d="M498.4 748.5l-7.4 3.4 29.6 3.4z"/><path class="st511" d="M533.4 260.2l4.7 6.1 3.4-2z"/><path class="st512" d="M575.1 632.9l-15.5 13.4 16.8-2z"/><path class="st513" d="M532.7 617.4l-7.4 25.5 14.8 2.7z"/><path class="st514" d="M517.2 266.3l-4 6.7 8.1-8.1z"/><path class="st515" d="M520.6 356.4l-2 2.7 17.5-.7z"/><path class="st516" d="M516.6 255.5l.6 10.8 4.1-1.4z"/><path class="st20" d="M517.2 366.5l1.4 8.1 4-1.4z"/><path class="st517" d="M511.2 343.6l17.5 2.7 5.4-10.1z"/><path class="st20" d="M518.6 359.1l-1.4 7.4 5.4 6.7z"/><path class="st518" d="M511.2 495L489 526.6l37-3.4z"/><path class="st20" d="M522.6 373.2l-4 1.4 4.7.6z"/><path class="st519" d="M489 526.6l6 17.5 31-20.9z"/><path class="st520" d="M503.8 394.1l11.4 6.7 8.8-12.1z"/><path class="st521" d="M500.4 636.2l10.1 20.2 14.8-13.5z"/><path class="st20" d="M515.2 400.8l-6.7 12.8 16.1-16.8z"/><path class="st20" d="M524 388.7l-8.8 12.1 9.4-4z"/><path class="st522" d="M560.3 536l6.7 20.2v-15.5z"/><path class="st523" d="M522.6 373.2l12.1-1.3 1.4-13.5z"/><path class="st524" d="M530 462.7l9.4 32.3 10.1-29z"/><path class="st525" d="M537.4 436.4l16.8 18.2.7-12.1z"/><path class="st526" d="M518.6 440.5l-12.1 30.3 23.5-8.1z"/><path class="st527" d="M519.9 599.2l.7 9.4 11.4-4z"/><path class="st528" d="M531.4 279.7l-19.5 29.6 19.5-2z"/><path class="st529" d="M511.2 343.6l9.4 12.8 8.1-10.1z"/><path class="st530" d="M540.1 645.6l-14.8-2.7 18.2 22.9z"/><path class="st531" d="M511.2 322.8v20.8l22.9-7.4z"/><path class="st532" d="M506.5 470.8l4.7 24.2 18.8-32.3z"/><path class="st533" d="M523.3 375.2l.7 13.5 6.7 2z"/><path class="st534" d="M531.4 307.3l-19.5 2 20.8 10.8z"/><path class="st535" d="M512.5 589.8l7.4 9.4 10.8-13.4z"/><path class="st536" d="M520.6 579l-8.1 10.8 18.2-4z"/><path class="st537" d="M513.2 273l-1.3 36.3 19.5-29.6z"/><path class="st538" d="M521.3 264.9l-8.1 8.1 18.2 6.7z"/><path class="st539" d="M538.1 266.3l-2.7 8 10.8-4z"/><path class="st540" d="M511.9 309.3l-.7 13.5 21.5-2.7z"/><path class="st541" d="M518.6 359.1l4 14.1 13.5-14.8z"/><path class="st72" d="M525.3 642.9l-14.8 13.5 33 9.4z"/><path class="st20" d="M538.8 355.1l-2.7 3.3 3.3-.6z"/><path class="st542" d="M536.1 358.4l-1.4 13.5 4.7-14.1z"/><path class="st543" d="M524.6 153.9l-12.1 53.2 26.9-47.8z"/><path class="st544" d="M516.6 255.5l4.7 9.4 12.1-4.7z"/><path class="st100" d="M528.7 245.4l-12.1 10.1 16.8 4.7z"/><path class="st545" d="M522.6 373.2l.7 2 11.4-3.3z"/><path class="st546" d="M533.4 260.2l-12.1 4.7 14.1 9.4z"/><path class="st224" d="M521.3 264.9l10.1 14.8 4-5.4z"/><path class="st20" d="M524.6 396.8l-16.1 16.8 28.9 22.8z"/><path class="st477" d="M518.6 440.5l11.4 22.2 7.4-26.3z"/><path class="st278" d="M539.4 495l12.1 26.9 6.1-12.8z"/><path class="st547" d="M539.4 495L526 523.2l25.5-1.3z"/><path class="st548" d="M512.5 207.1l16.2 38.3 10.1-13.4z"/><path class="st20" d="M508.5 413.6l10.1 26.9 18.8-4.1z"/><path class="st549" d="M589.2 642.9l4.7 10.1 2-19.5z"/><path class="st550" d="M514.6 572.3l6 6.7 34.3-16.8z"/><path class="st118" d="M559.6 646.3l-16.1 19.5h18.8z"/><path class="st551" d="M534.1 336.2l-5.4 10.1 10.1 8.8z"/><path class="st552" d="M528.7 346.3l7.4 12.1 2.7-3.3z"/><path class="st435" d="M530.7 585.8l1.3 18.8 6.8-9.4z"/><path class="st553" d="M532 604.6l.7 12.8 6.1-22.2z"/><path class="st554" d="M563.7 346.3l-5.4 2.7 10.7 8.8z"/><path class="st555" d="M538.8 232l-10.1 13.4 11.4 6.8z"/><path class="st556" d="M559.6 646.3l2.7 19.5 14.1-21.5z"/><path class="st557" d="M653.8 355.1l-3.4 13.4 6.1-12.8z"/><path class="st558" d="M511.2 495l14.8 28.2 13.4-28.2z"/><path class="st559" d="M530 462.7L511.2 495h28.2z"/><path class="st435" d="M528.7 245.4l4.7 14.8 6.7-8z"/><path class="st560" d="M532.7 617.4l7.4 28.2 10.1-10.7z"/><path class="st90" d="M556.9 332.2l1.4 16.8 5.4-2.7z"/><path class="st561" d="M567 540.7v15.5l3.4-7.4z"/><path class="st562" d="M535.4 274.3l-4 5.4 14.8-9.4z"/><path class="st563" d="M540.1 252.2l1.4 12.1 4.7 6z"/><path class="st564" d="M539.4 495l18.2 14.1 3.4-22.2z"/><path class="st565" d="M554.9 562.2l17.5 16.2 2-8.8z"/><path class="st566" d="M556.9 332.2l-6 21.5 7.4-4.7z"/><path class="st567" d="M639.7 296.5l7.4 12.2 6 8z"/><path class="st20" d="M539.4 357.8l-4.7 14.1 11.5-10.8z"/><path class="st568" d="M534.1 336.2l16.8 17.5 6-21.5z"/><path class="st20" d="M539.4 357.8l6.8 3.3 4.7-7.4z"/><path class="st569" d="M532.7 320.1l1.4 16.1 22.8-4z"/><path class="st20" d="M552.2 376.6l-21.5 14.1 23.5-2z"/><path class="st570" d="M520.6 579l10.1 6.8 19.5-6.1z"/><path class="st571" d="M530.7 585.8l8.1 9.4 11.4-15.5z"/><path class="st572" d="M532.7 617.4l33 5.4 4-9.5z"/><path class="st573" d="M539.4 159.3l-26.9 47.8 39-39.7z"/><path class="st574" d="M551.5 167.4l-39 39.7 47.8-24.2z"/><path class="st575" d="M534.1 336.2l4.7 18.9 12.1-1.4z"/><path class="st576" d="M538.8 595.2l-6.1 22.2 37-4.1z"/><path class="st20" d="M538.8 355.1l.6 2.7 11.5-4.1z"/><path class="st577" d="M572.4 578.4l-22.2 1.3 22.9 17.5z"/><path class="st20" d="M534.7 371.9l-4 18.8 21.5-14.1z"/><path class="st20" d="M546.2 361.1l-11.5 10.8 17.5 4.7z"/><path class="st578" d="M530 462.7l19.5 3.3 4.7-11.4z"/><path class="st579" d="M537.4 436.4l-7.4 26.3 24.2-8.1z"/><path class="st580" d="M549.5 466l-10.1 29 21.6-8.1z"/><path class="st581" d="M580.5 620.7l-5.4 12.2 6-1.4z"/><path class="st582" d="M505.1 558.9l9.5 13.4 40.3-10.1z"/><path class="st583" d="M526 523.2l-20.9 35.7 49.8 3.3z"/><path class="st584" d="M571.1 514.5l-1.4 18.1 5.4-5.3z"/><path class="st585" d="M561.6 371.9l-9.4 4.7 10.8.7z"/><path class="st586" d="M512.5 207.1l26.3 24.9 21.5-49.1z"/><path class="st587" d="M551.5 521.9l18.2 10.7 1.4-18.1z"/><path class="st588" d="M537.4 436.4l17.5 6.1 3.4-24.9z"/><path class="st589" d="M550.2 634.9l9.4 11.4 6.1-23.5z"/><path class="st590" d="M524.6 396.8l12.8 39.6 20.9-18.8z"/><path class="st20" d="M530.7 390.7l-6.1 6.1 33.7 20.8z"/><path class="st591" d="M554.2 388.7l-23.5 2 27.6 26.9z"/><path class="st592" d="M540.1 645.6l3.4 20.2 16.1-19.5z"/><path class="st593" d="M550.2 634.9l-10.1 10.7 19.5.7z"/><path class="st594" d="M561 486.9l5.3 10.8 10.8-24.3z"/><path class="st595" d="M551.5 521.9l-25.5 1.3 34.3 12.8z"/><path class="st596" d="M526 523.2l28.9 39 5.4-26.2z"/><path class="st597" d="M575.1 527.3l6 1.3 2.7-18.2z"/><path class="st598" d="M546.2 361.1l6 15.5 9.4-4.7z"/><path class="st599" d="M557.6 509.1l-6.1 12.8 19.6-7.4z"/><path class="st600" d="M549.5 466l11.5 20.9.6-14.1z"/><path class="st601" d="M554.2 454.6l-4.7 11.4 12.1 6.8z"/><path class="st602" d="M550.9 353.7l-4.7 7.4 15.4 10.8z"/><path class="st603" d="M561.6 472.8l-.6 14.1 16.1-13.5z"/><path class="st604" d="M558.3 417.6l-3.4 24.9 35 8.1z"/><path class="st605" d="M552.2 376.6l2 12.1 8.8-11.4z"/><path class="st606" d="M531.4 279.7v27.6l32.3 5.4z"/><path class="st607" d="M546.2 270.3l-14.8 9.4 32.3 33z"/><path class="st608" d="M563.7 346.3l5.3 11.5 1.4-7.4z"/><path class="st609" d="M532.7 320.1l24.2 12.1 6.8-19.5z"/><path class="st610" d="M531.4 307.3l1.3 12.8 31-7.4z"/><path class="st611" d="M570.4 350.4l-1.4 7.4 6.1 10z"/><path class="st612" d="M571.1 514.5l4 12.8 8.7-16.9z"/><path class="st613" d="M532.7 617.4l17.5 17.5 15.5-12.1z"/><path class="st614" d="M566.3 497.7l-8.7 11.4 13.5 5.4z"/><path class="st615" d="M554.2 388.7l4.1 28.9 8-26.2z"/><path class="st616" d="M563 377.3l-8.8 11.4 12.1 2.7z"/><path class="st617" d="M574.4 569.6l-2 8.8 13.5-.7z"/><path class="st618" d="M561 486.9l-3.4 22.2 8.7-11.4z"/><path class="st619" d="M585.9 577.7l-13.5.7 17.5 8.7z"/><path class="st620" d="M560.3 536l-5.4 26.2 12.1-6z"/><path class="st621" d="M560.3 182.9L538.8 232l32.9-33.7z"/><path class="st622" d="M558.3 349l-7.4 4.7 18.1 4.1z"/><path class="st623" d="M550.9 353.7l10.7 18.2 7.4-14.1z"/><path class="st624" d="M554.2 454.6l7.4 18.2 15.5.6z"/><path class="st625" d="M572.4 578.4l.7 18.8 16.8-10.1z"/><path class="st626" d="M566.3 391.4l33 15.5 2-12.8z"/><path class="st627" d="M565.7 622.8l-6.1 23.5 15.5-13.4z"/><path class="st628" d="M551.5 521.9l8.8 14.1 9.4-3.4z"/><path class="st629" d="M560.3 536l6.7 4.7 2.7-8.1z"/><path class="st630" d="M581.1 528.6l-2 8.7 7.4 10.1z"/><path class="st631" d="M573.1 597.2l11.4 4 5.4-14.1z"/><path class="st632" d="M565.7 622.8l9.4 10.1 5.4-12.2z"/><path class="st633" d="M647.1 308.7l-8.8 4.7 14.8 3.3z"/><path class="st634" d="M569.7 613.3l-4 9.5 14.8-2.1z"/><path class="st635" d="M538.8 595.2l30.9 18.1 3.4-16.1z"/><path class="st636" d="M550.2 579.7l-11.4 15.5 34.3 2z"/><path class="st637" d="M554.9 562.2l-4.7 17.5 22.2-1.3z"/><path class="st638" d="M605.4 282.4l-41.7 30.3 43-2z"/><path class="st639" d="M563 377.3l3.3 14.1 8.8-23.6z"/><path class="st640" d="M567 556.2l-12.1 6 19.5 7.4z"/><path class="st641" d="M569 357.8l-7.4 14.1 13.5-4.1z"/><path class="st642" d="M561.6 371.9l1.4 5.4 12.1-9.5z"/><path class="st643" d="M580.5 236l11.4 24.2v-16.1z"/><path class="st644" d="M571.7 198.3L538.8 232l41.7 4z"/><path class="st645" d="M538.8 232l1.3 20.2 40.4-16.2z"/><path class="st646" d="M584.5 601.2l12.1 5.4 2-14.8z"/><path class="st647" d="M584.5 601.2l-14.8 12.1 19.5-4z"/><path class="st648" d="M575.1 632.9l1.3 11.4 4.7-12.8z"/><path class="st649" d="M570.4 548.8l-3.4 7.4 11.5-.7z"/><path class="st650" d="M567 556.2l7.4 13.4 4.1-14.1z"/><path class="st651" d="M567 540.7l3.4 8.1 8.7-11.5z"/><path class="st652" d="M569.7 532.6l-2.7 8.1 12.1-3.4z"/><path class="st653" d="M563.7 312.7l-6.8 19.5 31-3.4z"/><path class="st654" d="M579.1 537.3l-8.7 11.5 16.1-1.4z"/><path class="st655" d="M577.1 473.4l-10.8 24.3 17.5 12.7z"/><path class="st656" d="M570.4 548.8l8.1 6.7 8-8.1z"/><path class="st657" d="M589.2 642.9l-12.8 1.4 17.5 8.7z"/><path class="st658" d="M540.1 252.2l6.1 18.1 34.3-34.3z"/><path class="st659" d="M563.7 346.3l6.7 4.1 17.5-21.6z"/><path class="st660" d="M575.1 527.3l4 10 2-8.7z"/><path class="st661" d="M566.3 497.7l4.8 16.8 12.7-4.1z"/><path class="st662" d="M556.9 332.2l6.8 14.1 24.2-17.5z"/><path class="st663" d="M581.1 631.5l-4.7 12.8 12.8-1.4z"/><path class="st664" d="M573.1 597.2l-3.4 16.1 14.8-12.1z"/><path class="st665" d="M554.2 454.6l22.9 18.8 12.8-22.8z"/><path class="st666" d="M554.9 442.5l-.7 12.1 35.7-4z"/><path class="st667" d="M580.5 620.7l.6 10.8 9.5-6.7z"/><path class="st668" d="M563.7 312.7l24.2 16.1 18.8-18.1z"/><path class="st669" d="M590.6 624.8l5.3 8.7 7.4-13.4z"/><path class="st303" d="M571.7 198.3l8.8 37.7 11.4 8.1z"/><path class="st670" d="M558.3 417.6l40.3 4.1.7-14.8z"/><path class="st671" d="M546.2 270.3l17.5 42.4 28.2-52.5z"/><path class="st672" d="M569.7 613.3l10.8 7.4 8.7-11.4z"/><path class="st673" d="M589.2 609.3l4.7 9.4 2.7-12.1z"/><path class="st674" d="M575.1 367.8l-8.8 23.6 35 2.7z"/><path class="st675" d="M587.9 328.8l-17.5 21.6 24.2-10.8z"/><path class="st224" d="M576.4 644.3l-14.1 21.5 31.6-12.8z"/><path class="st676" d="M597.3 362.5l-22.2 5.3 26.2 26.3z"/><path class="st677" d="M616.8 339.6L604 347l12.8-2.7z"/><path class="st678" d="M580.5 236l-34.3 34.3 45.7-10.1z"/><path class="st679" d="M600.7 555.5l-6.1 5.4 14.8 16.8z"/><path class="st680" d="M595.3 254.8l-3.4 5.4 9.4 8.1z"/><path class="st681" d="M593.9 618.7l-3.3 6.1 12.7-4.7z"/><path class="st682" d="M643.7 387.3l2 16.9 4.7-31z"/><path class="st90" d="M653.1 351l-4-4.7 4.7 8.8z"/><path class="st683" d="M589.2 609.3l-8.7 11.4 13.4-2z"/><path class="st684" d="M580.5 620.7l10.1 4.1 3.3-6.1z"/><path class="st685" d="M570.4 350.4l26.9 12.1v-18.9z"/><path class="st686" d="M586.5 547.4l-8 8.1 16.1 5.4z"/><path class="st687" d="M578.5 555.5l-4.1 14.1 20.2-8.7z"/><path class="st688" d="M574.4 569.6l11.5 8.1 8.7-16.8z"/><path class="st689" d="M606.7 310.7l-18.8 18.1 22.2 3.4z"/><path class="st690" d="M589.9 587.1l-5.4 14.1 14.1-9.4z"/><path class="st691" d="M581.1 631.5l8.1 11.4 6.7-9.4z"/><path class="st692" d="M590.6 624.8l-9.5 6.7 14.8 2z"/><path class="st693" d="M584.5 601.2l4.7 8.1 7.4-2.7z"/><path class="st694" d="M594.6 339.6l-24.2 10.8 26.9-6.8z"/><path class="st695" d="M566.3 391.4l-8 26.2 41-10.7z"/><path class="st696" d="M612.1 605.9L593.9 653l20.2-51.8z"/><path class="st697" d="M610.1 386l-8.8 8.1 10.1-4.1z"/><path class="st118" d="M570.4 350.4l4.7 17.4 22.2-5.3z"/><path class="st52" d="M647.1 335.6L636.3 349l12.8-2.7z"/><path class="st698" d="M586.5 547.4l8.1 13.5 6.1-5.4z"/><path class="st699" d="M558.3 417.6l31.6 33 8.7-28.9z"/><path class="st700" d="M616.8 344.3L604 347l17.5 1.3z"/><path class="st701" d="M583.8 510.4l-2.7 18.2 19.6 26.9z"/><path class="st702" d="M581.1 528.6l5.4 18.8 14.2 8.1z"/><path class="st703" d="M598.6 591.8l9.4.7 1.4-14.8z"/><path class="st704" d="M596.6 606.6l-2.7 12.1 9.4 1.4z"/><path class="st705" d="M595.9 633.5l-2 19.5 9.4-32.9z"/><path class="st706" d="M604 347l-6.7 15.5 24.2-14.2z"/><path class="st707" d="M643.7 387.3l-4.7 14.2 6.7 2.7z"/><path class="st708" d="M597.3 362.5l4 31.6 8.8-8.1z"/><path class="st709" d="M603.3 620.1l-9.4 32.9 18.2-47.1z"/><path class="st710" d="M611.4 390l2 10.8 7.4-9.4z"/><path class="st711" d="M587.9 328.8l6.7 10.8 15.5-7.4z"/><path class="st20" d="M597.3 343.6v18.9L604 347z"/><path class="st712" d="M591.9 260.2l-28.2 52.5 41.7-30.3z"/><path class="st713" d="M601.3 268.3l-9.4-8.1 13.5 22.2z"/><path class="st714" d="M598.6 591.8l-2 14.8 11.4-14.1z"/><path class="st715" d="M594.6 560.9l-8.7 16.8h23.5z"/><path class="st716" d="M585.9 577.7l4 9.4 19.5-9.4z"/><path class="st717" d="M589.9 587.1l8.7 4.7 10.8-14.1z"/><path class="st90" d="M597.3 343.6l6.7 3.4 6.1-14.8z"/><path class="st718" d="M594.6 339.6l2.7 4 12.8-11.4z"/><path class="st719" d="M608 592.5l4.1 13.4 2-4.7z"/><path class="st720" d="M608 592.5l-11.4 14.1 15.5-.7z"/><path class="st721" d="M596.6 606.6l6.7 13.5 8.8-14.2z"/><path class="st722" d="M609.4 577.7l-1.4 14.8 6.1 8.7z"/><path class="st723" d="M610.1 386l1.3 4 9.4 1.4z"/><path class="st724" d="M610.1 332.2L604 347l12.8-7.4z"/><path class="st725" d="M641.7 370.5l6 4.7 2.7-6.7z"/><path class="st726" d="M611.4 390l-10.1 4.1 12.1 6.7z"/><path class="st727" d="M624.9 399.5l-6.1 7.4 7.4-2.1z"/><path class="st728" d="M597.3 362.5l12.8 23.5 11.4-37.7z"/><path class="st729" d="M628.9 392.1l7.4-2.1 5.4-19.5z"/><path class="st730" d="M595.3 254.8l6 13.5 18.9 8.7z"/><path class="st731" d="M620.8 391.4l-7.4 9.4 11.5-1.3z"/><path class="st732" d="M591.9 244.1l3.4 10.7 24.9 22.2z"/><path class="st733" d="M601.3 268.3l4.1 14.1 14.8-5.4z"/><path class="st734" d="M632.3 338.2l-4.1 5.4 4.7.7z"/><path class="st134" d="M624.9 399.5l1.3 5.3 2.7-4.7z"/><path class="st735" d="M606.7 310.7l3.4 21.5 10.1.7z"/><path class="st736" d="M610.1 332.2l6.7 7.4 3.4-6.7z"/><path class="st20" d="M616.8 344.3l4.7 4 6.7-4.7z"/><path class="st590" d="M616.8 339.6v4.7l11.4-.7z"/><path class="st90" d="M632.9 344.3l-4.7-.7 8.1 5.4z"/><path class="st737" d="M613.4 400.8l5.4 6.1 6.1-7.4z"/><path class="st738" d="M628.2 343.6l-6.7 4.7 14.8.7z"/><path class="st739" d="M606.7 310.7l31.6 2.7 1.4-16.9z"/><path class="st740" d="M620.2 332.9l-3.4 6.7 11.4 4z"/><path class="st741" d="M628.9 283.8l-22.2 26.9 33-14.2z"/><path class="st186" d="M653.1 351l.7 4.1 2.7.6z"/><path class="st742" d="M605.4 282.4l1.3 28.3 22.2-26.9z"/><path class="st743" d="M620.2 277l-14.8 5.4 23.5 1.4z"/><path class="st744" d="M628.9 400.1l-2.7 4.7 12.8-3.3z"/><path class="st745" d="M636.3 390l-7.4 10.1 10.1 1.4z"/><path class="st746" d="M620.8 391.4l4.1 8.1 4-7.4z"/><path class="st747" d="M624.9 399.5l4 .6v-8z"/><path class="st748" d="M628.9 392.1v8l7.4-10.1z"/><path class="st749" d="M620.2 332.9l8 10.7 4.1-5.4z"/><path class="st750" d="M606.7 310.7l13.5 22.2 18.1-19.5z"/><path class="st751" d="M626.2 404.8l11.4 10.8 1.4-14.1z"/><path class="st752" d="M620.2 332.9l12.1 5.3 6-24.8z"/><path class="st753" d="M637.6 415.6l5.4 3.4 2.7-14.8z"/><path class="st754" d="M636.3 349l-14.8-.7 20.2 22.2z"/><path class="st755" d="M620.8 391.4l8.1.7 12.8-21.6z"/><path class="st756" d="M639 401.5l-1.4 14.1 8.1-11.4z"/><path class="st757" d="M637.6 415.6v3.4h5.4z"/><path class="st758" d="M610.1 386l10.7 5.4 20.9-20.9z"/><path class="st759" d="M621.5 348.3L610.1 386l31.6-15.5z"/><path class="st760" d="M638.3 313.4l8.8 22.2 6-18.9z"/><path class="st761" d="M636.3 390l2.7 11.5 4.7-14.2z"/><path class="st762" d="M641.7 370.5l-5.4 19.5 7.4-2.7z"/><path class="st763" d="M639.7 296.5l-1.4 16.9 8.8-4.7z"/><path class="st358" d="M632.3 338.2l.6 6.1 14.2-8.7z"/><path class="st764" d="M632.9 344.3l3.4 4.7 10.8-13.4z"/><path class="st765" d="M641.7 370.5l2 16.8 4-12.1z"/><path class="st766" d="M638.3 313.4l-6 24.8 14.8-2.6z"/></svg>