<svg id="Layer_1" xmlns="http://www.w3.org/2000/svg" viewBox="0 0 400 511.3"><style>.st0{enable-background:new}.st1{fill:none}.st2{fill:#f6c75b}.st3{fill:#fce6ac}.st4{fill:#f8d174}.st5{fill:#eab646}.st6{fill:#f3c355}.st7{fill:#fbd071}.st8{fill:#e9b444}.st9{fill:#f8ce68}.st10{fill:#fbe2a2}.st11{fill:#fdebbd}.st12{fill:#d9c298}.st13{fill:#f0c051}.st14{fill:#fce4a6}.st15{fill:#f3c152}.st16{fill:#f6c75d}.st17{fill:#fce19e}.st18{fill:#fad270}.st19{fill:#a16800}.st20{fill:#dba22f}.st21{fill:#602e25}.st22{fill:#b9861b}.st23{fill:#f1bf50}.st24{fill:#e0a734}.st25{fill:#ecb848}.st26{fill:#dda431}.st27{fill:#cc8b17}.st28{fill:#d0911d}.st29{fill:#d29522}.st30{fill:#ca8b17}.st31{fill:#e5b03e}.st32{fill:#e2aa39}.st33{fill:#dca02e}.st34{fill:#e5ad3c}.st35{fill:#cb8a16}.st36{fill:#d39824}.st37{fill:#cd8c18}.st38{fill:#cf9420}.st39{fill:#ce8d19}.st40{fill:#a96e06}.st41{fill:#e8b13c}.st42{fill:#d9a02c}.st43{fill:#da9a1f}.st44{fill:#aa6f07}.st45{fill:#9d6300}.st46{fill:#a56c05}.st47{fill:#9f6501}.st48{fill:#a46b04}.st49{fill:#b57b0d}.st50{fill:#ab710d}.st51{fill:#e8b341}.st52{fill:#e5ae39}.st53{fill:#d69f2b}.st54{fill:#3e1b15}.st55{fill:#3c1b14}.st56{fill:#56261c}.st57{fill:#ce9625}.st58{fill:#cc9423}.st59{fill:#5a2a1e}.st60{fill:#c38b1a}.st61{fill:#55261e}.st62{fill:#b77d0f}.st63{fill:#d9a22e}.st64{fill:#d49c2b}.st65{fill:#51261d}.st66{fill:#d1992c}.st67{fill:#8d6355}.st68{fill:#431c15}.st69{fill:#d19116}.st70{fill:#b98112}.st71{fill:#a76c04}.st72{fill:#b77f10}.st73{fill:#c99120}.st74{fill:#c78a17}.st75{fill:#b57c13}.st76{fill:#bc831a}.st77{fill:#c58c21}.st78{fill:#a06700}.st79{fill:#a66d04}.st80{fill:#e1ac3c}.st81{fill:#4b241d}.st82{fill:#673c33}.st83{fill:#704034}.st84{fill:#683429}.st85{fill:#5e2e24}.st86{fill:#ae7607}.st87{fill:#d39b2e}.st88{fill:#48211a}.st89{fill:#552e27}.st90{fill:#60352c}.st91{fill:#c1891c}.st92{fill:#d29a2b}.st93{fill:#713e2d}.st94{fill:#cd9528}.st95{fill:#5a322a}.st96{fill:#c29822}.st97{fill:#ad7305}.st98{fill:#a16c04}.st99{fill:#63372e}.st100{fill:#9c6707}.st101{fill:#c49724}.st102{fill:#d0b437}.st103{fill:#6c3a2f}.st104{fill:#81473b}.st105{fill:#a16a06}.st106{fill:#9a6402}.st107{fill:#e2ad3b}.st108{fill:#a8740e}.st109{fill:#572f27}.st110{fill:#5b3027}.st111{fill:#ac7815}.st112{fill:#6a3f36}.st113{fill:#daa535}.st114{fill:#a36a01}.st115{fill:#a16801}.st116{fill:#774338}.st117{fill:#9f6b44}.st118{fill:#dccb55}.st119{fill:#cd972b}.st120{fill:#dbc94d}.st121{fill:#ab7d70}.st122{fill:#ecb842}.st123{fill:#c78f22}.st124{fill:#ba8116}.st125{fill:#c89023}.st126{fill:#d7a232}.st127{fill:#6c4035}.st128{fill:#bb8217}.st129{fill:#d0b13c}.st130{fill:#b88319}.st131{fill:#b0760b}.st132{fill:#986813}.st133{fill:#dccc5d}.st134{fill:#79493d}.st135{fill:#9c6a09}.st136{fill:#663a2f}.st137{fill:#a58200}.st138{fill:#f4e8b8}.st139{fill:#9c6802}.st140{fill:#a76e05}.st141{fill:#a26902}.st142{fill:#a46d06}.st143{fill:#a66d06}.st144{fill:#dea635}.st145{fill:#d69821}.st146{fill:#d0c80b}.st147{fill:#b98015}.st148{fill:#784c41}.st149{fill:#eab33f}.st150{fill:#9b6505}.st151{fill:#704235}.st152{fill:#76473d}.st153{fill:#ad7611}.st154{fill:#895045}.st155{fill:#e3ac37}.st156{fill:#ae750c}.st157{fill:#d9ac35}.st158{fill:#a66f0b}.st159{fill:#c9a551}.st160{fill:#d3b640}.st161{fill:#916356}.st162{fill:#b17d18}.st163{fill:#d1b93b}.st164{fill:#c08a20}.st165{fill:#d6c048}.st166{fill:#7c4e41}.st167{fill:#8f6559}.st168{fill:#ad7717}.st169{fill:#ad7715}.st170{fill:#b27d17}.st171{fill:#a86f06}.st172{fill:#834f41}.st173{fill:#ab7209}.st174{fill:#d1b740}.st175{fill:#b5801a}.st176{fill:#a36f0a}.st177{fill:#e4d970}.st178{fill:#a67109}.st179{fill:#c49730}.st180{fill:#aa7412}.st181{fill:#e2ab36}.st182{fill:#eebc4d}.st183{fill:#af7a1e}.st184{fill:#bb861e}.st185{fill:#d8c15b}.st186{fill:#a66f0a}.st187{fill:#b67f18}.st188{fill:#79493b}.st189{fill:#bc931f}.st190{fill:#b0770c}.st191{fill:#af760b}.st192{fill:#bf8c23}.st193{fill:#deaa3a}.st194{fill:#d9a537}.st195{fill:#a36c05}.st196{fill:#c39e95}.st197{fill:#af7b18}.st198{fill:#96685b}.st199{fill:#dccd66}.st200{fill:#a4700d}.st201{fill:#d1a02a}.st202{fill:#f4f0ca}.st203{fill:#ae780e}.st204{fill:#a1796f}.st205{fill:#9b690a}.st206{fill:#dbc467}.st207{fill:#a87a1a}.st208{fill:#a8771b}.st209{fill:#b88c2b}.st210{fill:#b98b1b}.st211{fill:#a26b04}.st212{fill:#bd9526}.st213{fill:#eae29a}.st214{fill:#f2efba}.st215{fill:#dcc869}.st216{fill:#f5f2cf}.st217{fill:#fbf9ea}.st218{fill:#caa82d}.st219{fill:#a8710a}.st220{fill:#98690d}.st221{fill:#b78c1c}.st222{fill:#bc902d}.st223{fill:#ba810e}.st224{fill:#f8f6b9}.st225{fill:#a38178}.st226{fill:#bb9832}.st227{fill:#c49e49}.st228{fill:#ba903c}.st229{fill:#d5b73b}.st230{fill:#e3d475}.st231{fill:#f2ecc8}.st232{fill:#ad8176}.st233{fill:#e4cf80}.st234{fill:#845042}.st235{fill:#b68f34}.st236{fill:#d5bf48}.st237{fill:#753f35}.st238{fill:#aa7815}.st239{fill:#a97d72}.st240{fill:#ddcf4c}.st241{fill:#b27c18}.st242{fill:#7c4b3d}.st243{fill:#e3d87f}.st244{fill:#976f63}.st245{fill:#b38516}.st246{fill:#724238}.st247{fill:#ae8215}.st248{fill:#ae8028}.st249{fill:#eee4af}.st250{fill:#caad49}.st251{fill:#d2ba56}.st252{fill:#9a6c17}.st253{fill:#cbb471}.st254{fill:#d9c771}.st255{fill:#b58725}.st256{fill:#e8ddb0}.st257{fill:#a6857c}.st258{fill:#f5c95e}.st259{fill:#af8316}.st260{fill:#cfa344}.st261{fill:#d8a741}.st262{fill:#dab05a}.st263{fill:#cfaf58}.st264{fill:#b08220}.st265{fill:#d5c35d}.st266{fill:#c5aa5b}.st267{fill:#c1902a}.st268{fill:#be9a28}.st269{fill:#a67822}.st270{fill:#977168}.st271{fill:#b28327}.st272{fill:#f9f39b}.st273{fill:#deb253}.st274{fill:#ebe790}.st275{fill:#b57c11}.st276{fill:#e8dca2}.st277{fill:#dac872}.st278{fill:#e5daac}.st279{fill:#cfb963}.st280{fill:#ae750e}.st281{fill:#c09f2c}.st282{fill:#e0d36d}.st283{fill:#e8e57a}.st284{fill:#9d7c73}.st285{fill:#d0b750}.st286{fill:#b47b12}.st287{fill:#b98927}.st288{fill:#c1a333}.st289{fill:#e9db7a}.st290{fill:#b48630}.st291{fill:#a77009}.st292{fill:#f0e79a}.st293{fill:#7c5246}.st294{fill:#936158}.st295{fill:#c69127}.st296{fill:#c08b23}.st297{fill:#b99332}.st298{fill:#b68e1f}.st299{fill:#b58320}.st300{fill:#be972e}.st301{fill:#7f493d}.st302{fill:#a6700c}.st303{fill:#6d4138}.st304{fill:#d3c062}.st305{fill:#6c3d33}.st306{fill:#ac770f}.st307{fill:#bb841f}.st308{fill:#6b3c32}.st309{fill:#b48223}.st310{fill:#693a30}.st311{fill:#c98c19}.st312{fill:#8a561c}.st313{fill:#a87411}.st314{fill:#b87f14}.st315{fill:#b38822}.st316{fill:#63342c}.st317{fill:#ab7610}.st318{fill:#b88011}.st319{fill:#b2780c}.st320{fill:#69372c}.st321{fill:#5a2f28}.st322{fill:#b07608}.st323{fill:#744035}.st324{fill:#ad7307}.st325{fill:#b37b0e}.st326{fill:#5c3128}.st327{fill:#b78b1e}.st328{fill:#af7b15}.st329{fill:#e2d98a}.st330{fill:#d0bb5e}.st331{fill:#bf861b}.st332{fill:#c58d1e}.st333{fill:#c38a1f}.st334{fill:#bf8718}.st335{fill:#ac7a1b}.st336{fill:#b07d21}.st337{fill:#bc8415}.st338{fill:#502721}.st339{fill:#b17f20}.st340{fill:#512822}.st341{fill:#d1921e}.st342{fill:#c68e1d}.st343{fill:#4e251f}.st344{fill:#bc871f}.st345{fill:#6a382d}.st346{fill:#633329}.st347{fill:#61322a}.st348{fill:#b58a2e}.st349{fill:#67322a}.st350{fill:#cc9427}.st351{fill:#ca8d1a}.st352{fill:#cc9725}.st353{fill:#d49f2d}.st354{fill:#b18429}.st355{fill:#c1881d}.st356{fill:#cd9524}.st357{fill:#d29c2f}.st358{fill:#c0871e}.st359{fill:#d5a036}.st360{fill:#e2ad3d}.st361{fill:#e9b442}.st362{fill:#eab541}.st363{fill:#dca737}.st364{fill:#e2ad39}.st365{fill:#e3ae3e}.st366{fill:#dba538}.st367{fill:#d09a2d}.st368{fill:#dda838}.st369{fill:#cc8f1a}.st370{fill:#dea62f}.st371{fill:#d69b25}.st372{fill:#dea532}.st373{fill:#d69a28}.st374{fill:#e7b23e}.st375{fill:#e0a935}.st376{fill:#cc8a19}.st377{fill:#e9b545}.st378{fill:#d99e2a}.st379,.st380,.st381,.st382,.st383{fill:none;stroke:#000;stroke-width:.8451;stroke-linecap:round;stroke-linejoin:round}.st380{stroke-dasharray:1.8217,1.8217}.st381{stroke-dasharray:1.7862,1.7862}.st382{stroke-dasharray:1.8553,1.8553}.st383{stroke-dasharray:1.7703,1.7703}.st384,.st385{fill:none;stroke:#000;stroke-width:3.8027;stroke-miterlimit:10}.st385{stroke-width:2.5819;stroke-linecap:round;stroke-linejoin:round}</style><g id="Layer_2"><path d="M92.7 95.7c0 3.8-.9 6.5-2.7 8.2-1.6 1.6-4.2 2.4-7.6 2.4-3.4 0-5.9-.8-7.6-2.4-1.8-1.7-2.7-4.4-2.7-8.2V81.3h3.5v14.4c0 2.8.6 4.8 1.7 5.8 1 .9 2.7 1.4 5.1 1.4 2.4 0 4.1-.5 5.1-1.4 1.1-1.1 1.7-3 1.7-5.8V81.3h3.5v14.4zm19.5 10.3h-3.4V96c0-1.6-.3-2.8-.9-3.5-.6-.7-1.6-1-2.9-1-2.1 0-3.9 1-5.2 3.1V106h-3.4V88.5h3.4v1.9c1.7-1.4 3.5-2.1 5.5-2.1 4.7 0 7 2.6 7 7.8v9.9zm7.5-21h-3.4v-3.6h3.4V85zm0 21h-3.5V88.6h3.5V106zm14.1-14.3h-4.3v10c0 .5 0 .8.1 1 .2.3.5.4.9.4h3.1v3.2h-3.2c-1.6 0-2.7-.4-3.3-1.2-.7-.8-1-2-1-3.7v-9.7H123v-3.2h3.1v-4.6h3.4v4.6h4.3v3.2zm17.8-3.1l-7.1 18.2c-.6 1.5-1.4 2.6-2.4 3.2-1 .6-2.5 1-4.4 1v-3.4c1.1 0 1.9-.1 2.3-.3.5-.2 1-.8 1.4-1.8l.5-1.4-6.1-15.6h3.7l4.3 10.9 4.3-10.9h3.5zm3.1-8.6h10v11h-2.1v4.6h3v3h-3v5.8c1.4-.3 2.8-.7 4.1-1v2.8c-3.6 1.1-7.7 2.1-12.4 3l-.8-2.9c.5-.1.9-.1 1.3-.2V93.4h2.6v12.1c.8-.2 1.5-.3 2.2-.5V90.9h-5V80zm7.1 8.3v-5.7h-4.2v5.7h4.2zm4.1-6.3h6.8c.5-1 1-2.2 1.4-3.4l2.9.4c-.4 1.1-.8 2.1-1.2 3h8.9v2.6h-5.8c.5.7 1.2 1.4 1.9 2 1 .8 2.4 1.7 4.1 2.7l-2 2.5c-1.1-.7-2.1-1.4-2.9-2.1v2h-10.6v-1.3c-.7.6-1.5 1.3-2.4 1.9l-2-2.5c2.6-1.7 4.6-3.3 5.8-5l.1-.1h-5.1V82zm.5 12h17.8v2.9h-11.1l-.8 2.5h10.1c-.2 3.7-.5 6.1-.8 7.2-.2.8-.6 1.4-1.1 1.7-.7.5-2.1.7-4.1.7H172l-.9-3.2c1.4.2 2.8.3 4.4.3 1.7 0 2.7-.2 2.9-.5.3-.3.6-1.4.8-3.4h-10.8l1.6-5.3h-3.4V94zm4.7-5.2h8l-1-1c-.9-.9-1.7-2-2.3-3.2h-1.4c-.2.4-.5.8-.8 1.2-.6 1-1.5 2-2.5 3zm17.9-8.7h28v2.8h-12.6v12h13.8v2.9h-13.8v11.8h-3.1V97.8h-13.5v-2.9h13.5v-12H189v-2.8zm4.7 4.5c1.1 2.3 2.2 4.8 3.3 7.5l-3 1.5c-1-2.8-2.1-5.4-3.2-7.7l2.9-1.3zm18.5 0l2.9 1.3c-1 2.6-2.2 5.2-3.8 7.7l-2.9-1.5c1.6-2.6 2.9-5.1 3.8-7.5zm20.1-6.2l3.1 1.2c-2.2 4.1-4.4 7.5-6.7 10.1.7 0 1.3.1 1.7.1 5.1 0 10.1-.4 15.1-1.2-1.2-1.7-2.6-3.4-4.2-5.1l2.4-2.2c3.2 3.5 5.9 7.1 8 10.5l-2.5 2.5c-.5-1-1.1-1.9-1.8-2.9-6.7 1-14.9 1.5-24.5 1.6l-.6-3.7c1.2.1 2.2.2 3.1.3 2.3-2.8 4.6-6.5 6.9-11.2zm16.9 16.9v14.4h-3.3v-2.1H228v2h-3.3V95.3h24.5zm-21.2 9.4h17.9v-6.5H228v6.5zm41.3-25.1V91H259v18.6h-3v-30h13.3zM259 84.1h7.3v-2H259v2zm0 4.3h7.3v-2.3H259v2.3zm2.8 4.1h17.4V95h-3.8v3.5h4.8v2.5h-4.8v7.1h-2.9V101h-3.9c-.1 1.4-.5 2.6-1.1 3.5-.7 1.3-2.1 2.5-4.3 3.8l-2.5-2.1c1.9-.9 3.2-1.8 4-2.8.5-.6.8-1.4.9-2.5h-4.9v-2.5h5V95h-4v-2.5zm10.6 6.1V95h-3.8v3.5h3.8zm.7-19h12v26.3c0 1.1-.3 2-.9 2.5-.6.5-1.5.8-2.7.8h-3.2l-.6-3 3.3.1c.8 0 1.2-.5 1.2-1.3V91h-10.4V79.6h1.3zm1.5 4.5h7.5v-2h-7.5v2zm7.5 4.3v-2.3h-7.5v2.3h7.5zm9.9-8.8h12.7c.7.9 1.7 1.7 2.9 2.6.6-.4 1.2-.8 1.8-1.4.7-.6 1.3-1.4 1.9-2.3l2.5 1.5c-.8 1.2-1.5 2.2-2.2 2.8-.4.4-.8.7-1.2 1 .6.3 1.3.7 2 1 .7-.4 1.3-.9 1.9-1.5.7-.7 1.4-1.5 2.1-2.6l2.5 1.5c-.8 1.4-1.6 2.4-2.4 3.1-.3.3-.6.6-1 .9 1.5.6 3.2 1.2 5 1.8l-1.9 2.6c-1.4-.5-2.7-1-3.8-1.5v3.4c0 .7.3 1 1 1h3v2.6h-3.7c-1.1 0-1.9-.2-2.5-.7-.6-.5-.8-1.3-.8-2.4v-1.6h-3.1c-.1 1.3-.3 2.2-.6 2.8-.4.7-1.4 1.6-3.1 2.6l-2.2-1.8c1.4-.9 2.3-1.7 2.6-2.2.3-.5.4-1.8.4-3.9h8.6c-1.8-.8-3.4-1.5-4.8-2.3-2.1-1.2-3.9-2.4-5.4-3.8-.9 1.4-2 2.5-3.3 3.4-1 .8-2.8 1.7-5.2 2.7h6.4v7.7h-6.5l-.3 2.6h7.1c-.1 4.2-.4 6.8-.9 7.9-.6 1.3-1.9 2-4 2h-5.2l-.5-3.2c2.6.2 4.6.3 5.9.3.6 0 1-.3 1.3-.8.2-.6.4-1.9.4-3.7h-7.5l.9-7.7h6.2v-2.6h-6.2V90c-.8.3-1.7.6-2.6.9l-1.6-3c2-.4 3.7-.8 5.1-1.3-.7-.8-1.6-1.6-2.5-2.4l2.2-1.5c1.4 1 2.5 1.9 3.4 2.7l.6-.3c1.6-.7 2.9-1.7 3.9-2.9H292v-2.6zm12.4 17.7h12v2.3c-1 2-2.3 3.8-4 5.3 1.9.8 4.4 1.4 7.4 2l-1.9 2.6c-3.5-.8-6.2-1.7-8-2.6-1.8 1.2-3.8 2.2-6 2.7l-1.3-2.7c1.8-.4 3.3-.9 4.6-1.7-1.4-1-2.7-2.1-3.7-3.3l2.5-1.5c1 1.2 2.2 2.2 3.6 3 1.1-1 2-2.2 2.9-3.6h-8.2v-2.5z" class="st0"/><path class="st1" d="M55 243.4h125.7v64.1H55z"/><path d="M60.1 243.8h7v7.6h-1.5v3.2h2.1v2.1h-2.1v4c1-.2 1.9-.5 2.8-.7v1.9c-2.5.8-5.4 1.5-8.6 2.1l-.5-2c.3 0 .6-.1.9-.2v-8.7H62v8.4l1.5-.3v-9.8H60v-7.6zm4.9 5.7v-3.9h-2.9v3.9H65zm2.8-4.4h4.7c.4-.7.7-1.5 1-2.4l2 .3c-.3.8-.5 1.5-.8 2.1h6.2v1.8h-4c.4.5.8.9 1.3 1.4.7.6 1.6 1.2 2.9 1.9l-1.4 1.7c-.8-.5-1.4-1-2-1.5v1.4h-7.3v-.9c-.5.4-1.1.9-1.6 1.3l-1.4-1.7c1.8-1.2 3.2-2.3 4.1-3.4H68v-2zm.4 8.4h12.4v2h-7.7l-.6 1.7h7c-.2 2.6-.4 4.2-.6 5-.2.5-.4.9-.8 1.2-.5.3-1.4.5-2.9.5h-3l-.7-2.2c1 .1 2 .2 3 .2 1.2 0 1.9-.1 2-.4.2-.2.4-1 .5-2.4h-7.5l1.1-3.7H68v-1.9zm3.2-3.6H77c-.3-.2-.5-.5-.7-.7-.6-.6-1.2-1.4-1.6-2.2h-.9c-.2.3-.4.6-.5.8-.5.7-1.1 1.4-1.9 2.1zm12.5-6.1h19.4v1.9h-8.7v8.3h9.5v2h-9.5v8.2h-2.2V256H83v-2h9.4v-8.3h-8.5v-1.9zm3.3 3.2c.8 1.6 1.5 3.3 2.3 5.2l-2.1 1c-.7-2-1.4-3.7-2.2-5.3l2-.9zm12.8 0l2 .9c-.7 1.8-1.6 3.6-2.6 5.3l-2-1c1.1-1.8 1.9-3.5 2.6-5.2zm13.9-4.3l2.2.8c-1.5 2.9-3 5.2-4.6 7h1.1c3.5 0 7-.3 10.5-.8-.9-1.2-1.8-2.4-2.9-3.6l1.7-1.5c2.2 2.5 4.1 4.9 5.6 7.3l-1.7 1.7c-.4-.7-.8-1.3-1.2-2-4.6.7-10.3 1.1-17 1.1l-.4-2.6c.8.1 1.5.1 2.2.2 1.3-1.8 2.9-4.4 4.5-7.6zm11.7 11.7v10h-2.3v-1.5h-12.5v1.4h-2.3v-9.9h17.1zm-14.7 6.5h12.5v-4.5h-12.5v4.5zm34.8.9h-2.6l-1.9-4.7h-7.6l-1.9 4.7h-2.6l7.1-17.1h2.4l7.1 17.1zm-5.5-6.9l-2.8-6.9-2.8 6.9h5.6zm20.5-5.4c0 1.5-.6 2.7-1.7 3.6-1.1.8-2.5 1.3-4.2 1.3h-5.1v7.4h-2.4v-17.1h7.5c1.8 0 3.2.4 4.3 1.2 1 .8 1.6 2.1 1.6 3.6zm-2.5 0c0-1.8-1.2-2.6-3.5-2.6h-5.1v5.3h5.1c2.3 0 3.5-.9 3.5-2.7zm18.1 0c0 1.5-.6 2.7-1.7 3.6-1.1.8-2.5 1.3-4.2 1.3h-5.1v7.4h-2.4v-17.1h7.5c1.8 0 3.2.4 4.3 1.2 1 .8 1.6 2.1 1.6 3.6zm-2.5 0c0-1.8-1.2-2.6-3.5-2.6h-5.1v5.3h5.1c2.3 0 3.5-.9 3.5-2.7zM72 281.8h5.1v1.5c-.6 1.3-1.5 2.6-2.5 4h2.6v1.3c-.3 1.8-.7 3.2-1.1 4.1v.1c.9.8 1.7 1.4 2.3 1.6.5.2 1.3.4 2.3.5 1.2.1 3.5.2 6.9.3 2.5 0 4.4-.1 5.7-.2l-.3 2.2c-6.7 0-10.8-.1-12.2-.2-1.3-.2-2.4-.4-3.2-.7-.7-.3-1.5-.9-2.3-1.7-.5 1-1.2 2-2 3l-1.5-1.6c1-1.3 1.8-2.3 2.2-3.3.4-.6.8-1.8 1.2-3.6h-3v-1.7c.8-1 1.7-2.3 2.5-3.8H72v-1.8zm2.1-5.2c1 1 1.9 2.1 2.7 3.1l-1.4 1.4c-.6-1-1.4-2.1-2.6-3.3l1.3-1.2zm7.2-.4c.4.8.7 1.7 1 2.8h2.6v1.6c.5-.5.9-1 1.3-1.5.5-.8 1-1.8 1.4-3l1.9.7c-.3.8-.6 1.5-.9 2h4.6v2h-5.8c-.5.6-1.1 1.3-1.9 2.1l-1.6-1.4c.2-.2.5-.4.7-.6h-3.4v2.1h3.5c-.1 5.4-.3 8.3-.5 8.8-.1.7-.3 1.1-.6 1.4-.3.3-.7.5-1.4.6-.7 0-1.3 0-1.7-.1l-.4-2c1 .1 1.7.2 1.8.2.2 0 .4-.2.4-.5.1-.3.2-2.4.3-6.4H81c-.1 1.1-.2 2.1-.4 3-.3 1.9-1 3.8-1.9 5.7l-1.7-1.5c.8-1.5 1.4-3.1 1.7-4.8.3-1.4.4-3.6.4-6.4h-1.5v-2h2.7c-.3-.9-.7-1.7-1.1-2.5l2.1-.3zm4.8 6.3h6.4v1.5c-.7.9-1.4 1.8-2.4 2.7v.6h3.2v1.9h-3.2v3c0 .5-.1 1-.4 1.4-.4.4-.8.6-1.3.6h-2.1l-.6-2.1c.7.1 1.3.2 1.8.2.4 0 .6-.2.6-.5v-2.5h-2.6v-1.9h2.6v-.8c.6-.5 1.3-1.2 1.9-2.1h-3.9v-2zm14.1-6.4h1.9v.8h5.7v1.5h-5.7v1h6c-.2 1.4-.5 2.8-1 4.2l-2-.6c.3-.5.6-1.2.8-2h-3.4v.9l2.5-.4.2 1.3-2.6.4v.5c0 .3.2.4.7.4h3.2v1.4h-3.7c-.7 0-1.2-.1-1.5-.3-.4-.2-.6-.6-.6-1.1v-.7l-2 .3-.2-1.3 2.2-.4v-1.2h-2.5v4.1c0 1.9-.1 3.9-.3 6-.2 2.1-.5 4.2-1 6.3l-1.6-1.5c.4-1.7.7-3.5.8-5.4.1-2 .2-3.8.2-5.4v-5.8h3.9v-3zm1.3 17c.2.6.5 1.3.7 2 .4 0 .9-.1 1.2-.1.3-.6.5-1.3.7-1.9l1.8.2c-.2.6-.3 1.1-.6 1.6.8-.1 1.6-.2 2.3-.3v1.6c-1.8.4-5 .7-9.5 1l-.3-1.9c.9 0 1.7 0 2.5-.1-.2-.7-.5-1.3-.7-1.9l1.9-.2zm-2.8-6.7h8.5v1.5h-8.5v-1.5zm.3 2.4h7.7v3.9H99v-3.9zm5.9 2.5v-1.2h-4v1.2h4zm11.6-9.2l.3 1.9-5.1.9c.1 1.7.3 3.3.5 4.5 0 .2.1.4.1.7.8-1.3 1.6-3 2.4-4.9l1.7 1c-1 2.5-2 4.4-3 5.8-.1.2-.3.4-.4.6.1.3.3.7.4 1 .6 1.2 1 1.8 1.3 1.8.1 0 .3-1 .5-3.1l1.7 1.3c-.5 1.9-.9 3.1-1.2 3.5-.3.3-.7.5-1.1.5-.9 0-1.8-.8-2.6-2.4-.2-.3-.3-.5-.4-.8-.7.9-1.6 1.8-2.5 2.6l-1.1-1.8c1-.7 1.9-1.7 2.8-2.9-.3-1-.5-2-.7-3.2-.2-1.2-.4-2.4-.5-3.8l-2.1.4-.3-1.9 2.3-.4c0-1.1-.1-2.2-.1-3.4v-3.6h2v6.7l5.1-1zm-2.4-4.7c1 1.2 1.8 2.2 2.3 3.1l-1.7 1.2c-.5-1-1.2-2.1-2-3.4l1.4-.9zm7.2-1.3l1.8.4c-.2.4-.4.8-.5 1.1h1.9v-1.5h2.1v1.5h4.9v1.5h-4.9v1.1h5.4v1.6h-5.4v1.2h4.9v2.6c0 .6-.2 1-.6 1.3-.3.3-.8.4-1.4.4h-1.6l-.4-1.5 1.3.1c.4 0 .7-.2.7-.7v-.5h-2.9v3.7h-2.1v-3.7h-2.6v2.9h-2v-4.5h4.6v-1.2h-5.2v-1.6h.9l-1.4-.9c1.2-1.1 2-2.2 2.5-3.3zm8.9 11.3c.3.4.5.9.8 1.5h9v1.8h-7.9c.7.9 1.4 1.6 2 2.1.4-.2.8-.4 1.1-.6.5-.3.9-.7 1.4-1.2l1.6.9c-.6.7-1.1 1.2-1.6 1.6-.3.2-.5.4-.8.5 1.2.6 2.7 1.2 4.5 1.8l-1.1 1.9c-2.5-.9-4.3-1.8-5.5-2.7-1.3-1-2.5-2.4-3.7-4.3h-1c-.7.6-1.4 1.2-2.1 1.6v2.9c1.8-.2 3.4-.4 4.8-.7v1.7c-1.7.5-4.7 1-9.1 1.4l-.3-2.1c.9 0 1.7-.1 2.5-.1v-2c-1.4.6-2.9 1.1-4.5 1.6l-1.1-1.8c2.3-.5 4.1-1.1 5.3-1.6.6-.3 1.1-.5 1.6-.8H119V289h9.9c-.3-.4-.5-.8-.8-1.2l2.1-.4zm-5.7-7.3V279h-2.9c-.3.4-.6.7-1 1.1h3.9zm8.7-2.8h2.1v6.9h-2.1v-6.9zm3.8-1.2h2.1v9.7c0 .7-.2 1.2-.6 1.5-.3.3-.9.5-1.8.5h-2.5l-.4-2c.9.1 1.7.2 2.3.2.5 0 .8-.1.8-.4v-9.5zm10.1-.1l1.9.8c-.6 1.9-1.3 3.5-1.9 4.8v15.8H145v-12.3c-.6.9-1.3 1.8-2.1 2.7l-.7-2.6c1-1.3 1.9-2.6 2.7-3.9.7-1.2 1.5-3 2.2-5.3zm5.6 0l2.3.4c-.4 1-.8 2-1.1 2.9h9.7v2.1h-8.2v3.2h7.6v2.1h-7.6v3.6h7.6v2.1h-7.6v4.9h-2.2v-15.9h-.2c-1 2.1-2 3.8-3 5.1l-1.7-1.9c1.9-2.5 3.4-5.4 4.4-8.6z" class="st0"/><path class="st1" d="M211.8 243.4h158.4v68.3H211.8z"/><path d="M245.2 248.4h5.1v1.5c-.6 1.3-1.5 2.6-2.5 4h2.6v1.3c-.3 1.8-.7 3.2-1.1 4.1v.1c.9.8 1.7 1.4 2.3 1.6.5.2 1.3.4 2.3.5 1.2.1 3.5.2 6.9.3 2.5 0 4.4-.1 5.7-.2l-.3 2.2c-6.7 0-10.8-.1-12.2-.2-1.3-.2-2.4-.4-3.2-.7-.7-.3-1.5-.9-2.3-1.7-.5 1-1.2 2-2 3l-1.5-1.6c1-1.3 1.8-2.3 2.2-3.3.4-.6.8-1.8 1.2-3.6h-3V254c.8-1 1.7-2.3 2.5-3.8h-2.8v-1.8zm2.1-5.2c1 1 1.9 2.1 2.7 3.1l-1.4 1.4c-.6-1-1.4-2.1-2.6-3.3l1.3-1.2zm7.2-.4c.4.8.7 1.7 1 2.8h2.6v1.6c.5-.5.9-1 1.3-1.5.5-.8 1-1.8 1.4-3l1.9.7c-.3.8-.6 1.5-.9 2h4.6v2h-5.8c-.5.6-1.1 1.3-1.9 2.1l-1.6-1.4c.2-.2.5-.4.7-.6h-3.4v2.1h3.5c-.1 5.4-.3 8.3-.5 8.8-.1.7-.3 1.1-.6 1.4-.3.3-.7.5-1.4.6-.7 0-1.3 0-1.7-.1l-.4-2c1 .1 1.7.2 1.8.2.2 0 .4-.2.4-.5.1-.3.2-2.4.3-6.4h-1.6c-.1 1.1-.2 2.1-.4 3-.3 1.9-1 3.8-1.9 5.7l-1.7-1.5c.8-1.5 1.4-3.1 1.7-4.8.3-1.4.4-3.6.4-6.4h-1.5v-1.9h2.7c-.3-.9-.7-1.7-1.1-2.5l2.1-.4zm4.8 6.4h6.4v1.5c-.7.9-1.4 1.8-2.4 2.7v.6h3.2v1.9h-3.2v3c0 .5-.1 1-.4 1.4-.4.4-.8.6-1.3.6h-2.1l-.6-2.1c.7.1 1.3.2 1.8.2.4 0 .6-.2.6-.5V256h-2.6v-1.9h2.6v-.8c.6-.5 1.3-1.2 1.9-2.1h-3.9v-2zm14.1-6.4h1.9v.8h5.7v1.5h-5.7v1h6c-.2 1.4-.5 2.8-1 4.2l-2-.6c.3-.5.6-1.2.8-2h-3.4v.9l2.5-.4.2 1.3-2.6.4v.5c0 .3.2.4.7.4h3.2v1.4H276c-.7 0-1.2-.1-1.5-.3-.4-.2-.6-.6-.6-1.1v-.7l-2 .3-.2-1.3 2.2-.4v-1.2h-2.5v4.1c0 1.9-.1 3.9-.3 6-.2 2.1-.5 4.2-1 6.3l-1.6-1.5c.4-1.7.7-3.5.8-5.4.1-2 .2-3.8.2-5.4V246h3.9v-3.2zm1.3 16.9c.2.6.5 1.3.7 2 .4 0 .9-.1 1.2-.1.3-.6.5-1.3.7-1.9l1.8.2c-.2.6-.3 1.1-.6 1.6.8-.1 1.6-.2 2.3-.3v1.6c-1.8.4-5 .7-9.5 1l-.3-1.9c.9 0 1.7 0 2.5-.1-.2-.7-.5-1.3-.7-1.9l1.9-.2zm-2.8-6.7h8.5v1.5h-8.5V253zm.3 2.4h7.7v3.9h-7.7v-3.9zm5.9 2.6v-1.2h-4v1.2h4zm11.6-9.3l.3 1.9-5.1.9c.1 1.7.3 3.3.5 4.5 0 .2.1.4.1.7.8-1.3 1.6-3 2.4-4.9l1.7 1c-1 2.5-2 4.4-3 5.8-.1.2-.3.4-.4.6.1.3.3.7.4 1 .6 1.2 1 1.8 1.3 1.8.1 0 .3-1 .5-3.1l1.7 1.3c-.5 1.9-.9 3.1-1.2 3.5-.3.3-.7.5-1.1.5-.9 0-1.8-.8-2.6-2.4-.2-.3-.3-.5-.4-.8-.7.9-1.6 1.8-2.5 2.6l-1.1-1.8c1-.7 1.9-1.7 2.8-2.9-.3-1-.5-2-.7-3.2-.2-1.2-.4-2.4-.5-3.8l-2.1.4-.3-1.9 2.3-.4c0-1.1-.1-2.2-.1-3.4V243h2v6.7l5.1-1zm-2.4-4.7c1 1.2 1.8 2.2 2.3 3.1l-1.7 1.2c-.5-1-1.2-2.1-2-3.4l1.4-.9zm4.9.2h7.1v2h-2.6v4.8h2.4v2h-2.4v5.4c1-.4 1.9-.8 2.7-1.2v2.1c-2.1 1.1-4.4 2-7.1 2.9l-.6-2.2c1-.3 2-.6 2.9-.9V253h-2.3v-2h2.3v-4.8h-2.5v-2zm8 8.2h12.2v4.9h-4.6c.5.9 1 1.6 1.4 2.2.7-.7 1.3-1.3 1.7-1.9l1.7 1c-.5.6-1.2 1.4-2.3 2.2.8.6 1.8 1.2 3.1 1.8l-1.1 1.8c-1.8-.9-3-1.8-3.9-2.7-.9-1-1.8-2.5-2.6-4.5h-.7c-.2.3-.4.6-.6.8v3.9c1-.1 2-.3 3.1-.5v1.9c-2 .4-4.2.7-6.7 1l-.3-1.9c.6 0 1.3-.1 1.9-.2V260c-1.2.9-2.5 1.7-3.9 2.3l-1-1.7c1.6-.6 2.8-1.3 3.8-2 .5-.4 1-.9 1.4-1.3h-2.7v-4.9zm-.8-2.8h13.8v1.7h-13.8v-1.7zm.5-6.2h12.7v5.2h-12.7v-5.2zm4 3.6v-2H302v1.9h1.9zm6.4 8.6V254h-8v1.5h8zm-3.1-8.6v-2h-1.6v1.9h1.6zm3.5 0v-2h-1.8v1.9h1.8zm4.7 2.1h2.4v-6.3h2v6.3h2.1v1.9h-2.1v6.3c.8-.4 1.6-.9 2.4-1.4v2.1c-1.8 1.2-4 2.3-6.4 3.5l-.5-2.5c.9-.2 1.7-.5 2.6-.8V251h-2.4v-1.9zm7.8 1.9h12.4v7.3h-3.3v3c0 .5.3.7.8.7h1.1c.2 0 .4-.1.6-.3.1-.2.2-1.1.3-2.6l2 .6c-.2 2.1-.4 3.3-.8 3.7-.3.4-.9.6-1.8.6h-2.2c-.6 0-1.1-.2-1.5-.5-.4-.4-.6-.9-.6-1.5v-3.7H328c-.3 1.5-.8 2.7-1.7 3.7-.9 1-2.5 1.8-4.8 2.3l-.8-2c1.9-.4 3.2-1 4-1.7.6-.5 1-1.3 1.2-2.3h-2.7V251zm6.5-8.2c.3.5.6 1.2.8 1.8h5.6v1.7h-2.3c-.2.6-.4 1.3-.6 1.8h3.6v1.8h-14.6v-1.8h3.6c-.3-.7-.5-1.3-.8-1.8h-2.1v-1.7h5.2c-.2-.5-.5-1-.8-1.5l2.4-.3zm-4.5 11.1h8.3v-1.2h-8.3v1.2zm8.4 2.7v-1.2h-8.3v1.2h8.3zm-5.6-8.4h3c.3-.6.5-1.2.7-1.8h-4.3c.2.5.4 1.1.6 1.8zm-73.1 28.7v7.9h-7.1v12.9h-2.1v-20.8h9.2zm-7.2 3.1h5v-1.4h-5v1.4zm0 3h5v-1.6h-5v1.6zm2 2.8h12.1v1.7h-2.6v2.5h3.3v1.8h-3.3v4.9h-2v-4.9h-2.7c-.1 1-.3 1.8-.8 2.5-.5.9-1.5 1.8-3 2.6l-1.7-1.5c1.3-.6 2.2-1.3 2.8-1.9.4-.4.6-1 .7-1.7h-3.4V290h3.5v-2.5h-2.7v-1.7zm7.4 4.2v-2.5h-2.6v2.5h2.6zm.4-13.1h8.3v18.2c0 .8-.2 1.4-.7 1.8-.4.4-1 .5-1.9.5H261l-.4-2.1 2.3.1c.5 0 .8-.3.8-.9v-9.7h-7.2v-7.9h1zm1.1 3.1h5.2v-1.4h-5.2v1.4zm5.2 3v-1.6h-5.2v1.6h5.2zm6.8-6.1h8.8c.5.6 1.2 1.2 2 1.8l1.2-.9c.5-.4.9-.9 1.3-1.6l1.7 1c-.5.8-1.1 1.5-1.5 2-.2.2-.5.5-.8.7.4.2.9.5 1.4.7.5-.3.9-.6 1.3-1.1.5-.5 1-1.1 1.4-1.8l1.7 1c-.6.9-1.1 1.7-1.7 2.2-.2.2-.4.4-.7.6 1.1.4 2.2.8 3.4 1.2l-1.3 1.8c-1-.3-1.9-.7-2.6-1v2.4c0 .5.2.7.7.7h2.1v1.8h-2.6c-.8 0-1.4-.2-1.7-.5-.4-.3-.6-.9-.6-1.7v-1.1h-2.2c-.1.9-.2 1.5-.4 1.9-.3.5-1 1.1-2.1 1.8l-1.5-1.3c1-.6 1.6-1.1 1.8-1.5.2-.4.3-1.3.3-2.7h6c-1.3-.5-2.4-1.1-3.3-1.6-1.5-.8-2.7-1.7-3.8-2.6-.6 1-1.4 1.7-2.3 2.4-.7.6-1.9 1.2-3.6 1.9h4.4v5.3h-4.5l-.2 1.8h4.9c-.1 2.9-.3 4.7-.7 5.5-.4.9-1.3 1.4-2.8 1.4h-3.6l-.4-2.2c1.8.1 3.2.2 4.1.2.4 0 .7-.2.9-.5.2-.4.3-1.3.3-2.6h-5.2l.6-5.3h4.3v-1.8h-4.3v-1l-1.8.6-1.1-2.1c1.4-.3 2.5-.6 3.6-.9l-1.7-1.7 1.5-1c1 .7 1.8 1.3 2.4 1.9.2-.1.3-.1.4-.2 1.1-.5 2-1.2 2.7-2h-6.4v-1.9zm8.7 12.2h8.3v1.6c-.7 1.4-1.6 2.6-2.8 3.7 1.3.5 3 1 5.2 1.4l-1.3 1.8c-2.5-.6-4.3-1.2-5.6-1.8-1.3.9-2.6 1.5-4.2 1.9l-.9-1.9c1.2-.3 2.3-.6 3.2-1.1-1-.7-1.9-1.5-2.6-2.3l1.7-1c.7.8 1.5 1.5 2.5 2.1.8-.7 1.4-1.5 2-2.5h-5.7v-1.9zm15.2-13l1.8.4c-.2.4-.4.8-.5 1.1h1.9v-1.5h2.1v1.5h4.9v1.5h-4.9v1.1h5.4v1.6h-5.4v1.2h4.9v2.6c0 .6-.2 1-.6 1.3-.3.3-.8.4-1.4.4h-1.6l-.4-1.5 1.3.1c.4 0 .7-.2.7-.7v-.5h-2.9v3.7h-2.1v-3.7h-2.6v2.9h-2v-4.5h4.6v-1.2h-5.2v-1.6h.9l-1.4-.9c1.2-1.1 2-2.2 2.5-3.3zm8.9 11.3c.3.4.5.9.8 1.5h9v1.8h-7.9c.7.9 1.4 1.6 2 2.1.4-.2.8-.4 1.1-.6.5-.3.9-.7 1.4-1.2l1.6.9c-.6.7-1.1 1.2-1.6 1.6-.3.2-.5.4-.8.5 1.2.6 2.7 1.2 4.5 1.8l-1.1 1.9c-2.5-.9-4.3-1.8-5.5-2.7-1.3-1-2.5-2.4-3.7-4.3h-1.1c-.7.6-1.4 1.2-2.1 1.6v2.9c1.8-.2 3.4-.4 4.8-.7v1.7c-1.7.5-4.7 1-9.1 1.4l-.3-2.1c.9 0 1.7-.1 2.5-.1v-2c-1.4.6-2.9 1.1-4.5 1.6l-1.1-1.8c2.3-.5 4.1-1.1 5.3-1.6.6-.3 1.1-.5 1.6-.8h-7.1V289h9.9c-.3-.4-.5-.8-.8-1.2l2.2-.4zm-5.7-7.3V279h-2.9c-.3.4-.6.7-1 1.1h3.9zm8.7-2.8h2.1v6.9h-2.1v-6.9zm3.8-1.2h2.1v9.7c0 .7-.2 1.2-.6 1.5-.3.3-.9.5-1.8.5h-2.5l-.4-2c.9.1 1.7.2 2.3.2.5 0 .8-.1.8-.4v-9.5zm10.1-.1l1.9.8c-.6 1.9-1.3 3.5-1.9 4.8v15.8h-2.1v-12.3c-.6.9-1.3 1.8-2.1 2.7l-.7-2.6c1-1.3 1.9-2.6 2.7-3.9.7-1.2 1.5-3 2.2-5.3zm5.6 0l2.3.4c-.4 1-.8 2-1.1 2.9h9.7v2.1h-8.2v3.2h7.6v2.1h-7.6v3.6h7.6v2.1h-7.6v4.9h-2.2v-15.9h-.2c-1 2.1-2 3.8-3 5.1l-1.7-1.9c1.9-2.5 3.4-5.4 4.4-8.6z" class="st0"/><path class="st1" d="M55 423.4h125.7V494H55z"/><path d="M60.3 428.4h5.1v1.5c-.6 1.3-1.5 2.6-2.5 4h2.6v1.3c-.3 1.8-.7 3.2-1.1 4.1v.1c.9.8 1.7 1.4 2.3 1.6.5.2 1.3.4 2.3.5 1.2.1 3.5.2 6.9.3 2.5 0 4.4-.1 5.7-.2l-.3 2.2c-6.7 0-10.8-.1-12.2-.2-1.3-.2-2.4-.4-3.2-.7-.7-.3-1.5-.9-2.3-1.7-.5 1-1.2 2-2 3l-1.5-1.6c1-1.3 1.8-2.3 2.2-3.3.4-.6.8-1.8 1.2-3.6h-3V434c.8-1 1.7-2.3 2.5-3.8h-2.8v-1.8zm2.1-5.2c1 1 1.9 2.1 2.7 3.1l-1.4 1.4c-.6-1-1.4-2.1-2.6-3.3l1.3-1.2zm7.2-.4c.4.8.7 1.7 1 2.8h2.6v1.6c.5-.5.9-1 1.3-1.5.5-.8 1-1.8 1.4-3l1.9.7c-.3.8-.6 1.5-.9 2h4.6v2h-5.8c-.5.6-1.1 1.3-1.9 2.1l-1.6-1.4c.2-.2.5-.4.7-.6h-3.4v2.1H73c-.1 5.4-.3 8.3-.5 8.8-.1.7-.3 1.1-.6 1.4-.3.3-.7.5-1.4.6-.7 0-1.3 0-1.7-.1l-.4-2c1 .1 1.7.2 1.8.2.2 0 .4-.2.4-.5.1-.3.2-2.4.3-6.4h-1.6c-.1 1.1-.2 2.1-.4 3-.3 1.9-1 3.8-1.9 5.7l-1.7-1.5c.8-1.5 1.4-3.1 1.7-4.8.3-1.4.4-3.6.4-6.4h-1.5v-1.9h2.7c-.3-.9-.7-1.7-1.1-2.5l2.1-.4zm4.8 6.4h6.4v1.5c-.7.9-1.4 1.8-2.4 2.7v.6h3.2v1.9h-3.2v3c0 .5-.1 1-.4 1.4-.4.4-.8.6-1.3.6h-2.1l-.6-2.1c.7.1 1.3.2 1.8.2.4 0 .6-.2.6-.5V436h-2.6v-1.9h2.6v-.8c.6-.5 1.3-1.2 1.9-2.1h-3.9v-2zm14.1-6.4h1.9v.8h5.7v1.5h-5.7v1h6c-.2 1.4-.5 2.8-1 4.2l-2-.6c.3-.5.6-1.2.8-2h-3.4v.9l2.5-.4.2 1.3-2.6.4v.5c0 .3.2.4.7.4h3.2v1.4h-3.7c-.7 0-1.2-.1-1.5-.3-.4-.2-.6-.6-.6-1.1v-.7l-2 .3-.2-1.3 2.2-.4v-1.2h-2.5v4.1c0 1.9-.1 3.9-.3 6-.2 2.1-.5 4.2-1 6.3l-1.6-1.5c.4-1.7.7-3.5.8-5.4.1-2 .2-3.8.2-5.4V426h3.9v-3.2zm1.3 16.9c.2.6.5 1.3.7 2 .4 0 .9-.1 1.2-.1.3-.6.5-1.3.7-1.9l1.8.2c-.2.6-.3 1.1-.6 1.6.8-.1 1.6-.2 2.3-.3v1.6c-1.8.4-5 .7-9.5 1l-.3-1.9c.9 0 1.7 0 2.5-.1-.2-.7-.5-1.3-.7-1.9l1.9-.2zM87 433h8.5v1.5H87V433zm.3 2.4H95v3.9h-7.7v-3.9zm5.9 2.6v-1.2h-4v1.2h4zm11.6-9.3l.3 1.9-5.1.9c.1 1.7.3 3.3.5 4.5 0 .2.1.4.1.7.8-1.3 1.6-3 2.4-4.9l1.7 1c-1 2.5-2 4.4-3 5.8-.1.2-.3.4-.4.6.1.3.3.7.4 1 .6 1.2 1 1.8 1.3 1.8.1 0 .3-1 .5-3.1l1.7 1.3c-.5 1.9-.9 3.1-1.2 3.5-.3.3-.7.5-1.1.5-.9 0-1.8-.8-2.6-2.4-.2-.3-.3-.5-.4-.8-.7.9-1.6 1.8-2.5 2.6l-1.1-1.8c1-.7 1.9-1.7 2.8-2.9-.3-1-.5-2-.7-3.2-.2-1.2-.4-2.4-.5-3.8l-2.1.4-.3-1.9 2.3-.4c0-1.1-.1-2.2-.1-3.4V423h2v6.7l5.1-1zm-2.4-4.7c1 1.2 1.8 2.2 2.3 3.1l-1.7 1.2c-.5-1-1.2-2.1-2-3.4l1.4-.9zm6 .6l1.8.2c-.1 1.1-.2 2.1-.3 3h1.5v-5h2.2v5h2.2v2h5v-2.5h-4.3v-2h4.3v-2.6h2.2v2.6h4.8v2H123v2.5h5.5v2h-2.3v2.3h2.3v2h-2.3v5.6c0 .8-.2 1.4-.6 1.8-.3.4-1 .5-1.9.5h-3.3l-.5-2.3c1.3.1 2.3.2 3.1.2.6 0 .9-.2.9-.5v-5.2h-7.8v-2h7.8v-2.3h-8.4V430h-2v4.5c.8-.2 1.6-.5 2.3-.8v2.1c-.7.3-1.5.6-2.3.8v7.8h-2.2v-7c-1.2.4-2.4.8-3.8 1.2l-.6-2.4c1.5-.2 2.9-.6 4.3-1V430h-1.8c-.2 1.3-.4 2.4-.7 3.4l-2.1-.7c1-2.6 1.5-5.3 1.8-8.1zm10 12c1.2 1.3 2.1 2.5 2.8 3.5l-2.1 1.5c-.6-1.1-1.4-2.4-2.5-3.8l1.8-1.2zm15.8-8.6l1.6.7c-1.1 2.1-2.3 3.8-3.8 5.3l-1.7-1.3c1.5-1.3 2.7-2.9 3.9-4.7zm1.1-5.3c1.3.7 2.3 1.3 3.2 2l-1 1h4.9v1.8h-11.9v-1.8h6c-.7-.5-1.6-1.1-2.6-1.8l1.4-1.2zm2.6 9.4l1.8.7c-.5 1.7-1 3.1-1.5 4.3 1.1 1 2.1 2 3 3l-1.3 1.9c-.9-1.1-1.8-2.1-2.7-3-.2.3-.3.5-.4.7-1.1 1.8-2.8 3.3-5 4.6l-1.2-1.8c2-1.1 3.6-2.5 4.7-4.2.2-.2.3-.5.4-.8-1-1-2.1-1.8-3.2-2.5l1.1-1.6c1 .7 2 1.5 3 2.3.4-1 .9-2.2 1.3-3.6zm1-4.1c1.1 1.1 2 2.1 2.7 3 .6-1 1.1-2 1.5-2.9.5-1.3.9-3.1 1.3-5.2l2.2.4c-.2 1.3-.5 2.4-.7 3.3h6v1.9H150c-.2 4.1-.8 7.3-1.9 9.6-.1.1-.1.3-.2.4 1 1.3 2.5 2.6 4.5 4l-1.1 2c-2-1.3-3.5-2.7-4.7-4.2-1.3 1.5-3.2 2.8-5.6 4.2l-1.4-1.8c2.7-1.3 4.6-2.7 5.7-4.2-.8-1.5-1.5-3.4-2.1-5.7-.3.5-.7 1-1 1.5l-.9-1.1-.7.4c-.8-1.3-2-2.8-3.4-4.5l1.7-1.1zm5.7 2.1c.5 2.6 1.1 4.7 1.9 6.1.8-2 1.3-4.6 1.4-7.9h-2.6c0 .2-.1.3-.2.5-.1.5-.3.9-.5 1.3zm11-6.5h16.3c-.6 2.6-1.2 4.7-1.8 6.5h4.4c-.9 4.2-2.3 7.3-4.1 9.4 1.5 1 3.2 1.9 5 2.6l-1.2 2.3c-2.3-1-4.3-2.1-5.8-3.1-1.7 1.3-3.9 2.3-6.6 3.1l-1.7-2.3c2.7-.7 4.9-1.5 6.4-2.4-2.1-1.9-3.7-4.2-4.8-6.8-.5 2.3-1.2 4.2-1.9 5.6-.9 1.7-2.3 3.6-4.1 5.5l-1.9-1.6c2.4-2.3 4.2-4.9 5.3-7.7.9-2.4 1.3-4.8 1.3-7.4v-1.5h-4.7v-2.2zm7.1 2.1v1.5c0 2.8 1.1 5.5 3.2 8.2.8 1 1.6 1.8 2.6 2.6 1.3-1.4 2.3-3.4 3-5.9H167c.6-1.5 1.2-3.6 1.9-6.4h-6.2zm-81.3 30.4h2.5v8.5H93v1.9h-6.7v8c0 .5.3.7.8.7H90c.3 0 .6-.1.7-.4.2-.3.3-1.6.4-3.8l2.2.7c-.2 2.7-.5 4.3-1 4.8-.4.5-1.1.8-2.1.8h-4c-.7 0-1.3-.2-1.7-.6-.4-.4-.6-.9-.6-1.5v-8.6h-3.3c-.2 3-.8 5.2-1.8 6.6-1.1 1.7-3 3.2-5.6 4.5l-1.5-2c2.4-1 4.1-2.2 5-3.4.8-1.1 1.4-3 1.6-5.6h-6.2v-1.9h9.2v-8.7zm-5 1.5c1 1.5 1.9 3.2 2.6 4.9l-2.4 1c-.8-2-1.6-3.7-2.6-5.2l2.4-.7zm12.4-.2l2.2 1c-.7 1.8-1.6 3.6-2.6 5.3l-2.2-1.1c1.1-1.8 2-3.5 2.6-5.2zm9.6 10.4l1.9 1.4c-1 3.3-2 6.1-3.2 8.5l-1.7-1.9c.9-1.9 1.9-4.6 3-8zm-1.3-5.5c1.3.8 2.4 1.5 3.3 2.3l-1.7 1.7c-.8-.8-1.8-1.6-3.2-2.5l1.6-1.5zm.3-5.6c1.3.8 2.5 1.6 3.4 2.5l-1.7 1.8c-.8-.8-1.9-1.7-3.3-2.7l1.6-1.6zm19.3 0v1.9h-5.3c-.2.6-.4 1.3-.6 1.8h5v9h-4.5v5.8c0 .8-.2 1.4-.6 1.7-.3.3-1 .5-1.9.5h-1.7l-.4-2.2c.6.1 1.1.2 1.5.2.6 0 .9-.2.9-.6v-5.4h-4.5v-9h3.9c.3-.6.5-1.2.7-1.8h-5.6v5.6c0 2.1-.2 4.3-.5 6.6-.4 2.4-1.1 4.7-2.1 7l-1.9-1.6c1-1.9 1.6-3.9 1.9-6 .3-2.1.4-4.1.4-6v-7.5h15.3zm-10.5 13.2l2 .7c-.6 1.5-1.1 2.6-1.6 3.2-.4.7-1.2 1.6-2.3 2.6l-1.7-1.6c1-.8 1.7-1.5 2.3-2.3.5-.6 1-1.5 1.3-2.6zm.7-5.8h6.8v-1.8h-6.8v1.8zm6.8 3.5v-1.8h-6.8v1.8h6.8zm.6 2.6c.9 1.7 1.6 3.5 2.3 5.4l-2 .9c-.7-2.1-1.5-4-2.3-5.7l2-.6zm9.1-14.1c.4.8.7 1.7 1 2.6h3.3v1.9h-8.9v-1.9h3.4c-.3-.8-.7-1.6-1.1-2.4l2.3-.2zm3.4 13v6.8h-5.1v1.7h-2.1v-8.4h7.2zm-7.2-6.9h7.1v1.8h-7.1v-1.8zm0 3.4h7.1v1.8h-7.1v-1.8zm2.1 8.4h3v-3h-3v3zm15.6-17.2v5.4c0 .6.3.8.8.8h1.8v2.1h-2.3c-.9 0-1.6-.2-2-.6-.4-.4-.7-1-.7-1.9v-3.9h-3.6c-.1 1.6-.2 2.7-.5 3.4-.3.9-1 2-2.2 3.2l-1.6-1.5c1-1.1 1.6-1.9 1.8-2.6.2-.6.3-2.1.3-4.5h8.2zm-9.2 8.8h10.2v1.5c-.6 2.4-1.5 4.4-2.9 6.1 1.3.8 3 1.5 5 2.1l-1.4 2c-2.2-.8-4-1.6-5.3-2.5-1.3 1-3.1 1.9-5.3 2.7l-1.3-1.9c2-.6 3.6-1.4 4.8-2.2-1.3-1.3-2.5-2.8-3.4-4.5l1.9-1.1c.8 1.6 1.9 3 3.1 4.1 1-1.2 1.8-2.7 2.3-4.5h-7.9v-1.8zm17.4-2.7h15v2.1h-6.4v3.5h6.8v2h-6.8v4.2c1.2.2 2.8.3 4.8.3 1.6 0 3.3-.1 4.9-.2l-.4 2.3c-5.7 0-9.4-.2-10.9-.6-1.3-.3-2.5-.8-3.8-1.8-.7-.5-1.3-1.1-1.9-1.9-.7 1.5-1.7 3-3.2 4.6l-1.5-1.9c1.3-1.3 2.2-2.6 2.9-3.9.6-1.2 1.1-2.8 1.5-4.9l2.2.4c-.3 1.3-.6 2.5-1 3.5.7 1.3 1.6 2.2 2.7 2.9.4.3.9.5 1.3.7V465h-6.3v-2.1zm7.9-6.8c.3.6.6 1.3.9 2.1h8.8v5.5h-2.2v-3.4H145v3.4h-2.2v-5.5h9.1c-.3-.6-.6-1.2-.9-1.7l2.4-.4z" class="st0"/><path class="st1" d="M218.3 423.4h142.3v66.3H218.3z"/><path d="M243.6 428.4h5.1v1.5c-.6 1.3-1.5 2.6-2.5 4h2.6v1.3c-.3 1.8-.7 3.2-1.1 4.1v.1c.9.8 1.7 1.4 2.3 1.6.5.2 1.3.4 2.3.5 1.2.1 3.5.2 6.9.3 2.5 0 4.4-.1 5.7-.2l-.3 2.2c-6.7 0-10.8-.1-12.2-.2-1.3-.2-2.4-.4-3.2-.7-.7-.3-1.5-.9-2.3-1.7-.5 1-1.2 2-2 3l-1.5-1.6c1-1.3 1.8-2.3 2.2-3.3.4-.6.8-1.8 1.2-3.6h-3V434c.8-1 1.7-2.3 2.5-3.8h-2.8v-1.8zm2.1-5.2c1 1 1.9 2.1 2.7 3.1l-1.4 1.4c-.6-1-1.4-2.1-2.6-3.3l1.3-1.2zm7.3-.4c.4.8.7 1.7 1 2.8h2.6v1.6c.5-.5.9-1 1.3-1.5.5-.8 1-1.8 1.4-3l1.9.7c-.3.8-.6 1.5-.9 2h4.6v2H259c-.5.6-1.1 1.3-1.9 2.1l-1.6-1.4c.2-.2.5-.4.7-.6h-3.4v2.1h3.5c-.1 5.4-.3 8.3-.5 8.8-.1.7-.3 1.1-.6 1.4-.2.3-.7.5-1.4.6-.7 0-1.3 0-1.7-.1l-.4-2c1 .1 1.7.2 1.8.2.2 0 .4-.2.4-.5.1-.3.2-2.4.3-6.4h-1.6c-.1 1.1-.2 2.1-.4 3-.3 1.9-1 3.8-1.9 5.7l-1.7-1.5c.8-1.5 1.4-3.1 1.7-4.8.3-1.4.4-3.6.4-6.4h-1.5v-1.9h2.7c-.3-.9-.7-1.7-1.1-2.5l2.2-.4zm4.7 6.4h6.4v1.5c-.7.9-1.4 1.8-2.4 2.7v.6h3.2v1.9h-3.2v3c0 .5-.1 1-.4 1.4-.4.4-.8.6-1.3.6h-2.1l-.6-2.1c.7.1 1.3.2 1.8.2.4 0 .6-.2.6-.5V436h-2.6v-1.9h2.6v-.8c.6-.5 1.3-1.2 1.9-2.1h-3.9v-2zm14.2-6.4h1.9v.8h5.7v1.5h-5.7v1h6c-.2 1.4-.5 2.8-1 4.2l-2-.6c.3-.5.6-1.2.8-2h-3.4v.9l2.5-.4.2 1.3-2.6.4v.5c0 .3.2.4.7.4h3.2v1.4h-3.7c-.7 0-1.2-.1-1.5-.3-.4-.2-.6-.6-.6-1.1v-.7l-2 .3-.2-1.3 2.2-.4v-1.2h-2.5v4.1c0 1.9-.1 3.9-.3 6-.2 2.1-.5 4.2-1 6.3l-1.6-1.5c.4-1.7.7-3.5.8-5.4.1-2 .2-3.8.2-5.4V426h3.9v-3.2zm1.2 16.9c.2.6.5 1.3.7 2 .4 0 .9-.1 1.2-.1.3-.6.5-1.3.7-1.9l1.8.2c-.2.6-.3 1.1-.6 1.6.8-.1 1.6-.2 2.3-.3v1.6c-1.8.4-5 .7-9.5 1l-.3-1.9c.9 0 1.7 0 2.5-.1-.2-.7-.5-1.3-.7-1.9l1.9-.2zm-2.7-6.7h8.5v1.5h-8.5V433zm.3 2.4h7.7v3.9h-7.7v-3.9zm5.8 2.6v-1.2h-4v1.2h4zm11.7-9.3l.3 1.9-5.1.9c.1 1.7.3 3.3.5 4.5 0 .2.1.4.1.7.8-1.3 1.6-3 2.4-4.9l1.7 1c-1 2.5-2 4.4-3 5.8-.1.2-.3.4-.4.6.1.3.3.7.4 1 .6 1.2 1 1.8 1.3 1.8.1 0 .3-1 .5-3.1l1.7 1.3c-.5 1.9-.9 3.1-1.2 3.5-.3.3-.7.5-1.1.5-.9 0-1.8-.8-2.6-2.4-.2-.3-.3-.5-.4-.8-.8.9-1.6 1.8-2.5 2.6l-1.1-1.8c1-.7 1.9-1.7 2.8-2.9-.3-1-.5-2-.7-3.2-.2-1.2-.4-2.4-.5-3.8l-2.1.4-.3-1.9 2.3-.4c0-1.1-.1-2.2-.1-3.4V423h2v6.7l5.1-1zm-2.4-4.7c1 1.2 1.8 2.2 2.3 3.1l-1.7 1.2c-.5-1-1.2-2.1-2-3.4l1.4-.9zm5.8.6l1.8.2c-.1 1-.1 2-.2 2.9h1.4v-4.9h2.2v4.9h2.1v1.7c.6-.8 1.1-1.6 1.4-2.4.5-1.1.9-2.5 1.2-4.2l2.2.4c-.2 1-.4 2-.7 2.7h8.4c0 8.5-.1 13.5-.4 15-.2 1.2-.5 2-1.1 2.4-.6.5-1.7.7-3.3.7-.5 0-1.1 0-1.8-.1l-.4-2.4c.7.1 1.5.2 2.2.2 1.3 0 2-.5 2.1-1.5.2-1.3.4-5.4.4-12.4h-.6c-.6 3.9-1.4 6.9-2.5 9.2-1.2 2.4-3 4.6-5.5 6.5l-1.5-1.8c2.1-1.7 3.8-3.6 5-5.7 1-2 1.8-4.7 2.3-8.1h-1c-.6 2.2-1.2 4-1.9 5.2-.8 1.7-2.1 3.5-4 5.5l-1.5-1.8c1.6-1.5 2.8-3 3.5-4.4.7-1.2 1.2-2.6 1.7-4.5h-1.2v.1c-.5 1.4-1.4 2.9-2.7 4.5l-1.5-1.9c.2-.2.4-.4.5-.7h-1.8v4.6c.8-.2 1.5-.5 2.2-.8v2.1c-.7.3-1.5.6-2.2.8v7.8h-2.2v-7c-1.2.4-2.4.8-3.7 1.1l-.6-2.4c1.4-.2 2.8-.6 4.2-1v-5.3H293c-.2 1.3-.4 2.4-.7 3.5l-2.1-.7c.7-2.5 1.2-5.2 1.4-8zm27.1-1.8l1.9.8c-.6 1.8-1.2 3.4-1.8 4.7v15.8h-2.1v-12.4c-.6.9-1.3 1.8-2.1 2.7l-.7-2.6c1-1.3 1.9-2.6 2.6-3.9.7-1.1 1.4-2.9 2.2-5.1zm4.9.2l2 .8c-.5 1.5-.9 2.8-1.3 3.7h3V423h2.3v4.4h5v2h-5v5.4h5.7v2.1h-5.7v7.2h-2.3V437H320v-2.1h7.3v-5.4h-4c-.5.8-1.1 1.6-1.9 2.6l-1.7-1.5c1-1.2 1.8-2.3 2.5-3.4.5-1.2 1-2.6 1.4-4.2zm-88.3 33.1l1.9.6c-.8 2.2-1.6 4.1-2.5 5.8.6-.1 1.3-.3 1.9-.4.5-1 .9-2.1 1.3-3.2l1.8.6c-1.5 3.6-3.1 6.6-4.6 8.9 1-.1 1.9-.2 2.7-.5-.2-.8-.3-1.5-.5-2.3l1.5-.5c.5 1.5.9 3.2 1.2 5l-1.7.5c-.1-.4-.1-.8-.2-1.1-1.4.4-3.3.7-5.8.9l-.6-1.9h1.3c.8-1.3 1.7-2.8 2.6-4.6-1.1.3-2.4.6-3.8.9l-.4-1.9c.4 0 .7-.1 1-.1 1.2-1.9 2.1-4.2 2.9-6.7zm-2.9 15.4l1.7.2c-.1 2.3-.3 4.3-.6 5.9l-1.9-.6c.4-1.7.6-3.6.8-5.5zm4.1-.2c.2 1.3.4 3.1.4 5.3l-1.8.2c0-2.3-.1-4-.2-5.3l1.6-.2zm2.4-.3c.3 1 .5 2 .7 3.1.2-1 .4-2 .5-3 .2-1.7.3-3.8.4-6.1v-8.1c4.5 0 8.3-.3 11.3-.8l1 1.8c-3.1.4-6.5.6-10.3.6v1.6h9.7v4.9h-9.7c0 2.1-.2 4.3-.5 6.7-.3 2-.7 3.9-1.4 5.7l-1.5-1.6c0-.2.1-.3.1-.5l-1.2.3c-.2-1.5-.4-2.9-.7-4.2l1.6-.4zm3.6-7.6h7.8v-1.6h-7.8v1.6zm10.1 3.2v9.1c0 .6-.1 1.1-.4 1.4-.3.3-.6.4-1.1.4h-1.3l-.1-.6h-1.4v-4.1H247v4.1h-1.5v-4.1h-1.2v4.9h-1.7v-11.1h10zm-8.3 4.4h1.2v-2.7h-1.2v2.7zm2.7-2.7v2.7h1.2v-2.7H247zm2.8 0v2.7h1.2v-2.7h-1.2zm0 4.5v3h.6c.4 0 .6-.3.6-.7v-2.3h-1.2zm5.7-14.9h3.8v-1.7h1.8v1.7h3.9v1.9h-3.9v1.4h3.4v9.8h-3.4v1.7h4v1.1c.4 0 .7 0 1.1-.1V465H265v-1.8h11.8v1.8H275v7.6c.6-.1 1.1-.2 1.7-.3v1.9c-.6.1-1.1.2-1.7.3v3.1h-2v-2.8c-2.6.4-5.4.7-8.3.9l-.2-1.3h-3.4v3.2h-1.8v-3.2h-3.9v-1.8h3.9v-1.7H256v-9.8h3.3v-1.4h-3.8v-1.8zm2.2 7.3h1.5v-2.3h-1.5v2.3zm1.6 4v-2.5h-1.5v2.5h1.5zm1.8-6.3v2.3h1.7v-2.3h-1.7zm1.7 6.3v-2.5h-1.7v2.5h1.7zM266 457h9.8v4.9H266V457zm7.7 3.4v-1.8h-5.6v1.8h5.6zm-5.5 6.2h4.9V465h-4.9v1.6zm0 3.2h4.9v-1.7h-4.9v1.7zm0 3.7c1.6-.1 3.2-.3 4.9-.6v-1.6h-4.9v2.2zm16.7-17.2l.8 2.1c-.8.4-2.1.8-3.9 1.3v1.8h3.4v1.9h-3.4l.1 2.7h3.1v1.8h-3l.1 2.6h3.7l.8-6h2.1l-.8 6h2l.6-7.2h-2.6l-.1.6h-2l1-7.9h2l-.2 1.6h3.8v1.8h-4l-.3 2h4.5l-.7 9.1h4.8l.1-2.5h-3.3v-1.9h3.4l.1-2.7h-3.4v-1.9h3.5l.1-2.4h-3.6v-1.9h5.7l-.4 13.4h1.4v2h-21.6v-2h1.5l-.4-12.6c1.5-.2 3.2-.8 5.1-1.7zm.8 16.7l1.6 1.4c-1.9 1.2-4.2 2.3-7.1 3.3l-1.5-1.9c2.6-.8 4.9-1.7 7-2.8zm7.2-.1c2.5.8 4.9 1.8 7 2.9l-1.4 2.1c-2.2-1.4-4.4-2.4-6.8-3.2l1.2-1.8zm9.5-15h3.4v-1.7h1.8v1.7h3.1v1.9h-3.1v1.4h2.9v9.8h-2.9v1.7h3.2v1.8h-3.2v3.2h-1.8v-3.2h-3.6v-1.8h3.6V471h-3.1v-9.8h3.1v-1.4h-3.4v-1.9zm2.1 7.3h1.4v-2.3h-1.4v2.3zm1.3 4v-2.5h-1.4v2.5h1.4zm1.9-6.3v2.3h1.2v-2.3h-1.2zm1.2 6.3v-2.5h-1.2v2.5h1.2zm8.2-13.1h1c.8 1.1 1.7 2 2.6 2.6.6.5 1.7 1.1 3.2 1.8l-1.2 1.8c-.6-.2-1.2-.5-1.7-.9v1.5h-7.6v-1.4c-.5.3-1.1.7-1.7 1l-1-1.9c1.5-.7 2.6-1.4 3.4-2.2.6-.6 1.3-1.4 2.1-2.4h.9zm-.1 8.3v11c0 .7-.1 1.2-.4 1.5-.3.3-.6.5-1.1.5h-1.6l-.4-1.8 1.3.1c.4 0 .5-.3.5-.8v-1.6H313v4.5h-1.6v-13.3h5.6zm-4 3.4h2.4v-1.7H313v1.7zm0 3.7h2.4v-2H313v2zm1-10.4h6.4c-1.1-.8-2.2-1.8-3.2-3.1-.8 1-1.6 1.8-2.3 2.5-.4.2-.6.4-.9.6zm4.2 4h1.8v8.8h-1.8v-8.8zm2.9-1.1h1.9v11.5c0 .7-.2 1.2-.5 1.5-.3.3-.8.5-1.6.5H319l-.4-1.9c.7.1 1.3.2 1.7.2.5 0 .7-.2.7-.5V464zm6.6-6.1h2.3v6.3h4.9v-8h2.5v8h5.3v-6.3h2.3v8.4h-7.6v7.8h6.2v-6h2.3v9.5h-2.3v-1.5H329v1.5h-2.2v-9.5h2.2v6h6v-7.8h-7.2v-8.4z" class="st0"/><path class="st2" d="M64.7 71.2l.4 2.5.8-3.3z"/><path class="st3" d="M65.9 68l-1.2.9 1.2 1.5z"/><path class="st4" d="M64.7 68.9v2.3l1.2-.8z"/><path class="st5" d="M27.2 72.7l-1 .7 1.7 1z"/><path class="st6" d="M26.5 70.9l-1 .7 1.7 1.1z"/><path class="st7" d="M25.4 69.7l1.1 1.2.1-1.9z"/><path class="st8" d="M26.2 73.4l.5 1.7 1.2-.7z"/><path class="st9" d="M25.4 69.7l.1 1.9 1-.7z"/><path class="st10" d="M25.5 67.6l1.1 1.4.4-1.2z"/><path class="st11" d="M25.5 67.6l-.1 2.1 1.2-.7z"/><path class="st12" d="M63.7 67.5l1 1.4 1.2-.9z"/><path class="st13" d="M26.2 73.4l-.7-1.8 1.2 3.5z"/><path class="st14" d="M26.5 66.3l-1 1.3 1.5.2z"/><path class="st15" d="M25.5 71.6l.7 1.8 1-.7z"/><path class="st16" d="M28 66l-1 1.8 1.6-.5z"/><path class="st17" d="M64.2 66.3l-.5 1.2 2.2.5z"/><path class="st18" d="M26.5 66.3l.5 1.5 1-1.8z"/><path class="st19" d="M41.6 87.5l.7.8.3-1.5z"/><path class="st20" d="M26.7 75.1l1.5 2.3 1.1-.8z"/><path class="st21" d="M37.6 99.5l.2.6.7-.6z"/><path class="st22" d="M42.3 95.6l.3.6.2-.9z"/><path class="st23" d="M28 66l.6 1.3.9-1.1z"/><path class="st24" d="M27.9 74.4l-1.2.7 2.6 1.5z"/><path class="st25" d="M29.5 66.2l-.9 1.1 1.2.4z"/><path class="st26" d="M31 67.5l-.7 1.7 1.1-.4z"/><path class="st27" d="M28.2 77.4l1.6 1.8 1-.8z"/><path class="st28" d="M29.3 76.6l-1.1.8 2.6 1z"/><path class="st29" d="M30.9 70.7l1.1.7.1-1.3z"/><path class="st30" d="M30.8 78.4l-1 .8 1.8 1.8z"/><path class="st31" d="M29.5 66.2l.3 1.5 1.2-.2z"/><path class="st32" d="M29.8 67.7l.5 1.5.7-1.7z"/><path class="st33" d="M30.3 69.2l.6 1.5.5-1.9z"/><path class="st34" d="M39.4 66.9l-2.6.3 2.7 2.6z"/><path class="st35" d="M33 70.5l-1 .9 1.1.5z"/><path class="st36" d="M31.4 68.8l-.5 1.9 1.2-.6z"/><path class="st37" d="M30.8 78.4l.8 2.6 1.3-.6z"/><path class="st38" d="M32.9 80.4l-1.3.6 2.3 1.7z"/><path class="st39" d="M32.1 70.1l-.1 1.3 1-.9z"/><path class="st40" d="M33.1 71.9l.5 2.4 2-2.1z"/><path class="st41" d="M34.6 81.8l-.7.9 1.8 1.2z"/><path class="st42" d="M32.9 80.4l1 2.3.7-.9z"/><path class="st43" d="M37.8 100.1l1 .4.1-.7z"/><path class="st44" d="M34.9 77.9l1.3 2.8.2-3.8z"/><path class="st45" d="M33.1 71.9l2.5.3.1-2.1z"/><path class="st46" d="M33 70.5l.1 1.4 2.6-1.8z"/><path class="st47" d="M34.3 67.9l-1.3.9 2.7 1.3z"/><path class="st48" d="M33 68.8v1.7l2.7-.4z"/><path class="st49" d="M38.4 86.4l-1.1 1.7 1.8-.3z"/><path class="st50" d="M34.3 67.9l1.4 2.2 1.1-2.9z"/><path class="st51" d="M63.7 73.6l.1 2.5 1.3-2.4z"/><path class="st52" d="M34.6 81.8l1.1 2.1.6-1z"/><path class="st47" d="M35.6 72.2l-2 2.1 2.8 2.6z"/><path class="st44" d="M33.6 74.3l1.3 3.6 1.5-1z"/><path class="st53" d="M35.3 85.8l.2 1 1-1.3z"/><path class="st54" d="M36 102.8l-.1 1.7 1.1-2.6z"/><path class="st55" d="M36 101.2v1.6l1-.9z"/><path class="st56" d="M36.2 100.3l-.2.9 1 .7z"/><path class="st57" d="M36.5 85.5l-1 1.3 1.6-.1z"/><path class="st58" d="M35.5 86.8l.8.9.8-1z"/><path class="st59" d="M37.6 99.5l-1.4.8 1.6-.2z"/><path class="st60" d="M37.1 86.7l-.8 1 1 .4z"/><path class="st61" d="M36.2 100.3l.8 1.6.8-1.8z"/><path class="st62" d="M38.4 85.3v1.1l1.1-1.3z"/><path class="st63" d="M36.3 82.9l-.6 1 1.7-.4z"/><path class="st64" d="M35.7 83.9l1.4.8.3-1.2z"/><path class="st65" d="M37.8 100.1l-.8 1.8 1.1-.7z"/><path class="st66" d="M36.8 67.2l-1.1 2.9 3.8-.3z"/><path class="st67" d="M45.7 102.5l.5.7.9-.7z"/><path class="st68" d="M35.9 104.5v1l2.1 1.3z"/><path class="st69" d="M38.5 99.5l-.7.6 1.1-.3z"/><path class="st70" d="M38.5 84l-.1 1.3 1.1-.2z"/><path class="st71" d="M37.2 81.9l.8 1.4.8-1.6z"/><path class="st72" d="M37.1 86.7l.2 1.4 1.1-1.7z"/><path class="st73" d="M37.4 83.5l-.3 1.2 1.4-.7z"/><path class="st60" d="M37.1 84.7l1.3.6.1-1.3z"/><path class="st74" d="M37.8 100.1l.3 1.1.7-.7z"/><path class="st75" d="M35.6 72.2l.8 4.7 2.3-4.2z"/><path class="st76" d="M35.7 70.1l-.1 2.1 3.1.5z"/><path class="st77" d="M38.7 72.7l-2.3 4.2 3-1.4z"/><path class="st78" d="M36.4 76.9l-.2 3.8 2.6 1z"/><path class="st40" d="M36.2 80.7l1 1.2 1.6-.2z"/><path class="st79" d="M38 83.3l.5.7.3-2.3z"/><path class="st80" d="M39.4 66.9l2.4 3.2.9-3.5z"/><path class="st81" d="M35.9 104.5l2.1 2.3 1.2-4.2z"/><path class="st82" d="M40.7 101.8l1 1.2.3-.8z"/><path class="st83" d="M37.6 99.5h.9l.7-.5z"/><path class="st84" d="M38.5 99.5l.4.3.3-.8z"/><path class="st85" d="M38.1 101.2l-1.1.7 2.2.7z"/><path class="st86" d="M39.5 85.1l-1.1 1.3 1.3.6z"/><path class="st87" d="M35.7 70.1l3 2.6.8-2.9z"/><path class="st88" d="M37 101.9l-1.1 2.6 3.3-1.9z"/><path class="st89" d="M38.1 101.2l1.1 1.4.5-.9z"/><path class="st90" d="M40.6 102.8l-1.4-.2 1.8 1.2z"/><path class="st91" d="M42.9 81.9l-1.6 2.6 2.7.3z"/><path class="st92" d="M41.2 92.4l1.8 1.1.3-1.8z"/><path class="st93" d="M39.2 99l-.3.8.7-.7z"/><path class="st94" d="M42.6 90.3l.7 1.4 1-1.5z"/><path class="st95" d="M39.7 101.7l.9 1.1.1-1z"/><path class="st83" d="M39.2 99l.4.1.5-.4z"/><path class="st96" d="M38.8 100.5l-.7.7 1.6.5z"/><path class="st97" d="M38.4 86.4l.7 1.4.6-.8z"/><path class="st98" d="M39.5 85.1l.2 1.9.8-.9z"/><path class="st99" d="M41 105.3l-.9 1.9 1-.7z"/><path class="st100" d="M39.6 99.1l.9 2.1.3-2.6z"/><path class="st101" d="M38.8 100.5l.9 1.2.8-.5z"/><path class="st102" d="M40.5 101.2l-.8.5 1 .1z"/><path class="st103" d="M39.7 101.7l-.5.9 1.4.2z"/><path class="st104" d="M40.1 98.7l-.5.4 1.2-.5z"/><path class="st105" d="M38.9 99.8l-.1.7 1.7.7z"/><path class="st106" d="M39.6 99.1l-.7.7 1.6 1.4z"/><path class="st107" d="M38.7 72.7l2.9 1.4.2-4z"/><path class="st108" d="M46.6 88.4l1.5.7.3-2.3z"/><path class="st109" d="M39.2 102.6l-1.2 4.2 3-1.5z"/><path class="st90" d="M41 103.8l-1.8-1.2 1.8 2.7z"/><path class="st31" d="M39.5 69.8l-.8 2.9 3.1-2.6z"/><path class="st110" d="M38 106.8l2.1.4.9-1.9z"/><path class="st111" d="M41.8 98.1l-1 .5 1.6 2.7z"/><path class="st112" d="M40.6 102.8l.4 1 .7-.8z"/><path class="st113" d="M38.7 72.7l.7 2.8 2.2-1.4z"/><path class="st78" d="M38.8 81.7l-.3 2.3 2.8.5z"/><path class="st114" d="M38.5 84l1 1.1 1.8-.6z"/><path class="st115" d="M39.5 85.1l1 1 .8-1.6z"/><path class="st116" d="M40.7 101.8l-.1 1 1.1.2z"/><path class="st117" d="M44.6 103.3l-1 .7 1.2.2z"/><path class="st118" d="M42.4 101.3l-.4.9h.9z"/><path class="st119" d="M40.8 98.6l-.3 2.6 1.9.1z"/><path class="st120" d="M40.7 101.8l1.3.4.4-.9z"/><path class="st121" d="M44.3 102.5l-1.1.7 1.4.1z"/><path class="st122" d="M39.4 66.9l.1 2.9 2.3.3z"/><path class="st123" d="M41.9 78.9l-3.1 2.8 4.1.2z"/><path class="st124" d="M36.4 76.9l2.4 4.8 3.1-2.8z"/><path class="st125" d="M39.4 75.5l-3 1.4 5.5 2z"/><path class="st126" d="M41.6 74.1l-2.2 1.4 2.5 3.4z"/><path class="st127" d="M41.7 103l-.7.8 1.5.5z"/><path class="st128" d="M38.8 81.7l2.5 2.8 1.6-2.6z"/><path class="st129" d="M40.5 101.2l.2.6 1.7-.5z"/><path class="st130" d="M41.2 97.5l.6.6.4-.4z"/><path class="st131" d="M41.9 96.9l-.7.6 1 .2z"/><path class="st132" d="M42.7 89.8l-.1.5 1.7-.1z"/><path class="st133" d="M42.7 89.8l1.6.4.1-.6z"/><path class="st134" d="M43.2 103.2l-.7 1.1 1.1-.3z"/><path class="st135" d="M41.9 94l.9 1.3.2-1.8z"/><path class="st136" d="M41.1 106.5l-1 .7 2.5.3z"/><path class="st137" d="M41 103.8v1.5l1.5-1z"/><path class="st138" d="M47.8 91.6l-2.2.3 2.4 1.7z"/><path class="st139" d="M41.9 96.9l.3.8.4-1.5z"/><path class="st140" d="M41.3 84.5l-.8 1.6 2.1.7z"/><path class="st141" d="M40.5 86.1l1.1 1.4 1-.7z"/><path class="st142" d="M44 84.8l1.7.2v-3.9z"/><path class="st143" d="M42.9 81.9l1.1 2.9 1.7-3.7z"/><path class="st144" d="M42.5 104.3l-1.5 1 2 1.4z"/><path class="st145" d="M42.5 89.3l.2.5.3-.7z"/><path class="st146" d="M41 105.3l.1 1.2 1.9.2z"/><path class="st147" d="M41.3 84.5l1.3 2.3 1.4-2z"/><path class="st148" d="M41.7 103l.8 1.3.7-1.1z"/><path class="st149" d="M42.5 104.3l.5 2.4.6-2.7z"/><path class="st150" d="M51.8 99l-.4.1 1 .7z"/><path class="st151" d="M41.1 106.5l1.5 1 .4-.8z"/><path class="st152" d="M42.9 102.2H42l1.2 1z"/><path class="st153" d="M41.2 92.4l.7 1.6 1.1-.5z"/><path class="st154" d="M42 102.2l-.3.8 1.5.2z"/><path class="st155" d="M43.6 104l-.6 2.7 1.8-2.5z"/><path class="st156" d="M41.7 91.2l-.5 1.2 2.1-.7z"/><path class="st157" d="M43 89.1l-.3.7 1.7-.2z"/><path class="st158" d="M42.6 90.3l-.9.9 1.6.5z"/><path class="st159" d="M45.6 91.9l.1 1.8 2.3-.1z"/><path class="st160" d="M47.7 76.1l-2.3 1.7 2.9 2.9z"/><path class="st161" d="M46.2 103.2l-1.4 1h2.5z"/><path class="st162" d="M41.8 98.1l.6 3.2 1.4-2.7z"/><path class="st163" d="M42.2 97.7l-.4.4 2 .5z"/><path class="st164" d="M42.6 96.2l-.4 1.5 1.8.4z"/><path class="st165" d="M42.2 97.7l1.6.9.2-.5z"/><path class="st166" d="M42.9 102.2l.3 1 1.1-.7z"/><path class="st167" d="M43.2 103.2l.4.8 1-.7z"/><path class="st168" d="M44.4 69.4l-2.6.7 3.3 3.3z"/><path class="st169" d="M42.7 66.6l-.9 3.5 2.6-.7z"/><path class="st170" d="M41.8 70.1l-.2 4 3.5-.7z"/><path class="st171" d="M44.4 88.2l-1.4.9 1.4.5z"/><path class="st48" d="M44 84.8l1.4 2.3.3-2.1z"/><path class="st172" d="M45.2 106.8l-2.6.7 3.1.2z"/><path class="st173" d="M42.6 86.8l-.3 1.5 2.1-.1z"/><path class="st79" d="M42.3 88.3l.7.8 1.4-.9z"/><path class="st174" d="M42.8 95.3l-.2.9 1.8.2z"/><path class="st175" d="M42.6 96.2l1.4 1.9.4-1.7z"/><path class="st176" d="M43 93.5l-.2 1.8 2 .5z"/><path class="st177" d="M42.9 102.2l1.4.3.5-1z"/><path class="st178" d="M44.4 88.2l2.1 1.4.1-1.2z"/><path class="st179" d="M42.8 95.3l1.6 1.1.4-.6z"/><path class="st180" d="M45.1 73.4l-3.5.7 3.8 3.7z"/><path class="st181" d="M44.8 104.2l-1.8 2.5 2.2.1z"/><path class="st182" d="M64.7 71.2l-1 2.4 1.4.1z"/><path class="st183" d="M42.7 66.6l1.7 2.8 1.7-2.8z"/><path class="st184" d="M43.8 98.6l-1.4 2.7 2.4.2z"/><path class="st185" d="M42.4 101.3l.5.9 1.9-.7z"/><path class="st186" d="M45.4 77.8l-3.5 1.1 3.8 2.2z"/><path class="st187" d="M41.6 74.1l.3 4.8 3.5-1.1z"/><path class="st188" d="M43 106.7l-.4.8 2.6-.7z"/><path class="st189" d="M47.5 84.7l-1.8.3 2.7 1.8z"/><path class="st190" d="M44 84.8l-1.4 2 2.8.3z"/><path class="st191" d="M42.6 86.8l1.8 1.4 1-1.1z"/><path class="st192" d="M45.6 91.9L43 93.5l2.7.2z"/><path class="st193" d="M43.3 91.7l-.3 1.8 2.6-1.6z"/><path class="st194" d="M44.3 90.2l-1 1.5 2.3.2z"/><path class="st195" d="M45.4 87.1l-1 1.1 2.2.2z"/><path class="st196" d="M45.7 102.5l-1.1.8 1.6-.1z"/><path class="st197" d="M43 93.5l1.8 2.3.9-2.1z"/><path class="st198" d="M44.3 102.5l.3.8 1.1-.8z"/><path class="st199" d="M44.8 101.5l-.5 1h1.4z"/><path class="st200" d="M44.4 96.4l-.4 1.7 2.2-.1z"/><path class="st201" d="M44.8 104.2l.4 2.6 2.1-2.6z"/><path class="st202" d="M46.2 98l-2.4.6 2.8.1z"/><path class="st203" d="M41.9 78.9l1 3 2.8-.8z"/><path class="st204" d="M44.6 103.3l.2.9 1.4-1z"/><path class="st205" d="M43.8 98.6l1 2.9 1.8-2.8z"/><path class="st206" d="M44 98.1l-.2.5 2.4-.6z"/><path class="st207" d="M44.4 96.4l1.8 1.6.6-1.5z"/><path class="st208" d="M44.3 90.2l1.3 1.7.9-1.6z"/><path class="st209" d="M45.1 73.4l.3 4.4 2.3-1.7z"/><path class="st210" d="M45.7 85l-.3 2.1 3-.3z"/><path class="st211" d="M44.4 88.2v1.4h2.1z"/><path class="st212" d="M45.4 77.8l.3 3.3 2.6-.4z"/><path class="st213" d="M44.4 89.6l-.1.6 2.2.1z"/><path class="st214" d="M46.5 89.6h-2.1l2.1.7z"/><path class="st215" d="M46.8 95.8h-2l2 .7z"/><path class="st216" d="M44.8 95.8l-.4.6 2.4.1z"/><path class="st217" d="M47.7 69.8l2.7 2.2.4-3.7z"/><path class="st218" d="M45.7 81.1l1.8 3.6.8-4z"/><path class="st219" d="M48.4 86.8l-.3 2.3 1.1-.9z"/><path class="st220" d="M45.7 93.7l-.9 2.1h2z"/><path class="st221" d="M45.7 81.1V85l1.8-.3z"/><path class="st222" d="M46.8 95.8l1.6.3v-.8z"/><path class="st223" d="M53 86.5V88l1-1.3z"/><path class="st224" d="M50 66.9l-2.3 2.9 3.1-1.5z"/><path class="st225" d="M46.2 103.2l1.1 1 .3-1z"/><path class="st226" d="M46.6 98.7l-1.8 2.8 2.7-.1z"/><path class="st227" d="M46.1 66.6l-1.7 2.8 3.3.4z"/><path class="st228" d="M44.4 69.4l.7 4 2.6-3.6z"/><path class="st229" d="M47.3 104.2l-2.1 2.6h3z"/><path class="st230" d="M45.7 102.5h1.4l.4-1.1z"/><path class="st231" d="M44.8 101.5l.9 1 1.8-1.1z"/><path class="st232" d="M47.1 102.5l-.9.7h1.4z"/><path class="st233" d="M46.5 90.3l-.9 1.6 2.2-.3z"/><path class="st234" d="M45.2 106.8l.5.9 2.5-.9z"/><path class="st235" d="M45.7 93.7l1.1 2.1 1.2-2.2z"/><path class="st236" d="M47.7 76.1l.6 4.6 2-3.2z"/><path class="st237" d="M51.8 99l.6.8.5-.7z"/><path class="st238" d="M46.6 88.4l-.1 1.2 1.6-.5z"/><path class="st239" d="M48.3 102.3l-.7.9h1.1z"/><path class="st240" d="M50.1 103.8l-1.9 3 2.1-.5z"/><path class="st241" d="M48.4 95.3v.8l.4-.5z"/><path class="st242" d="M48.2 106.8l-2.5.9h3.2z"/><path class="st243" d="M47.5 101.4l-.4 1.1 1.2-.2z"/><path class="st244" d="M47.1 102.5l.5.7.7-.9z"/><path class="st245" d="M45.4 87.1l1.2 1.3 1.8-1.6z"/><path class="st246" d="M48.2 106.8l.7.9 1.4-1.4z"/><path class="st247" d="M47.5 84.7l.9 2.1.7-1.3z"/><path class="st248" d="M48.4 96.1l-1.6.4 1.8 1.2z"/><path class="st249" d="M46.8 96.5l-.6 1.5 2.4-.3z"/><path class="st250" d="M48.1 89.1l-1.6.5 1.9.4z"/><path class="st251" d="M46.8 95.8v.7l1.6-.4z"/><path class="st252" d="M48 93.6l-1.2 2.2 1.6-.5z"/><path class="st253" d="M46.5 90.3l1.3 1.3.6-1.6z"/><path class="st254" d="M46.5 89.6v.7l1.9-.3z"/><path class="st255" d="M48.1 89.1l.3.9.2-.7z"/><path class="st256" d="M46.2 98l.4.7 2-1z"/><path class="st257" d="M47.6 103.2l-.3 1 1.4-1z"/><path class="st258" d="M62.2 66.1l1.5 1.4.5-1.2z"/><path class="st259" d="M47.5 84.7l1.6.8 1-2.3z"/><path class="st260" d="M49.8 91.6h-2l2.2 1.2z"/><path class="st261" d="M48.6 97.7l.6.4v-1z"/><path class="st262" d="M48.4 90l-.6 1.6 1.2-.9z"/><path class="st263" d="M47.8 91.6l.2 2 2-.8z"/><path class="st264" d="M49.2 97.1v1l.5-.6z"/><path class="st265" d="M48.6 97.7l-2 1 2.6-.6z"/><path class="st266" d="M46.6 98.7l.9 2.7 1.7-3.3z"/><path class="st267" d="M48.4 96.1l.2 1.6.6-.6z"/><path class="st268" d="M48.3 80.7l-.8 4 2.6-1.5z"/><path class="st269" d="M48 93.6l.4 1.7.9-1.3z"/><path class="st270" d="M48.3 102.3l.4.9 1-1.1z"/><path class="st271" d="M48 93.6l1.3.4.7-1.2z"/><path class="st272" d="M46.1 66.6l1.6 3.2 2.3-2.9z"/><path class="st273" d="M49 90.7l-1.2.9h2z"/><path class="st274" d="M50 66.9l.8 1.4 2.8-1.1z"/><path class="st275" d="M49.1 85.5l1.3 1.3.7-1z"/><path class="st276" d="M47.5 101.4l.8.9 1.6-1z"/><path class="st277" d="M48.3 102.3l1.4-.2.2-.8z"/><path class="st278" d="M49.2 98.1l-1.7 3.3 2.4-.1z"/><path class="st279" d="M50.4 72l2.5 1.4.7-3.3z"/><path class="st280" d="M48.4 86.8l.8 1.4 1.2-1.4z"/><path class="st281" d="M51.8 100.6l-1.2 1.3 1.4-.2z"/><path class="st148" d="M49.7 102.1l.8.9.1-1.1z"/><path class="st282" d="M47.7 76.1l2.6 1.4.1-5.5z"/><path class="st195" d="M49.1 85.5l-.7 1.3h2z"/><path class="st283" d="M47.3 104.2l.9 2.6 1.9-3z"/><path class="st284" d="M48.7 103.2l-1.4 1 2.8-.4z"/><path class="st285" d="M49.9 101.3l-.2.8.9-.2z"/><path class="st286" d="M51.7 83.2h-1.6l1.8 1.8z"/><path class="st287" d="M50.4 98.7l-.5 2.6 1.5-2.2z"/><path class="st288" d="M50.3 77.5l-2 3.2 2.7-.1z"/><path class="st289" d="M45.1 73.4l2.6 2.7 2.7-4.1z"/><path class="st290" d="M49.2 98.1l.7 3.2.5-2.6z"/><path class="st291" d="M50.1 83.2l-1 2.3 2 .3z"/><path class="st292" d="M47.7 69.8l-2.6 3.6 5.3-1.4z"/><path class="st293" d="M48.7 103.2l1.4.6.4-.8z"/><path class="st294" d="M49.7 102.1l-1 1.1 1.8-.2z"/><path class="st295" d="M51.4 99.1l.4 1.5.6-.8z"/><path class="st296" d="M54.9 75.7l-2.3 2.5 2.3.2z"/><path class="st297" d="M50.3 77.5l2.3.7.3-4.8z"/><path class="st104" d="M50.4 98.7l1 .4.4-.1z"/><path class="st298" d="M48.3 80.7l1.8 2.5.9-2.6z"/><path class="st82" d="M51.7 102.7l-1.6 1.1 1.8 3.1z"/><path class="st147" d="M50.1 83.2l1 2.6.8-.8z"/><path class="st299" d="M51.4 99.1l-1.5 2.2 1.9-.7z"/><path class="st300" d="M49.9 101.3l.7.6 1.2-1.3z"/><path class="st301" d="M50.6 101.9l-.1 1.1 1.2-.3z"/><path class="st302" d="M51 80.6l-.9 2.6h1.6z"/><path class="st303" d="M50.5 103l-.4.8 1.6-1.1z"/><path class="st304" d="M50.4 72l-.1 5.5 2.6-4.1z"/><path class="st305" d="M50.6 101.9l1.1.8.3-1z"/><path class="st306" d="M52.4 99.8l.8 1.3V100z"/><path class="st307" d="M62.2 66.1l-.2 1.5 1.7-.1z"/><path class="st308" d="M50.3 106.3l-1.4 1.4 3-.8z"/><path class="st309" d="M53.6 70.1l1.7 2.4.9-2.7z"/><path class="st310" d="M50.1 103.8l.2 2.5 1.6.6z"/><path class="st311" d="M59.5 79.4l-1.4 1.3 2.2-.4z"/><path class="st312" d="M52.9 99.1l-.5.7.8.2z"/><path class="st313" d="M51 80.6l1.6.3v-2.7z"/><path class="st314" d="M51.7 83.2l.2 1.8.6-.8z"/><path class="st315" d="M50.3 77.5l.7 3.1 1.6-2.4z"/><path class="st316" d="M52 101.7l1.1.6.1-1.2z"/><path class="st317" d="M51 80.6l.7 2.6.9-2.3z"/><path class="st318" d="M52.5 84.2l-.6.8.8.6z"/><path class="st319" d="M51.9 85l-.8.8 1.6-.2z"/><path class="st320" d="M53.2 101.1l-.1 1.2 1.1-.5z"/><path class="st321" d="M53.1 102.3l-1.4.4 2.6 3.6z"/><path class="st322" d="M51.6 87.3l1.4.7v-1.5z"/><path class="st323" d="M52 101.7l-.3 1 1.4-.4z"/><path class="st324" d="M51.1 85.8l.5 1.5 1.4-.8z"/><path class="st325" d="M52.7 85.6l-1.6.2 1.9.7z"/><path class="st326" d="M51.7 102.7l.2 4.2 2.4-.6z"/><path class="st327" d="M51.8 100.6l.2 1.1 1.2-.6z"/><path class="st328" d="M52.4 99.8l-.6.8 1.4.5z"/><path class="st329" d="M50.8 68.3l-.4 3.7 3.2-1.9z"/><path class="st330" d="M53.6 67.2l-2.8 1.1 2.8 1.8z"/><path class="st331" d="M52.6 80.9l.7 2.3.6-.8z"/><path class="st332" d="M53.3 83.8l-.8.4 1.3.7z"/><path class="st147" d="M51.7 83.2l.8 1 .8-1z"/><path class="st333" d="M52.6 80.9l-.9 2.3h1.6z"/><path class="st331" d="M52.6 80.9l1.3 1.5.7-1.1z"/><path class="st334" d="M52.5 84.2l.2 1.4 1.1-.7z"/><path class="st335" d="M52.9 73.4l-.3 4.8 2.3-2.5z"/><path class="st336" d="M55.1 67.4l-1.5 2.7 2.6-.3z"/><path class="st337" d="M54 86.7L53 88l1.3.1z"/><path class="st338" d="M55.1 103l-2-.7 2.1 3.1z"/><path class="st339" d="M52.9 73.4l2 2.3.4-3.2z"/><path class="st340" d="M53.1 102.3l1.2 4 .9-.9z"/><path class="st341" d="M61 77.9l1.1.7.3-2.7z"/><path class="st342" d="M54 86.7l.3 1.4 1-.6z"/><path class="st343" d="M55.1 101.3l-.9.5.9 1.2z"/><path class="st340" d="M54.2 101.8l-1.1.5 2 .7z"/><path class="st344" d="M52.6 78.2v2.7l2.3-2.5z"/><path class="st345" d="M52.9 99.1l.3.9 1.7.1z"/><path class="st346" d="M53.2 101.1l1 .7.7-1.7z"/><path class="st347" d="M53.2 100v1.1l1.7-1z"/><path class="st348" d="M53.6 67.2v2.9l1.5-2.7z"/><path class="st349" d="M54.9 100.1l-.7 1.7.9-.5z"/><path class="st350" d="M54.9 78.4l-2.3 2.5 2.7-.6z"/><path class="st351" d="M58.1 80.7l.6 1 1.6-1.4z"/><path class="st352" d="M53.3 83.8l.5 1.1 1.4-.7z"/><path class="st353" d="M54.9 82.9l-1.6.9 1.9.4z"/><path class="st354" d="M53.6 70.1l-.7 3.3 2.4-.9z"/><path class="st64" d="M55.5 85.6h-1.2l1.4 1.1z"/><path class="st355" d="M52.6 80.9l2 .4.7-1z"/><path class="st356" d="M54.3 85.6l-.3 1.1h1.7zm-.3 1.1l1.3.8.4-.8z"/><path class="st357" d="M54.9 75.7v2.7l1.8-1.1z"/><path class="st358" d="M54.9 78.4l.4 1.9 1.4-3z"/><path class="st359" d="M55.1 67.4l1.1 2.4 1.2-1.8z"/><path class="st360" d="M56.2 69.8l2 .4v-1.7z"/><path class="st361" d="M57.4 68l-1.2 1.8 2-1.3z"/><path class="st362" d="M56.4 81.9l-1.5 1 2.1.2z"/><path class="st363" d="M55.3 72.5l2.2 1.9.4-2.1z"/><path class="st364" d="M54.9 82.9l.3 1.3 1.8-1.1z"/><path class="st365" d="M56.2 69.8l-.9 2.7 2.6-.2z"/><path class="st366" d="M55.3 72.5l-.4 3.2 2.6-1.3z"/><path class="st367" d="M54.9 75.7l1.8 1.6.8-2.9z"/><path class="st368" d="M56.2 69.8l1.7 2.5.3-2.1z"/><path class="st34" d="M60.4 67.2l.6 1.7 1-1.3z"/><path class="st369" d="M58.9 70.1l-.7.1 1.5 1.2z"/><path class="st370" d="M56.4 81.9l.6 1.2 1.7-1.4z"/><path class="st371" d="M58.1 80.7l-1.7 1.2 2.3-.2z"/><path class="st27" d="M58.2 70.2l-.3 2.1 1.8-.9z"/><path class="st372" d="M60.4 67.2l-.8 1.3 1.4.4z"/><path class="st373" d="M58.9 70.1l.8 1.3 1.3-2.5z"/><path class="st374" d="M59.6 68.5l-.7 1.6 2.1-1.2z"/><path class="st375" d="M63.7 73.6l-1.3 2.3 1.4.2z"/><path class="st376" d="M59.5 79.4l.8.9.7-2.4z"/><path class="st35" d="M61 77.9l-.7 2.4 1.8-1.7z"/><path class="st377" d="M60.4 67.2l1.6.4.2-1.5z"/><path class="st378" d="M62.4 75.9l-.3 2.7 1.7-2.5z"/><path class="st2" d="M367.1 71.2l.4 2.5.6-3.3z"/><path class="st3" d="M368.1 68l-1 .9 1 1.5z"/><path class="st4" d="M367.1 68.9v2.3l1-.8z"/><path class="st5" d="M329.5 72.7l-.9.7 1.7 1z"/><path class="st6" d="M328.9 70.9l-1.1.7 1.7 1.1z"/><path class="st7" d="M327.7 69.7l1.2 1.2.1-1.9z"/><path class="st8" d="M328.6 73.4l.5 1.7 1.2-.7z"/><path class="st9" d="M327.7 69.7l.1 1.9 1.1-.7z"/><path class="st10" d="M327.8 67.6L329 69l.3-1.2z"/><path class="st11" d="M327.8 67.6l-.1 2.1 1.3-.7z"/><path class="st12" d="M366.1 67.5l1 1.4 1-.9z"/><path class="st13" d="M328.6 73.4l-.8-1.8 1.3 3.5z"/><path class="st14" d="M328.9 66.3l-1.1 1.3 1.5.2z"/><path class="st15" d="M327.8 71.6l.8 1.8.9-.7z"/><path class="st16" d="M330.4 66l-1.1 1.8 1.6-.5z"/><path class="st17" d="M366.5 66.3l-.4 1.2 2 .5z"/><path class="st18" d="M328.9 66.3l.4 1.5 1.1-1.8z"/><path class="st19" d="M343.8 87.5l.9.8.3-1.5z"/><path class="st20" d="M329.1 75.1l1.5 2.3 1.1-.8z"/><path class="st21" d="M339.9 99.5l.3.6.6-.6z"/><path class="st22" d="M344.6 95.6l.4.6.2-.9z"/><path class="st23" d="M330.4 66l.5 1.3 1-1.1z"/><path class="st24" d="M330.3 74.4l-1.2.7 2.6 1.5z"/><path class="st25" d="M331.9 66.2l-1 1.1 1.2.4z"/><path class="st26" d="M333.3 67.5l-.8 1.7 1.3-.4z"/><path class="st27" d="M330.6 77.4l1.5 1.8 1.1-.8z"/><path class="st28" d="M331.7 76.6l-1.1.8 2.6 1z"/><path class="st29" d="M333.3 70.7l.9.7.2-1.3z"/><path class="st30" d="M333.2 78.4l-1.1.8 1.8 1.8z"/><path class="st31" d="M331.9 66.2l.2 1.5 1.2-.2z"/><path class="st32" d="M332.1 67.7l.4 1.5.8-1.7z"/><path class="st33" d="M332.5 69.2l.8 1.5.5-1.9z"/><path class="st34" d="M341.8 66.9l-2.7.3 2.8 2.6z"/><path class="st35" d="M335.4 70.5l-1.2.9 1.3.5z"/><path class="st36" d="M333.8 68.8l-.5 1.9 1.1-.6z"/><path class="st37" d="M333.2 78.4l.7 2.6 1.4-.6z"/><path class="st38" d="M335.3 80.4l-1.4.6 2.4 1.7z"/><path class="st39" d="M334.4 70.1l-.2 1.3 1.2-.9z"/><path class="st40" d="M335.5 71.9l.4 2.4 2.1-2.1z"/><path class="st41" d="M337 81.8l-.7.9 1.8 1.2z"/><path class="st42" d="M335.3 80.4l1 2.3.7-.9z"/><path class="st43" d="M340.2 100.1l.8.4.3-.7z"/><path class="st44" d="M337.3 77.9l1.3 2.8.2-3.8z"/><path class="st45" d="M335.5 71.9l2.5.3.1-2.1z"/><path class="st46" d="M335.4 70.5l.1 1.4 2.6-1.8z"/><path class="st47" d="M336.7 67.9l-1.3.9 2.7 1.3z"/><path class="st48" d="M335.4 68.8v1.7l2.7-.4z"/><path class="st49" d="M340.6 86.4l-1 1.7 1.8-.3z"/><path class="st50" d="M336.7 67.9l1.4 2.2 1-2.9z"/><path class="st51" d="M366 73.6l.2 2.5 1.3-2.4z"/><path class="st52" d="M337 81.8l1.1 2.1.6-1z"/><path class="st47" d="M338 72.2l-2.1 2.1 2.9 2.6z"/><path class="st44" d="M335.9 74.3l1.4 3.6 1.5-1z"/><path class="st53" d="M337.6 85.8l.1 1 1.2-1.3z"/><path class="st54" d="M338.4 102.8l-.1 1.7 1-2.6z"/><path class="st55" d="M338.4 101.2v1.6l.9-.9z"/><path class="st56" d="M338.5 100.3l-.1.9.9.7z"/><path class="st57" d="M338.9 85.5l-1.2 1.3 1.7-.1z"/><path class="st58" d="M337.7 86.8l1 .9.7-1z"/><path class="st59" d="M339.9 99.5l-1.4.8 1.7-.2z"/><path class="st60" d="M339.4 86.7l-.7 1 .9.4z"/><path class="st61" d="M338.5 100.3l.8 1.6.9-1.8z"/><path class="st62" d="M340.7 85.3l-.1 1.1 1.3-1.3z"/><path class="st63" d="M338.7 82.9l-.6 1 1.7-.4z"/><path class="st64" d="M338.1 83.9l1.3.8.4-1.2z"/><path class="st65" d="M340.2 100.1l-.9 1.8 1.2-.7z"/><path class="st66" d="M339.1 67.2l-1 2.9 3.8-.3z"/><path class="st67" d="M348.1 102.5l.5.7.9-.7z"/><path class="st68" d="M338.3 104.5v1l2.1 1.3z"/><path class="st69" d="M340.8 99.5l-.6.6 1.1-.3z"/><path class="st70" d="M340.8 84l-.1 1.3 1.2-.2z"/><path class="st71" d="M339.6 81.9l.7 1.4.9-1.6z"/><path class="st72" d="M339.4 86.7l.2 1.4 1-1.7z"/><path class="st73" d="M339.8 83.5l-.4 1.2 1.4-.7z"/><path class="st60" d="M339.4 84.7l1.3.6.1-1.3z"/><path class="st74" d="M340.2 100.1l.3 1.1.5-.7z"/><path class="st75" d="M338 72.2l.8 4.7 2.2-4.2z"/><path class="st76" d="M338.1 70.1l-.1 2.1 3 .5z"/><path class="st77" d="M341 72.7l-2.2 4.2 2.9-1.4z"/><path class="st78" d="M338.8 76.9l-.2 3.8 2.6 1z"/><path class="st40" d="M338.6 80.7l1 1.2 1.6-.2z"/><path class="st79" d="M340.3 83.3l.5.7.4-2.3z"/><path class="st80" d="M341.8 66.9l2.3 3.2 1-3.5z"/><path class="st81" d="M338.3 104.5l2.1 2.3 1.2-4.2z"/><path class="st82" d="M343.1 101.8l.9 1.2.4-.8z"/><path class="st83" d="M339.9 99.5h.9l.8-.5z"/><path class="st84" d="M340.8 99.5l.5.3.3-.8z"/><path class="st85" d="M340.5 101.2l-1.2.7 2.3.7z"/><path class="st86" d="M341.9 85.1l-1.3 1.3 1.5.6z"/><path class="st87" d="M338.1 70.1l2.9 2.6.9-2.9z"/><path class="st88" d="M339.3 101.9l-1 2.6 3.3-1.9z"/><path class="st89" d="M340.5 101.2l1.1 1.4.4-.9z"/><path class="st90" d="M343 102.8l-1.4-.2 1.8 1.2z"/><path class="st91" d="M345.2 81.9l-1.5 2.6 2.7.3z"/><path class="st92" d="M343.5 92.4l1.9 1.1.1-1.8z"/><path class="st93" d="M341.6 99l-.3.8.7-.7z"/><path class="st94" d="M344.9 90.3l.6 1.4 1.1-1.5z"/><path class="st95" d="M342 101.7l1 1.1.1-1z"/><path class="st83" d="M341.6 99l.4.1.3-.4z"/><path class="st96" d="M341 100.5l-.5.7 1.5.5z"/><path class="st97" d="M340.6 86.4l.8 1.4.7-.8z"/><path class="st98" d="M341.9 85.1l.2 1.9.7-.9z"/><path class="st99" d="M343.4 105.3l-1 1.9 1-.7z"/><path class="st100" d="M342 99.1l.9 2.1.3-2.6z"/><path class="st101" d="M341 100.5l1 1.2.9-.5z"/><path class="st102" d="M342.9 101.2l-.9.5 1.1.1z"/><path class="st103" d="M342 101.7l-.4.9 1.4.2z"/><path class="st104" d="M342.3 98.7l-.3.4 1.2-.5z"/><path class="st105" d="M341.3 99.8l-.3.7 1.9.7z"/><path class="st106" d="M342 99.1l-.7.7 1.6 1.4z"/><path class="st107" d="M341 72.7l2.9 1.4.2-4z"/><path class="st108" d="M348.9 88.4l1.5.7.3-2.3z"/><path class="st109" d="M341.6 102.6l-1.2 4.2 3-1.5z"/><path class="st90" d="M343.4 103.8l-1.8-1.2 1.8 2.7z"/><path class="st31" d="M341.9 69.8l-.9 2.9 3.1-2.6z"/><path class="st110" d="M340.4 106.8l2 .4 1-1.9z"/><path class="st111" d="M344.1 98.1l-.9.5 1.6 2.7z"/><path class="st112" d="M343 102.8l.4 1 .6-.8z"/><path class="st113" d="M341 72.7l.7 2.8 2.2-1.4z"/><path class="st78" d="M341.2 81.7l-.4 2.3 2.9.5z"/><path class="st114" d="M340.8 84l1.1 1.1 1.8-.6z"/><path class="st115" d="M341.9 85.1l.9 1 .9-1.6z"/><path class="st116" d="M343.1 101.8l-.1 1 1 .2z"/><path class="st117" d="M346.9 103.3l-1.1.7 1.2.2z"/><path class="st118" d="M344.8 101.3l-.4.9h.8z"/><path class="st119" d="M343.2 98.6l-.3 2.6 1.9.1z"/><path class="st120" d="M343.1 101.8l1.3.4.4-.9z"/><path class="st121" d="M346.6 102.5l-1.1.7 1.4.1z"/><path class="st122" d="M341.8 66.9l.1 2.9 2.2.3z"/><path class="st123" d="M344.1 78.9l-2.9 2.8 4 .2z"/><path class="st124" d="M338.8 76.9l2.4 4.8 2.9-2.8z"/><path class="st125" d="M341.7 75.5l-2.9 1.4 5.3 2z"/><path class="st126" d="M343.9 74.1l-2.2 1.4 2.4 3.4z"/><path class="st127" d="M344 103l-.6.8 1.5.5z"/><path class="st128" d="M341.2 81.7l2.5 2.8 1.5-2.6z"/><path class="st129" d="M342.9 101.2l.2.6 1.7-.5z"/><path class="st130" d="M343.6 97.5l.5.6.4-.4z"/><path class="st131" d="M344.1 96.9l-.5.6.9.2z"/><path class="st132" d="M345.1 89.8l-.2.5 1.7-.1z"/><path class="st133" d="M345.1 89.8l1.5.4.1-.6z"/><path class="st134" d="M345.5 103.2l-.6 1.1.9-.3z"/><path class="st135" d="M344.2 94l1 1.3.2-1.8z"/><path class="st136" d="M343.4 106.5l-1 .7 2.5.3z"/><path class="st137" d="M343.4 103.8v1.5l1.5-1z"/><path class="st138" d="M350.2 91.6l-2.2.3 2.3 1.7z"/><path class="st139" d="M344.1 96.9l.4.8.5-1.5z"/><path class="st140" d="M343.7 84.5l-.9 1.6 2.2.7z"/><path class="st141" d="M342.8 86.1l1 1.4 1.2-.7z"/><path class="st142" d="M346.4 84.8l1.6.2.1-3.9z"/><path class="st143" d="M345.2 81.9l1.2 2.9 1.7-3.7z"/><path class="st144" d="M344.9 104.3l-1.5 1 2 1.4z"/><path class="st145" d="M344.9 89.3l.2.5.3-.7z"/><path class="st146" d="M343.4 105.3v1.2l2 .2z"/><path class="st147" d="M343.7 84.5l1.3 2.3 1.4-2z"/><path class="st148" d="M344 103l.9 1.3.6-1.1z"/><path class="st149" d="M344.9 104.3l.5 2.4.4-2.7z"/><path class="st150" d="M354.2 99l-.5.1 1 .7z"/><path class="st151" d="M343.4 106.5l1.5 1 .5-.8z"/><path class="st152" d="M345.2 102.2h-.8l1.1 1z"/><path class="st153" d="M343.5 92.4l.7 1.6 1.2-.5z"/><path class="st154" d="M344.4 102.2l-.4.8 1.5.2z"/><path class="st155" d="M345.8 104l-.4 2.7 1.6-2.5z"/><path class="st156" d="M344 91.2l-.5 1.2 2-.7z"/><path class="st157" d="M345.4 89.1l-.3.7 1.6-.2z"/><path class="st158" d="M344.9 90.3l-.9.9 1.5.5z"/><path class="st159" d="M348 91.9v1.8l2.3-.1z"/><path class="st160" d="M350.1 76.1l-2.4 1.7 2.9 2.9z"/><path class="st161" d="M348.6 103.2l-1.6 1h2.7z"/><path class="st162" d="M344.1 98.1l.7 3.2 1.4-2.7z"/><path class="st163" d="M344.5 97.7l-.4.4 2.1.5z"/><path class="st164" d="M345 96.2l-.5 1.5 1.9.4z"/><path class="st165" d="M344.5 97.7l1.7.9.2-.5z"/><path class="st166" d="M345.2 102.2l.3 1 1.1-.7z"/><path class="st167" d="M345.5 103.2l.3.8 1.1-.7z"/><path class="st168" d="M346.8 69.4l-2.7.7 3.3 3.3z"/><path class="st169" d="M345.1 66.6l-1 3.5 2.7-.7z"/><path class="st170" d="M344.1 70.1l-.2 4 3.5-.7z"/><path class="st171" d="M346.7 88.2l-1.3.9 1.3.5z"/><path class="st48" d="M346.4 84.8l1.3 2.3.3-2.1z"/><path class="st172" d="M347.5 106.8l-2.6.7 3.1.2z"/><path class="st173" d="M345 86.8l-.3 1.5 2-.1z"/><path class="st79" d="M344.7 88.3l.7.8 1.3-.9z"/><path class="st174" d="M345.2 95.3l-.2.9 1.8.2z"/><path class="st175" d="M345 96.2l1.4 1.9.4-1.7z"/><path class="st176" d="M345.4 93.5l-.2 1.8 1.8.5z"/><path class="st177" d="M345.2 102.2l1.4.3.5-1z"/><path class="st178" d="M346.7 88.2l2 1.4.2-1.2z"/><path class="st179" d="M345.2 95.3l1.6 1.1.2-.6z"/><path class="st180" d="M347.4 73.4l-3.5.7 3.8 3.7z"/><path class="st181" d="M347 104.2l-1.6 2.5 2.1.1z"/><path class="st182" d="M367.1 71.2l-1.1 2.4 1.5.1z"/><path class="st183" d="M345.1 66.6l1.7 2.8 1.7-2.8z"/><path class="st184" d="M346.2 98.6l-1.4 2.7 2.3.2z"/><path class="st185" d="M344.8 101.3l.4.9 1.9-.7z"/><path class="st186" d="M347.7 77.8l-3.6 1.1 4 2.2z"/><path class="st187" d="M343.9 74.1l.2 4.8 3.6-1.1z"/><path class="st188" d="M345.4 106.7l-.5.8 2.6-.7z"/><path class="st189" d="M349.8 84.7l-1.8.3 2.7 1.8z"/><path class="st190" d="M346.4 84.8l-1.4 2 2.7.3z"/><path class="st191" d="M345 86.8l1.7 1.4 1-1.1z"/><path class="st192" d="M348 91.9l-2.6 1.6 2.6.2z"/><path class="st193" d="M345.5 91.7l-.1 1.8 2.6-1.6z"/><path class="st194" d="M346.6 90.2l-1.1 1.5 2.5.2z"/><path class="st195" d="M347.7 87.1l-1 1.1 2.2.2z"/><path class="st196" d="M348.1 102.5l-1.2.8 1.7-.1z"/><path class="st197" d="M345.4 93.5l1.6 2.3 1-2.1z"/><path class="st198" d="M346.6 102.5l.3.8 1.2-.8z"/><path class="st199" d="M347.1 101.5l-.5 1h1.5z"/><path class="st200" d="M346.8 96.4l-.4 1.7 2.2-.1z"/><path class="st201" d="M347 104.2l.5 2.6 2.2-2.6z"/><path class="st202" d="M348.6 98l-2.4.6 2.7.1z"/><path class="st203" d="M344.1 78.9l1.1 3 2.9-.8z"/><path class="st204" d="M346.9 103.3l.1.9 1.6-1z"/><path class="st205" d="M346.2 98.6l.9 2.9 1.8-2.8z"/><path class="st206" d="M346.4 98.1l-.2.5 2.4-.6z"/><path class="st207" d="M346.8 96.4l1.8 1.6.4-1.5z"/><path class="st208" d="M346.6 90.2l1.4 1.7.8-1.6z"/><path class="st209" d="M347.4 73.4l.3 4.4 2.4-1.7z"/><path class="st210" d="M348 85l-.3 2.1 3-.3z"/><path class="st211" d="M346.7 88.2v1.4h2z"/><path class="st212" d="M347.7 77.8l.4 3.3 2.5-.4z"/><path class="st213" d="M346.7 89.6l-.1.6 2.2.1z"/><path class="st214" d="M348.7 89.6h-2l2.1.7z"/><path class="st215" d="M349 95.8h-2l2 .7z"/><path class="st216" d="M347 95.8l-.2.6 2.2.1z"/><path class="st217" d="M350.1 69.8l2.7 2.2.4-3.7z"/><path class="st218" d="M348.1 81.1l1.7 3.6.8-4z"/><path class="st219" d="M350.7 86.8l-.3 2.3 1.1-.9z"/><path class="st220" d="M348 93.7l-1 2.1h2z"/><path class="st221" d="M348.1 81.1L348 85l1.8-.3z"/><path class="st222" d="M349 95.8l1.7.3v-.8z"/><path class="st223" d="M355.3 86.5V88l1.1-1.3z"/><path class="st224" d="M352.3 66.9l-2.2 2.9 3.1-1.5z"/><path class="st225" d="M348.6 103.2l1.1 1 .3-1z"/><path class="st226" d="M348.9 98.7l-1.8 2.8 2.8-.1z"/><path class="st227" d="M348.5 66.6l-1.7 2.8 3.3.4z"/><path class="st228" d="M346.8 69.4l.6 4 2.7-3.6z"/><path class="st229" d="M349.7 104.2l-2.2 2.6h3z"/><path class="st230" d="M348.1 102.5h1.4l.4-1.1z"/><path class="st231" d="M347.1 101.5l1 1 1.8-1.1z"/><path class="st232" d="M349.5 102.5l-.9.7h1.4z"/><path class="st233" d="M348.8 90.3l-.8 1.6 2.2-.3z"/><path class="st234" d="M347.5 106.8l.5.9 2.5-.9z"/><path class="st235" d="M348 93.7l1 2.1 1.3-2.2z"/><path class="st236" d="M350.1 76.1l.5 4.6 2.1-3.2z"/><path class="st237" d="M354.2 99l.5.8.4-.7z"/><path class="st238" d="M348.9 88.4l-.2 1.2 1.7-.5z"/><path class="st239" d="M350.6 102.3l-.6.9h1.1z"/><path class="st240" d="M352.5 103.8l-2 3 2.1-.5z"/><path class="st241" d="M350.7 95.3v.8l.5-.5z"/><path class="st242" d="M350.5 106.8l-2.5.9h3.3z"/><path class="st243" d="M349.9 101.4l-.4 1.1 1.1-.2z"/><path class="st244" d="M349.5 102.5l.5.7.6-.9z"/><path class="st245" d="M347.7 87.1l1.2 1.3 1.8-1.6z"/><path class="st246" d="M350.5 106.8l.8.9 1.3-1.4z"/><path class="st247" d="M349.8 84.7l.9 2.1.8-1.3z"/><path class="st248" d="M350.7 96.1l-1.7.4 1.9 1.2z"/><path class="st249" d="M349 96.5l-.4 1.5 2.3-.3z"/><path class="st250" d="M350.4 89.1l-1.7.5 2 .4z"/><path class="st251" d="M349 95.8v.7l1.7-.4z"/><path class="st252" d="M350.3 93.6l-1.3 2.2 1.7-.5z"/><path class="st253" d="M348.8 90.3l1.4 1.3.5-1.6z"/><path class="st254" d="M348.7 89.6l.1.7 1.9-.3z"/><path class="st255" d="M350.4 89.1l.3.9.3-.7z"/><path class="st256" d="M348.6 98l.3.7 2-1z"/><path class="st257" d="M350 103.2l-.3 1 1.4-1z"/><path class="st258" d="M364.6 66.1l1.5 1.4.4-1.2z"/><path class="st259" d="M349.8 84.7l1.7.8 1-2.3z"/><path class="st260" d="M352.1 91.6h-1.9l2.1 1.2z"/><path class="st261" d="M350.9 97.7l.6.4v-1z"/><path class="st262" d="M350.7 90l-.5 1.6 1.2-.9z"/><path class="st263" d="M350.2 91.6l.1 2 2-.8z"/><path class="st264" d="M351.5 97.1v1l.4-.6z"/><path class="st265" d="M350.9 97.7l-2 1 2.6-.6z"/><path class="st266" d="M348.9 98.7l1 2.7 1.6-3.3z"/><path class="st267" d="M350.7 96.1l.2 1.6.6-.6z"/><path class="st268" d="M350.6 80.7l-.8 4 2.7-1.5z"/><path class="st269" d="M350.3 93.6l.4 1.7.9-1.3z"/><path class="st270" d="M350.6 102.3l.5.9.8-1.1z"/><path class="st271" d="M350.3 93.6l1.3.4.7-1.2z"/><path class="st272" d="M348.5 66.6l1.6 3.2 2.2-2.9z"/><path class="st273" d="M351.4 90.7l-1.2.9h1.9z"/><path class="st274" d="M352.3 66.9l.9 1.4 2.7-1.1z"/><path class="st275" d="M351.5 85.5l1.2 1.3.8-1z"/><path class="st276" d="M349.9 101.4l.7.9 1.6-1z"/><path class="st277" d="M350.6 102.3l1.3-.2.3-.8z"/><path class="st278" d="M351.5 98.1l-1.6 3.3 2.3-.1z"/><path class="st279" d="M352.8 72l2.3 1.4.8-3.3z"/><path class="st280" d="M350.7 86.8l.8 1.4 1.2-1.4z"/><path class="st281" d="M354.1 100.6l-1.1 1.3 1.4-.2z"/><path class="st148" d="M351.9 102.1l1 .9.1-1.1z"/><path class="st282" d="M350.1 76.1l2.6 1.4.1-5.5z"/><path class="st195" d="M351.5 85.5l-.8 1.3h2z"/><path class="st283" d="M349.7 104.2l.8 2.6 2-3z"/><path class="st284" d="M351.1 103.2l-1.4 1 2.8-.4z"/><path class="st285" d="M352.2 101.3l-.3.8 1.1-.2z"/><path class="st286" d="M354.1 83.2h-1.6l1.8 1.8z"/><path class="st287" d="M352.8 98.7l-.6 2.6 1.5-2.2z"/><path class="st288" d="M352.7 77.5l-2.1 3.2 2.8-.1z"/><path class="st289" d="M347.4 73.4l2.7 2.7 2.7-4.1z"/><path class="st290" d="M351.5 98.1l.7 3.2.6-2.6z"/><path class="st291" d="M352.5 83.2l-1 2.3 2 .3z"/><path class="st292" d="M350.1 69.8l-2.7 3.6 5.4-1.4z"/><path class="st293" d="M351.1 103.2l1.4.6.4-.8z"/><path class="st294" d="M351.9 102.1l-.8 1.1 1.8-.2z"/><path class="st295" d="M353.7 99.1l.4 1.5.6-.8z"/><path class="st296" d="M357.1 75.7l-2.1 2.5 2.1.2z"/><path class="st297" d="M352.7 77.5l2.3.7.1-4.8z"/><path class="st104" d="M352.8 98.7l.9.4.5-.1z"/><path class="st298" d="M350.6 80.7l1.9 2.5.9-2.6z"/><path class="st82" d="M354.1 102.7l-1.6 1.1 1.8 3.1z"/><path class="st147" d="M352.5 83.2l1 2.6.8-.8z"/><path class="st299" d="M353.7 99.1l-1.5 2.2 1.9-.7z"/><path class="st300" d="M352.2 101.3l.8.6 1.1-1.3z"/><path class="st301" d="M353 101.9l-.1 1.1 1.2-.3z"/><path class="st302" d="M353.4 80.6l-.9 2.6h1.6z"/><path class="st303" d="M352.9 103l-.4.8 1.6-1.1z"/><path class="st304" d="M352.8 72l-.1 5.5 2.4-4.1z"/><path class="st305" d="M353 101.9l1.1.8.3-1z"/><path class="st306" d="M354.7 99.8l.7 1.3.1-1.1z"/><path class="st307" d="M364.6 66.1l-.3 1.5 1.8-.1z"/><path class="st308" d="M352.6 106.3l-1.3 1.4 3-.8z"/><path class="st309" d="M355.9 70.1l1.8 2.4.8-2.7z"/><path class="st310" d="M352.5 103.8l.1 2.5 1.7.6z"/><path class="st311" d="M361.8 79.4l-1.5 1.3 2.4-.4z"/><path class="st312" d="M355.1 99.1l-.4.7.8.2z"/><path class="st313" d="M353.4 80.6l1.6.3v-2.7z"/><path class="st314" d="M354.1 83.2l.2 1.8.5-.8z"/><path class="st315" d="M352.7 77.5l.7 3.1 1.6-2.4z"/><path class="st316" d="M354.4 101.7l1 .6v-1.2z"/><path class="st317" d="M353.4 80.6l.7 2.6.9-2.3z"/><path class="st318" d="M354.8 84.2l-.5.8.8.6z"/><path class="st319" d="M354.3 85l-.8.8 1.6-.2z"/><path class="st320" d="M355.4 101.1v1.2l1.2-.5z"/><path class="st321" d="M355.4 102.3l-1.3.4 2.6 3.6z"/><path class="st322" d="M353.9 87.3l1.4.7v-1.5z"/><path class="st323" d="M354.4 101.7l-.3 1 1.3-.4z"/><path class="st324" d="M353.5 85.8l.4 1.5 1.4-.8z"/><path class="st325" d="M355.1 85.6l-1.6.2 1.8.7z"/><path class="st326" d="M354.1 102.7l.2 4.2 2.4-.6z"/><path class="st327" d="M354.1 100.6l.3 1.1 1-.6z"/><path class="st328" d="M354.7 99.8l-.6.8 1.3.5z"/><path class="st329" d="M353.2 68.3l-.4 3.7 3.1-1.9z"/><path class="st330" d="M355.9 67.2l-2.7 1.1 2.7 1.8z"/><path class="st331" d="M355 80.9l.6 2.3.7-.8z"/><path class="st332" d="M355.6 83.8l-.8.4 1.3.7z"/><path class="st147" d="M354.1 83.2l.7 1 .8-1z"/><path class="st333" d="M355 80.9l-.9 2.3h1.5z"/><path class="st331" d="M355 80.9l1.3 1.5.6-1.1z"/><path class="st334" d="M354.8 84.2l.3 1.4 1-.7z"/><path class="st335" d="M355.1 73.4l-.1 4.8 2.1-2.5z"/><path class="st336" d="M357.5 67.4l-1.6 2.7 2.6-.3z"/><path class="st337" d="M356.4 86.7l-1.1 1.3 1.4.1z"/><path class="st338" d="M357.5 103l-2.1-.7 2.2 3.1z"/><path class="st339" d="M355.1 73.4l2 2.3.6-3.2z"/><path class="st340" d="M355.4 102.3l1.3 4 .9-.9z"/><path class="st341" d="M363.3 77.9l1.2.7.3-2.7z"/><path class="st342" d="M356.4 86.7l.3 1.4 1-.6z"/><path class="st343" d="M357.5 101.3l-.9.5.9 1.2z"/><path class="st340" d="M356.6 101.8l-1.2.5 2.1.7z"/><path class="st344" d="M355 78.2v2.7l2.1-2.5z"/><path class="st345" d="M355.1 99.1l.4.9 1.6.1z"/><path class="st346" d="M355.4 101.1l1.2.7.5-1.7z"/><path class="st347" d="M355.5 100l-.1 1.1 1.7-1z"/><path class="st348" d="M355.9 67.2v2.9l1.6-2.7z"/><path class="st349" d="M357.1 100.1l-.5 1.7.9-.5z"/><path class="st350" d="M357.1 78.4l-2.1 2.5 2.6-.6z"/><path class="st351" d="M360.3 80.7l.8 1 1.6-1.4z"/><path class="st352" d="M355.6 83.8l.5 1.1 1.5-.7z"/><path class="st353" d="M357.1 82.9l-1.5.9 2 .4z"/><path class="st354" d="M355.9 70.1l-.8 3.3 2.6-.9z"/><path class="st64" d="M357.9 85.6h-1.2l1.4 1.1z"/><path class="st355" d="M355 80.9l1.9.4.7-1z"/><path class="st356" d="M356.7 85.6l-.3 1.1h1.7zm-.3 1.1l1.3.8.4-.8z"/><path class="st357" d="M357.1 75.7v2.7l1.9-1.1z"/><path class="st358" d="M357.1 78.4l.5 1.9 1.4-3z"/><path class="st359" d="M357.5 67.4l1 2.4 1.2-1.8z"/><path class="st360" d="M358.5 69.8l1.9.4v-1.7z"/><path class="st361" d="M359.7 68l-1.2 1.8 1.9-1.3z"/><path class="st362" d="M358.7 81.9l-1.6 1 2.2.2z"/><path class="st363" d="M357.7 72.5l2.2 1.9.3-2.1z"/><path class="st364" d="M357.1 82.9l.5 1.3 1.7-1.1z"/><path class="st365" d="M358.5 69.8l-.8 2.7 2.5-.2z"/><path class="st366" d="M357.7 72.5l-.6 3.2 2.8-1.3z"/><path class="st367" d="M357.1 75.7l1.9 1.6.9-2.9z"/><path class="st368" d="M358.5 69.8l1.7 2.5.2-2.1z"/><path class="st34" d="M362.8 67.2l.5 1.7 1-1.3z"/><path class="st369" d="M361.3 70.1l-.9.1 1.6 1.2z"/><path class="st370" d="M358.7 81.9l.6 1.2 1.8-1.4z"/><path class="st371" d="M360.3 80.7l-1.6 1.2 2.4-.2z"/><path class="st27" d="M360.4 70.2l-.2 2.1 1.8-.9z"/><path class="st372" d="M362.8 67.2l-1 1.3 1.5.4z"/><path class="st373" d="M361.3 70.1l.7 1.3 1.3-2.5z"/><path class="st374" d="M361.8 68.5l-.5 1.6 2-1.2z"/><path class="st375" d="M366 73.6l-1.2 2.3 1.4.2z"/><path class="st376" d="M361.8 79.4l.9.9.6-2.4z"/><path class="st35" d="M363.3 77.9l-.6 2.4 1.8-1.7z"/><path class="st377" d="M362.8 67.2l1.5.4.3-1.5z"/><path class="st378" d="M364.8 75.9l-.3 2.7 1.7-2.5z"/></g><g id="Layer_3"><path d="M123.8 150.5h-6.1c-.4 0-.7.3-.7.7v11.3c0 .4.3.7.7.7h6.1c.4 0 .7-.3.7-.7v-11.3c.1-.4-.2-.7-.7-.7zm-.9.7c.2 0 .3.1.3.3 0 .2-.1.3-.3.3-.2 0-.3-.1-.3-.3 0-.2.2-.3.3-.3zm-2.8 0h1.1c.2 0 .3.1.3.3 0 .2-.1.3-.3.3h-1.1c-.2 0-.3-.1-.3-.3 0-.2.2-.3.3-.3zm1.2 11.6h-1.2c-.2 0-.3-.1-.3-.3 0-.2.1-.3.3-.3h1.2c.2 0 .3.1.3.3 0 .2-.2.3-.3.3zm2.4-1.3h-6v-9h6v9zm-27.5 41.3H85.9c-.5 0-1 .4-1 1v14.4c0 .5.4 1 1 1h10.3c.5 0 1-.4 1-1v-14.4c0-.5-.4-1-1-1zm-4.4 15c0 .2-.1.3-.3.3h-.7c-.2 0-.3-.1-.3-.3v-.1c0-.2.1-.3.3-.3h.7c0-.1.3.2.3.4zm3.8-1.3h-9.2v-11.9h9.2v11.9zm39.1.7h-2.5v-14.7c0-.7-.6-1.4-1.4-1.4h-20.1c-.7 0-1.4.6-1.4 1.4v14.7h-2.5c-.5 0-1 .4-1 1 0 .5.4 1 1 1h27.9c.5 0 1-.4 1-1 0-.5-.5-1-1-1zm-4.4-.9h-19.2v-13.2h19.2v13.2zm34.1-20.5h-20.7c-.9 0-1.5.6-1.5 1.5v15.9c0 .9.6 1.5 1.5 1.5h7.6v2.8h-1.7c-1 0-1.8.7-1.8 1.8h12.5c0-1-.7-1.8-1.8-1.8h-1.7v-2.8h7.6c.9 0 1.5-.6 1.5-1.5v-15.9c0-.8-.6-1.5-1.5-1.5zm-.5 16.9h-19.6v-14.9h19.6v14.9z"/><path class="st379" d="M120.7 165.9v.9"/><path class="st380" d="M120.7 168.6v28.3"/><path class="st379" d="M120.7 197.7v1M91 200.2v-1"/><path class="st381" d="M91 197.5v-13.4"/><path class="st379" d="M91 183.2v-.9h1"/><path class="st382" d="M93.9 182.3h58.4"/><path class="st379" d="M153.3 182.3h.8v.9"/><path class="st383" d="M154.1 184.9v6.2"/><path class="st379" d="M154.1 192.1v.8"/><path class="st1" d="M82.3 144.7h86.2v86.2H82.3z"/><circle cx="280.8" cy="200.3" r="4.8"/><circle cx="298.2" cy="200.3" r="4.8"/><path d="M322.2 211.3l-8-28.9c-1.2-4.2-4.9-7-9.3-7h-11.1v-3.9h-8.6v3.9h-11.1c-4.3 0-8.1 2.9-9.3 7l-8 28.9c-.9 3.1 1 6.3 3.9 7.2 2.8.9 5.8-.5 7-3.1l6.2-13.2c-.2-.6-.3-1.3-.3-1.9 0-3.8 3.1-7 7-7 3.6 0 6.6 2.8 6.9 6.2h3.4c.4-3.5 3.4-6.2 6.9-6.2 3.8 0 7 3.1 7 7 0 .6-.1 1.4-.3 1.9l6.2 13.2c1.3 2.7 4.3 3.9 7 3.1 3.6-.8 5.3-4.1 4.5-7.2zm-42.3-22.1h-3.7v3.7h-4.3v-3.7h-3.7v-4.3h3.7v-3.7h4.3v3.7h3.7v4.3zm24.2-8.3c1.3 0 2.2 1.1 2.2 2.2 0 1.3-1.1 2.2-2.2 2.2s-2.2-1.1-2.2-2.2.9-2.2 2.2-2.2zm-16.7 10h-1.7c-.7 0-1.3-.5-1.3-1.3s.5-1.3 1.3-1.3h1.7c.7 0 1.3.5 1.3 1.3s-.6 1.3-1.3 1.3zm5.9 0h-1.7c-.7 0-1.3-.5-1.3-1.3s.5-1.3 1.3-1.3h1.7c.7 0 1.3.5 1.3 1.3s-.7 1.3-1.3 1.3zm6.4-.9c-1.3 0-2.2-1.1-2.2-2.2 0-1.3 1.1-2.2 2.2-2.2 1.3 0 2.2 1.1 2.2 2.2s-1 2.2-2.2 2.2zm4.4 4.4c-1.3 0-2.2-1.1-2.2-2.2 0-1.3 1.1-2.2 2.2-2.2s2.2 1.1 2.2 2.2c.1 1.2-1 2.2-2.2 2.2zm4.4-4.4c-1.3 0-2.2-1.1-2.2-2.2 0-1.3 1.1-2.2 2.2-2.2s2.2 1.1 2.2 2.2c.2 1.1-.9 2.2-2.2 2.2z"/><path class="st384" d="M289.8 174v-2.6c0-2.1 1.8-3.9 3.9-3.9h7.1c2.1 0 3.9-1.8 3.9-3.9v-6.3"/><path class="st1" d="M246.1 145h86.2v86.2h-86.2z"/><path class="st385" d="M122.1 346l2.9-6.3 2.9 6.3 6.3 2.7-6.3 2.7-2.9 6.3-2.9-6.3-6.3-2.7 6.3-2.7zm-14.7 20.7l6.3 2.7 2.9 6.3 2.9-6.3 6.3-2.7-6.3-2.7-2.9-6.3-2.9 6.3-6.3 2.7zm15.2 20.5l5 2.1 2.2 5 2.2-5 5-2.1-5-2.1-2.2-5-2.2 5-5 2.1zM98 364.6c-1 .9-2.1 2.5-2 4.3.3 3.2 5 4.9 7.8 6 1.9.7 4.8 1.5 8.6 1.4m-6.9-18.5c-1.9.3-4.9 1.1-8.2 3-3 1.7-8.2 4.7-8.4 9.4-.2 3.8 3 6.7 4.4 8 2.3 2.1 4.7 3 8.2 4.2.9.3 3.7 1.3 7.9 1.8 2.6.3 6.3.5 10.7.1m3.5-8.9c1 0 2.3 0 3.9-.3 1-.2 2.3-.4 3.9-1.2 1.5-.6 4.8-2.2 5.1-4.9.2-1.7-1-3.1-1.5-3.8-1.1-1.4-2.5-2-3.2-2.3m1.9 18.3c2.9-1.3 4.9-2.7 6.3-3.8 2-1.6 2.7-2.7 3.1-3.4.9-1.7 1-3.3 1-3.7 0-2.6-1.2-4.5-1.7-5.2-1.5-2.2-3.4-3.2-6-4.6-1.8-1-3.4-1.6-4.5-1.9m-40.6 28c3 2.1 8.3 5.2 15.6 6.8 7.8 1.7 14.2.9 17.9.1"/><path class="st1" d="M73.4 324h86.2v86.2H73.4z"/><path d="M292.9 373.6h-14.2c-2 0-2.8-.7-2.8-2.8v-11.5c0-1.9.7-2.7 2.7-2.7h14.3v-9.3c0-1 .3-1.8 1.3-2.2 1-.4 1.8-.1 2.5.6l17.6 17.6c1.2 1.2 1.2 2.2 0 3.4-5.9 5.9-11.7 11.7-17.5 17.6-.6.6-1.5 1.2-2.5.7-1.1-.4-1.4-1.3-1.4-2.3v-9.1zm-29.8-8.4v11.4c0 5.5 4.2 9.7 9.7 9.7h9.9c1 0 1.4-.3 1.5-1.3 0-.5.1-1 0-1.5-.1-1.3-.3-1.5-1.6-1.5H273c-3.4 0-5.6-2.1-5.8-5.5 0-7.6-.1-15.2 0-22.8 0-3.4 2.2-5.5 5.8-5.5h9.6c1.3 0 1.5-.2 1.6-1.5v-1.2c-.1-1.4-.3-1.5-1.7-1.5h-9.6c-5.9 0-9.9 4.1-9.9 9.9.1 3.8.1 7.5.1 11.3z"/><path class="st1" d="M246.1 321.9h86.2v86.2h-86.2z"/></g></svg>