<?xml version="1.0" encoding="utf-8"?>
<!-- Generator: Adobe Illustrator 21.0.0, SVG Export Plug-In . SVG Version: 6.00 Build 0)  -->
<svg version="1.1" id="Layer_1" xmlns="http://www.w3.org/2000/svg" xmlns:xlink="http://www.w3.org/1999/xlink" x="0px" y="0px"
	 viewBox="0 0 72.8 75" style="enable-background:new 0 0 72.8 75;" xml:space="preserve">
<style type="text/css">
	.st0{fill:#F6C75B;}
	.st1{fill:#FCE6AC;}
	.st2{fill:#F8D174;}
	.st3{fill:#EAB646;}
	.st4{fill:#F3C355;}
	.st5{fill:#FBD071;}
	.st6{fill:#E9B444;}
	.st7{fill:#F8CE68;}
	.st8{fill:#FBE2A2;}
	.st9{fill:#FDEBBD;}
	.st10{fill:#D9C298;}
	.st11{fill:#F0C051;}
	.st12{fill:#FCE4A6;}
	.st13{fill:#F3C152;}
	.st14{fill:#F6C75D;}
	.st15{fill:#FCE19E;}
	.st16{fill:#FAD270;}
	.st17{fill:#A16800;}
	.st18{fill:#DBA22F;}
	.st19{fill:#602E25;}
	.st20{fill:#B9861B;}
	.st21{fill:#F1BF50;}
	.st22{fill:#E0A734;}
	.st23{fill:#ECB848;}
	.st24{fill:#DDA431;}
	.st25{fill:#CC8B17;}
	.st26{fill:#D0911D;}
	.st27{fill:#D29522;}
	.st28{fill:#CA8B17;}
	.st29{fill:#E5B03E;}
	.st30{fill:#E2AA39;}
	.st31{fill:#DCA02E;}
	.st32{fill:#E5AD3C;}
	.st33{fill:#CB8A16;}
	.st34{fill:#D39824;}
	.st35{fill:#CD8C18;}
	.st36{fill:#CF9420;}
	.st37{fill:#CE8D19;}
	.st38{fill:#A96E06;}
	.st39{fill:#E8B13C;}
	.st40{fill:#D9A02C;}
	.st41{fill:#DA9A1F;}
	.st42{fill:#AA6F07;}
	.st43{fill:#9D6300;}
	.st44{fill:#A56C05;}
	.st45{fill:#9F6501;}
	.st46{fill:#A46B04;}
	.st47{fill:#B57B0D;}
	.st48{fill:#AB710D;}
	.st49{fill:#E8B341;}
	.st50{fill:#E5AE39;}
	.st51{fill:#D69F2B;}
	.st52{fill:#3E1B15;}
	.st53{fill:#3C1B14;}
	.st54{fill:#56261C;}
	.st55{fill:#CE9625;}
	.st56{fill:#CC9423;}
	.st57{fill:#5A2A1E;}
	.st58{fill:#C38B1A;}
	.st59{fill:#55261E;}
	.st60{fill:#B77D0F;}
	.st61{fill:#D9A22E;}
	.st62{fill:#D49C2B;}
	.st63{fill:#51261D;}
	.st64{fill:#D1992C;}
	.st65{fill:#8D6355;}
	.st66{fill:#431C15;}
	.st67{fill:#D19116;}
	.st68{fill:#B98112;}
	.st69{fill:#A76C04;}
	.st70{fill:#B77F10;}
	.st71{fill:#C99120;}
	.st72{fill:#C78A17;}
	.st73{fill:#B57C13;}
	.st74{fill:#BC831A;}
	.st75{fill:#C58C21;}
	.st76{fill:#A06700;}
	.st77{fill:#A66D04;}
	.st78{fill:#E1AC3C;}
	.st79{fill:#4B241D;}
	.st80{fill:#673C33;}
	.st81{fill:#704034;}
	.st82{fill:#683429;}
	.st83{fill:#5E2E24;}
	.st84{fill:#AE7607;}
	.st85{fill:#D39B2E;}
	.st86{fill:#48211A;}
	.st87{fill:#552E27;}
	.st88{fill:#60352C;}
	.st89{fill:#C1891C;}
	.st90{fill:#D29A2B;}
	.st91{fill:#713E2D;}
	.st92{fill:#CD9528;}
	.st93{fill:#5A322A;}
	.st94{fill:#C29822;}
	.st95{fill:#AD7305;}
	.st96{fill:#A16C04;}
	.st97{fill:#63372E;}
	.st98{fill:#9C6707;}
	.st99{fill:#C49724;}
	.st100{fill:#D0B437;}
	.st101{fill:#6C3A2F;}
	.st102{fill:#81473B;}
	.st103{fill:#A16A06;}
	.st104{fill:#9A6402;}
	.st105{fill:#E2AD3B;}
	.st106{fill:#A8740E;}
	.st107{fill:#572F27;}
	.st108{fill:#5B3027;}
	.st109{fill:#AC7815;}
	.st110{fill:#6A3F36;}
	.st111{fill:#DAA535;}
	.st112{fill:#A36A01;}
	.st113{fill:#A16801;}
	.st114{fill:#774338;}
	.st115{fill:#9F6B44;}
	.st116{fill:#DCCB55;}
	.st117{fill:#CD972B;}
	.st118{fill:#DBC94D;}
	.st119{fill:#AB7D70;}
	.st120{fill:#ECB842;}
	.st121{fill:#C78F22;}
	.st122{fill:#BA8116;}
	.st123{fill:#C89023;}
	.st124{fill:#D7A232;}
	.st125{fill:#6C4035;}
	.st126{fill:#BB8217;}
	.st127{fill:#D0B13C;}
	.st128{fill:#B88319;}
	.st129{fill:#B0760B;}
	.st130{fill:#986813;}
	.st131{fill:#DCCC5D;}
	.st132{fill:#79493D;}
	.st133{fill:#9C6A09;}
	.st134{fill:#663A2F;}
	.st135{fill:#A58200;}
	.st136{fill:#F4E8B8;}
	.st137{fill:#9C6802;}
	.st138{fill:#A76E05;}
	.st139{fill:#A26902;}
	.st140{fill:#A46D06;}
	.st141{fill:#A66D06;}
	.st142{fill:#DEA635;}
	.st143{fill:#D69821;}
	.st144{fill:#D0C80B;}
	.st145{fill:#B98015;}
	.st146{fill:#784C41;}
	.st147{fill:#EAB33F;}
	.st148{fill:#9B6505;}
	.st149{fill:#704235;}
	.st150{fill:#76473D;}
	.st151{fill:#AD7611;}
	.st152{fill:#895045;}
	.st153{fill:#E3AC37;}
	.st154{fill:#AE750C;}
	.st155{fill:#D9AC35;}
	.st156{fill:#A66F0B;}
	.st157{fill:#C9A551;}
	.st158{fill:#D3B640;}
	.st159{fill:#916356;}
	.st160{fill:#B17D18;}
	.st161{fill:#D1B93B;}
	.st162{fill:#C08A20;}
	.st163{fill:#D6C048;}
	.st164{fill:#7C4E41;}
	.st165{fill:#8F6559;}
	.st166{fill:#AD7717;}
	.st167{fill:#AD7715;}
	.st168{fill:#B27D17;}
	.st169{fill:#A86F06;}
	.st170{fill:#834F41;}
	.st171{fill:#AB7209;}
	.st172{fill:#D1B740;}
	.st173{fill:#B5801A;}
	.st174{fill:#A36F0A;}
	.st175{fill:#E4D970;}
	.st176{fill:#A67109;}
	.st177{fill:#C49730;}
	.st178{fill:#AA7412;}
	.st179{fill:#E2AB36;}
	.st180{fill:#EEBC4D;}
	.st181{fill:#AF7A1E;}
	.st182{fill:#BB861E;}
	.st183{fill:#D8C15B;}
	.st184{fill:#A66F0A;}
	.st185{fill:#B67F18;}
	.st186{fill:#79493B;}
	.st187{fill:#BC931F;}
	.st188{fill:#B0770C;}
	.st189{fill:#AF760B;}
	.st190{fill:#BF8C23;}
	.st191{fill:#DEAA3A;}
	.st192{fill:#D9A537;}
	.st193{fill:#A36C05;}
	.st194{fill:#C39E95;}
	.st195{fill:#AF7B18;}
	.st196{fill:#96685B;}
	.st197{fill:#DCCD66;}
	.st198{fill:#A4700D;}
	.st199{fill:#D1A02A;}
	.st200{fill:#F4F0CA;}
	.st201{fill:#AE780E;}
	.st202{fill:#A1796F;}
	.st203{fill:#9B690A;}
	.st204{fill:#DBC467;}
	.st205{fill:#A87A1A;}
	.st206{fill:#A8771B;}
	.st207{fill:#B88C2B;}
	.st208{fill:#B98B1B;}
	.st209{fill:#A26B04;}
	.st210{fill:#BD9526;}
	.st211{fill:#EAE29A;}
	.st212{fill:#F2EFBA;}
	.st213{fill:#DCC869;}
	.st214{fill:#F5F2CF;}
	.st215{fill:#FBF9EA;}
	.st216{fill:#CAA82D;}
	.st217{fill:#A8710A;}
	.st218{fill:#98690D;}
	.st219{fill:#B78C1C;}
	.st220{fill:#BC902D;}
	.st221{fill:#BA810E;}
	.st222{fill:#F8F6B9;}
	.st223{fill:#A38178;}
	.st224{fill:#BB9832;}
	.st225{fill:#C49E49;}
	.st226{fill:#BA903C;}
	.st227{fill:#D5B73B;}
	.st228{fill:#E3D475;}
	.st229{fill:#F2ECC8;}
	.st230{fill:#AD8176;}
	.st231{fill:#E4CF80;}
	.st232{fill:#845042;}
	.st233{fill:#B68F34;}
	.st234{fill:#D5BF48;}
	.st235{fill:#753F35;}
	.st236{fill:#AA7815;}
	.st237{fill:#A97D72;}
	.st238{fill:#DDCF4C;}
	.st239{fill:#B27C18;}
	.st240{fill:#7C4B3D;}
	.st241{fill:#E3D87F;}
	.st242{fill:#976F63;}
	.st243{fill:#B38516;}
	.st244{fill:#724238;}
	.st245{fill:#AE8215;}
	.st246{fill:#AE8028;}
	.st247{fill:#EEE4AF;}
	.st248{fill:#CAAD49;}
	.st249{fill:#D2BA56;}
	.st250{fill:#9A6C17;}
	.st251{fill:#CBB471;}
	.st252{fill:#D9C771;}
	.st253{fill:#B58725;}
	.st254{fill:#E8DDB0;}
	.st255{fill:#A6857C;}
	.st256{fill:#F5C95E;}
	.st257{fill:#AF8316;}
	.st258{fill:#CFA344;}
	.st259{fill:#D8A741;}
	.st260{fill:#DAB05A;}
	.st261{fill:#CFAF58;}
	.st262{fill:#B08220;}
	.st263{fill:#D5C35D;}
	.st264{fill:#C5AA5B;}
	.st265{fill:#C1902A;}
	.st266{fill:#BE9A28;}
	.st267{fill:#A67822;}
	.st268{fill:#977168;}
	.st269{fill:#B28327;}
	.st270{fill:#F9F39B;}
	.st271{fill:#DEB253;}
	.st272{fill:#EBE790;}
	.st273{fill:#B57C11;}
	.st274{fill:#E8DCA2;}
	.st275{fill:#DAC872;}
	.st276{fill:#E5DAAC;}
	.st277{fill:#CFB963;}
	.st278{fill:#AE750E;}
	.st279{fill:#C09F2C;}
	.st280{fill:#E0D36D;}
	.st281{fill:#E8E57A;}
	.st282{fill:#9D7C73;}
	.st283{fill:#D0B750;}
	.st284{fill:#B47B12;}
	.st285{fill:#B98927;}
	.st286{fill:#C1A333;}
	.st287{fill:#E9DB7A;}
	.st288{fill:#B48630;}
	.st289{fill:#A77009;}
	.st290{fill:#F0E79A;}
	.st291{fill:#7C5246;}
	.st292{fill:#936158;}
	.st293{fill:#C69127;}
	.st294{fill:#C08B23;}
	.st295{fill:#B99332;}
	.st296{fill:#B68E1F;}
	.st297{fill:#B58320;}
	.st298{fill:#BE972E;}
	.st299{fill:#7F493D;}
	.st300{fill:#A6700C;}
	.st301{fill:#6D4138;}
	.st302{fill:#D3C062;}
	.st303{fill:#6C3D33;}
	.st304{fill:#AC770F;}
	.st305{fill:#BB841F;}
	.st306{fill:#6B3C32;}
	.st307{fill:#B48223;}
	.st308{fill:#693A30;}
	.st309{fill:#C98C19;}
	.st310{fill:#8A561C;}
	.st311{fill:#A87411;}
	.st312{fill:#B87F14;}
	.st313{fill:#B38822;}
	.st314{fill:#63342C;}
	.st315{fill:#AB7610;}
	.st316{fill:#B88011;}
	.st317{fill:#B2780C;}
	.st318{fill:#69372C;}
	.st319{fill:#5A2F28;}
	.st320{fill:#B07608;}
	.st321{fill:#744035;}
	.st322{fill:#AD7307;}
	.st323{fill:#B37B0E;}
	.st324{fill:#5C3128;}
	.st325{fill:#B78B1E;}
	.st326{fill:#AF7B15;}
	.st327{fill:#E2D98A;}
	.st328{fill:#D0BB5E;}
	.st329{fill:#BF861B;}
	.st330{fill:#C58D1E;}
	.st331{fill:#C38A1F;}
	.st332{fill:#BF8718;}
	.st333{fill:#AC7A1B;}
	.st334{fill:#B07D21;}
	.st335{fill:#BC8415;}
	.st336{fill:#502721;}
	.st337{fill:#B17F20;}
	.st338{fill:#512822;}
	.st339{fill:#D1921E;}
	.st340{fill:#C68E1D;}
	.st341{fill:#4E251F;}
	.st342{fill:#BC871F;}
	.st343{fill:#6A382D;}
	.st344{fill:#633329;}
	.st345{fill:#61322A;}
	.st346{fill:#B58A2E;}
	.st347{fill:#67322A;}
	.st348{fill:#CC9427;}
	.st349{fill:#CA8D1A;}
	.st350{fill:#CC9725;}
	.st351{fill:#D49F2D;}
	.st352{fill:#B18429;}
	.st353{fill:#C1881D;}
	.st354{fill:#CD9524;}
	.st355{fill:#D29C2F;}
	.st356{fill:#C0871E;}
	.st357{fill:#D5A036;}
	.st358{fill:#E2AD3D;}
	.st359{fill:#E9B442;}
	.st360{fill:#EAB541;}
	.st361{fill:#DCA737;}
	.st362{fill:#E2AD39;}
	.st363{fill:#E3AE3E;}
	.st364{fill:#DBA538;}
	.st365{fill:#D09A2D;}
	.st366{fill:#DDA838;}
	.st367{fill:#CC8F1A;}
	.st368{fill:#DEA62F;}
	.st369{fill:#D69B25;}
	.st370{fill:#DEA532;}
	.st371{fill:#D69A28;}
	.st372{fill:#E7B23E;}
	.st373{fill:#E0A935;}
	.st374{fill:#CC8A19;}
	.st375{fill:#E9B545;}
	.st376{fill:#D99E2A;}
</style>
<g>
	<polygon class="st0" points="70.7,9.4 71.5,13.7 72.8,7.9 	"/>
	<polygon class="st1" points="72.8,3.6 70.7,5.2 72.8,7.9 	"/>
	<polygon class="st2" points="70.7,5.2 70.7,9.4 72.8,7.9 	"/>
	<polygon class="st3" points="3.1,12 1.5,13.3 4.6,15.2 	"/>
	<polygon class="st4" points="2.1,8.8 0.2,10.1 3.1,12 	"/>
	<polygon class="st5" points="0,6.7 2.1,8.8 2.2,5.4 	"/>
	<polygon class="st6" points="1.5,13.3 2.5,16.3 4.6,15.2 	"/>
	<polygon class="st7" points="0,6.7 0.2,10.1 2.1,8.8 	"/>
	<polygon class="st8" points="0.1,2.9 2.2,5.4 2.8,3.2 	"/>
	<polygon class="st9" points="0.1,2.9 0,6.7 2.2,5.4 	"/>
	<polygon class="st10" points="69,2.7 70.7,5.2 72.8,3.6 	"/>
	<polygon class="st11" points="1.5,13.3 0.2,10.1 2.5,16.3 	"/>
	<polygon class="st12" points="2,0.6 0.1,2.9 2.8,3.2 	"/>
	<polygon class="st13" points="0.2,10.1 1.5,13.3 3.1,12 	"/>
	<polygon class="st14" points="4.7,0 2.8,3.2 5.7,2.3 	"/>
	<polygon class="st15" points="69.8,0.5 69,2.7 72.8,3.6 	"/>
	<polygon class="st16" points="2,0.6 2.8,3.2 4.7,0 	"/>
	<polygon class="st17" points="29,38.8 30.5,40.1 31.1,37.5 	"/>
	<polygon class="st18" points="2.5,16.3 5.2,20.5 7,18.9 	"/>
	<polygon class="st19" points="21.9,60.2 22.4,61.3 23.6,60.2 	"/>
	<polygon class="st20" points="30.4,53.3 31.1,54.2 31.4,52.7 	"/>
	<polygon class="st21" points="4.7,0 5.7,2.3 7.4,0.3 	"/>
	<polygon class="st22" points="4.6,15.2 2.5,16.3 7,18.9 	"/>
	<polygon class="st23" points="7.4,0.3 5.7,2.3 7.9,3.1 	"/>
	<polygon class="st24" points="10,2.7 8.7,5.7 10.9,4.9 	"/>
	<polygon class="st25" points="5.2,20.5 7.9,23.8 9.7,22.3 	"/>
	<polygon class="st26" points="7,18.9 5.2,20.5 9.7,22.3 	"/>
	<polygon class="st27" points="9.9,8.4 11.7,9.8 12.1,7.2 	"/>
	<polygon class="st28" points="9.7,22.3 7.9,23.8 11.2,27.1 	"/>
	<polygon class="st29" points="7.4,0.3 7.9,3.1 10,2.7 	"/>
	<polygon class="st30" points="7.9,3.1 8.7,5.7 10,2.7 	"/>
	<polygon class="st31" points="8.7,5.7 9.9,8.4 10.9,4.9 	"/>
	<polygon class="st32" points="25.3,1.5 20.6,2.1 25.4,7 	"/>
	<polygon class="st33" points="13.8,8.1 11.7,9.8 14,10.6 	"/>
	<polygon class="st34" points="10.9,4.9 9.9,8.4 12.1,7.2 	"/>
	<polygon class="st35" points="9.7,22.3 11.2,27.1 13.5,25.9 	"/>
	<polygon class="st36" points="13.5,25.9 11.2,27.1 15.4,30 	"/>
	<polygon class="st37" points="12.1,7.2 11.7,9.8 13.8,8.1 	"/>
	<polygon class="st38" points="14,10.6 14.8,14.9 18.4,11.1 	"/>
	<polygon class="st39" points="16.6,28.3 15.4,30 18.6,32.2 	"/>
	<polygon class="st40" points="13.5,25.9 15.4,30 16.6,28.3 	"/>
	<polygon class="st41" points="22.4,61.3 24.1,62.1 24.3,60.8 	"/>
	<polygon class="st42" points="17.3,21.4 19.5,26.5 19.9,19.5 	"/>
	<polygon class="st43" points="14,10.6 18.4,11.1 18.5,7.2 	"/>
	<polygon class="st44" points="13.8,8.1 14,10.6 18.5,7.2 	"/>
	<polygon class="st45" points="16,3.3 13.8,4.9 18.5,7.2 	"/>
	<polygon class="st46" points="13.8,4.9 13.8,8.1 18.5,7.2 	"/>
	<polygon class="st47" points="23.3,36.6 21.3,39.7 24.6,39.3 	"/>
	<polygon class="st48" points="16,3.3 18.5,7.2 20.6,2.1 	"/>
	<polygon class="st49" points="68.9,13.6 69.3,18.3 71.5,13.7 	"/>
	<polygon class="st50" points="16.6,28.3 18.6,32.2 19.8,30.5 	"/>
	<polygon class="st45" points="18.4,11.1 14.8,14.9 19.9,19.5 	"/>
	<polygon class="st42" points="14.8,14.9 17.3,21.4 19.9,19.5 	"/>
	<polygon class="st51" points="17.8,35.7 18.1,37.4 20.1,35.1 	"/>
	<polygon class="st52" points="19.1,66.2 19,69.3 20.9,64.6 	"/>
	<polygon class="st53" points="19.1,63.4 19.1,66.2 20.9,64.6 	"/>
	<polygon class="st54" points="19.4,61.8 19.1,63.4 20.9,64.6 	"/>
	<polygon class="st55" points="20.1,35.1 18.1,37.4 21.1,37.1 	"/>
	<polygon class="st56" points="18.1,37.4 19.7,39.2 21.1,37.1 	"/>
	<polygon class="st57" points="21.9,60.2 19.4,61.8 22.4,61.3 	"/>
	<polygon class="st58" points="21.1,37.1 19.7,39.2 21.3,39.7 	"/>
	<polygon class="st59" points="19.4,61.8 20.9,64.6 22.4,61.3 	"/>
	<polygon class="st60" points="23.4,34.8 23.3,36.6 25.4,34.3 	"/>
	<polygon class="st61" points="19.8,30.5 18.6,32.2 21.6,31.4 	"/>
	<polygon class="st62" points="18.6,32.2 21,33.5 21.6,31.4 	"/>
	<polygon class="st63" points="22.4,61.3 20.9,64.6 22.9,63.2 	"/>
	<polygon class="st64" points="20.6,2.1 18.5,7.2 25.4,7 	"/>
	<polygon class="st65" points="36.6,65.6 37.6,66.9 39.1,65.6 	"/>
	<polygon class="st66" points="19,69.3 19,71.2 22.8,73.5 	"/>
	<polygon class="st67" points="23.6,60.2 22.4,61.3 24.3,60.8 	"/>
	<polygon class="st68" points="23.6,32.4 23.4,34.8 25.4,34.3 	"/>
	<polygon class="st69" points="21.2,28.7 22.7,31 24.2,28.2 	"/>
	<polygon class="st70" points="21.1,37.1 21.3,39.7 23.3,36.6 	"/>
	<polygon class="st71" points="21.6,31.4 21,33.5 23.6,32.4 	"/>
	<polygon class="st58" points="21,33.5 23.4,34.8 23.6,32.4 	"/>
	<polygon class="st72" points="22.4,61.3 22.9,63.2 24.1,62.1 	"/>
	<polygon class="st73" points="18.4,11.1 19.9,19.5 23.9,12 	"/>
	<polygon class="st74" points="18.5,7.2 18.4,11.1 23.9,12 	"/>
	<polygon class="st75" points="23.9,12 19.9,19.5 25.2,17 	"/>
	<polygon class="st76" points="19.9,19.5 19.5,26.5 24.2,28.2 	"/>
	<polygon class="st38" points="19.5,26.5 21.2,28.7 24.2,28.2 	"/>
	<polygon class="st77" points="22.7,31 23.6,32.4 24.2,28.2 	"/>
	<polygon class="st78" points="25.3,1.5 29.5,7.3 31.2,1.1 	"/>
	<polygon class="st79" points="19,69.3 22.8,73.5 25,65.7 	"/>
	<polygon class="st80" points="27.6,64.5 29.3,66.6 29.9,65.2 	"/>
	<polygon class="st81" points="21.9,60.2 23.6,60.2 24.8,59.4 	"/>
	<polygon class="st82" points="23.6,60.2 24.3,60.8 24.8,59.4 	"/>
	<polygon class="st83" points="22.9,63.2 20.9,64.6 25,65.7 	"/>
	<polygon class="st84" points="25.4,34.3 23.3,36.6 25.9,37.7 	"/>
	<polygon class="st85" points="18.5,7.2 23.9,12 25.4,7 	"/>
	<polygon class="st86" points="20.9,64.6 19,69.3 25,65.7 	"/>
	<polygon class="st87" points="22.9,63.2 25,65.7 25.8,64.3 	"/>
	<polygon class="st88" points="27.3,66.2 25,65.7 28.1,68.1 	"/>
	<polygon class="st89" points="31.5,28.7 28.8,33.3 33.6,33.7 	"/>
	<polygon class="st90" points="28.5,47.5 31.9,49.5 32.1,46.3 	"/>
	<polygon class="st91" points="24.8,59.4 24.3,60.8 25.6,59.6 	"/>
	<polygon class="st92" points="31,43.8 32.1,46.3 34,43.6 	"/>
	<polygon class="st93" points="25.8,64.3 27.3,66.2 27.6,64.5 	"/>
	<polygon class="st81" points="24.8,59.4 25.6,59.6 26.3,59 	"/>
	<polygon class="st94" points="24.1,62.1 22.9,63.2 25.8,64.3 	"/>
	<polygon class="st95" points="23.3,36.6 24.6,39.3 25.9,37.7 	"/>
	<polygon class="st96" points="25.4,34.3 25.9,37.7 27.1,36.2 	"/>
	<polygon class="st97" points="28.1,70.8 26.4,74.2 28.2,72.9 	"/>
	<polygon class="st98" points="25.6,59.6 27.2,63.4 27.8,58.7 	"/>
	<polygon class="st99" points="24.1,62.1 25.8,64.3 27.2,63.4 	"/>
	<polygon class="st100" points="27.2,63.4 25.8,64.3 27.6,64.5 	"/>
	<polygon class="st101" points="25.8,64.3 25,65.7 27.3,66.2 	"/>
	<polygon class="st102" points="26.3,59 25.6,59.6 27.8,58.7 	"/>
	<polygon class="st103" points="24.3,60.8 24.1,62.1 27.2,63.4 	"/>
	<polygon class="st104" points="25.6,59.6 24.3,60.8 27.2,63.4 	"/>
	<polygon class="st105" points="23.9,12 29.1,14.5 29.5,7.3 	"/>
	<polygon class="st106" points="38.1,40.2 40.8,41.5 41.3,37.5 	"/>
	<polygon class="st107" points="25,65.7 22.8,73.5 28.1,70.8 	"/>
	<polygon class="st88" points="28.1,68.1 25,65.7 28.1,70.8 	"/>
	<polygon class="st29" points="25.4,7 23.9,12 29.5,7.3 	"/>
	<polygon class="st108" points="22.8,73.5 26.4,74.2 28.1,70.8 	"/>
	<polygon class="st109" points="29.5,57.8 27.8,58.7 30.6,63.6 	"/>
	<polygon class="st110" points="27.3,66.2 28.1,68.1 29.3,66.6 	"/>
	<polygon class="st111" points="23.9,12 25.2,17 29.1,14.5 	"/>
	<polygon class="st76" points="24.2,28.2 23.6,32.4 28.8,33.3 	"/>
	<polygon class="st112" points="23.6,32.4 25.4,34.3 28.8,33.3 	"/>
	<polygon class="st113" points="25.4,34.3 27.1,36.2 28.8,33.3 	"/>
	<polygon class="st114" points="27.6,64.5 27.3,66.2 29.3,66.6 	"/>
	<polygon class="st115" points="34.6,67.1 32.6,68.6 34.8,68.7 	"/>
	<polygon class="st116" points="30.6,63.6 29.9,65.2 31.5,65.2 	"/>
	<polygon class="st117" points="27.8,58.7 27.2,63.4 30.6,63.6 	"/>
	<polygon class="st118" points="27.6,64.5 29.9,65.2 30.6,63.6 	"/>
	<polygon class="st119" points="34,65.6 32,66.9 34.6,67.1 	"/>
	<polygon class="st120" points="25.3,1.5 25.4,7 29.5,7.3 	"/>
	<polygon class="st121" points="29.6,23.1 24.2,28.2 31.5,28.7 	"/>
	<polygon class="st122" points="19.9,19.5 24.2,28.2 29.6,23.1 	"/>
	<polygon class="st123" points="25.2,17 19.9,19.5 29.6,23.1 	"/>
	<polygon class="st124" points="29.1,14.5 25.2,17 29.6,23.1 	"/>
	<polygon class="st125" points="29.3,66.6 28.1,68.1 30.8,68.8 	"/>
	<polygon class="st126" points="24.2,28.2 28.8,33.3 31.5,28.7 	"/>
	<polygon class="st127" points="27.2,63.4 27.6,64.5 30.6,63.6 	"/>
	<polygon class="st128" points="28.6,56.8 29.5,57.8 30.2,57 	"/>
	<polygon class="st129" points="29.6,55.7 28.6,56.8 30.2,57 	"/>
	<polygon class="st130" points="31.3,42.8 31,43.8 34,43.6 	"/>
	<polygon class="st131" points="31.3,42.8 34,43.6 34.2,42.5 	"/>
	<polygon class="st132" points="32,66.9 30.8,68.8 32.6,68.6 	"/>
	<polygon class="st133" points="29.7,50.4 31.4,52.7 31.9,49.5 	"/>
	<polygon class="st134" points="28.2,72.9 26.4,74.2 31,74.7 	"/>
	<polygon class="st135" points="28.1,68.1 28.1,70.8 30.8,68.8 	"/>
	<polygon class="st136" points="40.4,46.1 36.4,46.5 40.7,49.7 	"/>
	<polygon class="st137" points="29.6,55.7 30.2,57 31.1,54.2 	"/>
	<polygon class="st138" points="28.8,33.3 27.1,36.2 31.1,37.5 	"/>
	<polygon class="st139" points="27.1,36.2 29,38.8 31.1,37.5 	"/>
	<polygon class="st140" points="33.6,33.7 36.5,34.2 36.6,27.2 	"/>
	<polygon class="st141" points="31.5,28.7 33.6,33.7 36.6,27.2 	"/>
	<polygon class="st142" points="30.8,68.8 28.1,70.8 31.7,73.2 	"/>
	<polygon class="st143" points="30.8,42 31.3,42.8 31.9,41.5 	"/>
	<polygon class="st144" points="28.1,70.8 28.2,72.9 31.7,73.2 	"/>
	<polygon class="st145" points="28.8,33.3 31.1,37.5 33.6,33.7 	"/>
	<polygon class="st146" points="29.3,66.6 30.8,68.8 32,66.9 	"/>
	<polygon class="st147" points="30.8,68.8 31.7,73.2 32.6,68.6 	"/>
	<polygon class="st148" points="47.6,59.4 46.8,59.6 48.6,60.9 	"/>
	<polygon class="st149" points="28.2,72.9 31,74.7 31.7,73.2 	"/>
	<polygon class="st150" points="31.5,65.2 29.9,65.2 32,66.9 	"/>
	<polygon class="st151" points="28.5,47.5 29.7,50.4 31.9,49.5 	"/>
	<polygon class="st152" points="29.9,65.2 29.3,66.6 32,66.9 	"/>
	<polygon class="st153" points="32.6,68.6 31.7,73.2 34.8,68.7 	"/>
	<polygon class="st154" points="29.4,45.3 28.5,47.5 32.1,46.3 	"/>
	<polygon class="st155" points="31.9,41.5 31.3,42.8 34.2,42.5 	"/>
	<polygon class="st156" points="31,43.8 29.4,45.3 32.1,46.3 	"/>
	<polygon class="st157" points="36.4,46.5 36.5,49.8 40.7,49.7 	"/>
	<polygon class="st158" points="40.2,18.3 35.9,21.2 41.2,26.4 	"/>
	<polygon class="st159" points="37.6,66.9 34.8,68.7 39.4,68.7 	"/>
	<polygon class="st160" points="29.5,57.8 30.6,63.6 33.2,58.7 	"/>
	<polygon class="st161" points="30.2,57 29.5,57.8 33.2,58.7 	"/>
	<polygon class="st162" points="31.1,54.2 30.2,57 33.6,57.7 	"/>
	<polygon class="st163" points="30.2,57 33.2,58.7 33.6,57.7 	"/>
	<polygon class="st164" points="31.5,65.2 32,66.9 34,65.6 	"/>
	<polygon class="st165" points="32,66.9 32.6,68.6 34.6,67.1 	"/>
	<polygon class="st166" points="34.3,6.1 29.5,7.3 35.5,13.3 	"/>
	<polygon class="st167" points="31.2,1.1 29.5,7.3 34.3,6.1 	"/>
	<polygon class="st168" points="29.5,7.3 29.1,14.5 35.5,13.3 	"/>
	<polygon class="st169" points="34.2,40 31.9,41.5 34.2,42.5 	"/>
	<polygon class="st46" points="33.6,33.7 35.9,38 36.5,34.2 	"/>
	<polygon class="st170" points="35.7,73.4 31,74.7 36.5,75 	"/>
	<polygon class="st171" points="31.1,37.5 30.5,40.1 34.2,40 	"/>
	<polygon class="st77" points="30.5,40.1 31.9,41.5 34.2,40 	"/>
	<polygon class="st172" points="31.4,52.7 31.1,54.2 34.3,54.7 	"/>
	<polygon class="st173" points="31.1,54.2 33.6,57.7 34.3,54.7 	"/>
	<polygon class="st174" points="31.9,49.5 31.4,52.7 34.8,53.6 	"/>
	<polygon class="st175" points="31.5,65.2 34,65.6 34.9,63.9 	"/>
	<polygon class="st176" points="34.2,40 37.8,42.5 38.1,40.2 	"/>
	<polygon class="st177" points="31.4,52.7 34.3,54.7 34.8,53.6 	"/>
	<polygon class="st178" points="35.5,13.3 29.1,14.5 35.9,21.2 	"/>
	<polygon class="st179" points="34.8,68.7 31.7,73.2 35.7,73.4 	"/>
	<polygon class="st180" points="70.7,9.4 68.9,13.6 71.5,13.7 	"/>
	<polygon class="st181" points="31.2,1.1 34.3,6.1 37.4,1.1 	"/>
	<polygon class="st182" points="33.2,58.7 30.6,63.6 34.9,63.9 	"/>
	<polygon class="st183" points="30.6,63.6 31.5,65.2 34.9,63.9 	"/>
	<polygon class="st184" points="35.9,21.2 29.6,23.1 36.6,27.2 	"/>
	<polygon class="st185" points="29.1,14.5 29.6,23.1 35.9,21.2 	"/>
	<polygon class="st186" points="31.7,73.2 31,74.7 35.7,73.4 	"/>
	<polygon class="st187" points="39.8,33.5 36.5,34.2 41.3,37.5 	"/>
	<polygon class="st188" points="33.6,33.7 31.1,37.5 35.9,38 	"/>
	<polygon class="st189" points="31.1,37.5 34.2,40 35.9,38 	"/>
	<polygon class="st190" points="36.4,46.5 31.9,49.5 36.5,49.8 	"/>
	<polygon class="st191" points="32.1,46.3 31.9,49.5 36.4,46.5 	"/>
	<polygon class="st192" points="34,43.6 32.1,46.3 36.4,46.5 	"/>
	<polygon class="st193" points="35.9,38 34.2,40 38.1,40.2 	"/>
	<polygon class="st194" points="36.6,65.6 34.6,67.1 37.6,66.9 	"/>
	<polygon class="st195" points="31.9,49.5 34.8,53.6 36.5,49.8 	"/>
	<polygon class="st196" points="34,65.6 34.6,67.1 36.6,65.6 	"/>
	<polygon class="st197" points="34.9,63.9 34,65.6 36.6,65.6 	"/>
	<polygon class="st198" points="34.3,54.7 33.6,57.7 37.6,57.6 	"/>
	<polygon class="st199" points="34.8,68.7 35.7,73.4 39.4,68.7 	"/>
	<polygon class="st200" points="37.6,57.6 33.2,58.7 38.2,58.8 	"/>
	<polygon class="st201" points="29.6,23.1 31.5,28.7 36.6,27.2 	"/>
	<polygon class="st202" points="34.6,67.1 34.8,68.7 37.6,66.9 	"/>
	<polygon class="st203" points="33.2,58.7 34.9,63.9 38.2,58.8 	"/>
	<polygon class="st204" points="33.6,57.7 33.2,58.7 37.6,57.6 	"/>
	<polygon class="st205" points="34.3,54.7 37.6,57.6 38.4,54.8 	"/>
	<polygon class="st206" points="34,43.6 36.4,46.5 38,43.8 	"/>
	<polygon class="st207" points="35.5,13.3 35.9,21.2 40.2,18.3 	"/>
	<polygon class="st208" points="36.5,34.2 35.9,38 41.3,37.5 	"/>
	<polygon class="st209" points="34.2,40 34.2,42.5 37.8,42.5 	"/>
	<polygon class="st210" points="35.9,21.2 36.6,27.2 41.2,26.4 	"/>
	<polygon class="st211" points="34.2,42.5 34,43.6 38,43.8 	"/>
	<polygon class="st212" points="37.8,42.5 34.2,42.5 38,43.8 	"/>
	<polygon class="st213" points="38.4,53.8 34.8,53.6 38.4,54.8 	"/>
	<polygon class="st214" points="34.8,53.6 34.3,54.7 38.4,54.8 	"/>
	<polygon class="st215" points="40.2,6.8 45.1,10.8 45.9,4.1 	"/>
	<polygon class="st216" points="36.6,27.2 39.8,33.5 41.2,26.4 	"/>
	<polygon class="st217" points="41.3,37.5 40.8,41.5 42.8,39.9 	"/>
	<polygon class="st218" points="36.5,49.8 34.8,53.6 38.4,53.8 	"/>
	<polygon class="st219" points="36.6,27.2 36.5,34.2 39.8,33.5 	"/>
	<polygon class="st220" points="38.4,53.8 41.5,54.1 41.5,52.7 	"/>
	<polygon class="st221" points="49.7,36.9 49.7,39.5 51.6,37.1 	"/>
	<polygon class="st222" points="44.3,1.4 40.2,6.8 45.9,4.1 	"/>
	<polygon class="st223" points="37.6,66.9 39.4,68.7 40,67 	"/>
	<polygon class="st224" points="38.2,58.8 34.9,63.9 39.9,63.7 	"/>
	<polygon class="st225" points="37.4,1.1 34.3,6.1 40.2,6.8 	"/>
	<polygon class="st226" points="34.3,6.1 35.5,13.3 40.2,6.8 	"/>
	<polygon class="st227" points="39.4,68.7 35.7,73.4 41,73.4 	"/>
	<polygon class="st228" points="36.6,65.6 39.1,65.6 39.9,63.7 	"/>
	<polygon class="st229" points="34.9,63.9 36.6,65.6 39.9,63.7 	"/>
	<polygon class="st230" points="39.1,65.6 37.6,66.9 40,67 	"/>
	<polygon class="st231" points="38,43.8 36.4,46.5 40.4,46.1 	"/>
	<polygon class="st232" points="35.7,73.4 36.5,75 41,73.4 	"/>
	<polygon class="st233" points="36.5,49.8 38.4,53.8 40.7,49.7 	"/>
	<polygon class="st234" points="40.2,18.3 41.2,26.4 44.9,20.6 	"/>
	<polygon class="st235" points="47.6,59.4 48.6,60.9 49.4,59.7 	"/>
	<polygon class="st236" points="38.1,40.2 37.8,42.5 40.8,41.5 	"/>
	<polygon class="st237" points="41.2,65.4 40,67 42,66.9 	"/>
	<polygon class="st238" points="44.5,68.1 41,73.4 44.7,72.5 	"/>
	<polygon class="st239" points="41.5,52.7 41.5,54.1 42.1,53.3 	"/>
	<polygon class="st240" points="41,73.4 36.5,75 42.4,75 	"/>
	<polygon class="st241" points="39.9,63.7 39.1,65.6 41.2,65.4 	"/>
	<polygon class="st242" points="39.1,65.6 40,67 41.2,65.4 	"/>
	<polygon class="st243" points="35.9,38 38.1,40.2 41.3,37.5 	"/>
	<polygon class="st244" points="41,73.4 42.4,75 44.7,72.5 	"/>
	<polygon class="st245" points="39.8,33.5 41.3,37.5 42.7,35.1 	"/>
	<polygon class="st246" points="41.5,54.1 38.4,54.8 41.7,57 	"/>
	<polygon class="st247" points="38.4,54.8 37.6,57.6 41.7,57 	"/>
	<polygon class="st248" points="40.8,41.5 37.8,42.5 41.5,43.1 	"/>
	<polygon class="st249" points="38.4,53.8 38.4,54.8 41.5,54.1 	"/>
	<polygon class="st250" points="40.7,49.7 38.4,53.8 41.5,52.7 	"/>
	<polygon class="st251" points="38,43.8 40.4,46.1 41.5,43.1 	"/>
	<polygon class="st252" points="37.8,42.5 38,43.8 41.5,43.1 	"/>
	<polygon class="st253" points="40.8,41.5 41.5,43.1 41.8,42 	"/>
	<polygon class="st254" points="37.6,57.6 38.2,58.8 41.7,57 	"/>
	<polygon class="st255" points="40,67 39.4,68.7 42,66.9 	"/>
	<polygon class="st256" points="66.3,0.2 69,2.7 69.8,0.5 	"/>
	<polygon class="st257" points="39.8,33.5 42.7,35.1 44.4,30.9 	"/>
	<polygon class="st258" points="43.8,46 40.4,46.1 44.3,48.1 	"/>
	<polygon class="st259" points="41.7,57 42.8,57.8 42.8,56 	"/>
	<polygon class="st260" points="41.5,43.1 40.4,46.1 42.6,44.5 	"/>
	<polygon class="st261" points="40.4,46.1 40.7,49.7 44.3,48.1 	"/>
	<polygon class="st262" points="42.8,56 42.8,57.8 43.6,56.8 	"/>
	<polygon class="st263" points="41.7,57 38.2,58.8 42.8,57.8 	"/>
	<polygon class="st264" points="38.2,58.8 39.9,63.7 42.8,57.8 	"/>
	<polygon class="st265" points="41.5,54.1 41.7,57 42.8,56 	"/>
	<polygon class="st266" points="41.2,26.4 39.8,33.5 44.4,30.9 	"/>
	<polygon class="st267" points="40.7,49.7 41.5,52.7 43,50.4 	"/>
	<polygon class="st268" points="41.2,65.4 42,66.9 43.6,65.1 	"/>
	<polygon class="st269" points="40.7,49.7 43,50.4 44.3,48.1 	"/>
	<polygon class="st270" points="37.4,1.1 40.2,6.8 44.3,1.4 	"/>
	<polygon class="st271" points="42.6,44.5 40.4,46.1 43.8,46 	"/>
	<polygon class="st272" points="44.3,1.4 45.9,4.1 50.7,2.1 	"/>
	<polygon class="st273" points="42.7,35.1 45,37.4 46.4,35.7 	"/>
	<polygon class="st274" points="39.9,63.7 41.2,65.4 44.1,63.5 	"/>
	<polygon class="st275" points="41.2,65.4 43.6,65.1 44.1,63.5 	"/>
	<polygon class="st276" points="42.8,57.8 39.9,63.7 44.1,63.5 	"/>
	<polygon class="st277" points="45.1,10.8 49.4,13.2 50.7,7.3 	"/>
	<polygon class="st278" points="41.3,37.5 42.8,39.9 45,37.4 	"/>
	<polygon class="st279" points="47.5,62.3 45.4,64.6 47.9,64.3 	"/>
	<polygon class="st146" points="43.6,65.1 45.2,66.5 45.4,64.6 	"/>
	<polygon class="st280" points="40.2,18.3 44.9,20.6 45.1,10.8 	"/>
	<polygon class="st193" points="42.7,35.1 41.3,37.5 45,37.4 	"/>
	<polygon class="st281" points="39.4,68.7 41,73.4 44.5,68.1 	"/>
	<polygon class="st282" points="42,66.9 39.4,68.7 44.5,68.1 	"/>
	<polygon class="st283" points="44.1,63.5 43.6,65.1 45.4,64.6 	"/>
	<polygon class="st284" points="47.3,30.8 44.4,30.9 47.8,34.2 	"/>
	<polygon class="st285" points="45.1,58.8 44.1,63.5 46.8,59.6 	"/>
	<polygon class="st286" points="44.9,20.6 41.2,26.4 46.2,26.3 	"/>
	<polygon class="st287" points="35.5,13.3 40.2,18.3 45.1,10.8 	"/>
	<polygon class="st288" points="42.8,57.8 44.1,63.5 45.1,58.8 	"/>
	<polygon class="st289" points="44.4,30.9 42.7,35.1 46.4,35.7 	"/>
	<polygon class="st290" points="40.2,6.8 35.5,13.3 45.1,10.8 	"/>
	<polygon class="st291" points="42,66.9 44.5,68.1 45.2,66.5 	"/>
	<polygon class="st292" points="43.6,65.1 42,66.9 45.2,66.5 	"/>
	<polygon class="st293" points="46.8,59.6 47.5,62.3 48.6,60.9 	"/>
	<polygon class="st294" points="53,17.5 49.1,21.8 53,22.2 	"/>
	<polygon class="st295" points="44.9,20.6 49.1,21.8 49.4,13.2 	"/>
	<polygon class="st102" points="45.1,58.8 46.8,59.6 47.6,59.4 	"/>
	<polygon class="st296" points="41.2,26.4 44.4,30.9 46.2,26.3 	"/>
	<polygon class="st80" points="47.3,66.1 44.5,68.1 47.8,73.8 	"/>
	<polygon class="st145" points="44.4,30.9 46.4,35.7 47.8,34.2 	"/>
	<polygon class="st297" points="46.8,59.6 44.1,63.5 47.5,62.3 	"/>
	<polygon class="st298" points="44.1,63.5 45.4,64.6 47.5,62.3 	"/>
	<polygon class="st299" points="45.4,64.6 45.2,66.5 47.3,66.1 	"/>
	<polygon class="st300" points="46.2,26.3 44.4,30.9 47.3,30.8 	"/>
	<polygon class="st301" points="45.2,66.5 44.5,68.1 47.3,66.1 	"/>
	<polygon class="st302" points="45.1,10.8 44.9,20.6 49.4,13.2 	"/>
	<polygon class="st303" points="45.4,64.6 47.3,66.1 47.9,64.3 	"/>
	<polygon class="st304" points="48.6,60.9 49.9,63.1 50.1,61.2 	"/>
	<polygon class="st305" points="66.3,0.2 65.9,2.9 69,2.7 	"/>
	<polygon class="st306" points="44.7,72.5 42.4,75 47.8,73.8 	"/>
	<polygon class="st307" points="50.7,7.3 53.9,11.6 55.5,6.8 	"/>
	<polygon class="st308" points="44.5,68.1 44.7,72.5 47.8,73.8 	"/>
	<polygon class="st309" points="61.4,24.1 58.8,26.4 62.9,25.6 	"/>
	<polygon class="st310" points="49.4,59.7 48.6,60.9 50.1,61.2 	"/>
	<polygon class="st311" points="46.2,26.3 49,26.9 49.1,21.8 	"/>
	<polygon class="st312" points="47.3,30.8 47.8,34.2 48.8,32.7 	"/>
	<polygon class="st313" points="44.9,20.6 46.2,26.3 49.1,21.8 	"/>
	<polygon class="st314" points="47.9,64.3 49.8,65.4 49.9,63.1 	"/>
	<polygon class="st315" points="46.2,26.3 47.3,30.8 49,26.9 	"/>
	<polygon class="st316" points="48.8,32.7 47.8,34.2 49.3,35.2 	"/>
	<polygon class="st317" points="47.8,34.2 46.4,35.7 49.3,35.2 	"/>
	<polygon class="st318" points="49.9,63.1 49.8,65.4 52,64.4 	"/>
	<polygon class="st319" points="49.8,65.4 47.3,66.1 52.1,72.5 	"/>
	<polygon class="st320" points="47.2,38.4 49.7,39.5 49.7,36.9 	"/>
	<polygon class="st321" points="47.9,64.3 47.3,66.1 49.8,65.4 	"/>
	<polygon class="st322" points="46.4,35.7 47.2,38.4 49.7,36.9 	"/>
	<polygon class="st323" points="49.3,35.2 46.4,35.7 49.7,36.9 	"/>
	<polygon class="st324" points="47.3,66.1 47.8,73.8 52.1,72.5 	"/>
	<polygon class="st325" points="47.5,62.3 47.9,64.3 49.9,63.1 	"/>
	<polygon class="st326" points="48.6,60.9 47.5,62.3 49.9,63.1 	"/>
	<polygon class="st327" points="45.9,4.1 45.1,10.8 50.7,7.3 	"/>
	<polygon class="st328" points="50.7,2.1 45.9,4.1 50.7,7.3 	"/>
	<polygon class="st329" points="49,26.9 50.3,30.9 51.4,29.6 	"/>
	<polygon class="st330" points="50.3,31.9 48.8,32.7 51.1,34 	"/>
	<polygon class="st145" points="47.3,30.8 48.8,32.7 50.3,30.9 	"/>
	<polygon class="st331" points="49,26.9 47.3,30.8 50.3,30.9 	"/>
	<polygon class="st329" points="49,26.9 51.4,29.6 52.5,27.6 	"/>
	<polygon class="st332" points="48.8,32.7 49.3,35.2 51.1,34 	"/>
	<polygon class="st333" points="49.4,13.2 49.1,21.8 53,17.5 	"/>
	<polygon class="st334" points="53.4,2.6 50.7,7.3 55.5,6.8 	"/>
	<polygon class="st335" points="51.6,37.1 49.7,39.5 52.1,39.6 	"/>
	<polygon class="st336" points="53.6,66.6 49.8,65.4 53.7,71 	"/>
	<polygon class="st337" points="49.4,13.2 53,17.5 53.9,11.6 	"/>
	<polygon class="st338" points="49.8,65.4 52.1,72.5 53.7,71 	"/>
	<polygon class="st339" points="64.1,21.4 66.2,22.6 66.8,17.8 	"/>
	<polygon class="st340" points="51.6,37.1 52.1,39.6 53.9,38.7 	"/>
	<polygon class="st341" points="53.4,63.6 52,64.4 53.6,66.6 	"/>
	<polygon class="st338" points="52,64.4 49.8,65.4 53.6,66.6 	"/>
	<polygon class="st342" points="49.1,21.8 49,26.9 53,22.2 	"/>
	<polygon class="st343" points="49.4,59.7 50.1,61.2 53,61.4 	"/>
	<polygon class="st344" points="49.9,63.1 52,64.4 53,61.4 	"/>
	<polygon class="st345" points="50.1,61.2 49.9,63.1 53,61.4 	"/>
	<polygon class="st346" points="50.7,2.1 50.7,7.3 53.4,2.6 	"/>
	<polygon class="st347" points="53,61.4 52,64.4 53.4,63.6 	"/>
	<polygon class="st348" points="53,22.2 49,26.9 53.8,25.6 	"/>
	<polygon class="st349" points="58.8,26.4 60,28.2 62.9,25.6 	"/>
	<polygon class="st350" points="50.3,31.9 51.1,34 53.7,32.7 	"/>
	<polygon class="st351" points="53,30.5 50.3,31.9 53.7,32.7 	"/>
	<polygon class="st352" points="50.7,7.3 49.4,13.2 53.9,11.6 	"/>
	<polygon class="st62" points="54.2,35.2 52.2,35.3 54.6,37.1 	"/>
	<polygon class="st353" points="49,26.9 52.5,27.6 53.8,25.6 	"/>
	<polygon class="st354" points="52.2,35.3 51.6,37.1 54.6,37.1 	"/>
	<polygon class="st354" points="51.6,37.1 53.9,38.7 54.6,37.1 	"/>
	<polygon class="st355" points="53,17.5 53,22.2 56.3,20.3 	"/>
	<polygon class="st356" points="53,22.2 53.8,25.6 56.3,20.3 	"/>
	<polygon class="st357" points="53.4,2.6 55.5,6.8 57.6,3.6 	"/>
	<polygon class="st358" points="55.5,6.8 59,7.5 59,4.5 	"/>
	<polygon class="st359" points="57.6,3.6 55.5,6.8 59,4.5 	"/>
	<polygon class="st360" points="55.8,28.5 53,30.5 56.8,30.7 	"/>
	<polygon class="st361" points="53.9,11.6 57.9,15.1 58.5,11.3 	"/>
	<polygon class="st362" points="53,30.5 53.7,32.7 56.8,30.7 	"/>
	<polygon class="st363" points="55.5,6.8 53.9,11.6 58.5,11.3 	"/>
	<polygon class="st364" points="53.9,11.6 53,17.5 57.9,15.1 	"/>
	<polygon class="st365" points="53,17.5 56.3,20.3 57.9,15.1 	"/>
	<polygon class="st366" points="55.5,6.8 58.5,11.3 59,7.5 	"/>
	<polygon class="st32" points="63,2.1 64.1,5.2 65.9,2.9 	"/>
	<polygon class="st367" points="60.3,7.3 59,7.5 61.7,9.8 	"/>
	<polygon class="st368" points="55.8,28.5 56.8,30.7 60,28.2 	"/>
	<polygon class="st369" points="58.8,26.4 55.8,28.5 60,28.2 	"/>
	<polygon class="st25" points="59,7.5 58.5,11.3 61.7,9.8 	"/>
	<polygon class="st370" points="63,2.1 61.5,4.5 64.1,5.2 	"/>
	<polygon class="st371" points="60.3,7.3 61.7,9.8 64.1,5.2 	"/>
	<polygon class="st372" points="61.5,4.5 60.3,7.3 64.1,5.2 	"/>
	<polygon class="st373" points="68.9,13.6 66.8,17.8 69.3,18.3 	"/>
	<polygon class="st374" points="61.4,24.1 62.9,25.6 64.1,21.4 	"/>
	<polygon class="st33" points="64.1,21.4 62.9,25.6 66.2,22.6 	"/>
	<polygon class="st375" points="63,2.1 65.9,2.9 66.3,0.2 	"/>
	<polygon class="st376" points="66.8,17.8 66.2,22.6 69.3,18.3 	"/>
</g>
</svg>
