<?xml version="1.0" encoding="utf-8"?>
<!-- Generator: Adobe Illustrator 21.0.0, SVG Export Plug-In . SVG Version: 6.00 Build 0)  -->
<svg version="1.1" xmlns="http://www.w3.org/2000/svg" xmlns:xlink="http://www.w3.org/1999/xlink" x="0px" y="0px"
	 viewBox="0 0 400 511.3" style="enable-background:new 0 0 400 511.3;" xml:space="preserve">
<style type="text/css">
	.st0{font-family:'LiHeiPro';}
	.st1{font-size:31.7126px;}
	.st2{fill:none;}
	.st3{font-size:22px;}
	.st4{fill:#F6C75B;}
	.st5{fill:#FCE6AC;}
	.st6{fill:#F8D174;}
	.st7{fill:#EAB646;}
	.st8{fill:#F3C355;}
	.st9{fill:#FBD071;}
	.st10{fill:#E9B444;}
	.st11{fill:#F8CE68;}
	.st12{fill:#FBE2A2;}
	.st13{fill:#FDEBBD;}
	.st14{fill:#D9C298;}
	.st15{fill:#F0C051;}
	.st16{fill:#FCE4A6;}
	.st17{fill:#F3C152;}
	.st18{fill:#F6C75D;}
	.st19{fill:#FCE19E;}
	.st20{fill:#FAD270;}
	.st21{fill:#A16800;}
	.st22{fill:#DBA22F;}
	.st23{fill:#602E25;}
	.st24{fill:#B9861B;}
	.st25{fill:#F1BF50;}
	.st26{fill:#E0A734;}
	.st27{fill:#ECB848;}
	.st28{fill:#DDA431;}
	.st29{fill:#CC8B17;}
	.st30{fill:#D0911D;}
	.st31{fill:#D29522;}
	.st32{fill:#CA8B17;}
	.st33{fill:#E5B03E;}
	.st34{fill:#E2AA39;}
	.st35{fill:#DCA02E;}
	.st36{fill:#E5AD3C;}
	.st37{fill:#CB8A16;}
	.st38{fill:#D39824;}
	.st39{fill:#CD8C18;}
	.st40{fill:#CF9420;}
	.st41{fill:#CE8D19;}
	.st42{fill:#A96E06;}
	.st43{fill:#E8B13C;}
	.st44{fill:#D9A02C;}
	.st45{fill:#DA9A1F;}
	.st46{fill:#AA6F07;}
	.st47{fill:#9D6300;}
	.st48{fill:#A56C05;}
	.st49{fill:#9F6501;}
	.st50{fill:#A46B04;}
	.st51{fill:#B57B0D;}
	.st52{fill:#AB710D;}
	.st53{fill:#E8B341;}
	.st54{fill:#E5AE39;}
	.st55{fill:#D69F2B;}
	.st56{fill:#3E1B15;}
	.st57{fill:#3C1B14;}
	.st58{fill:#56261C;}
	.st59{fill:#CE9625;}
	.st60{fill:#CC9423;}
	.st61{fill:#5A2A1E;}
	.st62{fill:#C38B1A;}
	.st63{fill:#55261E;}
	.st64{fill:#B77D0F;}
	.st65{fill:#D9A22E;}
	.st66{fill:#D49C2B;}
	.st67{fill:#51261D;}
	.st68{fill:#D1992C;}
	.st69{fill:#8D6355;}
	.st70{fill:#431C15;}
	.st71{fill:#D19116;}
	.st72{fill:#B98112;}
	.st73{fill:#A76C04;}
	.st74{fill:#B77F10;}
	.st75{fill:#C99120;}
	.st76{fill:#C78A17;}
	.st77{fill:#B57C13;}
	.st78{fill:#BC831A;}
	.st79{fill:#C58C21;}
	.st80{fill:#A06700;}
	.st81{fill:#A66D04;}
	.st82{fill:#E1AC3C;}
	.st83{fill:#4B241D;}
	.st84{fill:#673C33;}
	.st85{fill:#704034;}
	.st86{fill:#683429;}
	.st87{fill:#5E2E24;}
	.st88{fill:#AE7607;}
	.st89{fill:#D39B2E;}
	.st90{fill:#48211A;}
	.st91{fill:#552E27;}
	.st92{fill:#60352C;}
	.st93{fill:#C1891C;}
	.st94{fill:#D29A2B;}
	.st95{fill:#713E2D;}
	.st96{fill:#CD9528;}
	.st97{fill:#5A322A;}
	.st98{fill:#C29822;}
	.st99{fill:#AD7305;}
	.st100{fill:#A16C04;}
	.st101{fill:#63372E;}
	.st102{fill:#9C6707;}
	.st103{fill:#C49724;}
	.st104{fill:#D0B437;}
	.st105{fill:#6C3A2F;}
	.st106{fill:#81473B;}
	.st107{fill:#A16A06;}
	.st108{fill:#9A6402;}
	.st109{fill:#E2AD3B;}
	.st110{fill:#A8740E;}
	.st111{fill:#572F27;}
	.st112{fill:#5B3027;}
	.st113{fill:#AC7815;}
	.st114{fill:#6A3F36;}
	.st115{fill:#DAA535;}
	.st116{fill:#A36A01;}
	.st117{fill:#A16801;}
	.st118{fill:#774338;}
	.st119{fill:#9F6B44;}
	.st120{fill:#DCCB55;}
	.st121{fill:#CD972B;}
	.st122{fill:#DBC94D;}
	.st123{fill:#AB7D70;}
	.st124{fill:#ECB842;}
	.st125{fill:#C78F22;}
	.st126{fill:#BA8116;}
	.st127{fill:#C89023;}
	.st128{fill:#D7A232;}
	.st129{fill:#6C4035;}
	.st130{fill:#BB8217;}
	.st131{fill:#D0B13C;}
	.st132{fill:#B88319;}
	.st133{fill:#B0760B;}
	.st134{fill:#986813;}
	.st135{fill:#DCCC5D;}
	.st136{fill:#79493D;}
	.st137{fill:#9C6A09;}
	.st138{fill:#663A2F;}
	.st139{fill:#A58200;}
	.st140{fill:#F4E8B8;}
	.st141{fill:#9C6802;}
	.st142{fill:#A76E05;}
	.st143{fill:#A26902;}
	.st144{fill:#A46D06;}
	.st145{fill:#A66D06;}
	.st146{fill:#DEA635;}
	.st147{fill:#D69821;}
	.st148{fill:#D0C80B;}
	.st149{fill:#B98015;}
	.st150{fill:#784C41;}
	.st151{fill:#EAB33F;}
	.st152{fill:#9B6505;}
	.st153{fill:#704235;}
	.st154{fill:#76473D;}
	.st155{fill:#AD7611;}
	.st156{fill:#895045;}
	.st157{fill:#E3AC37;}
	.st158{fill:#AE750C;}
	.st159{fill:#D9AC35;}
	.st160{fill:#A66F0B;}
	.st161{fill:#C9A551;}
	.st162{fill:#D3B640;}
	.st163{fill:#916356;}
	.st164{fill:#B17D18;}
	.st165{fill:#D1B93B;}
	.st166{fill:#C08A20;}
	.st167{fill:#D6C048;}
	.st168{fill:#7C4E41;}
	.st169{fill:#8F6559;}
	.st170{fill:#AD7717;}
	.st171{fill:#AD7715;}
	.st172{fill:#B27D17;}
	.st173{fill:#A86F06;}
	.st174{fill:#834F41;}
	.st175{fill:#AB7209;}
	.st176{fill:#D1B740;}
	.st177{fill:#B5801A;}
	.st178{fill:#A36F0A;}
	.st179{fill:#E4D970;}
	.st180{fill:#A67109;}
	.st181{fill:#C49730;}
	.st182{fill:#AA7412;}
	.st183{fill:#E2AB36;}
	.st184{fill:#EEBC4D;}
	.st185{fill:#AF7A1E;}
	.st186{fill:#BB861E;}
	.st187{fill:#D8C15B;}
	.st188{fill:#A66F0A;}
	.st189{fill:#B67F18;}
	.st190{fill:#79493B;}
	.st191{fill:#BC931F;}
	.st192{fill:#B0770C;}
	.st193{fill:#AF760B;}
	.st194{fill:#BF8C23;}
	.st195{fill:#DEAA3A;}
	.st196{fill:#D9A537;}
	.st197{fill:#A36C05;}
	.st198{fill:#C39E95;}
	.st199{fill:#AF7B18;}
	.st200{fill:#96685B;}
	.st201{fill:#DCCD66;}
	.st202{fill:#A4700D;}
	.st203{fill:#D1A02A;}
	.st204{fill:#F4F0CA;}
	.st205{fill:#AE780E;}
	.st206{fill:#A1796F;}
	.st207{fill:#9B690A;}
	.st208{fill:#DBC467;}
	.st209{fill:#A87A1A;}
	.st210{fill:#A8771B;}
	.st211{fill:#B88C2B;}
	.st212{fill:#B98B1B;}
	.st213{fill:#A26B04;}
	.st214{fill:#BD9526;}
	.st215{fill:#EAE29A;}
	.st216{fill:#F2EFBA;}
	.st217{fill:#DCC869;}
	.st218{fill:#F5F2CF;}
	.st219{fill:#FBF9EA;}
	.st220{fill:#CAA82D;}
	.st221{fill:#A8710A;}
	.st222{fill:#98690D;}
	.st223{fill:#B78C1C;}
	.st224{fill:#BC902D;}
	.st225{fill:#BA810E;}
	.st226{fill:#F8F6B9;}
	.st227{fill:#A38178;}
	.st228{fill:#BB9832;}
	.st229{fill:#C49E49;}
	.st230{fill:#BA903C;}
	.st231{fill:#D5B73B;}
	.st232{fill:#E3D475;}
	.st233{fill:#F2ECC8;}
	.st234{fill:#AD8176;}
	.st235{fill:#E4CF80;}
	.st236{fill:#845042;}
	.st237{fill:#B68F34;}
	.st238{fill:#D5BF48;}
	.st239{fill:#753F35;}
	.st240{fill:#AA7815;}
	.st241{fill:#A97D72;}
	.st242{fill:#DDCF4C;}
	.st243{fill:#B27C18;}
	.st244{fill:#7C4B3D;}
	.st245{fill:#E3D87F;}
	.st246{fill:#976F63;}
	.st247{fill:#B38516;}
	.st248{fill:#724238;}
	.st249{fill:#AE8215;}
	.st250{fill:#AE8028;}
	.st251{fill:#EEE4AF;}
	.st252{fill:#CAAD49;}
	.st253{fill:#D2BA56;}
	.st254{fill:#9A6C17;}
	.st255{fill:#CBB471;}
	.st256{fill:#D9C771;}
	.st257{fill:#B58725;}
	.st258{fill:#E8DDB0;}
	.st259{fill:#A6857C;}
	.st260{fill:#F5C95E;}
	.st261{fill:#AF8316;}
	.st262{fill:#CFA344;}
	.st263{fill:#D8A741;}
	.st264{fill:#DAB05A;}
	.st265{fill:#CFAF58;}
	.st266{fill:#B08220;}
	.st267{fill:#D5C35D;}
	.st268{fill:#C5AA5B;}
	.st269{fill:#C1902A;}
	.st270{fill:#BE9A28;}
	.st271{fill:#A67822;}
	.st272{fill:#977168;}
	.st273{fill:#B28327;}
	.st274{fill:#F9F39B;}
	.st275{fill:#DEB253;}
	.st276{fill:#EBE790;}
	.st277{fill:#B57C11;}
	.st278{fill:#E8DCA2;}
	.st279{fill:#DAC872;}
	.st280{fill:#E5DAAC;}
	.st281{fill:#CFB963;}
	.st282{fill:#AE750E;}
	.st283{fill:#C09F2C;}
	.st284{fill:#E0D36D;}
	.st285{fill:#E8E57A;}
	.st286{fill:#9D7C73;}
	.st287{fill:#D0B750;}
	.st288{fill:#B47B12;}
	.st289{fill:#B98927;}
	.st290{fill:#C1A333;}
	.st291{fill:#E9DB7A;}
	.st292{fill:#B48630;}
	.st293{fill:#A77009;}
	.st294{fill:#F0E79A;}
	.st295{fill:#7C5246;}
	.st296{fill:#936158;}
	.st297{fill:#C69127;}
	.st298{fill:#C08B23;}
	.st299{fill:#B99332;}
	.st300{fill:#B68E1F;}
	.st301{fill:#B58320;}
	.st302{fill:#BE972E;}
	.st303{fill:#7F493D;}
	.st304{fill:#A6700C;}
	.st305{fill:#6D4138;}
	.st306{fill:#D3C062;}
	.st307{fill:#6C3D33;}
	.st308{fill:#AC770F;}
	.st309{fill:#BB841F;}
	.st310{fill:#6B3C32;}
	.st311{fill:#B48223;}
	.st312{fill:#693A30;}
	.st313{fill:#C98C19;}
	.st314{fill:#8A561C;}
	.st315{fill:#A87411;}
	.st316{fill:#B87F14;}
	.st317{fill:#B38822;}
	.st318{fill:#63342C;}
	.st319{fill:#AB7610;}
	.st320{fill:#B88011;}
	.st321{fill:#B2780C;}
	.st322{fill:#69372C;}
	.st323{fill:#5A2F28;}
	.st324{fill:#B07608;}
	.st325{fill:#744035;}
	.st326{fill:#AD7307;}
	.st327{fill:#B37B0E;}
	.st328{fill:#5C3128;}
	.st329{fill:#B78B1E;}
	.st330{fill:#AF7B15;}
	.st331{fill:#E2D98A;}
	.st332{fill:#D0BB5E;}
	.st333{fill:#BF861B;}
	.st334{fill:#C58D1E;}
	.st335{fill:#C38A1F;}
	.st336{fill:#BF8718;}
	.st337{fill:#AC7A1B;}
	.st338{fill:#B07D21;}
	.st339{fill:#BC8415;}
	.st340{fill:#502721;}
	.st341{fill:#B17F20;}
	.st342{fill:#512822;}
	.st343{fill:#D1921E;}
	.st344{fill:#C68E1D;}
	.st345{fill:#4E251F;}
	.st346{fill:#BC871F;}
	.st347{fill:#6A382D;}
	.st348{fill:#633329;}
	.st349{fill:#61322A;}
	.st350{fill:#B58A2E;}
	.st351{fill:#67322A;}
	.st352{fill:#CC9427;}
	.st353{fill:#CA8D1A;}
	.st354{fill:#CC9725;}
	.st355{fill:#D49F2D;}
	.st356{fill:#B18429;}
	.st357{fill:#C1881D;}
	.st358{fill:#CD9524;}
	.st359{fill:#D29C2F;}
	.st360{fill:#C0871E;}
	.st361{fill:#D5A036;}
	.st362{fill:#E2AD3D;}
	.st363{fill:#E9B442;}
	.st364{fill:#EAB541;}
	.st365{fill:#DCA737;}
	.st366{fill:#E2AD39;}
	.st367{fill:#E3AE3E;}
	.st368{fill:#DBA538;}
	.st369{fill:#D09A2D;}
	.st370{fill:#DDA838;}
	.st371{fill:#CC8F1A;}
	.st372{fill:#DEA62F;}
	.st373{fill:#D69B25;}
	.st374{fill:#DEA532;}
	.st375{fill:#D69A28;}
	.st376{fill:#E7B23E;}
	.st377{fill:#E0A935;}
	.st378{fill:#CC8A19;}
	.st379{fill:#E9B545;}
	.st380{fill:#D99E2A;}
	.st381{fill:none;stroke:#000000;stroke-width:0.7929;stroke-linecap:round;stroke-linejoin:round;}
	.st382{fill:none;stroke:#000000;stroke-width:0.7929;stroke-linecap:round;stroke-linejoin:round;stroke-dasharray:1.7092,1.7092;}
	.st383{fill:none;stroke:#000000;stroke-width:0.7929;stroke-linecap:round;stroke-linejoin:round;stroke-dasharray:1.6759,1.6759;}
	.st384{fill:none;stroke:#000000;stroke-width:0.7929;stroke-linecap:round;stroke-linejoin:round;stroke-dasharray:1.7407,1.7407;}
	.st385{fill:none;stroke:#000000;stroke-width:0.7929;stroke-linecap:round;stroke-linejoin:round;stroke-dasharray:1.661,1.661;}
	.st386{fill:none;stroke:#000000;stroke-width:3.5679;stroke-miterlimit:10;}
	.st387{fill:none;stroke:#000000;stroke-width:2.4225;stroke-linecap:round;stroke-linejoin:round;stroke-miterlimit:10;}
</style>
<g id="Layer_2">
	<g>
		<text transform="matrix(1 0 0 1 73.8074 131.1033)" class="st0 st1">Unity跨平台開發</text>
	</g>
	<g>
		<rect x="59.3" y="259.7" class="st2" width="117.9" height="60.1"/>
		<text transform="matrix(1 0 0 1 62.522 278.5919)"><tspan x="0" y="0" class="st0 st3">跨平台APP </tspan><tspan x="11.7" y="31.3" class="st0 st3">遊戲製作</tspan></text>
	</g>
	<g>
		<rect x="206.4" y="259.7" class="st2" width="148.6" height="64.1"/>
		<text transform="matrix(1 0 0 1 236.7264 278.5919)"><tspan x="0" y="0" class="st0 st3">遊戲環境</tspan><tspan x="0" y="31.3" class="st0 st3">開發製作</tspan></text>
	</g>
	<g>
		<rect x="59.3" y="428.6" class="st2" width="117.9" height="66.2"/>
		<text transform="matrix(1 0 0 1 63.2421 447.4765)"><tspan x="0" y="0" class="st0 st3">遊戲特效及</tspan><tspan x="11" y="31.3" class="st0 st3">光源設定</tspan></text>
	</g>
	<g>
		<rect x="212.5" y="428.6" class="st2" width="133.5" height="62.2"/>
		<text transform="matrix(1 0 0 1 235.2845 447.4765)"><tspan x="0" y="0" class="st0 st3">遊戲物件</tspan><tspan x="-11" y="31.3" class="st0 st3">編輯與輸出</tspan></text>
	</g>
	<g>
		<polygon class="st4" points="68.4,98.2 68.8,100.5 69.5,97.4 		"/>
		<polygon class="st5" points="69.5,95.2 68.4,96 69.5,97.4 		"/>
		<polygon class="st6" points="68.4,96 68.4,98.2 69.5,97.4 		"/>
		<polygon class="st7" points="33.2,99.6 32.3,100.2 33.9,101.2 		"/>
		<polygon class="st8" points="32.6,97.9 31.6,98.6 33.2,99.6 		"/>
		<polygon class="st9" points="31.5,96.8 32.6,97.9 32.7,96.1 		"/>
		<polygon class="st10" points="32.3,100.2 32.8,101.8 33.9,101.2 		"/>
		<polygon class="st11" points="31.5,96.8 31.6,98.6 32.6,97.9 		"/>
		<polygon class="st12" points="31.6,94.8 32.7,96.1 33,95 		"/>
		<polygon class="st13" points="31.6,94.8 31.5,96.8 32.7,96.1 		"/>
		<polygon class="st14" points="67.5,94.7 68.4,96 69.5,95.2 		"/>
		<polygon class="st15" points="32.3,100.2 31.6,98.6 32.8,101.8 		"/>
		<polygon class="st16" points="32.6,93.6 31.6,94.8 33,95 		"/>
		<polygon class="st17" points="31.6,98.6 32.3,100.2 33.2,99.6 		"/>
		<polygon class="st18" points="34,93.3 33,95 34.5,94.5 		"/>
		<polygon class="st19" points="67.9,93.6 67.5,94.7 69.5,95.2 		"/>
		<polygon class="st20" points="32.6,93.6 33,95 34,93.3 		"/>
		<polygon class="st21" points="46.7,113.5 47.4,114.2 47.7,112.8 		"/>
		<polygon class="st22" points="32.8,101.8 34.2,104 35.2,103.2 		"/>
		<polygon class="st23" points="43,124.7 43.2,125.3 43.8,124.7 		"/>
		<polygon class="st24" points="47.4,121.1 47.7,121.6 47.9,120.8 		"/>
		<polygon class="st25" points="34,93.3 34.5,94.5 35.4,93.5 		"/>
		<polygon class="st26" points="33.9,101.2 32.8,101.8 35.2,103.2 		"/>
		<polygon class="st27" points="35.4,93.5 34.5,94.5 35.7,94.9 		"/>
		<polygon class="st28" points="36.8,94.7 36.1,96.3 37.2,95.9 		"/>
		<polygon class="st29" points="34.2,104 35.7,105.7 36.6,104.9 		"/>
		<polygon class="st30" points="35.2,103.2 34.2,104 36.6,104.9 		"/>
		<polygon class="st31" points="36.7,97.7 37.7,98.4 37.8,97.1 		"/>
		<polygon class="st32" points="36.6,104.9 35.7,105.7 37.4,107.4 		"/>
		<polygon class="st33" points="35.4,93.5 35.7,94.9 36.8,94.7 		"/>
		<polygon class="st34" points="35.7,94.9 36.1,96.3 36.8,94.7 		"/>
		<polygon class="st35" points="36.1,96.3 36.7,97.7 37.2,95.9 		"/>
		<polygon class="st36" points="44.7,94.1 42.2,94.4 44.8,96.9 		"/>
		<polygon class="st37" points="38.7,97.5 37.7,98.4 38.8,98.8 		"/>
		<polygon class="st38" points="37.2,95.9 36.7,97.7 37.8,97.1 		"/>
		<polygon class="st39" points="36.6,104.9 37.4,107.4 38.6,106.8 		"/>
		<polygon class="st40" points="38.6,106.8 37.4,107.4 39.5,109 		"/>
		<polygon class="st41" points="37.8,97.1 37.7,98.4 38.7,97.5 		"/>
		<polygon class="st42" points="38.8,98.8 39.2,101.1 41.1,99.1 		"/>
		<polygon class="st43" points="40.2,108.1 39.5,109 41.2,110.1 		"/>
		<polygon class="st44" points="38.6,106.8 39.5,109 40.2,108.1 		"/>
		<polygon class="st45" points="43.2,125.3 44.1,125.7 44.2,125 		"/>
		<polygon class="st46" points="40.5,104.5 41.7,107.1 41.9,103.5 		"/>
		<polygon class="st47" points="38.8,98.8 41.1,99.1 41.2,97.1 		"/>
		<polygon class="st48" points="38.7,97.5 38.8,98.8 41.2,97.1 		"/>
		<polygon class="st49" points="39.9,95.1 38.7,95.9 41.2,97.1 		"/>
		<polygon class="st50" points="38.7,95.9 38.7,97.5 41.2,97.1 		"/>
		<polygon class="st51" points="43.7,112.4 42.7,114 44.4,113.8 		"/>
		<polygon class="st52" points="39.9,95.1 41.2,97.1 42.2,94.4 		"/>
		<polygon class="st53" points="67.5,100.4 67.6,102.8 68.8,100.5 		"/>
		<polygon class="st54" points="40.2,108.1 41.2,110.1 41.8,109.2 		"/>
		<polygon class="st49" points="41.1,99.1 39.2,101.1 41.9,103.5 		"/>
		<polygon class="st46" points="39.2,101.1 40.5,104.5 41.9,103.5 		"/>
		<polygon class="st55" points="40.8,111.9 41,112.8 42,111.6 		"/>
		<polygon class="st56" points="41.5,127.8 41.4,129.4 42.4,127 		"/>
		<polygon class="st57" points="41.5,126.3 41.5,127.8 42.4,127 		"/>
		<polygon class="st58" points="41.7,125.5 41.5,126.3 42.4,127 		"/>
		<polygon class="st59" points="42,111.6 41,112.8 42.5,112.7 		"/>
		<polygon class="st60" points="41,112.8 41.8,113.7 42.5,112.7 		"/>
		<polygon class="st61" points="43,124.7 41.7,125.5 43.2,125.3 		"/>
		<polygon class="st62" points="42.5,112.7 41.8,113.7 42.7,114 		"/>
		<polygon class="st63" points="41.7,125.5 42.4,127 43.2,125.3 		"/>
		<polygon class="st64" points="43.7,111.4 43.7,112.4 44.8,111.2 		"/>
		<polygon class="st65" points="41.8,109.2 41.2,110.1 42.8,109.7 		"/>
		<polygon class="st66" points="41.2,110.1 42.5,110.8 42.8,109.7 		"/>
		<polygon class="st67" points="43.2,125.3 42.4,127 43.5,126.3 		"/>
		<polygon class="st68" points="42.2,94.4 41.2,97.1 44.8,96.9 		"/>
		<polygon class="st69" points="50.6,127.5 51.1,128.2 51.9,127.5 		"/>
		<polygon class="st70" points="41.4,129.4 41.4,130.4 43.4,131.6 		"/>
		<polygon class="st71" points="43.8,124.7 43.2,125.3 44.2,125 		"/>
		<polygon class="st72" points="43.8,110.2 43.7,111.4 44.8,111.2 		"/>
		<polygon class="st73" points="42.6,108.2 43.4,109.5 44.1,108 		"/>
		<polygon class="st74" points="42.5,112.7 42.7,114 43.7,112.4 		"/>
		<polygon class="st75" points="42.8,109.7 42.5,110.8 43.8,110.2 		"/>
		<polygon class="st62" points="42.5,110.8 43.7,111.4 43.8,110.2 		"/>
		<polygon class="st76" points="43.2,125.3 43.5,126.3 44.1,125.7 		"/>
		<polygon class="st77" points="41.1,99.1 41.9,103.5 44,99.6 		"/>
		<polygon class="st78" points="41.2,97.1 41.1,99.1 44,99.6 		"/>
		<polygon class="st79" points="44,99.6 41.9,103.5 44.7,102.2 		"/>
		<polygon class="st80" points="41.9,103.5 41.7,107.1 44.1,108 		"/>
		<polygon class="st42" points="41.7,107.1 42.6,108.2 44.1,108 		"/>
		<polygon class="st81" points="43.4,109.5 43.8,110.2 44.1,108 		"/>
		<polygon class="st82" points="44.7,94.1 46.9,97.1 47.8,93.9 		"/>
		<polygon class="st83" points="41.4,129.4 43.4,131.6 44.5,127.6 		"/>
		<polygon class="st84" points="45.9,126.9 46.8,128 47.1,127.3 		"/>
		<polygon class="st85" points="43,124.7 43.8,124.7 44.5,124.3 		"/>
		<polygon class="st86" points="43.8,124.7 44.2,125 44.5,124.3 		"/>
		<polygon class="st87" points="43.5,126.3 42.4,127 44.5,127.6 		"/>
		<polygon class="st88" points="44.8,111.2 43.7,112.4 45,113 		"/>
		<polygon class="st89" points="41.2,97.1 44,99.6 44.8,96.9 		"/>
		<polygon class="st90" points="42.4,127 41.4,129.4 44.5,127.6 		"/>
		<polygon class="st91" points="43.5,126.3 44.5,127.6 45,126.8 		"/>
		<polygon class="st92" points="45.8,127.8 44.5,127.6 46.2,128.8 		"/>
		<polygon class="st93" points="48,108.2 46.5,110.7 49,110.9 		"/>
		<polygon class="st94" points="46.4,118.1 48.1,119.1 48.3,117.4 		"/>
		<polygon class="st95" points="44.5,124.3 44.2,125 44.9,124.4 		"/>
		<polygon class="st96" points="47.7,116.1 48.3,117.4 49.3,116 		"/>
		<polygon class="st97" points="45,126.8 45.8,127.8 45.9,126.9 		"/>
		<polygon class="st85" points="44.5,124.3 44.9,124.4 45.3,124 		"/>
		<polygon class="st98" points="44.1,125.7 43.5,126.3 45,126.8 		"/>
		<polygon class="st99" points="43.7,112.4 44.4,113.8 45,113 		"/>
		<polygon class="st100" points="44.8,111.2 45,113 45.7,112.2 		"/>
		<polygon class="st101" points="46.2,130.2 45.3,132 46.3,131.3 		"/>
		<polygon class="st102" points="44.9,124.4 45.7,126.3 46,123.9 		"/>
		<polygon class="st103" points="44.1,125.7 45,126.8 45.7,126.3 		"/>
		<polygon class="st104" points="45.7,126.3 45,126.8 45.9,126.9 		"/>
		<polygon class="st105" points="45,126.8 44.5,127.6 45.8,127.8 		"/>
		<polygon class="st106" points="45.3,124 44.9,124.4 46,123.9 		"/>
		<polygon class="st107" points="44.2,125 44.1,125.7 45.7,126.3 		"/>
		<polygon class="st108" points="44.9,124.4 44.2,125 45.7,126.3 		"/>
		<polygon class="st109" points="44,99.6 46.7,100.9 46.9,97.1 		"/>
		<polygon class="st110" points="51.4,114.3 52.8,115 53.1,112.8 		"/>
		<polygon class="st111" points="44.5,127.6 43.4,131.6 46.2,130.2 		"/>
		<polygon class="st92" points="46.2,128.8 44.5,127.6 46.2,130.2 		"/>
		<polygon class="st33" points="44.8,96.9 44,99.6 46.9,97.1 		"/>
		<polygon class="st112" points="43.4,131.6 45.3,132 46.2,130.2 		"/>
		<polygon class="st113" points="46.9,123.4 46,123.9 47.5,126.4 		"/>
		<polygon class="st114" points="45.8,127.8 46.2,128.8 46.8,128 		"/>
		<polygon class="st115" points="44,99.6 44.7,102.2 46.7,100.9 		"/>
		<polygon class="st80" points="44.1,108 43.8,110.2 46.5,110.7 		"/>
		<polygon class="st116" points="43.8,110.2 44.8,111.2 46.5,110.7 		"/>
		<polygon class="st117" points="44.8,111.2 45.7,112.2 46.5,110.7 		"/>
		<polygon class="st118" points="45.9,126.9 45.8,127.8 46.8,128 		"/>
		<polygon class="st119" points="49.6,128.3 48.6,129 49.7,129.1 		"/>
		<polygon class="st120" points="47.5,126.4 47.1,127.3 48,127.3 		"/>
		<polygon class="st121" points="46,123.9 45.7,126.3 47.5,126.4 		"/>
		<polygon class="st122" points="45.9,126.9 47.1,127.3 47.5,126.4 		"/>
		<polygon class="st123" points="49.3,127.5 48.2,128.2 49.6,128.3 		"/>
		<polygon class="st124" points="44.7,94.1 44.8,96.9 46.9,97.1 		"/>
		<polygon class="st125" points="47,105.4 44.1,108 48,108.2 		"/>
		<polygon class="st126" points="41.9,103.5 44.1,108 47,105.4 		"/>
		<polygon class="st127" points="44.7,102.2 41.9,103.5 47,105.4 		"/>
		<polygon class="st128" points="46.7,100.9 44.7,102.2 47,105.4 		"/>
		<polygon class="st129" points="46.8,128 46.2,128.8 47.6,129.2 		"/>
		<polygon class="st130" points="44.1,108 46.5,110.7 48,108.2 		"/>
		<polygon class="st131" points="45.7,126.3 45.9,126.9 47.5,126.4 		"/>
		<polygon class="st132" points="46.4,122.9 46.9,123.4 47.3,123 		"/>
		<polygon class="st133" points="47,122.3 46.4,122.9 47.3,123 		"/>
		<polygon class="st134" points="47.8,115.6 47.7,116.1 49.3,116 		"/>
		<polygon class="st135" points="47.8,115.6 49.3,116 49.4,115.4 		"/>
		<polygon class="st136" points="48.2,128.2 47.6,129.2 48.6,129 		"/>
		<polygon class="st137" points="47,119.6 47.9,120.8 48.1,119.1 		"/>
		<polygon class="st138" points="46.3,131.3 45.3,132 47.7,132.2 		"/>
		<polygon class="st139" points="46.2,128.8 46.2,130.2 47.6,129.2 		"/>
		<polygon class="st140" points="52.6,117.3 50.5,117.6 52.7,119.2 		"/>
		<polygon class="st141" points="47,122.3 47.3,123 47.7,121.6 		"/>
		<polygon class="st142" points="46.5,110.7 45.7,112.2 47.7,112.8 		"/>
		<polygon class="st143" points="45.7,112.2 46.7,113.5 47.7,112.8 		"/>
		<polygon class="st144" points="49,110.9 50.6,111.1 50.6,107.5 		"/>
		<polygon class="st145" points="48,108.2 49,110.9 50.6,107.5 		"/>
		<polygon class="st146" points="47.6,129.2 46.2,130.2 48.1,131.5 		"/>
		<polygon class="st147" points="47.6,115.2 47.8,115.6 48.1,115 		"/>
		<polygon class="st148" points="46.2,130.2 46.3,131.3 48.1,131.5 		"/>
		<polygon class="st149" points="46.5,110.7 47.7,112.8 49,110.9 		"/>
		<polygon class="st150" points="46.8,128 47.6,129.2 48.2,128.2 		"/>
		<polygon class="st151" points="47.6,129.2 48.1,131.5 48.6,129 		"/>
		<polygon class="st152" points="56.3,124.3 55.9,124.4 56.9,125 		"/>
		<polygon class="st153" points="46.3,131.3 47.7,132.2 48.1,131.5 		"/>
		<polygon class="st154" points="48,127.3 47.1,127.3 48.2,128.2 		"/>
		<polygon class="st155" points="46.4,118.1 47,119.6 48.1,119.1 		"/>
		<polygon class="st156" points="47.1,127.3 46.8,128 48.2,128.2 		"/>
		<polygon class="st157" points="48.6,129 48.1,131.5 49.7,129.1 		"/>
		<polygon class="st158" points="46.8,116.9 46.4,118.1 48.3,117.4 		"/>
		<polygon class="st159" points="48.1,115 47.8,115.6 49.4,115.4 		"/>
		<polygon class="st160" points="47.7,116.1 46.8,116.9 48.3,117.4 		"/>
		<polygon class="st161" points="50.5,117.6 50.6,119.3 52.7,119.2 		"/>
		<polygon class="st162" points="52.5,102.8 50.3,104.4 53,107.1 		"/>
		<polygon class="st163" points="51.1,128.2 49.7,129.1 52.1,129.1 		"/>
		<polygon class="st164" points="46.9,123.4 47.5,126.4 48.8,123.9 		"/>
		<polygon class="st165" points="47.3,123 46.9,123.4 48.8,123.9 		"/>
		<polygon class="st166" points="47.7,121.6 47.3,123 49,123.4 		"/>
		<polygon class="st167" points="47.3,123 48.8,123.9 49,123.4 		"/>
		<polygon class="st168" points="48,127.3 48.2,128.2 49.3,127.5 		"/>
		<polygon class="st169" points="48.2,128.2 48.6,129 49.6,128.3 		"/>
		<polygon class="st170" points="49.4,96.5 46.9,97.1 50,100.2 		"/>
		<polygon class="st171" points="47.8,93.9 46.9,97.1 49.4,96.5 		"/>
		<polygon class="st172" points="46.9,97.1 46.7,100.9 50,100.2 		"/>
		<polygon class="st173" points="49.4,114.1 48.1,115 49.4,115.4 		"/>
		<polygon class="st50" points="49,110.9 50.3,113.1 50.6,111.1 		"/>
		<polygon class="st174" points="50.1,131.6 47.7,132.2 50.6,132.4 		"/>
		<polygon class="st175" points="47.7,112.8 47.4,114.2 49.4,114.1 		"/>
		<polygon class="st81" points="47.4,114.2 48.1,115 49.4,114.1 		"/>
		<polygon class="st176" points="47.9,120.8 47.7,121.6 49.4,121.8 		"/>
		<polygon class="st177" points="47.7,121.6 49,123.4 49.4,121.8 		"/>
		<polygon class="st178" points="48.1,119.1 47.9,120.8 49.7,121.3 		"/>
		<polygon class="st179" points="48,127.3 49.3,127.5 49.7,126.6 		"/>
		<polygon class="st180" points="49.4,114.1 51.3,115.4 51.4,114.3 		"/>
		<polygon class="st181" points="47.9,120.8 49.4,121.8 49.7,121.3 		"/>
		<polygon class="st182" points="50,100.2 46.7,100.9 50.3,104.4 		"/>
		<polygon class="st183" points="49.7,129.1 48.1,131.5 50.1,131.6 		"/>
		<polygon class="st184" points="68.4,98.2 67.5,100.4 68.8,100.5 		"/>
		<polygon class="st185" points="47.8,93.9 49.4,96.5 51,93.9 		"/>
		<polygon class="st186" points="48.8,123.9 47.5,126.4 49.7,126.6 		"/>
		<polygon class="st187" points="47.5,126.4 48,127.3 49.7,126.6 		"/>
		<polygon class="st188" points="50.3,104.4 47,105.4 50.6,107.5 		"/>
		<polygon class="st189" points="46.7,100.9 47,105.4 50.3,104.4 		"/>
		<polygon class="st190" points="48.1,131.5 47.7,132.2 50.1,131.6 		"/>
		<polygon class="st191" points="52.3,110.8 50.6,111.1 53.1,112.8 		"/>
		<polygon class="st192" points="49,110.9 47.7,112.8 50.3,113.1 		"/>
		<polygon class="st193" points="47.7,112.8 49.4,114.1 50.3,113.1 		"/>
		<polygon class="st194" points="50.5,117.6 48.1,119.1 50.6,119.3 		"/>
		<polygon class="st195" points="48.3,117.4 48.1,119.1 50.5,117.6 		"/>
		<polygon class="st196" points="49.3,116 48.3,117.4 50.5,117.6 		"/>
		<polygon class="st197" points="50.3,113.1 49.4,114.1 51.4,114.3 		"/>
		<polygon class="st198" points="50.6,127.5 49.6,128.3 51.1,128.2 		"/>
		<polygon class="st199" points="48.1,119.1 49.7,121.3 50.6,119.3 		"/>
		<polygon class="st200" points="49.3,127.5 49.6,128.3 50.6,127.5 		"/>
		<polygon class="st201" points="49.7,126.6 49.3,127.5 50.6,127.5 		"/>
		<polygon class="st202" points="49.4,121.8 49,123.4 51.1,123.3 		"/>
		<polygon class="st203" points="49.7,129.1 50.1,131.6 52.1,129.1 		"/>
		<polygon class="st204" points="51.1,123.3 48.8,123.9 51.4,124 		"/>
		<polygon class="st205" points="47,105.4 48,108.2 50.6,107.5 		"/>
		<polygon class="st206" points="49.6,128.3 49.7,129.1 51.1,128.2 		"/>
		<polygon class="st207" points="48.8,123.9 49.7,126.6 51.4,124 		"/>
		<polygon class="st208" points="49,123.4 48.8,123.9 51.1,123.3 		"/>
		<polygon class="st209" points="49.4,121.8 51.1,123.3 51.6,121.9 		"/>
		<polygon class="st210" points="49.3,116 50.5,117.6 51.3,116.1 		"/>
		<polygon class="st211" points="50,100.2 50.3,104.4 52.5,102.8 		"/>
		<polygon class="st212" points="50.6,111.1 50.3,113.1 53.1,112.8 		"/>
		<polygon class="st213" points="49.4,114.1 49.4,115.4 51.3,115.4 		"/>
		<polygon class="st214" points="50.3,104.4 50.6,107.5 53,107.1 		"/>
		<polygon class="st215" points="49.4,115.4 49.3,116 51.3,116.1 		"/>
		<polygon class="st216" points="51.3,115.4 49.4,115.4 51.3,116.1 		"/>
		<polygon class="st217" points="51.6,121.3 49.7,121.3 51.6,121.9 		"/>
		<polygon class="st218" points="49.7,121.3 49.4,121.8 51.6,121.9 		"/>
		<polygon class="st219" points="52.5,96.9 55,98.9 55.4,95.5 		"/>
		<polygon class="st220" points="50.6,107.5 52.3,110.8 53,107.1 		"/>
		<polygon class="st221" points="53.1,112.8 52.8,115 53.9,114.1 		"/>
		<polygon class="st222" points="50.6,119.3 49.7,121.3 51.6,121.3 		"/>
		<polygon class="st223" points="50.6,107.5 50.6,111.1 52.3,110.8 		"/>
		<polygon class="st224" points="51.6,121.3 53.1,121.5 53.1,120.8 		"/>
		<polygon class="st225" points="57.4,112.5 57.4,113.9 58.4,112.7 		"/>
		<polygon class="st226" points="54.6,94.1 52.5,96.9 55.4,95.5 		"/>
		<polygon class="st227" points="51.1,128.2 52.1,129.1 52.4,128.2 		"/>
		<polygon class="st228" points="51.4,124 49.7,126.6 52.3,126.5 		"/>
		<polygon class="st229" points="51,93.9 49.4,96.5 52.5,96.9 		"/>
		<polygon class="st230" points="49.4,96.5 50,100.2 52.5,96.9 		"/>
		<polygon class="st231" points="52.1,129.1 50.1,131.6 52.9,131.6 		"/>
		<polygon class="st232" points="50.6,127.5 51.9,127.5 52.3,126.5 		"/>
		<polygon class="st233" points="49.7,126.6 50.6,127.5 52.3,126.5 		"/>
		<polygon class="st234" points="51.9,127.5 51.1,128.2 52.4,128.2 		"/>
		<polygon class="st235" points="51.3,116.1 50.5,117.6 52.6,117.3 		"/>
		<polygon class="st236" points="50.1,131.6 50.6,132.4 52.9,131.6 		"/>
		<polygon class="st237" points="50.6,119.3 51.6,121.3 52.7,119.2 		"/>
		<polygon class="st238" points="52.5,102.8 53,107.1 54.9,104.1 		"/>
		<polygon class="st239" points="56.3,124.3 56.9,125 57.3,124.4 		"/>
		<polygon class="st240" points="51.4,114.3 51.3,115.4 52.8,115 		"/>
		<polygon class="st241" points="53,127.4 52.4,128.2 53.4,128.2 		"/>
		<polygon class="st242" points="54.7,128.8 52.9,131.6 54.9,131.1 		"/>
		<polygon class="st243" points="53.1,120.8 53.1,121.5 53.5,121.1 		"/>
		<polygon class="st244" points="52.9,131.6 50.6,132.4 53.6,132.4 		"/>
		<polygon class="st245" points="52.3,126.5 51.9,127.5 53,127.4 		"/>
		<polygon class="st246" points="51.9,127.5 52.4,128.2 53,127.4 		"/>
		<polygon class="st247" points="50.3,113.1 51.4,114.3 53.1,112.8 		"/>
		<polygon class="st248" points="52.9,131.6 53.6,132.4 54.9,131.1 		"/>
		<polygon class="st249" points="52.3,110.8 53.1,112.8 53.8,111.6 		"/>
		<polygon class="st250" points="53.1,121.5 51.6,121.9 53.3,123 		"/>
		<polygon class="st251" points="51.6,121.9 51.1,123.3 53.3,123 		"/>
		<polygon class="st252" points="52.8,115 51.3,115.4 53.1,115.8 		"/>
		<polygon class="st253" points="51.6,121.3 51.6,121.9 53.1,121.5 		"/>
		<polygon class="st254" points="52.7,119.2 51.6,121.3 53.1,120.8 		"/>
		<polygon class="st255" points="51.3,116.1 52.6,117.3 53.1,115.8 		"/>
		<polygon class="st256" points="51.3,115.4 51.3,116.1 53.1,115.8 		"/>
		<polygon class="st257" points="52.8,115 53.1,115.8 53.3,115.2 		"/>
		<polygon class="st258" points="51.1,123.3 51.4,124 53.3,123 		"/>
		<polygon class="st259" points="52.4,128.2 52.1,129.1 53.4,128.2 		"/>
		<polygon class="st260" points="66.1,93.4 67.5,94.7 67.9,93.6 		"/>
		<polygon class="st261" points="52.3,110.8 53.8,111.6 54.7,109.4 		"/>
		<polygon class="st262" points="54.4,117.3 52.6,117.3 54.6,118.4 		"/>
		<polygon class="st263" points="53.3,123 53.9,123.4 53.9,122.5 		"/>
		<polygon class="st264" points="53.1,115.8 52.6,117.3 53.7,116.5 		"/>
		<polygon class="st265" points="52.6,117.3 52.7,119.2 54.6,118.4 		"/>
		<polygon class="st266" points="53.9,122.5 53.9,123.4 54.3,122.9 		"/>
		<polygon class="st267" points="53.3,123 51.4,124 53.9,123.4 		"/>
		<polygon class="st268" points="51.4,124 52.3,126.5 53.9,123.4 		"/>
		<polygon class="st269" points="53.1,121.5 53.3,123 53.9,122.5 		"/>
		<polygon class="st270" points="53,107.1 52.3,110.8 54.7,109.4 		"/>
		<polygon class="st271" points="52.7,119.2 53.1,120.8 54,119.6 		"/>
		<polygon class="st272" points="53,127.4 53.4,128.2 54.3,127.2 		"/>
		<polygon class="st273" points="52.7,119.2 54,119.6 54.6,118.4 		"/>
		<polygon class="st274" points="51,93.9 52.5,96.9 54.6,94.1 		"/>
		<polygon class="st275" points="53.7,116.5 52.6,117.3 54.4,117.3 		"/>
		<polygon class="st276" points="54.6,94.1 55.4,95.5 58,94.4 		"/>
		<polygon class="st277" points="53.8,111.6 55,112.8 55.7,111.9 		"/>
		<polygon class="st278" points="52.3,126.5 53,127.4 54.5,126.4 		"/>
		<polygon class="st279" points="53,127.4 54.3,127.2 54.5,126.4 		"/>
		<polygon class="st280" points="53.9,123.4 52.3,126.5 54.5,126.4 		"/>
		<polygon class="st281" points="55,98.9 57.3,100.2 58,97.1 		"/>
		<polygon class="st282" points="53.1,112.8 53.9,114.1 55,112.8 		"/>
		<polygon class="st283" points="56.3,125.8 55.2,127 56.5,126.8 		"/>
		<polygon class="st150" points="54.3,127.2 55.1,128 55.2,127 		"/>
		<polygon class="st284" points="52.5,102.8 54.9,104.1 55,98.9 		"/>
		<polygon class="st197" points="53.8,111.6 53.1,112.8 55,112.8 		"/>
		<polygon class="st285" points="52.1,129.1 52.9,131.6 54.7,128.8 		"/>
		<polygon class="st286" points="53.4,128.2 52.1,129.1 54.7,128.8 		"/>
		<polygon class="st287" points="54.5,126.4 54.3,127.2 55.2,127 		"/>
		<polygon class="st288" points="56.2,109.4 54.7,109.4 56.4,111.1 		"/>
		<polygon class="st289" points="55,124 54.5,126.4 55.9,124.4 		"/>
		<polygon class="st290" points="54.9,104.1 53,107.1 55.6,107 		"/>
		<polygon class="st291" points="50,100.2 52.5,102.8 55,98.9 		"/>
		<polygon class="st292" points="53.9,123.4 54.5,126.4 55,124 		"/>
		<polygon class="st293" points="54.7,109.4 53.8,111.6 55.7,111.9 		"/>
		<polygon class="st294" points="52.5,96.9 50,100.2 55,98.9 		"/>
		<polygon class="st295" points="53.4,128.2 54.7,128.8 55.1,128 		"/>
		<polygon class="st296" points="54.3,127.2 53.4,128.2 55.1,128 		"/>
		<polygon class="st297" points="55.9,124.4 56.3,125.8 56.9,125 		"/>
		<polygon class="st298" points="59.2,102.4 57.1,104.7 59.2,104.9 		"/>
		<polygon class="st299" points="54.9,104.1 57.1,104.7 57.3,100.2 		"/>
		<polygon class="st106" points="55,124 55.9,124.4 56.3,124.3 		"/>
		<polygon class="st300" points="53,107.1 54.7,109.4 55.6,107 		"/>
		<polygon class="st84" points="56.2,127.7 54.7,128.8 56.4,131.7 		"/>
		<polygon class="st149" points="54.7,109.4 55.7,111.9 56.4,111.1 		"/>
		<polygon class="st301" points="55.9,124.4 54.5,126.4 56.3,125.8 		"/>
		<polygon class="st302" points="54.5,126.4 55.2,127 56.3,125.8 		"/>
		<polygon class="st303" points="55.2,127 55.1,128 56.2,127.7 		"/>
		<polygon class="st304" points="55.6,107 54.7,109.4 56.2,109.4 		"/>
		<polygon class="st305" points="55.1,128 54.7,128.8 56.2,127.7 		"/>
		<polygon class="st306" points="55,98.9 54.9,104.1 57.3,100.2 		"/>
		<polygon class="st307" points="55.2,127 56.2,127.7 56.5,126.8 		"/>
		<polygon class="st308" points="56.9,125 57.6,126.2 57.6,125.2 		"/>
		<polygon class="st309" points="66.1,93.4 65.9,94.8 67.5,94.7 		"/>
		<polygon class="st310" points="54.9,131.1 53.6,132.4 56.4,131.7 		"/>
		<polygon class="st311" points="58,97.1 59.6,99.4 60.4,96.9 		"/>
		<polygon class="st312" points="54.7,128.8 54.9,131.1 56.4,131.7 		"/>
		<polygon class="st313" points="63.5,105.9 62.2,107.1 64.3,106.7 		"/>
		<polygon class="st314" points="57.3,124.4 56.9,125 57.6,125.2 		"/>
		<polygon class="st315" points="55.6,107 57.1,107.3 57.1,104.7 		"/>
		<polygon class="st316" points="56.2,109.4 56.4,111.1 57,110.4 		"/>
		<polygon class="st317" points="54.9,104.1 55.6,107 57.1,104.7 		"/>
		<polygon class="st318" points="56.5,126.8 57.5,127.4 57.6,126.2 		"/>
		<polygon class="st319" points="55.6,107 56.2,109.4 57.1,107.3 		"/>
		<polygon class="st320" points="57,110.4 56.4,111.1 57.2,111.7 		"/>
		<polygon class="st321" points="56.4,111.1 55.7,111.9 57.2,111.7 		"/>
		<polygon class="st322" points="57.6,126.2 57.5,127.4 58.6,126.9 		"/>
		<polygon class="st323" points="57.5,127.4 56.2,127.7 58.7,131.1 		"/>
		<polygon class="st324" points="56.1,113.3 57.4,113.9 57.4,112.5 		"/>
		<polygon class="st325" points="56.5,126.8 56.2,127.7 57.5,127.4 		"/>
		<polygon class="st326" points="55.7,111.9 56.1,113.3 57.4,112.5 		"/>
		<polygon class="st327" points="57.2,111.7 55.7,111.9 57.4,112.5 		"/>
		<polygon class="st328" points="56.2,127.7 56.4,131.7 58.7,131.1 		"/>
		<polygon class="st329" points="56.3,125.8 56.5,126.8 57.6,126.2 		"/>
		<polygon class="st330" points="56.9,125 56.3,125.8 57.6,126.2 		"/>
		<polygon class="st331" points="55.4,95.5 55,98.9 58,97.1 		"/>
		<polygon class="st332" points="58,94.4 55.4,95.5 58,97.1 		"/>
		<polygon class="st333" points="57.1,107.3 57.7,109.4 58.3,108.7 		"/>
		<polygon class="st334" points="57.7,110 57,110.4 58.2,111 		"/>
		<polygon class="st149" points="56.2,109.4 57,110.4 57.7,109.4 		"/>
		<polygon class="st335" points="57.1,107.3 56.2,109.4 57.7,109.4 		"/>
		<polygon class="st333" points="57.1,107.3 58.3,108.7 58.9,107.7 		"/>
		<polygon class="st336" points="57,110.4 57.2,111.7 58.2,111 		"/>
		<polygon class="st337" points="57.3,100.2 57.1,104.7 59.2,102.4 		"/>
		<polygon class="st338" points="59.4,94.6 58,97.1 60.4,96.9 		"/>
		<polygon class="st339" points="58.4,112.7 57.4,113.9 58.7,114 		"/>
		<polygon class="st340" points="59.4,128 57.5,127.4 59.5,130.3 		"/>
		<polygon class="st341" points="57.3,100.2 59.2,102.4 59.6,99.4 		"/>
		<polygon class="st342" points="57.5,127.4 58.7,131.1 59.5,130.3 		"/>
		<polygon class="st343" points="64.9,104.5 66,105.1 66.3,102.6 		"/>
		<polygon class="st344" points="58.4,112.7 58.7,114 59.6,113.5 		"/>
		<polygon class="st345" points="59.4,126.4 58.6,126.9 59.4,128 		"/>
		<polygon class="st342" points="58.6,126.9 57.5,127.4 59.4,128 		"/>
		<polygon class="st346" points="57.1,104.7 57.1,107.3 59.2,104.9 		"/>
		<polygon class="st347" points="57.3,124.4 57.6,125.2 59.2,125.3 		"/>
		<polygon class="st348" points="57.6,126.2 58.6,126.9 59.2,125.3 		"/>
		<polygon class="st349" points="57.6,125.2 57.6,126.2 59.2,125.3 		"/>
		<polygon class="st350" points="58,94.4 58,97.1 59.4,94.6 		"/>
		<polygon class="st351" points="59.2,125.3 58.6,126.9 59.4,126.4 		"/>
		<polygon class="st352" points="59.2,104.9 57.1,107.3 59.6,106.7 		"/>
		<polygon class="st353" points="62.2,107.1 62.8,108 64.3,106.7 		"/>
		<polygon class="st354" points="57.7,110 58.2,111 59.5,110.4 		"/>
		<polygon class="st355" points="59.2,109.2 57.7,110 59.5,110.4 		"/>
		<polygon class="st356" points="58,97.1 57.3,100.2 59.6,99.4 		"/>
		<polygon class="st66" points="59.8,111.7 58.7,111.7 60,112.7 		"/>
		<polygon class="st357" points="57.1,107.3 58.9,107.7 59.6,106.7 		"/>
		<polygon class="st358" points="58.7,111.7 58.4,112.7 60,112.7 		"/>
		<polygon class="st358" points="58.4,112.7 59.6,113.5 60,112.7 		"/>
		<polygon class="st359" points="59.2,102.4 59.2,104.9 60.9,103.9 		"/>
		<polygon class="st360" points="59.2,104.9 59.6,106.7 60.9,103.9 		"/>
		<polygon class="st361" points="59.4,94.6 60.4,96.9 61.6,95.2 		"/>
		<polygon class="st362" points="60.4,96.9 62.3,97.2 62.3,95.6 		"/>
		<polygon class="st363" points="61.6,95.2 60.4,96.9 62.3,95.6 		"/>
		<polygon class="st364" points="60.6,108.2 59.2,109.2 61.2,109.3 		"/>
		<polygon class="st365" points="59.6,99.4 61.7,101.2 62,99.2 		"/>
		<polygon class="st366" points="59.2,109.2 59.5,110.4 61.2,109.3 		"/>
		<polygon class="st367" points="60.4,96.9 59.6,99.4 62,99.2 		"/>
		<polygon class="st368" points="59.6,99.4 59.2,102.4 61.7,101.2 		"/>
		<polygon class="st369" points="59.2,102.4 60.9,103.9 61.7,101.2 		"/>
		<polygon class="st370" points="60.4,96.9 62,99.2 62.3,97.2 		"/>
		<polygon class="st36" points="64.4,94.4 64.9,96 65.9,94.8 		"/>
		<polygon class="st371" points="63,97.1 62.3,97.2 63.7,98.4 		"/>
		<polygon class="st372" points="60.6,108.2 61.2,109.3 62.8,108 		"/>
		<polygon class="st373" points="62.2,107.1 60.6,108.2 62.8,108 		"/>
		<polygon class="st29" points="62.3,97.2 62,99.2 63.7,98.4 		"/>
		<polygon class="st374" points="64.4,94.4 63.6,95.6 64.9,96 		"/>
		<polygon class="st375" points="63,97.1 63.7,98.4 64.9,96 		"/>
		<polygon class="st376" points="63.6,95.6 63,97.1 64.9,96 		"/>
		<polygon class="st377" points="67.5,100.4 66.3,102.6 67.6,102.8 		"/>
		<polygon class="st378" points="63.5,105.9 64.3,106.7 64.9,104.5 		"/>
		<polygon class="st37" points="64.9,104.5 64.3,106.7 66,105.1 		"/>
		<polygon class="st379" points="64.4,94.4 65.9,94.8 66.1,93.4 		"/>
		<polygon class="st380" points="66.3,102.6 66,105.1 67.6,102.8 		"/>
	</g>
	<g>
		<polygon class="st4" points="352.1,98.2 352.5,100.5 353.1,97.4 		"/>
		<polygon class="st5" points="353.1,95.2 352.1,96 353.1,97.4 		"/>
		<polygon class="st6" points="352.1,96 352.1,98.2 353.1,97.4 		"/>
		<polygon class="st7" points="316.9,99.6 316,100.2 317.6,101.2 		"/>
		<polygon class="st8" points="316.3,97.9 315.3,98.6 316.9,99.6 		"/>
		<polygon class="st9" points="315.2,96.8 316.3,97.9 316.4,96.1 		"/>
		<polygon class="st10" points="316,100.2 316.5,101.8 317.6,101.2 		"/>
		<polygon class="st11" points="315.2,96.8 315.3,98.6 316.3,97.9 		"/>
		<polygon class="st12" points="315.3,94.8 316.4,96.1 316.7,95 		"/>
		<polygon class="st13" points="315.3,94.8 315.2,96.8 316.4,96.1 		"/>
		<polygon class="st14" points="351.2,94.7 352.1,96 353.1,95.2 		"/>
		<polygon class="st15" points="316,100.2 315.3,98.6 316.5,101.8 		"/>
		<polygon class="st16" points="316.3,93.6 315.3,94.8 316.7,95 		"/>
		<polygon class="st17" points="315.3,98.6 316,100.2 316.9,99.6 		"/>
		<polygon class="st18" points="317.7,93.3 316.7,95 318.2,94.5 		"/>
		<polygon class="st19" points="351.6,93.6 351.2,94.7 353.1,95.2 		"/>
		<polygon class="st20" points="316.3,93.6 316.7,95 317.7,93.3 		"/>
		<polygon class="st21" points="330.3,113.5 331.1,114.2 331.4,112.8 		"/>
		<polygon class="st22" points="316.5,101.8 317.9,104 318.9,103.2 		"/>
		<polygon class="st23" points="326.6,124.7 326.9,125.3 327.5,124.7 		"/>
		<polygon class="st24" points="331,121.1 331.4,121.6 331.6,120.8 		"/>
		<polygon class="st25" points="317.7,93.3 318.2,94.5 319.1,93.5 		"/>
		<polygon class="st26" points="317.6,101.2 316.5,101.8 318.9,103.2 		"/>
		<polygon class="st27" points="319.1,93.5 318.2,94.5 319.3,94.9 		"/>
		<polygon class="st28" points="320.4,94.7 319.7,96.3 320.9,95.9 		"/>
		<polygon class="st29" points="317.9,104 319.3,105.7 320.3,104.9 		"/>
		<polygon class="st30" points="318.9,103.2 317.9,104 320.3,104.9 		"/>
		<polygon class="st31" points="320.4,97.7 321.3,98.4 321.5,97.1 		"/>
		<polygon class="st32" points="320.3,104.9 319.3,105.7 321,107.4 		"/>
		<polygon class="st33" points="319.1,93.5 319.3,94.9 320.4,94.7 		"/>
		<polygon class="st34" points="319.3,94.9 319.7,96.3 320.4,94.7 		"/>
		<polygon class="st35" points="319.7,96.3 320.4,97.7 320.9,95.9 		"/>
		<polygon class="st36" points="328.4,94.1 325.9,94.4 328.5,96.9 		"/>
		<polygon class="st37" points="322.4,97.5 321.3,98.4 322.5,98.8 		"/>
		<polygon class="st38" points="320.9,95.9 320.4,97.7 321.5,97.1 		"/>
		<polygon class="st39" points="320.3,104.9 321,107.4 322.3,106.8 		"/>
		<polygon class="st40" points="322.3,106.8 321,107.4 323.2,109 		"/>
		<polygon class="st41" points="321.5,97.1 321.3,98.4 322.4,97.5 		"/>
		<polygon class="st42" points="322.5,98.8 322.9,101.1 324.8,99.1 		"/>
		<polygon class="st43" points="323.9,108.1 323.2,109 324.9,110.1 		"/>
		<polygon class="st44" points="322.3,106.8 323.2,109 323.9,108.1 		"/>
		<polygon class="st45" points="326.9,125.3 327.7,125.7 327.9,125 		"/>
		<polygon class="st46" points="324.2,104.5 325.4,107.1 325.6,103.5 		"/>
		<polygon class="st47" points="322.5,98.8 324.8,99.1 324.9,97.1 		"/>
		<polygon class="st48" points="322.4,97.5 322.5,98.8 324.9,97.1 		"/>
		<polygon class="st49" points="323.6,95.1 322.4,95.9 324.9,97.1 		"/>
		<polygon class="st50" points="322.4,95.9 322.4,97.5 324.9,97.1 		"/>
		<polygon class="st51" points="327.3,112.4 326.3,114 328,113.8 		"/>
		<polygon class="st52" points="323.6,95.1 324.9,97.1 325.9,94.4 		"/>
		<polygon class="st53" points="351.1,100.4 351.3,102.8 352.5,100.5 		"/>
		<polygon class="st54" points="323.9,108.1 324.9,110.1 325.5,109.2 		"/>
		<polygon class="st49" points="324.8,99.1 322.9,101.1 325.6,103.5 		"/>
		<polygon class="st46" points="322.9,101.1 324.2,104.5 325.6,103.5 		"/>
		<polygon class="st55" points="324.5,111.9 324.6,112.8 325.7,111.6 		"/>
		<polygon class="st56" points="325.2,127.8 325.1,129.4 326.1,127 		"/>
		<polygon class="st57" points="325.2,126.3 325.2,127.8 326.1,127 		"/>
		<polygon class="st58" points="325.3,125.5 325.2,126.3 326.1,127 		"/>
		<polygon class="st59" points="325.7,111.6 324.6,112.8 326.2,112.7 		"/>
		<polygon class="st60" points="324.6,112.8 325.5,113.7 326.2,112.7 		"/>
		<polygon class="st61" points="326.6,124.7 325.3,125.5 326.9,125.3 		"/>
		<polygon class="st62" points="326.2,112.7 325.5,113.7 326.3,114 		"/>
		<polygon class="st63" points="325.3,125.5 326.1,127 326.9,125.3 		"/>
		<polygon class="st64" points="327.4,111.4 327.3,112.4 328.5,111.2 		"/>
		<polygon class="st65" points="325.5,109.2 324.9,110.1 326.5,109.7 		"/>
		<polygon class="st66" points="324.9,110.1 326.2,110.8 326.5,109.7 		"/>
		<polygon class="st67" points="326.9,125.3 326.1,127 327.2,126.3 		"/>
		<polygon class="st68" points="325.9,94.4 324.9,97.1 328.5,96.9 		"/>
		<polygon class="st69" points="334.3,127.5 334.8,128.2 335.6,127.5 		"/>
		<polygon class="st70" points="325.1,129.4 325.1,130.4 327.1,131.6 		"/>
		<polygon class="st71" points="327.5,124.7 326.9,125.3 327.9,125 		"/>
		<polygon class="st72" points="327.5,110.2 327.4,111.4 328.5,111.2 		"/>
		<polygon class="st73" points="326.3,108.2 327,109.5 327.8,108 		"/>
		<polygon class="st74" points="326.2,112.7 326.3,114 327.3,112.4 		"/>
		<polygon class="st75" points="326.5,109.7 326.2,110.8 327.5,110.2 		"/>
		<polygon class="st62" points="326.2,110.8 327.4,111.4 327.5,110.2 		"/>
		<polygon class="st76" points="326.9,125.3 327.2,126.3 327.7,125.7 		"/>
		<polygon class="st77" points="324.8,99.1 325.6,103.5 327.7,99.6 		"/>
		<polygon class="st78" points="324.9,97.1 324.8,99.1 327.7,99.6 		"/>
		<polygon class="st79" points="327.7,99.6 325.6,103.5 328.3,102.2 		"/>
		<polygon class="st80" points="325.6,103.5 325.4,107.1 327.8,108 		"/>
		<polygon class="st42" points="325.4,107.1 326.3,108.2 327.8,108 		"/>
		<polygon class="st81" points="327,109.5 327.5,110.2 327.8,108 		"/>
		<polygon class="st82" points="328.4,94.1 330.6,97.1 331.5,93.9 		"/>
		<polygon class="st83" points="325.1,129.4 327.1,131.6 328.2,127.6 		"/>
		<polygon class="st84" points="329.6,126.9 330.5,128 330.8,127.3 		"/>
		<polygon class="st85" points="326.6,124.7 327.5,124.7 328.2,124.3 		"/>
		<polygon class="st86" points="327.5,124.7 327.9,125 328.2,124.3 		"/>
		<polygon class="st87" points="327.2,126.3 326.1,127 328.2,127.6 		"/>
		<polygon class="st88" points="328.5,111.2 327.3,112.4 328.7,113 		"/>
		<polygon class="st89" points="324.9,97.1 327.7,99.6 328.5,96.9 		"/>
		<polygon class="st90" points="326.1,127 325.1,129.4 328.2,127.6 		"/>
		<polygon class="st91" points="327.2,126.3 328.2,127.6 328.6,126.8 		"/>
		<polygon class="st92" points="329.5,127.8 328.2,127.6 329.9,128.8 		"/>
		<polygon class="st93" points="331.6,108.2 330.2,110.7 332.7,110.9 		"/>
		<polygon class="st94" points="330,118.1 331.8,119.1 331.9,117.4 		"/>
		<polygon class="st95" points="328.2,124.3 327.9,125 328.6,124.4 		"/>
		<polygon class="st96" points="331.3,116.1 331.9,117.4 332.9,116 		"/>
		<polygon class="st97" points="328.6,126.8 329.5,127.8 329.6,126.9 		"/>
		<polygon class="st85" points="328.2,124.3 328.6,124.4 328.9,124 		"/>
		<polygon class="st98" points="327.7,125.7 327.2,126.3 328.6,126.8 		"/>
		<polygon class="st99" points="327.3,112.4 328,113.8 328.7,113 		"/>
		<polygon class="st100" points="328.5,111.2 328.7,113 329.3,112.2 		"/>
		<polygon class="st101" points="329.9,130.2 329,132 329.9,131.3 		"/>
		<polygon class="st102" points="328.6,124.4 329.4,126.3 329.7,123.9 		"/>
		<polygon class="st103" points="327.7,125.7 328.6,126.8 329.4,126.3 		"/>
		<polygon class="st104" points="329.4,126.3 328.6,126.8 329.6,126.9 		"/>
		<polygon class="st105" points="328.6,126.8 328.2,127.6 329.5,127.8 		"/>
		<polygon class="st106" points="328.9,124 328.6,124.4 329.7,123.9 		"/>
		<polygon class="st107" points="327.9,125 327.7,125.7 329.4,126.3 		"/>
		<polygon class="st108" points="328.6,124.4 327.9,125 329.4,126.3 		"/>
		<polygon class="st109" points="327.7,99.6 330.4,100.9 330.6,97.1 		"/>
		<polygon class="st110" points="335.1,114.3 336.5,115 336.8,112.8 		"/>
		<polygon class="st111" points="328.2,127.6 327.1,131.6 329.9,130.2 		"/>
		<polygon class="st92" points="329.9,128.8 328.2,127.6 329.9,130.2 		"/>
		<polygon class="st33" points="328.5,96.9 327.7,99.6 330.6,97.1 		"/>
		<polygon class="st112" points="327.1,131.6 329,132 329.9,130.2 		"/>
		<polygon class="st113" points="330.6,123.4 329.7,123.9 331.2,126.4 		"/>
		<polygon class="st114" points="329.5,127.8 329.9,128.8 330.5,128 		"/>
		<polygon class="st115" points="327.7,99.6 328.3,102.2 330.4,100.9 		"/>
		<polygon class="st80" points="327.8,108 327.5,110.2 330.2,110.7 		"/>
		<polygon class="st116" points="327.5,110.2 328.5,111.2 330.2,110.7 		"/>
		<polygon class="st117" points="328.5,111.2 329.3,112.2 330.2,110.7 		"/>
		<polygon class="st118" points="329.6,126.9 329.5,127.8 330.5,128 		"/>
		<polygon class="st119" points="333.2,128.3 332.2,129 333.3,129.1 		"/>
		<polygon class="st120" points="331.2,126.4 330.8,127.3 331.6,127.3 		"/>
		<polygon class="st121" points="329.7,123.9 329.4,126.3 331.2,126.4 		"/>
		<polygon class="st122" points="329.6,126.9 330.8,127.3 331.2,126.4 		"/>
		<polygon class="st123" points="332.9,127.5 331.9,128.2 333.2,128.3 		"/>
		<polygon class="st124" points="328.4,94.1 328.5,96.9 330.6,97.1 		"/>
		<polygon class="st125" points="330.6,105.4 327.8,108 331.6,108.2 		"/>
		<polygon class="st126" points="325.6,103.5 327.8,108 330.6,105.4 		"/>
		<polygon class="st127" points="328.3,102.2 325.6,103.5 330.6,105.4 		"/>
		<polygon class="st128" points="330.4,100.9 328.3,102.2 330.6,105.4 		"/>
		<polygon class="st129" points="330.5,128 329.9,128.8 331.3,129.2 		"/>
		<polygon class="st130" points="327.8,108 330.2,110.7 331.6,108.2 		"/>
		<polygon class="st131" points="329.4,126.3 329.6,126.9 331.2,126.4 		"/>
		<polygon class="st132" points="330.1,122.9 330.6,123.4 330.9,123 		"/>
		<polygon class="st133" points="330.6,122.3 330.1,122.9 330.9,123 		"/>
		<polygon class="st134" points="331.5,115.6 331.3,116.1 332.9,116 		"/>
		<polygon class="st135" points="331.5,115.6 332.9,116 333,115.4 		"/>
		<polygon class="st136" points="331.9,128.2 331.3,129.2 332.2,129 		"/>
		<polygon class="st137" points="330.7,119.6 331.6,120.8 331.8,119.1 		"/>
		<polygon class="st138" points="329.9,131.3 329,132 331.3,132.2 		"/>
		<polygon class="st139" points="329.9,128.8 329.9,130.2 331.3,129.2 		"/>
		<polygon class="st140" points="336.3,117.3 334.2,117.6 336.4,119.2 		"/>
		<polygon class="st141" points="330.6,122.3 330.9,123 331.4,121.6 		"/>
		<polygon class="st142" points="330.2,110.7 329.3,112.2 331.4,112.8 		"/>
		<polygon class="st143" points="329.3,112.2 330.3,113.5 331.4,112.8 		"/>
		<polygon class="st144" points="332.7,110.9 334.2,111.1 334.3,107.5 		"/>
		<polygon class="st145" points="331.6,108.2 332.7,110.9 334.3,107.5 		"/>
		<polygon class="st146" points="331.3,129.2 329.9,130.2 331.8,131.5 		"/>
		<polygon class="st147" points="331.3,115.2 331.5,115.6 331.8,115 		"/>
		<polygon class="st148" points="329.9,130.2 329.9,131.3 331.8,131.5 		"/>
		<polygon class="st149" points="330.2,110.7 331.4,112.8 332.7,110.9 		"/>
		<polygon class="st150" points="330.5,128 331.3,129.2 331.9,128.2 		"/>
		<polygon class="st151" points="331.3,129.2 331.8,131.5 332.2,129 		"/>
		<polygon class="st152" points="340,124.3 339.6,124.4 340.5,125 		"/>
		<polygon class="st153" points="329.9,131.3 331.3,132.2 331.8,131.5 		"/>
		<polygon class="st154" points="331.6,127.3 330.8,127.3 331.9,128.2 		"/>
		<polygon class="st155" points="330,118.1 330.7,119.6 331.8,119.1 		"/>
		<polygon class="st156" points="330.8,127.3 330.5,128 331.9,128.2 		"/>
		<polygon class="st157" points="332.2,129 331.8,131.5 333.3,129.1 		"/>
		<polygon class="st158" points="330.5,116.9 330,118.1 331.9,117.4 		"/>
		<polygon class="st159" points="331.8,115 331.5,115.6 333,115.4 		"/>
		<polygon class="st160" points="331.3,116.1 330.5,116.9 331.9,117.4 		"/>
		<polygon class="st161" points="334.2,117.6 334.2,119.3 336.4,119.2 		"/>
		<polygon class="st162" points="336.2,102.8 333.9,104.4 336.7,107.1 		"/>
		<polygon class="st163" points="334.8,128.2 333.3,129.1 335.8,129.1 		"/>
		<polygon class="st164" points="330.6,123.4 331.2,126.4 332.5,123.9 		"/>
		<polygon class="st165" points="330.9,123 330.6,123.4 332.5,123.9 		"/>
		<polygon class="st166" points="331.4,121.6 330.9,123 332.7,123.4 		"/>
		<polygon class="st167" points="330.9,123 332.5,123.9 332.7,123.4 		"/>
		<polygon class="st168" points="331.6,127.3 331.9,128.2 332.9,127.5 		"/>
		<polygon class="st169" points="331.9,128.2 332.2,129 333.2,128.3 		"/>
		<polygon class="st170" points="333.1,96.5 330.6,97.1 333.7,100.2 		"/>
		<polygon class="st171" points="331.5,93.9 330.6,97.1 333.1,96.5 		"/>
		<polygon class="st172" points="330.6,97.1 330.4,100.9 333.7,100.2 		"/>
		<polygon class="st173" points="333,114.1 331.8,115 333,115.4 		"/>
		<polygon class="st50" points="332.7,110.9 333.9,113.1 334.2,111.1 		"/>
		<polygon class="st174" points="333.8,131.6 331.3,132.2 334.2,132.4 		"/>
		<polygon class="st175" points="331.4,112.8 331.1,114.2 333,114.1 		"/>
		<polygon class="st81" points="331.1,114.2 331.8,115 333,114.1 		"/>
		<polygon class="st176" points="331.6,120.8 331.4,121.6 333.1,121.8 		"/>
		<polygon class="st177" points="331.4,121.6 332.7,123.4 333.1,121.8 		"/>
		<polygon class="st178" points="331.8,119.1 331.6,120.8 333.3,121.3 		"/>
		<polygon class="st179" points="331.6,127.3 332.9,127.5 333.4,126.6 		"/>
		<polygon class="st180" points="333,114.1 334.9,115.4 335.1,114.3 		"/>
		<polygon class="st181" points="331.6,120.8 333.1,121.8 333.3,121.3 		"/>
		<polygon class="st182" points="333.7,100.2 330.4,100.9 333.9,104.4 		"/>
		<polygon class="st183" points="333.3,129.1 331.8,131.5 333.8,131.6 		"/>
		<polygon class="st184" points="352.1,98.2 351.1,100.4 352.5,100.5 		"/>
		<polygon class="st185" points="331.5,93.9 333.1,96.5 334.7,93.9 		"/>
		<polygon class="st186" points="332.5,123.9 331.2,126.4 333.4,126.6 		"/>
		<polygon class="st187" points="331.2,126.4 331.6,127.3 333.4,126.6 		"/>
		<polygon class="st188" points="333.9,104.4 330.6,105.4 334.3,107.5 		"/>
		<polygon class="st189" points="330.4,100.9 330.6,105.4 333.9,104.4 		"/>
		<polygon class="st190" points="331.8,131.5 331.3,132.2 333.8,131.6 		"/>
		<polygon class="st191" points="335.9,110.8 334.2,111.1 336.8,112.8 		"/>
		<polygon class="st192" points="332.7,110.9 331.4,112.8 333.9,113.1 		"/>
		<polygon class="st193" points="331.4,112.8 333,114.1 333.9,113.1 		"/>
		<polygon class="st194" points="334.2,117.6 331.8,119.1 334.2,119.3 		"/>
		<polygon class="st195" points="331.9,117.4 331.8,119.1 334.2,117.6 		"/>
		<polygon class="st196" points="332.9,116 331.9,117.4 334.2,117.6 		"/>
		<polygon class="st197" points="333.9,113.1 333,114.1 335.1,114.3 		"/>
		<polygon class="st198" points="334.3,127.5 333.2,128.3 334.8,128.2 		"/>
		<polygon class="st199" points="331.8,119.1 333.3,121.3 334.2,119.3 		"/>
		<polygon class="st200" points="332.9,127.5 333.2,128.3 334.3,127.5 		"/>
		<polygon class="st201" points="333.4,126.6 332.9,127.5 334.3,127.5 		"/>
		<polygon class="st202" points="333.1,121.8 332.7,123.4 334.8,123.3 		"/>
		<polygon class="st203" points="333.3,129.1 333.8,131.6 335.8,129.1 		"/>
		<polygon class="st204" points="334.8,123.3 332.5,123.9 335.1,124 		"/>
		<polygon class="st205" points="330.6,105.4 331.6,108.2 334.3,107.5 		"/>
		<polygon class="st206" points="333.2,128.3 333.3,129.1 334.8,128.2 		"/>
		<polygon class="st207" points="332.5,123.9 333.4,126.6 335.1,124 		"/>
		<polygon class="st208" points="332.7,123.4 332.5,123.9 334.8,123.3 		"/>
		<polygon class="st209" points="333.1,121.8 334.8,123.3 335.2,121.9 		"/>
		<polygon class="st210" points="332.9,116 334.2,117.6 335,116.1 		"/>
		<polygon class="st211" points="333.7,100.2 333.9,104.4 336.2,102.8 		"/>
		<polygon class="st212" points="334.2,111.1 333.9,113.1 336.8,112.8 		"/>
		<polygon class="st213" points="333,114.1 333,115.4 334.9,115.4 		"/>
		<polygon class="st214" points="333.9,104.4 334.3,107.5 336.7,107.1 		"/>
		<polygon class="st215" points="333,115.4 332.9,116 335,116.1 		"/>
		<polygon class="st216" points="334.9,115.4 333,115.4 335,116.1 		"/>
		<polygon class="st217" points="335.2,121.3 333.3,121.3 335.2,121.9 		"/>
		<polygon class="st218" points="333.3,121.3 333.1,121.8 335.2,121.9 		"/>
		<polygon class="st219" points="336.2,96.9 338.7,98.9 339.1,95.5 		"/>
		<polygon class="st220" points="334.3,107.5 335.9,110.8 336.7,107.1 		"/>
		<polygon class="st221" points="336.8,112.8 336.5,115 337.5,114.1 		"/>
		<polygon class="st222" points="334.2,119.3 333.3,121.3 335.2,121.3 		"/>
		<polygon class="st223" points="334.3,107.5 334.2,111.1 335.9,110.8 		"/>
		<polygon class="st224" points="335.2,121.3 336.8,121.5 336.8,120.8 		"/>
		<polygon class="st225" points="341.1,112.5 341.1,113.9 342.1,112.7 		"/>
		<polygon class="st226" points="338.3,94.1 336.2,96.9 339.1,95.5 		"/>
		<polygon class="st227" points="334.8,128.2 335.8,129.1 336.1,128.2 		"/>
		<polygon class="st228" points="335.1,124 333.4,126.6 336,126.5 		"/>
		<polygon class="st229" points="334.7,93.9 333.1,96.5 336.2,96.9 		"/>
		<polygon class="st230" points="333.1,96.5 333.7,100.2 336.2,96.9 		"/>
		<polygon class="st231" points="335.8,129.1 333.8,131.6 336.6,131.6 		"/>
		<polygon class="st232" points="334.3,127.5 335.6,127.5 336,126.5 		"/>
		<polygon class="st233" points="333.4,126.6 334.3,127.5 336,126.5 		"/>
		<polygon class="st234" points="335.6,127.5 334.8,128.2 336.1,128.2 		"/>
		<polygon class="st235" points="335,116.1 334.2,117.6 336.3,117.3 		"/>
		<polygon class="st236" points="333.8,131.6 334.2,132.4 336.6,131.6 		"/>
		<polygon class="st237" points="334.2,119.3 335.2,121.3 336.4,119.2 		"/>
		<polygon class="st238" points="336.2,102.8 336.7,107.1 338.6,104.1 		"/>
		<polygon class="st239" points="340,124.3 340.5,125 340.9,124.4 		"/>
		<polygon class="st240" points="335.1,114.3 334.9,115.4 336.5,115 		"/>
		<polygon class="st241" points="336.7,127.4 336.1,128.2 337.1,128.2 		"/>
		<polygon class="st242" points="338.4,128.8 336.6,131.6 338.5,131.1 		"/>
		<polygon class="st243" points="336.8,120.8 336.8,121.5 337.2,121.1 		"/>
		<polygon class="st244" points="336.6,131.6 334.2,132.4 337.3,132.4 		"/>
		<polygon class="st245" points="336,126.5 335.6,127.5 336.7,127.4 		"/>
		<polygon class="st246" points="335.6,127.5 336.1,128.2 336.7,127.4 		"/>
		<polygon class="st247" points="333.9,113.1 335.1,114.3 336.8,112.8 		"/>
		<polygon class="st248" points="336.6,131.6 337.3,132.4 338.5,131.1 		"/>
		<polygon class="st249" points="335.9,110.8 336.8,112.8 337.5,111.6 		"/>
		<polygon class="st250" points="336.8,121.5 335.2,121.9 336.9,123 		"/>
		<polygon class="st251" points="335.2,121.9 334.8,123.3 336.9,123 		"/>
		<polygon class="st252" points="336.5,115 334.9,115.4 336.8,115.8 		"/>
		<polygon class="st253" points="335.2,121.3 335.2,121.9 336.8,121.5 		"/>
		<polygon class="st254" points="336.4,119.2 335.2,121.3 336.8,120.8 		"/>
		<polygon class="st255" points="335,116.1 336.3,117.3 336.8,115.8 		"/>
		<polygon class="st256" points="334.9,115.4 335,116.1 336.8,115.8 		"/>
		<polygon class="st257" points="336.5,115 336.8,115.8 337,115.2 		"/>
		<polygon class="st258" points="334.8,123.3 335.1,124 336.9,123 		"/>
		<polygon class="st259" points="336.1,128.2 335.8,129.1 337.1,128.2 		"/>
		<polygon class="st260" points="349.8,93.4 351.2,94.7 351.6,93.6 		"/>
		<polygon class="st261" points="335.9,110.8 337.5,111.6 338.4,109.4 		"/>
		<polygon class="st262" points="338.1,117.3 336.3,117.3 338.3,118.4 		"/>
		<polygon class="st263" points="336.9,123 337.5,123.4 337.5,122.5 		"/>
		<polygon class="st264" points="336.8,115.8 336.3,117.3 337.4,116.5 		"/>
		<polygon class="st265" points="336.3,117.3 336.4,119.2 338.3,118.4 		"/>
		<polygon class="st266" points="337.5,122.5 337.5,123.4 337.9,122.9 		"/>
		<polygon class="st267" points="336.9,123 335.1,124 337.5,123.4 		"/>
		<polygon class="st268" points="335.1,124 336,126.5 337.5,123.4 		"/>
		<polygon class="st269" points="336.8,121.5 336.9,123 337.5,122.5 		"/>
		<polygon class="st270" points="336.7,107.1 335.9,110.8 338.4,109.4 		"/>
		<polygon class="st271" points="336.4,119.2 336.8,120.8 337.6,119.6 		"/>
		<polygon class="st272" points="336.7,127.4 337.1,128.2 337.9,127.2 		"/>
		<polygon class="st273" points="336.4,119.2 337.6,119.6 338.3,118.4 		"/>
		<polygon class="st274" points="334.7,93.9 336.2,96.9 338.3,94.1 		"/>
		<polygon class="st275" points="337.4,116.5 336.3,117.3 338.1,117.3 		"/>
		<polygon class="st276" points="338.3,94.1 339.1,95.5 341.6,94.4 		"/>
		<polygon class="st277" points="337.5,111.6 338.6,112.8 339.4,111.9 		"/>
		<polygon class="st278" points="336,126.5 336.7,127.4 338.2,126.4 		"/>
		<polygon class="st279" points="336.7,127.4 337.9,127.2 338.2,126.4 		"/>
		<polygon class="st280" points="337.5,123.4 336,126.5 338.2,126.4 		"/>
		<polygon class="st281" points="338.7,98.9 340.9,100.2 341.6,97.1 		"/>
		<polygon class="st282" points="336.8,112.8 337.5,114.1 338.6,112.8 		"/>
		<polygon class="st283" points="339.9,125.8 338.9,127 340.2,126.8 		"/>
		<polygon class="st150" points="337.9,127.2 338.8,128 338.9,127 		"/>
		<polygon class="st284" points="336.2,102.8 338.6,104.1 338.7,98.9 		"/>
		<polygon class="st197" points="337.5,111.6 336.8,112.8 338.6,112.8 		"/>
		<polygon class="st285" points="335.8,129.1 336.6,131.6 338.4,128.8 		"/>
		<polygon class="st286" points="337.1,128.2 335.8,129.1 338.4,128.8 		"/>
		<polygon class="st287" points="338.2,126.4 337.9,127.2 338.9,127 		"/>
		<polygon class="st288" points="339.9,109.4 338.4,109.4 340.1,111.1 		"/>
		<polygon class="st289" points="338.7,124 338.2,126.4 339.6,124.4 		"/>
		<polygon class="st290" points="338.6,104.1 336.7,107.1 339.3,107 		"/>
		<polygon class="st291" points="333.7,100.2 336.2,102.8 338.7,98.9 		"/>
		<polygon class="st292" points="337.5,123.4 338.2,126.4 338.7,124 		"/>
		<polygon class="st293" points="338.4,109.4 337.5,111.6 339.4,111.9 		"/>
		<polygon class="st294" points="336.2,96.9 333.7,100.2 338.7,98.9 		"/>
		<polygon class="st295" points="337.1,128.2 338.4,128.8 338.8,128 		"/>
		<polygon class="st296" points="337.9,127.2 337.1,128.2 338.8,128 		"/>
		<polygon class="st297" points="339.6,124.4 339.9,125.8 340.5,125 		"/>
		<polygon class="st298" points="342.8,102.4 340.8,104.7 342.8,104.9 		"/>
		<polygon class="st299" points="338.6,104.1 340.8,104.7 340.9,100.2 		"/>
		<polygon class="st106" points="338.7,124 339.6,124.4 340,124.3 		"/>
		<polygon class="st300" points="336.7,107.1 338.4,109.4 339.3,107 		"/>
		<polygon class="st84" points="339.9,127.7 338.4,128.8 340.1,131.7 		"/>
		<polygon class="st149" points="338.4,109.4 339.4,111.9 340.1,111.1 		"/>
		<polygon class="st301" points="339.6,124.4 338.2,126.4 339.9,125.8 		"/>
		<polygon class="st302" points="338.2,126.4 338.9,127 339.9,125.8 		"/>
		<polygon class="st303" points="338.9,127 338.8,128 339.9,127.7 		"/>
		<polygon class="st304" points="339.3,107 338.4,109.4 339.9,109.4 		"/>
		<polygon class="st305" points="338.8,128 338.4,128.8 339.9,127.7 		"/>
		<polygon class="st306" points="338.7,98.9 338.6,104.1 340.9,100.2 		"/>
		<polygon class="st307" points="338.9,127 339.9,127.7 340.2,126.8 		"/>
		<polygon class="st308" points="340.5,125 341.2,126.2 341.3,125.2 		"/>
		<polygon class="st309" points="349.8,93.4 349.5,94.8 351.2,94.7 		"/>
		<polygon class="st310" points="338.5,131.1 337.3,132.4 340.1,131.7 		"/>
		<polygon class="st311" points="341.6,97.1 343.3,99.4 344.1,96.9 		"/>
		<polygon class="st312" points="338.4,128.8 338.5,131.1 340.1,131.7 		"/>
		<polygon class="st313" points="347.2,105.9 345.8,107.1 348,106.7 		"/>
		<polygon class="st314" points="340.9,124.4 340.5,125 341.3,125.2 		"/>
		<polygon class="st315" points="339.3,107 340.8,107.3 340.8,104.7 		"/>
		<polygon class="st316" points="339.9,109.4 340.1,111.1 340.6,110.4 		"/>
		<polygon class="st317" points="338.6,104.1 339.3,107 340.8,104.7 		"/>
		<polygon class="st318" points="340.2,126.8 341.2,127.4 341.2,126.2 		"/>
		<polygon class="st319" points="339.3,107 339.9,109.4 340.8,107.3 		"/>
		<polygon class="st320" points="340.6,110.4 340.1,111.1 340.9,111.7 		"/>
		<polygon class="st321" points="340.1,111.1 339.4,111.9 340.9,111.7 		"/>
		<polygon class="st322" points="341.2,126.2 341.2,127.4 342.3,126.9 		"/>
		<polygon class="st323" points="341.2,127.4 339.9,127.7 342.4,131.1 		"/>
		<polygon class="st324" points="339.8,113.3 341.1,113.9 341.1,112.5 		"/>
		<polygon class="st325" points="340.2,126.8 339.9,127.7 341.2,127.4 		"/>
		<polygon class="st326" points="339.4,111.9 339.8,113.3 341.1,112.5 		"/>
		<polygon class="st327" points="340.9,111.7 339.4,111.9 341.1,112.5 		"/>
		<polygon class="st328" points="339.9,127.7 340.1,131.7 342.4,131.1 		"/>
		<polygon class="st329" points="339.9,125.8 340.2,126.8 341.2,126.2 		"/>
		<polygon class="st330" points="340.5,125 339.9,125.8 341.2,126.2 		"/>
		<polygon class="st331" points="339.1,95.5 338.7,98.9 341.6,97.1 		"/>
		<polygon class="st332" points="341.6,94.4 339.1,95.5 341.6,97.1 		"/>
		<polygon class="st333" points="340.8,107.3 341.4,109.4 342,108.7 		"/>
		<polygon class="st334" points="341.4,110 340.6,110.4 341.8,111 		"/>
		<polygon class="st149" points="339.9,109.4 340.6,110.4 341.4,109.4 		"/>
		<polygon class="st335" points="340.8,107.3 339.9,109.4 341.4,109.4 		"/>
		<polygon class="st333" points="340.8,107.3 342,108.7 342.6,107.7 		"/>
		<polygon class="st336" points="340.6,110.4 340.9,111.7 341.8,111 		"/>
		<polygon class="st337" points="340.9,100.2 340.8,104.7 342.8,102.4 		"/>
		<polygon class="st338" points="343.1,94.6 341.6,97.1 344.1,96.9 		"/>
		<polygon class="st339" points="342.1,112.7 341.1,113.9 342.4,114 		"/>
		<polygon class="st340" points="343.1,128 341.2,127.4 343.2,130.3 		"/>
		<polygon class="st341" points="340.9,100.2 342.8,102.4 343.3,99.4 		"/>
		<polygon class="st342" points="341.2,127.4 342.4,131.1 343.2,130.3 		"/>
		<polygon class="st343" points="348.6,104.5 349.7,105.1 350,102.6 		"/>
		<polygon class="st344" points="342.1,112.7 342.4,114 343.3,113.5 		"/>
		<polygon class="st345" points="343.1,126.4 342.3,126.9 343.1,128 		"/>
		<polygon class="st342" points="342.3,126.9 341.2,127.4 343.1,128 		"/>
		<polygon class="st346" points="340.8,104.7 340.8,107.3 342.8,104.9 		"/>
		<polygon class="st347" points="340.9,124.4 341.3,125.2 342.8,125.3 		"/>
		<polygon class="st348" points="341.2,126.2 342.3,126.9 342.8,125.3 		"/>
		<polygon class="st349" points="341.3,125.2 341.2,126.2 342.8,125.3 		"/>
		<polygon class="st350" points="341.6,94.4 341.6,97.1 343.1,94.6 		"/>
		<polygon class="st351" points="342.8,125.3 342.3,126.9 343.1,126.4 		"/>
		<polygon class="st352" points="342.8,104.9 340.8,107.3 343.2,106.7 		"/>
		<polygon class="st353" points="345.8,107.1 346.5,108 348,106.7 		"/>
		<polygon class="st354" points="341.4,110 341.8,111 343.2,110.4 		"/>
		<polygon class="st355" points="342.8,109.2 341.4,110 343.2,110.4 		"/>
		<polygon class="st356" points="341.6,97.1 340.9,100.2 343.3,99.4 		"/>
		<polygon class="st66" points="343.5,111.7 342.4,111.7 343.7,112.7 		"/>
		<polygon class="st357" points="340.8,107.3 342.6,107.7 343.2,106.7 		"/>
		<polygon class="st358" points="342.4,111.7 342.1,112.7 343.7,112.7 		"/>
		<polygon class="st358" points="342.1,112.7 343.3,113.5 343.7,112.7 		"/>
		<polygon class="st359" points="342.8,102.4 342.8,104.9 344.5,103.9 		"/>
		<polygon class="st360" points="342.8,104.9 343.2,106.7 344.5,103.9 		"/>
		<polygon class="st361" points="343.1,94.6 344.1,96.9 345.2,95.2 		"/>
		<polygon class="st362" points="344.1,96.9 345.9,97.2 345.9,95.6 		"/>
		<polygon class="st363" points="345.2,95.2 344.1,96.9 345.9,95.6 		"/>
		<polygon class="st364" points="344.3,108.2 342.8,109.2 344.8,109.3 		"/>
		<polygon class="st365" points="343.3,99.4 345.4,101.2 345.7,99.2 		"/>
		<polygon class="st366" points="342.8,109.2 343.2,110.4 344.8,109.3 		"/>
		<polygon class="st367" points="344.1,96.9 343.3,99.4 345.7,99.2 		"/>
		<polygon class="st368" points="343.3,99.4 342.8,102.4 345.4,101.2 		"/>
		<polygon class="st369" points="342.8,102.4 344.5,103.9 345.4,101.2 		"/>
		<polygon class="st370" points="344.1,96.9 345.7,99.2 345.9,97.2 		"/>
		<polygon class="st36" points="348.1,94.4 348.6,96 349.5,94.8 		"/>
		<polygon class="st371" points="346.7,97.1 345.9,97.2 347.4,98.4 		"/>
		<polygon class="st372" points="344.3,108.2 344.8,109.3 346.5,108 		"/>
		<polygon class="st373" points="345.8,107.1 344.3,108.2 346.5,108 		"/>
		<polygon class="st29" points="345.9,97.2 345.7,99.2 347.4,98.4 		"/>
		<polygon class="st374" points="348.1,94.4 347.2,95.6 348.6,96 		"/>
		<polygon class="st375" points="346.7,97.1 347.4,98.4 348.6,96 		"/>
		<polygon class="st376" points="347.2,95.6 346.7,97.1 348.6,96 		"/>
		<polygon class="st377" points="351.1,100.4 350,102.6 351.3,102.8 		"/>
		<polygon class="st378" points="347.2,105.9 348,106.7 348.6,104.5 		"/>
		<polygon class="st37" points="348.6,104.5 348,106.7 349.7,105.1 		"/>
		<polygon class="st379" points="348.1,94.4 349.5,94.8 349.8,93.4 		"/>
		<polygon class="st380" points="350,102.6 349.7,105.1 351.3,102.8 		"/>
	</g>
</g>
<g id="Layer_3">
	<g>
		<g>
			<path d="M123.9,172.6h-5.7c-0.4,0-0.7,0.3-0.7,0.7v10.6c0,0.4,0.3,0.7,0.7,0.7h5.7c0.4,0,0.7-0.3,0.7-0.7v-10.6
				C124.6,172.9,124.3,172.6,123.9,172.6z M123,173.2c0.2,0,0.3,0.1,0.3,0.3c0,0.2-0.1,0.3-0.3,0.3c-0.2,0-0.3-0.1-0.3-0.3
				C122.7,173.3,122.9,173.2,123,173.2z M120.4,173.2h1c0.2,0,0.3,0.1,0.3,0.3c0,0.2-0.1,0.3-0.3,0.3h-1c-0.2,0-0.3-0.1-0.3-0.3
				C120.1,173.3,120.3,173.2,120.4,173.2z M121.5,184.1h-1.1c-0.2,0-0.3-0.1-0.3-0.3s0.1-0.3,0.3-0.3h1.1c0.2,0,0.3,0.1,0.3,0.3
				S121.6,184.1,121.5,184.1z M123.8,182.9h-5.6v-8.4h5.6V182.9z"/>
			<path d="M98,221.7h-9.7c-0.5,0-0.9,0.4-0.9,0.9v13.5c0,0.5,0.4,0.9,0.9,0.9H98c0.5,0,0.9-0.4,0.9-0.9v-13.5
				C98.9,222.1,98.5,221.7,98,221.7z M93.8,235.7c0,0.2-0.1,0.3-0.3,0.3h-0.7c-0.2,0-0.3-0.1-0.3-0.3v-0.1c0-0.2,0.1-0.3,0.3-0.3
				h0.7C93.6,235.3,93.8,235.5,93.8,235.7L93.8,235.7z M97.4,234.5h-8.6v-11.2h8.6V234.5z"/>
			<path d="M134.1,235.2h-2.3v-13.8c0-0.7-0.6-1.3-1.3-1.3h-18.9c-0.7,0-1.3,0.6-1.3,1.3v13.8h-2.3c-0.5,0-0.9,0.4-0.9,0.9v0
				c0,0.5,0.4,0.9,0.9,0.9h26.2c0.5,0,0.9-0.4,0.9-0.9v0C135,235.6,134.6,235.2,134.1,235.2z M130,234.3h-18v-12.4h18V234.3z"/>
			<path d="M162,215.1h-19.4c-0.8,0-1.4,0.6-1.4,1.4v14.9c0,0.8,0.6,1.4,1.4,1.4h7.1v2.6h-1.6c-0.9,0-1.7,0.7-1.7,1.7l0,0h11.7l0,0
				c0-0.9-0.7-1.7-1.7-1.7h-1.6v-2.6h7.1c0.8,0,1.4-0.6,1.4-1.4v-14.9C163.4,215.7,162.8,215.1,162,215.1z M161.5,230.9h-18.4v-14
				h18.4V230.9z"/>
			<g>
				<g>
					<line class="st381" x1="121" y1="187" x2="121" y2="187.9"/>
					<line class="st382" x1="121" y1="189.6" x2="121" y2="216.1"/>
					<line class="st381" x1="121" y1="216.9" x2="121" y2="217.8"/>
				</g>
			</g>
			<g>
				<g>
					<line class="st381" x1="93.1" y1="219.2" x2="93.1" y2="218.3"/>
					<line class="st383" x1="93.1" y1="216.7" x2="93.1" y2="204.1"/>
					<polyline class="st381" points="93.1,203.3 93.1,202.4 94,202.4 					"/>
					<line class="st384" x1="95.8" y1="202.4" x2="150.6" y2="202.4"/>
					<polyline class="st381" points="151.5,202.4 152.3,202.4 152.3,203.3 					"/>
					<line class="st385" x1="152.3" y1="204.9" x2="152.3" y2="210.7"/>
					<line class="st381" x1="152.3" y1="211.6" x2="152.3" y2="212.4"/>
				</g>
			</g>
		</g>
		<rect x="84.9" y="167.1" class="st2" width="80.9" height="80.9"/>
	</g>
	<g>
		<g>
			<g>
				<circle cx="271.2" cy="219.3" r="4.5"/>
				<circle cx="287.5" cy="219.3" r="4.5"/>
				<path d="M310,229.6l-7.5-27.1c-1.1-3.9-4.6-6.6-8.7-6.6h-10.4v-3.7h-8.1v3.7h-10.4c-4,0-7.6,2.7-8.7,6.6l-7.5,27.1
					c-0.8,2.9,0.9,5.9,3.7,6.8c2.6,0.8,5.4-0.5,6.6-2.9l5.8-12.4c-0.2-0.6-0.3-1.2-0.3-1.8c0-3.6,2.9-6.6,6.6-6.6
					c3.4,0,6.2,2.6,6.5,5.8h3.2c0.4-3.3,3.2-5.8,6.5-5.8c3.6,0,6.6,2.9,6.6,6.6c0,0.6-0.1,1.3-0.3,1.8l5.8,12.4
					c1.2,2.5,4,3.7,6.6,2.9C309.2,235.6,310.8,232.5,310,229.6z M270.3,208.9h-3.5v3.5h-4v-3.5h-3.5v-4h3.5v-3.5h4v3.5h3.5V208.9z
					 M293,201.1c1.2,0,2.1,1,2.1,2.1c0,1.2-1,2.1-2.1,2.1s-2.1-1-2.1-2.1C290.9,202.1,291.8,201.1,293,201.1z M277.4,210.5h-1.6
					c-0.7,0-1.2-0.5-1.2-1.2c0-0.7,0.5-1.2,1.2-1.2h1.6c0.7,0,1.2,0.5,1.2,1.2C278.6,210,278,210.5,277.4,210.5z M282.9,210.5h-1.6
					c-0.7,0-1.2-0.5-1.2-1.2c0-0.7,0.5-1.2,1.2-1.2h1.6c0.7,0,1.2,0.5,1.2,1.2C284.1,210,283.5,210.5,282.9,210.5z M288.9,209.6
					c-1.2,0-2.1-1-2.1-2.1c0-1.2,1-2.1,2.1-2.1c1.2,0,2.1,1,2.1,2.1C291,208.6,290,209.6,288.9,209.6z M293,213.8
					c-1.2,0-2.1-1-2.1-2.1c0-1.2,1-2.1,2.1-2.1s2.1,1,2.1,2.1C295.2,212.8,294.2,213.8,293,213.8z M297.2,209.6
					c-1.2,0-2.1-1-2.1-2.1c0-1.2,1-2.1,2.1-2.1s2.1,1,2.1,2.1C299.4,208.6,298.4,209.6,297.2,209.6z"/>
			</g>
			<path class="st386" d="M279.6,194.6v-2.4c0-2,1.7-3.7,3.7-3.7h6.7c2,0,3.7-1.7,3.7-3.7v-5.9"/>
		</g>
		<rect x="238.6" y="167.4" class="st2" width="80.9" height="80.9"/>
	</g>
	<g>
		<path class="st387" d="M122.3,356l2.7-5.9l2.7,5.9l5.9,2.5l-5.9,2.5l-2.7,5.9l-2.7-5.9l-5.9-2.5L122.3,356z M108.5,375.4l5.9,2.5
			l2.7,5.9l2.7-5.9l5.9-2.5l-5.9-2.5l-2.7-5.9l-2.7,5.9L108.5,375.4z M122.7,394.7l4.7,2l2.1,4.7l2.1-4.7l4.7-2l-4.7-2l-2.1-4.7
			l-2.1,4.7L122.7,394.7z M99.7,373.5c-0.9,0.8-2,2.3-1.9,4c0.3,3,4.7,4.6,7.3,5.6c1.8,0.7,4.5,1.4,8.1,1.3 M106.7,367.1
			c-1.8,0.3-4.6,1-7.7,2.8c-2.8,1.6-7.7,4.4-7.9,8.8c-0.2,3.6,2.8,6.3,4.1,7.5c2.2,2,4.4,2.8,7.7,3.9c0.8,0.3,3.5,1.2,7.4,1.7
			c2.4,0.3,5.9,0.5,10,0.1 M123.7,383.6c0.9,0,2.2,0,3.7-0.3c0.9-0.2,2.2-0.4,3.7-1.1c1.4-0.6,4.5-2.1,4.8-4.6
			c0.2-1.6-0.9-2.9-1.4-3.6c-1-1.3-2.3-1.9-3-2.2 M133.2,389c2.7-1.2,4.6-2.5,5.9-3.6c1.9-1.5,2.5-2.5,2.9-3.2
			c0.8-1.6,0.9-3.1,0.9-3.5c0-2.4-1.1-4.2-1.6-4.9c-1.4-2.1-3.2-3-5.6-4.3c-1.7-0.9-3.2-1.5-4.2-1.8 M93.4,394.1
			c2.8,2,7.8,4.9,14.6,6.4c7.3,1.6,13.3,0.8,16.8,0.1"/>
		<rect x="76.6" y="335.4" class="st2" width="80.9" height="80.9"/>
	</g>
	<g>
		<path d="M282.5,381.9c-0.5,0-0.8,0-1.2,0c-4,0-8.1,0-12.1,0c-1.9,0-2.6-0.7-2.6-2.6c0-3.6,0-7.2,0-10.8c0-1.8,0.7-2.5,2.5-2.5
			c4.1,0,8.2,0,12.2,0c0.4,0,0.7,0,1.2,0c0-0.6,0-1,0-1.5c0-2.4,0-4.8,0-7.2c0-0.9,0.3-1.7,1.2-2.1c0.9-0.4,1.7-0.1,2.3,0.6
			c5.5,5.5,11,11,16.5,16.5c1.1,1.1,1.1,2.1,0,3.2c-5.5,5.5-11,11-16.4,16.5c-0.6,0.6-1.4,1.1-2.3,0.7c-1-0.4-1.3-1.2-1.3-2.2
			c0-2.4,0-4.8,0-7.3C282.5,382.9,282.5,382.5,282.5,381.9z M254.6,374c0,3.6,0,7.2,0,10.7c0,5.2,3.9,9.1,9.1,9.1c3.1,0,6.2,0,9.3,0
			c0.9,0,1.3-0.3,1.4-1.2c0-0.5,0.1-0.9,0-1.4c-0.1-1.2-0.3-1.4-1.5-1.4c-3,0-6,0-9,0c-3.2,0-5.3-2-5.4-5.2c0-7.1-0.1-14.3,0-21.4
			c0-3.2,2.1-5.2,5.4-5.2c3,0,6,0,9,0c1.2,0,1.4-0.2,1.5-1.4c0-0.4,0-0.7,0-1.1c-0.1-1.3-0.3-1.4-1.6-1.4c-3,0-6,0-9,0
			c-5.5,0-9.3,3.8-9.3,9.3C254.6,367,254.6,370.5,254.6,374C254.6,374,254.6,374,254.6,374z"/>
		<rect x="238.6" y="333.4" class="st2" width="80.9" height="80.9"/>
	</g>
</g>
</svg>
