<?xml version="1.0" encoding="utf-8"?>
<!-- Generator: Adobe Illustrator 21.0.0, SVG Export Plug-In . SVG Version: 6.00 Build 0)  -->
<svg version="1.1" id="Layer_1" xmlns="http://www.w3.org/2000/svg" xmlns:xlink="http://www.w3.org/1999/xlink" x="0px" y="0px"
	 viewBox="0 0 478.4 190.2" style="enable-background:new 0 0 478.4 190.2;" xml:space="preserve">
<style type="text/css">
	.st0{fill:#FFFFFF;}
</style>
<g>
	<path class="st0" d="M385.9,176.1l-6.8-3.5c0,0-0.3-0.9-0.4-1.1c-0.1-0.3-0.7-0.6-0.9-0.8c-0.2-0.2-0.6,0-0.6,0l-1.7-2.9
		c0,0,1.1-1,1.3-1.5c0.2-0.5,0.6-2.3,0.6-2.3l1.1-7.3l0.4-17.1l0.4-26.7l0.6-0.1c0,0,0,0,0,0c0.3,0.1,0.8-0.3,0.8-0.3v0.4l-0.6,0.4
		l-0.5,0.4c0,0-0.4,0.4-0.4,0.7c0,0.3,0.4,0.4,0.4,0.4l-0.1,0.4c0,0,0.1,0.5,0.4,0.6c0.3,0.1,0.7-0.2,0.7-0.2s0.4,0,0.6-0.1
		c0.3-0.1,0.7-0.6,0.7-0.6l1.2-0.7c0,0,1.3-0.9,1.4-1.3c0.1-0.4,0.4-2.1,0.4-2.1l0.6-1.2c0,0,0.2-0.6,0.2-0.9c0-0.3-0.3-1.2-0.3-1.2
		s-0.4-0.8-0.4-1.2c0-0.2,0-0.6,0-0.9l0.3,0l0.1-5c0,0-0.1-5-0.1-6.1s-1-5.2-1.1-6.2c-0.1-1-0.2-7.2-0.2-7.2l-0.4-5.5
		c0,0-0.2-5.5-0.6-7c-0.4-1.5-1.2-5.8-1.3-7.3c-0.1-1.5-0.2-5.3-0.2-5.3s-0.1-1.3-0.5-1.8c-0.4-0.5-0.9-0.6-0.9-0.6s-3.6-2.3-4-2.5
		c-0.4-0.3-4.1-1.9-4.1-1.9l-1.4-0.4l-1.8-1.7c0-0.2,0-0.3,0-0.3l-0.2-1.3l0.5-1.7l1.2-1.4l0.3-0.7l0.4-0.1c0,0,0.9-0.3,1.2-0.6
		c0.3-0.3,0.6-1.1,0.6-1.1s0-0.8,0-1c0-0.2,0.3-1,0.4-1.2c0.1-0.2,0.6-0.5,0.8-0.6c0.2-0.1,0.9-1.1,0.9-1.4c0.1-0.3,0.1-2,0.1-2
		l0.3-1.5l0.3-1.5c0,0,0.1-1.8,0-2.1c-0.1-0.3-0.9-0.9-0.9-0.9s-0.8-1-0.9-1.4c-0.1-0.3-0.6-1.7-0.6-1.7s-0.8-0.9-1.3-1.2
		c-0.5-0.3-1.5-0.6-1.8-0.6c-0.3,0-1.2,0-1.2,0s-0.5-0.6-1-0.8c-0.5-0.2-1.7,0-1.7,0l-0.9,0.3l-1.4-0.3c0,0-1.5,0-2,0.2
		c-0.5,0.2-1.2,0.7-1.2,0.7l-2,1.4l-1.1,1.6c0,0-0.9,0.5-1,1.1c-0.1,0.6,0.2,2.1,0.2,2.1s-0.5,0.7-0.5,1c-0.1,0.4,0,1.4,0,1.4
		l-0.1,2.2c0,0,0,0.9,0.1,1.4c0.1,0.5,0.6,1.4,0.6,1.4l0.1,1.4c0,0,0.1,0.8,0.4,1.6c0.3,0.7,1.1,1.9,1.1,1.9l0.7,0.6l-0.4,0.4
		l-0.7,0.9c0,0-0.5,0.6-0.6,1.2c0,0.2,0,0.3-0.1,0.5l-0.1,0l-2.5,1.6l-3.2,0.5l-6.5,1.9l-1.7,0.5l-0.9,0.1l-1.2,1.6l-2.7,9.7
		l-0.9,10.1l0.2,6.6l-0.2,10l0.9,7.3l1.6,12.5l2-0.2l0.4,1.7l0.1,2.1c0,0,0.1,1.2,0.3,1.6c0.2,0.4,0.6,0.8,0.6,0.8l0.6,0.4
		c0,0,0.9,0.9,1.2,1c0.2,0.1,1.2,0.5,1.2,0.5l0.5,0.3l-0.1,0.5l-1.4,9l-3.7,24.8c0,0-1,7.2-1,8.2s-0.1,5.5-0.1,5.5s0.7,3.7,0.7,4.3
		c0,0.6-0.4,1.9-0.4,1.9s-0.9,1-1.1,1.4c-0.2,0.4,0,2.7,0,2.7l0.9,3l0.6,2.2c0,0-0.3,1.4-0.2,1.8c0.1,0.4,0.6,1.7,0.6,1.7
		s0.6,2,0.9,2.6c0.3,0.6,2.3,4.6,2.3,4.6s4.8,0.7,5.6,0.6c0.8-0.1,2.2-0.7,2.2-0.7s0.7-3,0.8-3.6c0.1-0.5-0.1-1.7-0.1-1.7l-1.4-2.4
		l-0.6-2.5v-1.9l0.6-1.8l0.2-2.2l-0.2-1.7l-0.9-0.9c0,0-0.3-0.5-0.2-1c0-0.5,0.3-0.9,0.3-0.9l1.7-1.3c0,0,0.4-1.1,0.6-2.2
		c0.2-1.1-0.3-3.7-0.3-3.7l-0.1-3.5l1-3l3.2-9.2l6.6-23.9l2.4,23.1l0.1,8c0,0-0.3,3.5-0.2,4.6c0.1,1.1,0.8,5.4,0.8,5.4
		s-1.5,1.9-1.6,2.8c-0.1,0.9,0.1,4.6,0.1,4.6l0.4,4.6l3.6,0.4l0.9,0.1l0.4-0.3l1.7,0.6l2.2,1.2c0,0,1.1,1.3,1.5,1.6s2.5,0.9,2.5,0.9
		s4.9,0.5,5.8,0.4c0.9-0.1,2.5-0.8,2.5-0.8s0.6-0.8,0.5-1.4C387.2,177.6,385.9,176.1,385.9,176.1z"/>
	<g>
		<path d="M360.5,84.1c0-0.5,0-0.9,0-1.1c0-1.4,0.2-2.7,0.6-3.7c0.3-0.8,0.8-1.6,1.5-2.4c0.5-0.6,1.4-1.4,2.7-2.6
			c1.3-1.1,2.1-2,2.5-2.7c0.4-0.7,0.6-1.4,0.6-2.2c0-1.4-0.6-2.7-1.7-3.8c-1.1-1.1-2.5-1.6-4.1-1.6c-1.6,0-2.9,0.5-3.9,1.5
			c-1.1,1-1.7,2.5-2.1,4.6l-3.8-0.5c0.3-2.8,1.4-4.9,3-6.4c1.7-1.5,3.9-2.2,6.7-2.2c2.9,0,5.3,0.8,7,2.4c1.7,1.6,2.6,3.5,2.6,5.8
			c0,1.3-0.3,2.5-0.9,3.6c-0.6,1.1-1.8,2.5-3.6,4c-1.2,1.1-2,1.9-2.4,2.4c-0.4,0.5-0.6,1.1-0.8,1.7s-0.3,1.7-0.3,3.2H360.5z
			 M360.3,91.5v-4.2h4.2v4.2H360.3z"/>
	</g>
</g>
<g>
	<g>
		<path class="st0" d="M323.8,105.9l-2.4-8.3l-3.2-9.2l0.2-0.7c0,0,0.2-2.6,0-3.1c-0.2-0.5-1-0.8-1-0.8s-2-4.2-2.5-5.7
			c-0.5-1.5-1-5.3-1-5.3l0.6-0.8l-0.5-2.2l-0.5-2h0l-0.2-4.4c0,0,1.2-2.4,1.4-2.9c0.2-0.5,0.3-1.6,0.3-3.1c-0.1-1.5-1.2-3.1-1.3-3.3
			l-0.1-1.2l-0.3-2.5l-0.2-1.8l-0.3-0.5l-0.3-0.5l-1.1-1.3c0,0,1.8,0.2,1.8,0.1c0-0.1-1.6-0.7-1.6-0.7l1-0.5c0,0,0-0.1-0.5-0.4
			c-0.6-0.3-1.6-0.3-1.9-0.3s-1.1-0.2-1.1-0.2s-0.1-0.7,0.2-1.1c0.3-0.4,1.1-1.3,1.1-1.3s0.7-0.5,1.1-1.5c0.4-1,0.4-3,0.4-3l0.1-1.7
			l0.7,1.2c0,0-0.4-2.6-0.7-3.6c-0.3-1-1-2.5-1.3-3.4c-0.3-0.9,0-2.4-0.3-3.9c-0.3-1.6-2.4-7.1-2.4-7.1s-1.1-1.5-2-2.2
			c-1-0.7-3.2-1.1-3.2-1.1l-3.1,0.1l-1.7,0.6l-1.6,0.1l-2.4,2.1l-1.9,2.7c0,0-1.9,3.8-2.2,4.8c-0.3,1-0.6,4.3-0.6,4.3
			s0.4,1.3,0.5,2.1c0.1,0.8-0.4,1.8-0.4,1.8l-2.6,3.2l-1.1,2.7l-0.1,0l0,0c0,0-1.6-0.3-2.2-0.2c-0.6,0-1.9,0.5-1.9,0.5
			s-1.7,1.2-2.9,2.5c-1.1,1.3-2.4,3.1-2.8,4s-2.4,5.8-2.4,5.8l-2.6,3.3l-1.2,1.7l0,0l-1,1.4l-1.7,2l0.3,0.9l-1.5,3.9
			c0,0-0.4,1.5-0.3,2.2c0.2,0.7,1.2,2,1.2,2l5.9,6.8l8.2,7.1l2.4,1.4l1.7-0.3l1.3-0.8l-0.7,4.3l-0.3,4.3c0,0-2.4,7.4-3.2,10.7
			c-0.8,3.2-3.5,17.6-3.5,17.6l-2.4,6.1l-5.3,9.6l-4,7.9l-3.3,11.4l-3.1,9.7l-1.2,2.2l-1.4,2.1l-1,3.2l-1.8,5.4l-1.4,2.8
			c0,0-0.5,1.2-0.5,1.9c0,0.7,0.8,2.2,0.8,2.2l0.9,1.7l1.2,1.5c0,0,1.6,0.4,2.3,0.3c0.7-0.1,1.9-1,1.9-1l0.4-1.5c0,0,1-2.2,1.1-2.5
			c-0.1,0.3,0.3-2.5,0.3-2.5l1.8-6.7l1.5-4.4l1.5-4.5l2.2-4.7l3-4.9c0,0,4-4.8,5.4-7.5c1.4-2.7,5.1-11.3,5.4-12.2
			c0.3-1,1.7-2.4,2.8-4.1c1.1-1.8,1.9-4.6,1.9-4.6s2.1-4.1,3.1-5.8c1-1.7,3.4-8.5,4-9.9c0.6-1.4,6-11.7,6-11.7l1.5,0.3l0.1,0.5
			c0,0-0.8,8.1-0.7,9.4c0.1,1.3,0.2,4.1,0,6.1c-0.2,2-0.8,7.5-0.8,7.5s-0.8,3.5-0.9,6.2c-0.1,2.7,0.4,5.1,0.4,5.1l-1.3,6.1
			c0,0-1.2,7.8-1.4,9.9c-0.2,2.1,0.3,11.7,0.3,11.7l-1,7.8l-0.6,1.3c0,0-1,1-1.3,1.7c-0.4,0.7-0.1,1.8-0.1,1.8l0.4,3l-0.1,3.6
			l-0.3,3.6l0.2,2l0.6,0.8l3.8,0.8l2.8-0.2l0.7-1.3l0.1-1.5l-0.3-1.1l-0.2-2l-0.4-7.2l0.3-1.8l0.1-1.7l0.7-3.9l3-10.1l2.7-12.1
			c0,0,0.7-4.9,0.7-5.9c0-1-0.2-2.3,0.1-4.6c0.3-2.3,1.2-6.3,1.2-6.3l0.7-4.2l2-7.1l3.5-12.9l1.2-6.3l0.5,0.7c0,0-0.2,1.1-0.2,1.6
			c0,0.5,0.7,2.3,0.7,2.3s-0.3,1.6-0.3,2c0,0.4,0.9,1.9,0.9,1.9l-1,0.7c0,0-1.5,0.7-1.8,1.1c-0.2,0.3-0.8,1.3-0.6,1.5
			c0.2,0.1,0.4-0.1,0.4-0.1l1-0.4c0,0,0,1.1,0.2,1.2c0.2,0.2,0.8-0.5,0.8-0.5s0.2,0.8,0.4,0.7c0.3-0.1,0.9-1.2,0.9-1.2l-0.4,1.7
			c0,0,0,0.6,0.3,0.7c0.2,0.1,0.6-0.3,0.6-0.3l2.4-3.9l0.8-2.4c0,0,0.3-0.2,0.4-0.6C323.8,106.2,323.8,105.9,323.8,105.9z M286.9,76
			l-0.7,1.8l-1.1,1.4l-1,0.9l-2.4-1.9l-4.8-5l-4.7-5.7l0.1-0.6l0.8,0.2l2.4,1.2l-0.1-6l1.9-3.3l5.2-5.7l1.3,3.5l0.8,4.8l1.5,4.1
			l1.9,5.7l0.2,2.6l0.2,1.5L286.9,76z"/>
		<path class="st0" d="M261.1,184.5C261.1,184.5,261.1,184.5,261.1,184.5C261.1,184.4,261.1,184.4,261.1,184.5z"/>
	</g>
	<g>
		<path d="M296.1,76.4c0-0.5,0-0.9,0-1.1c0-1.4,0.2-2.7,0.6-3.7c0.3-0.8,0.8-1.6,1.5-2.4c0.5-0.6,1.4-1.4,2.7-2.6
			c1.3-1.1,2.1-2,2.5-2.7c0.4-0.7,0.6-1.4,0.6-2.2c0-1.4-0.6-2.7-1.7-3.8c-1.1-1.1-2.5-1.6-4.1-1.6c-1.6,0-2.9,0.5-3.9,1.5
			c-1.1,1-1.7,2.5-2.1,4.6l-3.8-0.5c0.3-2.8,1.4-4.9,3-6.4c1.7-1.5,3.9-2.2,6.7-2.2c2.9,0,5.3,0.8,7,2.4c1.7,1.6,2.6,3.5,2.6,5.8
			c0,1.3-0.3,2.5-0.9,3.6c-0.6,1.1-1.8,2.5-3.6,4c-1.2,1.1-2,1.9-2.4,2.4c-0.4,0.5-0.6,1.1-0.8,1.7c-0.2,0.7-0.3,1.7-0.3,3.2H296.1z
			 M295.8,83.8v-4.2h4.2v4.2H295.8z"/>
	</g>
</g>
<g>
	<path class="st0" d="M246.7,188.7c0,0,0.1-0.6-0.1-1c-0.2-0.4-1.3-1.3-1.3-1.3l-2.8-3l1.3-1.5l-5.9-42.6L234,99.9l0.5-1
		c0,0-2-9.1-3.2-13.4c-1.2-4.3-3.4-9.3-3.4-9.3l-1-3.1l0.4-1.1c0,0,2.1-0.7,2.3-1.2c0.3-0.4,0.3-1.7,0.3-1.7s0.1-2.4,0.3-3.4
		c0.2-1,1.2-4.7,1.3-5.5c0.1-0.8,0.8-8,0.7-8.9c-0.1-0.8-0.6-5-0.6-5s0.2-0.7,0.5-2.1c0.3-1.4-0.3-4.2-0.3-4.2s-0.5-2.2-1.1-2.9
		c-0.5-0.6-2.8-0.8-2.8-0.8l-4.4-0.4l0.8-5.5l1.3-4.2l-0.2-5.7l-1-4.8c0,0-0.2-2.5-0.6-3.2c-0.4-0.7-2.2-2.1-2.2-2.1L219,9.9
		c0,0-1-1.9-1.8-2.2c-0.8-0.4-3.3-0.5-3.3-0.5s-4.6,0.4-6.8,2.5c-2.2,2.1-4.4,8.8-4.4,8.8s-2.7,9.3-3,10.5c-0.3,1.2-0.1,2.9-0.1,2.9
		l-0.4,1.8l-2.6,5.1l-1.3,3.1l-2.5,1.1c0,0-0.3,0.1-0.6,0.4s-0.3,2.1-0.3,2.1v2.4c0,0-0.7,0.7-0.8,1.5c-0.1,0.8,0.6,1,0.6,1
		l-0.2,0.7l-0.2,2.2v2.2c0,0-0.8,0.4-0.8,0.9s0.7,0.9,0.7,0.9l-0.2,1.1c0,0-0.9,1-1.2,1.6c-0.3,0.6-0.1,1.8-0.1,1.8l-0.4,1.7
		l-0.3,2.7c0,0-1.1,1.2-1.1,1.9c0,0.7,1.7,2.6,1.7,2.6s0.3,2.7,1.3,3.6c1.1,0.9,4.3,1.7,5.1,1.7c0.8,0,2.1-0.5,2.1-0.5
		s-0.4,2.9-0.8,4.4c-0.4,1.5-1.5,4.4-2.5,8.3c-1,3.9-2,14-2,14l0.5,0.4l-1.3,34.4l-2.9,31.9l-1.3,9.7l0.5,0.9l-1.6,1l-3,1.9
		c0,0-0.5,0.2-0.6,0.5c-0.1,0.2-0.1,0.5-0.1,0.5s-0.5,0.2-0.5,0.3s0.2,0.7,0.2,0.7s1.4,0.5,2.2,0.6c0.8,0.1,1.6,0.2,2.6,0.3
		c1,0.1,2-0.1,2.9-0.2c0.9-0.1,2.9-0.6,2.9-0.6s0.8-0.5,1.1-0.7c0.2-0.2,0.4-1,0.4-1l0.2-0.8l3.8,0c0,0,2.3-0.3,2.9-0.8
		c0.5-0.5,1-1.5,1-1.5l2.7-23.6l2.4-25.7l5.4-26.8c0,0,2.1,5.1,3.1,10.4c1.1,5.3,3.8,23.3,3.8,23.3l7.5,47.4c0,0,1.6,1,3,1.2
		c1.4,0.2,4.6,0.1,4.6,0.1l0.4,1c0,0-0.3,0.2-0.4,0.4c-0.1,0.2-0.1,1.5-0.1,1.5s2,1.3,2.5,1.4c0.5,0.1,3.1,0.2,3.1,0.2s2.1,0,2.9,0
		c0.8,0,2.6-0.3,2.8-0.5c0.2-0.2,0.4-0.4,0.4-0.6C247.2,188.8,246.7,188.7,246.7,188.7z"/>
	<g>
		<path d="M210.4,74.2c0-0.5,0-0.9,0-1.1c0-1.4,0.2-2.7,0.6-3.7c0.3-0.8,0.8-1.6,1.5-2.4c0.5-0.6,1.4-1.4,2.7-2.6
			c1.3-1.1,2.1-2,2.5-2.7c0.4-0.7,0.6-1.4,0.6-2.2c0-1.4-0.6-2.7-1.7-3.8c-1.1-1.1-2.5-1.6-4.1-1.6c-1.6,0-2.9,0.5-3.9,1.5
			c-1.1,1-1.7,2.5-2.1,4.6l-3.8-0.5c0.3-2.8,1.4-4.9,3-6.4c1.7-1.5,3.9-2.2,6.7-2.2c2.9,0,5.3,0.8,7,2.4c1.7,1.6,2.6,3.5,2.6,5.8
			c0,1.3-0.3,2.5-0.9,3.6c-0.6,1.1-1.8,2.5-3.6,4c-1.2,1.1-2,1.9-2.4,2.4c-0.4,0.5-0.6,1.1-0.8,1.7s-0.3,1.7-0.3,3.2H210.4z
			 M210.2,81.6v-4.2h4.2v4.2H210.2z"/>
	</g>
</g>
<g>
	<path class="st0" d="M171,69.7c-0.1-0.6-0.9-1.7-0.9-1.7s-0.9-1.3-1.2-1.7c-0.2-0.5-0.9-2.3-0.9-2.9c0-0.6,0-4.8,0-4.8
		s0.2-3.3-0.2-4.2c-0.3-0.9-1.3-2.1-1.4-2.6c-0.1-0.4-0.3-1.7-0.4-2.1c-0.1-0.5-0.8-2.5-0.8-3.1C165.2,46,165,44,165,44
		s-0.1-1-0.4-1.2c-0.3-0.2-0.7-0.2-1.3-0.5c-0.6-0.3-2.2-1.2-2.2-1.2s-1.9-1-2.8-1.3c-0.9-0.4-5-1.8-5.9-2.3c-0.8-0.5-3.3-2-3.7-2.5
		c-0.5-0.5-0.9-1.5-0.9-1.5s0,0.1,0,0.2l-0.4-0.5c0-0.3,0.1-0.9,0.2-1.2c0.1-0.4,0.7-0.8,0.7-0.8s0.6-0.7,0.9-1
		c0.3-0.3,0.9-1.3,1.2-1.8c0.3-0.5,0.8-1.9,0.8-1.9s0.6-1.2,0.8-1.9c0.2-0.7,0.1-1.7,0.1-1.7s-0.2-1.3-0.1-1.7
		c0.1-0.5,0.2-0.5,0.4-1c0.1-0.5,0.2-1.3,0.2-1.3l0.2-1.2l-0.1-2.3c0,0,0-1.1-0.2-1.7c-0.2-0.6-0.5-1.4-0.9-1.7
		c-0.3-0.4-1.1-1-1.7-1.5c-0.6-0.5-1.1-1.3-1.9-1.6l-5.3-0.2c-1.1,0.1-2.2,0.6-2.2,0.6s-1.4,0.8-2,1.2c-0.6,0.5-1.6,1.5-1.9,2.1
		c-0.3,0.6-0.9,2.4-0.9,2.4l-0.4,1.9c0,0-0.5,0.1-0.9,0.4c-0.4,0.3-0.9,1.3-1.1,1.7c-0.2,0.4-0.2,1.9-0.2,1.9s0.1,1,0.3,1.5
		c0.2,0.5,0.4,0.8,0.6,1c0.2,0.2,0.8,0.3,0.8,0.3s0.3,0.4,0.4,1c0.2,0.5,0.2,1.4,0.2,2c0,0.7,0,1.1,0,1.6c0,0.3-0.4,1.3-0.7,1.9
		l-0.8,1c0,0-1.4,1.4-2.1,1.9c-0.7,0.5-1.7,1.2-2.6,1.7c-0.8,0.4-4.4,1.2-4.4,1.2l-7.5,2.1c0,0-2.1,0.7-2.6,1.1
		c-0.4,0.4-0.5,1-0.5,1l-0.2,2.5c0,0-0.3,2.5-0.7,3.5c-0.4,1-1.8,4.6-2.3,5.7c-0.5,1.1-3.2,7.8-3.6,9.3c-0.4,1.4-1.3,7.6-1.3,9
		c0,1.4,0.3,3.2,0.8,4.2c0.5,1.1,1.7,2.1,2.1,2.3c0.4,0.2,2.2,0.3,3.4,0.2c1.1,0,2.7-0.3,3.6-0.4c0.9-0.1,2.4-0.2,2.4-0.2l-0.3,3.3
		l-0.3,5.3c0,0-0.8,1.7-0.9,2.9c-0.1,1.2-0.5,6.2-0.7,7.6c-0.1,1.4-2.7,14.3-2.7,14.3l1.7,0.9l-0.2,4.5c0,0-0.3,7.2-0.2,8.6
		c0.1,1.4,0.8,3.1,0.8,3.6c0,0.6-0.4,1.3-0.5,1.6c-0.1,0.4-1.3,5.7-1.3,5.7l-2,7.9c0,0-1.9,10.9-2.1,12.2c-0.2,1.3-0.6,8.3-0.8,9.7
		c-0.2,1.4-2,7.7-2,7.7s-0.7,4.4-0.7,5.9c-0.1,1.4,0.3,3.2,0.3,3.2l0.7,0.2c0,0,0,0.8-0.1,1.2c-0.1,0.4-0.3,0.7-0.3,1
		c0,0.3-0.1,0.9-0.4,1.4c-0.3,0.5-1.3,1.4-1.3,1.4l-1,1.1c0,0-0.6,0.6-0.8,1.1c-0.2,0.4-0.2,0.9-0.2,1.2c0.1,0.2,1,0.3,1,0.3
		l2.3,0.2l4.1-0.2l2.3-0.1c0,0,0.7-0.5,0.9-0.8c0.2-0.4,0.3-1.1,0.3-1.1l2.6-0.2c0,0,0.5-0.7,0.6-1c0.1-0.3,0-1.4,0.1-1.7
		c0.1-0.3,0.4-0.9,0.7-1.2c0.3-0.2,1.2-0.6,1.2-0.6l1.5-4.6l3.5-9.1l4.1-10.6c0,0,1.9-5.4,2.3-6.9c0.4-1.6,1.1-6.2,1.3-7.4
		c0.2-1.2,3-13.4,3-13.4s2.3-8.6,2.5-8.8c0.2-0.2,0.7-0.1,0.7-0.1l0.2,0.9l0.6,2.6c0,0,0.9,4.5,1,5.9c0.1,1.4-0.1,5.2-0.1,6.4
		c0,1.2,0.3,4.9,0.2,5.9c0,1-1,7-1,8.3c0,1.3,0.2,15.1,0.1,16c-0.1,0.9-0.8,3.7-0.8,3.7l-1.8,6.1c0,0-0.4,3-0.2,3.6
		c0.2,0.6,0.5,1.2,0.7,1.4c0.2,0.2,0.6,0.3,1,0.6c0.4,0.3,1,1.1,1,1.1l4.8,0.1l0.5-0.4c0,0,0.7-0.7,1-0.8c0.3-0.2,1.1-0.3,1.6-0.2
		c0.5,0,1.4,0.1,1.9,0.5c0.5,0.4,1,0.9,1.3,1.2c0.3,0.2,1.7,0.9,2.1,1c0.5,0.1,2.5,0.4,3.1,0.4c0.6,0,3.4,0,4.2,0
		c0.8,0,4-0.7,4.3-0.9c0.3-0.2,0.9-0.5,1-0.8c0.1-0.3,0.1-0.9-0.1-1.2c-0.2-0.3-0.9-1-1.4-1.2c-0.5-0.3-2.5-0.9-3.2-1
		c-0.7-0.1-3.3-0.2-3.7-0.4c-0.4-0.2-1.7-0.9-2.1-1.3c-0.4-0.4-1.7-1.9-2.1-2.5c-0.4-0.6-1.8-3.8-1.8-3.8s-0.5-1.4-0.8-2
		c-0.3-0.5-0.9-0.7-0.9-0.7s-0.2-0.6,0-1c0.1-0.4,0.9-1.4,1.3-2.1c0.4-0.7,1-3.5,1-3.7c0-0.2,1.2-3.4,1.5-4.6
		c0.3-1.2,0.5-4.5,0.5-4.7c0-0.2,0-8.6,0-10.2c0-1.6,0.9-10.4,1.1-12.1c0.2-1.7,2-10.3,2.3-12.1c0.3-1.8,0.8-6.4,0.8-6.4l1.2-0.2
		c0,0,0.5,0,0.7-0.2c0.2-0.2,0.2-0.4,0.2-0.7c0-0.2-0.2-4.6-0.2-4.6l-0.4-12.6l-0.2-3.1l0.8-0.5l-1-4.6c0,0-1.1-7.9-1-8.4
		c0.1-0.5,0.3-0.7,0.3-0.7s1.2,0,1.6,0c0.4,0,1.9,0.3,2.4,0.4c0.5,0.1,2.4,0.6,3,0.7c0.6,0,1.1-0.1,1.5-0.2c0.4-0.1,1.3-0.5,1.7-0.8
		c0.4-0.3,1.8-2.4,2.1-3c0.3-0.6,0.8-1.9,1-2.6C171.1,72.1,171.2,70.3,171,69.7z"/>
	<g>
		<path d="M138,73c0-0.5,0-0.9,0-1.1c0-1.4,0.2-2.7,0.6-3.7c0.3-0.8,0.8-1.6,1.5-2.4c0.5-0.6,1.4-1.4,2.7-2.6c1.3-1.1,2.1-2,2.5-2.7
			c0.4-0.7,0.6-1.4,0.6-2.2c0-1.4-0.6-2.7-1.7-3.8s-2.5-1.6-4.1-1.6c-1.6,0-2.9,0.5-3.9,1.5c-1.1,1-1.7,2.5-2.1,4.6l-3.8-0.5
			c0.3-2.8,1.4-4.9,3-6.4c1.7-1.5,3.9-2.2,6.7-2.2c2.9,0,5.3,0.8,7,2.4c1.7,1.6,2.6,3.5,2.6,5.8c0,1.3-0.3,2.5-0.9,3.6
			c-0.6,1.1-1.8,2.5-3.6,4c-1.2,1.1-2,1.9-2.4,2.4c-0.4,0.5-0.6,1.1-0.8,1.7s-0.3,1.7-0.3,3.2H138z M137.8,80.4v-4.2h4.2v4.2H137.8z
			"/>
	</g>
</g>
<path class="st0" d="M104,50.9c-0.1-5,3.8-6.7,9-6.6c1.5,1.8,4,2.1,5.1,3.6c-0.5,2.4-1.2,1.9-1.7,3.1c0,0.6,0,1.2,0,1.8l-1.3,0.7
	c-0.5,1.4-0.9,2.9-1.4,4.3c-1.9,0.3-3.8,0.6-5.7,0.9c0.1,3.5-0.4,5.4-1.6,7.4c-1.4,0.4-3.9,1.5-6,0.8c-0.6-0.4-1.2-0.8-1.8-1.1
	c-1.3-0.5-3,0.2-4-0.3c-0.8-1.8-3.1-4.3-4.6-5.5c0.1,10.8,0.2,31.2-4.2,37.1c-1.9-0.6-3.8,0-5.1,0.6c-0.3,3.7-1,8.1-2.4,11.2
	c-0.4,2.7-0.8,5.4-1.2,8.1c-0.5,1.1-2.4,9.9-2.2,10.1c-1.2,1.8-1.5,5.4-1.8,7.9l-0.7,0.1c0,2.9,0.5,4.9,1.8,6.5
	c0.3,0.4,0.6,0.3,0.8,0.9c1.2,4,2,9.6,1.8,14.1c0.3,1.8,0.6,3.6,0.9,5.4c-0.4,1.4-1,0.9-0.7,2.6c2.6,0.4,0.3,0.9,1,3.2
	c0.8,2.5,2.4,5.3,2.3,6.1c-0.4,1.9-2.2,2.4-3.1,3.9c1.2,1.2,0.9,3.5,0.5,4.8c0,0.1-0.1,0.8-0.1,1.7c-0.3,4.9-9.8,6.8-12.3,3.5
	c-0.3-0.8-0.8-2.1-0.3-2.8c0.8-1,0.5-1.3,0.9-2.4c0.8-2.2,1.5-5,1.2-6.9c-0.5-3-1.4-3.1-2.4-5.1c-0.4-0.8-0.3-2-0.5-2.6
	c0-1.7-0.1-3.3-0.1-5c-0.4-2.5-0.3-4.8-1-7.1c-0.8-2.7-2.6-4.2-3.9-6.4c-1.1-2-1.7-5.2-2.3-7.5c0.3-2.4,0.6-4.7,0.9-7.1
	c-0.5-3.2-0.5-7.9-0.5-11.2c0-1.5,0-3,0-4.6c-0.4-1.4-0.9-3.3-1.4-4.8l-0.3,0.1c-0.7,2.6-5.4,6.4-7,8.5c-1.5,2.1-3.5,4-4.9,6.2
	c-0.9,1.4-1.3,2.8-2.3,4.1c-0.7,0.9-2,1.5-2.6,2.6c-0.9,1.6-0.8,3.2-1.3,4.8c-0.3,1.2-2.8,7.9-2.5,8.7c-1,2.2-2.6,10.5-3,14.9
	c-0.4,4,0.4,7.7-1.6,13.2c-0.8,1.7-2.7,3.8-2.5,5.6c-1.5-0.3-3.2,0.4-5.6-0.1c-3.3-0.7-5.5-3-8.3-4c-1.3-0.3-2.7-0.6-4-0.9
	c-1.4-0.9-2.9-1.8-4.3-2.7c-1.6-1-5.9-3.8-5.9-5.9c0.4-1.5,0.8-1.8,1.6-2.8c5-0.3,5.8,2.7,10.5,3c1.2-1.7,5.9-0.4,5.9-3.1
	c1,0,2.2-0.3,2.7-0.8c-0.4-0.7-1.1-1.3-1.3-1.9c0.5-3.1,1-6.2,1.5-9.2c0-1.7,0.1-3.4,0.1-5.1c1.1-6.5,0.7-14.2,1.9-21.1
	c0.2-0.9-0.1-2.7,0.5-4c1.7-2.3,3.4-4.6,5.1-6.9c2.5-4.3,5-8.7,7.5-13c1-1.6,3.3-2.7,4.3-4.3c0.6-0.9,0.4-1.6,1-2.5
	c1.6-2.2,2.1,0.1,2.5-3.9c0.5-5.4,9-13.3,6.2-19.1c-5.2-0.9-13.6-6.1-15.7-10c-0.3-0.9-0.6-1.9-0.9-2.8c-0.5-0.6-1-1.1-1.5-1.7
	c-0.2-0.8-0.3-1.7-0.5-2.5c-0.8-0.5-1.5-1-2.3-1.5c-1-1-2-2.1-3-3.1c0-1.9,0-3.9,0-5.8l1.3-1.3c0.1-0.8,0.2-1.5,0.3-2.3
	c0.6-0.1,1.1-0.2,1.7-0.3c-0.1-1.5,0.1-2,0.9-2.6l0.2,0.2c1,0.5,5.1,5.1,5.6,6.1c0.4,1.8,0.8,3.6,1.3,5.4c0.6,1.7,2,3.2,3,4.6
	c0.4,0.6,0.8,1.1,1.1,1.7h1.5c1.1,0.4,1.5,1.6,3,1.9c1-2.8,2.1-6.4,2.7-9.6c1.1-5.3-0.1-10.4,2.3-14.1c1.9-1.3,3.8-2.6,5.7-3.9
	c-1.3,0.1-2.6-1.4-3.9-1.9c-0.3-1.9-0.9-3.4-1.6-4.8c2.3-0.3,3.8-1.1,5.8-1.5c-0.4-2.5-2.5-3.7-3.3-5.7c-0.1-1-0.2-2-0.2-3.1
	c-0.4-0.9-0.8-1.8-1.3-2.7c-1.1-3.7,0-8.8,2.1-10.5c3.2-2.5,11.3-3.6,15.3-0.7c0.8,1.6,1.5,3.1,2.3,4.7c0.1,1.2,0.3,2.4,0.4,3.5
	c0.4,0.6,0.8,1.1,1.2,1.7c0.6,1.6-0.3,3.4-0.6,4.7l-1,0.3v0.1l0.3,0.8c1.7-0.1,3.3-0.4,4.7,0c0.3,2.5,0.7,5.1,1,7.6
	c3.4,0.5,7.1,0.5,9.6,1.9c2.2,1.3,3.7,4.7,5,6.9c2,3.5,4,6.9,6,10.4c1.4,2.2,2.8,4.3,4.2,6.5L104,50.9z"/>
<path class="st0" d="M410.9,183.3c0.6-1.4,1.7-3.3,2.4-5.1l0.2-0.8c-0.8-0.4-0.4-1.9-0.3-3.2c-1.3-1.7-4.3-4.4-2.8-7.3
	c4.6-0.8,0.9-10.4,1.5-14c0.9-5.9,1-14.3,1.5-20.7c0.2-2.7-0.5-6-0.2-8.4c0.2-1.4-0.5-1.5-0.5-2.6c-0.1-2.5,0.4-4.1,0.6-6.1
	c0.3-1.9-0.3-4.9,0.4-7c-0.9-0.5-1.7-1-2.6-1.6c-1.5-2-1.1-5.6-1.7-8.6c-0.7-2.8-1.3-5.6-2-8.3c-0.2-1.6-0.3-3.2-0.5-4.8
	c-1-4.7,0.1-10.9-0.3-16.3c-0.4-4.5-0.8-9-0.1-13.8c0.8-5.4-0.9-11.7,1.4-15.8c1-1.8,4.5-2,6.3-3c1.8-1.1,4.6-1.5,6-2.2
	c0.9-0.4,1.8,0.1,2.5-0.4c1.2-0.8,1.6-2.7,2.7-3.5c0.6-0.2,1.3-0.3,1.9-0.5c0.8-1.7,0.8-4.4,1-6.5c-1-0.2-1.3-0.6-1.9-1
	c-0.1-1.3-0.6-2.8-0.1-4.2c0.2-0.6,0.9-1.1,1-1.9c0.2-1.4,0.4-2.8,0.5-4.3l1.4-1.4c1.5-1.8,2.3-1.9,5.2-2.4c1.2-0.2,3.3-1.2,4.9-0.5
	c2.3,1.1,6.2,6.4,5.2,10.4c-0.5,0.8-0.9,1.7-1.4,2.5c-0.7,2.3,0.2,4.4-1.8,5.2h-0.9c-1,0.6-1.4,2.8-2.8,3.7c-0.1,1.1-0.7,2.6,0,3.4
	l0.2-0.7l0.1,0.2c0.5,0.7,1.1,1.4,1.6,2.1c0.5,0.4,0.8-0.1,1.4,0.2c3.5,1.8,10.6,3.6,13.2,6c1.4,1.3,0.4,4,1.1,5.7
	c3.6,0.7,3.2,5.6,7.5,5.7c0.4-0.6,1.2-0.9,1.6-1.5c0.4-1.6,0.8-3.2,1.3-4.8c1.3-3.1,3.2-5.7,3.8-9.4c0.3-2-1.6-4.2-2-6.2
	c-0.4-2.4,1.6-4.3,2.2-5.6c0.3-2.2,0.5-4.3,0.7-6.5l0.9-0.1c0.1,1.6,0.2,3.3,0.3,4.9v-0.2l0.4-0.8h0.4l0.9,0.5l-0.3,1.5l1-0.5
	c0.5,0.4,0.8,0.3,0.8,1.2h1.1c1,2.9,1.1,7,0.2,10.3c-0.4,1.4-1.8,2.3-1.2,4.6c0.6,2.6,3.1,3.9,3.5,6.6c-0.6,0.8-0.7,1.5-1.1,2.4
	c-1.1,2.2-3.3,4.3-4.2,6.8c-1.3,3.8-2,6.9-5.6,8.2c-2.6,1-6.3,0.5-9.1-0.5c-1-0.4-3.3-1.1-4.4-0.7c-0.4,3.8-2.1,7.5-1.5,12.3
	c0.2,1.6,0.5,3.9,0.9,4.7c-0.1,0.6-0.3,1.3-0.4,1.9c-0.1,1.2,0.5,4.1,0.8,5c0.4,1-0.2,4,0,5.3c0.2,1.7,0.2,7.8-0.4,8.5l0.2,0.3
	c-0.1,1.6-0.3,3.3-0.4,4.9c-1,0.2-2,0.3-3,0.5c0,4.6,0.1,9,0.3,12.9c0.2,4.1-0.9,8.9-0.2,13.4c-0.2,2.1-0.4,4.2-0.6,6.3
	c0.3,1.3,1.1,3.1,1.3,4.4c0.6,4.2,0.5,9.3-0.1,12.9c-0.3,1.7-0.7,3.6-0.3,5.4c1.2,0.8,3.1,1.8,3.7,3.2c1.5,3.6-1.3,6.9,0.2,10.6
	c1.1,2.7,3.4,4.4,5.7,6c0.7,0.4,1.3,0.8,2,1.2c1.1,1.8-0.2,3-0.7,4.2c-3.4,0.2-6.5,0.4-9.7-0.4c-2.6-0.7-4-2.5-5.9-3.5
	c-1.2-0.3-2.4-0.6-3.5-0.9c-0.1-2.5-0.1-6.7,0.7-8.3c-1.5-1.9-3.1-3.2-4.2-5.6l0.1-2.5c-0.5-1.5-0.3-2.4-0.2-4
	c-0.2-4-0.5-8.1-0.7-12.1c-0.4-4.1-0.8-8.2-1.1-12.3c0-1.4-0.1-2.8-0.1-4.2c-0.8-3.7-2.1-7.9-2.9-11.9c-0.5-4.1-1.1-8.1-1.6-12.2
	l-0.1,0.2c-1.1,2-1.2,6.2-1.9,8.8c-2.1,7.9-2.8,16.9-4.2,25.4c0,3.4-0.1,6.8-0.1,10.2c-0.6,3.6-1.6,7.1-2.5,10.1
	c-0.4,1.4,2.7,4.7,3,6.3c0.5,2.4-1.8,3.1-2.3,4.7c-0.3,0.9-0.5,1.8-0.7,2.7c0.1,0.7,0.2,1.3,0.1,1.6c0,2.4,0,4.7,0,7.1
	c-0.9,0.5-1.7,1-2.6,1.6c-0.9,0.9-1.3,2.3-2.5,2.9c-2.6,1.3-7.5,0.9-9.9,0C408.3,186,409.6,184.9,410.9,183.3z"/>
<g>
	<path d="M66.9,73c0-0.5,0-0.9,0-1.1c0-1.4,0.2-2.7,0.6-3.7c0.3-0.8,0.8-1.6,1.5-2.4c0.5-0.6,1.4-1.4,2.7-2.6c1.3-1.1,2.1-2,2.5-2.7
		c0.4-0.7,0.6-1.4,0.6-2.2c0-1.4-0.6-2.7-1.7-3.8s-2.5-1.6-4.1-1.6c-1.6,0-2.9,0.5-3.9,1.5c-1.1,1-1.7,2.5-2.1,4.6l-3.8-0.5
		c0.3-2.8,1.4-4.9,3-6.4c1.7-1.5,3.9-2.2,6.7-2.2c2.9,0,5.3,0.8,7,2.4c1.7,1.6,2.6,3.5,2.6,5.8c0,1.3-0.3,2.5-0.9,3.6
		c-0.6,1.1-1.8,2.5-3.6,4c-1.2,1.1-2,1.9-2.4,2.4c-0.4,0.5-0.6,1.1-0.8,1.7c-0.2,0.7-0.3,1.7-0.3,3.2H66.9z M66.7,80.4v-4.2h4.2v4.2
		H66.7z"/>
</g>
<g>
	<path d="M427.9,73c0-0.5,0-0.9,0-1.1c0-1.4,0.2-2.7,0.6-3.7c0.3-0.8,0.8-1.6,1.5-2.4c0.5-0.6,1.4-1.4,2.7-2.6
		c1.3-1.1,2.1-2,2.5-2.7c0.4-0.7,0.6-1.4,0.6-2.2c0-1.4-0.6-2.7-1.7-3.8c-1.1-1.1-2.5-1.6-4.1-1.6c-1.6,0-2.9,0.5-3.9,1.5
		c-1.1,1-1.7,2.5-2.1,4.6l-3.8-0.5c0.3-2.8,1.4-4.9,3-6.4c1.7-1.5,3.9-2.2,6.7-2.2c2.9,0,5.3,0.8,7,2.4c1.7,1.6,2.6,3.5,2.6,5.8
		c0,1.3-0.3,2.5-0.9,3.6c-0.6,1.1-1.8,2.5-3.6,4c-1.2,1.1-2,1.9-2.4,2.4c-0.4,0.5-0.6,1.1-0.8,1.7c-0.2,0.7-0.3,1.7-0.3,3.2H427.9z
		 M427.6,80.4v-4.2h4.2v4.2H427.6z"/>
</g>
</svg>
