<?xml version="1.0" encoding="utf-8"?><svg width="570" height="456" viewBox="0 0 570 456" xmlns="http://www.w3.org/2000/svg" xmlns:xlink="http://www.w3.org/1999/xlink"><svg id="3DArmorModeling" viewBox="-1 -1 114 114" width="114" height="114" x="114"><style>.ast0,.ast1{enable-background:new}.ast1{clip-path:url(#aSVGID_2_)}.ast2{fill:#6a6a6a}.ast3{clip-path:url(#aSVGID_4_);enable-background:new}.ast4{fill:#6e6e6e}.ast5{fill:#727272}.ast6,.ast7{clip-path:url(#aSVGID_6_);enable-background:new}.ast7{clip-path:url(#aSVGID_8_)}.ast8{fill:#7a7a7a}.ast9{fill:#767676}.ast10,.ast11{clip-path:url(#aSVGID_10_);enable-background:new}.ast11{clip-path:url(#aSVGID_12_)}.ast12{fill:#c5c5c5}.ast13,.ast14{clip-path:url(#aSVGID_14_);enable-background:new}.ast14{clip-path:url(#aSVGID_16_)}.ast15,.ast16,.ast17,.ast18{clip-path:url(#aSVGID_18_);enable-background:new}.ast16,.ast17,.ast18{clip-path:url(#aSVGID_20_)}.ast17,.ast18{clip-path:url(#aSVGID_22_)}.ast18{clip-path:url(#aSVGID_24_)}.ast19,.ast20,.ast21,.ast22{clip-path:url(#aSVGID_26_);enable-background:new}.ast20,.ast21,.ast22{clip-path:url(#aSVGID_28_)}.ast21,.ast22{clip-path:url(#aSVGID_30_)}.ast22{clip-path:url(#aSVGID_32_)}.ast23{fill:none}</style><g class="ast0"><g class="ast0"><defs><path id="aSVGID_1_" class="ast0" d="M34.1 43c-2.7.6-5.4 1.2-8.1 1.9.2 0 .3-.1.5-.1.1 0 .3-.1.4-.1.1 0 .2-.1.3-.1.1 0 .2-.1.3-.1l8.1-1.9c-.1 0-.2.1-.3.1-.1 0-.2.1-.3.1-.1 0-.3.1-.4.1-.2.1-.4.1-.5.1z"/></defs><clipPath id="aSVGID_2_"><use xlink:href="#aSVGID_1_" overflow="visible"/></clipPath><g class="ast1"><path class="ast2" d="M27.4 44.5l8.1-1.9c-.1 0-.2.1-.3.1-.1 0-.2.1-.3.1-.1 0-.3.1-.4.1-.1 0-.3.1-.5.1l-8 1.9c.2 0 .3-.1.5-.1.1 0 .3-.1.4-.1.1 0 .2-.1.3-.1.1-.1.1-.1.2-.1"/></g></g><g class="ast0"><defs><path id="aSVGID_3_" class="ast0" d="M32.7 37.7l8.1-1.8c-.6.6-1.1 1.1-1.6 1.7-.5.6-1 1.1-1.4 1.7-.4.6-.8 1.1-1.2 1.7-.4.6-.7 1.1-1.1 1.6l-8.1 1.9c.3-.5.7-1.1 1-1.6.4-.6.8-1.1 1.2-1.7.4-.6.9-1.1 1.4-1.7.6-.6 1.1-1.2 1.7-1.8z"/></defs><clipPath id="aSVGID_4_"><use xlink:href="#aSVGID_3_" overflow="visible"/></clipPath><g class="ast3"><path class="ast4" d="M32.7 37.7l8.1-1.8-.7.7c-.2.2-.4.5-.6.7-.2.2-.4.5-.6.7-.2.2-.4.5-.6.7l-8.1 1.8c.2-.2.4-.5.6-.7.2-.2.4-.5.6-.7.2-.2.4-.5.6-.7l.7-.7"/><path class="ast5" d="M30.1 40.6l8.1-1.8c-.3.3-.5.7-.8 1-.2.3-.5.7-.7 1-.2.3-.4.6-.7 1l-.6.9-8.1 1.9.6-.9c.2-.3.4-.6.7-1 .2-.3.5-.7.7-1 .3-.5.6-.8.8-1.1"/></g></g><g class="ast0"><defs><path id="aSVGID_5_" class="ast0" d="M25.4 13.5l8.1-1.7c.5-.1.9-.2 1.4-.2h1.3c.4 0 .8.1 1.1.1.4.1.7.1 1 .2.2 0 .4.1.6.1.2 0 .3.1.5.1.1 0 .3.1.4.1.1 0 .2.1.3.1L32 14c-.1 0-.1-.1-.3-.1-.1 0-.2-.1-.4-.1-.1 0-.3-.1-.5-.1s-.4-.1-.6-.1c-.3-.1-.6-.1-1-.2s-.7-.1-1.1-.1h-1.3c-.5 0-.9.1-1.4.2z"/></defs><clipPath id="aSVGID_6_"><use xlink:href="#aSVGID_5_" overflow="visible"/></clipPath><g class="ast6"><path class="ast2" d="M25.4 13.5l8.1-1.7c.5-.1.9-.2 1.4-.2h1.3c.4 0 .8.1 1.1.1.4.1.7.1 1 .2.2 0 .4.1.6.1.2 0 .3.1.5.1.1 0 .3.1.4.1.1 0 .2.1.3.1L32 14c-.1 0-.1-.1-.3-.1-.1 0-.2-.1-.4-.1-.1 0-.3-.1-.5-.1s-.4-.1-.6-.1c-.3-.1-.6-.1-1-.2s-.7-.1-1.1-.1h-1.3c-.5 0-.9.1-1.4.2"/></g></g><g class="ast0"><defs><path id="aSVGID_7_" class="ast0" d="M50.8 88.4l8.1-2.1c-.1.5-.1.9-.2 1.4l-.3 1.5c-.1.5-.2 1.1-.4 1.6-.1.5-.3 1.1-.4 1.7-.2.5-.3 1-.5 1.5s-.3.9-.5 1.4c-.2.4-.3.8-.5 1.2-.2.4-.3.8-.5 1.1l-8 2.1c.2-.4.3-.7.5-1.1.2-.4.3-.8.5-1.2.2-.4.3-.9.5-1.4.2-.5.3-1 .5-1.5.2-.6.3-1.1.4-1.7.1-.6.3-1.1.4-1.6l.3-1.5c-.1-.4 0-.9.1-1.4z"/></defs><clipPath id="aSVGID_8_"><use xlink:href="#aSVGID_7_" overflow="visible"/></clipPath><g class="ast7"><path class="ast8" d="M50.8 88.4l8.1-2.1c0 .3-.1.6-.1.9 0 .3-.1.6-.2.9-.1.3-.1.6-.2.9-.1.3-.1.6-.2 1l-8.1 2.1c.1-.3.1-.6.2-1 .1-.3.1-.6.2-.9.1-.3.1-.6.2-.9 0-.3 0-.6.1-.9"/><path class="ast9" d="M50.1 92.1l8.1-2.1c0 .2-.1.4-.1.6-.1.2-.1.4-.2.6-.1.2-.1.4-.2.7-.1.2-.1.4-.2.7-.2.5-.3 1-.5 1.5s-.3.9-.5 1.4c-.2.4-.3.8-.5 1.2-.2.4-.3.8-.5 1.1l-8 2.1c.2-.4.3-.7.5-1.1.2-.4.3-.8.5-1.2.2-.4.3-.9.5-1.4.2-.5.3-1 .5-1.5.1-.2.1-.4.2-.7.1-.2.1-.4.2-.7.1-.2.1-.4.2-.6-.1-.2 0-.4 0-.6"/></g></g><g class="ast0"><defs><path id="aSVGID_9_" class="ast0" d="M38.8 32.9l8.1-1.8c-.5.3-.9.6-1.4.9-.5.3-1 .7-1.5 1.1-.5.4-1.1.8-1.6 1.3s-1.1 1-1.6 1.5l-8.1 1.8c.5-.6 1.1-1.1 1.6-1.5.5-.5 1.1-.9 1.6-1.3s1-.8 1.5-1.1c.5-.4 1-.7 1.4-.9z"/></defs><clipPath id="aSVGID_10_"><use xlink:href="#aSVGID_9_" overflow="visible"/></clipPath><g class="ast10"><path class="ast2" d="M38.8 32.9L47 31c-.1.1-.2.1-.3.2-.1.1-.2.1-.4.2-.1.1-.2.2-.4.2-.1.1-.2.2-.4.2l-8.1 1.8c.1-.1.2-.2.4-.2.1-.1.2-.2.4-.2.1-.1.2-.1.4-.2 0 0 .1-.1.2-.1"/><path class="ast4" d="M37.4 33.8l8.1-1.8c-.4.2-.8.5-1.1.8l-1.2.9c-.4.3-.8.7-1.2 1l-1.2 1.2-8.1 1.8 1.2-1.2c.4-.4.8-.7 1.2-1.1l1.2-.9c.4-.2.7-.5 1.1-.7"/></g></g><g class="ast0"><defs><path id="aSVGID_11_" class="ast0" d="M33.9 13c2.7-.6 5.4-1.1 8.1-1.7H43.1c.1 0 .2 0 .2.1.1 0 .1.1.2.1s.1.1.2.1.1.1.1.1c.7.4 1.3 1.3 1.8 2.4.5 1.1.9 2.6 1.2 4.3.3 1.7.5 3.7.5 5.8 0 2.1-.1 4.5-.3 7L38.9 33c.3-2.5.4-4.8.3-7 0-2.2-.2-4.1-.5-5.8-.3-1.7-.7-3.2-1.2-4.3-.5-1.1-1.1-2-1.8-2.4l-.1-.1c-.1 0-.1-.1-.2-.1s-.1-.1-.2-.1c-.1-.2-.2-.2-.2-.2h-1.1z"/></defs><clipPath id="aSVGID_12_"><use xlink:href="#aSVGID_11_" overflow="visible"/></clipPath><g class="ast11"><path class="ast2" d="M33.9 13l8.1-1.7H43.1c.1 0 .2 0 .2.1.1 0 .1.1.2.1s.1.1.2.1.1.1.1.1h.4L36 13.4h-.1-.1-.1-.1l-.1-.1c-.1 0-.1-.1-.2-.1s-.1-.1-.2-.1c0-.1-.1-.1-.1-.1h-1.1"/><path class="ast4" d="M35.9 13.5l8.2-1.7c.1 0 .1.1.2.1l.1.1c0 .1.1.1.1.2s.1.1.1.2l-8.2 1.7c0-.1-.1-.1-.1-.2s-.1-.1-.1-.2-.1-.1-.1-.1c-.1 0-.1-.1-.2-.1"/><path class="ast5" d="M36.5 14.1l8.2-1.7.2.2c.1.1.1.1.1.2s.1.2.1.2c0 .1.1.2.1.3L37.1 15c0-.1-.1-.2-.1-.3 0-.1-.1-.2-.1-.2 0-.1-.1-.2-.1-.2-.2 0-.2-.1-.3-.2"/><path class="ast9" d="M37.1 15l8.2-1.7c.1.1.1.3.2.4.1.1.1.3.2.5s.1.3.2.5.1.4.2.5L37.9 17c-.1-.2-.1-.4-.2-.5-.1-.2-.1-.3-.2-.5s-.1-.3-.2-.5-.1-.3-.2-.5"/><path class="ast8" d="M37.9 17l8.1-1.7c.3.9.5 1.9.7 3.1.2 1.1.3 2.4.4 3.7.1 1.3.1 2.8.1 4.3s-.1 3.1-.3 4.7l-8.1 1.8c.2-1.6.3-3.2.3-4.8 0-1.5 0-3-.1-4.3-.1-1.3-.2-2.6-.4-3.7-.1-1.2-.4-2.2-.7-3.1"/></g></g><path class="ast12" d="M32.7 37.7c-.6.6-1.1 1.1-1.6 1.7-.5.6-1 1.2-1.4 1.7-.4.6-.8 1.1-1.2 1.7-.4.6-.7 1.1-1 1.6-.2.1-.6.2-1 .3-.4.1-1 .2-1.6.3-.6.1-1.3.1-2 .1s-1.5-.1-2.2-.3c-.4-.1-.8-.2-1.2-.4l-1.2-.6c-.4-.3-.8-.5-1.1-.9-.4-.3-.7-.7-1-1.2-.1-.2-.3-.5-.6-.8-.3-.4-.5-.9-.8-1.4-.3-.5-.5-1.1-.7-1.7-.1-.6-.2-1.1-.1-1.6.1-.3.2-.6.3-.8.1-.2.3-.4.5-.5.2-.1.3-.2.5-.3.2-.1.3-.1.4-.1 0-.2-.1-1.1-.1-2.4 0-1.3 0-3 .3-4.8.2-1.9.7-3.9 1.4-5.8s1.8-3.8 3.2-5.3c.9-.9 1.8-1.5 2.7-2 .9-.5 1.8-.7 2.7-.9.9-.2 1.7-.2 2.4-.1.8 0 1.4.2 2 .3.2 0 .4.1.6.1.2 0 .3.1.5.1.1 0 .3.1.4.1.1 0 .2.1.3.1.4-.3.7-.5 1-.7.3-.2.6-.3.9-.4.3-.1.5-.1.7-.1.2 0 .4 0 .6.1.1 0 .2 0 .2.1.1 0 .1.1.2.1s.1.1.2.1.1.1.1.1c.7.4 1.3 1.3 1.8 2.4.5 1.1.9 2.6 1.2 4.3.3 1.7.5 3.7.5 5.8 0 2.2-.1 4.5-.3 7-.5.3-.9.6-1.4.9-.5.3-1 .7-1.5 1.1-.5.4-1.1.8-1.6 1.3-.9.7-1.5 1.2-2 1.7z"/><g class="ast0"><defs><path id="aSVGID_13_" class="ast0" d="M40.9 27.6l8.1-1.8 1.2.6c.4.2.9.4 1.3.6.4.2.9.4 1.4.6.5.2.9.4 1.4.6.4.1.8.3 1.1.4.4.1.7.2 1.1.4.4.1.7.2 1.1.3.3.1.7.2 1 .3l-8.1 1.8c-.3-.1-.7-.2-1-.3-.3-.1-.7-.2-1.1-.3-.4-.1-.7-.2-1.1-.4-.4-.1-.7-.3-1.1-.4-.5-.2-1-.4-1.4-.6-.5-.2-.9-.4-1.4-.6-.4-.2-.9-.4-1.3-.6l-1.2-.6z"/></defs><clipPath id="aSVGID_14_"><use xlink:href="#aSVGID_13_" overflow="visible"/></clipPath><g class="ast13"><path class="ast2" d="M40.9 27.6l8.1-1.8 1.2.6c.4.2.9.4 1.3.6.4.2.9.4 1.4.6.5.2.9.4 1.4.6.4.1.8.3 1.1.4.4.1.7.2 1.1.4.4.1.7.2 1.1.3.3.1.7.2 1 .3l-8.1 1.8c-.3-.1-.7-.2-1-.3-.3-.1-.7-.2-1.1-.3-.4-.1-.7-.2-1.1-.4-.4-.1-.7-.3-1.1-.4-.5-.2-1-.4-1.4-.6-.5-.2-.9-.4-1.4-.6-.4-.2-.9-.4-1.3-.6l-1.2-.6"/></g></g><g class="ast0"><defs><path id="aSVGID_15_" class="ast0" d="M74.6 101.1l-8.1 2.2c.1 0 .2-.1.3-.1.1 0 .2-.1.2-.2l.2-.2c.1-.1.1-.2.1-.2.2-.5.2-1.2.1-1.9-.1-.8-.4-1.7-.7-2.7-.3-1.1-.7-2.3-1.1-3.8-.2-1.6-.6-3.2-.7-5.2 0-.5-.1-.9-.1-1.4v-1.2-1.1-1c0-1.8.1-3.5.3-5 .2-1.5.4-2.9.7-4.1.3-1.2.6-2.3.8-3.3.3-.9.5-1.7.8-2.4l8.1-2c-.2.6-.5 1.4-.8 2.4-.3.9-.6 2-.8 3.3-.3 1.2-.5 2.6-.7 4.1-.2 1.5-.3 3.2-.3 4.9v3.3c0 .4.1.9.1 1.4.2 1.9.5 3.6.8 5 .3 1.5.7 2.7 1 3.8.3 1.1.6 2 .7 2.7.1.8.1 1.4-.1 1.9 0 .1-.1.2-.1.2l-.2.2-.2.2c-.1.1-.2.2-.3.2z"/></defs><clipPath id="aSVGID_16_"><use xlink:href="#aSVGID_15_" overflow="visible"/></clipPath><g class="ast14"><path class="ast9" d="M67.3 69.6l8.1-2c-.1.3-.2.6-.3 1-.1.4-.2.8-.4 1.2-.1.4-.3.9-.4 1.4-.1.5-.3 1-.4 1.6l-8.1 2c.1-.6.3-1.1.4-1.6.1-.5.3-1 .4-1.4.1-.4.3-.8.4-1.2.1-.4.2-.7.3-1"/><path class="ast8" d="M65.8 74.8l8.1-2c-.1.6-.3 1.3-.4 2-.1.7-.2 1.5-.3 2.3-.1.8-.2 1.6-.2 2.5-.1.9-.1 1.8-.1 2.7v3.3c0 .4.1.9.1 1.4.2 1.8.5 3.4.8 4.8.3 1.4.7 2.6 1 3.6.3 1 .6 1.9.8 2.7.2.8.2 1.4.1 1.9l-8.1 2.2c.1-.5.1-1.2-.1-2s-.5-1.7-.8-2.7c-.3-1-.7-2.3-1-3.6-.3-1.4-.6-3-.8-4.8 0-.5-.1-.9-.1-1.4v-1.2-1.1-1c0-.9.1-1.9.1-2.7.1-.9.1-1.7.2-2.5s.2-1.5.3-2.3c.1-.8.3-1.5.4-2.1"/><path class="ast9" d="M67.5 102.1l8.1-2.2v.4l-8.1 2.2v-.1-.1-.1-.1"/><path class="ast5" d="M67.3 102.6l8.1-2.2v.4l-8.1 2.2v-.1-.1-.2c0 .1 0 .1 0 0"/><path class="ast4" d="M67.2 102.9l8.1-2.2-.1.1-.1.1-.1.1h-.1l-8.1 2.2h.1l.1-.1.2-.2c-.1 0-.1 0 0 0"/><path class="ast2" d="M66.9 103.1L75 101h-.1-.1-.1-.1l-8.1 2.2h.2s.1 0 .2-.1c-.1 0 0 0 0 0"/></g></g><g class="ast0"><defs><path id="aSVGID_17_" class="ast0" d="M50.5 31.4l8.1-1.8c.3.1.7.2 1 .2.3.1.7.1 1.1.2.4.1.7.1 1.1.2.4.1.8.1 1.1.2.5.1 1 .1 1.5.1s.9.1 1.4.1h2.6l-8.2 1.8h-2.6c-.5 0-.9 0-1.4-.1-.5 0-1-.1-1.5-.1-.4 0-.8-.1-1.1-.2-.4-.1-.7-.1-1.1-.2-.4-.1-.7-.1-1.1-.2-.2 0-.5-.1-.9-.2z"/></defs><clipPath id="aSVGID_18_"><use xlink:href="#aSVGID_17_" overflow="visible"/></clipPath><g class="ast15"><path class="ast2" d="M50.5 31.4l8.1-1.8c.3.1.7.2 1 .2.3.1.7.1 1.1.2.4.1.7.1 1.1.2.4.1.8.1 1.1.2.5.1 1 .1 1.5.1s.9.1 1.4.1h2.6l-8.2 1.8h-2.6c-.5 0-.9 0-1.4-.1-.5 0-1-.1-1.5-.1-.4 0-.8-.1-1.1-.2-.4-.1-.7-.1-1.1-.2-.4-.1-.7-.1-1.1-.2-.2 0-.5-.1-.9-.2"/></g></g><g class="ast0"><defs><path id="aSVGID_19_" class="ast0" d="M60.3 32.5l8.2-1.8c0 .6.1 1.2.1 1.8 0 .6.1 1.2.1 1.8 0 .6.1 1.2.1 1.8 0 .6.1 1.2.1 1.8l-8.1 1.9c0-.6-.1-1.2-.1-1.8 0-.6-.1-1.2-.1-1.8 0-.6-.1-1.2-.1-1.8-.1-.7-.1-1.3-.2-1.9z"/></defs><clipPath id="aSVGID_20_"><use xlink:href="#aSVGID_19_" overflow="visible"/></clipPath><g class="ast16"><path class="ast8" d="M60.3 32.5l8.2-1.8c0 .6.1 1.2.1 1.8 0 .6.1 1.2.1 1.8 0 .6.1 1.2.1 1.8 0 .6.1 1.2.1 1.8l-8.1 1.9c0-.6-.1-1.2-.1-1.8 0-.6-.1-1.2-.1-1.8 0-.6-.1-1.2-.1-1.8-.1-.7-.1-1.3-.2-1.9"/></g></g><g class="ast0"><defs><path id="aSVGID_21_" class="ast0" d="M73.3 58.2l8.1-2c-.5.6-1 1.3-1.5 2.1s-1 1.6-1.6 2.6c-.5.9-1 2-1.5 3.1s-1 2.3-1.4 3.6l-8.1 2c.4-1.3.9-2.5 1.4-3.7.5-1.1 1-2.2 1.5-3.1.5-.9 1-1.8 1.6-2.6.5-.7 1-1.4 1.5-2z"/></defs><clipPath id="aSVGID_22_"><use xlink:href="#aSVGID_21_" overflow="visible"/></clipPath><g class="ast17"><path class="ast5" d="M73.3 58.2l8.1-2c-.3.4-.6.8-.9 1.3-.3.5-.7.9-1 1.5-.3.5-.7 1.1-1 1.7-.3.6-.7 1.2-1 1.9l-8.1 2c.3-.7.7-1.3 1-1.9.3-.6.7-1.1 1-1.7.3-.5.7-1 1-1.5.3-.5.6-.9.9-1.3"/><path class="ast9" d="M69.4 64.4l8.1-2-.6 1.2c-.2.4-.4.8-.5 1.2-.2.4-.4.9-.5 1.3-.2.5-.3.9-.5 1.4l-8.1 2c.2-.5.3-.9.5-1.4.2-.5.3-.9.5-1.3s.4-.8.5-1.2l.6-1.2"/></g></g><g class="ast0"><defs><path id="aSVGID_23_" class="ast0" d="M60.7 39.7l8.1-1.9c.4.5.8.9 1.3 1.4.4.5.9 1 1.3 1.6.5.5.9 1.1 1.4 1.7.5.6.9 1.2 1.4 1.9.8 1 1.5 2.1 2.2 3.1.7 1 1.3 2 1.9 3 .6 1 1.2 2 1.7 2.9.5.9 1 1.9 1.5 2.7l-8.1 2c-.5-.9-.9-1.8-1.5-2.8-.5-1-1.1-1.9-1.7-2.9-.6-1-1.2-2-1.9-3.1-.7-1-1.4-2.1-2.2-3.1-.5-.6-.9-1.3-1.4-1.9-.5-.6-.9-1.2-1.4-1.7-.5-.5-.9-1.1-1.3-1.6-.5-.4-.9-.9-1.3-1.3z"/></defs><clipPath id="aSVGID_24_"><use xlink:href="#aSVGID_23_" overflow="visible"/></clipPath><g class="ast18"><path class="ast4" d="M60.7 39.7l8.1-1.9c.3.3.6.7.9 1 .3.3.6.7.9 1.1.3.4.6.8 1 1.2.3.4.7.8 1 1.2l-8.1 1.9c-.3-.4-.7-.8-1-1.2-.3-.4-.6-.8-1-1.2-.3-.4-.6-.7-.9-1.1-.3-.4-.6-.7-.9-1"/><path class="ast5" d="M64.5 44.2l8.1-1.9c.1.2.3.3.4.5.1.2.3.3.4.5.1.2.3.4.4.5.1.2.3.4.4.5.6.8 1.2 1.7 1.8 2.5.6.8 1.1 1.7 1.6 2.5l1.5 2.4c.5.8.9 1.6 1.3 2.3l-8.1 2c-.4-.8-.8-1.5-1.3-2.3-.5-.8-.9-1.6-1.5-2.4-.5-.8-1-1.7-1.6-2.5-.6-.8-1.2-1.7-1.8-2.5-.1-.2-.3-.4-.4-.5-.1-.2-.3-.4-.4-.5-.1-.2-.3-.3-.4-.5-.2-.3-.3-.5-.4-.6"/><path class="ast9" d="M72.2 56l8.1-2c.1.2.2.4.3.5.1.2.2.4.3.5.1.2.2.3.3.5.1.2.2.3.3.5l-8.1 2c-.1-.2-.2-.3-.3-.5-.1-.2-.2-.3-.3-.5-.1-.2-.2-.4-.3-.5-.1-.1-.2-.3-.3-.5"/></g></g><path class="ast12" d="M67.3 69.6c-.2.6-.5 1.4-.8 2.4-.3.9-.6 2-.8 3.3-.3 1.2-.5 2.6-.7 4.1-.2 1.5-.3 3.2-.3 5v3.3c0 .4.1.9.1 1.4.2 1.9.5 3.6.8 5.1.3 1.5.7 2.7 1.1 3.8.3 1.1.6 2 .7 2.7.1.8.1 1.4-.1 1.9-.1.2-.2.4-.4.5-.2.1-.4.2-.8.3-.4.1-.8.1-1.4 0-.6 0-1.3-.1-2.3-.2-.9-.1-1.7-.2-2.5-.3-.8-.1-1.5-.2-2.2-.3-.7-.1-1.4-.2-2-.3-.6-.1-1.2-.2-1.7-.3-.2-.5-.3-.9-.5-1.4-.2-.5-.3-1-.5-1.5s-.3-1.1-.5-1.7c-.2-.6-.3-1.2-.5-1.8-.2-.7-.3-1.3-.5-1.9-.1-.6-.3-1.2-.4-1.8-.1-.6-.2-1.2-.3-1.7-.1-.6-.2-1.1-.2-1.6-.1.5-.1 1-.2 1.5l-.3 1.5c-.1.5-.2 1.1-.4 1.6-.1.6-.3 1.1-.4 1.7-.1.5-.3 1-.5 1.5s-.3.9-.5 1.4c-.2.4-.3.9-.5 1.2-.2.4-.3.8-.5 1.1-.5-.2-1.1-.4-1.7-.7-.6-.2-1.3-.5-2-.8-.7-.3-1.4-.6-2.2-1-.8-.4-1.6-.7-2.4-1.2-.9-.4-1.6-.8-2.2-1.1-.6-.3-1-.6-1.4-.8-.3-.3-.6-.5-.8-.7-.2-.2-.3-.5-.4-.7-.2-.7-.2-1.3-.1-2s.4-1.4.7-2.3c.3-.9.7-1.9 1-3.1.3-1.2.6-2.7.8-4.5 0-.5.1-.9.1-1.3v-1.2-1.1-1c0-1.8-.2-3.5-.3-5.1-.2-1.6-.4-3.1-.7-4.4-.3-1.4-.5-2.6-.8-3.7-.3-1.1-.5-2-.7-2.7-.4-1.5-.9-3-1.4-4.3-.5-1.4-1-2.6-1.5-3.8-.5-1.2-1-2.3-1.5-3.3s-1-1.9-1.4-2.8c.4-.6.9-1.3 1.4-1.9.5-.7 1-1.3 1.6-2 .6-.7 1.2-1.4 1.8-2 .6-.7 1.3-1.3 2.1-2 .4-.4.9-.8 1.3-1.1.4-.4.9-.7 1.3-1 .4-.3.9-.6 1.3-.9.4-.3.8-.5 1.2-.8 0-.6 0-1.2.1-1.7 0-.6 0-1.2.1-1.7 0-.6 0-1.2.1-1.7 0-.6 0-1.2.1-1.7l1.2.6c.4.2.9.4 1.3.6.4.2.9.4 1.4.6.5.2.9.4 1.4.6.4.1.8.3 1.1.4.4.1.7.3 1.1.4.4.1.7.2 1.1.3.3.1.7.2 1 .3.3.1.7.2 1 .2.3.1.7.1 1.1.2.4.1.7.1 1.1.2.4.1.7.1 1.1.2.5.1 1 .1 1.5.1s.9.1 1.4.1h2.6c0 .6.1 1.2.1 1.8 0 .6.1 1.2.1 1.8 0 .6.1 1.2.1 1.8 0 .6.1 1.2.1 1.8.4.5.8.9 1.3 1.4.4.5.9 1 1.3 1.6.5.6.9 1.1 1.4 1.7.5.6.9 1.2 1.4 1.9.8 1.1 1.5 2.1 2.2 3.1.7 1 1.3 2.1 1.9 3.1.6 1 1.2 2 1.7 2.9.5 1 1 1.9 1.5 2.8-.5.6-1 1.3-1.5 2.1s-1 1.6-1.6 2.6c-.5.9-1 2-1.5 3.1-.5.7-1 1.9-1.4 3.3z"/><g class="ast0"><defs><path id="aSVGID_25_" class="ast0" d="M65.6 20.5l8.2-1.8h.7c.2 0 .4.1.6.2.2.1.5.3.8.5.3.2.6.5.9.8.3.3.7.7 1.1 1.2l-8.2 1.8c-.4-.5-.7-.9-1.1-1.2-.3-.3-.6-.6-.9-.8-.3-.2-.5-.4-.8-.5-.2-.1-.4-.2-.6-.2H65.7h-.1z"/></defs><clipPath id="aSVGID_26_"><use xlink:href="#aSVGID_25_" overflow="visible"/></clipPath><g class="ast19"><path class="ast2" d="M65.6 20.5l8.2-1.8h.7c.1 0 .2.1.3.1.1 0 .2.1.4.2.1.1.3.2.4.3.2.1.3.2.5.4l-8.2 1.8c-.2-.1-.3-.3-.5-.4-.2-.1-.3-.2-.4-.3-.1-.1-.3-.1-.4-.2-.1 0-.2-.1-.3-.1H65.7h-.1"/><path class="ast4" d="M67.9 21.5l8.2-1.8c.1.1.3.2.4.3l.4.4c.1.1.3.3.4.5.2.2.3.4.5.6l-8.2 1.8c-.2-.2-.3-.4-.5-.6-.2-.2-.3-.3-.4-.5l-.4-.4c-.1-.1-.2-.2-.4-.3"/><path class="ast5" d="M69.6 23.3l8.2-1.8-8.1 1.8h-.1"/></g></g><g class="ast0"><defs><path id="aSVGID_27_" class="ast0" d="M93.3 59.3l-8.1 2c.2 0 .3-.1.5-.1.1-.1.3-.1.4-.2.1-.1.3-.1.4-.2.1-.1.3-.2.4-.3.1-.1.4-.3.6-.6.3-.3.6-.6.9-1 .3-.4.5-.9.7-1.4.2-.5.2-1.1.1-1.7l8.1-2c.1.6.1 1.1-.1 1.7-.2.5-.4 1-.7 1.4-.3.4-.6.7-.9 1l-.6.6c-.1.1-.3.2-.4.3-.1.1-.3.2-.4.2-.1.1-.3.1-.4.2-.2 0-.4.1-.5.1z"/></defs><clipPath id="aSVGID_28_"><use xlink:href="#aSVGID_27_" overflow="visible"/></clipPath><g class="ast20"><path class="ast8" d="M89.2 55.9l8.1-2c0 .1 0 .2.1.4s0 .2 0 .4v.3c0 .1 0 .2-.1.3l-8.1 2c0-.1 0-.2.1-.3v-.3-.4c-.1-.2-.1-.3-.1-.4"/><path class="ast9" d="M89.2 57.3l8.1-2c0 .1 0 .2-.1.2 0 .1-.1.2-.1.2 0 .1-.1.2-.1.2 0 .1-.1.1-.1.2l-8.1 2c0-.1.1-.1.1-.2s.1-.1.1-.2.1-.2.1-.2c0-.1 0-.1.1-.2"/><path class="ast5" d="M88.8 58.2l8.1-2c-.1.1-.1.2-.2.3-.1.1-.1.2-.2.3-.1.1-.1.2-.2.3-.1.1-.1.2-.2.3l-8.1 2c.1-.1.1-.2.2-.3.1-.1.1-.2.2-.3.1-.1.1-.2.2-.3.1-.1.2-.2.2-.3"/><path class="ast4" d="M88.1 59.3l8.1-2c-.1.1-.2.3-.4.4l-.3.3c-.1.1-.2.2-.3.2-.1.1-.2.1-.2.2l-.1.1-.1.1s-.1 0-.1.1c0 0-.1 0-.1.1l-8.1 2s.1 0 .1-.1c0 0 .1 0 .1-.1l.1-.1.1-.1c.1 0 .1-.1.2-.2s.2-.2.3-.2l.3-.3.4-.4"/><path class="ast2" d="M86.4 60.8l8.1-2c-.1.1-.2.1-.3.2-.1.1-.2.1-.3.2-.1 0-.2.1-.3.1-.1 0-.2.1-.3.1l-8.1 2c.1 0 .2-.1.3-.1.1 0 .2-.1.3-.1.1 0 .2-.1.3-.2.1-.1.2-.2.3-.2"/></g></g><g class="ast0"><defs><path id="aSVGID_29_" class="ast0" d="M87.3 53.1l8.1-2c.1.1.3.2.5.4l.6.6c.2.2.4.5.5.8.2.3.3.6.3 1l-8.1 2c-.1-.4-.2-.7-.3-1-.2-.3-.3-.6-.5-.8l-.6-.6c-.2-.1-.4-.3-.5-.4z"/></defs><clipPath id="aSVGID_30_"><use xlink:href="#aSVGID_29_" overflow="visible"/></clipPath><g class="ast21"><path class="ast2" d="M87.3 53.1l8.1-2h.1l.1.1.1.1s.1 0 .1.1l-8.1 2s-.1 0-.1-.1l-.1-.1c-.1 0-.1 0-.2-.1 0 .1 0 0 0 0"/><path class="ast4" d="M87.6 53.4l8.1-2 .2.2.2.2.2.2c.1.1.1.2.2.2l-8.1 2c-.1-.1-.1-.2-.2-.3-.1-.1-.1-.2-.2-.2l-.2-.2c-.1 0-.2-.1-.2-.1"/><path class="ast5" d="M88.4 54.2l8.1-2 .1.1s.1.1.1.2.1.1.1.2.1.1.1.2l-8.1 2c0-.1-.1-.1-.1-.2s-.1-.1-.1-.2-.1-.1-.1-.2l-.1-.1"/><path class="ast9" d="M88.8 54.8l8.1-2 .1.1c0 .1 0 .1.1.2 0 .1 0 .1.1.2 0 .1 0 .1.1.2l-8.1 2c0-.1 0-.1-.1-.2 0-.1 0-.1-.1-.2 0-.1 0-.1-.1-.2 0 0-.1 0-.1-.1"/><path class="ast8" d="M89.1 55.5l8.1-2v.4l-8.1 2v-.1-.1-.1-.1"/></g></g><g class="ast0"><defs><path id="aSVGID_31_" class="ast0" d="M69.7 23.3l8.2-1.8h.7c.1 0 .3 0 .5.1.2 0 .4.1.6.1.6.1 1.3.4 2.1.7.8.3 1.7.8 2.6 1.4.9.6 1.9 1.3 2.9 2.3 1 .9 2 2.1 2.9 3.4 1.6 2.3 2.8 4.8 3.6 7.2.8 2.4 1.3 4.7 1.6 6.8.3 2.1.3 3.9.3 5.2 0 1.3-.1 2.2-.1 2.4l-8.1 2c0-.2.1-1.1.1-2.4 0-1.3-.1-3.2-.3-5.2-.3-2.1-.8-4.4-1.6-6.8-.8-2.4-2-4.9-3.6-7.2-1-1.4-1.9-2.5-2.9-3.5-1-.9-2-1.7-2.9-2.3-.9-.6-1.8-1-2.6-1.4-.8-.3-1.5-.6-2.1-.7-.2-.1-.4-.1-.6-.1-.2 0-.3-.1-.5-.1h-.4c-.3-.1-.4-.1-.4-.1z"/></defs><clipPath id="aSVGID_32_"><use xlink:href="#aSVGID_31_" overflow="visible"/></clipPath><g class="ast22"><path class="ast2" d="M69.7 23.3l8.2-1.8h.7c.1 0 .3 0 .5.1.2 0 .4.1.6.1.4.1.8.2 1.3.4s1 .4 1.6.6c.6.3 1.1.6 1.7 1 .6.4 1.2.8 1.9 1.3L78 26.8c-.6-.5-1.3-1-1.9-1.4-.6-.4-1.2-.7-1.7-1-.6-.3-1.1-.5-1.6-.6-.5-.2-.9-.3-1.3-.4-.2-.1-.4-.1-.6-.1-.2 0-.3-.1-.5-.1H70c-.2.1-.3.1-.3.1"/><path class="ast4" d="M77.8 26.9l8.2-1.8c.3.2.5.4.8.7.3.2.5.5.8.8l.8.8c.3.3.5.6.8.9L81 30.2c-.3-.3-.5-.6-.8-.9-.3-.3-.5-.6-.8-.8l-.8-.8c-.2-.3-.5-.6-.8-.8"/><path class="ast5" d="M80.9 30.1l8.2-1.9c.1.1.2.2.2.3.1.1.2.2.2.3.1.1.2.2.2.3.1.1.2.2.2.3.1.2.3.4.4.6.1.2.3.4.4.6.1.2.2.4.4.6l.3.6-8.2 1.9-.3-.6c-.1-.2-.2-.4-.4-.6-.1-.2-.3-.4-.4-.6-.1-.2-.3-.4-.4-.6-.1-.1-.2-.2-.2-.3-.1-.1-.2-.2-.2-.3-.1-.1-.2-.2-.2-.3 0-.1-.1-.2-.2-.3"/><path class="ast9" d="M83.4 33.9l8.2-1.9c.2.4.4.8.6 1.3.2.4.4.8.6 1.3.2.4.3.8.5 1.3.2.4.3.8.4 1.3l-8.2 1.9c-.1-.4-.3-.8-.4-1.3-.2-.4-.3-.8-.5-1.3-.2-.4-.4-.8-.6-1.3-.1-.5-.4-.9-.6-1.3"/><path class="ast8" d="M85.6 38.9l8.2-1.9c.6 1.8 1 3.5 1.3 5.1.3 1.6.4 3.1.5 4.4.1 1.3.1 2.4 0 3.2 0 .8-.1 1.3-.1 1.5l-8.1 2c0-.2.1-.7.1-1.5v-3.2c-.1-1.3-.2-2.8-.5-4.4-.4-1.7-.8-3.4-1.4-5.2"/></g></g><path class="ast12" d="M89.2 55.9c.1.6.1 1.2-.1 1.7s-.4 1-.7 1.4c-.3.4-.6.7-.9 1l-.6.6c-.4.3-.7.5-1.1.7-.4.2-.8.3-1.2.3h-1.3c-.4 0-.9-.1-1.3-.2-.8-.2-1.6-.5-2.4-.9-.8-.4-1.5-.8-2.2-1.3-.7-.4-1.3-.9-1.7-1.2-.5-.4-.9-.7-1.1-.9-.3-.7-.7-1.5-1.1-2.3-.4-.8-.8-1.6-1.3-2.4-.5-.8-1-1.7-1.5-2.5-.5-.9-1.1-1.7-1.7-2.6-.6-.9-1.2-1.7-1.7-2.5-.6-.8-1.1-1.5-1.7-2.2-.5-.7-1.1-1.3-1.6-1.9-.5-.6-1-1.2-1.5-1.7-.3-2.7-.4-5.1-.4-7.3s.2-4.1.5-5.7c.3-1.6.7-2.9 1.2-3.8.5-.9 1.1-1.5 1.8-1.6h.7c.2 0 .4.1.6.2.2.1.5.3.8.5.3.2.6.5.9.8.3.3.7.7 1.1 1.2h.7c.1 0 .3 0 .5.1.2 0 .4.1.6.1.6.1 1.3.4 2.1.7.8.3 1.7.8 2.6 1.4.8.6 1.8 1.4 2.8 2.3 1 .9 2 2.1 2.9 3.5 1.6 2.3 2.8 4.8 3.6 7.2.8 2.4 1.3 4.8 1.6 6.8.3 2.1.3 3.9.3 5.2 0 1.3-.1 2.2-.1 2.4.1.1.3.2.5.4l.6.6c.2.2.4.5.5.8.1.4.2.7.3 1.1z"/></g><path class="ast23" d="M1.1.2h112v112H1.1z"/></svg><svg id="3DCharacters" viewBox="-1 -1 114 114" width="114" height="114" x="342" y="114"><style>.bst0,.bst1,.bst2{fill-rule:evenodd;clip-rule:evenodd;fill:#dfdcd0}.bst1,.bst2{fill:#a9a79e}.bst2{fill:#cecbc0}.bst3,.bst4{enable-background:new}.bst4{clip-path:url(#bSVGID_2_)}.bst5{fill:#79818e}.bst6{fill:#757d89}.bst7{fill:#717884}.bst8{fill:#6d747f}.bst9{fill:#69707b}.bst10{clip-path:url(#bSVGID_4_);enable-background:new}.bst11{fill:#88919f}.bst12{clip-path:url(#bSVGID_6_);enable-background:new}.bst13{fill:#87919f}.bst14,.bst15,.bst16{clip-path:url(#bSVGID_8_);enable-background:new}.bst15,.bst16{clip-path:url(#bSVGID_10_)}.bst16{clip-path:url(#bSVGID_12_)}.bst17{fill:#666d78}.bst18{fill:#87909e}.bst19,.bst20{clip-path:url(#bSVGID_14_);enable-background:new}.bst20{clip-path:url(#bSVGID_16_)}.bst21{fill:#86909e}.bst22{clip-path:url(#bSVGID_18_);enable-background:new}.bst23{fill:#c2d0e4}.bst24,.bst25{clip-path:url(#bSVGID_20_);enable-background:new}.bst25{clip-path:url(#bSVGID_22_)}.bst26{fill:none}</style><path class="bst0" d="M19 84.3l33.2 19.2v6.6L19 90.9z"/><path class="bst1" d="M85.5 84.3l-33.3 19.2v6.6l33.3-19.2z"/><path class="bst2" d="M52.2 65.1l33.3 19.2-33.3 19.2L19 84.3z"/><g><g class="bst3"><g class="bst3"><defs><path id="bSVGID_1_" class="bst3" d="M53.6 85L48 86.5c.3-.1.5-.2.7-.4l.6-.6c.2-.2.3-.5.4-.9.1-.3.1-.7.1-1.1l5.5-1.4c0 .4 0 .7-.1 1.1-.1.3-.2.6-.4.9-.2.2-.4.5-.6.6-.1.1-.4.3-.6.3z"/></defs><clipPath id="bSVGID_2_"><use xlink:href="#bSVGID_1_" overflow="visible"/></clipPath><g class="bst4"><path class="bst5" d="M49.9 83.6l5.5-1.4v.8l-5.5 1.4v-.2-.2-.2-.2"/><path class="bst6" d="M49.8 84.5l5.5-1.4v.2c0 .1 0 .1-.1.2 0 .1 0 .1-.1.2 0 .1-.1.1-.1.2l-5.5 1.5c0-.1.1-.1.1-.2s0-.1.1-.2 0-.1.1-.2c-.1-.2 0-.2 0-.3"/><path class="bst7" d="M49.5 85.2l5.5-1.5c0 .1-.1.1-.1.1l-.1.1-.1.1-.1.1-5.5 1.5.1-.1.1-.1.1-.1c.1 0 .1 0 .1-.1"/><path class="bst8" d="M49.2 85.8l5.5-1.5-.1.1-.1.1-.1.1-.1.1-5.5 1.5c.1 0 .1-.1.1-.1l.1-.1.1-.1s0-.1.1-.1"/><path class="bst9" d="M48.6 86.3l5.5-1.5-.1.1s-.1 0-.1.1c0 0-.1 0-.1.1h-.2L48 86.5h.2s.1 0 .1-.1c0 0 .1 0 .1-.1s.2 0 .2 0"/></g></g><g class="bst3"><defs><path id="bSVGID_3_" class="bst3" d="M46.7 48c-1.9.4-3.7.9-5.6 1.3l.6-.3c.2-.1.4-.3.5-.5.1-.2.2-.5.3-.7.1-.3.1-.6.1-.9l5.6-1.3c0 .3 0 .6-.1.9-.1.3-.2.5-.3.7-.1.2-.3.4-.5.5l-.6.3z"/></defs><clipPath id="bSVGID_4_"><use xlink:href="#bSVGID_3_" overflow="visible"/></clipPath><g class="bst10"><path class="bst5" d="M42.7 46.9l5.6-1.3v.8l-5.6 1.3v-.2-.2-.2-.2"/><path class="bst6" d="M42.6 47.6l5.6-1.3v.4c0 .1 0 .1-.1.1 0 0 0 .1-.1.1l-5.6 1.3s0-.1.1-.1 0-.1.1-.1 0-.1 0-.2v-.2"/><path class="bst7" d="M42.4 48.2l5.6-1.3s0 .1-.1.1c0 0 0 .1-.1.1 0 0 0 .1-.1.1l-.1.1-5.6 1.3.1-.1.1-.1s0-.1.1-.1c0 0 .1 0 .1-.1"/><path class="bst8" d="M42.1 48.7l5.6-1.3-.1.1-.1.1-.1.1-.1.1-5.6 1.3.1-.1.1-.1.1-.1.1-.1"/><path class="bst9" d="M41.7 49.1l5.6-1.3-.1.1s-.1 0-.1.1-.1 0-.1.1h-.1l-5.6 1.3h.1s.1 0 .1-.1c0 0 .1 0 .1-.1s0-.1.1-.1"/></g></g><path class="bst11" d="M42.6 31.7l5.6-1.2v15.1l-5.5 1.3z"/><g class="bst3"><defs><path id="bSVGID_5_" class="bst3" d="M42.8 31.4l5.6-1.3h-.1s-.1 0-.1.1v.2l-5.6 1.3v-.1-.1c.1 0 .1 0 .2-.1-.1 0 0 0 0 0z"/></defs><clipPath id="bSVGID_6_"><use xlink:href="#bSVGID_5_" overflow="visible"/></clipPath><g class="bst12"><path class="bst9" d="M42.8 31.4l5.6-1.3-5.6 1.3c-.1 0-.1 0 0 0-.1 0 0 0 0 0"/><path class="bst8" d="M42.7 31.4l5.6-1.3-5.6 1.3c0 .1 0 .1 0 0 0 .1 0 .1 0 0 0 .1 0 .1 0 0"/><path class="bst7" d="M42.7 31.5l5.6-1.3-5.6 1.3c-.1.1-.1.1 0 0-.1 0-.1 0 0 0-.1 0-.1 0 0 0"/><path class="bst6" d="M42.6 31.6l5.6-1.3-5.6 1.3"/><path class="bst5" d="M42.6 31.6l5.6-1.3-5.6 1.3c0 .1 0 .1 0 0 0 .1 0 .1 0 0 0 .1 0 .1 0 0 0 .1 0 .1 0 0"/></g></g><path class="bst13" d="M49.8 56.3l5.5-1.4.1 27.2-5.5 1.5z"/><g class="bst3"><defs><path id="bSVGID_7_" class="bst3" d="M50.1 55.7l5.6-1.4c-.1 0-.1 0-.2.1l-.1.1c0 .1-.1.1-.1.2v.2l-5.6 1.4v-.2c0-.1 0-.1.1-.2 0-.1.1-.1.1-.1.1-.1.2-.1.2-.1z"/></defs><clipPath id="bSVGID_8_"><use xlink:href="#bSVGID_7_" overflow="visible"/></clipPath><g class="bst14"><path class="bst9" d="M50.1 55.7l5.6-1.4-5.7 1.5.1-.1"/><path class="bst8" d="M50 55.8l5.6-1.4-5.6 1.4c-.1 0-.1 0 0 0-.1 0-.1 0 0 0"/><path class="bst7" d="M49.9 55.9l5.6-1.4-5.7 1.5s0-.1.1-.1"/><path class="bst6" d="M49.8 56l5.6-1.4-5.6 1.4c0 .1 0 .1 0 0"/><path class="bst5" d="M49.8 56.1l5.6-1.4-5.6 1.4c0 .1 0 .1 0 0 0 .1 0 .1 0 0"/></g></g><g class="bst3"><defs><path id="bSVGID_9_" class="bst3" d="M61.2 87.3c-1.8.5-3.7 1-5.5 1.5.3-.1.5-.2.7-.4l.6-.6c.2-.3.3-.5.4-.9.1-.3.1-.7.1-1.1l5.5-1.5c0 .4 0 .7-.1 1.1-.1.3-.2.6-.4.9-.2.2-.4.5-.6.6-.1.2-.4.3-.7.4z"/></defs><clipPath id="bSVGID_10_"><use xlink:href="#bSVGID_9_" overflow="visible"/></clipPath><g class="bst15"><path class="bst5" d="M57.5 85.8l5.5-1.5v.8l-5.5 1.5v-.2-.2-.2-.2"/><path class="bst6" d="M57.4 86.8l5.5-1.5c0 .1 0 .1-.1.2 0 .1 0 .1-.1.2 0 .1 0 .1-.1.2 0 .1-.1.1-.1.2L57 87.6c0-.1.1-.1.1-.2s0-.1.1-.2c0-.1 0-.1.1-.2s.1-.2.1-.2"/><path class="bst7" d="M57.2 87.5l5.5-1.5c0 .1-.1.1-.1.2s-.1.1-.1.1l-.1.1-.1.1-5.5 1.5.1-.1.1-.1.1-.1.1-.2"/><path class="bst8" d="M56.8 88l5.5-1.5-.1.1-.1.1-.1.1-.1.1-5.5 1.5c.1 0 .1-.1.1-.1l.1-.1.1-.1s.1 0 .1-.1"/><path class="bst9" d="M56.3 88.5l5.5-1.5-.1.1s-.1 0-.1.1c0 0-.1 0-.1.1h-.1l-5.5 1.5h.1s.1 0 .1-.1c0 0 .1 0 .1-.1s0-.1.1-.1"/></g></g><g class="bst3"><defs><path id="bSVGID_11_" class="bst3" d="M42.7 22.4l5.6-1.3c.2-.1.5-.1.7-.1h.8c.3 0 .5 0 .8.1.3 0 .5.1.8.2l-5.6 1.3c-.3-.1-.5-.1-.8-.2-.3 0-.5-.1-.8-.1h-.8c-.2 0-.4 0-.7.1z"/></defs><clipPath id="bSVGID_12_"><use xlink:href="#bSVGID_11_" overflow="visible"/></clipPath><g class="bst16"><path class="bst9" d="M42.7 22.4l5.6-1.3c.2-.1.5-.1.7-.1h.8c.3 0 .5 0 .8.1.3 0 .5.1.8.2l-5.6 1.3c-.3-.1-.5-.1-.8-.2-.3 0-.5-.1-.8-.1h-.8c-.2 0-.4 0-.7.1"/></g></g><path class="bst17" d="M45.8 22.4l5.6-1.2 4.5 1.1-5.6 1.3z"/><path class="bst17" d="M50.3 23.6l5.6-1.3 4.5 1.1-5.6 1.3z"/><path class="bst18" d="M57.4 35.6l5.6-1.3.1 50.1-5.6 1.4z"/><g class="bst3"><defs><path id="bSVGID_13_" class="bst3" d="M57.6 35.3l5.6-1.3h-.1s-.1 0-.1.1v.2l-5.6 1.3v-.1-.1s.1-.1.2-.1z"/></defs><clipPath id="bSVGID_14_"><use xlink:href="#bSVGID_13_" overflow="visible"/></clipPath><g class="bst19"><path class="bst9" d="M57.6 35.3l5.6-1.3-5.6 1.3"/><path class="bst8" d="M57.6 35.3l5.6-1.3-5.6 1.3c-.1.1-.1 0 0 0-.1 0-.1 0 0 0-.1 0-.1 0 0 0-.1 0-.1 0 0 0"/><path class="bst7" d="M57.5 35.4l5.6-1.3-5.6 1.3c-.1 0 0 0 0 0"/><path class="bst6" d="M57.4 35.4l5.6-1.3-5.6 1.3c0 .1 0 .1 0 0 0 .1 0 .1 0 0 0 .1 0 .1 0 0"/><path class="bst5" d="M57.4 35.5l5.6-1.3-5.6 1.3c0 .1 0 .1 0 0 0 .1 0 .1 0 0 0 .1 0 0 0 0"/></g></g><g class="bst3"><defs><path id="bSVGID_15_" class="bst3" d="M67.4 53.6L61.8 55l.6-.3c.2-.1.4-.3.5-.5.1-.2.2-.5.3-.7.1-.3.1-.6.1-.9l5.6-1.4c0 .3 0 .6-.1.9-.1.3-.2.5-.3.7-.1.2-.3.4-.5.5-.1.1-.4.2-.6.3z"/></defs><clipPath id="bSVGID_16_"><use xlink:href="#bSVGID_15_" overflow="visible"/></clipPath><g class="bst20"><path class="bst5" d="M63.4 52.5l5.6-1.4v.8l-5.6 1.4v-.2-.2-.2-.2"/><path class="bst6" d="M63.3 53.3l5.6-1.4v.4c0 .1 0 .1-.1.1 0 0 0 .1-.1.1l-5.6 1.4s0-.1.1-.1c0 0 0-.1.1-.1v-.2-.2"/><path class="bst7" d="M63.1 53.9l5.6-1.4s0 .1-.1.1 0 .1-.1.1l-.1.1-.1.1-5.6 1.4.1-.1.1-.1s0-.1.1-.1.1-.1.1-.1"/><path class="bst8" d="M62.8 54.3l5.6-1.4-.1.1-.1.1-.1.1-.1.1-5.6 1.4.1-.1.1-.1.1-.1c.1 0 .1 0 .1-.1"/><path class="bst9" d="M62.4 54.7l5.6-1.4-.1.1s-.1 0-.1.1c0 0-.1 0-.1.1h-.1L61.8 55h.1s.1 0 .1-.1c0 0 .1 0 .1-.1s.2 0 .3-.1"/></g></g><path class="bst21" d="M63.4 37.3l5.6-1.4v15.3l-5.6 1.3z"/><g class="bst3"><defs><path id="bSVGID_17_" class="bst3" d="M54.8 24.7l5.6-1.3c1.2.3 2.3.9 3.3 1.7 1 .8 2 1.8 2.7 2.9.8 1.1 1.4 2.4 1.9 3.8.4 1.3.7 2.8.7 4.2l-5.6 1.3c0-1.4-.2-2.9-.7-4.2-.4-1.4-1.1-2.6-1.9-3.8-.8-1.1-1.7-2.1-2.7-2.9-1-.8-2.2-1.4-3.3-1.7z"/></defs><clipPath id="bSVGID_18_"><use xlink:href="#bSVGID_17_" overflow="visible"/></clipPath><g class="bst22"><path class="bst9" d="M54.8 24.7l5.6-1.3c.3.1.7.2 1 .3.3.1.7.3 1 .4l.9.6c.3.2.6.4.9.7l-5.6 1.3c-.3-.2-.6-.5-.9-.7l-.9-.6c-.3-.2-.6-.3-1-.4-.4-.1-.7-.2-1-.3"/><path class="bst8" d="M58.5 26.7l5.6-1.3c.2.1.3.3.5.4.2.1.3.3.5.5s.3.3.4.5c.1.2.3.3.4.5l-5.6 1.3c-.1-.2-.3-.3-.4-.5-.1-.2-.3-.3-.4-.5l-.5-.5c-.1-.1-.3-.3-.5-.4"/><path class="bst7" d="M60.4 28.6l5.6-1.3c.1.2.2.3.4.5.1.2.2.3.3.5.1.2.2.3.3.5.1.2.2.3.3.5l-5.6 1.3c-.1-.2-.2-.4-.3-.5-.1-.2-.2-.3-.3-.5-.1-.2-.2-.3-.3-.5-.2-.2-.3-.3-.4-.5"/><path class="bst6" d="M61.7 30.6l5.6-1.3.3.6.3.6c.1.2.2.4.2.6.1.2.2.4.2.6L62.7 33c-.1-.2-.1-.4-.2-.6-.1-.2-.2-.4-.2-.6l-.3-.6-.3-.6"/><path class="bst5" d="M62.7 33l5.6-1.3c.1.3.2.7.3 1 .1.3.2.7.2 1.1.1.4.1.7.1 1.1V36l-5.6 1.3v-1.1c0-.4-.1-.7-.1-1.1-.1-.4-.1-.7-.2-1.1-.1-.3-.2-.6-.3-1"/></g></g><path class="bst23" d="M54.8 24.7c1.2.3 2.3.9 3.3 1.7 1 .8 2 1.8 2.7 2.9.8 1.1 1.4 2.4 1.9 3.8.4 1.4.7 2.8.7 4.2v15.3c0 .4-.1.8-.2 1.2-.1.3-.3.6-.6.8-.2.2-.5.4-.8.4-.3.1-.7.1-1 0-.4-.1-.7-.3-1-.5-.3-.2-.6-.5-.8-.9-.2-.3-.4-.7-.6-1.1-.1-.4-.2-.8-.2-1.3V35.9v-.2c0-.1 0-.1-.1-.2l-.1-.1-.1-.1h-.1s-.1 0-.1.1-.1.1-.1.1v.2l.1 50.2c0 .5-.1 1-.2 1.4-.2.4-.4.8-.7 1-.3.3-.6.4-1 .5-.4.1-.8.1-1.2-.1-.4-.1-.9-.4-1.2-.7-.4-.3-.7-.7-1-1.1-.3-.4-.5-.9-.7-1.4-.2-.5-.3-1-.3-1.6l-.1-27.3c0-.1 0-.2-.1-.3 0-.1-.1-.2-.1-.3-.1-.1-.1-.2-.2-.2-.1-.1-.2-.1-.3-.1h-.2c-.1 0-.1.1-.2.1-.1.1-.1.1-.1.2v.3l.1 27.3c0 .5-.1 1-.2 1.4-.2.4-.4.7-.7 1-.3.3-.6.4-1 .5-.4.1-.8.1-1.2-.1-.4-.1-.8-.4-1.2-.7-.4-.3-.7-.7-1-1.1-.3-.4-.5-.9-.7-1.4-.2-.5-.3-1-.3-1.5l-.2-49.8v-.2c0-.1 0-.1-.1-.2l-.1-.1-.1-.1h-.1s-.1 0-.1.1l-.1.1v.2l.1 15.2c0 .4-.1.8-.2 1.2-.1.3-.3.6-.5.8-.2.2-.5.4-.8.4-.3.1-.6.1-1 0s-.7-.3-1-.5c-.3-.2-.6-.5-.8-.9-.2-.3-.4-.7-.6-1.1-.1-.4-.2-.8-.2-1.3l-.1-15c0-1.4.2-2.7.6-3.8.4-1.1 1-2.1 1.8-2.8.8-.7 1.7-1.3 2.7-1.5 1-.3 2.1-.3 3.3 0l4.4 1.1 4 1.2z"/></g><g class="bst3"><g class="bst3"><defs><path id="bSVGID_19_" class="bst3" d="M48.4 4.5L54 3.2c.1 0 .3-.1.4-.1h1c.2 0 .3 0 .5.1l-5.6 1.2c-.2 0-.3-.1-.5-.1h-1c-.1.1-.3.1-.4.2z"/></defs><clipPath id="bSVGID_20_"><use xlink:href="#bSVGID_19_" overflow="visible"/></clipPath><g class="bst24"><path class="bst9" d="M48.4 4.5L54 3.2c.1 0 .3-.1.4-.1h1c.2 0 .3 0 .5.1l-5.6 1.2c-.2 0-.3-.1-.5-.1h-1c-.1.1-.3.1-.4.2"/></g></g><path class="bst23" d="M50.2 4.5c.7.2 1.4.5 2 1 .6.5 1.2 1.1 1.7 1.8s.9 1.5 1.1 2.3c.3.8.4 1.7.4 2.6 0 .9-.1 1.7-.4 2.4-.3.7-.6 1.3-1.1 1.7-.5.5-1 .8-1.7.9-.6.2-1.3.2-2 0s-1.4-.5-2-1c-.6-.5-1.2-1.1-1.7-1.8s-.9-1.5-1.1-2.3c-.3-.8-.4-1.7-.4-2.5 0-.9.1-1.7.4-2.4.3-.7.6-1.3 1.1-1.7.5-.5 1-.8 1.6-1 .7-.2 1.4-.2 2.1 0z"/><g class="bst3"><defs><path id="bSVGID_21_" class="bst3" d="M57.8 15.9c-1.9.4-3.7.8-5.6 1.3.5-.1.9-.3 1.3-.6s.8-.7 1-1.1c.3-.4.5-.9.7-1.5.2-.6.2-1.2.2-1.9 0-.9-.2-1.7-.4-2.6-.3-.8-.7-1.6-1.1-2.3-.5-.7-1-1.3-1.7-1.8-.6-.5-1.3-.8-2-1l5.6-1.2c.7.2 1.4.5 2 1 .7.5 1.2 1.1 1.7 1.8s.9 1.5 1.1 2.3c.3.8.4 1.7.4 2.6 0 .7-.1 1.3-.2 1.9-.2.6-.4 1.1-.7 1.5-.3.4-.6.8-1.1 1.1-.3.2-.8.4-1.2.5z"/></defs><clipPath id="bSVGID_22_"><use xlink:href="#bSVGID_21_" overflow="visible"/></clipPath><g class="bst25"><path class="bst9" d="M50.2 4.5l5.6-1.2c.2 0 .4.1.6.2l.6.3.6.3c.2.1.4.3.5.4l-5.6 1.2c-.2-.1-.4-.3-.5-.4l-.6-.3-.6-.3c-.2-.1-.4-.2-.6-.2"/><path class="bst8" d="M52.5 5.7l5.6-1.2.3.3.3.3.3.3.3.3-5.6 1.2-.3-.3-.3-.3c-.1-.2-.2-.3-.3-.3l-.3-.3"/><path class="bst7" d="M53.6 6.8l5.6-1.2c.1.1.1.2.2.3.1.1.1.2.2.3.1.1.1.2.2.3.1.1.2.2.2.3L54.4 8c-.1-.1-.1-.2-.2-.3-.1-.1-.1-.2-.2-.3-.1-.1-.1-.2-.2-.3 0-.1-.1-.2-.2-.3"/><path class="bst6" d="M54.4 8L60 6.8c.1.1.1.2.2.4.1.1.1.2.2.4.1.1.1.2.1.4 0 .1.1.3.1.4L55 9.5c0-.1-.1-.3-.1-.4 0-.1-.1-.2-.2-.4-.1-.1-.1-.2-.2-.4 0 0 0-.1-.1-.3"/><path class="bst5" d="M55 9.5l5.6-1.2c.1.2.1.4.2.6.1.2.1.4.1.6.1.3.1.5.1.7v1.9c0 .1 0 .2-.1.4l-5.6 1.2c0-.1 0-.2.1-.4v-.4-.4-.4-.7c0-.2 0-.4-.1-.7 0-.2-.1-.4-.1-.6s-.1-.4-.2-.6"/><path class="bst6" d="M55.3 13.6l5.6-1.2c0 .1-.1.2-.1.3 0 .1-.1.2-.1.3 0 .1-.1.2-.1.3 0 .1-.1.2-.1.3l-5.6 1.2c0-.1.1-.2.1-.3 0-.1.1-.2.1-.3 0-.1.1-.2.1-.3.1-.1.1-.2.1-.3"/><path class="bst7" d="M54.9 14.9l5.6-1.2c0 .1-.1.2-.1.3 0 .1-.1.2-.1.2 0 .1-.1.2-.2.2l-.2.2-5.6 1.2.2-.2c.1-.1.1-.2.2-.2 0-.1.1-.2.1-.2 0-.2 0-.3.1-.3"/><path class="bst8" d="M54.3 15.8l5.6-1.2c-.1.1-.1.2-.2.2l-.2.2c-.1.1-.2.1-.2.2-.1.1-.2.1-.2.2l-5.6 1.3c.1-.1.2-.1.2-.2.1-.1.2-.1.2-.2l.2-.2c.1-.1.1-.2.2-.3"/><path class="bst9" d="M53.4 16.6l5.6-1.3c-.1.1-.2.1-.3.2-.1.1-.2.1-.3.1-.1 0-.2.1-.3.1-.1 0-.2.1-.3.1l-5.6 1.3c.1 0 .2-.1.3-.1.1 0 .2-.1.3-.1.1 0 .2-.1.3-.1.1 0 .2-.1.3-.2"/></g></g></g></g><path class="bst26" d="M-.1.5h112v112H-.1z"/></svg><svg id="3DMonsterModeling" viewBox="-1 -1 114 114" width="114" height="114" y="114"><style>.cst0,.cst1{enable-background:new}.cst1{clip-path:url(#cSVGID_2_)}.cst2{fill:#636363}.cst3{fill:#676767}.cst4{fill:#6b6b6b}.cst5{fill:#6f6f6f}.cst6{fill:#737373}.cst7{clip-path:url(#cSVGID_4_);enable-background:new}.cst10,.cst11,.cst8,.cst9{clip-path:url(#cSVGID_6_);enable-background:new}.cst10,.cst11,.cst9{clip-path:url(#cSVGID_8_)}.cst10,.cst11{clip-path:url(#cSVGID_10_)}.cst11{clip-path:url(#cSVGID_12_)}.cst12,.cst13,.cst14,.cst15{clip-path:url(#cSVGID_14_);enable-background:new}.cst13,.cst14,.cst15{clip-path:url(#cSVGID_16_)}.cst14,.cst15{clip-path:url(#cSVGID_18_)}.cst15{clip-path:url(#cSVGID_20_)}.cst16{fill:#858585}.cst17{clip-path:url(#cSVGID_22_);enable-background:new}.cst18{fill:#8a8a8a}.cst19{fill:#8f8f8f}.cst20{fill:#949494}.cst21{fill:#999}.cst22,.cst23{clip-path:url(#cSVGID_24_);enable-background:new}.cst23{clip-path:url(#cSVGID_26_)}.cst24,.cst25,.cst26,.cst27{clip-path:url(#cSVGID_28_);enable-background:new}.cst25,.cst26,.cst27{clip-path:url(#cSVGID_30_)}.cst26,.cst27{clip-path:url(#cSVGID_32_)}.cst27{clip-path:url(#cSVGID_34_)}.cst28,.cst29,.cst30,.cst31{clip-path:url(#cSVGID_36_);enable-background:new}.cst29,.cst30,.cst31{clip-path:url(#cSVGID_38_)}.cst30,.cst31{clip-path:url(#cSVGID_40_)}.cst31{clip-path:url(#cSVGID_42_)}.cst32,.cst33,.cst34,.cst35{clip-path:url(#cSVGID_44_);enable-background:new}.cst33,.cst34,.cst35{clip-path:url(#cSVGID_46_)}.cst34,.cst35{clip-path:url(#cSVGID_48_)}.cst35{clip-path:url(#cSVGID_50_)}.cst36{fill:#b9b9b9}.cst37{fill:#f7f7f7}.cst38{clip-path:url(#cSVGID_52_);enable-background:new}.cst39{fill:none}</style><g class="cst0"><g class="cst0"><defs><path id="cSVGID_1_" class="cst0" d="M24.4 84.9l6.8-1.7c-.1 0-.2.1-.2.1-.1.1-.1.2-.2.2-.1.1-.1.2-.1.3 0 .1-.1.2-.1.3-.1.3-.1.5-.2.7v1.1c0 .2-.1.4-.1.6 0 .1-.1.2-.1.4 0 .1-.1.3-.2.4-.1.1-.2.3-.3.4-.1.1-.2.2-.4.2l-6.8 1.7c.1 0 .3-.1.4-.2.1-.1.2-.2.3-.4.1-.1.1-.3.2-.4 0-.1.1-.3.1-.4.1-.2.1-.4.1-.6v-.5-.6c0-.2.1-.4.2-.7 0-.1.1-.2.1-.3 0-.1.1-.2.1-.3.1-.1.1-.2.2-.2 0 0 .1-.1.2-.1z"/></defs><clipPath id="cSVGID_2_"><use xlink:href="#cSVGID_1_" overflow="visible"/></clipPath><g class="cst1"><path class="cst2" d="M24.4 84.9l6.8-1.7-6.9 1.8c0-.1 0-.1.1-.1-.1 0 0 0 0 0"/><path class="cst3" d="M24.3 85l6.8-1.7-6.8 1.7c-.1 0-.1 0 0 0-.1 0-.1 0 0 0-.1 0 0 0 0 0"/><path class="cst4" d="M24.1 85.1l6.8-1.7v.4L24 85.4v-.1-.1s.1 0 .1-.1"/><path class="cst5" d="M24 85.4l6.8-1.7s0 .1-.1.1c0 0 0 .1-.1.1s0 .1 0 .2v.6l-6.8 1.7v-.1-.1-.1-.1-.2-.2c0-.1 0-.1.1-.1 0-.1 0-.1.1-.1"/><path class="cst6" d="M23.7 86.3l6.8-1.7c0 .2-.1.3-.1.5v.8c0 .1 0 .3-.1.5l-6.8 1.7c0-.2.1-.3.1-.5v-.4-.4c0-.1 0-.3.1-.5"/><path class="cst5" d="M23.5 88.1l6.8-1.7v.5c0 .1 0 .1-.1.2 0 .1 0 .1-.1.2 0 .1 0 .1-.1.2l-6.8 1.7c0-.1.1-.1.1-.2s0-.1.1-.2c0-.1 0-.1.1-.2v-.1-.1-.1-.2c0 .1 0 .1 0 0"/><path class="cst4" d="M23.2 89.1l6.8-1.7s0 .1-.1.1c0 0 0 .1-.1.1 0 0 0 .1-.1.1 0 0 0 .1-.1.1l-6.8 1.7s0-.1.1-.1 0-.1.1-.1 0-.1.1-.1.1-.1.1-.1"/><path class="cst3" d="M22.9 89.4l6.8-1.7-.1.1-.1.1-.1.1h-.1l-6.8 1.7h.1l.1-.1c.1-.1.2-.1.2-.2 0 .1 0 .1 0 0"/><path class="cst2" d="M22.7 89.6l6.8-1.7h-.2-.1l-6.8 1.7h.2c0 .1 0 .1.1 0 0 .1 0 .1 0 0"/></g></g><g class="cst0"><defs><path id="cSVGID_3_" class="cst0" d="M29.6 86.3l6.8-1.7c-.3.1-.5.5-.6.9-.1.5-.2 1-.2 1.6-.1.6-.1 1.1-.2 1.6-.1.4-.3.8-.5.9l-6.8 1.7c.3-.1.4-.4.5-.9.1-.4.2-1 .2-1.6.1-.6.1-1.1.2-1.6s.3-.8.6-.9c-.1.1 0 .1 0 0 0 .1 0 .1 0 0 0 .1 0 .1 0 0 0 .1 0 .1 0 0z"/></defs><clipPath id="cSVGID_4_"><use xlink:href="#cSVGID_3_" overflow="visible"/></clipPath><g class="cst7"><path class="cst2" d="M29.6 86.3l6.8-1.7-6.8 1.7c-.1.1 0 .1 0 0 0 .1 0 .1 0 0 0 .1 0 .1 0 0 0 .1 0 .1 0 0"/><path class="cst3" d="M29.4 86.4l6.8-1.7H36v.1l-6.8 1.7v-.1s.2.1.2 0c0 .1 0 0 0 0"/><path class="cst4" d="M29.2 86.6l6.8-1.7v.4L29.2 87v-.1-.1-.2"/><path class="cst5" d="M29.1 86.9l6.8-1.7s0 .1-.1.1c0 .1 0 .1-.1.2v.4l-6.8 1.7v-.2-.2c0-.1 0-.1.1-.2l.1-.1"/><path class="cst6" d="M28.9 87.5l6.8-1.7c0 .2-.1.5-.1.7 0 .2-.1.5-.1.7 0 .3 0 .5-.1.7 0 .2-.1.5-.1.7l-6.8 1.7c0-.2.1-.4.1-.7 0-.2.1-.5.1-.7 0-.3 0-.5.1-.8 0-.1 0-.4.1-.6"/><path class="cst5" d="M28.5 90.4l6.8-1.7v.4s0 .1-.1.1l-6.8 1.7s0-.1.1-.1 0-.1 0-.1v-.1-.2"/><path class="cst4" d="M28.3 90.9l6.8-1.7V89.5c0 .1 0 0 0 0l-6.8 1.7v-.1-.2c0 .1 0 .1 0 0"/><path class="cst3" d="M28.2 91.2l6.8-1.7-6.8 1.7c-.1.1-.1 0 0 0"/><path class="cst2" d="M28.1 91.3l6.8-1.7-6.8 1.7c-.1 0-.1 0 0 0-.1 0-.1 0 0 0-.1 0-.1 0 0 0-.1 0 0 0 0 0"/></g></g><g class="cst0"><defs><path id="cSVGID_5_" class="cst0" d="M40.6 90.2L33.8 92h.1s.1 0 .1-.1.1-.1.1-.1l.1-.1.3-.6c.1-.2.1-.5.1-.8 0-.3-.1-.6-.1-1-.1-.3-.2-.7-.4-1l6.9-1.7c.2.3.3.7.4 1 .1.3.1.6.1.9 0 .3 0 .6-.1.8-.1.2-.1.4-.3.6l-.1.1-.1.1s-.1 0-.1.1h-.2z"/></defs><clipPath id="cSVGID_6_"><use xlink:href="#cSVGID_5_" overflow="visible"/></clipPath><g class="cst8"><path class="cst5" d="M34.1 88.3l6.9-1.7c0 .1.1.1.1.2s0 .1.1.2c0 .1 0 .1.1.2 0 .1 0 .1.1.2L34.3 89c0-.1 0-.1-.1-.2 0-.1 0-.1-.1-.2 0-.1 0-.1-.1-.2.1 0 .1 0 .1-.1"/><path class="cst6" d="M34.3 89l6.8-1.7c.1.2.1.4.1.6 0 .2.1.4.1.5v.5c0 .2 0 .3-.1.4L34.4 91c0-.1 0-.3.1-.4s0-.3 0-.5 0-.4-.1-.5c0-.2 0-.4-.1-.6"/><path class="cst5" d="M34.5 91.1l6.8-1.7v.4l-6.8 1.7v-.1-.1-.1-.1"/><path class="cst4" d="M34.4 91.5l6.8-1.7V90.1c0 .1 0 0 0 0l-6.8 1.7v-.1c0-.1-.1-.2 0-.2"/><path class="cst3" d="M34.2 91.7L41 90v.1h-.1-.1-.1L34 91.9h.2c-.1-.1 0-.1 0-.2"/><path class="cst2" d="M34 91.9l6.8-1.7h-.1-.1-.1-.1L33.8 92h.2c-.1-.1-.1-.1 0-.1"/></g></g><g class="cst0"><defs><path id="cSVGID_7_" class="cst0" d="M30.8 59l6.9-1.6c-.1.3-.2.5-.3.9-.1.3-.2.7-.3 1.1-.1.4-.2.8-.3 1.3-.1.5-.2 1-.2 1.5-.1.8-.1 1.6-.1 2.5 0 .9.1 1.8.3 2.8.2 1.1.4 2.3.7 3.7.3 1.5.7 3.2 1.1 5.2.2 1 .4 2 .7 2.9l.6 2.7c.2.9.4 1.7.6 2.4.2.8.4 1.5.5 2.2l-6.9 1.7c-.2-.7-.3-1.4-.5-2.2l-.6-2.4c-.2-.9-.4-1.7-.6-2.7-.2-.9-.4-1.9-.7-2.9-.5-2-.8-3.7-1.2-5.2-.3-1.5-.5-2.7-.7-3.8-.2-1.1-.3-2-.3-2.9 0-.9 0-1.7.1-2.5.1-.5.1-1.1.2-1.5.1-.5.2-.9.3-1.3.1-.4.2-.8.3-1.1.2-.3.3-.6.4-.8z"/></defs><clipPath id="cSVGID_8_"><use xlink:href="#cSVGID_7_" overflow="visible"/></clipPath><g class="cst9"><path class="cst5" d="M30.8 59l6.9-1.6c-.1.2-.1.4-.2.6-.1.2-.2.4-.2.7-.1.2-.2.5-.2.8-.1.3-.1.6-.2.9L30 62c.1-.3.1-.6.2-.9.1-.3.1-.5.2-.8.1-.2.2-.5.2-.7.1-.3.2-.4.2-.6"/><path class="cst6" d="M29.9 61.9l6.9-1.6c0 .1-.1.3-.1.4 0 .1-.1.3-.1.5s0 .3-.1.5c0 .2 0 .3-.1.5-.1.8-.1 1.6-.1 2.5 0 .9.1 1.8.3 2.8.2 1.1.4 2.3.7 3.7.3 1.5.7 3.2 1.1 5.2.2 1 .4 2 .7 2.9l.6 2.7c.2.9.4 1.7.6 2.4.2.8.4 1.5.5 2.2l-6.9 1.7c-.2-.7-.3-1.4-.5-2.2l-.6-2.4c-.2-.9-.4-1.7-.6-2.7-.2-.9-.4-1.9-.7-2.9-.5-2-.8-3.7-1.2-5.2-.3-1.5-.5-2.7-.7-3.8-.2-1.1-.3-2-.3-2.9 0-.9 0-1.7.1-2.5 0-.2 0-.3.1-.5 0-.2 0-.3.1-.5 0-.2.1-.3.1-.5.2 0 .2-.1.2-.3"/></g></g><g class="cst0"><defs><path id="cSVGID_9_" class="cst0" d="M33.1 57.5l6.9-1.6-.9.3c-.3.1-.5.3-.7.5-.2.2-.4.3-.5.4-.1.1-.2.2-.2.3L30.8 59s.1-.1.2-.3c.1-.1.3-.3.5-.4.2-.2.4-.3.7-.5.2-.1.5-.2.9-.3z"/></defs><clipPath id="cSVGID_10_"><use xlink:href="#cSVGID_9_" overflow="visible"/></clipPath><g class="cst10"><path class="cst2" d="M33.1 57.5l6.9-1.6c-.1 0-.2.1-.3.1-.1 0-.2.1-.3.1-.1 0-.2.1-.3.1-.1 0-.2.1-.3.2L31.9 58c.1-.1.2-.1.3-.2.1-.1.2-.1.3-.1.1 0 .2-.1.3-.1 0-.1.1-.1.3-.1"/><path class="cst3" d="M31.9 58l6.9-1.6c-.1.1-.3.2-.4.3l-.3.3-.2.2c-.1.1-.1.1-.1.2l-7 1.6s.1-.1.1-.2l.2-.2.3-.3c.2-.1.4-.2.5-.3"/><path class="cst4" d="M30.8 59l6.9-1.7v.1L30.8 59"/></g></g><g class="cst0"><defs><path id="cSVGID_11_" class="cst0" d="M47.1 90.1l6.9-1.8c0 .2.1.5.2.8.1.3.1.6.2 1s.2.7.3 1.1c.1.4.2.8.4 1.2.3.7.5 1.3.7 1.9.2.5.5 1 .7 1.5.2.5.4.9.6 1.4.2.5.4 1.1.6 1.7l-6.9 1.8c-.2-.6-.4-1.2-.6-1.7-.2-.5-.4-1-.6-1.4-.2-.5-.4-1-.7-1.5-.2-.6-.5-1.2-.7-1.9-.1-.4-.3-.8-.4-1.2-.1-.4-.2-.8-.3-1.1-.1-.3-.2-.7-.2-1-.1-.3-.2-.5-.2-.8z"/></defs><clipPath id="cSVGID_12_"><use xlink:href="#cSVGID_11_" overflow="visible"/></clipPath><g class="cst11"><path class="cst6" d="M47.1 90.1l6.9-1.8c0 .2.1.4.2.7.1.3.1.5.2.8.1.3.2.6.3 1 .1.3.2.7.3 1.1l-7 1.8c-.1-.4-.2-.7-.3-1.1-.1-.3-.2-.7-.3-1-.1-.3-.1-.6-.2-.8s-.1-.5-.1-.7"/><path class="cst5" d="M48 93.7l6.9-1.8v.4c.2.7.5 1.3.7 1.8.2.5.4 1 .7 1.5.2.5.4.9.6 1.4.2.5.4 1 .6 1.6l-6.9 1.8c-.2-.6-.4-1.1-.6-1.6-.2-.5-.4-.9-.6-1.4-.2-.5-.4-.9-.7-1.5-.2-.5-.5-1.1-.7-1.8V94v-.1-.1-.1"/><path class="cst6" d="M50.8 100.6l6.9-1.8v.4l-6.9 1.8v-.1-.1-.2"/></g></g><g class="cst0"><defs><path id="cSVGID_13_" class="cst0" d="M56.5 103l-6.8 1.8c.3-.1.5-.2.8-.5.2-.2.4-.5.5-.9.1-.4.2-.8.2-1.2 0-.4-.1-.9-.2-1.4l6.9-1.8c.1.5.2.9.2 1.4 0 .4-.1.8-.2 1.2-.1.4-.3.7-.5.9-.3.2-.6.4-.9.5z"/></defs><clipPath id="cSVGID_14_"><use xlink:href="#cSVGID_13_" overflow="visible"/></clipPath><g class="cst12"><path class="cst6" d="M50.8 100.8l6.9-1.8c.1.2.1.4.2.6s.1.4.1.6v.6c0 .2 0 .4-.1.5l-6.8 1.8c0-.2.1-.3.1-.5v-.6c0-.2 0-.4-.1-.6l-.3-.6"/><path class="cst5" d="M51 103.1l6.8-1.8v.2c0 .1 0 .1-.1.2 0 .1 0 .1-.1.2 0 .1 0 .1-.1.2l-6.8 1.8c0-.1 0-.1.1-.2 0-.1 0-.1.1-.2s0-.1.1-.2v-.2"/><path class="cst4" d="M50.8 103.8l6.8-1.8s0 .1-.1.1 0 .1-.1.1l-.1.1-.1.1-6.8 1.8.1-.1.1-.1s0-.1.1-.1c0 0 0-.1.1-.1"/><path class="cst3" d="M50.5 104.3l6.8-1.8-.1.1-.1.1-.1.1-.1.1-6.8 1.8s.1 0 .1-.1l.1-.1.1-.1c0-.1 0-.1.1-.1"/><path class="cst2" d="M50 104.6l6.8-1.8s-.1 0-.1.1h-.1-.1-.1l-6.8 1.8h.2c.1 0 .1 0 .2-.1 0 .1 0 0 0 0"/></g></g><g class="cst0"><defs><path id="cSVGID_15_" class="cst0" d="M50.5 77.3l6.9-1.7c-.1 0-.2.1-.3.1-.1 0-.2.1-.3.1-.1 0-.2.1-.3.1-.1 0-.2.1-.2.1-.6.4-1.1 1-1.5 1.8-.4.8-.7 1.7-.9 2.8-.2 1.1-.3 2.3-.3 3.6 0 1.3.1 2.7.4 4.1l-6.9 1.8c-.2-1.4-.4-2.8-.4-4.1 0-1.3.1-2.5.3-3.6.2-1.1.5-2 .9-2.8.4-.8.9-1.4 1.5-1.8.1 0 .1-.1.2-.1s.2-.1.3-.1c.1 0 .2-.1.3-.1.1-.1.2-.2.3-.2z"/></defs><clipPath id="cSVGID_16_"><use xlink:href="#cSVGID_15_" overflow="visible"/></clipPath><g class="cst13"><path class="cst2" d="M50.5 77.3l6.9-1.7c-.1 0-.2.1-.3.1-.1 0-.2.1-.3.1-.1 0-.2.1-.2.1-.1 0-.1.1-.2.1l-6.9 1.7c.1 0 .1-.1.2-.1s.2-.1.2-.1c.1 0 .2-.1.3-.1.1 0 .2-.1.3-.1"/><path class="cst3" d="M49.5 77.7l6.9-1.7-.2.2-.2.2-.2.2-.2.2-6.9 1.7.2-.2.2-.2.2-.2.2-.2c-.1.1 0 .1 0 0 0 .1 0 .1 0 0"/><path class="cst4" d="M48.6 78.6l6.9-1.7c-.1.1-.1.2-.2.3-.1.1-.1.2-.2.3-.1.1-.1.2-.2.3-.1.1-.1.2-.2.3l-6.9 1.7c.1-.1.1-.2.2-.3.1-.1.1-.2.2-.3.1-.1.1-.2.2-.3 0-.1.1-.2.2-.3"/><path class="cst5" d="M47.8 79.8l6.9-1.7c-.1.2-.2.3-.2.5-.1.2-.1.4-.2.5-.1.2-.1.4-.2.6-.1.2-.1.4-.1.6l-7 1.8c0-.2.1-.4.1-.6.1-.2.1-.4.2-.6.1-.2.1-.4.2-.5l.3-.6"/><path class="cst6" d="M47 82.1l6.9-1.7c-.1.6-.2 1.1-.3 1.8-.1.6-.1 1.3-.1 1.9 0 .7 0 1.4.1 2.1.1.7.2 1.5.3 2.2L47 90.2c-.1-.8-.2-1.5-.3-2.2-.1-.7-.1-1.4-.1-2.1 0-.7 0-1.3.1-2s.2-1.3.3-1.8"/></g></g><g class="cst0"><defs><path id="cSVGID_17_" class="cst0" d="M44.7 39.8c0 2.8.4 5.5 1.1 8.1.7 2.6 1.8 5 3.1 7.2s2.8 4 4.5 5.5c1.7 1.5 3.6 2.5 5.6 3.1l-6.9 1.7c-2-.5-3.8-1.6-5.6-3.1-1.7-1.5-3.2-3.4-4.5-5.5-1.3-2.2-2.3-4.6-3.1-7.2-.7-2.6-1.1-5.4-1.2-8.2 2.4-.6 4.7-1.1 7-1.6z"/></defs><clipPath id="cSVGID_18_"><use xlink:href="#cSVGID_17_" overflow="visible"/></clipPath><g class="cst14"><path class="cst6" d="M38.4 35.7l6.9-1.5c-.1.4-.2.9-.2 1.3-.1.4-.1.9-.2 1.4 0 .5-.1.9-.1 1.4v1.5c0 .8 0 1.6.1 2.4l.3 2.4c.1.8.3 1.6.5 2.3.2.8.4 1.5.6 2.3l-6.9 1.6c-.2-.7-.5-1.5-.6-2.3-.2-.8-.3-1.6-.5-2.3l-.3-2.4c-.1-.8-.1-1.6-.1-2.4v-1.5c0-.5.1-1 .1-1.4 0-.5.1-.9.2-1.4 0-.5.1-.9.2-1.4"/><path class="cst5" d="M39.4 50.8l6.9-1.6c.1.4.3.8.4 1.3.2.4.3.8.5 1.2.2.4.4.8.5 1.2l.6 1.2-6.9 1.6-.6-1.2c-.2-.4-.4-.8-.5-1.2-.2-.4-.3-.8-.5-1.2-.2-.5-.3-.9-.4-1.3"/><path class="cst4" d="M41.4 55.6l6.9-1.6c.2.3.4.6.5.9l.6.9.6.9c.2.3.4.6.6.8l-6.9 1.6c-.2-.3-.4-.6-.6-.8l-.6-.9-.6-.9c-.1-.2-.3-.5-.5-.9"/><path class="cst3" d="M43.7 59.2l6.9-1.6c.2.3.5.6.7.8.2.3.5.5.7.8.2.3.5.5.7.7.2.2.5.5.8.7l-6.9 1.7c-.3-.2-.5-.5-.8-.7l-.7-.7c-.2-.3-.5-.5-.7-.8-.2-.3-.4-.6-.7-.9"/><path class="cst2" d="M46.6 62.3l6.9-1.7c.4.4.9.7 1.3 1 .4.3.9.6 1.3.8.5.3.9.5 1.4.7.5.2 1 .4 1.4.5L52 65.3c-.5-.1-1-.3-1.4-.5-.5-.2-.9-.4-1.4-.7-.5-.3-.9-.5-1.3-.9-.4-.2-.9-.5-1.3-.9"/></g></g><g class="cst0"><defs><path id="cSVGID_19_" class="cst0" d="M59 47.8c.1 0 .2 0 .3.1h.8l-6.9 1.6h-.8c-.1 0-.2 0-.3-.1 2-.5 4.7-1.6 6.9-1.6z"/></defs><clipPath id="cSVGID_20_"><use xlink:href="#cSVGID_19_" overflow="visible"/></clipPath><g class="cst15"><path class="cst16" d="M52 49.4l6.9-1.6c.1 0 .2 0 .3.1h.8l-6.9 1.6h-.8c-.1 0-.2-.1-.3-.1"/></g></g><g class="cst0"><defs><path id="cSVGID_21_" class="cst0" d="M55.9 42.6c0 .6.1 1.2.2 1.8.2.6.4 1.1.7 1.6.3.5.6.9 1 1.2.4.3.8.5 1.2.7l-7 1.5c-.4-.1-.8-.3-1.2-.7-.4-.3-.7-.7-1-1.2-.3-.5-.5-1-.7-1.6-.2-.6-.2-1.2-.2-1.8 2.3-.4 4.7-.9 7-1.5-2.3.5-4.6 1.1-6.9 1.6 0-.5.1-.9.1-1.3.1-.4.2-.8.4-1.1.2-.3.4-.6.7-.8.3-.2.5-.3.8-.4l6.9-1.6c-.3.1-.6.2-.8.4-.3.2-.5.5-.7.8-.2.3-.3.7-.4 1.1-.1.4-.1.8-.1 1.3z"/></defs><clipPath id="cSVGID_22_"><use xlink:href="#cSVGID_21_" overflow="visible"/></clipPath><g class="cst17"><path class="cst16" d="M51 40.6l6.9-1.6h-.2c-.1 0-.1 0-.2.1-.1 0-.1.1-.2.1s-.1.1-.2.1l-6.9 1.6c.1 0 .1-.1.2-.1s.1-.1.2-.1.1 0 .2-.1h.2"/><path class="cst18" d="M50.3 40.9l6.9-1.6c-.1 0-.1.1-.1.1l-.1.1-.1.1-.1.1-6.9 1.6c0-.1.1-.1.1-.1l.1-.1.1-.1c0-.1.1-.1.1-.1"/><path class="cst19" d="M49.8 41.4l6.9-1.6-.1.1c0 .1-.1.1-.1.2s-.1.1-.1.2-.1.1-.1.2L49.4 42c0-.1.1-.1.1-.2s.1-.1.1-.2.1-.1.1-.2c0 .1.1 0 .1 0"/><path class="cst20" d="M49.4 42l6.9-1.6c0 .1-.1.1-.1.2s-.1.2-.1.2c0 .1-.1.2-.1.2 0 .1 0 .2-.1.3L49.1 43c0-.1 0-.2.1-.3 0-.1 0-.2.1-.2 0-.1.1-.2.1-.2-.1-.1-.1-.2 0-.3"/><path class="cst21" d="M49.1 43l6.9-1.6c0 .1 0 .2-.1.3v1.4c0 .2 0 .3.1.5 0 .2.1.3.1.5s.1.3.1.5l-6.9 1.6c-.1-.2-.1-.3-.1-.5s-.1-.3-.1-.5-.1-.3-.1-.5v-.5-.3-.3-.3c0-.1 0-.2.1-.3"/><path class="cst20" d="M49.3 46.3l6.9-1.6c0 .1.1.2.1.3s.1.2.1.3c0 .1.1.2.1.3 0 .1.1.2.1.2l-6.9 1.6c0-.1-.1-.2-.1-.3 0-.1-.1-.2-.1-.3 0-.1-.1-.2-.1-.3-.1 0-.1-.1-.1-.2"/><path class="cst19" d="M49.7 47.3l6.9-1.6c0 .1.1.1.1.2s.1.1.1.2.1.1.1.2.1.1.1.2l-6.9 1.6c0-.1-.1-.1-.1-.2s-.1-.1-.1-.2-.1-.1-.1-.2c0 0 0-.1-.1-.2"/><path class="cst18" d="M50.2 48.1l6.9-1.6c0 .1.1.1.1.2l.2.2.2.2c.1.1.1.1.2.1l-6.9 1.6c-.1 0-.1-.1-.2-.1l-.2-.2-.2-.2c0-.1 0-.1-.1-.2"/><path class="cst16" d="M50.9 48.8l6.9-1.6c.1.1.2.1.3.2.1.1.2.1.3.2.1.1.2.1.3.1.1 0 .2.1.3.1l-7 1.6c-.1 0-.2-.1-.3-.1-.1 0-.2-.1-.3-.1-.1-.1-.2-.1-.3-.2l-.2-.2"/></g></g><g class="cst0"><defs><path id="cSVGID_23_" class="cst0" d="M59 63.7c.4.1.9.2 1.3.3.4.1.8.1 1.2.1.4 0 .8 0 1.2-.1.4 0 .8-.1 1.2-.2L57 65.5c-.4.1-.8.2-1.2.2-.4 0-.8.1-1.2.1-.4 0-.8 0-1.2-.1-.4-.1-.8-.2-1.3-.3 2.1-.5 4.8-1.7 6.9-1.7z"/></defs><clipPath id="cSVGID_24_"><use xlink:href="#cSVGID_23_" overflow="visible"/></clipPath><g class="cst22"><path class="cst2" d="M52.1 65.4l6.9-1.7c.4.1.9.2 1.3.3.4.1.8.1 1.2.1.4 0 .8 0 1.2-.1.4 0 .8-.1 1.2-.2L57 65.5c-.4.1-.8.2-1.2.2-.4 0-.8.1-1.2.1-.4 0-.8 0-1.2-.1-.4-.1-.9-.2-1.3-.3"/></g></g><g class="cst0"><defs><path id="cSVGID_25_" class="cst0" d="M54.5 22.9c-1.4.3-2.8 1-4 1.9-1.2.9-2.2 2.2-3.1 3.6-.9 1.5-1.5 3.2-2 5.1-.5 1.9-.7 4-.7 6.2-2.3.5-4.6 1-6.9 1.6 0-2.3.2-4.4.7-6.3.5-1.9 1.1-3.6 2-5.1.9-1.5 1.9-2.7 3.1-3.6 1.2-.9 2.5-1.6 3.9-1.9 2.1-.4 4.9-1 7-1.5z"/></defs><clipPath id="cSVGID_26_"><use xlink:href="#cSVGID_25_" overflow="visible"/></clipPath><g class="cst23"><path class="cst2" d="M47.5 24.4l6.9-1.5c-.3.1-.6.1-.9.2-.3.1-.6.2-.8.3-.3.1-.5.3-.8.4-.3.1-.5.3-.8.5l-6.9 1.5c.3-.2.5-.3.8-.5.3-.1.5-.3.8-.4.3-.1.6-.2.8-.3.4 0 .6-.1.9-.2"/><path class="cst3" d="M44.2 25.9l6.9-1.5c-.2.2-.5.3-.7.5-.2.2-.4.4-.7.6l-.6.6c-.2.2-.4.4-.6.7l-6.9 1.5c.2-.2.4-.5.6-.7l.6-.6c.2-.2.4-.4.7-.6.3-.2.5-.4.7-.5"/><path class="cst4" d="M41.7 28.3l6.9-1.5c-.2.2-.4.5-.5.7-.2.2-.3.5-.5.7-.2.3-.3.5-.5.8-.1.3-.3.5-.4.8l-6.9 1.5c.1-.3.3-.6.4-.8.1-.3.3-.5.5-.8.2-.3.3-.5.5-.7.1-.3.3-.5.5-.7"/><path class="cst5" d="M39.8 31.3l6.9-1.5c-.2.3-.3.7-.4 1-.1.3-.3.7-.4 1.1-.1.4-.2.7-.3 1.1l-.3 1.2-6.9 1.5.3-1.2c.1-.4.2-.8.3-1.1.1-.4.2-.7.4-1.1.1-.3.3-.6.4-1"/><path class="cst6" d="M38.4 35.7l6.9-1.5c-.1.4-.2.9-.2 1.3-.1.4-.1.9-.2 1.4 0 .5-.1.9-.1 1.4v1.5c0 .8 0 1.6.1 2.4l.3 2.4c.1.8.3 1.6.5 2.3.2.8.4 1.5.6 2.3l-6.9 1.6c-.2-.7-.5-1.5-.6-2.3-.2-.8-.3-1.6-.5-2.3l-.3-2.4c-.1-.8-.1-1.6-.1-2.4v-1.5c0-.5.1-1 .1-1.4 0-.5.1-.9.2-1.4 0-.5.1-.9.2-1.4"/></g></g><g class="cst0"><defs><path id="cSVGID_27_" class="cst0" d="M51 40.6c2.3-.5 4.6-1.1 6.9-1.6h.7c.1 0 .2 0 .3.1L52 40.6c-.1 0-.2 0-.3-.1h-.5c0 .1-.1.1-.2.1z"/></defs><clipPath id="cSVGID_28_"><use xlink:href="#cSVGID_27_" overflow="visible"/></clipPath><path d="M51 40.6l6.9-1.6h.7c.1 0 .2 0 .3.1L52 40.6c-.1 0-.2 0-.3-.1h-.5c0 .1-.1.1-.2.1" class="cst24"/></g><g class="cst0"><defs><path id="cSVGID_29_" class="cst0" d="M60 47.8l-6.9 1.6c.3-.1.6-.2.8-.4.3-.2.5-.5.7-.8.2-.3.3-.7.4-1.1.1-.4.2-.9.2-1.3 0-.6-.1-1.2-.3-1.8-.2-.6-.4-1.1-.7-1.6-.3-.5-.6-.9-1-1.2-.4-.3-.8-.5-1.2-.7l6.9-1.6c.4.1.8.3 1.2.7.4.3.7.7 1 1.2.3.5.5 1 .7 1.6.2.6.2 1.2.2 1.8 0 .5-.1.9-.2 1.3s-.2.8-.4 1.1c-.2.3-.4.6-.7.8-.1.2-.4.3-.7.4z"/></defs><clipPath id="cSVGID_30_"><use xlink:href="#cSVGID_29_" overflow="visible"/></clipPath><g class="cst25"><path d="M52 40.6l6.9-1.6c.1 0 .2.1.3.1.1 0 .2.1.3.1.1.1.2.1.3.2.1.1.2.1.3.2l-6.9 1.6c-.1-.1-.2-.2-.3-.2-.1-.1-.2-.1-.3-.2-.1-.1-.2-.1-.3-.1-.1 0-.2-.1-.3-.1"/><path d="M53.2 41.2l6.9-1.6c.1 0 .1.1.2.1l.2.2.2.2c.1.1.1.1.1.2l-6.9 1.6c0-.1-.1-.1-.1-.2l-.2-.2-.2-.2c-.1 0-.1 0-.2-.1"/><path d="M53.8 41.9l6.9-1.6c0 .1.1.1.1.2s.1.1.1.2.1.1.1.2.1.1.1.2l-6.9 1.6c0-.1-.1-.1-.1-.2s-.1-.1-.1-.2-.1-.1-.1-.2 0-.1-.1-.2M54.3 42.7l6.9-1.6c0 .1.1.2.1.3s.1.2.1.3c0 .1.1.2.1.3s.1.2.1.3l-6.9 1.6c0-.1-.1-.2-.1-.3 0-.1-.1-.2-.1-.3 0-.1-.1-.2-.1-.3s0-.2-.1-.3"/><path d="M54.8 43.8l6.9-1.6c.1.2.1.3.1.5s.1.3.1.5 0 .3.1.5V45.1c0 .1 0 .2-.1.3L55 47c0-.1 0-.2.1-.3v-.3-.3-.3-.5c0-.2 0-.4-.1-.5 0-.2-.1-.3-.1-.5s-.1-.4-.1-.5"/><path d="M55 47l6.9-1.6c0 .1 0 .2-.1.3 0 .1 0 .2-.1.2 0 .1-.1.2-.1.2 0 .1-.1.1-.1.2L54.7 48c0-.1.1-.1.1-.2s.1-.2.1-.2c0-.1.1-.2.1-.2V47M54.7 48l6.9-1.6c0 .1-.1.1-.1.2s-.1.1-.1.2-.1.1-.1.2-.1.1-.1.1l-6.9 1.6.1-.1c0-.1.1-.1.1-.2s.1-.1.1-.2.1-.2.1-.2"/><path d="M54.3 48.6l6.9-1.6c0 .1-.1.1-.1.1l-.1.1-.1.1s-.1.1-.2.1L53.8 49c.1 0 .1-.1.2-.1l.1-.1.1-.1.1-.1M53.7 49.1l6.9-1.6c-.1 0-.1.1-.2.1s-.1.1-.2.1-.1 0-.2.1h-.2l-6.9 1.6h.2c.1 0 .1 0 .2-.1.1 0 .1 0 .2-.1.1 0 .2 0 .2-.1"/></g></g><g class="cst0"><defs><path id="cSVGID_31_" class="cst0" d="M47.5 24.4l6.9-1.5c.3-.1.7-.1 1.1-.2.4 0 .7-.1 1.1 0 .4 0 .7 0 1.1.1.4 0 .8.1 1.1.2l-6.9 1.5c-.4-.1-.8-.2-1.1-.2-.4 0-.8-.1-1.1-.1h-1.1c-.4.1-.7.2-1.1.2z"/></defs><clipPath id="cSVGID_32_"><use xlink:href="#cSVGID_31_" overflow="visible"/></clipPath><g class="cst26"><path class="cst16" d="M47.5 24.4l6.9-1.5c.3-.1.7-.1 1.1-.2.4 0 .7-.1 1.1 0 .4 0 .7 0 1.1.1.4 0 .8.1 1.1.2l-6.9 1.5c-.4-.1-.8-.2-1.1-.2-.4 0-.8-.1-1.1-.1h-1.1c-.4.1-.7.2-1.1.2"/></g></g><g class="cst0"><defs><path id="cSVGID_33_" class="cst0" d="M72.6 107.7l-6.9 1.9c.2-.1.5-.2.7-.4.2-.2.4-.4.5-.7.1-.3.2-.6.3-1v-1.2c-.2-1.1-.3-2.3-.5-3.3-.1-1.1-.3-2.1-.4-3.1-.1-1-.2-1.9-.3-2.8-.1-.9-.2-1.7-.2-2.5-.1-1-.2-2-.2-2.9-.1-.9-.1-1.8-.2-2.7 0-.9-.1-1.8-.1-2.9 0-1-.1-2.2-.1-3.5 0-1.2-.1-2.2-.1-3.1V77c0-.7.1-1.4.2-2.1.1-.7.2-1.3.3-1.9.1-.6.3-1.1.4-1.7.2-.5.3-1 .5-1.4.2-.4.3-.9.5-1.2.2-.4.3-.7.5-1l6.9-1.7c-.2.3-.3.6-.5 1s-.3.8-.5 1.2c-.2.4-.3.9-.5 1.4-.2.5-.3 1.1-.4 1.7-.1.6-.3 1.3-.3 1.9-.1.6-.1 1.3-.2 2.1v2.5c0 .9 0 1.9.1 3.1 0 1.3.1 2.4.1 3.5 0 1 .1 2 .1 2.9 0 .9.1 1.8.2 2.7.1.9.1 1.8.2 2.9.1.8.2 1.6.2 2.5.1.9.2 1.8.3 2.8.1 1 .2 2 .4 3.1.1 1.1.3 2.2.5 3.3.1.4.1.8 0 1.2 0 .4-.1.7-.3 1-.1.3-.3.5-.5.7-.3 0-.5.1-.7.2z"/></defs><clipPath id="cSVGID_34_"><use xlink:href="#cSVGID_33_" overflow="visible"/></clipPath><g class="cst27"><path class="cst4" d="M67.4 67.7l6.9-1.7s0 .1-.1.1c0 0 0 .1-.1.1s0 .1-.1.1c0 0 0 .1-.1.1L67 68.1s0-.1.1-.1c0 0 0-.1.1-.1 0 0 0-.1.1-.1 0 0 0-.1.1-.1"/><path class="cst5" d="M67.1 68.2l6.9-1.7c-.1.3-.3.6-.4.9-.1.3-.3.7-.4 1.1-.1.4-.3.8-.4 1.3-.1.4-.3.9-.4 1.4L65.5 73c.1-.5.2-1 .4-1.4.1-.4.3-.9.4-1.3.1-.4.3-.8.4-1.1.1-.4.2-.7.4-1"/><path class="cst6" d="M65.5 73l6.9-1.7c-.1.6-.3 1.3-.3 1.9-.1.6-.1 1.3-.2 2.1v2.5c0 .9 0 1.9.1 3.1 0 1.3.1 2.4.1 3.5 0 1 .1 2 .1 2.9 0 .9.1 1.8.2 2.7.1.9.1 1.8.2 2.9.1.8.2 1.6.2 2.5.1.9.2 1.8.3 2.8.1 1 .2 2 .4 3.1.1 1.1.3 2.2.5 3.3V105.8c0 .1 0 .2-.1.4L67 108c0-.1 0-.2.1-.4v-.4-.4-.4c-.2-1.1-.3-2.3-.5-3.3-.1-1.1-.3-2.1-.4-3.1-.1-1-.2-1.9-.3-2.8-.1-.9-.2-1.7-.2-2.5-.1-1-.2-2-.2-2.9-.1-.9-.1-1.8-.2-2.7 0-.9-.1-1.8-.1-2.9 0-1-.1-2.2-.1-3.5 0-1.2-.1-2.2-.1-3.1v-2.5c0-.7.1-1.4.2-2.1 0-.7.1-1.3.3-2-.1 0-.1 0 0 0-.1 0-.1 0 0 0-.1 0-.1 0 0 0-.1 0-.1 0 0 0"/><path class="cst5" d="M67 107.9l6.9-1.8v.2c0 .1 0 .1-.1.2 0 .1 0 .1-.1.2 0 .1 0 .1-.1.2l-6.9 1.8c0-.1.1-.1.1-.2s0-.1.1-.2 0-.1.1-.2v-.2"/><path class="cst4" d="M66.8 108.6l6.9-1.8s0 .1-.1.1c0 0 0 .1-.1.1l-.1.1-.1.1-6.9 1.8.1-.1.1-.1.1-.1c.1 0 .1-.1.1-.1"/><path class="cst3" d="M66.5 109l6.9-1.8-.1.1-.1.1-.1.1-.1.1-6.9 1.9s.1 0 .1-.1.1-.1.1-.1l.1-.1c0-.1.1-.1.1-.2"/><path class="cst2" d="M66.1 109.4l6.9-1.9h-.1-.1-.1-.1l-6.9 1.9h.2c0 .1.1.1.2 0-.1 0 0 0 0 0"/></g></g><g class="cst0"><defs><path id="cSVGID_35_" class="cst0" d="M79.2 101.4l-6.9 1.8h.1c.1 0 0 0 0 0 .3-.2.5-.5.6-.8l.3-1.2.3-1.2c.1-.3.3-.6.6-.6l6.9-1.8c-.3.1-.5.3-.6.6-.1.3-.2.7-.3 1.2-.1.4-.2.9-.3 1.2-.1.4-.3.7-.6.8h-.1z"/></defs><clipPath id="cSVGID_36_"><use xlink:href="#cSVGID_35_" overflow="visible"/></clipPath><g class="cst28"><path class="cst2" d="M74.4 99.3l6.9-1.8-6.9 1.8c-.2.1-.1.1 0 0-.1.1-.1.1 0 0-.1 0-.1 0 0 0"/><path class="cst3" d="M74.2 99.4l6.9-1.8H81l-7 2 .2-.2c-.1 0 0 0 0 0"/><path class="cst4" d="M74 99.6l6.9-1.8v.4L74 100v-.1-.1c0-.1-.1-.1 0-.2"/><path class="cst5" d="M73.8 99.8l6.9-1.8c0 .1-.1.1-.1.2s0 .1-.1.2 0 .1-.1.2c0 .1 0 .2-.1.2l-6.9 1.8c0-.1 0-.2.1-.2 0-.1 0-.1.1-.2 0-.1 0-.1.1-.2.1 0 .1-.1.1-.2"/><path class="cst6" d="M73.5 100.7l6.9-1.8c0 .1 0 .2-.1.2v.4c0 .1 0 .2-.1.2l-6.9 1.8c0-.1 0-.2.1-.2v-.2-.2s.1-.1.1-.2"/><path class="cst5" d="M73.3 101.6l6.9-1.8c0 .1 0 .2-.1.3 0 .1 0 .2-.1.2 0 .1-.1.2-.1.2s-.1.1-.1.2l-6.9 1.8c0-.1.1-.1.1-.2s.1-.2.1-.2c0-.1 0-.2.1-.2s.1-.2.1-.3"/><path class="cst4" d="M73 102.6l6.9-1.8v.1s0 .1-.1.1 0 .1-.1.1c0 0 0 .1-.1.1l-6.9 1.8s0-.1.1-.1c0 0 0-.1.1-.1 0-.1.1-.1.1-.2"/><path class="cst3" d="M72.8 102.9l6.9-1.8-.1.1-.1.1-.1.1h-.1l-6.9 1.8h.1c.1 0 0 0 .1-.1l.2-.2c0 .1 0 0 0 0"/><path class="cst2" d="M72.5 103.1l6.9-1.8h-.1l-6.9 1.8h.1c.1 0 0 0 0 0-.1.1-.1.1 0 0 0 .1 0 .1 0 0 0 .1 0 .1 0 0 0 .1 0 .1 0 0 0 .1 0 .1 0 0 0 .1 0 .1 0 0"/></g></g><g class="cst0"><defs><path id="cSVGID_37_" class="cst0" d="M74.4 99.3l6.8-1.8-6.8 1.8z"/></defs><clipPath id="cSVGID_38_"><use xlink:href="#cSVGID_37_" overflow="visible"/></clipPath><g class="cst29"><path class="cst2" d="M74.4 99.3l6.8-1.8-6.8 1.8"/></g></g><g class="cst0"><defs><path id="cSVGID_39_" class="cst0" d="M68.6 67.1l6.9-1.7c-.1 0-.2.1-.4.1-.1 0-.2.1-.3.2-.1.1-.2.1-.3.2-.1.1-.2.1-.2.2l-6.9 1.7c.1-.1.2-.1.2-.2.1-.1.2-.1.3-.2.1-.1.2-.1.3-.2.1-.1.2-.1.4-.1z"/></defs><clipPath id="cSVGID_40_"><use xlink:href="#cSVGID_39_" overflow="visible"/></clipPath><g class="cst30"><path class="cst2" d="M68.6 67.1l6.9-1.7c-.1 0-.2 0-.2.1s-.1.1-.2.1-.1.1-.2.1-.1.1-.2.1l-6.9 1.7c.1 0 .1-.1.2-.1s.1-.1.2-.1.1-.1.2-.1c0-.1.1-.1.2-.1"/><path class="cst3" d="M67.7 67.4l6.9-1.7s-.1 0-.1.1-.1 0-.1.1c0 0-.1 0-.1.1 0 0-.1 0-.1.1l-6.9 1.7s.1 0 .1-.1c0 0 .1 0 .1-.1s.1 0 .1-.1.1-.1.1-.1"/></g></g><g class="cst0"><defs><path id="cSVGID_41_" class="cst0" d="M84.9 104.1L78 106h.2c.3-.2.5-.5.6-.9.1-.4.2-.9.2-1.4 0-.5.1-1 .2-1.4.1-.4.3-.8.6-.9l6.9-1.8c-.3.2-.5.5-.6.9-.1.4-.2.9-.2 1.4 0 .5-.1 1-.2 1.4-.1.4-.3.8-.6.9s-.1-.1-.2-.1c.1 0 0 0 0 0z"/></defs><clipPath id="cSVGID_42_"><use xlink:href="#cSVGID_41_" overflow="visible"/></clipPath><g class="cst31"><path class="cst2" d="M79.8 101.2l6.9-1.9v.1l-6.9 1.8"/><path class="cst3" d="M79.8 101.2l6.9-1.8h-.1-.1c-.1 0 0 0-.1.1l-.1.1-6.9 1.8.1-.1.1-.1c.1-.1.1 0 .2 0"/><path class="cst4" d="M79.6 101.4l6.9-1.8v.4l-6.9 1.8v-.1-.1c0-.1-.1-.1 0-.2"/><path class="cst5" d="M79.4 101.7l6.9-1.8s0 .1-.1.1c0 0 0 .1-.1.1v.4l-6.9 1.8v-.2-.2c0-.1 0-.1.1-.1l.1-.1"/><path class="cst6" d="M79.2 102.3l6.9-1.8c0 .2-.1.4-.1.6 0 .2 0 .4-.1.7 0 .2 0 .5-.1.7 0 .2-.1.4-.1.6l-6.9 1.9c0-.2.1-.4.1-.6 0-.2 0-.4.1-.7 0-.2 0-.5.1-.7 0-.3.1-.6.1-.7"/><path class="cst5" d="M78.9 104.9l6.9-1.9V103.3s0 .1-.1.1c0 0 0 .1-.1.1l-6.9 1.9s0-.1.1-.1c0 0 0-.1.1-.1v-.2c-.1 0-.1-.1 0-.1"/><path class="cst4" d="M78.7 105.5l6.9-1.9v.4l-6.9 1.9v-.1-.1c-.1-.1-.1-.2 0-.2-.1 0-.1 0 0 0"/><path class="cst3" d="M78.5 105.7l6.9-1.9v.1h-.1-.1-.1l-6.9 1.9h.1c.1 0 .1 0 .2-.1-.1.1-.1.1 0 0"/><path class="cst2" d="M78.3 105.9l6.9-1.9h-.1-.1l-7 2h.1s.1-.1.2-.1c-.1 0-.1 0 0 0-.1 0-.1 0 0 0"/></g></g><g class="cst0"><defs><path id="cSVGID_43_" class="cst0" d="M63.9 63.8L57 65.5c1.4-.3 2.7-1 3.8-1.9 1.2-.9 2.2-2.1 3-3.6.8-1.5 1.5-3.1 2-5s.7-4 .7-6.2c0-2.8-.4-5.7-1.2-8.3-.7-2.7-1.8-5.1-3.1-7.3s-2.9-4.1-4.6-5.6c-1.7-1.5-3.6-2.5-5.6-3l6.9-1.5c2 .5 3.9 1.5 5.6 3 1.7 1.5 3.3 3.4 4.6 5.5 1.3 2.2 2.4 4.7 3.1 7.3.7 2.6 1.2 5.5 1.2 8.3 0 2.2-.2 4.3-.7 6.2-.5 1.9-1.1 3.6-2 5-.8 1.4-1.9 2.7-3 3.6-1.1.8-2.4 1.5-3.8 1.8z"/></defs><clipPath id="cSVGID_44_"><use xlink:href="#cSVGID_43_" overflow="visible"/></clipPath><g class="cst32"><path class="cst16" d="M51.9 24.5l6.9-1.5c.5.1 1 .3 1.5.5s1 .4 1.4.6c.5.2.9.5 1.4.8.4.3.9.6 1.3 1l-6.9 1.5c-.4-.4-.9-.7-1.3-1-.4-.3-.9-.6-1.4-.8-.5-.2-.9-.5-1.4-.7-.5-.1-1-.3-1.5-.4"/><path class="cst18" d="M57.5 27.5l6.9-1.5c.3.2.5.4.8.7.3.2.5.5.8.7.2.3.5.5.7.8.2.3.5.6.7.8l-6.9 1.6c-.2-.3-.5-.6-.7-.9-.2-.3-.5-.5-.7-.8-.2-.3-.5-.5-.8-.7-.3-.3-.5-.5-.8-.7"/><path class="cst19" d="M60.5 30.5l6.9-1.6c.2.3.4.6.6.8l.6.9.6.9c.2.3.4.6.5 1l-6.9 1.6c-.2-.3-.4-.7-.5-1l-.6-.9-.6-.9c-.2-.2-.4-.5-.6-.8"/><path class="cst20" d="M62.8 34.2l6.9-1.6.6 1.2.6 1.2c.2.4.3.8.5 1.3.2.4.3.9.5 1.3L65 39.1c-.1-.4-.3-.9-.5-1.3s-.3-.8-.5-1.3l-.6-1.2c-.2-.3-.4-.7-.6-1.1"/><path class="cst21" d="M65 39.1l6.9-1.6c.2.8.5 1.5.7 2.3.2.8.4 1.6.5 2.4l.3 2.4c.1.8.1 1.6.1 2.5v1.5c0 .5-.1 1-.1 1.4-.1.5-.1.9-.2 1.4-.1.5-.2.9-.3 1.3L66 54.3c.1-.4.2-.9.3-1.3.1-.5.1-.9.2-1.4 0-.5.1-1 .1-1.5v-1.5c0-.8 0-1.7-.1-2.5l-.3-2.4c-.1-.8-.3-1.6-.5-2.4-.3-.6-.5-1.4-.7-2.2"/><path class="cst20" d="M65.9 54.4l6.9-1.6-.3 1.2c-.1.4-.2.8-.4 1.1-.1.4-.3.7-.4 1.1-.1.3-.3.7-.5 1l-6.9 1.7c.2-.3.3-.7.5-1 .1-.3.3-.7.4-1.1.1-.4.2-.7.4-1.1.1-.5.2-.9.3-1.3"/><path class="cst19" d="M64.4 58.9l6.9-1.7c-.1.3-.3.6-.4.8-.2.3-.3.5-.5.8-.2.3-.3.5-.5.7-.2.2-.4.5-.5.7l-6.9 1.7c.2-.2.4-.4.5-.7.2-.2.3-.5.5-.7.2-.3.3-.5.5-.8.1-.3.3-.6.4-.8"/><path class="cst18" d="M62.5 61.9l6.9-1.7c-.2.2-.4.5-.6.7l-.6.6c-.2.2-.4.4-.7.6-.2.2-.5.3-.7.5l-6.9 1.7c.2-.2.5-.3.7-.5.2-.2.5-.4.7-.6l.6-.6c.2-.2.4-.5.6-.7"/><path class="cst16" d="M59.9 64.2l6.9-1.7c-.2.1-.5.3-.7.4-.2.1-.5.2-.7.3-.2.1-.5.2-.7.3-.2.1-.5.2-.7.2l-7 1.8c.3-.1.5-.1.7-.2.2-.1.5-.2.7-.3.2-.1.5-.2.7-.3.3-.2.5-.3.8-.5"/></g></g><g class="cst0"><defs><path id="cSVGID_45_" class="cst0" d="M80 101.1l6.9-1.8h-.1-.1l-6.9 1.8h.2z"/></defs><clipPath id="cSVGID_46_"><use xlink:href="#cSVGID_45_" overflow="visible"/></clipPath><g class="cst33"><path class="cst2" d="M80 101.1l6.9-1.8h-.1-.1l-6.9 1.8h.2"/><path class="cst3" d="M79.8 101.2l6.9-1.9-6.9 1.9"/></g></g><g class="cst0"><defs><path id="cSVGID_47_" class="cst0" d="M90.9 105.9l-6.9 1.9c.1 0 .1 0 .1-.1s.1 0 .1-.1l.1-.1.1-.1c.1-.1.2-.2.2-.4 0-.1.1-.3.1-.5v-.7-.8l6.9-1.9v1.5c0 .2-.1.4-.1.5 0 .1-.1.3-.2.4l-.1.1-.1.1-.1.1c0 .1-.1.1-.1.1z"/></defs><clipPath id="cSVGID_48_"><use xlink:href="#cSVGID_47_" overflow="visible"/></clipPath><g class="cst34"><path class="cst6" d="M84.8 105l6.9-1.9v1.5c0 .1 0 .2-.1.3l-6.9 1.9c0-.1 0-.2.1-.3v-.4-.5c.1-.2.1-.4 0-.6"/><path class="cst5" d="M84.8 106.9l6.9-1.9v.4l-6.9 1.9v-.1-.1-.2"/><path class="cst4" d="M84.7 107.2l6.9-1.9v.2l-6.9 1.9c-.1-.1-.1-.1 0-.2"/><path class="cst3" d="M84.5 107.4l6.9-1.9-.1.1-.1.1H91l-6.9 1.9h.2l.2-.2c0 .1 0 .1 0 0"/><path class="cst2" d="M84.3 107.7l6.9-1.9h-.1-.1-.2l-6.9 1.9h.4c-.1 0-.1 0 0 0"/></g></g><g class="cst0"><defs><path id="cSVGID_49_" class="cst0" d="M42.3 16.2l6.9-1.5c1.1-.2 2.1-.4 3-.4 1-.1 1.9-.1 2.7 0 .8 0 1.6.1 2.2.2.6.1 1.2.2 1.6.3.7.2 1.9.5 3.3 1s3.1 1.3 4.9 2.5c1.8 1.1 3.8 2.6 5.9 4.5 2 1.9 4.1 4.3 6.2 7.2 1.8 2.6 3.3 5.2 4.5 7.8 1.2 2.6 2.2 5.1 3 7.3.8 2.3 1.3 4.3 1.7 6 .4 1.7.6 3 .8 3.7.3 1.7.5 3.1.6 4.6.1 1.4.2 2.9.2 4.6 0 1.7.1 3.7.1 6.3 0 2.6.1 5.7.3 9.6.1 2 .2 3.9.3 5.7.1 1.8.2 3.5.3 5a295.823 295.823 0 0 0 .6 7.9l-6.9 1.8c-.1-1.1-.2-2.2-.3-3.6-.1-1.3-.2-2.8-.3-4.4-.1-1.6-.2-3.3-.3-5.1-.1-1.8-.2-3.7-.3-5.7-.2-4-.2-7.1-.3-9.6 0-2.6-.1-4.6-.1-6.3 0-1.7-.1-3.2-.2-4.6-.1-1.4-.3-2.9-.6-4.6-.1-.8-.4-2.1-.8-3.7s-1-3.7-1.7-6c-.8-2.3-1.7-4.8-3-7.4-1.2-2.6-2.7-5.2-4.5-7.8-2-2.9-4.1-5.3-6.2-7.2-2-1.9-4-3.4-5.9-4.5-1.8-1.1-3.5-1.9-4.9-2.5-1.4-.6-2.5-.9-3.3-1.1-.4-.1-1-.2-1.6-.3-.6-.1-1.4-.2-2.2-.2-.8 0-1.7-.1-2.7 0-.9.1-2 .3-3 .5z"/></defs><clipPath id="cSVGID_50_"><use xlink:href="#cSVGID_49_" overflow="visible"/></clipPath><g class="cst35"><path class="cst2" d="M42.3 16.2l6.9-1.5c1.1-.2 2.1-.4 3-.4 1-.1 1.9-.1 2.7 0 .8 0 1.6.1 2.2.2.6.1 1.2.2 1.6.3.5.1 1.2.3 2 .6s1.8.6 2.9 1.1c1.1.5 2.3 1.1 3.5 1.9 1.3.8 2.6 1.7 3.9 2.8l-7 1.5c-1.4-1.1-2.7-2.1-3.9-2.9-1.3-.8-2.4-1.4-3.5-1.9s-2-.9-2.9-1.1c-.8-.3-1.5-.5-2-.6-.4-.1-1-.2-1.6-.3-.6-.1-1.4-.2-2.2-.2-.8 0-1.7-.1-2.7 0-.8.1-1.9.3-2.9.5"/><path class="cst3" d="M64.2 22.8l7-1.5c.5.4 1 .9 1.5 1.3l1.5 1.5c.5.5 1 1.1 1.5 1.7l1.5 1.8-7 1.6c-.5-.6-1-1.3-1.5-1.8-.5-.6-1-1.1-1.5-1.7l-1.5-1.5c-.5-.5-1-1-1.5-1.4"/><path class="cst4" d="M70.3 29.2l7-1.6c.2.2.3.4.5.6.2.2.3.4.5.6.1.2.3.4.4.6.1.2.3.4.4.6.3.4.6.8.8 1.2.3.4.5.8.8 1.2.3.4.5.8.7 1.2.2.4.5.8.7 1.2l-6.9 1.6c-.2-.4-.5-.8-.7-1.2-.2-.4-.5-.8-.7-1.2-.3-.4-.5-.8-.8-1.2-.3-.4-.5-.8-.8-1.2-.1-.2-.3-.4-.4-.6-.1-.2-.3-.4-.4-.6-.2-.2-.3-.4-.5-.6l-.6-.6"/><path class="cst5" d="M75.1 36.5l6.9-1.6c.5.9 1 1.9 1.4 2.8l1.2 2.7c.4.9.7 1.8 1 2.6.3.9.6 1.7.9 2.5l-6.9 1.6c-.3-.8-.6-1.6-.9-2.5-.3-.9-.7-1.7-1-2.6l-1.2-2.7c-.4-.9-.9-1.8-1.4-2.8"/><path class="cst6" d="M79.6 47.1l6.9-1.6c.4 1.1.7 2.1.9 3.1.3 1 .5 1.9.7 2.7.2.8.3 1.5.5 2.1.1.6.2 1.1.3 1.5.3 1.7.5 3.1.6 4.6.1 1.4.2 2.9.2 4.6 0 1.7.1 3.7.1 6.3 0 2.6.1 5.7.3 9.6.1 2 .2 3.9.3 5.7.1 1.8.2 3.5.3 5a295.823 295.823 0 0 0 .6 7.9l-6.9 1.8c-.1-1.1-.2-2.2-.3-3.6-.1-1.3-.2-2.8-.3-4.4-.1-1.6-.2-3.3-.3-5.1-.1-1.8-.2-3.7-.3-5.7-.2-4-.2-7.1-.3-9.6 0-2.6-.1-4.6-.1-6.3 0-1.7-.1-3.2-.2-4.6-.1-1.4-.3-2.9-.6-4.6-.1-.4-.2-.9-.3-1.5-.1-.6-.3-1.3-.5-2.1s-.4-1.7-.7-2.7c-.2-.9-.5-2-.9-3.1"/></g></g><path class="cst36" d="M84.8 105v1.5c0 .2-.1.4-.1.5 0 .1-.1.3-.2.4-.1.1-.1.2-.2.2-.1.1-.2.1-.3.1h-.6-.1-.1-.1s-.1 0-.1-.1c-.2-.1-.3-.3-.4-.4l-.3-.6c-.1-.2-.2-.4-.2-.6-.1-.2-.1-.3-.1-.5-.1-.3-.1-.5-.1-.7v-.6-.6c0-.2-.1-.5-.2-.8 0-.1-.1-.3-.1-.4 0-.1-.1-.3-.1-.4-.1-.1-.1-.3-.2-.4l-.3-.3s-.1 0-.1-.1c0 0-.1 0-.1-.1h-.1H80.1c-.1 0-.1 0-.2.1h-.1c-.3.2-.5.5-.6.9-.1.4-.2.9-.2 1.4 0 .5-.1 1-.2 1.4-.1.4-.3.8-.6.9h-.1s-.1 0-.2.1h-.5-.1-.1s-.1 0-.1-.1c0 0-.1 0-.1-.1-.3-.3-.5-.7-.6-1.2-.1-.5-.2-1.1-.2-1.7-.1-.6-.1-1.2-.3-1.8-.1-.5-.3-1-.7-1.3l-.1-.1-.1-.1-.1-.1s-.1 0-.1-.1h-.1-.1-.1-.1c-.3.1-.5.3-.6.6-.1.3-.2.7-.3 1.2-.1.4-.2.9-.3 1.2-.1.4-.3.7-.6.8-.1 0-.1.1-.2.1H71.8c-.1 0-.2-.1-.3-.1-.1-.1-.2-.1-.3-.2l-.3-.3c-.1-.1-.2-.2-.2-.3-.1-.2-.2-.5-.3-.8-.1-.3-.1-.6-.1-.9 0-.3.1-.6.1-.9.1-.3.2-.6.4-.8.2-.6.3-1.3.5-1.9.2-.7.4-1.4.6-2.2l.6-2.4c.2-.8.4-1.7.7-2.6.5-1.8.9-3.4 1.2-4.7.3-1.3.6-2.5.7-3.5.2-1 .3-1.9.3-2.8 0-.9 0-1.7-.1-2.6-.1-.6-.2-1.2-.3-1.7-.1-.5-.2-1.1-.3-1.5s-.2-.9-.4-1.3c-.1-.4-.2-.8-.4-1.1 0-.1-.2-.3-.4-.6s-.5-.7-.8-1.1c-.3-.4-.7-.8-1.2-1.1-.4-.3-.9-.6-1.5-.8h-.8c-.2 0-.4 0-.6.1-.2 0-.3.1-.5.2s-.3.1-.4.2l-.3.3c-.2.3-.3.6-.5 1s-.3.8-.5 1.2c-.2.4-.3.9-.5 1.4-.2.5-.3 1.1-.4 1.7-.1.6-.2 1.3-.3 1.9-.2.6-.2 1.3-.2 2v2.5c0 .9 0 2 .1 3.1 0 1.3.1 2.4.1 3.5 0 1 .1 2 .1 2.9 0 .9.1 1.8.2 2.7.1.9.1 1.8.2 2.9.1.8.2 1.6.2 2.5.1.9.2 1.8.3 2.8.1 1 .2 2 .4 3.1.1 1.1.3 2.2.5 3.3.1.5.1 1 0 1.5-.1.4-.2.8-.4 1.1-.2.3-.5.5-.8.6-.3.1-.6.1-1 0l-9.3-2.8c-.4-.1-.8-.4-1.1-.7-.3-.4-.6-.8-.8-1.3-.2-.5-.3-1-.4-1.6 0-.5 0-1.1.2-1.5.2-.5.4-1 .6-1.4.2-.4.4-.7.6-1.1.2-.4.4-.7.7-1.1.2-.4.5-.9.7-1.5.1-.3.3-.7.4-1l.3-.9c.1-.3.2-.6.2-.8.1-.3.1-.5.2-.7.2-1.3.3-2.6.4-3.9 0-1.3-.1-2.6-.3-3.8-.2-1.2-.5-2.3-1-3.4-.4-1-.9-1.9-1.5-2.7-.1-.2-.3-.3-.5-.5l-.6-.6c-.2-.2-.5-.4-.7-.5-.3-.2-.6-.3-.9-.5h-.9c-.3 0-.5.1-.7.1-.2.1-.4.1-.6.2-.2.1-.3.2-.5.3-.6.4-1.1 1-1.5 1.8-.4.8-.7 1.7-.9 2.8-.2 1.1-.3 2.3-.3 3.6 0 1.3.1 2.7.4 4.1 0 .2.1.5.2.8.1.3.1.6.2 1 .1.3.2.7.3 1.1.1.4.3.8.4 1.2.3.7.5 1.3.7 1.9.2.6.5 1 .7 1.5.2.5.4.9.6 1.4.2.5.4 1.1.6 1.7.2.6.3 1.2.2 1.7 0 .5-.1 1-.3 1.4-.2.4-.5.7-.8.8-.3.2-.7.2-1.1.1l-9.1-2.7c-.4-.1-.7-.3-1-.6-.3-.3-.5-.7-.8-1.1-.2-.4-.4-.9-.4-1.3-.1-.5-.1-1 0-1.4.2-1 .3-2 .4-3 .1-1 .2-1.9.3-2.8.1-.9.2-1.8.3-2.6.1-.8.2-1.6.2-2.4.1-1 .2-1.9.2-2.7.1-.9.1-1.7.1-2.6 0-.9.1-1.8.1-2.8 0-1 .1-2.1.1-3.3 0-1.1.1-2.1.1-3v-2.5c0-.7-.1-1.4-.2-2.1l-.3-2.1c-.1-.7-.3-1.3-.4-1.9-.2-.6-.3-1.1-.5-1.7-.2-.5-.3-1-.5-1.5s-.3-.9-.5-1.3c-.1-.1-.2-.3-.3-.4l-.4-.4c-.1-.1-.3-.3-.5-.4-.2-.1-.4-.3-.5-.4-.1 0-.1-.1-.2-.1s-.1-.1-.2-.1-.1 0-.2-.1c-.1 0-.1 0-.2-.1-.5-.1-1-.1-1.4 0-.4.1-.8.3-1.1.5-.3.2-.6.4-.8.6l-.4.4c-.1.3-.2.5-.3.9-.1.3-.2.7-.3 1.1-.1.4-.2.8-.3 1.3-.1.5-.2 1-.2 1.5-.1.8-.1 1.6-.1 2.5 0 .9.1 1.8.3 2.9.2 1.1.4 2.3.7 3.8.3 1.5.7 3.2 1.2 5.2.2 1 .4 2 .7 2.9l.6 2.7c.2.9.4 1.7.6 2.4.2.8.4 1.5.5 2.2.2.3.3.7.4 1 .1.3.1.7.1 1 0 .3 0 .6-.1.8-.1.2-.1.4-.3.6-.1.1-.1.2-.2.2-.1.1-.2.1-.3.1h-.3c-.1 0-.2 0-.3-.1-.1 0-.2-.1-.2-.1-.1 0-.1-.1-.2-.1s-.1-.1-.2-.2l-.2-.2c-.3-.3-.5-.7-.6-1.2-.1-.4-.2-.9-.3-1.4-.1-.5-.2-.9-.3-1.3-.1-.4-.3-.7-.6-1l-.1-.1s-.1 0-.1-.1c0 0-.1 0-.1-.1s-.1 0-.1 0H30h-.1-.1-.1c-.3.1-.5.5-.6.9-.1.5-.2 1-.2 1.6-.1.6-.1 1.1-.2 1.6-.1.4-.3.8-.5.9h-.1-.1-.1-.1c-.1 0-.2-.1-.3-.1-.1 0-.2-.1-.2-.2-.2.3-.3.3-.3.2l-.1-.1c-.3-.3-.4-.7-.5-1.2-.1-.5-.2-1-.2-1.5s-.1-1-.2-1.5-.3-.9-.6-1.2l-.1-.1-.1-.1c-.1-.1-.2-.1-.2-.2-.1 0-.2-.1-.2-.1h-.1-.1-.1-.1c-.1 0-.2.1-.2.1-.1.1-.1.2-.2.2-.1.1-.1.2-.1.3 0 .1-.1.2-.1.3-.1.3-.1.5-.2.7v1.1c0 .2-.1.4-.1.6 0 .1-.1.2-.1.4-.1.1-.1.3-.2.4-.1.1-.2.3-.3.4-.1.1-.2.2-.4.2h-.1-.1-.1-.1c-.1 0-.2-.1-.3-.1-.1-.1-.2-.1-.3-.2-.1-.1-.2-.2-.2-.3-.1-.1-.1-.2-.2-.3-.1-.2-.1-.3-.2-.5s-.1-.3-.1-.5v-.6-.8-.9c0-.3 0-.6.1-1 0-.4.1-.7.1-1.1 0-.4.1-.8.2-1.2.1-1 .1-2.1.2-3.3.1-1.2.2-2.6.2-4 .1-1.5.2-3 .2-4.7.1-1.7.1-3.5.2-5.3.1-3.7.2-6.7.2-9.1 0-2.5 0-4.4.1-6 0-1.7.1-3 .2-4.4.1-1.3.3-2.6.5-4.1.1-.7.3-1.8.7-3.2.4-1.4.9-3.1 1.6-5 .7-1.8 1.6-3.8 2.7-5.7 1.1-1.9 2.5-3.8 4.2-5.5 1.9-1.9 3.9-3.2 5.9-4.2 2-.9 3.9-1.4 5.7-1.7 1.8-.2 3.4-.2 4.8-.1s2.5.3 3.3.5c.7.2 1.9.5 3.3 1.1 1.4.6 3.1 1.3 4.9 2.5 1.8 1.1 3.8 2.6 5.9 4.5 2 1.9 4.1 4.3 6.2 7.2 1.8 2.6 3.3 5.3 4.5 7.8 1.2 2.6 2.2 5.1 3 7.4.8 2.3 1.3 4.3 1.7 6s.6 3 .8 3.7c.3 1.7.5 3.1.6 4.6.1 1.4.2 2.9.2 4.6 0 1.7.1 3.8.1 6.3 0 2.6.1 5.7.3 9.6.1 2 .2 3.9.3 5.7.1 1.8.2 3.5.3 5.1.1 1.6.2 3 .3 4.4.1 1.3.2 2.5.3 3.6.1.5.1.9.2 1.4.1.4.1.8.1 1.2 0 .4.1.8.1 1.1-.2.3-.2.6-.2.9zM52.1 65.4c2 .5 3.9.5 5.6-.1 1.7-.6 3.3-1.6 4.6-3.1 1.3-1.5 2.4-3.4 3.1-5.7.7-2.3 1.1-4.9 1.1-7.7s-.4-5.7-1.2-8.3c-.7-2.7-1.8-5.1-3.1-7.3s-2.9-4.1-4.6-5.6c-1.7-1.5-3.6-2.5-5.6-3-2-.5-3.9-.4-5.6.2-1.7.6-3.2 1.7-4.5 3.3-1.3 1.5-2.3 3.5-3 5.7-.7 2.2-1.1 4.8-1.1 7.6s.4 5.6 1.2 8.2c.7 2.6 1.8 5.1 3.1 7.2 1.3 2.2 2.8 4.1 4.5 5.5 1.7 1.4 3.5 2.5 5.5 3.1"/><path d="M52 40.6c.4.1.8.3 1.2.7.4.3.7.7 1 1.2.3.5.5 1 .7 1.6.2.6.2 1.2.3 1.8 0 .6-.1 1.2-.2 1.7-.2.5-.4.9-.7 1.2-.3.3-.6.6-1 .7-.4.1-.8.1-1.2 0-.4-.1-.8-.3-1.2-.7-.4-.3-.7-.7-1-1.2-.3-.5-.5-1-.7-1.6-.2-.6-.2-1.2-.2-1.8 0-.6.1-1.2.2-1.6.2-.5.4-.9.7-1.2.3-.3.6-.6 1-.7.3-.2.7-.2 1.1-.1z"/><path class="cst37" d="M51.9 24.5c2 .5 3.9 1.5 5.6 3 1.7 1.5 3.3 3.4 4.6 5.6 1.3 2.2 2.4 4.7 3.1 7.3.7 2.7 1.2 5.5 1.2 8.3 0 2.8-.4 5.4-1.1 7.7-.7 2.3-1.8 4.2-3.1 5.7s-2.9 2.6-4.6 3.1c-1.7.6-3.6.6-5.6.1-2-.5-3.8-1.6-5.6-3.1-1.7-1.5-3.2-3.4-4.5-5.5-1.3-2.2-2.3-4.6-3.1-7.2-.7-2.6-1.1-5.4-1.2-8.2 0-2.8.4-5.4 1.1-7.6.7-2.3 1.7-4.2 3-5.7s2.8-2.6 4.5-3.3c1.9-.5 3.8-.7 5.7-.2zm.1 24.9c.4.1.8.1 1.2 0 .4-.1.7-.4 1-.7.3-.3.5-.7.7-1.2.2-.5.2-1 .2-1.7 0-.6-.1-1.2-.3-1.8-.2-.6-.4-1.1-.7-1.6-.3-.5-.6-.9-1-1.2-.4-.3-.8-.5-1.2-.7-.4-.1-.8-.1-1.2 0-.4.1-.7.4-1 .7-.3.3-.5.7-.7 1.2-.2.5-.2 1-.2 1.6 0 .6.1 1.2.2 1.8.2.6.4 1.1.7 1.6.3.5.6.9 1 1.2.5.5.9.7 1.3.8"/><g class="cst0"><defs><path id="cSVGID_51_" class="cst0" d="M84.4 100.4l6.9-1.8c.1.5.1.9.2 1.4.1.4.1.8.1 1.2 0 .4.1.8.1 1.1 0 .3 0 .7.1.9l-6.9 1.9c0-.3 0-.6-.1-.9 0-.3-.1-.7-.1-1.1 0-.4-.1-.8-.1-1.2-.1-.6-.2-1-.2-1.5z"/></defs><clipPath id="cSVGID_52_"><use xlink:href="#cSVGID_51_" overflow="visible"/></clipPath><g class="cst38"><path class="cst6" d="M84.4 100.4l6.9-1.8c.1.5.1.9.2 1.4.1.4.1.8.1 1.2 0 .4.1.8.1 1.1 0 .3 0 .7.1.9l-6.9 1.9c0-.3 0-.6-.1-.9 0-.3-.1-.7-.1-1.1 0-.4-.1-.8-.1-1.2-.1-.6-.2-1-.2-1.5"/></g></g></g><path class="cst39" d="M-.1.2h112v112H-.1z"/></svg><svg id="VR360Camera" viewBox="-1 -1 114 114" width="114" height="114" x="114" y="114"><style>.dst0{fill:none}</style><path d="M56.5 21.2c-1 0-2.1.1-3 .4.9 1 1.5 2.4 1.5 3.9 0 3.2-2.6 5.8-5.8 5.8-1.5 0-3-.6-4-1.6-.3 1-.5 2.1-.5 3.3 0 6.5 5.3 11.8 11.8 11.8S68.3 39.5 68.3 33 63 21.2 56.5 21.2z"/><path d="M56.5 12c-11.6 0-21 9.4-21 21s9.4 21 21 21 21-9.4 21-21-9.4-21-21-21zm0 37.6c-9.2 0-16.6-7.4-16.6-16.6s7.4-16.6 16.6-16.6S73.1 23.8 73.1 33s-7.4 16.6-16.6 16.6zM47.7 55.8v15.6l14.1-7.6zM66.4 60.2s.9-.1 2.3-.4c.8-.1 1.6-.3 2.6-.4 1-.2 2.1-.4 3.3-.7 1.2-.3 2.5-.6 3.8-1 1.3-.4 2.7-.9 4.1-1.4 1.4-.6 2.8-1.2 4.1-1.9.7-.4 1.3-.7 1.9-1.2.6-.4 1.2-.9 1.7-1.3 1-.9 1.9-2 2.3-3 .1-.3.2-.5.2-.7.1-.2.1-.5.1-.7v-.1.2V46.7c0-.1 0-.2-.1-.2v-.1l.1-.4c-.3-1-.9-2-1.6-2.9-.8-.9-1.7-1.7-2.6-2.5-.9-.7-1.8-1.3-2.7-1.8-.8-.5-1.6-1-2.2-1.3-1.3-.7-2-1.1-2-1.1h-.1c-.9-.4-1.2-1.5-.8-2.4.4-.8 1.2-1.1 2-.9 0 0 .2.1.6.2.4.1 1 .3 1.8.5s1.7.6 2.7 1c1 .5 2.2 1 3.4 1.7 1.2.7 2.5 1.6 3.8 2.9 1.2 1.2 2.5 2.8 3.2 4.9l.1.4.1.5c.1.3.1.6.2 1l.1.6V47.7c-.1.6-.1 1.2-.2 1.7-.1.6-.3 1.1-.5 1.7-.8 2.1-2.2 3.8-3.7 5.3-.8.7-1.5 1.4-2.3 1.9-.8.6-1.6 1.1-2.4 1.6-1.6 1-3.3 1.7-4.9 2.4-1.6.6-3.2 1.2-4.7 1.6-.7.2-1.5.4-2.2.6-.7.2-1.4.4-2.1.5-1.3.3-2.5.5-3.6.7-1.1.2-2.1.4-2.8.4-1.5.2-2.4.3-2.4.3-1.7.2-3.3-1-3.5-2.8.1-1.6 1.2-3.1 2.9-3.4z"/><path d="M32.3 36.1s-.2.1-.7.4c-.4.2-1.1.6-1.8 1s-1.7.9-2.6 1.6c-1 .6-2.1 1.4-3.1 2.3-1 .9-2 1.9-2.7 3-.3.6-.6 1.1-.8 1.7-.1.3-.1.5-.2.8V48.2c0 .1 0 .1.1.3.1.3.2.6.3.8.3.6.7 1.1 1.2 1.7 1.1 1.1 2.5 2.2 4.1 3.1 1.6.9 3.3 1.7 5.1 2.4 1.8.7 3.6 1.3 5.3 1.7 1.8.5 3.5.9 5.2 1.2 1.7.3 3.3.6 4.7.8 1.5.2 2.8.4 4.1.5 1.2.1 2.3.2 3.1.5.9.2 1.6.5 2 .7.5.2.7.4.7.4 1 .6 1.2 1.9.6 2.9-.2.3-.4.5-.7.6 0 0-1.1.6-2.9 1-.9.2-2.1.2-3.4.1-1.3-.1-2.8-.1-4.4-.3-1.6-.1-3.3-.4-5.2-.6-1.8-.3-3.8-.7-5.7-1.2-2-.5-4-1.1-6.1-1.9-2-.8-4.1-1.8-6.1-2.9-2-1.2-3.9-2.7-5.6-4.6-.8-1-1.6-2.1-2.1-3.3-.3-.6-.5-1.3-.7-2-.1-.3-.2-.8-.2-1.1 0-.2-.1-.4-.1-.6v-.9V46.9c0-.3.1-.7.1-1 .1-.7.3-1.3.5-1.9.4-1.2 1.1-2.3 1.7-3.2 1.4-1.8 2.9-3 4.4-4 1.5-1 2.9-1.6 4.1-2.2 1.3-.5 2.4-.9 3.3-1.2 1-.3 1.7-.5 2.1-.5.5-.1.7-.2.7-.2 1-.2 1.9.4 2.1 1.4.7.8.3 1.6-.4 2zM28.1 91.1l3.2-.4c.4 1.8 1 3.1 1.9 4 .9.8 2 1.2 3.3 1.2 1.5 0 2.8-.5 3.8-1.6s1.6-2.4 1.6-3.9-.5-2.7-1.5-3.7-2.2-1.4-3.7-1.4c-.6 0-1.4.1-2.3.4l.4-2.8h.5c1.4 0 2.6-.4 3.7-1.1 1.1-.7 1.7-1.8 1.7-3.3 0-1.2-.4-2.2-1.2-2.9-.8-.8-1.8-1.2-3.1-1.2s-2.3.4-3.1 1.2c-.8.8-1.4 2-1.6 3.6l-3.2-.6c.4-2.2 1.3-3.8 2.7-5 1.4-1.2 3.1-1.8 5.2-1.8 1.4 0 2.8.3 4 .9 1.2.6 2.1 1.5 2.8 2.5.6 1.1 1 2.2 1 3.4 0 1.1-.3 2.2-.9 3.1-.6.9-1.5 1.7-2.7 2.2 1.6.4 2.8 1.1 3.6 2.2.9 1.1 1.3 2.5 1.3 4.2 0 2.3-.8 4.2-2.5 5.8-1.7 1.6-3.8 2.4-6.4 2.4-2.3 0-4.2-.7-5.8-2.1-1.6-1.3-2.5-3.1-2.7-5.3zM65.3 78.2l-3.2.3c-.3-1.3-.7-2.2-1.2-2.8-.9-.9-1.9-1.4-3.2-1.4-1 0-1.9.3-2.7.9-1 .7-1.8 1.8-2.4 3.2-.6 1.4-.9 3.5-.9 6.1.8-1.2 1.7-2.1 2.9-2.6 1.1-.6 2.3-.9 3.5-.9 2.2 0 4 .8 5.5 2.4 1.5 1.6 2.3 3.6 2.3 6.1 0 1.7-.4 3.2-1.1 4.6-.7 1.4-1.7 2.5-2.9 3.3-1.2.8-2.7 1.1-4.2 1.1-2.7 0-4.9-1-6.6-3-1.7-2-2.5-5.2-2.5-9.8 0-5.1.9-8.8 2.8-11.1 1.6-2 3.8-3 6.6-3 2.1 0 3.8.6 5.1 1.7 1.1 1.3 1.9 2.9 2.2 4.9zM52.1 89.5c0 1.1.2 2.2.7 3.2.5 1 1.1 1.8 2 2.3.8.5 1.7.8 2.7.8 1.4 0 2.5-.6 3.5-1.7s1.5-2.6 1.5-4.5c0-1.8-.5-3.3-1.5-4.3s-2.2-1.6-3.7-1.6-2.7.5-3.7 1.6c-1 1.2-1.5 2.5-1.5 4.2zM69 85.1c0-3.1.3-5.6 1-7.5.6-1.9 1.6-3.4 2.9-4.4 1.3-1 2.8-1.5 4.8-1.5 1.4 0 2.6.3 3.7.9 1.1.6 1.9 1.4 2.6 2.5.7 1.1 1.2 2.4 1.6 3.9.4 1.5.6 3.6.6 6.2 0 3.1-.3 5.6-1 7.5-.6 1.9-1.6 3.4-2.8 4.4-1.3 1-2.9 1.6-4.8 1.6-2.5 0-4.5-.9-6-2.7-1.8-2.4-2.6-6-2.6-10.9zm3.3 0c0 4.3.5 7.2 1.5 8.6 1 1.4 2.3 2.1 3.7 2.1s2.7-.7 3.7-2.2c1-1.4 1.5-4.3 1.5-8.6s-.5-7.2-1.5-8.6c-1-1.4-2.3-2.1-3.8-2.1s-2.7.6-3.6 1.9c-.9 1.6-1.5 4.6-1.5 8.9zM89.1 69.3c0-1 .4-1.9 1.1-2.7.8-.7 1.6-1.1 2.7-1.1 1 0 1.9.4 2.7 1.1.7.8 1.1 1.7 1.1 2.7 0 1.1-.4 2-1.1 2.8-.7.7-1.6 1.1-2.7 1.1s-2-.4-2.7-1.1c-.7-.8-1.1-1.7-1.1-2.8zm1.6 0c0 .7.2 1.2.7 1.7.4.5 1 .7 1.6.7.6 0 1.1-.2 1.6-.7.4-.5.7-1 .7-1.6 0-.6-.2-1.2-.7-1.6-.4-.5-1-.7-1.6-.7-.6 0-1.1.2-1.6.7-.5.3-.7.9-.7 1.5z"/><path class="dst0" d="M0-.2h112v112H0z"/></svg><svg id="VRGameDevelopment" viewBox="-1 -1 114 114" width="114" height="114" x="228"><style>.est0,.est1{fill:none;stroke:#000;stroke-width:2;stroke-linecap:round;stroke-miterlimit:10}.est0{stroke-linejoin:round}.est1{stroke-dasharray:.2023,2.4271}.est2,.est3{fill:#fff}.est3{stroke:#000;stroke-width:2;stroke-linecap:round;stroke-linejoin:round;stroke-miterlimit:10}.est4{fill:none}</style><path class="est0" d="M37.1 32.6h54.7c2.9 0 5.2 2.3 5.2 5.2v4.6m0 19.3V46.3m-80.8 13v11.5c0 2.6 2.1 4.7 4.7 4.7h23.4c.5 0 1.2-.2 2-.6 1.4-.8 2.1-2 2.3-2.5.8-3.3 1.9-7 2.7-10.2.2-.5.9-1.8 2.5-2.6 1.2-.6 2.5-.7 2.9-.7s1.8.1 2.9.7c1.6.8 2.2 2.2 2.5 2.6.8 3.3 1.9 7 2.7 10.2.2.5.9 1.7 2.3 2.5.8.4 1.5.6 2 .6h23.4c2.6 0 4.7-2.1 4.7-4.7v-5.3"/><path class="est1" d="M33.9 32.6H21.4c-2.9 0-5.2 2.3-5.2 5.2v19.5"/><path class="est2" d="M37.1 59.9c-5.4 0-9.8-4.4-9.8-9.8s4.4-9.8 9.8-9.8 9.8 4.4 9.8 9.8-4.4 9.8-9.8 9.8z"/><path d="M37.1 41.3c4.8 0 8.8 3.9 8.8 8.8 0 4.8-3.9 8.8-8.8 8.8-4.8 0-8.8-3.9-8.8-8.8 0-4.8 4-8.8 8.8-8.8m0-2c-5.9 0-10.8 4.8-10.8 10.8 0 5.9 4.8 10.8 10.8 10.8 5.9 0 10.8-4.8 10.8-10.8 0-5.9-4.9-10.8-10.8-10.8z"/><path class="est3" d="M37.1 44.4c-3.2 0-5.7 2.6-5.7 5.7"/><g><path class="est2" d="M76.4 59.9c-5.4 0-9.8-4.4-9.8-9.8s4.4-9.8 9.8-9.8 9.8 4.4 9.8 9.8-4.4 9.8-9.8 9.8z"/><path d="M76.4 41.3c4.8 0 8.8 3.9 8.8 8.8 0 4.8-3.9 8.8-8.8 8.8-4.8 0-8.8-3.9-8.8-8.8.1-4.8 4-8.8 8.8-8.8m0-2c-5.9 0-10.8 4.8-10.8 10.8 0 5.9 4.8 10.8 10.8 10.8 5.9 0 10.8-4.8 10.8-10.8 0-5.9-4.8-10.8-10.8-10.8z"/><path class="est3" d="M76.4 44.4c-3.2 0-5.7 2.6-5.7 5.7"/></g><path class="est4" d="M0-.2h112v112H0z"/></svg><svg id="VRGameEngine" viewBox="-1 -1 114 114" width="114" height="114" x="228" y="114"><style>.fst0{fill:none;stroke:#000;stroke-width:3.2587;stroke-linecap:round;stroke-miterlimit:10}.fst1{fill:#fff}.fst2{fill:none}</style><path class="fst0" d="M7.3 102.3c5.2-1.2 16.3-4.5 25.8-14.3 4.9-5.1 7.9-10.3 9.7-14.2M103.1 102.3C98 101.1 86.9 97.8 77.3 88c-4.9-5.1-7.9-10.3-9.7-14.2"/><path class="fst1" d="M55.2 83c-12.4 0-23.7-20.5-26-38.9-1.5-11.9.9-22.2 6.9-29 4.8-5.4 11.4-8.2 19.2-8.2s14.4 2.9 19.2 8.2c5.9 6.8 8.4 17 6.9 29C78.9 62.5 67.6 83 55.2 83z"/><path d="M55.2 8.5c16.5 0 27.2 13.7 24.4 35.4-2.2 17.7-13 37.5-24.4 37.5S33 61.5 30.8 43.9C28 22.2 38.7 8.5 55.2 8.5m0-3.3c-8.3 0-15.3 3-20.4 8.8-6.3 7.1-8.8 17.8-7.3 30.2C30 63.8 41.7 84.6 55.2 84.6s25.2-20.8 27.6-40.3c1.6-12.4-1-23.1-7.3-30.2-5-5.8-12-8.9-20.3-8.9z"/><path class="fst1" d="M41.3 56.5c-8.6 0-15.5-7-15.5-15.5s7-15.5 15.5-15.5h28.2c8.6 0 15.5 7 15.5 15.5s-7 15.5-15.5 15.5H41.3z"/><path d="M69.5 27c7.7 0 13.9 6.2 13.9 13.9s-6.2 13.9-13.9 13.9H41.3c-7.7 0-13.9-6.2-13.9-13.9S33.6 27 41.3 27h28.2m0-3.2H41.3c-9.5 0-17.2 7.7-17.2 17.2s7.7 17.2 17.2 17.2h28.2c9.5 0 17.2-7.7 17.2-17.2S79 23.8 69.5 23.8z"/><g><path d="M39.5 30.8c1 0 1.9.7 2.3 1.7l4.4 13.1c.1.2.4.2.4 0L51 32.5c.3-1.1 1.3-1.8 2.3-1.8 1.3 0 2.3 1.1 2.3 2.5 0 .4-.1.6-.1.9l-4.8 13.2c-.8 2.3-2.2 3.4-4.2 3.4s-3.4-1.1-4.2-3.4l-4.7-13.2c-.1-.3-.1-.6-.1-.9-.2-1.3.7-2.4 2-2.4zM62.5 44.1v4c0 1.3-1.1 2.4-2.4 2.4-1.2 0-2.3-1.1-2.3-2.4V33.6c0-1.6 1.1-2.8 2.9-2.8h5.7c2 0 3.6.6 4.9 1.7 1.3 1.2 2 2.8 2 4.8 0 3-1.5 4.7-3.4 5.5l3.3 3.6c.4.4.6 1 .6 1.7s-.2 1.2-.6 1.6c-.5.5-1.1.7-1.8.7s-1.2-.2-1.6-.7l-4-4.9c-.5-.6-.9-.9-1.5-.9h-1.8zm0-4.3h3.4c1.8 0 2.7-.8 2.7-2.3 0-1.5-.8-2.4-2.6-2.4h-3.5v4.7z"/></g><path class="fst2" d="M0-.2h112v112H0z"/></svg><svg id="VRGameInterface" viewBox="-1 -1 114 114" width="114" height="114" y="228"><style>.gst0{fill:none}</style><path d="M92.6 80.8C88.4 76.6 80.2 68 72.8 57.6c-3.8-5.4-7.5-11.5-8.4-13-2.3-3.9-3.5-5.8-4-7.1-.9-2.2-1.6-4.3-3.5-7-1.1-1.6-2.2-2.7-3.7-3-1-.2-1.8 0-2.4.2l-4 2.9-2.7-3.8 1 1.4c2.8-4.9 2.7-11.3-.9-16.2-4.8-6.7-14.1-8.1-20.8-3.3-6.7 4.8-8.1 14.1-3.3 20.8 3.6 4.9 9.5 7 15.1 5.8l1.7 2.3-4 2.9c-.3.5-.8 1.2-.9 2.2-.2 1.6.5 2.9 1.7 4.5 2 2.7 3.8 3.9 5.6 5.5 1.1.9 2.5 2.6 5.5 6 1.2 1.4 5.9 6.8 9.8 12 7.7 10.3 13.3 20.8 16 26 .7.9 3.7 4.3 9 5.1 5.2.8 9.1-1.5 10.1-2.1.9-.7 4.3-3.7 5.1-8.9.7-5.1-1.6-9-2.2-10zM58 52.1c.2.3.2.8-.2 1l-3 2.2c-.3.2-.8.2-1-.2l-2.2-3-3 2.2c-.3.2-.8.2-1-.2l-2.2-3c-.2-.3-.2-.8.2-1l3-2.2-2.2-3c-.2-.3-.2-.8.2-1l3-2.2c.3-.2.8-.2 1 .2l2.2 3 3-2.2c.3-.2.8-.2 1 .2l2.2 3c.2.3.2.8-.2 1l-3 2.2 2.2 3zm7.5 14.7c-1.9 1.4-4.5.9-5.8-.9-1.4-1.9-.9-4.5.9-5.8 1.9-1.4 4.5-.9 5.8.9 1.4 1.8.9 4.4-.9 5.8z"/><path class="gst0" d="M0-.2h112v112H0z"/></svg><svg id="bgCreation" viewBox="-1 -1 114 114" width="114" height="114" x="114" y="228"><style>.hst0{stroke:#000;stroke-width:6.7627;stroke-miterlimit:10}.hst0,.hst1{fill:none}</style><path class="hst0" d="M57.2 52.3v49.9M82.2 102.2V15.5H45.4v86.7M45.4 28h36.8M45.4 40.3h36.8"/><path class="hst0" d="M82.2 52.3H34v49.9M21.2 89.8H94"/><path class="hst0" d="M34 64.6h60v37.6H21.2V77H94"/><path class="hst1" d="M.1.1h112v112H.1z"/></svg><svg id="characterDesign" viewBox="-1 -1 114 114" width="114" height="114" x="228" y="228"><style>.ist0{fill:none}</style><circle cx="55.5" cy="11.6" r="9.2"/><path d="M63.4 25.6H47.6c-8.3 0-15 6.7-15 15v22.2c0 2.5 2.1 4.6 4.6 4.6s4.6-2.1 4.6-4.6V40.5c0-.4.3-.6.6-.6s.6.3.6.6v63.8c0 3.1 2.5 5.7 5.7 5.7 3.1 0 5.7-2.5 5.7-5.7V73.9c0-.6.5-1.1 1.1-1.1s1.1.5 1.1 1.1v30.5c0 3.1 2.5 5.7 5.7 5.7s5.7-2.5 5.7-5.7V40.5c0-.4.3-.6.6-.6s.6.3.6.6v22.3c0 2.5 2.1 4.6 4.6 4.6s4.6-2.1 4.6-4.6V40.6c0-8.3-6.7-15-15-15z"/><path class="ist0" d="M.1.1h112v112H.1z"/></svg><svg id="crossPlatFormApp" viewBox="-1 -1 114 114" width="114" height="114" x="342"><style>.jst0,.jst1{fill:none;stroke:#000;stroke-width:1.0983;stroke-linecap:round;stroke-linejoin:round}.jst1{stroke-dasharray:2.3677,2.3677}.jst2{fill:none;stroke-dasharray:2.3216,2.3216}.jst2,.jst3,.jst4{stroke:#000;stroke-width:1.0983;stroke-linecap:round;stroke-linejoin:round}.jst3{fill:none;stroke-dasharray:2.4113,2.4113}.jst4{stroke-dasharray:2.3008,2.3008}.jst4,.jst5{fill:none}</style><path d="M54.1 7.4h-7.9c-.6 0-1 .5-1 1v14.7c0 .6.5 1 1 1h7.9c.6 0 1-.5 1-1V8.5c0-.6-.4-1.1-1-1.1zm-1.2.8c.2 0 .4.2.4.4s-.2.4-.4.4-.4-.2-.4-.4.1-.4.4-.4zm-3.6 0h1.4c.2 0 .4.2.4.4s-.2.4-.4.4h-1.4c-.2 0-.4-.2-.4-.4s.2-.4.4-.4zm1.4 15.2h-1.5c-.2 0-.4-.2-.4-.4s.2-.4.4-.4h1.5c.2 0 .4.2.4.4s-.1.4-.4.4zm3.3-1.7h-7.7V10H54v11.7zM18.2 75.4H4.7c-.7 0-1.3.6-1.3 1.3v18.7c0 .7.6 1.3 1.3 1.3h13.5c.7 0 1.3-.6 1.3-1.3V76.7c0-.7-.6-1.3-1.3-1.3zm-5.8 19.4c0 .2-.2.4-.4.4h-1c-.2 0-.4-.2-.4-.4v-.1c0-.2.2-.4.4-.4h.9c.3 0 .5.2.5.5zm5-1.6H5.5V77.7h11.9v15.5zM68.2 94.1H65V75c0-1-.8-1.8-1.8-1.8H36.9c-1 0-1.8.8-1.8 1.8v19.1h-3.2c-.7 0-1.2.6-1.2 1.2 0 .7.6 1.2 1.2 1.2h36.3c.7 0 1.2-.6 1.2-1.2s-.5-1.2-1.2-1.2zm-5.7-1.2h-25V75.7h25v17.2zM106.9 66.3H80c-1.1 0-1.9.9-1.9 1.9v20.6c0 1.1.9 1.9 1.9 1.9h9.9v3.6h-2.2c-1.3 0-2.3 1-2.3 2.3h16.2c0-1.3-1-2.3-2.3-2.3H97v-3.6h9.9c1.1 0 1.9-.9 1.9-1.9V68.2c0-1.1-.8-1.9-1.9-1.9zm-.7 21.8H80.7V68.8h25.5v19.3z"/><path class="jst0" d="M50.1 27.4v1.2"/><path class="jst1" d="M50.1 30.9v36.7"/><path class="jst0" d="M50.1 68.8V70"/><g><path class="jst0" d="M11.5 72v-1.2"/><path class="jst2" d="M11.5 68.5V51.1"/><path class="jst0" d="M11.5 49.9v-1.2h1.2"/><path class="jst3" d="M15.1 48.7H91"/><path class="jst0" d="M92.2 48.7h1.3v1.2"/><path class="jst4" d="M93.5 52.2v8.1"/><path class="jst0" d="M93.5 61.4v1.2"/></g><path class="jst5" d="M.1-.2h112v112H.1z"/></svg><svg id="gameDevelopment" viewBox="-1 -1 114 114" width="114" height="114"><style>.kst0{fill:#fff}.kst1{fill:none}</style><path d="M30.9 44.3h49.8v36.1H30.9z"/><path d="M105.7 45.4h-.9c-6.3 0-11.4-5.1-11.4-11.4 0-.5-.4-.8-.8-.8H19.3c-.5 0-.8.4-.8.8 0 6.3-5.1 11.4-11.4 11.4H5.9c-1.7 0-3.1 1.4-3.1 3.1v27.8c0 1.7 1.4 3.1 3.1 3.1H7c6.3 0 11.4 5.1 11.4 11.4 0 .3.2.5.5.5h73.9c.3 0 .5-.2.5-.5 0-6.3 5.1-11.4 11.4-11.4h.9c1.7 0 3.1-1.4 3.1-3.1V48.5c.1-1.7-1.3-3.1-3-3.1zM23.3 64.5h-5.5v5.7h-6.2v-5.7H6v-6.2h5.5v-5.4h6.2v5.4h5.5v6.2zm60.5 18.8H28.1V41.6h55.7v41.7zm5.3-17.7c-1.7 0-3.2-1.4-3.2-3.2 0-1.7 1.4-3.2 3.2-3.2s3.2 1.4 3.2 3.2c0 1.8-1.4 3.2-3.2 3.2zm6.7 6.5c-1.7 0-3.2-1.4-3.2-3.2s1.4-3.2 3.2-3.2 3.2 1.4 3.2 3.2-1.5 3.2-3.2 3.2zm0-13.1c-1.7 0-3.2-1.4-3.2-3.2s1.4-3.2 3.2-3.2S99 54 99 55.8 97.5 59 95.8 59zm6.6 6.6c-1.7 0-3.2-1.4-3.2-3.2 0-1.7 1.4-3.2 3.2-3.2s3.2 1.4 3.2 3.2c0 1.8-1.4 3.2-3.2 3.2z"/><path class="kst0" d="M76.2 56.8l-1.1-.6c-1.1-.6-1.6-1.9-1.3-3.1l.4-1.2c.4-1.5-.9-2.8-2.4-2.4l-1.2.4c-1.2.3-2.5-.2-3.1-1.3l-.6-1.1c-.7-1.3-2.7-1.3-3.4 0l-.6 1.1c-.6 1.1-1.9 1.6-3.1 1.3l-1.2-.4c-1.5-.4-2.8.9-2.4 2.4l.4 1.2c.3 1.2-.2 2.5-1.3 3.1l-1.1.6c-1.3.7-1.3 2.7 0 3.4l1.1.6c1.1.6 1.6 1.9 1.3 3.1l-.4 1.1c-.4 1.5.9 2.8 2.4 2.4l1.2-.4c1.2-.3 2.5.2 3.1 1.3l.6 1.1c.7 1.3 2.7 1.3 3.4 0l.6-1.1c.6-1.1 1.9-1.6 3.1-1.3l1.2.4c1.5.4 2.8-.9 2.4-2.4l-.4-1.2c-.3-1.2.2-2.5 1.3-3.1l1.1-.6c1.3-.7 1.3-2.6 0-3.3zm-11 6.3c-2.6 0-4.7-2.1-4.7-4.7s2.1-4.7 4.7-4.7 4.7 2.1 4.7 4.7-2.1 4.7-4.7 4.7zM56.7 68.6l-.8-.4c-.8-.3-1.2-1.2-1.1-2l.2-.9c.2-1-.8-1.9-1.8-1.5l-.8.3c-.8.3-1.7 0-2.2-.7l-.5-.7c-.6-.9-1.9-.8-2.3.2l-.4.9c-.3.8-1.2 1.2-2 1.1l-.9-.2c-1-.2-1.9.8-1.5 1.8l.3.8c.3.8 0 1.7-.7 2.2l-.7.5c-.9.6-.8 1.9.2 2.3l.8.4c.8.3 1.2 1.2 1.1 2l-.2.9c-.2 1 .8 1.9 1.8 1.5l.8-.3c.8-.3 1.7 0 2.2.7l.5.7c.6.9 1.9.8 2.3-.2l.4-.8c.3-.8 1.2-1.2 2-1.1l.9.2c1 .2 1.9-.8 1.5-1.8l-.3-.8c-.3-.8 0-1.7.7-2.2l.7-.5c.9-.6.8-1.9-.2-2.4zm-7.2 5.1c-1.8.2-3.4-1.2-3.5-2.9s1.2-3.4 2.9-3.5 3.4 1.2 3.5 2.9-1.1 3.4-2.9 3.5z"/><path class="kst1" d="M-.2.5h112v112H-.2z"/></svg><svg id="gameEnvironmentDevelopment" viewBox="-1 -1 114 114" width="114" height="114" x="342" y="228"><style>.lst0{stroke:#000;stroke-width:4.9423;stroke-miterlimit:10}.lst0,.lst1{fill:none}</style><circle cx="45.1" cy="71.7" r="6.2"/><circle cx="67.7" cy="71.7" r="6.2"/><path d="M98.9 86.1L88.5 48.5c-1.5-5.4-6.4-9.1-12-9.1H62v-5.1H50.8v5.1H36.4c-5.6 0-10.5 3.7-12 9.1L14 86.1c-1.1 4 1.2 8.2 5.2 9.4 3.6 1.1 7.5-.6 9.2-4.1l8.1-17.2c-.2-.8-.4-1.7-.4-2.5 0-5 4.1-9.1 9.1-9.1 4.7 0 8.5 3.5 9.1 8.1h4.5c.5-4.6 4.4-8.1 9.1-8.1 5 0 9.1 4.1 9.1 9.1 0 .9-.1 1.7-.4 2.5l8.1 17.2c1.6 3.4 5.5 5.2 9.2 4.1 3.8-1.3 6.1-5.4 5-9.4zm-55-28.8h-4.8v4.8h-5.6v-4.8h-4.8v-5.6h4.8v-4.8h5.6v4.8h4.8v5.6zm31.5-10.7c1.6 0 3 1.3 3 3 0 1.6-1.3 3-3 3s-3-1.3-3-3 1.3-3 3-3zm-21.7 13h-2.2c-.9 0-1.7-.8-1.7-1.7s.8-1.7 1.7-1.7h2.2c.9 0 1.7.8 1.7 1.7s-.8 1.7-1.7 1.7zm7.6 0h-2.2c-.9 0-1.7-.8-1.7-1.7s.8-1.7 1.7-1.7h2.2c.9 0 1.7.8 1.7 1.7s-.8 1.7-1.7 1.7zm8.3-1.3c-1.6 0-3-1.3-3-3s1.3-3 3-3 3 1.3 3 3-1.4 3-3 3zm5.8 5.8c-1.6 0-3-1.3-3-3 0-1.6 1.3-3 3-3s3 1.3 3 3c-.1 1.7-1.4 3-3 3zm5.8-5.8c-1.6 0-3-1.3-3-3s1.3-3 3-3 3 1.3 3 3-1.4 3-3 3z"/><path class="lst0" d="M56.7 37.5v-3.3c0-2.8 2.3-5.1 5.1-5.1h9.3c2.8 0 5.1-2.3 5.1-5.1v-8.1"/><path class="lst1" d="M0-.2h112v112H0z"/></svg><svg id="gameFX" viewBox="-1 -1 114 114" width="114" height="114" y="342"><style>.mst0{stroke:#000;stroke-width:3.3557;stroke-linecap:round;stroke-linejoin:round;stroke-miterlimit:10}.mst0,.mst1{fill:none}</style><path class="mst0" d="M63.2 28.4l3.7-8.2 3.7 8.2 8.1 3.4-8.1 3.4-3.6 8.3-3.7-8.2-8.1-3.4 8-3.5zm-19 26.8l8.1 3.4 3.7 8.2 3.7-8.2 8.1-3.4-8.1-3.4-3.7-8.2-3.7 8.2-8.1 3.4zM63.9 82l6.5 2.7 3 6.5 3-6.5 6.5-2.7-6.5-2.7-3-6.5-3 6.5-6.5 2.7zm-32-29.3c-1.2 1.2-2.8 3.2-2.6 5.5.4 4.2 6.5 6.4 10.1 7.7 2.5.9 6.3 1.9 11.2 1.9m-8.9-24c-2.5.4-6.4 1.4-10.6 3.9-3.9 2.3-10.6 6.2-10.9 12.2-.2 4.9 3.9 8.8 5.7 10.4 3 2.8 6.2 3.9 10.6 5.4 1.1.4 4.9 1.6 10.3 2.3 3.4.4 8.2.7 13.9.1m4.6-11.4c1.3 0 3.1 0 5.1-.4 1.2-.2 3.1-.5 5.1-1.5 1.9-.9 6.3-2.9 6.6-6.4.2-2.2-1.3-4.1-2-4.9-1.4-1.8-3.2-2.6-4.1-3m2.4 23.6c3.7-1.6 6.4-3.5 8.2-4.9 2.6-2.1 3.5-3.5 4-4.5 1.1-2.2 1.2-4.2 1.2-4.8 0-3.4-1.5-5.8-2.2-6.8-1.9-2.8-4.4-4.2-7.7-6-2.3-1.3-4.4-2-5.8-2.5M23.2 81.2c3.9 2.7 10.8 6.8 20.2 8.9 10.1 2.2 18.5 1.1 23.2.2"/><path class="mst1" d="M0-.2h112v112H0z"/></svg><svg id="gameObjectOutput" viewBox="-1 -1 114 114" width="114" height="114" x="114" y="342"><style>.nst0{fill:none}</style><path d="M60.8 67.1H42.3c-2.6 0-3.6-1-3.6-3.6v-15c0-2.4 1-3.4 3.4-3.4H60.7v-2-9.9c0-1.3.4-2.3 1.7-2.9 1.3-.6 2.3-.1 3.2.8 7.6 7.6 15.3 15.2 22.9 22.9 1.5 1.5 1.5 2.9 0 4.4L65.8 81.1c-.9.9-1.9 1.5-3.2.9-1.3-.6-1.8-1.6-1.8-3V68.9v-1.8zm-38.6-11V71c.1 7.3 5.4 12.6 12.7 12.6h12.9c1.2 0 1.8-.5 1.9-1.6.1-.6.1-1.3 0-1.9-.1-1.7-.4-2-2.1-2H35.1c-4.5 0-7.4-2.8-7.4-7.3-.1-9.9-.1-19.7 0-29.6 0-4.5 2.9-7.2 7.4-7.2h12.5c1.7 0 2-.3 2.1-2v-1.5c-.2-1.8-.4-2-2.2-2H35.1c-7.6 0-12.9 5.3-12.9 12.9v14.7z"/><path class="nst0" d="M0-.2h112v112H0z"/></svg><svg id="gameSettingDesign" viewBox="-1 -1 114 114" width="114" height="114" x="228" y="342"><style>.ost0{fill:#fff}.ost1{fill:none}</style><circle class="ost0" cx="89.2" cy="30.2" r="7.9"/><path class="ost0" d="M41.8 69.4l13.8 12.3-15.9-9.2-9.6-11.1-5.3 8.6 14.8 16.5-24.3-19.4s-3.5-2.5-1.5-7 12.5-23.8 12.5-23.8l16.2 21.2L80 86.6 39.2 63.2l2.6 6.2zm-1.9 9.2l6.7 5.9h1.9L58.8 91l-10-9.3h-3.1l-5.8-3.1zm26.7-15.9l6.6-15.6 8.5 21.7L97 80l-5-7.4-7.2-6.5-11.3-26.4-9.1 19.4-6.9 8 9.1-4.4z"/><path class="ost1" d="M0-.2h112v112H0z"/></svg><svg id="marketingAnalysis" viewBox="-1 -1 114 114" width="114" height="114" x="342" y="342"><style>.pst0{fill:none;stroke:#000;stroke-width:6;stroke-miterlimit:10}.pst1{fill:#fff;stroke-linecap:round;stroke-linejoin:round}.pst1,.pst2,.pst3{stroke:#000;stroke-width:6;stroke-miterlimit:10}.pst2{fill:#fff}.pst3{stroke-linecap:round;stroke-linejoin:round}.pst3,.pst4{fill:none}</style><circle class="pst0" cx="52.4" cy="59.1" r="43.3"/><path class="pst0" d="M52.4 102.5c-11.3-5.1-24-19.4-24-43.3s12.7-38.2 24-43.3M52.4 102.5c11.3-5.1 24-19.4 24-43.3S63.7 21 52.4 15.9"/><path class="pst0" d="M16 35.6c4.3 1.8 16.3 3.8 36.3 3.8s32-2 36.3-3.8M16 83.6c4.3-1.8 16.3-3.8 36.3-3.8s32 2 36.3 3.8M9 59.1h86.7M52.4 15.8v86.7"/><g><path class="pst1" d="M84.2 73.3l23.5 21.5-8.3 8.4-23-22"/><circle class="pst2" cx="64.7" cy="61.8" r="22.7"/><path class="pst3" d="M53.4 60.6l9.5 9.5 12.6-14.5M86.7 89.2l5.9-5.7"/></g><path class="pst4" d="M-.3.5h112v112H-.3z"/></svg><svg id="multiDrawingStyle" viewBox="-1 -1 114 114" width="114" height="114" x="456"><style>.qst0{fill:none}</style><path d="M26.4 43.8v-4l1.9-1.9h23.4l1.8 1.7v4.2H26.4zm10.3 42H43l2-3.2V48.3H35v34.3l1.7 3.2zm-10.3.1l13.8 19.4 13.3-19.1V48.3h-5v34.3l1.5 2.9-7.2 9.9h-5.4l-7.2-9.6 1.8-3.2V48.3h-5.5v37.6zm53-59.3c-.2.6-2.6 9.4-8.8 10.2-2.9.4-5.3-1.3-5.7-1.6-3-2.2-4.2-6.1-3.8-9.4.8-6.5 7.7-7.6 8.2-13.9.3-3.7-1.9-6.3-1.1-6.9.9-.7 4.4 2.6 8 6.5.7 1.1 5.2 7.5 3.2 15.1zm-9 12.9c-4.2 0-7.6-1.7-7.6 15.9s3.4 47.8 7.6 47.8S78 73.1 78 55.4s-3.4-15.9-7.6-15.9z"/><path class="qst0" d="M-.1.1h112v112H-.1z"/></svg><svg id="productionWorkflow" viewBox="-1 -1 114 114" width="114" height="114" x="456" y="114"><style>.rst0{stroke:#231815;stroke-width:6;stroke-linecap:round;stroke-linejoin:round;stroke-miterlimit:10}.rst0,.rst1{fill:none}</style><path class="rst0" d="M24.9 49.2h23m11.6-8.8l12.1 12.5L93.5 31M24.9 78.5h23m11.6-8.7l12.1 12.5 21.9-21.9"/><path class="rst1" d="M-.4.5h112v112H-.4z"/></svg><svg id="profit" viewBox="-1 -1 114 114" width="114" height="114" x="456" y="228"><style>.sst0{fill:none}</style><path d="M88.2 108.1h-4.5V102c-8.1-.7-13.4-4.7-15.7-12l7.1-1.7c1.3 4.7 4.2 7.2 8.6 7.5v-13c-5.8-1.3-9.7-3.1-11.4-5.1-1.8-2.1-2.6-4.5-2.6-7.4 0-7.4 4.7-11.7 14.1-12.9v-4.8h4.5v4.8c6.9.9 11.2 4.3 13 10.2L94.5 69c-1.1-3.4-3.2-5.2-6.3-5.5v11.6c4.3 1.2 7.2 2.2 8.7 2.8 1.5.7 2.9 2 4.1 3.9 1.2 1.9 1.8 4.2 1.8 6.8 0 3.7-1.2 6.7-3.7 9.1-2.5 2.4-6.1 3.9-10.9 4.3v6.1zm-4.4-44.6c-1.9 0-3.5.5-4.8 1.4-1.3.9-1.9 2.3-1.9 4.2 0 3.1 2.3 4.9 6.8 5.5V63.5zm4.4 32.4c2.1 0 3.8-.6 5.2-1.8 1.4-1.2 2.1-2.7 2.1-4.7 0-3.2-2.4-5.3-7.3-6.2v12.7zM38.8 14.7c0 5.9 4.2 10.7 9.4 10.7s9.4-4.8 9.4-10.7S53.4 4 48.2 4s-9.4 4.8-9.4 10.7zM47 34.9l-1.1 3.8v16.4l2.2 2.4 1.8-2.1v-17l-.7-3.5 1.9-2.6-1.7-2c-.6-.7-1.8-.8-2.4 0l-1.8 2 1.8 2.6zm-12.9-3.4c-2.4 1.4-4 3-4.9 4.1-3.9 4.6-4.3 10-4.5 13.2-.2 2-.3 3.7.2 5.9.7 3.3 2.2 5.5 4.1 8.1 1.1 1.6 2.8 3.7 5.2 6v39.6h10.4c0-.2.1-1.1-.5-1.9-.4-.5-.8-.7-1-.8l5.4-25.2 5.3 28h10.7c0-.4 0-1.4-.6-2.5-.5-.9-1.2-1.3-1.5-1.5V70.9H66c.5 0 .8-.4.8-.8v-23l19.9 5.2c1.9.5 3.9-1.3 2.9-3.9-.4-1.1-1.2-1.9-2.2-2.5L55.2 27v35.5H38l3.3-5.9V27l-7.2 4.5z"/><path class="sst0" d="M-.1.1h112v112H-.1z"/></svg><svg id="spaceRatio" viewBox="-1 -1 114 114" width="114" height="114" x="456" y="342"><style>.tst0{fill:none;stroke-miterlimit:10}.tst0,.tst1,.tst2{stroke:#000;stroke-width:2.9821}.tst1{fill:none}.tst2{stroke-linecap:round;stroke-linejoin:round;stroke-miterlimit:10}.tst2,.tst3{fill:none}</style><path class="tst0" d="M88.6 84.7l-7.1-7.1M95.7 97h5.2l-4.2-4.3M79.5 97h9.8M72.8 68.9l-59-59V97H75M27.7 43.3l39.8 39.8H27.7V43.3zM13.8 91.6h7.1M13.8 86.7h4.1M13.8 81.7h7.1M13.8 76.8h4.1M13.8 71.8h7.1M13.8 66.9h4.1M13.8 61.9h7.1M13.8 57h4.1M13.8 52h7.1M13.8 47h4.1M13.8 42.1h7.1M13.8 37.1h4.1M13.8 32.2h7.1M13.8 27.2h4.1M13.8 22.3h7.1"/><g><path class="tst1" d="M80.6 92c.7-10.8 1.1-24.2 1.1-38.8 0-14.8-.3-28.7-.9-40H74c-.6 11.3-.9 25.2-.9 40 0 14.6.4 28 1.1 38.8h6.4zM74 13.2h6.8c-.1-1.8-.2-3.6-.3-5.3-1.8-1-4.4-1-6.2 0-.1 1.7-.2 3.5-.3 5.3z"/><path class="tst1" d="M74.4 91.9c.7 4.2 1.3 7.9 1.7 11.1h2.5c.4-3.2 1-7 1.7-11.1h-5.9zM73.6 51.2h7.5M68.9 46.6V15.8l5.2-2.6h3.6"/><path class="tst0" d="M77.4 103.4v4"/></g><g><path class="tst2" d="M88.5 8.5v5.3h7.9V8.5c0-.3-.4-.6-.9-.6h-6.1c-.5 0-.9.2-.9.6zM88.5 13.8h7.9v79.6h-7.9z"/><path class="tst2" d="M92.4 92.7c-1.4 0-2.7.2-3.9.6l3.9 10.2 3.9-10.2c-1.2-.4-2.5-.6-3.9-.6zM88.4 13.6h8v6.8h-8z"/><path class="tst0" d="M93.7 100.1c-.4 0-.8-.1-1.2-.1-.5 0-.9 0-1.4.1l1.3 3.3 1.3-3.3z"/></g><path class="tst3" d="M-.2.1h112v112H-.2z"/></svg></svg>