<?xml version="1.0" encoding="utf-8"?>
<!-- Generator: Adobe Illustrator 21.0.0, SVG Export Plug-In . SVG Version: 6.00 Build 0)  -->
<svg version="1.1" id="Layer_1" xmlns="http://www.w3.org/2000/svg" xmlns:xlink="http://www.w3.org/1999/xlink" x="0px" y="0px"
	 viewBox="0 0 112 112" style="enable-background:new 0 0 112 112;" xml:space="preserve">
<style type="text/css">
	.st0{enable-background:new    ;}
	.st1{clip-path:url(#SVGID_2_);enable-background:new    ;}
	.st2{fill:#6A6A6A;}
	.st3{clip-path:url(#SVGID_4_);enable-background:new    ;}
	.st4{fill:#6E6E6E;}
	.st5{fill:#727272;}
	.st6{clip-path:url(#SVGID_6_);enable-background:new    ;}
	.st7{clip-path:url(#SVGID_8_);enable-background:new    ;}
	.st8{fill:#7A7A7A;}
	.st9{fill:#767676;}
	.st10{clip-path:url(#SVGID_10_);enable-background:new    ;}
	.st11{clip-path:url(#SVGID_12_);enable-background:new    ;}
	.st12{fill:#C5C5C5;}
	.st13{clip-path:url(#SVGID_14_);enable-background:new    ;}
	.st14{clip-path:url(#SVGID_16_);enable-background:new    ;}
	.st15{clip-path:url(#SVGID_18_);enable-background:new    ;}
	.st16{clip-path:url(#SVGID_20_);enable-background:new    ;}
	.st17{clip-path:url(#SVGID_22_);enable-background:new    ;}
	.st18{clip-path:url(#SVGID_24_);enable-background:new    ;}
	.st19{clip-path:url(#SVGID_26_);enable-background:new    ;}
	.st20{clip-path:url(#SVGID_28_);enable-background:new    ;}
	.st21{clip-path:url(#SVGID_30_);enable-background:new    ;}
	.st22{clip-path:url(#SVGID_32_);enable-background:new    ;}
	.st23{fill:none;}
</style>
<g>
	<g>
		<g>
			<g class="st0">
				<g class="st0">
					<defs>
						<path id="SVGID_1_" class="st0" d="M34.1,43c-2.7,0.6-5.4,1.2-8.1,1.9c0.2,0,0.3-0.1,0.5-0.1c0.1,0,0.3-0.1,0.4-0.1
							c0.1,0,0.2-0.1,0.3-0.1c0.1,0,0.2-0.1,0.3-0.1l8.1-1.9c-0.1,0-0.2,0.1-0.3,0.1c-0.1,0-0.2,0.1-0.3,0.1c-0.1,0-0.3,0.1-0.4,0.1
							C34.4,43,34.2,43,34.1,43z"/>
					</defs>
					<clipPath id="SVGID_2_">
						<use xlink:href="#SVGID_1_"  style="overflow:visible;"/>
					</clipPath>
					<g class="st1">
						<path class="st2" d="M27.4,44.5l8.1-1.9c-0.1,0-0.2,0.1-0.3,0.1c-0.1,0-0.2,0.1-0.3,0.1c-0.1,0-0.3,0.1-0.4,0.1
							c-0.1,0-0.3,0.1-0.5,0.1L26,44.9c0.2,0,0.3-0.1,0.5-0.1c0.1,0,0.3-0.1,0.4-0.1c0.1,0,0.2-0.1,0.3-0.1
							C27.3,44.5,27.3,44.5,27.4,44.5"/>
					</g>
				</g>
				<g class="st0">
					<defs>
						<path id="SVGID_3_" class="st0" d="M32.7,37.7l8.1-1.8c-0.6,0.6-1.1,1.1-1.6,1.7c-0.5,0.6-1,1.1-1.4,1.7
							c-0.4,0.6-0.8,1.1-1.2,1.7c-0.4,0.6-0.7,1.1-1.1,1.6l-8.1,1.9c0.3-0.5,0.7-1.1,1-1.6c0.4-0.6,0.8-1.1,1.2-1.7
							c0.4-0.6,0.9-1.1,1.4-1.7C31.6,38.9,32.1,38.3,32.7,37.7z"/>
					</defs>
					<clipPath id="SVGID_4_">
						<use xlink:href="#SVGID_3_"  style="overflow:visible;"/>
					</clipPath>
					<g class="st3">
						<path class="st4" d="M32.7,37.7l8.1-1.8c-0.2,0.2-0.5,0.5-0.7,0.7c-0.2,0.2-0.4,0.5-0.6,0.7c-0.2,0.2-0.4,0.5-0.6,0.7
							c-0.2,0.2-0.4,0.5-0.6,0.7l-8.1,1.8c0.2-0.2,0.4-0.5,0.6-0.7c0.2-0.2,0.4-0.5,0.6-0.7c0.2-0.2,0.4-0.5,0.6-0.7
							C32.2,38.2,32.4,38,32.7,37.7"/>
						<path class="st5" d="M30.1,40.6l8.1-1.8c-0.3,0.3-0.5,0.7-0.8,1c-0.2,0.3-0.5,0.7-0.7,1c-0.2,0.3-0.4,0.6-0.7,1
							c-0.2,0.3-0.4,0.6-0.6,0.9l-8.1,1.9c0.2-0.3,0.4-0.6,0.6-0.9c0.2-0.3,0.4-0.6,0.7-1c0.2-0.3,0.5-0.7,0.7-1
							C29.6,41.2,29.9,40.9,30.1,40.6"/>
					</g>
				</g>
				<g class="st0">
					<defs>
						<path id="SVGID_5_" class="st0" d="M25.4,13.5l8.1-1.7c0.5-0.1,0.9-0.2,1.4-0.2c0.4,0,0.9,0,1.3,0c0.4,0,0.8,0.1,1.1,0.1
							c0.4,0.1,0.7,0.1,1,0.2c0.2,0,0.4,0.1,0.6,0.1c0.2,0,0.3,0.1,0.5,0.1c0.1,0,0.3,0.1,0.4,0.1c0.1,0,0.2,0.1,0.3,0.1l-8.1,1.7
							c-0.1,0-0.1-0.1-0.3-0.1c-0.1,0-0.2-0.1-0.4-0.1c-0.1,0-0.3-0.1-0.5-0.1c-0.2,0-0.4-0.1-0.6-0.1c-0.3-0.1-0.6-0.1-1-0.2
							c-0.4-0.1-0.7-0.1-1.1-0.1c-0.4,0-0.8,0-1.3,0C26.3,13.3,25.9,13.4,25.4,13.5z"/>
					</defs>
					<clipPath id="SVGID_6_">
						<use xlink:href="#SVGID_5_"  style="overflow:visible;"/>
					</clipPath>
					<g class="st6">
						<path class="st2" d="M25.4,13.5l8.1-1.7c0.5-0.1,0.9-0.2,1.4-0.2c0.4,0,0.9,0,1.3,0c0.4,0,0.8,0.1,1.1,0.1
							c0.4,0.1,0.7,0.1,1,0.2c0.2,0,0.4,0.1,0.6,0.1c0.2,0,0.3,0.1,0.5,0.1c0.1,0,0.3,0.1,0.4,0.1c0.1,0,0.2,0.1,0.3,0.1l-8.1,1.7
							c-0.1,0-0.1-0.1-0.3-0.1c-0.1,0-0.2-0.1-0.4-0.1c-0.1,0-0.3-0.1-0.5-0.1c-0.2,0-0.4-0.1-0.6-0.1c-0.3-0.1-0.6-0.1-1-0.2
							c-0.4-0.1-0.7-0.1-1.1-0.1c-0.4,0-0.8,0-1.3,0C26.3,13.3,25.9,13.4,25.4,13.5"/>
					</g>
				</g>
				<g class="st0">
					<defs>
						<path id="SVGID_7_" class="st0" d="M50.8,88.4l8.1-2.1c-0.1,0.5-0.1,0.9-0.2,1.4c-0.1,0.5-0.2,1-0.3,1.5
							c-0.1,0.5-0.2,1.1-0.4,1.6c-0.1,0.5-0.3,1.1-0.4,1.7c-0.2,0.5-0.3,1-0.5,1.5c-0.2,0.5-0.3,0.9-0.5,1.4
							c-0.2,0.4-0.3,0.8-0.5,1.2c-0.2,0.4-0.3,0.8-0.5,1.1l-8,2.1c0.2-0.4,0.3-0.7,0.5-1.1c0.2-0.4,0.3-0.8,0.5-1.2
							c0.2-0.4,0.3-0.9,0.5-1.4c0.2-0.5,0.3-1,0.5-1.5c0.2-0.6,0.3-1.1,0.4-1.7c0.1-0.6,0.3-1.1,0.4-1.6c0.1-0.5,0.2-1,0.3-1.5
							C50.6,89.4,50.7,88.9,50.8,88.4z"/>
					</defs>
					<clipPath id="SVGID_8_">
						<use xlink:href="#SVGID_7_"  style="overflow:visible;"/>
					</clipPath>
					<g class="st7">
						<path class="st8" d="M50.8,88.4l8.1-2.1c0,0.3-0.1,0.6-0.1,0.9c0,0.3-0.1,0.6-0.2,0.9c-0.1,0.3-0.1,0.6-0.2,0.9
							c-0.1,0.3-0.1,0.6-0.2,1l-8.1,2.1c0.1-0.3,0.1-0.6,0.2-1c0.1-0.3,0.1-0.6,0.2-0.9c0.1-0.3,0.1-0.6,0.2-0.9
							C50.7,89,50.7,88.7,50.8,88.4"/>
						<path class="st9" d="M50.1,92.1l8.1-2.1c0,0.2-0.1,0.4-0.1,0.6c-0.1,0.2-0.1,0.4-0.2,0.6c-0.1,0.2-0.1,0.4-0.2,0.7
							c-0.1,0.2-0.1,0.4-0.2,0.7c-0.2,0.5-0.3,1-0.5,1.5c-0.2,0.5-0.3,0.9-0.5,1.4c-0.2,0.4-0.3,0.8-0.5,1.2
							c-0.2,0.4-0.3,0.8-0.5,1.1l-8,2.1c0.2-0.4,0.3-0.7,0.5-1.1c0.2-0.4,0.3-0.8,0.5-1.2c0.2-0.4,0.3-0.9,0.5-1.4
							c0.2-0.5,0.3-1,0.5-1.5c0.1-0.2,0.1-0.4,0.2-0.7c0.1-0.2,0.1-0.4,0.2-0.7c0.1-0.2,0.1-0.4,0.2-0.6
							C50,92.5,50.1,92.3,50.1,92.1"/>
					</g>
				</g>
				<g class="st0">
					<defs>
						<path id="SVGID_9_" class="st0" d="M38.8,32.9l8.1-1.8c-0.5,0.3-0.9,0.6-1.4,0.9c-0.5,0.3-1,0.7-1.5,1.1
							c-0.5,0.4-1.1,0.8-1.6,1.3c-0.5,0.5-1.1,1-1.6,1.5l-8.1,1.8c0.5-0.6,1.1-1.1,1.6-1.5c0.5-0.5,1.1-0.9,1.6-1.3
							c0.5-0.4,1-0.8,1.5-1.1C37.9,33.4,38.4,33.1,38.8,32.9z"/>
					</defs>
					<clipPath id="SVGID_10_">
						<use xlink:href="#SVGID_9_"  style="overflow:visible;"/>
					</clipPath>
					<g class="st10">
						<path class="st2" d="M38.8,32.9L47,31c-0.1,0.1-0.2,0.1-0.3,0.2c-0.1,0.1-0.2,0.1-0.4,0.2c-0.1,0.1-0.2,0.2-0.4,0.2
							c-0.1,0.1-0.2,0.2-0.4,0.2l-8.1,1.8c0.1-0.1,0.2-0.2,0.4-0.2c0.1-0.1,0.2-0.2,0.4-0.2c0.1-0.1,0.2-0.1,0.4-0.2
							C38.6,33,38.7,32.9,38.8,32.9"/>
						<path class="st4" d="M37.4,33.8l8.1-1.8c-0.4,0.2-0.8,0.5-1.1,0.8c-0.4,0.3-0.8,0.6-1.2,0.9c-0.4,0.3-0.8,0.7-1.2,1
							c-0.4,0.4-0.8,0.8-1.2,1.2l-8.1,1.8c0.4-0.4,0.8-0.8,1.2-1.2c0.4-0.4,0.8-0.7,1.2-1.1c0.4-0.3,0.8-0.6,1.2-0.9
							C36.7,34.3,37,34,37.4,33.8"/>
					</g>
				</g>
				<g class="st0">
					<defs>
						<path id="SVGID_11_" class="st0" d="M33.9,13c2.7-0.6,5.4-1.1,8.1-1.7c0.1,0,0.2,0,0.3,0c0.1,0,0.2,0,0.3,0c0.1,0,0.2,0,0.3,0
							c0.1,0,0.2,0,0.2,0c0.1,0,0.2,0,0.2,0.1c0.1,0,0.1,0.1,0.2,0.1c0.1,0,0.1,0.1,0.2,0.1c0.1,0,0.1,0.1,0.1,0.1
							c0.7,0.4,1.3,1.3,1.8,2.4c0.5,1.1,0.9,2.6,1.2,4.3c0.3,1.7,0.5,3.7,0.5,5.8c0,2.1-0.1,4.5-0.3,7l-8.1,1.8
							c0.3-2.5,0.4-4.8,0.3-7c0-2.2-0.2-4.1-0.5-5.8c-0.3-1.7-0.7-3.2-1.2-4.3c-0.5-1.1-1.1-2-1.8-2.4c0,0-0.1-0.1-0.1-0.1
							c-0.1,0-0.1-0.1-0.2-0.1c-0.1,0-0.1-0.1-0.2-0.1C35.1,13,35,13,35,13c-0.1,0-0.2,0-0.2,0c-0.1,0-0.2,0-0.3,0
							c-0.1,0-0.2,0-0.3,0C34.1,13,34,13,33.9,13z"/>
					</defs>
					<clipPath id="SVGID_12_">
						<use xlink:href="#SVGID_11_"  style="overflow:visible;"/>
					</clipPath>
					<g class="st11">
						<path class="st2" d="M33.9,13l8.1-1.7c0.1,0,0.2,0,0.3,0c0.1,0,0.2,0,0.3,0c0.1,0,0.2,0,0.3,0c0.1,0,0.2,0,0.2,0
							c0.1,0,0.2,0,0.2,0.1c0.1,0,0.1,0.1,0.2,0.1c0.1,0,0.1,0.1,0.2,0.1c0.1,0,0.1,0.1,0.1,0.1c0,0,0,0,0.1,0s0,0,0.1,0
							c0,0,0,0,0.1,0c0,0,0,0,0.1,0l-8.2,1.7c0,0,0,0-0.1,0c0,0,0,0-0.1,0c0,0,0,0-0.1,0c0,0,0,0-0.1,0c0,0-0.1-0.1-0.1-0.1
							c-0.1,0-0.1-0.1-0.2-0.1c-0.1,0-0.1-0.1-0.2-0.1C35.1,13,35,13,35,13c-0.1,0-0.2,0-0.2,0c-0.1,0-0.2,0-0.3,0
							c-0.1,0-0.2,0-0.3,0C34.1,13,34,13,33.9,13"/>
						<path class="st4" d="M35.9,13.5l8.2-1.7c0.1,0,0.1,0.1,0.2,0.1c0,0,0.1,0.1,0.1,0.1c0,0.1,0.1,0.1,0.1,0.2
							c0,0.1,0.1,0.1,0.1,0.2l-8.2,1.7c0-0.1-0.1-0.1-0.1-0.2c0-0.1-0.1-0.1-0.1-0.2c0-0.1-0.1-0.1-0.1-0.1
							C36,13.6,36,13.5,35.9,13.5"/>
						<path class="st5" d="M36.5,14.1l8.2-1.7c0.1,0.1,0.1,0.1,0.2,0.2c0.1,0.1,0.1,0.1,0.1,0.2c0,0.1,0.1,0.2,0.1,0.2
							c0,0.1,0.1,0.2,0.1,0.3L37.1,15c0-0.1-0.1-0.2-0.1-0.3c0-0.1-0.1-0.2-0.1-0.2c0-0.1-0.1-0.2-0.1-0.2
							C36.6,14.3,36.6,14.2,36.5,14.1"/>
						<path class="st9" d="M37.1,15l8.2-1.7c0.1,0.1,0.1,0.3,0.2,0.4c0.1,0.1,0.1,0.3,0.2,0.5c0.1,0.2,0.1,0.3,0.2,0.5
							c0.1,0.2,0.1,0.4,0.2,0.5L37.9,17c-0.1-0.2-0.1-0.4-0.2-0.5c-0.1-0.2-0.1-0.3-0.2-0.5c-0.1-0.2-0.1-0.3-0.2-0.5
							C37.2,15.3,37.2,15.2,37.1,15"/>
						<path class="st8" d="M37.9,17l8.1-1.7c0.3,0.9,0.5,1.9,0.7,3.1c0.2,1.1,0.3,2.4,0.4,3.7c0.1,1.3,0.1,2.8,0.1,4.3
							c0,1.5-0.1,3.1-0.3,4.7l-8.1,1.8c0.2-1.6,0.3-3.2,0.3-4.8c0-1.5,0-3-0.1-4.3c-0.1-1.3-0.2-2.6-0.4-3.7
							C38.5,18.9,38.2,17.9,37.9,17"/>
					</g>
				</g>
				<g>
					<path class="st12" d="M32.7,37.7c-0.6,0.6-1.1,1.1-1.6,1.7c-0.5,0.6-1,1.2-1.4,1.7c-0.4,0.6-0.8,1.1-1.2,1.7
						c-0.4,0.6-0.7,1.1-1,1.6c-0.2,0.1-0.6,0.2-1,0.3c-0.4,0.1-1,0.2-1.6,0.3c-0.6,0.1-1.3,0.1-2,0.1c-0.7,0-1.5-0.1-2.2-0.3
						c-0.4-0.1-0.8-0.2-1.2-0.4c-0.4-0.2-0.8-0.4-1.2-0.6c-0.4-0.3-0.8-0.5-1.1-0.9c-0.4-0.3-0.7-0.7-1-1.2
						c-0.1-0.2-0.3-0.5-0.6-0.8c-0.3-0.4-0.5-0.9-0.8-1.4c-0.3-0.5-0.5-1.1-0.7-1.7c-0.1-0.6-0.2-1.1-0.1-1.6
						c0.1-0.3,0.2-0.6,0.3-0.8c0.1-0.2,0.3-0.4,0.5-0.5c0.2-0.1,0.3-0.2,0.5-0.3c0.2-0.1,0.3-0.1,0.4-0.1c0-0.2-0.1-1.1-0.1-2.4
						c0-1.3,0-3,0.3-4.8c0.2-1.9,0.7-3.9,1.4-5.8c0.7-1.9,1.8-3.8,3.2-5.3c0.9-0.9,1.8-1.5,2.7-2c0.9-0.5,1.8-0.7,2.7-0.9
						c0.9-0.2,1.7-0.2,2.4-0.1c0.8,0,1.4,0.2,2,0.3c0.2,0,0.4,0.1,0.6,0.1c0.2,0,0.3,0.1,0.5,0.1c0.1,0,0.3,0.1,0.4,0.1
						c0.1,0,0.2,0.1,0.3,0.1c0.4-0.3,0.7-0.5,1-0.7c0.3-0.2,0.6-0.3,0.9-0.4c0.3-0.1,0.5-0.1,0.7-0.1c0.2,0,0.4,0,0.6,0.1
						c0.1,0,0.2,0,0.2,0.1c0.1,0,0.1,0.1,0.2,0.1c0.1,0,0.1,0.1,0.2,0.1c0.1,0,0.1,0.1,0.1,0.1c0.7,0.4,1.3,1.3,1.8,2.4
						c0.5,1.1,0.9,2.6,1.2,4.3c0.3,1.7,0.5,3.7,0.5,5.8c0,2.2-0.1,4.5-0.3,7c-0.5,0.3-0.9,0.6-1.4,0.9c-0.5,0.3-1,0.7-1.5,1.1
						c-0.5,0.4-1.1,0.8-1.6,1.3C33.8,36.7,33.2,37.2,32.7,37.7z"/>
				</g>
				<g class="st0">
					<defs>
						<path id="SVGID_13_" class="st0" d="M40.9,27.6l8.1-1.8c0.4,0.2,0.8,0.4,1.2,0.6c0.4,0.2,0.9,0.4,1.3,0.6
							c0.4,0.2,0.9,0.4,1.4,0.6c0.5,0.2,0.9,0.4,1.4,0.6c0.4,0.1,0.8,0.3,1.1,0.4c0.4,0.1,0.7,0.2,1.1,0.4c0.4,0.1,0.7,0.2,1.1,0.3
							c0.3,0.1,0.7,0.2,1,0.3l-8.1,1.8c-0.3-0.1-0.7-0.2-1-0.3c-0.3-0.1-0.7-0.2-1.1-0.3c-0.4-0.1-0.7-0.2-1.1-0.4
							c-0.4-0.1-0.7-0.3-1.1-0.4c-0.5-0.2-1-0.4-1.4-0.6c-0.5-0.2-0.9-0.4-1.4-0.6c-0.4-0.2-0.9-0.4-1.3-0.6
							C41.7,28,41.3,27.8,40.9,27.6z"/>
					</defs>
					<clipPath id="SVGID_14_">
						<use xlink:href="#SVGID_13_"  style="overflow:visible;"/>
					</clipPath>
					<g class="st13">
						<path class="st2" d="M40.9,27.6l8.1-1.8c0.4,0.2,0.8,0.4,1.2,0.6c0.4,0.2,0.9,0.4,1.3,0.6c0.4,0.2,0.9,0.4,1.4,0.6
							c0.5,0.2,0.9,0.4,1.4,0.6c0.4,0.1,0.8,0.3,1.1,0.4c0.4,0.1,0.7,0.2,1.1,0.4c0.4,0.1,0.7,0.2,1.1,0.3c0.3,0.1,0.7,0.2,1,0.3
							l-8.1,1.8c-0.3-0.1-0.7-0.2-1-0.3c-0.3-0.1-0.7-0.2-1.1-0.3c-0.4-0.1-0.7-0.2-1.1-0.4c-0.4-0.1-0.7-0.3-1.1-0.4
							c-0.5-0.2-1-0.4-1.4-0.6c-0.5-0.2-0.9-0.4-1.4-0.6c-0.4-0.2-0.9-0.4-1.3-0.6C41.7,28,41.3,27.8,40.9,27.6"/>
					</g>
				</g>
				<g class="st0">
					<defs>
						<path id="SVGID_15_" class="st0" d="M74.6,101.1l-8.1,2.2c0.1,0,0.2-0.1,0.3-0.1c0.1,0,0.2-0.1,0.2-0.2
							c0.1-0.1,0.1-0.1,0.2-0.2c0.1-0.1,0.1-0.2,0.1-0.2c0.2-0.5,0.2-1.2,0.1-1.9c-0.1-0.8-0.4-1.7-0.7-2.7
							c-0.3-1.1-0.7-2.3-1.1-3.8C65.4,92.6,65,91,64.9,89c0-0.5-0.1-0.9-0.1-1.4c0-0.4,0-0.8,0-1.2c0-0.4,0-0.7,0-1.1
							c0-0.4,0-0.7,0-1c0-1.8,0.1-3.5,0.3-5c0.2-1.5,0.4-2.9,0.7-4.1c0.3-1.2,0.6-2.3,0.8-3.3c0.3-0.9,0.5-1.7,0.8-2.4l8.1-2
							c-0.2,0.6-0.5,1.4-0.8,2.4c-0.3,0.9-0.6,2-0.8,3.3c-0.3,1.2-0.5,2.6-0.7,4.1c-0.2,1.5-0.3,3.2-0.3,4.9c0,0.3,0,0.7,0,1
							c0,0.4,0,0.7,0,1.1c0,0.4,0,0.8,0,1.2c0,0.4,0.1,0.9,0.1,1.4c0.2,1.9,0.5,3.6,0.8,5c0.3,1.5,0.7,2.7,1,3.8
							c0.3,1.1,0.6,2,0.7,2.7c0.1,0.8,0.1,1.4-0.1,1.9c0,0.1-0.1,0.2-0.1,0.2c-0.1,0.1-0.1,0.1-0.2,0.2c-0.1,0.1-0.1,0.1-0.2,0.2
							C74.8,101,74.7,101.1,74.6,101.1z"/>
					</defs>
					<clipPath id="SVGID_16_">
						<use xlink:href="#SVGID_15_"  style="overflow:visible;"/>
					</clipPath>
					<g class="st14">
						<path class="st9" d="M67.3,69.6l8.1-2c-0.1,0.3-0.2,0.6-0.3,1c-0.1,0.4-0.2,0.8-0.4,1.2c-0.1,0.4-0.3,0.9-0.4,1.4
							c-0.1,0.5-0.3,1-0.4,1.6l-8.1,2c0.1-0.6,0.3-1.1,0.4-1.6c0.1-0.5,0.3-1,0.4-1.4c0.1-0.4,0.3-0.8,0.4-1.2
							C67.1,70.2,67.2,69.9,67.3,69.6"/>
						<path class="st8" d="M65.8,74.8l8.1-2c-0.1,0.6-0.3,1.3-0.4,2c-0.1,0.7-0.2,1.5-0.3,2.3c-0.1,0.8-0.2,1.6-0.2,2.5
							c-0.1,0.9-0.1,1.8-0.1,2.7c0,0.3,0,0.7,0,1c0,0.4,0,0.7,0,1.1c0,0.4,0,0.8,0,1.2c0,0.4,0.1,0.9,0.1,1.4
							c0.2,1.8,0.5,3.4,0.8,4.8c0.3,1.4,0.7,2.6,1,3.6c0.3,1,0.6,1.9,0.8,2.7c0.2,0.8,0.2,1.4,0.1,1.9l-8.1,2.2
							c0.1-0.5,0.1-1.2-0.1-2c-0.2-0.8-0.5-1.7-0.8-2.7c-0.3-1-0.7-2.3-1-3.6c-0.3-1.4-0.6-3-0.8-4.8c0-0.5-0.1-0.9-0.1-1.4
							c0-0.4,0-0.8,0-1.2c0-0.4,0-0.7,0-1.1c0-0.4,0-0.7,0-1c0-0.9,0.1-1.9,0.1-2.7c0.1-0.9,0.1-1.7,0.2-2.5
							c0.1-0.8,0.2-1.5,0.3-2.3C65.5,76.1,65.7,75.4,65.8,74.8"/>
						<path class="st9" d="M67.5,102.1l8.1-2.2c0,0,0,0.1,0,0.1c0,0,0,0.1,0,0.1c0,0,0,0.1,0,0.1c0,0,0,0.1,0,0.1c0,0,0,0,0,0
							c0,0,0,0,0,0s0,0,0,0c0,0,0,0,0,0l-8.1,2.2c0,0,0,0,0,0c0,0,0,0,0,0c0,0,0,0,0,0c0,0,0,0,0,0c0,0,0-0.1,0-0.1c0,0,0-0.1,0-0.1
							c0,0,0-0.1,0-0.1C67.5,102.2,67.5,102.2,67.5,102.1"/>
						<path class="st5" d="M67.3,102.6l8.1-2.2c0,0,0,0,0,0.1c0,0,0,0,0,0.1s0,0,0,0.1c0,0,0,0,0,0.1l-8.1,2.2c0,0,0,0,0-0.1
							c0,0,0,0,0-0.1C67.3,102.8,67.3,102.7,67.3,102.6C67.3,102.7,67.3,102.7,67.3,102.6"/>
						<path class="st4" d="M67.2,102.9l8.1-2.2c0,0,0,0-0.1,0.1c0,0,0,0-0.1,0.1c0,0,0,0-0.1,0.1c0,0,0,0-0.1,0l-8.1,2.2
							c0,0,0.1,0,0.1,0c0,0,0,0,0.1-0.1C67.1,103,67.1,103,67.2,102.9C67.1,102.9,67.1,102.9,67.2,102.9"/>
						<path class="st2" d="M66.9,103.1L75,101c0,0-0.1,0-0.1,0s-0.1,0-0.1,0c0,0-0.1,0-0.1,0c0,0-0.1,0-0.1,0l-8.1,2.2
							c0,0,0.1,0,0.1,0c0,0,0.1,0,0.1,0S66.8,103.2,66.9,103.1C66.8,103.1,66.9,103.1,66.9,103.1"/>
					</g>
				</g>
				<g class="st0">
					<defs>
						<path id="SVGID_17_" class="st0" d="M50.5,31.4l8.1-1.8c0.3,0.1,0.7,0.2,1,0.2c0.3,0.1,0.7,0.1,1.1,0.2
							c0.4,0.1,0.7,0.1,1.1,0.2c0.4,0.1,0.8,0.1,1.1,0.2c0.5,0.1,1,0.1,1.5,0.1c0.5,0,0.9,0.1,1.4,0.1c0.5,0,0.9,0,1.3,0
							c0.4,0,0.9,0,1.3,0l-8.2,1.8c-0.4,0-0.8,0-1.3,0c-0.4,0-0.9,0-1.3,0c-0.5,0-0.9,0-1.4-0.1c-0.5,0-1-0.1-1.5-0.1
							c-0.4,0-0.8-0.1-1.1-0.2c-0.4-0.1-0.7-0.1-1.1-0.2c-0.4-0.1-0.7-0.1-1.1-0.2C51.2,31.6,50.9,31.5,50.5,31.4z"/>
					</defs>
					<clipPath id="SVGID_18_">
						<use xlink:href="#SVGID_17_"  style="overflow:visible;"/>
					</clipPath>
					<g class="st15">
						<path class="st2" d="M50.5,31.4l8.1-1.8c0.3,0.1,0.7,0.2,1,0.2c0.3,0.1,0.7,0.1,1.1,0.2c0.4,0.1,0.7,0.1,1.1,0.2
							c0.4,0.1,0.8,0.1,1.1,0.2c0.5,0.1,1,0.1,1.5,0.1c0.5,0,0.9,0.1,1.4,0.1c0.5,0,0.9,0,1.3,0c0.4,0,0.9,0,1.3,0l-8.2,1.8
							c-0.4,0-0.8,0-1.3,0c-0.4,0-0.9,0-1.3,0c-0.5,0-0.9,0-1.4-0.1c-0.5,0-1-0.1-1.5-0.1c-0.4,0-0.8-0.1-1.1-0.2
							c-0.4-0.1-0.7-0.1-1.1-0.2c-0.4-0.1-0.7-0.1-1.1-0.2C51.2,31.6,50.9,31.5,50.5,31.4"/>
					</g>
				</g>
				<g class="st0">
					<defs>
						<path id="SVGID_19_" class="st0" d="M60.3,32.5l8.2-1.8c0,0.6,0.1,1.2,0.1,1.8c0,0.6,0.1,1.2,0.1,1.8c0,0.6,0.1,1.2,0.1,1.8
							c0,0.6,0.1,1.2,0.1,1.8l-8.1,1.9c0-0.6-0.1-1.2-0.1-1.8c0-0.6-0.1-1.2-0.1-1.8c0-0.6-0.1-1.2-0.1-1.8
							C60.4,33.7,60.4,33.1,60.3,32.5z"/>
					</defs>
					<clipPath id="SVGID_20_">
						<use xlink:href="#SVGID_19_"  style="overflow:visible;"/>
					</clipPath>
					<g class="st16">
						<path class="st8" d="M60.3,32.5l8.2-1.8c0,0.6,0.1,1.2,0.1,1.8c0,0.6,0.1,1.2,0.1,1.8c0,0.6,0.1,1.2,0.1,1.8
							c0,0.6,0.1,1.2,0.1,1.8l-8.1,1.9c0-0.6-0.1-1.2-0.1-1.8c0-0.6-0.1-1.2-0.1-1.8c0-0.6-0.1-1.2-0.1-1.8
							C60.4,33.7,60.4,33.1,60.3,32.5"/>
					</g>
				</g>
				<g class="st0">
					<defs>
						<path id="SVGID_21_" class="st0" d="M73.3,58.2l8.1-2c-0.5,0.6-1,1.3-1.5,2.1c-0.5,0.8-1,1.6-1.6,2.6c-0.5,0.9-1,2-1.5,3.1
							c-0.5,1.1-1,2.3-1.4,3.6l-8.1,2c0.4-1.3,0.9-2.5,1.4-3.7c0.5-1.1,1-2.2,1.5-3.1c0.5-0.9,1-1.8,1.6-2.6
							C72.3,59.5,72.8,58.8,73.3,58.2z"/>
					</defs>
					<clipPath id="SVGID_22_">
						<use xlink:href="#SVGID_21_"  style="overflow:visible;"/>
					</clipPath>
					<g class="st17">
						<path class="st5" d="M73.3,58.2l8.1-2c-0.3,0.4-0.6,0.8-0.9,1.3c-0.3,0.5-0.7,0.9-1,1.5c-0.3,0.5-0.7,1.1-1,1.7
							c-0.3,0.6-0.7,1.2-1,1.9l-8.1,2c0.3-0.7,0.7-1.3,1-1.9c0.3-0.6,0.7-1.1,1-1.7c0.3-0.5,0.7-1,1-1.5C72.7,59,73,58.6,73.3,58.2"
							/>
						<path class="st9" d="M69.4,64.4l8.1-2c-0.2,0.4-0.4,0.8-0.6,1.2c-0.2,0.4-0.4,0.8-0.5,1.2c-0.2,0.4-0.4,0.9-0.5,1.3
							c-0.2,0.5-0.3,0.9-0.5,1.4l-8.1,2c0.2-0.5,0.3-0.9,0.5-1.4c0.2-0.5,0.3-0.9,0.5-1.3c0.2-0.4,0.4-0.8,0.5-1.2
							C69,65.2,69.2,64.8,69.4,64.4"/>
					</g>
				</g>
				<g class="st0">
					<defs>
						<path id="SVGID_23_" class="st0" d="M60.7,39.7l8.1-1.9c0.4,0.5,0.8,0.9,1.3,1.4c0.4,0.5,0.9,1,1.3,1.6
							c0.5,0.5,0.9,1.1,1.4,1.7c0.5,0.6,0.9,1.2,1.4,1.9c0.8,1,1.5,2.1,2.2,3.1c0.7,1,1.3,2,1.9,3c0.6,1,1.2,2,1.7,2.9
							c0.5,0.9,1,1.9,1.5,2.7l-8.1,2c-0.5-0.9-0.9-1.8-1.5-2.8c-0.5-1-1.1-1.9-1.7-2.9c-0.6-1-1.2-2-1.9-3.1c-0.7-1-1.4-2.1-2.2-3.1
							c-0.5-0.6-0.9-1.3-1.4-1.9c-0.5-0.6-0.9-1.2-1.4-1.7c-0.5-0.5-0.9-1.1-1.3-1.6C61.5,40.6,61.1,40.1,60.7,39.7z"/>
					</defs>
					<clipPath id="SVGID_24_">
						<use xlink:href="#SVGID_23_"  style="overflow:visible;"/>
					</clipPath>
					<g class="st18">
						<path class="st4" d="M60.7,39.7l8.1-1.9c0.3,0.3,0.6,0.7,0.9,1c0.3,0.3,0.6,0.7,0.9,1.1c0.3,0.4,0.6,0.8,1,1.2
							c0.3,0.4,0.7,0.8,1,1.2l-8.1,1.9c-0.3-0.4-0.7-0.8-1-1.2c-0.3-0.4-0.6-0.8-1-1.2c-0.3-0.4-0.6-0.7-0.9-1.1
							C61.3,40.3,61,40,60.7,39.7"/>
						<path class="st5" d="M64.5,44.2l8.1-1.9c0.1,0.2,0.3,0.3,0.4,0.5c0.1,0.2,0.3,0.3,0.4,0.5c0.1,0.2,0.3,0.4,0.4,0.5
							c0.1,0.2,0.3,0.4,0.4,0.5c0.6,0.8,1.2,1.7,1.8,2.5c0.6,0.8,1.1,1.7,1.6,2.5c0.5,0.8,1,1.6,1.5,2.4c0.5,0.8,0.9,1.6,1.3,2.3
							l-8.1,2c-0.4-0.8-0.8-1.5-1.3-2.3c-0.5-0.8-0.9-1.6-1.5-2.4c-0.5-0.8-1-1.7-1.6-2.5c-0.6-0.8-1.2-1.7-1.8-2.5
							c-0.1-0.2-0.3-0.4-0.4-0.5c-0.1-0.2-0.3-0.4-0.4-0.5c-0.1-0.2-0.3-0.3-0.4-0.5C64.7,44.5,64.6,44.3,64.5,44.2"/>
						<path class="st9" d="M72.2,56l8.1-2c0.1,0.2,0.2,0.4,0.3,0.5c0.1,0.2,0.2,0.4,0.3,0.5c0.1,0.2,0.2,0.3,0.3,0.5
							c0.1,0.2,0.2,0.3,0.3,0.5l-8.1,2c-0.1-0.2-0.2-0.3-0.3-0.5c-0.1-0.2-0.2-0.3-0.3-0.5c-0.1-0.2-0.2-0.4-0.3-0.5
							C72.4,56.4,72.3,56.2,72.2,56"/>
					</g>
				</g>
				<g>
					<path class="st12" d="M67.3,69.6c-0.2,0.6-0.5,1.4-0.8,2.4c-0.3,0.9-0.6,2-0.8,3.3c-0.3,1.2-0.5,2.6-0.7,4.1
						c-0.2,1.5-0.3,3.2-0.3,5c0,0.3,0,0.7,0,1c0,0.4,0,0.7,0,1.1c0,0.4,0,0.8,0,1.2c0,0.4,0.1,0.9,0.1,1.4c0.2,1.9,0.5,3.6,0.8,5.1
						c0.3,1.5,0.7,2.7,1.1,3.8c0.3,1.1,0.6,2,0.7,2.7c0.1,0.8,0.1,1.4-0.1,1.9c-0.1,0.2-0.2,0.4-0.4,0.5c-0.2,0.1-0.4,0.2-0.8,0.3
						c-0.4,0.1-0.8,0.1-1.4,0c-0.6,0-1.3-0.1-2.3-0.2c-0.9-0.1-1.7-0.2-2.5-0.3c-0.8-0.1-1.5-0.2-2.2-0.3c-0.7-0.1-1.4-0.2-2-0.3
						c-0.6-0.1-1.2-0.2-1.7-0.3c-0.2-0.5-0.3-0.9-0.5-1.4c-0.2-0.5-0.3-1-0.5-1.5c-0.2-0.5-0.3-1.1-0.5-1.7
						c-0.2-0.6-0.3-1.2-0.5-1.8c-0.2-0.7-0.3-1.3-0.5-1.9c-0.1-0.6-0.3-1.2-0.4-1.8c-0.1-0.6-0.2-1.2-0.3-1.7
						c-0.1-0.6-0.2-1.1-0.2-1.6c-0.1,0.5-0.1,1-0.2,1.5c-0.1,0.5-0.2,1-0.3,1.5c-0.1,0.5-0.2,1.1-0.4,1.6c-0.1,0.6-0.3,1.1-0.4,1.7
						c-0.1,0.5-0.3,1-0.5,1.5c-0.2,0.5-0.3,0.9-0.5,1.4c-0.2,0.4-0.3,0.9-0.5,1.2c-0.2,0.4-0.3,0.8-0.5,1.1
						c-0.5-0.2-1.1-0.4-1.7-0.7c-0.6-0.2-1.3-0.5-2-0.8c-0.7-0.3-1.4-0.6-2.2-1c-0.8-0.4-1.6-0.7-2.4-1.2c-0.9-0.4-1.6-0.8-2.2-1.1
						c-0.6-0.3-1-0.6-1.4-0.8c-0.3-0.3-0.6-0.5-0.8-0.7c-0.2-0.2-0.3-0.5-0.4-0.7c-0.2-0.7-0.2-1.3-0.1-2c0.1-0.7,0.4-1.4,0.7-2.3
						c0.3-0.9,0.7-1.9,1-3.1c0.3-1.2,0.6-2.7,0.8-4.5c0-0.5,0.1-0.9,0.1-1.3c0-0.4,0-0.8,0-1.2c0-0.4,0-0.7,0-1.1c0-0.3,0-0.7,0-1
						c0-1.8-0.2-3.5-0.3-5.1c-0.2-1.6-0.4-3.1-0.7-4.4c-0.3-1.4-0.5-2.6-0.8-3.7c-0.3-1.1-0.5-2-0.7-2.7c-0.4-1.5-0.9-3-1.4-4.3
						c-0.5-1.4-1-2.6-1.5-3.8c-0.5-1.2-1-2.3-1.5-3.3c-0.5-1-1-1.9-1.4-2.8c0.4-0.6,0.9-1.3,1.4-1.9c0.5-0.7,1-1.3,1.6-2
						c0.6-0.7,1.2-1.4,1.8-2c0.6-0.7,1.3-1.3,2.1-2c0.4-0.4,0.9-0.8,1.3-1.1c0.4-0.4,0.9-0.7,1.3-1c0.4-0.3,0.9-0.6,1.3-0.9
						c0.4-0.3,0.8-0.5,1.2-0.8c0-0.6,0-1.2,0.1-1.7c0-0.6,0-1.2,0.1-1.7c0-0.6,0-1.2,0.1-1.7c0-0.6,0-1.2,0.1-1.7
						c0.4,0.2,0.8,0.4,1.2,0.6c0.4,0.2,0.9,0.4,1.3,0.6c0.4,0.2,0.9,0.4,1.4,0.6c0.5,0.2,0.9,0.4,1.4,0.6c0.4,0.1,0.8,0.3,1.1,0.4
						c0.4,0.1,0.7,0.3,1.1,0.4c0.4,0.1,0.7,0.2,1.1,0.3c0.3,0.1,0.7,0.2,1,0.3c0.3,0.1,0.7,0.2,1,0.2c0.3,0.1,0.7,0.1,1.1,0.2
						c0.4,0.1,0.7,0.1,1.1,0.2c0.4,0.1,0.7,0.1,1.1,0.2c0.5,0.1,1,0.1,1.5,0.1c0.5,0,0.9,0.1,1.4,0.1c0.5,0,0.9,0,1.3,0
						c0.4,0,0.9,0,1.3,0c0,0.6,0.1,1.2,0.1,1.8c0,0.6,0.1,1.2,0.1,1.8c0,0.6,0.1,1.2,0.1,1.8c0,0.6,0.1,1.2,0.1,1.8
						c0.4,0.5,0.8,0.9,1.3,1.4c0.4,0.5,0.9,1,1.3,1.6c0.5,0.6,0.9,1.1,1.4,1.7c0.5,0.6,0.9,1.2,1.4,1.9c0.8,1.1,1.5,2.1,2.2,3.1
						c0.7,1,1.3,2.1,1.9,3.1c0.6,1,1.2,2,1.7,2.9c0.5,1,1,1.9,1.5,2.8c-0.5,0.6-1,1.3-1.5,2.1c-0.5,0.8-1,1.6-1.6,2.6
						c-0.5,0.9-1,2-1.5,3.1C68.2,67,67.7,68.2,67.3,69.6z"/>
				</g>
				<g class="st0">
					<defs>
						<path id="SVGID_25_" class="st0" d="M65.6,20.5l8.2-1.8c0,0,0.1,0,0.1,0c0.1,0,0.1,0,0.2,0s0.1,0,0.2,0c0.1,0,0.2,0,0.2,0
							c0.2,0,0.4,0.1,0.6,0.2c0.2,0.1,0.5,0.3,0.8,0.5c0.3,0.2,0.6,0.5,0.9,0.8c0.3,0.3,0.7,0.7,1.1,1.2l-8.2,1.8
							c-0.4-0.5-0.7-0.9-1.1-1.2c-0.3-0.3-0.6-0.6-0.9-0.8c-0.3-0.2-0.5-0.4-0.8-0.5c-0.2-0.1-0.4-0.2-0.6-0.2c-0.1,0-0.2,0-0.2,0
							c-0.1,0-0.1,0-0.2,0s-0.1,0-0.2,0C65.7,20.5,65.6,20.5,65.6,20.5z"/>
					</defs>
					<clipPath id="SVGID_26_">
						<use xlink:href="#SVGID_25_"  style="overflow:visible;"/>
					</clipPath>
					<g class="st19">
						<path class="st2" d="M65.6,20.5l8.2-1.8c0,0,0.1,0,0.1,0c0.1,0,0.1,0,0.2,0s0.1,0,0.2,0c0.1,0,0.2,0,0.2,0
							c0.1,0,0.2,0.1,0.3,0.1c0.1,0,0.2,0.1,0.4,0.2c0.1,0.1,0.3,0.2,0.4,0.3c0.2,0.1,0.3,0.2,0.5,0.4l-8.2,1.8
							c-0.2-0.1-0.3-0.3-0.5-0.4c-0.2-0.1-0.3-0.2-0.4-0.3c-0.1-0.1-0.3-0.1-0.4-0.2c-0.1,0-0.2-0.1-0.3-0.1c-0.1,0-0.2,0-0.2,0
							c-0.1,0-0.1,0-0.2,0s-0.1,0-0.2,0C65.7,20.5,65.6,20.5,65.6,20.5"/>
						<path class="st4" d="M67.9,21.5l8.2-1.8c0.1,0.1,0.3,0.2,0.4,0.3c0.1,0.1,0.3,0.3,0.4,0.4c0.1,0.1,0.3,0.3,0.4,0.5
							c0.2,0.2,0.3,0.4,0.5,0.6l-8.2,1.8c-0.2-0.2-0.3-0.4-0.5-0.6c-0.2-0.2-0.3-0.3-0.4-0.5c-0.1-0.1-0.3-0.3-0.4-0.4
							C68.2,21.7,68.1,21.6,67.9,21.5"/>
						<polyline class="st5" points="69.6,23.3 77.8,21.5 77.8,21.5 77.8,21.5 77.8,21.5 77.8,21.5 69.7,23.3 69.7,23.3 69.7,23.3 
							69.6,23.3 69.6,23.3 						"/>
					</g>
				</g>
				<g class="st0">
					<defs>
						<path id="SVGID_27_" class="st0" d="M93.3,59.3l-8.1,2c0.2,0,0.3-0.1,0.5-0.1c0.1-0.1,0.3-0.1,0.4-0.2
							c0.1-0.1,0.3-0.1,0.4-0.2c0.1-0.1,0.3-0.2,0.4-0.3c0.1-0.1,0.4-0.3,0.6-0.6c0.3-0.3,0.6-0.6,0.9-1c0.3-0.4,0.5-0.9,0.7-1.4
							c0.2-0.5,0.2-1.1,0.1-1.7l8.1-2c0.1,0.6,0.1,1.1-0.1,1.7c-0.2,0.5-0.4,1-0.7,1.4c-0.3,0.4-0.6,0.7-0.9,1
							c-0.3,0.3-0.5,0.5-0.6,0.6c-0.1,0.1-0.3,0.2-0.4,0.3c-0.1,0.1-0.3,0.2-0.4,0.2c-0.1,0.1-0.3,0.1-0.4,0.2
							C93.6,59.2,93.4,59.3,93.3,59.3z"/>
					</defs>
					<clipPath id="SVGID_28_">
						<use xlink:href="#SVGID_27_"  style="overflow:visible;"/>
					</clipPath>
					<g class="st20">
						<path class="st8" d="M89.2,55.9l8.1-2c0,0.1,0,0.2,0.1,0.4s0,0.2,0,0.4c0,0.1,0,0.2,0,0.3c0,0.1,0,0.2-0.1,0.3l-8.1,2
							c0-0.1,0-0.2,0.1-0.3c0-0.1,0-0.2,0-0.3c0-0.1,0-0.2,0-0.4C89.2,56.1,89.2,56,89.2,55.9"/>
						<path class="st9" d="M89.2,57.3l8.1-2c0,0.1,0,0.2-0.1,0.2c0,0.1-0.1,0.2-0.1,0.2c0,0.1-0.1,0.2-0.1,0.2
							c0,0.1-0.1,0.1-0.1,0.2l-8.1,2c0-0.1,0.1-0.1,0.1-0.2c0-0.1,0.1-0.1,0.1-0.2c0-0.1,0.1-0.2,0.1-0.2
							C89.1,57.4,89.1,57.4,89.2,57.3"/>
						<path class="st5" d="M88.8,58.2l8.1-2c-0.1,0.1-0.1,0.2-0.2,0.3c-0.1,0.1-0.1,0.2-0.2,0.3c-0.1,0.1-0.1,0.2-0.2,0.3
							c-0.1,0.1-0.1,0.2-0.2,0.3l-8.1,2c0.1-0.1,0.1-0.2,0.2-0.3c0.1-0.1,0.1-0.2,0.2-0.3c0.1-0.1,0.1-0.2,0.2-0.3
							C88.7,58.4,88.8,58.3,88.8,58.2"/>
						<path class="st4" d="M88.1,59.3l8.1-2c-0.1,0.1-0.2,0.3-0.4,0.4c-0.1,0.1-0.2,0.2-0.3,0.3c-0.1,0.1-0.2,0.2-0.3,0.2
							c-0.1,0.1-0.2,0.1-0.2,0.2c0,0-0.1,0.1-0.1,0.1c0,0-0.1,0.1-0.1,0.1c0,0-0.1,0-0.1,0.1c0,0-0.1,0-0.1,0.1l-8.1,2
							c0,0,0.1,0,0.1-0.1c0,0,0.1,0,0.1-0.1c0,0,0.1-0.1,0.1-0.1c0,0,0.1-0.1,0.1-0.1c0.1,0,0.1-0.1,0.2-0.2
							c0.1-0.1,0.2-0.2,0.3-0.2c0.1-0.1,0.2-0.2,0.3-0.3C87.8,59.6,87.9,59.5,88.1,59.3"/>
						<path class="st2" d="M86.4,60.8l8.1-2c-0.1,0.1-0.2,0.1-0.3,0.2c-0.1,0.1-0.2,0.1-0.3,0.2c-0.1,0-0.2,0.1-0.3,0.1
							c-0.1,0-0.2,0.1-0.3,0.1l-8.1,2c0.1,0,0.2-0.1,0.3-0.1c0.1,0,0.2-0.1,0.3-0.1c0.1,0,0.2-0.1,0.3-0.2
							C86.2,60.9,86.3,60.8,86.4,60.8"/>
					</g>
				</g>
				<g class="st0">
					<defs>
						<path id="SVGID_29_" class="st0" d="M87.3,53.1l8.1-2c0.1,0.1,0.3,0.2,0.5,0.4c0.2,0.2,0.4,0.4,0.6,0.6
							c0.2,0.2,0.4,0.5,0.5,0.8c0.2,0.3,0.3,0.6,0.3,1l-8.1,2c-0.1-0.4-0.2-0.7-0.3-1c-0.2-0.3-0.3-0.6-0.5-0.8
							c-0.2-0.2-0.4-0.4-0.6-0.6C87.6,53.4,87.4,53.2,87.3,53.1z"/>
					</defs>
					<clipPath id="SVGID_30_">
						<use xlink:href="#SVGID_29_"  style="overflow:visible;"/>
					</clipPath>
					<g class="st21">
						<path class="st2" d="M87.3,53.1l8.1-2c0,0,0,0,0.1,0c0,0,0,0,0.1,0.1s0,0,0.1,0.1c0,0,0.1,0,0.1,0.1l-8.1,2c0,0-0.1,0-0.1-0.1
							c0,0,0,0-0.1-0.1C87.4,53.2,87.4,53.2,87.3,53.1C87.3,53.2,87.3,53.1,87.3,53.1"/>
						<path class="st4" d="M87.6,53.4l8.1-2c0.1,0.1,0.1,0.1,0.2,0.2c0.1,0.1,0.1,0.1,0.2,0.2c0.1,0.1,0.1,0.1,0.2,0.2
							c0.1,0.1,0.1,0.2,0.2,0.2l-8.1,2c-0.1-0.1-0.1-0.2-0.2-0.3c-0.1-0.1-0.1-0.2-0.2-0.2c-0.1-0.1-0.1-0.1-0.2-0.2
							C87.7,53.5,87.6,53.4,87.6,53.4"/>
						<path class="st5" d="M88.4,54.2l8.1-2c0,0,0.1,0.1,0.1,0.1c0,0,0.1,0.1,0.1,0.2s0.1,0.1,0.1,0.2c0,0.1,0.1,0.1,0.1,0.2l-8.1,2
							c0-0.1-0.1-0.1-0.1-0.2c0-0.1-0.1-0.1-0.1-0.2c0-0.1-0.1-0.1-0.1-0.2C88.5,54.3,88.4,54.2,88.4,54.2"/>
						<path class="st9" d="M88.8,54.8l8.1-2c0,0,0.1,0.1,0.1,0.1c0,0.1,0,0.1,0.1,0.2c0,0.1,0,0.1,0.1,0.2c0,0.1,0,0.1,0.1,0.2
							l-8.1,2c0-0.1,0-0.1-0.1-0.2c0-0.1,0-0.1-0.1-0.2c0-0.1,0-0.1-0.1-0.2C88.9,54.9,88.8,54.9,88.8,54.8"/>
						<path class="st8" d="M89.1,55.5l8.1-2c0,0,0,0.1,0,0.1s0,0.1,0,0.1c0,0,0,0.1,0,0.1c0,0,0,0.1,0,0.1l-8.1,2c0,0,0-0.1,0-0.1
							c0,0,0-0.1,0-0.1c0,0,0-0.1,0-0.1C89.1,55.5,89.1,55.5,89.1,55.5"/>
					</g>
				</g>
				<g class="st0">
					<defs>
						<path id="SVGID_31_" class="st0" d="M69.7,23.3l8.2-1.8c0.1,0,0.2,0,0.3,0c0.1,0,0.2,0,0.4,0c0.1,0,0.3,0,0.5,0.1
							c0.2,0,0.4,0.1,0.6,0.1c0.6,0.1,1.3,0.4,2.1,0.7c0.8,0.3,1.7,0.8,2.6,1.4c0.9,0.6,1.9,1.3,2.9,2.3c1,0.9,2,2.1,2.9,3.4
							c1.6,2.3,2.8,4.8,3.6,7.2c0.8,2.4,1.3,4.7,1.6,6.8c0.3,2.1,0.3,3.9,0.3,5.2c0,1.3-0.1,2.2-0.1,2.4l-8.1,2
							c0-0.2,0.1-1.1,0.1-2.4c0-1.3-0.1-3.2-0.3-5.2c-0.3-2.1-0.8-4.4-1.6-6.8c-0.8-2.4-2-4.9-3.6-7.2c-1-1.4-1.9-2.5-2.9-3.5
							c-1-0.9-2-1.7-2.9-2.3c-0.9-0.6-1.8-1-2.6-1.4c-0.8-0.3-1.5-0.6-2.1-0.7c-0.2-0.1-0.4-0.1-0.6-0.1c-0.2,0-0.3-0.1-0.5-0.1
							c-0.1,0-0.3,0-0.4,0C69.8,23.3,69.7,23.3,69.7,23.3z"/>
					</defs>
					<clipPath id="SVGID_32_">
						<use xlink:href="#SVGID_31_"  style="overflow:visible;"/>
					</clipPath>
					<g class="st22">
						<path class="st2" d="M69.7,23.3l8.2-1.8c0.1,0,0.2,0,0.3,0c0.1,0,0.2,0,0.4,0c0.1,0,0.3,0,0.5,0.1c0.2,0,0.4,0.1,0.6,0.1
							c0.4,0.1,0.8,0.2,1.3,0.4c0.5,0.2,1,0.4,1.6,0.6c0.6,0.3,1.1,0.6,1.7,1c0.6,0.4,1.2,0.8,1.9,1.3l-8.2,1.8
							c-0.6-0.5-1.3-1-1.9-1.4c-0.6-0.4-1.2-0.7-1.7-1c-0.6-0.3-1.1-0.5-1.6-0.6c-0.5-0.2-0.9-0.3-1.3-0.4c-0.2-0.1-0.4-0.1-0.6-0.1
							c-0.2,0-0.3-0.1-0.5-0.1c-0.1,0-0.3,0-0.4,0C69.8,23.3,69.7,23.3,69.7,23.3"/>
						<path class="st4" d="M77.8,26.9l8.2-1.8c0.3,0.2,0.5,0.4,0.8,0.7c0.3,0.2,0.5,0.5,0.8,0.8c0.3,0.3,0.5,0.5,0.8,0.8
							c0.3,0.3,0.5,0.6,0.8,0.9l-8.2,1.9c-0.3-0.3-0.5-0.6-0.8-0.9c-0.3-0.3-0.5-0.6-0.8-0.8c-0.3-0.3-0.5-0.5-0.8-0.8
							C78.4,27.4,78.1,27.1,77.8,26.9"/>
						<path class="st5" d="M80.9,30.1l8.2-1.9c0.1,0.1,0.2,0.2,0.2,0.3c0.1,0.1,0.2,0.2,0.2,0.3c0.1,0.1,0.2,0.2,0.2,0.3
							c0.1,0.1,0.2,0.2,0.2,0.3c0.1,0.2,0.3,0.4,0.4,0.6c0.1,0.2,0.3,0.4,0.4,0.6c0.1,0.2,0.2,0.4,0.4,0.6c0.1,0.2,0.2,0.4,0.3,0.6
							l-8.2,1.9c-0.1-0.2-0.2-0.4-0.3-0.6c-0.1-0.2-0.2-0.4-0.4-0.6c-0.1-0.2-0.3-0.4-0.4-0.6c-0.1-0.2-0.3-0.4-0.4-0.6
							c-0.1-0.1-0.2-0.2-0.2-0.3c-0.1-0.1-0.2-0.2-0.2-0.3c-0.1-0.1-0.2-0.2-0.2-0.3C81.1,30.3,81,30.2,80.9,30.1"/>
						<path class="st9" d="M83.4,33.9l8.2-1.9c0.2,0.4,0.4,0.8,0.6,1.3c0.2,0.4,0.4,0.8,0.6,1.3c0.2,0.4,0.3,0.8,0.5,1.3
							c0.2,0.4,0.3,0.8,0.4,1.3l-8.2,1.9c-0.1-0.4-0.3-0.8-0.4-1.3c-0.2-0.4-0.3-0.8-0.5-1.3c-0.2-0.4-0.4-0.8-0.6-1.3
							C83.9,34.7,83.6,34.3,83.4,33.9"/>
						<path class="st8" d="M85.6,38.9l8.2-1.9c0.6,1.8,1,3.5,1.3,5.1c0.3,1.6,0.4,3.1,0.5,4.4c0.1,1.3,0.1,2.4,0,3.2
							c0,0.8-0.1,1.3-0.1,1.5l-8.1,2c0-0.2,0.1-0.7,0.1-1.5c0-0.8,0-1.9,0-3.2c-0.1-1.3-0.2-2.8-0.5-4.4
							C86.6,42.4,86.2,40.7,85.6,38.9"/>
					</g>
				</g>
				<g>
					<path class="st12" d="M89.2,55.9c0.1,0.6,0.1,1.2-0.1,1.7c-0.2,0.5-0.4,1-0.7,1.4c-0.3,0.4-0.6,0.7-0.9,1
						c-0.3,0.3-0.5,0.5-0.6,0.6c-0.4,0.3-0.7,0.5-1.1,0.7c-0.4,0.2-0.8,0.3-1.2,0.3c-0.4,0-0.8,0-1.3,0c-0.4,0-0.9-0.1-1.3-0.2
						c-0.8-0.2-1.6-0.5-2.4-0.9c-0.8-0.4-1.5-0.8-2.2-1.3c-0.7-0.4-1.3-0.9-1.7-1.2c-0.5-0.4-0.9-0.7-1.1-0.9
						c-0.3-0.7-0.7-1.5-1.1-2.3c-0.4-0.8-0.8-1.6-1.3-2.4c-0.5-0.8-1-1.7-1.5-2.5c-0.5-0.9-1.1-1.7-1.7-2.6
						c-0.6-0.9-1.2-1.7-1.7-2.5c-0.6-0.8-1.1-1.5-1.7-2.2c-0.5-0.7-1.1-1.3-1.6-1.9c-0.5-0.6-1-1.2-1.5-1.7
						c-0.3-2.7-0.4-5.1-0.4-7.3c0-2.2,0.2-4.1,0.5-5.7c0.3-1.6,0.7-2.9,1.2-3.8c0.5-0.9,1.1-1.5,1.8-1.6c0,0,0.1,0,0.1,0
						c0.1,0,0.1,0,0.2,0s0.1,0,0.2,0c0.1,0,0.2,0,0.2,0c0.2,0,0.4,0.1,0.6,0.2c0.2,0.1,0.5,0.3,0.8,0.5c0.3,0.2,0.6,0.5,0.9,0.8
						c0.3,0.3,0.7,0.7,1.1,1.2c0.1,0,0.2,0,0.3,0c0.1,0,0.2,0,0.4,0c0.1,0,0.3,0,0.5,0.1c0.2,0,0.4,0.1,0.6,0.1
						c0.6,0.1,1.3,0.4,2.1,0.7c0.8,0.3,1.7,0.8,2.6,1.4C77,26.2,78,27,79,27.9c1,0.9,2,2.1,2.9,3.5c1.6,2.3,2.8,4.8,3.6,7.2
						c0.8,2.4,1.3,4.8,1.6,6.8c0.3,2.1,0.3,3.9,0.3,5.2c0,1.3-0.1,2.2-0.1,2.4c0.1,0.1,0.3,0.2,0.5,0.4c0.2,0.2,0.4,0.4,0.6,0.6
						c0.2,0.2,0.4,0.5,0.5,0.8C89,55.2,89.1,55.5,89.2,55.9z"/>
				</g>
			</g>
		</g>
	</g>
	<rect x="1.1" y="0.2" class="st23" width="112" height="112"/>
</g>
</svg>
