<?xml version="1.0" encoding="utf-8"?>
<!-- Generator: Adobe Illustrator 21.0.0, SVG Export Plug-In . SVG Version: 6.00 Build 0)  -->
<svg version="1.1" id="Layer_1" xmlns="http://www.w3.org/2000/svg" xmlns:xlink="http://www.w3.org/1999/xlink" x="0px" y="0px"
	 viewBox="0 0 112 112" style="enable-background:new 0 0 112 112;" xml:space="preserve">
<style type="text/css">
	.st0{fill-rule:evenodd;clip-rule:evenodd;fill:#DFDCD0;}
	.st1{fill-rule:evenodd;clip-rule:evenodd;fill:#A9A79E;}
	.st2{fill-rule:evenodd;clip-rule:evenodd;fill:#CECBC0;}
	.st3{enable-background:new    ;}
	.st4{clip-path:url(#SVGID_2_);enable-background:new    ;}
	.st5{fill:#79818E;}
	.st6{fill:#757D89;}
	.st7{fill:#717884;}
	.st8{fill:#6D747F;}
	.st9{fill:#69707B;}
	.st10{clip-path:url(#SVGID_4_);enable-background:new    ;}
	.st11{fill:#88919F;}
	.st12{clip-path:url(#SVGID_6_);enable-background:new    ;}
	.st13{fill:#87919F;}
	.st14{clip-path:url(#SVGID_8_);enable-background:new    ;}
	.st15{clip-path:url(#SVGID_10_);enable-background:new    ;}
	.st16{clip-path:url(#SVGID_12_);enable-background:new    ;}
	.st17{fill:#666D78;}
	.st18{fill:#87909E;}
	.st19{clip-path:url(#SVGID_14_);enable-background:new    ;}
	.st20{clip-path:url(#SVGID_16_);enable-background:new    ;}
	.st21{fill:#86909E;}
	.st22{clip-path:url(#SVGID_18_);enable-background:new    ;}
	.st23{fill:#C2D0E4;}
	.st24{clip-path:url(#SVGID_20_);enable-background:new    ;}
	.st25{clip-path:url(#SVGID_22_);enable-background:new    ;}
	.st26{fill:none;}
</style>
<g>
	<g>
		<g>
			<polygon class="st0" points="19,84.3 52.2,103.5 52.2,110.1 19,90.9 			"/>
			<polygon class="st1" points="85.5,84.3 52.2,103.5 52.2,110.1 85.5,90.9 			"/>
			<polygon class="st2" points="52.2,65.1 85.5,84.3 52.2,103.5 19,84.3 			"/>
		</g>
		<g>
			<g>
				<g class="st3">
					<g class="st3">
						<defs>
							<path id="SVGID_1_" class="st3" d="M53.6,85L48,86.5c0.3-0.1,0.5-0.2,0.7-0.4c0.2-0.2,0.4-0.4,0.6-0.6
								c0.2-0.2,0.3-0.5,0.4-0.9c0.1-0.3,0.1-0.7,0.1-1.1l5.5-1.4c0,0.4,0,0.7-0.1,1.1c-0.1,0.3-0.2,0.6-0.4,0.9
								c-0.2,0.2-0.4,0.5-0.6,0.6C54.1,84.8,53.8,85,53.6,85z"/>
						</defs>
						<clipPath id="SVGID_2_">
							<use xlink:href="#SVGID_1_"  style="overflow:visible;"/>
						</clipPath>
						<g class="st4">
							<path class="st5" d="M49.9,83.6l5.5-1.4c0,0.1,0,0.2,0,0.2c0,0.1,0,0.2,0,0.2c0,0.1,0,0.1,0,0.2s0,0.1,0,0.2l-5.5,1.4
								c0-0.1,0-0.1,0-0.2c0-0.1,0-0.1,0-0.2c0-0.1,0-0.2,0-0.2C49.9,83.8,49.9,83.7,49.9,83.6"/>
							<path class="st6" d="M49.8,84.5l5.5-1.4c0,0.1,0,0.1,0,0.2c0,0.1,0,0.1-0.1,0.2c0,0.1,0,0.1-0.1,0.2c0,0.1-0.1,0.1-0.1,0.2
								l-5.5,1.5c0-0.1,0.1-0.1,0.1-0.2c0-0.1,0-0.1,0.1-0.2s0-0.1,0.1-0.2C49.7,84.6,49.8,84.6,49.8,84.5"/>
							<path class="st7" d="M49.5,85.2l5.5-1.5c0,0.1-0.1,0.1-0.1,0.1s-0.1,0.1-0.1,0.1c0,0-0.1,0.1-0.1,0.1s-0.1,0.1-0.1,0.1
								l-5.5,1.5c0,0,0.1-0.1,0.1-0.1c0,0,0.1-0.1,0.1-0.1c0,0,0.1-0.1,0.1-0.1C49.5,85.3,49.5,85.3,49.5,85.2"/>
							<path class="st8" d="M49.2,85.8l5.5-1.5c0,0-0.1,0.1-0.1,0.1c0,0-0.1,0.1-0.1,0.1c0,0-0.1,0.1-0.1,0.1c0,0-0.1,0.1-0.1,0.1
								l-5.5,1.5c0.1,0,0.1-0.1,0.1-0.1c0,0,0.1-0.1,0.1-0.1c0,0,0.1-0.1,0.1-0.1C49.1,85.9,49.1,85.8,49.2,85.8"/>
							<path class="st9" d="M48.6,86.3l5.5-1.5c0,0-0.1,0.1-0.1,0.1c0,0-0.1,0-0.1,0.1c0,0-0.1,0-0.1,0.1c0,0-0.1,0-0.2,0L48,86.5
								c0.1,0,0.1,0,0.2,0c0,0,0.1,0,0.1-0.1c0,0,0.1,0,0.1-0.1S48.6,86.3,48.6,86.3"/>
						</g>
					</g>
					<g class="st3">
						<defs>
							<path id="SVGID_3_" class="st3" d="M46.7,48c-1.9,0.4-3.7,0.9-5.6,1.3c0.2-0.1,0.4-0.2,0.6-0.3c0.2-0.1,0.4-0.3,0.5-0.5
								c0.1-0.2,0.2-0.5,0.3-0.7c0.1-0.3,0.1-0.6,0.1-0.9l5.6-1.3c0,0.3,0,0.6-0.1,0.9c-0.1,0.3-0.2,0.5-0.3,0.7
								c-0.1,0.2-0.3,0.4-0.5,0.5C47.1,47.8,46.9,47.9,46.7,48z"/>
						</defs>
						<clipPath id="SVGID_4_">
							<use xlink:href="#SVGID_3_"  style="overflow:visible;"/>
						</clipPath>
						<g class="st10">
							<path class="st5" d="M42.7,46.9l5.6-1.3c0,0.1,0,0.1,0,0.2c0,0.1,0,0.1,0,0.2c0,0.1,0,0.1,0,0.2s0,0.1,0,0.2l-5.6,1.3
								c0-0.1,0-0.1,0-0.2c0-0.1,0-0.1,0-0.2s0-0.1,0-0.2C42.7,47,42.7,47,42.7,46.9"/>
							<path class="st6" d="M42.6,47.6l5.6-1.3c0,0.1,0,0.1,0,0.2c0,0.1,0,0.1,0,0.2s0,0.1-0.1,0.1c0,0,0,0.1-0.1,0.1l-5.6,1.3
								c0,0,0-0.1,0.1-0.1s0-0.1,0.1-0.1s0-0.1,0-0.2C42.6,47.8,42.6,47.7,42.6,47.6"/>
							<path class="st7" d="M42.4,48.2l5.6-1.3c0,0,0,0.1-0.1,0.1c0,0,0,0.1-0.1,0.1c0,0,0,0.1-0.1,0.1c0,0-0.1,0.1-0.1,0.1
								l-5.6,1.3c0,0,0.1-0.1,0.1-0.1s0.1-0.1,0.1-0.1c0,0,0-0.1,0.1-0.1C42.3,48.3,42.4,48.3,42.4,48.2"/>
							<path class="st8" d="M42.1,48.7l5.6-1.3c0,0-0.1,0.1-0.1,0.1c0,0-0.1,0.1-0.1,0.1c0,0-0.1,0.1-0.1,0.1s-0.1,0.1-0.1,0.1
								l-5.6,1.3c0,0,0.1-0.1,0.1-0.1s0.1-0.1,0.1-0.1c0,0,0.1-0.1,0.1-0.1C42,48.8,42.1,48.7,42.1,48.7"/>
							<path class="st9" d="M41.7,49.1l5.6-1.3c0,0-0.1,0.1-0.1,0.1c0,0-0.1,0-0.1,0.1s-0.1,0-0.1,0.1c0,0-0.1,0-0.1,0l-5.6,1.3
								c0,0,0.1,0,0.1,0s0.1,0,0.1-0.1c0,0,0.1,0,0.1-0.1C41.6,49.1,41.6,49.1,41.7,49.1"/>
						</g>
					</g>
					<g>
						<polygon class="st11" points="42.6,31.7 48.2,30.5 48.2,45.6 42.7,46.9 						"/>
					</g>
					<g class="st3">
						<defs>
							<path id="SVGID_5_" class="st3" d="M42.8,31.4l5.6-1.3c0,0-0.1,0-0.1,0c0,0-0.1,0-0.1,0.1c0,0,0,0.1,0,0.1c0,0,0,0.1,0,0.1
								l-5.6,1.3c0,0,0-0.1,0-0.1c0,0,0-0.1,0-0.1C42.7,31.5,42.7,31.5,42.8,31.4C42.7,31.4,42.8,31.4,42.8,31.4z"/>
						</defs>
						<clipPath id="SVGID_6_">
							<use xlink:href="#SVGID_5_"  style="overflow:visible;"/>
						</clipPath>
						<g class="st12">
							<path class="st9" d="M42.8,31.4l5.6-1.3c0,0,0,0,0,0c0,0,0,0,0,0c0,0,0,0,0,0c0,0,0,0,0,0L42.8,31.4
								C42.7,31.4,42.7,31.4,42.8,31.4C42.7,31.4,42.8,31.4,42.8,31.4C42.8,31.4,42.8,31.4,42.8,31.4C42.8,31.4,42.8,31.4,42.8,31.4
								"/>
							<path class="st8" d="M42.7,31.4l5.6-1.3c0,0,0,0,0,0c0,0,0,0,0,0c0,0,0,0,0,0s0,0,0,0L42.7,31.4
								C42.7,31.5,42.7,31.5,42.7,31.4C42.7,31.5,42.7,31.5,42.7,31.4C42.7,31.5,42.7,31.5,42.7,31.4C42.7,31.4,42.7,31.4,42.7,31.4
								"/>
							<path class="st7" d="M42.7,31.5l5.6-1.3c0,0,0,0,0,0c0,0,0,0,0,0c0,0,0,0,0,0s0,0,0,0L42.7,31.5
								C42.6,31.6,42.6,31.6,42.7,31.5C42.6,31.5,42.6,31.5,42.7,31.5C42.6,31.5,42.6,31.5,42.7,31.5C42.7,31.5,42.7,31.5,42.7,31.5
								"/>
							<path class="st6" d="M42.6,31.6l5.6-1.3c0,0,0,0,0,0c0,0,0,0,0,0c0,0,0,0,0,0c0,0,0,0,0,0L42.6,31.6
								C42.6,31.6,42.6,31.6,42.6,31.6C42.6,31.6,42.6,31.6,42.6,31.6C42.6,31.6,42.6,31.6,42.6,31.6C42.6,31.6,42.6,31.6,42.6,31.6
								"/>
							<path class="st5" d="M42.6,31.6l5.6-1.3c0,0,0,0,0,0c0,0,0,0,0,0c0,0,0,0,0,0c0,0,0,0,0,0l-5.6,1.3
								C42.6,31.7,42.6,31.7,42.6,31.6C42.6,31.7,42.6,31.7,42.6,31.6C42.6,31.7,42.6,31.7,42.6,31.6C42.6,31.7,42.6,31.7,42.6,31.6
								"/>
						</g>
					</g>
					<g>
						<polygon class="st13" points="49.8,56.3 55.3,54.9 55.4,82.1 49.9,83.6 						"/>
					</g>
					<g class="st3">
						<defs>
							<path id="SVGID_7_" class="st3" d="M50.1,55.7l5.6-1.4c-0.1,0-0.1,0-0.2,0.1c0,0-0.1,0.1-0.1,0.1c0,0.1-0.1,0.1-0.1,0.2
								c0,0.1,0,0.1,0,0.2l-5.6,1.4c0-0.1,0-0.2,0-0.2c0-0.1,0-0.1,0.1-0.2c0-0.1,0.1-0.1,0.1-0.1C50,55.7,50.1,55.7,50.1,55.7z"/>
						</defs>
						<clipPath id="SVGID_8_">
							<use xlink:href="#SVGID_7_"  style="overflow:visible;"/>
						</clipPath>
						<g class="st14">
							<path class="st9" d="M50.1,55.7l5.6-1.4c0,0,0,0,0,0c0,0,0,0,0,0c0,0,0,0,0,0c0,0,0,0,0,0L50,55.8c0,0,0,0,0,0
								S50.1,55.7,50.1,55.7C50.1,55.7,50.1,55.7,50.1,55.7C50.1,55.7,50.1,55.7,50.1,55.7"/>
							<path class="st8" d="M50,55.8l5.6-1.4c0,0,0,0,0,0c0,0,0,0,0,0c0,0,0,0,0,0c0,0,0,0,0,0l-5.6,1.4
								C49.9,55.8,49.9,55.8,50,55.8C49.9,55.8,49.9,55.8,50,55.8C50,55.8,50,55.8,50,55.8C50,55.8,50,55.8,50,55.8"/>
							<path class="st7" d="M49.9,55.9l5.6-1.4c0,0,0,0,0,0c0,0,0,0,0,0c0,0,0,0,0,0c0,0,0,0,0,0L49.8,56
								C49.8,56,49.8,55.9,49.9,55.9C49.9,55.9,49.9,55.9,49.9,55.9C49.9,55.9,49.9,55.9,49.9,55.9C49.9,55.9,49.9,55.9,49.9,55.9"
								/>
							<path class="st6" d="M49.8,56l5.6-1.4c0,0,0,0,0,0s0,0,0,0c0,0,0,0,0,0c0,0,0,0,0,0l-5.6,1.4c0,0,0,0,0,0
								C49.8,56.1,49.8,56.1,49.8,56C49.8,56,49.8,56,49.8,56C49.8,56,49.8,56,49.8,56"/>
							<path class="st5" d="M49.8,56.1l5.6-1.4c0,0,0,0,0,0c0,0,0,0,0,0c0,0,0,0,0,0c0,0,0,0,0,0l-5.6,1.4c0,0,0,0,0,0
								C49.8,56.2,49.8,56.2,49.8,56.1C49.8,56.2,49.8,56.2,49.8,56.1C49.8,56.1,49.8,56.1,49.8,56.1"/>
						</g>
					</g>
					<g class="st3">
						<defs>
							<path id="SVGID_9_" class="st3" d="M61.2,87.3c-1.8,0.5-3.7,1-5.5,1.5c0.3-0.1,0.5-0.2,0.7-0.4c0.2-0.2,0.4-0.4,0.6-0.6
								c0.2-0.3,0.3-0.5,0.4-0.9c0.1-0.3,0.1-0.7,0.1-1.1l5.5-1.5c0,0.4,0,0.7-0.1,1.1c-0.1,0.3-0.2,0.6-0.4,0.9
								c-0.2,0.2-0.4,0.5-0.6,0.6C61.8,87.1,61.5,87.2,61.2,87.3z"/>
						</defs>
						<clipPath id="SVGID_10_">
							<use xlink:href="#SVGID_9_"  style="overflow:visible;"/>
						</clipPath>
						<g class="st15">
							<path class="st5" d="M57.5,85.8l5.5-1.5c0,0.1,0,0.2,0,0.2s0,0.2,0,0.2c0,0.1,0,0.2,0,0.2c0,0.1,0,0.1,0,0.2l-5.5,1.5
								c0-0.1,0-0.1,0-0.2c0-0.1,0-0.1,0-0.2s0-0.2,0-0.2S57.5,85.9,57.5,85.8"/>
							<path class="st6" d="M57.4,86.8l5.5-1.5c0,0.1,0,0.1-0.1,0.2c0,0.1,0,0.1-0.1,0.2c0,0.1,0,0.1-0.1,0.2c0,0.1-0.1,0.1-0.1,0.2
								l-5.5,1.5c0-0.1,0.1-0.1,0.1-0.2c0-0.1,0-0.1,0.1-0.2c0-0.1,0-0.1,0.1-0.2C57.4,86.9,57.4,86.8,57.4,86.8"/>
							<path class="st7" d="M57.2,87.5l5.5-1.5c0,0.1-0.1,0.1-0.1,0.2s-0.1,0.1-0.1,0.1c0,0-0.1,0.1-0.1,0.1c0,0-0.1,0.1-0.1,0.1
								L56.8,88c0,0,0.1-0.1,0.1-0.1c0,0,0.1-0.1,0.1-0.1s0.1-0.1,0.1-0.1S57.2,87.5,57.2,87.5"/>
							<path class="st8" d="M56.8,88l5.5-1.5c0,0-0.1,0.1-0.1,0.1c0,0-0.1,0.1-0.1,0.1c0,0-0.1,0.1-0.1,0.1c0,0-0.1,0.1-0.1,0.1
								l-5.5,1.5c0.1,0,0.1-0.1,0.1-0.1s0.1-0.1,0.1-0.1c0,0,0.1-0.1,0.1-0.1C56.7,88.1,56.8,88.1,56.8,88"/>
							<path class="st9" d="M56.3,88.5l5.5-1.5c0,0-0.1,0.1-0.1,0.1c0,0-0.1,0-0.1,0.1c0,0-0.1,0-0.1,0.1c0,0-0.1,0-0.1,0l-5.5,1.5
								c0.1,0,0.1,0,0.1,0c0,0,0.1,0,0.1-0.1c0,0,0.1,0,0.1-0.1S56.2,88.5,56.3,88.5"/>
						</g>
					</g>
					<g class="st3">
						<defs>
							<path id="SVGID_11_" class="st3" d="M42.7,22.4l5.6-1.3c0.2-0.1,0.5-0.1,0.7-0.1c0.2,0,0.5,0,0.8,0c0.3,0,0.5,0,0.8,0.1
								c0.3,0,0.5,0.1,0.8,0.2l-5.6,1.3c-0.3-0.1-0.5-0.1-0.8-0.2c-0.3,0-0.5-0.1-0.8-0.1c-0.3,0-0.5,0-0.8,0
								C43.2,22.3,43,22.3,42.7,22.4z"/>
						</defs>
						<clipPath id="SVGID_12_">
							<use xlink:href="#SVGID_11_"  style="overflow:visible;"/>
						</clipPath>
						<g class="st16">
							<path class="st9" d="M42.7,22.4l5.6-1.3c0.2-0.1,0.5-0.1,0.7-0.1c0.2,0,0.5,0,0.8,0c0.3,0,0.5,0,0.8,0.1
								c0.3,0,0.5,0.1,0.8,0.2l-5.6,1.3c-0.3-0.1-0.5-0.1-0.8-0.2c-0.3,0-0.5-0.1-0.8-0.1c-0.3,0-0.5,0-0.8,0
								C43.2,22.3,43,22.3,42.7,22.4"/>
						</g>
					</g>
					<g>
						<polygon class="st17" points="45.8,22.4 51.4,21.2 55.9,22.3 50.3,23.6 						"/>
					</g>
					<g>
						<polygon class="st17" points="50.3,23.6 55.9,22.3 60.4,23.4 54.8,24.7 						"/>
					</g>
					<g>
						<polygon class="st18" points="57.4,35.6 63,34.3 63.1,84.4 57.5,85.8 						"/>
					</g>
					<g class="st3">
						<defs>
							<path id="SVGID_13_" class="st3" d="M57.6,35.3l5.6-1.3c0,0-0.1,0-0.1,0c0,0-0.1,0-0.1,0.1c0,0,0,0.1,0,0.1c0,0,0,0.1,0,0.1
								l-5.6,1.3c0,0,0-0.1,0-0.1c0,0,0-0.1,0-0.1S57.5,35.3,57.6,35.3C57.6,35.3,57.6,35.3,57.6,35.3z"/>
						</defs>
						<clipPath id="SVGID_14_">
							<use xlink:href="#SVGID_13_"  style="overflow:visible;"/>
						</clipPath>
						<g class="st19">
							<path class="st9" d="M57.6,35.3l5.6-1.3c0,0,0,0,0,0c0,0,0,0,0,0s0,0,0,0c0,0,0,0,0,0L57.6,35.3
								C57.6,35.3,57.6,35.3,57.6,35.3C57.6,35.3,57.6,35.3,57.6,35.3C57.6,35.3,57.6,35.3,57.6,35.3C57.6,35.3,57.6,35.3,57.6,35.3
								"/>
							<path class="st8" d="M57.6,35.3l5.6-1.3c0,0,0,0,0,0c0,0,0,0,0,0c0,0,0,0,0,0c0,0,0,0,0,0L57.6,35.3
								C57.5,35.4,57.5,35.3,57.6,35.3C57.5,35.3,57.5,35.3,57.6,35.3C57.5,35.3,57.5,35.3,57.6,35.3C57.5,35.3,57.5,35.3,57.6,35.3
								"/>
							<path class="st7" d="M57.5,35.4l5.6-1.3c0,0,0,0,0,0c0,0,0,0,0,0s0,0,0,0c0,0,0,0,0,0L57.5,35.4
								C57.4,35.4,57.5,35.4,57.5,35.4C57.5,35.4,57.5,35.4,57.5,35.4C57.5,35.4,57.5,35.4,57.5,35.4C57.5,35.4,57.5,35.4,57.5,35.4
								"/>
							<path class="st6" d="M57.4,35.4l5.6-1.3c0,0,0,0,0,0c0,0,0,0,0,0c0,0,0,0,0,0c0,0,0,0,0,0L57.4,35.4
								C57.4,35.5,57.4,35.5,57.4,35.4C57.4,35.5,57.4,35.5,57.4,35.4C57.4,35.5,57.4,35.5,57.4,35.4C57.4,35.4,57.4,35.4,57.4,35.4
								"/>
							<path class="st5" d="M57.4,35.5l5.6-1.3c0,0,0,0,0,0c0,0,0,0,0,0c0,0,0,0,0,0c0,0,0,0,0,0l-5.6,1.3
								C57.4,35.6,57.4,35.6,57.4,35.5C57.4,35.6,57.4,35.6,57.4,35.5C57.4,35.6,57.4,35.5,57.4,35.5C57.4,35.5,57.4,35.5,57.4,35.5
								"/>
						</g>
					</g>
					<g class="st3">
						<defs>
							<path id="SVGID_15_" class="st3" d="M67.4,53.6L61.8,55c0.2-0.1,0.4-0.2,0.6-0.3c0.2-0.1,0.4-0.3,0.5-0.5
								c0.1-0.2,0.2-0.5,0.3-0.7c0.1-0.3,0.1-0.6,0.1-0.9l5.6-1.4c0,0.3,0,0.6-0.1,0.9c-0.1,0.3-0.2,0.5-0.3,0.7
								c-0.1,0.2-0.3,0.4-0.5,0.5C67.9,53.4,67.6,53.5,67.4,53.6z"/>
						</defs>
						<clipPath id="SVGID_16_">
							<use xlink:href="#SVGID_15_"  style="overflow:visible;"/>
						</clipPath>
						<g class="st20">
							<path class="st5" d="M63.4,52.5l5.6-1.4c0,0.1,0,0.1,0,0.2c0,0.1,0,0.1,0,0.2c0,0.1,0,0.1,0,0.2c0,0.1,0,0.1,0,0.2l-5.6,1.4
								c0-0.1,0-0.1,0-0.2c0-0.1,0-0.1,0-0.2c0-0.1,0-0.1,0-0.2S63.4,52.6,63.4,52.5"/>
							<path class="st6" d="M63.3,53.3l5.6-1.4c0,0.1,0,0.1,0,0.2s0,0.1,0,0.2c0,0.1,0,0.1-0.1,0.1c0,0,0,0.1-0.1,0.1l-5.6,1.4
								c0,0,0-0.1,0.1-0.1c0,0,0-0.1,0.1-0.1c0-0.1,0-0.1,0-0.2C63.3,53.4,63.3,53.3,63.3,53.3"/>
							<path class="st7" d="M63.1,53.9l5.6-1.4c0,0,0,0.1-0.1,0.1s0,0.1-0.1,0.1c0,0-0.1,0.1-0.1,0.1c0,0-0.1,0.1-0.1,0.1l-5.6,1.4
								c0,0,0.1-0.1,0.1-0.1s0.1-0.1,0.1-0.1s0-0.1,0.1-0.1C63.1,54,63.1,53.9,63.1,53.9"/>
							<path class="st8" d="M62.8,54.3l5.6-1.4c0,0-0.1,0.1-0.1,0.1c0,0-0.1,0.1-0.1,0.1c0,0-0.1,0.1-0.1,0.1c0,0-0.1,0.1-0.1,0.1
								l-5.6,1.4c0,0,0.1-0.1,0.1-0.1c0,0,0.1-0.1,0.1-0.1c0,0,0.1-0.1,0.1-0.1C62.8,54.4,62.8,54.4,62.8,54.3"/>
							<path class="st9" d="M62.4,54.7l5.6-1.4c0,0-0.1,0.1-0.1,0.1c0,0-0.1,0-0.1,0.1c0,0-0.1,0-0.1,0.1c0,0-0.1,0-0.1,0L61.8,55
								c0,0,0.1,0,0.1,0c0,0,0.1,0,0.1-0.1c0,0,0.1,0,0.1-0.1S62.3,54.8,62.4,54.7"/>
						</g>
					</g>
					<g>
						<polygon class="st21" points="63.4,37.3 69,35.9 69,51.2 63.4,52.5 						"/>
					</g>
					<g class="st3">
						<defs>
							<path id="SVGID_17_" class="st3" d="M54.8,24.7l5.6-1.3c1.2,0.3,2.3,0.9,3.3,1.7c1,0.8,2,1.8,2.7,2.9
								c0.8,1.1,1.4,2.4,1.9,3.8c0.4,1.3,0.7,2.8,0.7,4.2l-5.6,1.3c0-1.4-0.2-2.9-0.7-4.2c-0.4-1.4-1.1-2.6-1.9-3.8
								c-0.8-1.1-1.7-2.1-2.7-2.9C57.1,25.6,55.9,25,54.8,24.7z"/>
						</defs>
						<clipPath id="SVGID_18_">
							<use xlink:href="#SVGID_17_"  style="overflow:visible;"/>
						</clipPath>
						<g class="st22">
							<path class="st9" d="M54.8,24.7l5.6-1.3c0.3,0.1,0.7,0.2,1,0.3c0.3,0.1,0.7,0.3,1,0.4c0.3,0.2,0.6,0.4,0.9,0.6
								c0.3,0.2,0.6,0.4,0.9,0.7l-5.6,1.3c-0.3-0.2-0.6-0.5-0.9-0.7c-0.3-0.2-0.6-0.4-0.9-0.6c-0.3-0.2-0.6-0.3-1-0.4
								C55.4,24.9,55.1,24.8,54.8,24.7"/>
							<path class="st8" d="M58.5,26.7l5.6-1.3c0.2,0.1,0.3,0.3,0.5,0.4c0.2,0.1,0.3,0.3,0.5,0.5c0.2,0.2,0.3,0.3,0.4,0.5
								c0.1,0.2,0.3,0.3,0.4,0.5l-5.6,1.3c-0.1-0.2-0.3-0.3-0.4-0.5c-0.1-0.2-0.3-0.3-0.4-0.5c-0.2-0.2-0.3-0.3-0.5-0.5
								C58.9,27,58.7,26.8,58.5,26.7"/>
							<path class="st7" d="M60.4,28.6l5.6-1.3c0.1,0.2,0.2,0.3,0.4,0.5c0.1,0.2,0.2,0.3,0.3,0.5c0.1,0.2,0.2,0.3,0.3,0.5
								c0.1,0.2,0.2,0.3,0.3,0.5l-5.6,1.3c-0.1-0.2-0.2-0.4-0.3-0.5c-0.1-0.2-0.2-0.3-0.3-0.5c-0.1-0.2-0.2-0.3-0.3-0.5
								C60.6,28.9,60.5,28.8,60.4,28.6"/>
							<path class="st6" d="M61.7,30.6l5.6-1.3c0.1,0.2,0.2,0.4,0.3,0.6c0.1,0.2,0.2,0.4,0.3,0.6c0.1,0.2,0.2,0.4,0.2,0.6
								c0.1,0.2,0.2,0.4,0.2,0.6L62.7,33c-0.1-0.2-0.1-0.4-0.2-0.6c-0.1-0.2-0.2-0.4-0.2-0.6c-0.1-0.2-0.2-0.4-0.3-0.6
								C61.9,31,61.8,30.8,61.7,30.6"/>
							<path class="st5" d="M62.7,33l5.6-1.3c0.1,0.3,0.2,0.7,0.3,1c0.1,0.3,0.2,0.7,0.2,1.1c0.1,0.4,0.1,0.7,0.1,1.1
								c0,0.4,0,0.7,0,1.1l-5.6,1.3c0-0.4,0-0.7,0-1.1c0-0.4-0.1-0.7-0.1-1.1c-0.1-0.4-0.1-0.7-0.2-1.1C62.9,33.7,62.8,33.4,62.7,33
								"/>
						</g>
					</g>
					<g>
						<path class="st23" d="M54.8,24.7c1.2,0.3,2.3,0.9,3.3,1.7c1,0.8,2,1.8,2.7,2.9c0.8,1.1,1.4,2.4,1.9,3.8
							c0.4,1.4,0.7,2.8,0.7,4.2l0,15.3c0,0.4-0.1,0.8-0.2,1.2c-0.1,0.3-0.3,0.6-0.6,0.8c-0.2,0.2-0.5,0.4-0.8,0.4
							c-0.3,0.1-0.7,0.1-1,0c-0.4-0.1-0.7-0.3-1-0.5c-0.3-0.2-0.6-0.5-0.8-0.9c-0.2-0.3-0.4-0.7-0.6-1.1c-0.1-0.4-0.2-0.8-0.2-1.3
							l0-15.3c0-0.1,0-0.1,0-0.2s0-0.1-0.1-0.2c0,0-0.1-0.1-0.1-0.1s-0.1-0.1-0.1-0.1c0,0-0.1,0-0.1,0c0,0-0.1,0-0.1,0.1
							s-0.1,0.1-0.1,0.1c0,0,0,0.1,0,0.2l0.1,50.2c0,0.5-0.1,1-0.2,1.4c-0.2,0.4-0.4,0.8-0.7,1c-0.3,0.3-0.6,0.4-1,0.5
							c-0.4,0.1-0.8,0.1-1.2-0.1c-0.4-0.1-0.9-0.4-1.2-0.7c-0.4-0.3-0.7-0.7-1-1.1c-0.3-0.4-0.5-0.9-0.7-1.4c-0.2-0.5-0.3-1-0.3-1.6
							l-0.1-27.3c0-0.1,0-0.2-0.1-0.3c0-0.1-0.1-0.2-0.1-0.3c-0.1-0.1-0.1-0.2-0.2-0.2c-0.1-0.1-0.2-0.1-0.3-0.1c-0.1,0-0.2,0-0.2,0
							c-0.1,0-0.1,0.1-0.2,0.1c-0.1,0.1-0.1,0.1-0.1,0.2c0,0.1,0,0.2,0,0.3l0.1,27.3c0,0.5-0.1,1-0.2,1.4c-0.2,0.4-0.4,0.7-0.7,1
							c-0.3,0.3-0.6,0.4-1,0.5c-0.4,0.1-0.8,0.1-1.2-0.1c-0.4-0.1-0.8-0.4-1.2-0.7c-0.4-0.3-0.7-0.7-1-1.1c-0.3-0.4-0.5-0.9-0.7-1.4
							c-0.2-0.5-0.3-1-0.3-1.5l-0.2-49.8c0-0.1,0-0.1,0-0.2s0-0.1-0.1-0.2c0,0-0.1-0.1-0.1-0.1c0,0-0.1-0.1-0.1-0.1
							c-0.1,0-0.1,0-0.1,0c0,0-0.1,0-0.1,0.1c0,0-0.1,0.1-0.1,0.1c0,0,0,0.1,0,0.2l0.1,15.2c0,0.4-0.1,0.8-0.2,1.2
							c-0.1,0.3-0.3,0.6-0.5,0.8c-0.2,0.2-0.5,0.4-0.8,0.4c-0.3,0.1-0.6,0.1-1,0c-0.4-0.1-0.7-0.3-1-0.5c-0.3-0.2-0.6-0.5-0.8-0.9
							c-0.2-0.3-0.4-0.7-0.6-1.1c-0.1-0.4-0.2-0.8-0.2-1.3l-0.1-15c0-1.4,0.2-2.7,0.6-3.8c0.4-1.1,1-2.1,1.8-2.8
							c0.8-0.7,1.7-1.3,2.7-1.5c1-0.3,2.1-0.3,3.3,0l4.4,1.1L54.8,24.7z"/>
					</g>
				</g>
				<g class="st3">
					<g class="st3">
						<defs>
							<path id="SVGID_19_" class="st3" d="M48.4,4.5L54,3.2c0.1,0,0.3-0.1,0.4-0.1c0.1,0,0.3,0,0.5,0c0.2,0,0.3,0,0.5,0
								c0.2,0,0.3,0,0.5,0.1l-5.6,1.2c-0.2,0-0.3-0.1-0.5-0.1c-0.2,0-0.3,0-0.5,0c-0.2,0-0.3,0-0.5,0C48.7,4.4,48.5,4.4,48.4,4.5z"
								/>
						</defs>
						<clipPath id="SVGID_20_">
							<use xlink:href="#SVGID_19_"  style="overflow:visible;"/>
						</clipPath>
						<g class="st24">
							<path class="st9" d="M48.4,4.5L54,3.2c0.1,0,0.3-0.1,0.4-0.1c0.1,0,0.3,0,0.5,0c0.2,0,0.3,0,0.5,0c0.2,0,0.3,0,0.5,0.1
								l-5.6,1.2c-0.2,0-0.3-0.1-0.5-0.1c-0.2,0-0.3,0-0.5,0c-0.2,0-0.3,0-0.5,0C48.7,4.4,48.5,4.4,48.4,4.5"/>
						</g>
					</g>
					<g>
						<path class="st23" d="M50.2,4.5c0.7,0.2,1.4,0.5,2,1c0.6,0.5,1.2,1.1,1.7,1.8c0.5,0.7,0.9,1.5,1.1,2.3
							c0.3,0.8,0.4,1.7,0.4,2.6c0,0.9-0.1,1.7-0.4,2.4c-0.3,0.7-0.6,1.3-1.1,1.7c-0.5,0.5-1,0.8-1.7,0.9c-0.6,0.2-1.3,0.2-2,0
							c-0.7-0.2-1.4-0.5-2-1c-0.6-0.5-1.2-1.1-1.7-1.8c-0.5-0.7-0.9-1.5-1.1-2.3c-0.3-0.8-0.4-1.7-0.4-2.5c0-0.9,0.1-1.7,0.4-2.4
							c0.3-0.7,0.6-1.3,1.1-1.7c0.5-0.5,1-0.8,1.6-1C48.8,4.3,49.5,4.3,50.2,4.5z"/>
					</g>
					<g class="st3">
						<defs>
							<path id="SVGID_21_" class="st3" d="M57.8,15.9c-1.9,0.4-3.7,0.8-5.6,1.3c0.5-0.1,0.9-0.3,1.3-0.6c0.4-0.3,0.8-0.7,1-1.1
								c0.3-0.4,0.5-0.9,0.7-1.5c0.2-0.6,0.2-1.2,0.2-1.9c0-0.9-0.2-1.7-0.4-2.6c-0.3-0.8-0.7-1.6-1.1-2.3c-0.5-0.7-1-1.3-1.7-1.8
								c-0.6-0.5-1.3-0.8-2-1l5.6-1.2c0.7,0.2,1.4,0.5,2,1C58.5,4.7,59,5.3,59.5,6c0.5,0.7,0.9,1.5,1.1,2.3c0.3,0.8,0.4,1.7,0.4,2.6
								c0,0.7-0.1,1.3-0.2,1.9c-0.2,0.6-0.4,1.1-0.7,1.5c-0.3,0.4-0.6,0.8-1.1,1.1C58.7,15.6,58.2,15.8,57.8,15.9z"/>
						</defs>
						<clipPath id="SVGID_22_">
							<use xlink:href="#SVGID_21_"  style="overflow:visible;"/>
						</clipPath>
						<g class="st25">
							<path class="st9" d="M50.2,4.5l5.6-1.2c0.2,0,0.4,0.1,0.6,0.2c0.2,0.1,0.4,0.2,0.6,0.3c0.2,0.1,0.4,0.2,0.6,0.3
								c0.2,0.1,0.4,0.3,0.5,0.4l-5.6,1.2c-0.2-0.1-0.4-0.3-0.5-0.4c-0.2-0.1-0.4-0.2-0.6-0.3c-0.2-0.1-0.4-0.2-0.6-0.3
								C50.6,4.6,50.4,4.5,50.2,4.5"/>
							<path class="st8" d="M52.5,5.7l5.6-1.2c0.1,0.1,0.2,0.2,0.3,0.3c0.1,0.1,0.2,0.2,0.3,0.3c0.1,0.1,0.2,0.2,0.3,0.3
								c0.1,0.1,0.2,0.2,0.3,0.3l-5.6,1.2c-0.1-0.1-0.2-0.2-0.3-0.3c-0.1-0.1-0.2-0.2-0.3-0.3C53,6.1,52.9,6,52.8,6
								C52.7,5.9,52.6,5.8,52.5,5.7"/>
							<path class="st7" d="M53.6,6.8l5.6-1.2c0.1,0.1,0.1,0.2,0.2,0.3c0.1,0.1,0.1,0.2,0.2,0.3c0.1,0.1,0.1,0.2,0.2,0.3
								C59.9,6.6,60,6.7,60,6.8L54.4,8c-0.1-0.1-0.1-0.2-0.2-0.3c-0.1-0.1-0.1-0.2-0.2-0.3c-0.1-0.1-0.1-0.2-0.2-0.3
								C53.8,7,53.7,6.9,53.6,6.8"/>
							<path class="st6" d="M54.4,8L60,6.8c0.1,0.1,0.1,0.2,0.2,0.4c0.1,0.1,0.1,0.2,0.2,0.4c0.1,0.1,0.1,0.2,0.1,0.4
								c0,0.1,0.1,0.3,0.1,0.4L55,9.5c0-0.1-0.1-0.3-0.1-0.4c0-0.1-0.1-0.2-0.2-0.4c-0.1-0.1-0.1-0.2-0.2-0.4
								C54.5,8.3,54.5,8.2,54.4,8"/>
							<path class="st5" d="M55,9.5l5.6-1.2c0.1,0.2,0.1,0.4,0.2,0.6c0.1,0.2,0.1,0.4,0.1,0.6C61,9.8,61,10,61,10.2
								c0,0.2,0,0.4,0,0.7c0,0.1,0,0.3,0,0.4c0,0.1,0,0.3,0,0.4c0,0.1,0,0.2,0,0.4c0,0.1,0,0.2-0.1,0.4l-5.6,1.2
								c0-0.1,0-0.2,0.1-0.4c0-0.1,0-0.2,0-0.4c0-0.1,0-0.3,0-0.4c0-0.1,0-0.3,0-0.4c0-0.2,0-0.4,0-0.7c0-0.2,0-0.4-0.1-0.7
								c0-0.2-0.1-0.4-0.1-0.6S55.1,9.7,55,9.5"/>
							<path class="st6" d="M55.3,13.6l5.6-1.2c0,0.1-0.1,0.2-0.1,0.3c0,0.1-0.1,0.2-0.1,0.3c0,0.1-0.1,0.2-0.1,0.3
								c0,0.1-0.1,0.2-0.1,0.3l-5.6,1.2c0-0.1,0.1-0.2,0.1-0.3c0-0.1,0.1-0.2,0.1-0.3c0-0.1,0.1-0.2,0.1-0.3
								C55.3,13.8,55.3,13.7,55.3,13.6"/>
							<path class="st7" d="M54.9,14.9l5.6-1.2c0,0.1-0.1,0.2-0.1,0.3c0,0.1-0.1,0.2-0.1,0.2c0,0.1-0.1,0.2-0.2,0.2
								c-0.1,0.1-0.1,0.1-0.2,0.2l-5.6,1.2c0.1-0.1,0.1-0.1,0.2-0.2c0.1-0.1,0.1-0.2,0.2-0.2c0-0.1,0.1-0.2,0.1-0.2
								C54.8,15,54.8,14.9,54.9,14.9"/>
							<path class="st8" d="M54.3,15.8l5.6-1.2c-0.1,0.1-0.1,0.2-0.2,0.2c-0.1,0.1-0.1,0.1-0.2,0.2c-0.1,0.1-0.2,0.1-0.2,0.2
								c-0.1,0.1-0.2,0.1-0.2,0.2l-5.6,1.3c0.1-0.1,0.2-0.1,0.2-0.2c0.1-0.1,0.2-0.1,0.2-0.2c0.1-0.1,0.1-0.1,0.2-0.2
								C54.2,16,54.2,15.9,54.3,15.8"/>
							<path class="st9" d="M53.4,16.6l5.6-1.3c-0.1,0.1-0.2,0.1-0.3,0.2c-0.1,0.1-0.2,0.1-0.3,0.1c-0.1,0-0.2,0.1-0.3,0.1
								c-0.1,0-0.2,0.1-0.3,0.1l-5.6,1.3c0.1,0,0.2-0.1,0.3-0.1c0.1,0,0.2-0.1,0.3-0.1c0.1,0,0.2-0.1,0.3-0.1
								C53.2,16.8,53.3,16.7,53.4,16.6"/>
						</g>
					</g>
				</g>
			</g>
		</g>
	</g>
	<rect x="-0.1" y="0.5" class="st26" width="112" height="112"/>
</g>
</svg>
