<?xml version="1.0" encoding="utf-8"?>
<!-- Generator: Adobe Illustrator 21.0.0, SVG Export Plug-In . SVG Version: 6.00 Build 0)  -->
<svg version="1.1" id="Layer_1" xmlns="http://www.w3.org/2000/svg" xmlns:xlink="http://www.w3.org/1999/xlink" x="0px" y="0px"
	 viewBox="0 0 112 112" style="enable-background:new 0 0 112 112;" xml:space="preserve">
<style type="text/css">
	.st0{enable-background:new    ;}
	.st1{clip-path:url(#SVGID_2_);enable-background:new    ;}
	.st2{fill:#636363;}
	.st3{fill:#676767;}
	.st4{fill:#6B6B6B;}
	.st5{fill:#6F6F6F;}
	.st6{fill:#737373;}
	.st7{clip-path:url(#SVGID_4_);enable-background:new    ;}
	.st8{clip-path:url(#SVGID_6_);enable-background:new    ;}
	.st9{clip-path:url(#SVGID_8_);enable-background:new    ;}
	.st10{clip-path:url(#SVGID_10_);enable-background:new    ;}
	.st11{clip-path:url(#SVGID_12_);enable-background:new    ;}
	.st12{clip-path:url(#SVGID_14_);enable-background:new    ;}
	.st13{clip-path:url(#SVGID_16_);enable-background:new    ;}
	.st14{clip-path:url(#SVGID_18_);enable-background:new    ;}
	.st15{clip-path:url(#SVGID_20_);enable-background:new    ;}
	.st16{fill:#858585;}
	.st17{clip-path:url(#SVGID_22_);enable-background:new    ;}
	.st18{fill:#8A8A8A;}
	.st19{fill:#8F8F8F;}
	.st20{fill:#949494;}
	.st21{fill:#999999;}
	.st22{clip-path:url(#SVGID_24_);enable-background:new    ;}
	.st23{clip-path:url(#SVGID_26_);enable-background:new    ;}
	.st24{clip-path:url(#SVGID_28_);enable-background:new    ;}
	.st25{clip-path:url(#SVGID_30_);enable-background:new    ;}
	.st26{clip-path:url(#SVGID_32_);enable-background:new    ;}
	.st27{clip-path:url(#SVGID_34_);enable-background:new    ;}
	.st28{clip-path:url(#SVGID_36_);enable-background:new    ;}
	.st29{clip-path:url(#SVGID_38_);enable-background:new    ;}
	.st30{clip-path:url(#SVGID_40_);enable-background:new    ;}
	.st31{clip-path:url(#SVGID_42_);enable-background:new    ;}
	.st32{clip-path:url(#SVGID_44_);enable-background:new    ;}
	.st33{clip-path:url(#SVGID_46_);enable-background:new    ;}
	.st34{clip-path:url(#SVGID_48_);enable-background:new    ;}
	.st35{clip-path:url(#SVGID_50_);enable-background:new    ;}
	.st36{fill:#B9B9B9;}
	.st37{fill:#F7F7F7;}
	.st38{clip-path:url(#SVGID_52_);enable-background:new    ;}
	.st39{fill:none;}
</style>
<g>
	<g>
		<g>
			<g class="st0">
				<g class="st0">
					<defs>
						<path id="SVGID_1_" class="st0" d="M24.4,84.9l6.8-1.7c0,0,0,0,0,0c0,0,0,0,0,0c0,0,0,0,0,0s0,0,0,0c-0.1,0-0.2,0.1-0.2,0.1
							c-0.1,0.1-0.1,0.2-0.2,0.2c-0.1,0.1-0.1,0.2-0.1,0.3c0,0.1-0.1,0.2-0.1,0.3c-0.1,0.3-0.1,0.5-0.2,0.7c0,0.2,0,0.4,0,0.6
							c0,0.2,0,0.4,0,0.5c0,0.2-0.1,0.4-0.1,0.6c0,0.1-0.1,0.2-0.1,0.4c0,0.1-0.1,0.3-0.2,0.4c-0.1,0.1-0.2,0.3-0.3,0.4
							c-0.1,0.1-0.2,0.2-0.4,0.2l-6.8,1.7c0.1,0,0.3-0.1,0.4-0.2c0.1-0.1,0.2-0.2,0.3-0.4c0.1-0.1,0.1-0.3,0.2-0.4
							c0-0.1,0.1-0.3,0.1-0.4c0.1-0.2,0.1-0.4,0.1-0.6c0-0.2,0-0.4,0-0.5c0-0.2,0-0.4,0-0.6c0-0.2,0.1-0.4,0.2-0.7
							c0-0.1,0.1-0.2,0.1-0.3c0-0.1,0.1-0.2,0.1-0.3c0.1-0.1,0.1-0.2,0.2-0.2C24.2,85,24.3,84.9,24.4,84.9
							C24.4,84.9,24.4,84.9,24.4,84.9C24.4,84.9,24.4,84.9,24.4,84.9C24.4,84.9,24.4,84.9,24.4,84.9C24.4,84.9,24.4,84.9,24.4,84.9z
							"/>
					</defs>
					<clipPath id="SVGID_2_">
						<use xlink:href="#SVGID_1_"  style="overflow:visible;"/>
					</clipPath>
					<g class="st1">
						<path class="st2" d="M24.4,84.9l6.8-1.7c0,0,0,0,0,0c0,0,0,0,0,0c0,0,0,0,0,0s0,0,0,0c0,0,0,0,0,0c0,0,0,0,0,0c0,0,0,0,0,0
							c0,0,0,0,0,0L24.3,85c0,0,0,0,0,0C24.3,84.9,24.3,84.9,24.4,84.9C24.3,84.9,24.4,84.9,24.4,84.9
							C24.4,84.9,24.4,84.9,24.4,84.9C24.4,84.9,24.4,84.9,24.4,84.9C24.4,84.9,24.4,84.9,24.4,84.9C24.4,84.9,24.4,84.9,24.4,84.9
							C24.4,84.9,24.4,84.9,24.4,84.9"/>
						<path class="st3" d="M24.3,85l6.8-1.7c0,0,0,0,0,0s0,0,0,0c0,0,0,0,0,0c0,0,0,0,0,0l-6.8,1.7c0,0,0,0,0,0
							C24.2,85,24.2,85,24.3,85C24.2,85,24.2,85,24.3,85C24.2,85,24.3,85,24.3,85"/>
						<path class="st4" d="M24.1,85.1l6.8-1.7c0,0,0,0,0,0.1c0,0,0,0,0,0.1c0,0,0,0,0,0.1c0,0,0,0,0,0.1L24,85.4c0,0,0,0,0-0.1
							c0,0,0,0,0-0.1C24,85.2,24.1,85.2,24.1,85.1C24.1,85.1,24.1,85.1,24.1,85.1"/>
						<path class="st5" d="M24,85.4l6.8-1.7c0,0,0,0.1-0.1,0.1c0,0,0,0.1-0.1,0.1s0,0.1,0,0.2s0,0.1,0,0.2c0,0,0,0.1,0,0.1
							c0,0,0,0.1,0,0.1c0,0,0,0.1,0,0.1c0,0,0,0.1,0,0.1l-6.8,1.7c0,0,0-0.1,0-0.1c0,0,0-0.1,0-0.1c0,0,0-0.1,0-0.1c0,0,0-0.1,0-0.1
							c0-0.1,0-0.1,0-0.2c0-0.1,0-0.1,0-0.2c0-0.1,0-0.1,0.1-0.1C23.9,85.4,23.9,85.4,24,85.4"/>
						<path class="st6" d="M23.7,86.3l6.8-1.7c0,0.2-0.1,0.3-0.1,0.5c0,0.2,0,0.3,0,0.4c0,0.1,0,0.3,0,0.4c0,0.1,0,0.3-0.1,0.5
							l-6.8,1.7c0-0.2,0.1-0.3,0.1-0.5s0-0.3,0-0.4s0-0.3,0-0.4C23.6,86.7,23.6,86.5,23.7,86.3"/>
						<path class="st5" d="M23.5,88.1l6.8-1.7c0,0,0,0,0,0.1c0,0,0,0,0,0.1s0,0,0,0.1c0,0,0,0,0,0.1c0,0,0,0.1,0,0.1
							c0,0.1,0,0.1-0.1,0.2c0,0.1,0,0.1-0.1,0.2c0,0.1,0,0.1-0.1,0.2l-6.8,1.7c0-0.1,0.1-0.1,0.1-0.2s0-0.1,0.1-0.2
							c0-0.1,0-0.1,0.1-0.2c0-0.1,0-0.1,0-0.1c0,0,0,0,0-0.1s0,0,0-0.1S23.5,88.2,23.5,88.1C23.5,88.2,23.5,88.2,23.5,88.1"/>
						<path class="st4" d="M23.2,89.1l6.8-1.7c0,0,0,0.1-0.1,0.1c0,0,0,0.1-0.1,0.1c0,0,0,0.1-0.1,0.1c0,0,0,0.1-0.1,0.1l-6.8,1.7
							c0,0,0-0.1,0.1-0.1s0-0.1,0.1-0.1s0-0.1,0.1-0.1S23.2,89.1,23.2,89.1"/>
						<path class="st3" d="M22.9,89.4l6.8-1.7c0,0,0,0-0.1,0.1c0,0,0,0-0.1,0.1s0,0-0.1,0.1c0,0,0,0-0.1,0l-6.8,1.7c0,0,0,0,0.1,0
							c0,0,0,0,0.1-0.1C22.8,89.5,22.9,89.5,22.9,89.4C22.9,89.5,22.9,89.5,22.9,89.4"/>
						<path class="st2" d="M22.7,89.6l6.8-1.7c0,0,0,0,0,0s0,0-0.1,0s0,0-0.1,0c0,0,0,0-0.1,0l-6.8,1.7c0,0,0,0,0.1,0c0,0,0,0,0.1,0
							C22.6,89.7,22.6,89.7,22.7,89.6C22.7,89.7,22.7,89.7,22.7,89.6"/>
					</g>
				</g>
				<g class="st0">
					<defs>
						<path id="SVGID_3_" class="st0" d="M29.6,86.3l6.8-1.7c0,0,0,0,0,0c0,0,0,0,0,0c0,0,0,0,0,0c0,0,0,0,0,0
							c-0.3,0.1-0.5,0.5-0.6,0.9c-0.1,0.5-0.2,1-0.2,1.6c-0.1,0.6-0.1,1.1-0.2,1.6c-0.1,0.4-0.3,0.8-0.5,0.9c0,0,0,0,0,0
							c0,0,0,0,0,0c0,0,0,0,0,0c0,0,0,0,0,0l-6.8,1.7c0,0,0,0,0,0s0,0,0,0s0,0,0,0c0,0,0,0,0,0c0.3-0.1,0.4-0.4,0.5-0.9
							c0.1-0.4,0.2-1,0.2-1.6c0.1-0.6,0.1-1.1,0.2-1.6c0.1-0.5,0.3-0.8,0.6-0.9C29.5,86.4,29.6,86.4,29.6,86.3
							C29.6,86.4,29.6,86.4,29.6,86.3C29.6,86.4,29.6,86.4,29.6,86.3C29.6,86.4,29.6,86.4,29.6,86.3z"/>
					</defs>
					<clipPath id="SVGID_4_">
						<use xlink:href="#SVGID_3_"  style="overflow:visible;"/>
					</clipPath>
					<g class="st7">
						<path class="st2" d="M29.6,86.3l6.8-1.7c0,0,0,0,0,0c0,0,0,0,0,0c0,0,0,0,0,0c0,0,0,0,0,0c0,0,0,0,0,0s0,0,0,0c0,0,0,0,0,0
							c0,0,0,0,0,0l-6.8,1.7c0,0,0,0,0,0c0,0,0,0,0,0s0,0,0,0c0,0,0,0,0,0C29.5,86.4,29.6,86.4,29.6,86.3
							C29.6,86.4,29.6,86.4,29.6,86.3C29.6,86.4,29.6,86.4,29.6,86.3C29.6,86.4,29.6,86.4,29.6,86.3"/>
						<path class="st3" d="M29.4,86.4l6.8-1.7c0,0,0,0-0.1,0s0,0-0.1,0c0,0,0,0,0,0c0,0,0,0,0,0.1l-6.8,1.7c0,0,0,0,0-0.1
							c0,0,0,0,0,0S29.4,86.5,29.4,86.4C29.4,86.5,29.4,86.4,29.4,86.4"/>
						<path class="st4" d="M29.2,86.6l6.8-1.7c0,0,0,0,0,0.1c0,0,0,0,0,0.1s0,0,0,0.1c0,0,0,0,0,0.1l-6.8,1.7c0,0,0-0.1,0-0.1
							c0,0,0,0,0-0.1S29.2,86.7,29.2,86.6C29.2,86.6,29.2,86.6,29.2,86.6"/>
						<path class="st5" d="M29.1,86.9l6.8-1.7c0,0,0,0.1-0.1,0.1c0,0.1,0,0.1-0.1,0.2c0,0.1,0,0.1,0,0.2c0,0.1,0,0.1,0,0.2l-6.8,1.7
							c0-0.1,0-0.1,0-0.2c0-0.1,0-0.1,0-0.2s0-0.1,0.1-0.2C29,87,29.1,86.9,29.1,86.9"/>
						<path class="st6" d="M28.9,87.5l6.8-1.7c0,0.2-0.1,0.5-0.1,0.7c0,0.2-0.1,0.5-0.1,0.7c0,0.3,0,0.5-0.1,0.7
							c0,0.2-0.1,0.5-0.1,0.7l-6.8,1.7c0-0.2,0.1-0.4,0.1-0.7c0-0.2,0.1-0.5,0.1-0.7c0-0.3,0-0.5,0.1-0.8
							C28.8,88,28.8,87.7,28.9,87.5"/>
						<path class="st5" d="M28.5,90.4l6.8-1.7c0,0.1,0,0.1,0,0.2s0,0.1,0,0.1c0,0,0,0.1,0,0.1c0,0,0,0.1-0.1,0.1l-6.8,1.7
							c0,0,0-0.1,0.1-0.1s0-0.1,0-0.1c0,0,0-0.1,0-0.1C28.5,90.5,28.5,90.4,28.5,90.4"/>
						<path class="st4" d="M28.3,90.9l6.8-1.7c0,0,0,0,0,0.1c0,0,0,0,0,0.1c0,0,0,0,0,0.1s0,0,0,0l-6.8,1.7c0,0,0,0,0,0s0,0,0-0.1
							C28.3,91,28.3,91,28.3,90.9C28.3,91,28.3,91,28.3,90.9"/>
						<path class="st3" d="M28.2,91.2l6.8-1.7c0,0,0,0,0,0c0,0,0,0,0,0c0,0,0,0,0,0c0,0,0,0,0,0l-6.8,1.7c0,0,0,0,0,0
							C28.1,91.3,28.1,91.2,28.2,91.2C28.2,91.2,28.2,91.2,28.2,91.2C28.2,91.2,28.2,91.2,28.2,91.2"/>
						<path class="st2" d="M28.1,91.3l6.8-1.7c0,0,0,0,0,0s0,0,0,0c0,0,0,0,0,0s0,0,0,0c0,0,0,0,0,0c0,0,0,0,0,0c0,0,0,0,0,0
							c0,0,0,0,0,0l-6.8,1.7c0,0,0,0,0,0s0,0,0,0s0,0,0,0c0,0,0,0,0,0C28,91.3,28,91.3,28.1,91.3C28,91.3,28,91.3,28.1,91.3
							C28,91.3,28,91.3,28.1,91.3C28,91.3,28.1,91.3,28.1,91.3"/>
					</g>
				</g>
				<g class="st0">
					<defs>
						<path id="SVGID_5_" class="st0" d="M40.6,90.2L33.8,92c0,0,0.1,0,0.1,0c0,0,0.1,0,0.1-0.1s0.1-0.1,0.1-0.1
							c0,0,0.1-0.1,0.1-0.1c0.1-0.2,0.2-0.4,0.3-0.6c0.1-0.2,0.1-0.5,0.1-0.8c0-0.3-0.1-0.6-0.1-1c-0.1-0.3-0.2-0.7-0.4-1l6.9-1.7
							c0.2,0.3,0.3,0.7,0.4,1c0.1,0.3,0.1,0.6,0.1,0.9c0,0.3,0,0.6-0.1,0.8c-0.1,0.2-0.1,0.4-0.3,0.6c0,0-0.1,0.1-0.1,0.1
							c0,0-0.1,0.1-0.1,0.1c0,0-0.1,0-0.1,0.1C40.7,90.2,40.7,90.2,40.6,90.2z"/>
					</defs>
					<clipPath id="SVGID_6_">
						<use xlink:href="#SVGID_5_"  style="overflow:visible;"/>
					</clipPath>
					<g class="st8">
						<path class="st5" d="M34.1,88.3l6.9-1.7c0,0.1,0.1,0.1,0.1,0.2c0,0.1,0,0.1,0.1,0.2c0,0.1,0,0.1,0.1,0.2c0,0.1,0,0.1,0.1,0.2
							L34.3,89c0-0.1,0-0.1-0.1-0.2c0-0.1,0-0.1-0.1-0.2c0-0.1,0-0.1-0.1-0.2C34.1,88.4,34.1,88.4,34.1,88.3"/>
						<path class="st6" d="M34.3,89l6.8-1.7c0.1,0.2,0.1,0.4,0.1,0.6c0,0.2,0.1,0.4,0.1,0.5c0,0.2,0,0.3,0,0.5c0,0.2,0,0.3-0.1,0.4
							l-6.8,1.7c0-0.1,0-0.3,0.1-0.4s0-0.3,0-0.5c0-0.2,0-0.4-0.1-0.5C34.4,89.4,34.4,89.2,34.3,89"/>
						<path class="st5" d="M34.5,91.1l6.8-1.7c0,0,0,0.1,0,0.1c0,0,0,0.1,0,0.1c0,0,0,0.1,0,0.1c0,0,0,0.1,0,0.1l-6.8,1.7
							c0,0,0-0.1,0-0.1c0,0,0-0.1,0-0.1s0-0.1,0-0.1S34.5,91.1,34.5,91.1"/>
						<path class="st4" d="M34.4,91.5l6.8-1.7c0,0,0,0,0,0.1s0,0,0,0.1c0,0,0,0,0,0.1s0,0,0,0c0,0,0,0,0,0c0,0,0,0,0,0c0,0,0,0,0,0
							c0,0,0,0,0,0l-6.8,1.7c0,0,0,0,0,0c0,0,0,0,0,0c0,0,0,0,0,0c0,0,0,0,0,0c0,0,0,0,0,0s0,0,0-0.1S34.3,91.5,34.4,91.5
							C34.4,91.5,34.4,91.5,34.4,91.5"/>
						<path class="st3" d="M34.2,91.7l6.8-1.7c0,0,0,0,0,0.1c0,0,0,0-0.1,0c0,0,0,0-0.1,0c0,0,0,0-0.1,0L34,91.9c0,0,0,0,0.1,0
							s0,0,0.1,0C34.1,91.8,34.2,91.8,34.2,91.7C34.2,91.7,34.2,91.7,34.2,91.7"/>
						<path class="st2" d="M34,91.9l6.8-1.7c0,0,0,0-0.1,0c0,0,0,0-0.1,0c0,0,0,0-0.1,0c0,0,0,0-0.1,0L33.8,92c0,0,0,0,0.1,0
							c0,0,0,0,0.1,0C33.9,91.9,33.9,91.9,34,91.9C34,91.9,34,91.9,34,91.9"/>
					</g>
				</g>
				<g class="st0">
					<defs>
						<path id="SVGID_7_" class="st0" d="M30.8,59l6.9-1.6c-0.1,0.3-0.2,0.5-0.3,0.9c-0.1,0.3-0.2,0.7-0.3,1.1
							c-0.1,0.4-0.2,0.8-0.3,1.3c-0.1,0.5-0.2,1-0.2,1.5c-0.1,0.8-0.1,1.6-0.1,2.5c0,0.9,0.1,1.8,0.3,2.8c0.2,1.1,0.4,2.3,0.7,3.7
							c0.3,1.5,0.7,3.2,1.1,5.2c0.2,1,0.4,2,0.7,2.9c0.2,0.9,0.4,1.8,0.6,2.7c0.2,0.9,0.4,1.7,0.6,2.4c0.2,0.8,0.4,1.5,0.5,2.2
							l-6.9,1.7c-0.2-0.7-0.3-1.4-0.5-2.2c-0.2-0.8-0.4-1.6-0.6-2.4c-0.2-0.9-0.4-1.7-0.6-2.7c-0.2-0.9-0.4-1.9-0.7-2.9
							c-0.5-2-0.8-3.7-1.2-5.2c-0.3-1.5-0.5-2.7-0.7-3.8c-0.2-1.1-0.3-2-0.3-2.9c0-0.9,0-1.7,0.1-2.5c0.1-0.5,0.1-1.1,0.2-1.5
							c0.1-0.5,0.2-0.9,0.3-1.3c0.1-0.4,0.2-0.8,0.3-1.1C30.6,59.5,30.7,59.2,30.8,59z"/>
					</defs>
					<clipPath id="SVGID_8_">
						<use xlink:href="#SVGID_7_"  style="overflow:visible;"/>
					</clipPath>
					<g class="st9">
						<path class="st5" d="M30.8,59l6.9-1.6c-0.1,0.2-0.1,0.4-0.2,0.6c-0.1,0.2-0.2,0.4-0.2,0.7c-0.1,0.2-0.2,0.5-0.2,0.8
							c-0.1,0.3-0.1,0.6-0.2,0.9l-6.9,1.6c0.1-0.3,0.1-0.6,0.2-0.9c0.1-0.3,0.1-0.5,0.2-0.8c0.1-0.2,0.2-0.5,0.2-0.7
							C30.7,59.3,30.8,59.2,30.8,59"/>
						<path class="st6" d="M29.9,61.9l6.9-1.6c0,0.1-0.1,0.3-0.1,0.4c0,0.1-0.1,0.3-0.1,0.5c0,0.2,0,0.3-0.1,0.5
							c0,0.2,0,0.3-0.1,0.5c-0.1,0.8-0.1,1.6-0.1,2.5c0,0.9,0.1,1.8,0.3,2.8c0.2,1.1,0.4,2.3,0.7,3.7c0.3,1.5,0.7,3.2,1.1,5.2
							c0.2,1,0.4,2,0.7,2.9c0.2,0.9,0.4,1.8,0.6,2.7c0.2,0.9,0.4,1.7,0.6,2.4c0.2,0.8,0.4,1.5,0.5,2.2l-6.9,1.7
							c-0.2-0.7-0.3-1.4-0.5-2.2c-0.2-0.8-0.4-1.6-0.6-2.4c-0.2-0.9-0.4-1.7-0.6-2.7c-0.2-0.9-0.4-1.9-0.7-2.9
							c-0.5-2-0.8-3.7-1.2-5.2c-0.3-1.5-0.5-2.7-0.7-3.8c-0.2-1.1-0.3-2-0.3-2.9c0-0.9,0-1.7,0.1-2.5c0-0.2,0-0.3,0.1-0.5
							c0-0.2,0-0.3,0.1-0.5c0-0.2,0.1-0.3,0.1-0.5C29.9,62.2,29.9,62.1,29.9,61.9"/>
					</g>
				</g>
				<g class="st0">
					<defs>
						<path id="SVGID_9_" class="st0" d="M33.1,57.5l6.9-1.6c-0.3,0.1-0.6,0.2-0.9,0.3c-0.3,0.1-0.5,0.3-0.7,0.5
							c-0.2,0.2-0.4,0.3-0.5,0.4c-0.1,0.1-0.2,0.2-0.2,0.3L30.8,59c0,0,0.1-0.1,0.2-0.3c0.1-0.1,0.3-0.3,0.5-0.4
							c0.2-0.2,0.4-0.3,0.7-0.5C32.4,57.7,32.7,57.6,33.1,57.5z"/>
					</defs>
					<clipPath id="SVGID_10_">
						<use xlink:href="#SVGID_9_"  style="overflow:visible;"/>
					</clipPath>
					<g class="st10">
						<path class="st2" d="M33.1,57.5l6.9-1.6c-0.1,0-0.2,0.1-0.3,0.1c-0.1,0-0.2,0.1-0.3,0.1c-0.1,0-0.2,0.1-0.3,0.1
							c-0.1,0-0.2,0.1-0.3,0.2L31.9,58c0.1-0.1,0.2-0.1,0.3-0.2c0.1-0.1,0.2-0.1,0.3-0.1c0.1,0,0.2-0.1,0.3-0.1
							C32.8,57.5,32.9,57.5,33.1,57.5"/>
						<path class="st3" d="M31.9,58l6.9-1.6c-0.1,0.1-0.3,0.2-0.4,0.3c-0.1,0.1-0.2,0.2-0.3,0.3c-0.1,0.1-0.2,0.2-0.2,0.2
							c-0.1,0.1-0.1,0.1-0.1,0.2L30.8,59c0,0,0.1-0.1,0.1-0.2c0.1-0.1,0.1-0.1,0.2-0.2c0.1-0.1,0.2-0.2,0.3-0.3
							C31.6,58.2,31.8,58.1,31.9,58"/>
						<polyline class="st4" points="30.8,59 37.7,57.3 37.7,57.3 37.7,57.3 37.7,57.4 37.7,57.4 30.8,59 30.8,59 30.8,59 30.8,59 
							30.8,59 						"/>
					</g>
				</g>
				<g class="st0">
					<defs>
						<path id="SVGID_11_" class="st0" d="M47.1,90.1l6.9-1.8c0,0.2,0.1,0.5,0.2,0.8c0.1,0.3,0.1,0.6,0.2,1s0.2,0.7,0.3,1.1
							c0.1,0.4,0.2,0.8,0.4,1.2c0.3,0.7,0.5,1.3,0.7,1.9c0.2,0.5,0.5,1,0.7,1.5c0.2,0.5,0.4,0.9,0.6,1.4c0.2,0.5,0.4,1.1,0.6,1.7
							l-6.9,1.8c-0.2-0.6-0.4-1.2-0.6-1.7c-0.2-0.5-0.4-1-0.6-1.4c-0.2-0.5-0.4-1-0.7-1.5c-0.2-0.6-0.5-1.2-0.7-1.9
							c-0.1-0.4-0.3-0.8-0.4-1.2c-0.1-0.4-0.2-0.8-0.3-1.1c-0.1-0.3-0.2-0.7-0.2-1C47.2,90.6,47.1,90.4,47.1,90.1z"/>
					</defs>
					<clipPath id="SVGID_12_">
						<use xlink:href="#SVGID_11_"  style="overflow:visible;"/>
					</clipPath>
					<g class="st11">
						<path class="st6" d="M47.1,90.1l6.9-1.8c0,0.2,0.1,0.4,0.2,0.7c0.1,0.3,0.1,0.5,0.2,0.8c0.1,0.3,0.2,0.6,0.3,1
							c0.1,0.3,0.2,0.7,0.3,1.1L48,93.7c-0.1-0.4-0.2-0.7-0.3-1.1c-0.1-0.3-0.2-0.7-0.3-1c-0.1-0.3-0.1-0.6-0.2-0.8
							S47.1,90.3,47.1,90.1"/>
						<path class="st5" d="M48,93.7l6.9-1.8c0,0,0,0.1,0,0.1c0,0,0,0.1,0,0.1s0,0.1,0,0.1c0,0,0,0.1,0,0.1c0.2,0.7,0.5,1.3,0.7,1.8
							c0.2,0.5,0.4,1,0.7,1.5c0.2,0.5,0.4,0.9,0.6,1.4c0.2,0.5,0.4,1,0.6,1.6l-6.9,1.8c-0.2-0.6-0.4-1.1-0.6-1.6
							c-0.2-0.5-0.4-0.9-0.6-1.4c-0.2-0.5-0.4-0.9-0.7-1.5c-0.2-0.5-0.5-1.1-0.7-1.8c0,0,0-0.1,0-0.1s0-0.1,0-0.1c0,0,0-0.1,0-0.1
							C48,93.8,48,93.8,48,93.7"/>
						<path class="st6" d="M50.8,100.6l6.9-1.8c0,0,0,0,0,0.1c0,0,0,0,0,0.1c0,0,0,0,0,0.1c0,0,0,0,0,0.1l-6.9,1.8c0,0,0,0,0-0.1
							c0,0,0,0,0-0.1C50.8,100.7,50.8,100.6,50.8,100.6C50.8,100.6,50.8,100.6,50.8,100.6"/>
					</g>
				</g>
				<g class="st0">
					<defs>
						<path id="SVGID_13_" class="st0" d="M56.5,103l-6.8,1.8c0.3-0.1,0.5-0.2,0.8-0.5c0.2-0.2,0.4-0.5,0.5-0.9
							c0.1-0.4,0.2-0.8,0.2-1.2c0-0.4-0.1-0.9-0.2-1.4l6.9-1.8c0.1,0.5,0.2,0.9,0.2,1.4c0,0.4-0.1,0.8-0.2,1.2
							c-0.1,0.4-0.3,0.7-0.5,0.9C57.1,102.7,56.8,102.9,56.5,103z"/>
					</defs>
					<clipPath id="SVGID_14_">
						<use xlink:href="#SVGID_13_"  style="overflow:visible;"/>
					</clipPath>
					<g class="st12">
						<path class="st6" d="M50.8,100.8l6.9-1.8c0.1,0.2,0.1,0.4,0.2,0.6s0.1,0.4,0.1,0.6c0,0.2,0,0.4,0,0.6c0,0.2,0,0.4-0.1,0.5
							l-6.8,1.8c0-0.2,0.1-0.3,0.1-0.5c0-0.2,0-0.4,0-0.6c0-0.2,0-0.4-0.1-0.6C51,101.2,50.9,101,50.8,100.8"/>
						<path class="st5" d="M51,103.1l6.8-1.8c0,0.1,0,0.1,0,0.2s0,0.1-0.1,0.2c0,0.1,0,0.1-0.1,0.2c0,0.1,0,0.1-0.1,0.2l-6.8,1.8
							c0-0.1,0-0.1,0.1-0.2c0-0.1,0-0.1,0.1-0.2s0-0.1,0.1-0.2C51,103.2,51,103.2,51,103.1"/>
						<path class="st4" d="M50.8,103.8l6.8-1.8c0,0,0,0.1-0.1,0.1s0,0.1-0.1,0.1c0,0-0.1,0.1-0.1,0.1c0,0-0.1,0.1-0.1,0.1l-6.8,1.8
							c0,0,0.1-0.1,0.1-0.1c0,0,0.1-0.1,0.1-0.1c0,0,0-0.1,0.1-0.1C50.7,103.9,50.7,103.8,50.8,103.8"/>
						<path class="st3" d="M50.5,104.3l6.8-1.8c0,0-0.1,0.1-0.1,0.1s-0.1,0.1-0.1,0.1s-0.1,0.1-0.1,0.1c0,0-0.1,0.1-0.1,0.1
							l-6.8,1.8c0,0,0.1,0,0.1-0.1c0,0,0.1-0.1,0.1-0.1c0,0,0.1-0.1,0.1-0.1C50.4,104.3,50.4,104.3,50.5,104.3"/>
						<path class="st2" d="M50,104.6l6.8-1.8c0,0-0.1,0-0.1,0.1c0,0-0.1,0-0.1,0c0,0-0.1,0-0.1,0c0,0-0.1,0-0.1,0l-6.8,1.8
							c0,0,0.1,0,0.1,0c0,0,0.1,0,0.1,0C49.9,104.7,49.9,104.7,50,104.6C50,104.7,50,104.6,50,104.6"/>
					</g>
				</g>
				<g class="st0">
					<defs>
						<path id="SVGID_15_" class="st0" d="M50.5,77.3l6.9-1.7c-0.1,0-0.2,0.1-0.3,0.1c-0.1,0-0.2,0.1-0.3,0.1
							c-0.1,0-0.2,0.1-0.3,0.1c-0.1,0-0.2,0.1-0.2,0.1c-0.6,0.4-1.1,1-1.5,1.8c-0.4,0.8-0.7,1.7-0.9,2.8c-0.2,1.1-0.3,2.3-0.3,3.6
							c0,1.3,0.1,2.7,0.4,4.1l-6.9,1.8c-0.2-1.4-0.4-2.8-0.4-4.1c0-1.3,0.1-2.5,0.3-3.6c0.2-1.1,0.5-2,0.9-2.8
							c0.4-0.8,0.9-1.4,1.5-1.8c0.1,0,0.1-0.1,0.2-0.1c0.1,0,0.2-0.1,0.3-0.1c0.1,0,0.2-0.1,0.3-0.1C50.3,77.4,50.4,77.3,50.5,77.3z
							"/>
					</defs>
					<clipPath id="SVGID_16_">
						<use xlink:href="#SVGID_15_"  style="overflow:visible;"/>
					</clipPath>
					<g class="st13">
						<path class="st2" d="M50.5,77.3l6.9-1.7c-0.1,0-0.2,0.1-0.3,0.1c-0.1,0-0.2,0.1-0.3,0.1c-0.1,0-0.2,0.1-0.2,0.1
							c-0.1,0-0.1,0.1-0.2,0.1l-6.9,1.7c0.1,0,0.1-0.1,0.2-0.1c0.1,0,0.2-0.1,0.2-0.1c0.1,0,0.2-0.1,0.3-0.1
							C50.3,77.4,50.4,77.3,50.5,77.3"/>
						<path class="st3" d="M49.5,77.7l6.9-1.7c0,0,0,0,0,0c0,0,0,0,0,0c0,0,0,0,0,0c0,0,0,0,0,0c-0.1,0.1-0.1,0.1-0.2,0.2
							c-0.1,0.1-0.1,0.1-0.2,0.2c-0.1,0.1-0.1,0.1-0.2,0.2c-0.1,0.1-0.1,0.1-0.2,0.2l-6.9,1.7c0.1-0.1,0.1-0.1,0.2-0.2
							c0.1-0.1,0.1-0.1,0.2-0.2c0.1-0.1,0.1-0.1,0.2-0.2c0.1-0.1,0.1-0.1,0.2-0.2c0,0,0,0,0,0C49.4,77.8,49.5,77.8,49.5,77.7
							C49.5,77.8,49.5,77.8,49.5,77.7C49.5,77.7,49.5,77.7,49.5,77.7"/>
						<path class="st4" d="M48.6,78.6l6.9-1.7c-0.1,0.1-0.1,0.2-0.2,0.3c-0.1,0.1-0.1,0.2-0.2,0.3c-0.1,0.1-0.1,0.2-0.2,0.3
							c-0.1,0.1-0.1,0.2-0.2,0.3l-6.9,1.7c0.1-0.1,0.1-0.2,0.2-0.3c0.1-0.1,0.1-0.2,0.2-0.3c0.1-0.1,0.1-0.2,0.2-0.3
							C48.4,78.8,48.5,78.7,48.6,78.6"/>
						<path class="st5" d="M47.8,79.8l6.9-1.7c-0.1,0.2-0.2,0.3-0.2,0.5c-0.1,0.2-0.1,0.4-0.2,0.5c-0.1,0.2-0.1,0.4-0.2,0.6
							c-0.1,0.2-0.1,0.4-0.1,0.6L47,82.1c0-0.2,0.1-0.4,0.1-0.6c0.1-0.2,0.1-0.4,0.2-0.6c0.1-0.2,0.1-0.4,0.2-0.5
							C47.6,80.2,47.7,80,47.8,79.8"/>
						<path class="st6" d="M47,82.1l6.9-1.7c-0.1,0.6-0.2,1.1-0.3,1.8c-0.1,0.6-0.1,1.3-0.1,1.9c0,0.7,0,1.4,0.1,2.1
							c0.1,0.7,0.2,1.5,0.3,2.2l-6.9,1.8c-0.1-0.8-0.2-1.5-0.3-2.2c-0.1-0.7-0.1-1.4-0.1-2.1c0-0.7,0-1.3,0.1-2
							C46.8,83.2,46.9,82.6,47,82.1"/>
					</g>
				</g>
				<g class="st0">
					<defs>
						<path id="SVGID_17_" class="st0" d="M44.7,39.8c0,2.8,0.4,5.5,1.1,8.1c0.7,2.6,1.8,5,3.1,7.2c1.3,2.2,2.8,4,4.5,5.5
							c1.7,1.5,3.6,2.5,5.6,3.1l-6.9,1.7c-2-0.5-3.8-1.6-5.6-3.1c-1.7-1.5-3.2-3.4-4.5-5.5c-1.3-2.2-2.3-4.6-3.1-7.2
							c-0.7-2.6-1.1-5.4-1.2-8.2C40.1,40.8,42.4,40.3,44.7,39.8z"/>
					</defs>
					<clipPath id="SVGID_18_">
						<use xlink:href="#SVGID_17_"  style="overflow:visible;"/>
					</clipPath>
					<g class="st14">
						<path class="st6" d="M38.4,35.7l6.9-1.5c-0.1,0.4-0.2,0.9-0.2,1.3c-0.1,0.4-0.1,0.9-0.2,1.4c0,0.5-0.1,0.9-0.1,1.4
							c0,0.5,0,1,0,1.5c0,0.8,0,1.6,0.1,2.4c0.1,0.8,0.2,1.6,0.3,2.4c0.1,0.8,0.3,1.6,0.5,2.3c0.2,0.8,0.4,1.5,0.6,2.3l-6.9,1.6
							c-0.2-0.7-0.5-1.5-0.6-2.3c-0.2-0.8-0.3-1.6-0.5-2.3c-0.1-0.8-0.2-1.6-0.3-2.4c-0.1-0.8-0.1-1.6-0.1-2.4c0-0.5,0-1,0-1.5
							c0-0.5,0.1-1,0.1-1.4c0-0.5,0.1-0.9,0.2-1.4C38.2,36.6,38.3,36.2,38.4,35.7"/>
						<path class="st5" d="M39.4,50.8l6.9-1.6c0.1,0.4,0.3,0.8,0.4,1.3c0.2,0.4,0.3,0.8,0.5,1.2c0.2,0.4,0.4,0.8,0.5,1.2
							c0.2,0.4,0.4,0.8,0.6,1.2l-6.9,1.6c-0.2-0.4-0.4-0.8-0.6-1.2c-0.2-0.4-0.4-0.8-0.5-1.2c-0.2-0.4-0.3-0.8-0.5-1.2
							C39.6,51.6,39.5,51.2,39.4,50.8"/>
						<path class="st4" d="M41.4,55.6l6.9-1.6c0.2,0.3,0.4,0.6,0.5,0.9c0.2,0.3,0.4,0.6,0.6,0.9c0.2,0.3,0.4,0.6,0.6,0.9
							c0.2,0.3,0.4,0.6,0.6,0.8l-6.9,1.6c-0.2-0.3-0.4-0.6-0.6-0.8c-0.2-0.3-0.4-0.6-0.6-0.9c-0.2-0.3-0.4-0.6-0.6-0.9
							C41.8,56.3,41.6,56,41.4,55.6"/>
						<path class="st3" d="M43.7,59.2l6.9-1.6c0.2,0.3,0.5,0.6,0.7,0.8c0.2,0.3,0.5,0.5,0.7,0.8c0.2,0.3,0.5,0.5,0.7,0.7
							c0.2,0.2,0.5,0.5,0.8,0.7l-6.9,1.7c-0.3-0.2-0.5-0.5-0.8-0.7c-0.2-0.2-0.5-0.5-0.7-0.7c-0.2-0.3-0.5-0.5-0.7-0.8
							C44.2,59.8,44,59.5,43.7,59.2"/>
						<path class="st2" d="M46.6,62.3l6.9-1.7c0.4,0.4,0.9,0.7,1.3,1c0.4,0.3,0.9,0.6,1.3,0.8c0.5,0.3,0.9,0.5,1.4,0.7
							c0.5,0.2,1,0.4,1.4,0.5l-6.9,1.7c-0.5-0.1-1-0.3-1.4-0.5c-0.5-0.2-0.9-0.4-1.4-0.7c-0.5-0.3-0.9-0.5-1.3-0.9
							C47.5,63,47,62.7,46.6,62.3"/>
					</g>
				</g>
				<g class="st0">
					<defs>
						<path id="SVGID_19_" class="st0" d="M59,47.8c0.1,0,0.2,0,0.3,0.1c0.1,0,0.2,0,0.3,0c0.1,0,0.2,0,0.3,0c0.1,0,0.2,0,0.2,0
							l-6.9,1.6c-0.1,0-0.2,0-0.2,0c-0.1,0-0.2,0-0.3,0c-0.1,0-0.2,0-0.3,0c-0.1,0-0.2,0-0.3-0.1C54.1,48.9,56.8,47.8,59,47.8z"/>
					</defs>
					<clipPath id="SVGID_20_">
						<use xlink:href="#SVGID_19_"  style="overflow:visible;"/>
					</clipPath>
					<g class="st15">
						<path class="st16" d="M52,49.4l6.9-1.6c0.1,0,0.2,0,0.3,0.1c0.1,0,0.2,0,0.3,0c0.1,0,0.2,0,0.3,0c0.1,0,0.2,0,0.2,0l-6.9,1.6
							c-0.1,0-0.2,0-0.2,0c-0.1,0-0.2,0-0.3,0c-0.1,0-0.2,0-0.3,0C52.2,49.5,52.1,49.4,52,49.4"/>
					</g>
				</g>
				<g class="st0">
					<defs>
						<path id="SVGID_21_" class="st0" d="M55.9,42.6c0,0.6,0.1,1.2,0.2,1.8c0.2,0.6,0.4,1.1,0.7,1.6c0.3,0.5,0.6,0.9,1,1.2
							c0.4,0.3,0.8,0.5,1.2,0.7L52,49.4c-0.4-0.1-0.8-0.3-1.2-0.7c-0.4-0.3-0.7-0.7-1-1.2c-0.3-0.5-0.5-1-0.7-1.6
							c-0.2-0.6-0.2-1.2-0.2-1.8C51.2,43.7,53.6,43.2,55.9,42.6c-2.3,0.5-4.6,1.1-6.9,1.6c0-0.5,0.1-0.9,0.1-1.3
							c0.1-0.4,0.2-0.8,0.4-1.1c0.2-0.3,0.4-0.6,0.7-0.8c0.3-0.2,0.5-0.3,0.8-0.4l6.9-1.6c-0.3,0.1-0.6,0.2-0.8,0.4
							c-0.3,0.2-0.5,0.5-0.7,0.8c-0.2,0.3-0.3,0.7-0.4,1.1C55.9,41.7,55.9,42.1,55.9,42.6z"/>
					</defs>
					<clipPath id="SVGID_22_">
						<use xlink:href="#SVGID_21_"  style="overflow:visible;"/>
					</clipPath>
					<g class="st17">
						<path class="st16" d="M51,40.6l6.9-1.6c-0.1,0-0.1,0-0.2,0c-0.1,0-0.1,0-0.2,0.1c-0.1,0-0.1,0.1-0.2,0.1
							c-0.1,0-0.1,0.1-0.2,0.1l-6.9,1.6c0.1,0,0.1-0.1,0.2-0.1c0.1,0,0.1-0.1,0.2-0.1c0.1,0,0.1,0,0.2-0.1
							C50.9,40.6,51,40.6,51,40.6"/>
						<path class="st18" d="M50.3,40.9l6.9-1.6c-0.1,0-0.1,0.1-0.1,0.1c0,0-0.1,0.1-0.1,0.1c0,0-0.1,0.1-0.1,0.1
							c0,0-0.1,0.1-0.1,0.1l-6.9,1.6c0-0.1,0.1-0.1,0.1-0.1c0,0,0.1-0.1,0.1-0.1c0,0,0.1-0.1,0.1-0.1C50.2,40.9,50.3,40.9,50.3,40.9
							"/>
						<path class="st19" d="M49.8,41.4l6.9-1.6c0,0-0.1,0.1-0.1,0.1c0,0.1-0.1,0.1-0.1,0.2c0,0.1-0.1,0.1-0.1,0.2
							c0,0.1-0.1,0.1-0.1,0.2L49.4,42c0-0.1,0.1-0.1,0.1-0.2c0-0.1,0.1-0.1,0.1-0.2s0.1-0.1,0.1-0.2C49.7,41.5,49.8,41.4,49.8,41.4"
							/>
						<path class="st20" d="M49.4,42l6.9-1.6c0,0.1-0.1,0.1-0.1,0.2c0,0.1-0.1,0.2-0.1,0.2c0,0.1-0.1,0.2-0.1,0.2
							c0,0.1,0,0.2-0.1,0.3L49.1,43c0-0.1,0-0.2,0.1-0.3c0-0.1,0-0.2,0.1-0.2c0-0.1,0.1-0.2,0.1-0.2C49.3,42.2,49.3,42.1,49.4,42"/>
						<path class="st21" d="M49.1,43l6.9-1.6c0,0.1,0,0.2-0.1,0.3c0,0.1,0,0.2,0,0.3c0,0.1,0,0.2,0,0.3c0,0.1,0,0.2,0,0.3
							c0,0.2,0,0.4,0,0.5c0,0.2,0,0.3,0.1,0.5c0,0.2,0.1,0.3,0.1,0.5s0.1,0.3,0.1,0.5l-6.9,1.6c-0.1-0.2-0.1-0.3-0.1-0.5
							s-0.1-0.3-0.1-0.5c0-0.2-0.1-0.3-0.1-0.5c0-0.2,0-0.4,0-0.5c0-0.1,0-0.2,0-0.3c0-0.1,0-0.2,0-0.3c0-0.1,0-0.2,0-0.3
							C49,43.2,49,43.1,49.1,43"/>
						<path class="st20" d="M49.3,46.3l6.9-1.6c0,0.1,0.1,0.2,0.1,0.3s0.1,0.2,0.1,0.3c0,0.1,0.1,0.2,0.1,0.3c0,0.1,0.1,0.2,0.1,0.2
							l-6.9,1.6c0-0.1-0.1-0.2-0.1-0.3c0-0.1-0.1-0.2-0.1-0.3c0-0.1-0.1-0.2-0.1-0.3C49.3,46.5,49.3,46.4,49.3,46.3"/>
						<path class="st19" d="M49.7,47.3l6.9-1.6c0,0.1,0.1,0.1,0.1,0.2c0,0.1,0.1,0.1,0.1,0.2s0.1,0.1,0.1,0.2c0,0.1,0.1,0.1,0.1,0.2
							l-6.9,1.6c0-0.1-0.1-0.1-0.1-0.2c0-0.1-0.1-0.1-0.1-0.2c0-0.1-0.1-0.1-0.1-0.2C49.8,47.5,49.8,47.4,49.7,47.3"/>
						<path class="st18" d="M50.2,48.1l6.9-1.6c0,0.1,0.1,0.1,0.1,0.2c0.1,0.1,0.1,0.1,0.2,0.2c0.1,0.1,0.1,0.1,0.2,0.2
							c0.1,0.1,0.1,0.1,0.2,0.1l-6.9,1.6c-0.1,0-0.1-0.1-0.2-0.1c-0.1-0.1-0.1-0.1-0.2-0.2c-0.1-0.1-0.1-0.1-0.2-0.2
							C50.3,48.2,50.3,48.2,50.2,48.1"/>
						<path class="st16" d="M50.9,48.8l6.9-1.6c0.1,0.1,0.2,0.1,0.3,0.2c0.1,0.1,0.2,0.1,0.3,0.2c0.1,0.1,0.2,0.1,0.3,0.1
							c0.1,0,0.2,0.1,0.3,0.1L52,49.4c-0.1,0-0.2-0.1-0.3-0.1c-0.1,0-0.2-0.1-0.3-0.1c-0.1-0.1-0.2-0.1-0.3-0.2
							C51,48.9,50.9,48.8,50.9,48.8"/>
					</g>
				</g>
				<g class="st0">
					<defs>
						<path id="SVGID_23_" class="st0" d="M59,63.7c0.4,0.1,0.9,0.2,1.3,0.3c0.4,0.1,0.8,0.1,1.2,0.1c0.4,0,0.8,0,1.2-0.1
							c0.4,0,0.8-0.1,1.2-0.2L57,65.5c-0.4,0.1-0.8,0.2-1.2,0.2c-0.4,0-0.8,0.1-1.2,0.1c-0.4,0-0.8,0-1.2-0.1
							c-0.4-0.1-0.8-0.2-1.3-0.3C54.2,64.9,56.9,63.7,59,63.7z"/>
					</defs>
					<clipPath id="SVGID_24_">
						<use xlink:href="#SVGID_23_"  style="overflow:visible;"/>
					</clipPath>
					<g class="st22">
						<path class="st2" d="M52.1,65.4l6.9-1.7c0.4,0.1,0.9,0.2,1.3,0.3c0.4,0.1,0.8,0.1,1.2,0.1c0.4,0,0.8,0,1.2-0.1
							c0.4,0,0.8-0.1,1.2-0.2L57,65.5c-0.4,0.1-0.8,0.2-1.2,0.2c-0.4,0-0.8,0.1-1.2,0.1c-0.4,0-0.8,0-1.2-0.1
							C53,65.6,52.5,65.5,52.1,65.4"/>
					</g>
				</g>
				<g class="st0">
					<defs>
						<path id="SVGID_25_" class="st0" d="M54.5,22.9c-1.4,0.3-2.8,1-4,1.9c-1.2,0.9-2.2,2.2-3.1,3.6c-0.9,1.5-1.5,3.2-2,5.1
							c-0.5,1.9-0.7,4-0.7,6.2c-2.3,0.5-4.6,1-6.9,1.6c0-2.3,0.2-4.4,0.7-6.3c0.5-1.9,1.1-3.6,2-5.1c0.9-1.5,1.9-2.7,3.1-3.6
							c1.2-0.9,2.5-1.6,3.9-1.9C49.6,24,52.4,23.4,54.5,22.9z"/>
					</defs>
					<clipPath id="SVGID_26_">
						<use xlink:href="#SVGID_25_"  style="overflow:visible;"/>
					</clipPath>
					<g class="st23">
						<path class="st2" d="M47.5,24.4l6.9-1.5c-0.3,0.1-0.6,0.1-0.9,0.2c-0.3,0.1-0.6,0.2-0.8,0.3c-0.3,0.1-0.5,0.3-0.8,0.4
							c-0.3,0.1-0.5,0.3-0.8,0.5l-6.9,1.5c0.3-0.2,0.5-0.3,0.8-0.5c0.3-0.1,0.5-0.3,0.8-0.4c0.3-0.1,0.6-0.2,0.8-0.3
							C47,24.6,47.2,24.5,47.5,24.4"/>
						<path class="st3" d="M44.2,25.9l6.9-1.5c-0.2,0.2-0.5,0.3-0.7,0.5c-0.2,0.2-0.4,0.4-0.7,0.6c-0.2,0.2-0.4,0.4-0.6,0.6
							c-0.2,0.2-0.4,0.4-0.6,0.7l-6.9,1.5c0.2-0.2,0.4-0.5,0.6-0.7c0.2-0.2,0.4-0.4,0.6-0.6c0.2-0.2,0.4-0.4,0.7-0.6
							C43.8,26.2,44,26,44.2,25.9"/>
						<path class="st4" d="M41.7,28.3l6.9-1.5c-0.2,0.2-0.4,0.5-0.5,0.7c-0.2,0.2-0.3,0.5-0.5,0.7c-0.2,0.3-0.3,0.5-0.5,0.8
							c-0.1,0.3-0.3,0.5-0.4,0.8l-6.9,1.5c0.1-0.3,0.3-0.6,0.4-0.8c0.1-0.3,0.3-0.5,0.5-0.8c0.2-0.3,0.3-0.5,0.5-0.7
							C41.3,28.7,41.5,28.5,41.7,28.3"/>
						<path class="st5" d="M39.8,31.3l6.9-1.5c-0.2,0.3-0.3,0.7-0.4,1c-0.1,0.3-0.3,0.7-0.4,1.1c-0.1,0.4-0.2,0.7-0.3,1.1
							c-0.1,0.4-0.2,0.8-0.3,1.2l-6.9,1.5c0.1-0.4,0.2-0.8,0.3-1.2c0.1-0.4,0.2-0.8,0.3-1.1c0.1-0.4,0.2-0.7,0.4-1.1
							C39.5,32,39.7,31.7,39.8,31.3"/>
						<path class="st6" d="M38.4,35.7l6.9-1.5c-0.1,0.4-0.2,0.9-0.2,1.3c-0.1,0.4-0.1,0.9-0.2,1.4c0,0.5-0.1,0.9-0.1,1.4
							c0,0.5,0,1,0,1.5c0,0.8,0,1.6,0.1,2.4c0.1,0.8,0.2,1.6,0.3,2.4c0.1,0.8,0.3,1.6,0.5,2.3c0.2,0.8,0.4,1.5,0.6,2.3l-6.9,1.6
							c-0.2-0.7-0.5-1.5-0.6-2.3c-0.2-0.8-0.3-1.6-0.5-2.3c-0.1-0.8-0.2-1.6-0.3-2.4c-0.1-0.8-0.1-1.6-0.1-2.4c0-0.5,0-1,0-1.5
							c0-0.5,0.1-1,0.1-1.4c0-0.5,0.1-0.9,0.2-1.4C38.2,36.6,38.3,36.2,38.4,35.7"/>
					</g>
				</g>
				<g class="st0">
					<defs>
						<path id="SVGID_27_" class="st0" d="M51,40.6c2.3-0.5,4.6-1.1,6.9-1.6c0.1,0,0.2,0,0.2,0c0.1,0,0.2,0,0.2,0c0.1,0,0.2,0,0.3,0
							c0.1,0,0.2,0,0.3,0.1L52,40.6c-0.1,0-0.2,0-0.3-0.1c-0.1,0-0.2,0-0.3,0c-0.1,0-0.2,0-0.2,0C51.2,40.6,51.1,40.6,51,40.6z"/>
					</defs>
					<clipPath id="SVGID_28_">
						<use xlink:href="#SVGID_27_"  style="overflow:visible;"/>
					</clipPath>
					<g class="st24">
						<path d="M51,40.6l6.9-1.6c0.1,0,0.2,0,0.2,0c0.1,0,0.2,0,0.2,0c0.1,0,0.2,0,0.3,0c0.1,0,0.2,0,0.3,0.1L52,40.6
							c-0.1,0-0.2,0-0.3-0.1c-0.1,0-0.2,0-0.3,0c-0.1,0-0.2,0-0.2,0C51.2,40.6,51.1,40.6,51,40.6"/>
					</g>
				</g>
				<g class="st0">
					<defs>
						<path id="SVGID_29_" class="st0" d="M60,47.8l-6.9,1.6c0.3-0.1,0.6-0.2,0.8-0.4c0.3-0.2,0.5-0.5,0.7-0.8
							c0.2-0.3,0.3-0.7,0.4-1.1c0.1-0.4,0.2-0.9,0.2-1.3c0-0.6-0.1-1.2-0.3-1.8c-0.2-0.6-0.4-1.1-0.7-1.6c-0.3-0.5-0.6-0.9-1-1.2
							c-0.4-0.3-0.8-0.5-1.2-0.7l6.9-1.6c0.4,0.1,0.8,0.3,1.2,0.7c0.4,0.3,0.7,0.7,1,1.2c0.3,0.5,0.5,1,0.7,1.6
							C62,43,62,43.6,62,44.2c0,0.5-0.1,0.9-0.2,1.3c-0.1,0.4-0.2,0.8-0.4,1.1c-0.2,0.3-0.4,0.6-0.7,0.8
							C60.6,47.6,60.3,47.7,60,47.8z"/>
					</defs>
					<clipPath id="SVGID_30_">
						<use xlink:href="#SVGID_29_"  style="overflow:visible;"/>
					</clipPath>
					<g class="st25">
						<path d="M52,40.6l6.9-1.6c0.1,0,0.2,0.1,0.3,0.1c0.1,0,0.2,0.1,0.3,0.1c0.1,0.1,0.2,0.1,0.3,0.2c0.1,0.1,0.2,0.1,0.3,0.2
							l-6.9,1.6c-0.1-0.1-0.2-0.2-0.3-0.2c-0.1-0.1-0.2-0.1-0.3-0.2c-0.1-0.1-0.2-0.1-0.3-0.1C52.2,40.7,52.1,40.6,52,40.6"/>
						<path d="M53.2,41.2l6.9-1.6c0.1,0,0.1,0.1,0.2,0.1c0.1,0.1,0.1,0.1,0.2,0.2c0.1,0.1,0.1,0.1,0.2,0.2c0.1,0.1,0.1,0.1,0.1,0.2
							l-6.9,1.6c0-0.1-0.1-0.1-0.1-0.2c-0.1-0.1-0.1-0.1-0.2-0.2c-0.1-0.1-0.1-0.1-0.2-0.2C53.3,41.3,53.3,41.3,53.2,41.2"/>
						<path d="M53.8,41.9l6.9-1.6c0,0.1,0.1,0.1,0.1,0.2c0,0.1,0.1,0.1,0.1,0.2c0,0.1,0.1,0.1,0.1,0.2c0,0.1,0.1,0.1,0.1,0.2
							l-6.9,1.6c0-0.1-0.1-0.1-0.1-0.2c0-0.1-0.1-0.1-0.1-0.2c0-0.1-0.1-0.1-0.1-0.2C53.9,42,53.9,42,53.8,41.9"/>
						<path d="M54.3,42.7l6.9-1.6c0,0.1,0.1,0.2,0.1,0.3s0.1,0.2,0.1,0.3c0,0.1,0.1,0.2,0.1,0.3s0.1,0.2,0.1,0.3l-6.9,1.6
							c0-0.1-0.1-0.2-0.1-0.3c0-0.1-0.1-0.2-0.1-0.3c0-0.1-0.1-0.2-0.1-0.3S54.4,42.8,54.3,42.7"/>
						<path d="M54.8,43.8l6.9-1.6c0.1,0.2,0.1,0.3,0.1,0.5c0,0.2,0.1,0.3,0.1,0.5c0,0.2,0,0.3,0.1,0.5c0,0.2,0,0.4,0,0.5
							c0,0.1,0,0.2,0,0.3c0,0.1,0,0.2,0,0.3c0,0.1,0,0.2,0,0.3c0,0.1,0,0.2-0.1,0.3L55,47c0-0.1,0-0.2,0.1-0.3c0-0.1,0-0.2,0-0.3
							c0-0.1,0-0.2,0-0.3c0-0.1,0-0.2,0-0.3c0-0.2,0-0.4,0-0.5c0-0.2,0-0.4-0.1-0.5c0-0.2-0.1-0.3-0.1-0.5S54.8,43.9,54.8,43.8"/>
						<path d="M55,47l6.9-1.6c0,0.1,0,0.2-0.1,0.3c0,0.1,0,0.2-0.1,0.2c0,0.1-0.1,0.2-0.1,0.2c0,0.1-0.1,0.1-0.1,0.2L54.7,48
							c0-0.1,0.1-0.1,0.1-0.2c0-0.1,0.1-0.2,0.1-0.2c0-0.1,0.1-0.2,0.1-0.2C55,47.2,55,47.1,55,47"/>
						<path d="M54.7,48l6.9-1.6c0,0.1-0.1,0.1-0.1,0.2c0,0.1-0.1,0.1-0.1,0.2c0,0.1-0.1,0.1-0.1,0.2c0,0.1-0.1,0.1-0.1,0.1l-6.9,1.6
							c0,0,0.1-0.1,0.1-0.1c0-0.1,0.1-0.1,0.1-0.2c0-0.1,0.1-0.1,0.1-0.2C54.6,48.1,54.7,48,54.7,48"/>
						<path d="M54.3,48.6l6.9-1.6c0,0.1-0.1,0.1-0.1,0.1c0,0-0.1,0.1-0.1,0.1c0,0-0.1,0.1-0.1,0.1c0,0-0.1,0.1-0.2,0.1l-6.9,1.6
							c0.1,0,0.1-0.1,0.2-0.1c0,0,0.1-0.1,0.1-0.1c0,0,0.1-0.1,0.1-0.1C54.2,48.7,54.2,48.7,54.3,48.6"/>
						<path d="M53.7,49.1l6.9-1.6c-0.1,0-0.1,0.1-0.2,0.1c-0.1,0-0.1,0.1-0.2,0.1c-0.1,0-0.1,0-0.2,0.1c-0.1,0-0.1,0-0.2,0l-6.9,1.6
							c0.1,0,0.1,0,0.2,0c0.1,0,0.1,0,0.2-0.1c0.1,0,0.1,0,0.2-0.1C53.6,49.2,53.7,49.2,53.7,49.1"/>
					</g>
				</g>
				<g class="st0">
					<defs>
						<path id="SVGID_31_" class="st0" d="M47.5,24.4l6.9-1.5c0.3-0.1,0.7-0.1,1.1-0.2c0.4,0,0.7-0.1,1.1,0c0.4,0,0.7,0,1.1,0.1
							c0.4,0,0.8,0.1,1.1,0.2l-6.9,1.5c-0.4-0.1-0.8-0.2-1.1-0.2c-0.4,0-0.8-0.1-1.1-0.1c-0.4,0-0.7,0-1.1,0
							C48.2,24.3,47.9,24.4,47.5,24.4z"/>
					</defs>
					<clipPath id="SVGID_32_">
						<use xlink:href="#SVGID_31_"  style="overflow:visible;"/>
					</clipPath>
					<g class="st26">
						<path class="st16" d="M47.5,24.4l6.9-1.5c0.3-0.1,0.7-0.1,1.1-0.2c0.4,0,0.7-0.1,1.1,0c0.4,0,0.7,0,1.1,0.1
							c0.4,0,0.8,0.1,1.1,0.2l-6.9,1.5c-0.4-0.1-0.8-0.2-1.1-0.2c-0.4,0-0.8-0.1-1.1-0.1c-0.4,0-0.7,0-1.1,0
							C48.2,24.3,47.9,24.4,47.5,24.4"/>
					</g>
				</g>
				<g class="st0">
					<defs>
						<path id="SVGID_33_" class="st0" d="M72.6,107.7l-6.9,1.9c0.2-0.1,0.5-0.2,0.7-0.4c0.2-0.2,0.4-0.4,0.5-0.7
							c0.1-0.3,0.2-0.6,0.3-1c0-0.4,0-0.8,0-1.2c-0.2-1.1-0.3-2.3-0.5-3.3c-0.1-1.1-0.3-2.1-0.4-3.1c-0.1-1-0.2-1.9-0.3-2.8
							c-0.1-0.9-0.2-1.7-0.2-2.5c-0.1-1-0.2-2-0.2-2.9c-0.1-0.9-0.1-1.8-0.2-2.7c0-0.9-0.1-1.8-0.1-2.9c0-1-0.1-2.2-0.1-3.5
							c0-1.2-0.1-2.2-0.1-3.1c0-0.9,0-1.7,0-2.5c0-0.7,0.1-1.4,0.2-2.1c0.1-0.7,0.2-1.3,0.3-1.9c0.1-0.6,0.3-1.1,0.4-1.7
							c0.2-0.5,0.3-1,0.5-1.4c0.2-0.4,0.3-0.9,0.5-1.2c0.2-0.4,0.3-0.7,0.5-1l6.9-1.7c-0.2,0.3-0.3,0.6-0.5,1
							c-0.2,0.4-0.3,0.8-0.5,1.2c-0.2,0.4-0.3,0.9-0.5,1.4c-0.2,0.5-0.3,1.1-0.4,1.7c-0.1,0.6-0.3,1.3-0.3,1.9
							c-0.1,0.6-0.1,1.3-0.2,2.1c0,0.7,0,1.6,0,2.5c0,0.9,0,1.9,0.1,3.1c0,1.3,0.1,2.4,0.1,3.5c0,1,0.1,2,0.1,2.9
							c0,0.9,0.1,1.8,0.2,2.7c0.1,0.9,0.1,1.8,0.2,2.9c0.1,0.8,0.2,1.6,0.2,2.5c0.1,0.9,0.2,1.8,0.3,2.8c0.1,1,0.2,2,0.4,3.1
							c0.1,1.1,0.3,2.2,0.5,3.3c0.1,0.4,0.1,0.8,0,1.2c0,0.4-0.1,0.7-0.3,1c-0.1,0.3-0.3,0.5-0.5,0.7
							C73,107.5,72.8,107.6,72.6,107.7z"/>
					</defs>
					<clipPath id="SVGID_34_">
						<use xlink:href="#SVGID_33_"  style="overflow:visible;"/>
					</clipPath>
					<g class="st27">
						<path class="st4" d="M67.4,67.7l6.9-1.7c0,0,0,0.1-0.1,0.1c0,0,0,0.1-0.1,0.1s0,0.1-0.1,0.1c0,0,0,0.1-0.1,0.1l-6.9,1.7
							c0,0,0-0.1,0.1-0.1c0,0,0-0.1,0.1-0.1c0,0,0-0.1,0.1-0.1C67.3,67.8,67.3,67.7,67.4,67.7"/>
						<path class="st5" d="M67.1,68.2l6.9-1.7c-0.1,0.3-0.3,0.6-0.4,0.9c-0.1,0.3-0.3,0.7-0.4,1.1c-0.1,0.4-0.3,0.8-0.4,1.3
							c-0.1,0.4-0.3,0.9-0.4,1.4L65.5,73c0.1-0.5,0.2-1,0.4-1.4c0.1-0.4,0.3-0.9,0.4-1.3c0.1-0.4,0.3-0.8,0.4-1.1
							C66.8,68.8,66.9,68.5,67.1,68.2"/>
						<path class="st6" d="M65.5,73l6.9-1.7c0,0,0,0,0,0s0,0,0,0c0,0,0,0,0,0s0,0,0,0c-0.1,0.6-0.3,1.3-0.3,1.9
							c-0.1,0.6-0.1,1.3-0.2,2.1c0,0.7,0,1.6,0,2.5c0,0.9,0,1.9,0.1,3.1c0,1.3,0.1,2.4,0.1,3.5c0,1,0.1,2,0.1,2.9
							c0,0.9,0.1,1.8,0.2,2.7c0.1,0.9,0.1,1.8,0.2,2.9c0.1,0.8,0.2,1.6,0.2,2.5c0.1,0.9,0.2,1.8,0.3,2.8c0.1,1,0.2,2,0.4,3.1
							c0.1,1.1,0.3,2.2,0.5,3.3c0,0.1,0,0.3,0,0.4c0,0.1,0,0.3,0,0.4c0,0.1,0,0.3,0,0.4s0,0.2-0.1,0.4l-6.9,1.8c0-0.1,0-0.2,0.1-0.4
							c0-0.1,0-0.3,0-0.4c0-0.1,0-0.3,0-0.4c0-0.1,0-0.3,0-0.4c-0.2-1.1-0.3-2.3-0.5-3.3c-0.1-1.1-0.3-2.1-0.4-3.1
							c-0.1-1-0.2-1.9-0.3-2.8c-0.1-0.9-0.2-1.7-0.2-2.5c-0.1-1-0.2-2-0.2-2.9c-0.1-0.9-0.1-1.8-0.2-2.7c0-0.9-0.1-1.8-0.1-2.9
							c0-1-0.1-2.2-0.1-3.5c0-1.2-0.1-2.2-0.1-3.1c0-0.9,0-1.7,0-2.5c0-0.7,0.1-1.4,0.2-2.1C65.2,74.3,65.3,73.7,65.5,73
							C65.4,73,65.4,73,65.5,73C65.4,73,65.4,73,65.5,73C65.4,73,65.4,73,65.5,73C65.4,73,65.4,73,65.5,73"/>
						<path class="st5" d="M67,107.9l6.9-1.8c0,0.1,0,0.1,0,0.2s0,0.1-0.1,0.2c0,0.1,0,0.1-0.1,0.2c0,0.1,0,0.1-0.1,0.2l-6.9,1.8
							c0-0.1,0.1-0.1,0.1-0.2c0-0.1,0-0.1,0.1-0.2s0-0.1,0.1-0.2C67,108,67,108,67,107.9"/>
						<path class="st4" d="M66.8,108.6l6.9-1.8c0,0,0,0.1-0.1,0.1c0,0,0,0.1-0.1,0.1c0,0-0.1,0.1-0.1,0.1s-0.1,0.1-0.1,0.1l-6.9,1.8
							c0,0,0.1-0.1,0.1-0.1c0,0,0.1-0.1,0.1-0.1c0,0,0.1-0.1,0.1-0.1C66.8,108.7,66.8,108.6,66.8,108.6"/>
						<path class="st3" d="M66.5,109l6.9-1.8c0,0-0.1,0.1-0.1,0.1c0,0-0.1,0.1-0.1,0.1c0,0-0.1,0.1-0.1,0.1c0,0-0.1,0.1-0.1,0.1
							l-6.9,1.9c0,0,0.1,0,0.1-0.1s0.1-0.1,0.1-0.1c0,0,0.1-0.1,0.1-0.1C66.4,109.1,66.5,109.1,66.5,109"/>
						<path class="st2" d="M66.1,109.4l6.9-1.9c0,0-0.1,0-0.1,0c0,0-0.1,0-0.1,0c0,0-0.1,0-0.1,0c0,0-0.1,0-0.1,0l-6.9,1.9
							c0,0,0.1,0,0.1,0c0,0,0.1,0,0.1,0C65.9,109.5,66,109.5,66.1,109.4C66,109.4,66.1,109.4,66.1,109.4"/>
					</g>
				</g>
				<g class="st0">
					<defs>
						<path id="SVGID_35_" class="st0" d="M79.2,101.4l-6.9,1.8c0,0,0,0,0.1,0s0,0,0,0c0,0,0,0,0,0c0,0,0,0,0,0
							c0.3-0.2,0.5-0.5,0.6-0.8c0.1-0.4,0.2-0.8,0.3-1.2c0.1-0.4,0.2-0.8,0.3-1.2c0.1-0.3,0.3-0.6,0.6-0.6l6.9-1.8
							c-0.3,0.1-0.5,0.3-0.6,0.6c-0.1,0.3-0.2,0.7-0.3,1.2c-0.1,0.4-0.2,0.9-0.3,1.2c-0.1,0.4-0.3,0.7-0.6,0.8c0,0,0,0,0,0
							c0,0,0,0,0,0C79.3,101.4,79.2,101.4,79.2,101.4C79.2,101.4,79.2,101.4,79.2,101.4z"/>
					</defs>
					<clipPath id="SVGID_36_">
						<use xlink:href="#SVGID_35_"  style="overflow:visible;"/>
					</clipPath>
					<g class="st28">
						<path class="st2" d="M74.4,99.3l6.9-1.8c0,0,0,0,0,0c0,0,0,0,0,0c0,0,0,0,0,0c0,0,0,0,0,0l-6.9,1.8c0,0,0,0,0,0
							C74.2,99.4,74.3,99.4,74.4,99.3C74.3,99.4,74.3,99.4,74.4,99.3C74.3,99.3,74.3,99.3,74.4,99.3"/>
						<path class="st3" d="M74.2,99.4l6.9-1.8c0,0,0,0-0.1,0c0,0,0,0,0,0c0,0,0,0,0,0c0,0,0,0,0,0L74,99.6c0,0,0,0,0,0c0,0,0,0,0,0
							C74.1,99.5,74.1,99.5,74.2,99.4C74.1,99.4,74.2,99.4,74.2,99.4"/>
						<path class="st4" d="M74,99.6l6.9-1.8c0,0,0,0,0,0.1c0,0,0,0,0,0.1s0,0,0,0.1s0,0,0,0.1l-6.9,1.8c0,0,0-0.1,0-0.1s0,0,0-0.1
							S73.9,99.7,74,99.6C74,99.6,74,99.6,74,99.6"/>
						<path class="st5" d="M73.8,99.8l6.9-1.8c0,0.1-0.1,0.1-0.1,0.2s0,0.1-0.1,0.2s0,0.1-0.1,0.2c0,0.1,0,0.2-0.1,0.2l-6.9,1.8
							c0-0.1,0-0.2,0.1-0.2c0-0.1,0-0.1,0.1-0.2c0-0.1,0-0.1,0.1-0.2C73.8,100,73.8,99.9,73.8,99.8"/>
						<path class="st6" d="M73.5,100.7l6.9-1.8c0,0.1,0,0.2-0.1,0.2c0,0.1,0,0.2,0,0.2c0,0.1,0,0.2,0,0.2c0,0.1,0,0.2-0.1,0.2
							l-6.9,1.8c0-0.1,0-0.2,0.1-0.2c0-0.1,0-0.2,0-0.2s0-0.2,0-0.2S73.5,100.8,73.5,100.7"/>
						<path class="st5" d="M73.3,101.6l6.9-1.8c0,0.1,0,0.2-0.1,0.3c0,0.1,0,0.2-0.1,0.2c0,0.1-0.1,0.2-0.1,0.2s-0.1,0.1-0.1,0.2
							l-6.9,1.8c0-0.1,0.1-0.1,0.1-0.2c0-0.1,0.1-0.2,0.1-0.2c0-0.1,0-0.2,0.1-0.2S73.3,101.7,73.3,101.6"/>
						<path class="st4" d="M73,102.6l6.9-1.8c0,0,0,0.1,0,0.1s0,0.1-0.1,0.1s0,0.1-0.1,0.1c0,0,0,0.1-0.1,0.1l-6.9,1.8
							c0,0,0-0.1,0.1-0.1c0,0,0-0.1,0.1-0.1C72.9,102.7,73,102.7,73,102.6C73,102.6,73,102.6,73,102.6"/>
						<path class="st3" d="M72.8,102.9l6.9-1.8c0,0,0,0-0.1,0.1c0,0,0,0-0.1,0.1c0,0,0,0-0.1,0.1c0,0,0,0-0.1,0l-6.9,1.8
							c0,0,0,0,0.1,0s0,0,0.1-0.1C72.7,103,72.7,103,72.8,102.9C72.8,103,72.8,102.9,72.8,102.9"/>
						<path class="st2" d="M72.5,103.1l6.9-1.8c0,0,0,0,0,0c0,0,0,0,0,0c0,0,0,0,0,0c0,0,0,0,0,0c0,0,0,0,0,0c0,0,0,0,0,0
							c0,0,0,0,0,0c0,0,0,0-0.1,0l-6.9,1.8c0,0,0,0,0.1,0s0,0,0,0C72.4,103.2,72.4,103.2,72.5,103.1
							C72.5,103.2,72.5,103.2,72.5,103.1C72.5,103.2,72.5,103.2,72.5,103.1C72.5,103.2,72.5,103.2,72.5,103.1
							C72.5,103.2,72.5,103.2,72.5,103.1C72.5,103.2,72.5,103.2,72.5,103.1"/>
					</g>
				</g>
				<g class="st0">
					<defs>
						<polygon id="SVGID_37_" class="st0" points="74.4,99.3 81.2,97.5 81.2,97.5 81.2,97.5 81.2,97.5 81.2,97.5 74.4,99.3 
							74.4,99.3 74.4,99.3 74.4,99.3 						"/>
					</defs>
					<clipPath id="SVGID_38_">
						<use xlink:href="#SVGID_37_"  style="overflow:visible;"/>
					</clipPath>
					<g class="st29">
						<polyline class="st2" points="74.4,99.3 81.2,97.5 81.2,97.5 81.2,97.5 81.2,97.5 81.2,97.5 74.4,99.3 74.4,99.3 74.4,99.3 
							74.4,99.3 74.4,99.3 						"/>
					</g>
				</g>
				<g class="st0">
					<defs>
						<path id="SVGID_39_" class="st0" d="M68.6,67.1l6.9-1.7c-0.1,0-0.2,0.1-0.4,0.1c-0.1,0-0.2,0.1-0.3,0.2
							c-0.1,0.1-0.2,0.1-0.3,0.2c-0.1,0.1-0.2,0.1-0.2,0.2l-6.9,1.7c0.1-0.1,0.2-0.1,0.2-0.2c0.1-0.1,0.2-0.1,0.3-0.2
							c0.1-0.1,0.2-0.1,0.3-0.2C68.3,67.1,68.4,67.1,68.6,67.1z"/>
					</defs>
					<clipPath id="SVGID_40_">
						<use xlink:href="#SVGID_39_"  style="overflow:visible;"/>
					</clipPath>
					<g class="st30">
						<path class="st2" d="M68.6,67.1l6.9-1.7c-0.1,0-0.2,0-0.2,0.1s-0.1,0.1-0.2,0.1c-0.1,0-0.1,0.1-0.2,0.1
							c-0.1,0-0.1,0.1-0.2,0.1l-6.9,1.7c0.1,0,0.1-0.1,0.2-0.1s0.1-0.1,0.2-0.1s0.1-0.1,0.2-0.1C68.4,67.1,68.5,67.1,68.6,67.1"/>
						<path class="st3" d="M67.7,67.4l6.9-1.7c0,0-0.1,0-0.1,0.1s-0.1,0-0.1,0.1c0,0-0.1,0-0.1,0.1c0,0-0.1,0-0.1,0.1l-6.9,1.7
							c0,0,0.1,0,0.1-0.1c0,0,0.1,0,0.1-0.1s0.1,0,0.1-0.1S67.7,67.4,67.7,67.4"/>
					</g>
				</g>
				<g class="st0">
					<defs>
						<path id="SVGID_41_" class="st0" d="M84.9,104.1L78,106c0,0,0.1,0,0.1,0c0,0,0,0,0.1,0c0,0,0,0,0,0c0,0,0,0,0,0
							c0.3-0.2,0.5-0.5,0.6-0.9c0.1-0.4,0.2-0.9,0.2-1.4c0-0.5,0.1-1,0.2-1.4c0.1-0.4,0.3-0.8,0.6-0.9l6.9-1.8
							c-0.3,0.2-0.5,0.5-0.6,0.9c-0.1,0.4-0.2,0.9-0.2,1.4c0,0.5-0.1,1-0.2,1.4c-0.1,0.4-0.3,0.8-0.6,0.9c0,0,0,0,0,0s0,0,0,0
							S85,104.1,84.9,104.1C85,104.1,84.9,104.1,84.9,104.1z"/>
					</defs>
					<clipPath id="SVGID_42_">
						<use xlink:href="#SVGID_41_"  style="overflow:visible;"/>
					</clipPath>
					<g class="st31">
						<polyline class="st2" points="79.8,101.2 86.7,99.3 86.7,99.3 86.7,99.3 86.7,99.3 86.7,99.4 79.8,101.2 79.8,101.2 
							79.8,101.2 79.8,101.2 79.8,101.2 						"/>
						<path class="st3" d="M79.8,101.2l6.9-1.8c0,0,0,0-0.1,0c0,0,0,0-0.1,0s0,0-0.1,0.1c0,0,0,0-0.1,0.1l-6.9,1.8c0,0,0,0,0.1-0.1
							c0,0,0,0,0.1-0.1S79.7,101.2,79.8,101.2C79.8,101.2,79.8,101.2,79.8,101.2"/>
						<path class="st4" d="M79.6,101.4l6.9-1.8c0,0,0,0,0,0.1c0,0,0,0,0,0.1s0,0,0,0.1c0,0,0,0,0,0.1l-6.9,1.8c0,0,0-0.1,0-0.1
							c0,0,0,0,0-0.1S79.5,101.5,79.6,101.4C79.6,101.4,79.6,101.4,79.6,101.4"/>
						<path class="st5" d="M79.4,101.7l6.9-1.8c0,0,0,0.1-0.1,0.1c0,0,0,0.1-0.1,0.1c0,0,0,0.1,0,0.2c0,0.1,0,0.1,0,0.2l-6.9,1.8
							c0-0.1,0-0.1,0-0.2c0-0.1,0-0.1,0-0.2s0-0.1,0.1-0.1C79.4,101.7,79.4,101.7,79.4,101.7"/>
						<path class="st6" d="M79.2,102.3l6.9-1.8c0,0.2-0.1,0.4-0.1,0.6c0,0.2,0,0.4-0.1,0.7c0,0.2,0,0.5-0.1,0.7
							c0,0.2-0.1,0.4-0.1,0.6l-6.9,1.9c0-0.2,0.1-0.4,0.1-0.6c0-0.2,0-0.4,0.1-0.7c0-0.2,0-0.5,0.1-0.7
							C79.1,102.7,79.2,102.4,79.2,102.3"/>
						<path class="st5" d="M78.9,104.9l6.9-1.9c0,0.1,0,0.1,0,0.2c0,0.1,0,0.1,0,0.1c0,0,0,0.1-0.1,0.1c0,0,0,0.1-0.1,0.1l-6.9,1.9
							c0,0,0-0.1,0.1-0.1c0,0,0-0.1,0.1-0.1c0,0,0-0.1,0-0.2C78.8,105,78.8,104.9,78.9,104.9"/>
						<path class="st4" d="M78.7,105.5l6.9-1.9c0,0,0,0,0,0.1c0,0,0,0,0,0.1c0,0,0,0,0,0.1s0,0,0,0.1l-6.9,1.9c0,0,0,0,0-0.1
							c0,0,0,0,0-0.1C78.6,105.6,78.6,105.5,78.7,105.5C78.6,105.5,78.6,105.5,78.7,105.5"/>
						<path class="st3" d="M78.5,105.7l6.9-1.9c0,0,0,0,0,0.1c0,0,0,0-0.1,0c0,0,0,0-0.1,0c0,0,0,0-0.1,0l-6.9,1.9c0,0,0,0,0.1,0
							C78.4,105.8,78.4,105.8,78.5,105.7C78.4,105.8,78.4,105.8,78.5,105.7C78.5,105.7,78.5,105.7,78.5,105.7"/>
						<path class="st2" d="M78.3,105.9l6.9-1.9c0,0,0,0,0,0c0,0,0,0,0,0c0,0,0,0,0,0c0,0,0,0,0,0c0,0,0,0,0,0s0,0,0,0s0,0-0.1,0
							c0,0,0,0-0.1,0L78,106c0,0,0.1,0,0.1,0C78.1,106,78.2,105.9,78.3,105.9C78.2,105.9,78.2,105.9,78.3,105.9
							C78.2,105.9,78.2,105.9,78.3,105.9C78.3,105.9,78.3,105.9,78.3,105.9C78.3,105.9,78.3,105.9,78.3,105.9
							C78.3,105.9,78.3,105.9,78.3,105.9C78.3,105.9,78.3,105.9,78.3,105.9"/>
					</g>
				</g>
				<g class="st0">
					<defs>
						<path id="SVGID_43_" class="st0" d="M63.9,63.8L57,65.5c1.4-0.3,2.7-1,3.8-1.9c1.2-0.9,2.2-2.1,3-3.6c0.8-1.5,1.5-3.1,2-5
							c0.5-1.9,0.7-4,0.7-6.2c0-2.8-0.4-5.7-1.2-8.3c-0.7-2.7-1.8-5.1-3.1-7.3c-1.3-2.2-2.9-4.1-4.6-5.6c-1.7-1.5-3.6-2.5-5.6-3
							l6.9-1.5c2,0.5,3.9,1.5,5.6,3c1.7,1.5,3.3,3.4,4.6,5.5c1.3,2.2,2.4,4.7,3.1,7.3c0.7,2.6,1.2,5.5,1.2,8.3
							c0,2.2-0.2,4.3-0.7,6.2c-0.5,1.9-1.1,3.6-2,5c-0.8,1.4-1.9,2.7-3,3.6C66.6,62.8,65.3,63.5,63.9,63.8z"/>
					</defs>
					<clipPath id="SVGID_44_">
						<use xlink:href="#SVGID_43_"  style="overflow:visible;"/>
					</clipPath>
					<g class="st32">
						<path class="st16" d="M51.9,24.5l6.9-1.5c0.5,0.1,1,0.3,1.5,0.5c0.5,0.2,1,0.4,1.4,0.6c0.5,0.2,0.9,0.5,1.4,0.8
							c0.4,0.3,0.9,0.6,1.3,1l-6.9,1.5c-0.4-0.4-0.9-0.7-1.3-1c-0.4-0.3-0.9-0.6-1.4-0.8c-0.5-0.2-0.9-0.5-1.4-0.7
							C52.9,24.8,52.4,24.6,51.9,24.5"/>
						<path class="st18" d="M57.5,27.5l6.9-1.5c0.3,0.2,0.5,0.4,0.8,0.7c0.3,0.2,0.5,0.5,0.8,0.7c0.2,0.3,0.5,0.5,0.7,0.8
							c0.2,0.3,0.5,0.6,0.7,0.8l-6.9,1.6c-0.2-0.3-0.5-0.6-0.7-0.9c-0.2-0.3-0.5-0.5-0.7-0.8c-0.2-0.3-0.5-0.5-0.8-0.7
							C58,27.9,57.8,27.7,57.5,27.5"/>
						<path class="st19" d="M60.5,30.5l6.9-1.6c0.2,0.3,0.4,0.6,0.6,0.8c0.2,0.3,0.4,0.6,0.6,0.9c0.2,0.3,0.4,0.6,0.6,0.9
							c0.2,0.3,0.4,0.6,0.5,1l-6.9,1.6c-0.2-0.3-0.4-0.7-0.5-1c-0.2-0.3-0.4-0.6-0.6-0.9c-0.2-0.3-0.4-0.6-0.6-0.9
							C60.9,31.1,60.7,30.8,60.5,30.5"/>
						<path class="st20" d="M62.8,34.2l6.9-1.6c0.2,0.4,0.4,0.8,0.6,1.2c0.2,0.4,0.4,0.8,0.6,1.2c0.2,0.4,0.3,0.8,0.5,1.3
							c0.2,0.4,0.3,0.9,0.5,1.3L65,39.1c-0.1-0.4-0.3-0.9-0.5-1.3c-0.2-0.4-0.3-0.8-0.5-1.3c-0.2-0.4-0.4-0.8-0.6-1.2
							C63.2,35,63,34.6,62.8,34.2"/>
						<path class="st21" d="M65,39.1l6.9-1.6c0.2,0.8,0.5,1.5,0.7,2.3c0.2,0.8,0.4,1.6,0.5,2.4c0.1,0.8,0.2,1.6,0.3,2.4
							c0.1,0.8,0.1,1.6,0.1,2.5c0,0.5,0,1,0,1.5c0,0.5-0.1,1-0.1,1.4c-0.1,0.5-0.1,0.9-0.2,1.4c-0.1,0.5-0.2,0.9-0.3,1.3l-6.9,1.6
							c0.1-0.4,0.2-0.9,0.3-1.3c0.1-0.5,0.1-0.9,0.2-1.4c0-0.5,0.1-1,0.1-1.5c0-0.5,0-1,0-1.5c0-0.8,0-1.7-0.1-2.5
							c-0.1-0.8-0.2-1.6-0.3-2.4c-0.1-0.8-0.3-1.6-0.5-2.4C65.4,40.7,65.2,39.9,65,39.1"/>
						<path class="st20" d="M65.9,54.4l6.9-1.6c-0.1,0.4-0.2,0.8-0.3,1.2c-0.1,0.4-0.2,0.8-0.4,1.1c-0.1,0.4-0.3,0.7-0.4,1.1
							c-0.1,0.3-0.3,0.7-0.5,1l-6.9,1.7c0.2-0.3,0.3-0.7,0.5-1c0.1-0.3,0.3-0.7,0.4-1.1c0.1-0.4,0.2-0.7,0.4-1.1
							C65.7,55.2,65.8,54.8,65.9,54.4"/>
						<path class="st19" d="M64.4,58.9l6.9-1.7c-0.1,0.3-0.3,0.6-0.4,0.8c-0.2,0.3-0.3,0.5-0.5,0.8c-0.2,0.3-0.3,0.5-0.5,0.7
							c-0.2,0.2-0.4,0.5-0.5,0.7l-6.9,1.7c0.2-0.2,0.4-0.4,0.5-0.7c0.2-0.2,0.3-0.5,0.5-0.7c0.2-0.3,0.3-0.5,0.5-0.8
							C64.1,59.4,64.3,59.1,64.4,58.9"/>
						<path class="st18" d="M62.5,61.9l6.9-1.7c-0.2,0.2-0.4,0.5-0.6,0.7c-0.2,0.2-0.4,0.4-0.6,0.6c-0.2,0.2-0.4,0.4-0.7,0.6
							c-0.2,0.2-0.5,0.3-0.7,0.5l-6.9,1.7c0.2-0.2,0.5-0.3,0.7-0.5c0.2-0.2,0.5-0.4,0.7-0.6c0.2-0.2,0.4-0.4,0.6-0.6
							C62.1,62.4,62.3,62.1,62.5,61.9"/>
						<path class="st16" d="M59.9,64.2l6.9-1.7c-0.2,0.1-0.5,0.3-0.7,0.4c-0.2,0.1-0.5,0.2-0.7,0.3c-0.2,0.1-0.5,0.2-0.7,0.3
							c-0.2,0.1-0.5,0.2-0.7,0.2L57,65.5c0.3-0.1,0.5-0.1,0.7-0.2c0.2-0.1,0.5-0.2,0.7-0.3c0.2-0.1,0.5-0.2,0.7-0.3
							C59.4,64.5,59.6,64.4,59.9,64.2"/>
					</g>
				</g>
				<g class="st0">
					<defs>
						<path id="SVGID_45_" class="st0" d="M80,101.1l6.9-1.8c0,0-0.1,0-0.1,0c0,0,0,0-0.1,0c0,0,0,0,0,0c0,0,0,0,0,0l-6.9,1.8
							c0,0,0,0,0,0s0,0,0,0C79.9,101.1,79.9,101.1,80,101.1C80,101.1,80,101.1,80,101.1z"/>
					</defs>
					<clipPath id="SVGID_46_">
						<use xlink:href="#SVGID_45_"  style="overflow:visible;"/>
					</clipPath>
					<g class="st33">
						<path class="st2" d="M80,101.1l6.9-1.8c0,0-0.1,0-0.1,0c0,0,0,0-0.1,0c0,0,0,0,0,0c0,0,0,0,0,0l-6.9,1.8c0,0,0,0,0,0
							c0,0,0,0,0,0C79.9,101.1,79.9,101.1,80,101.1C80,101.1,80,101.1,80,101.1"/>
						<polyline class="st3" points="79.8,101.2 86.7,99.3 86.7,99.3 86.7,99.3 86.7,99.3 86.7,99.3 79.8,101.2 79.8,101.2 
							79.8,101.2 79.8,101.2 79.8,101.2 						"/>
					</g>
				</g>
				<g class="st0">
					<defs>
						<path id="SVGID_47_" class="st0" d="M90.9,105.9l-6.9,1.9c0.1,0,0.1,0,0.1-0.1s0.1,0,0.1-0.1c0,0,0.1-0.1,0.1-0.1
							c0,0,0.1-0.1,0.1-0.1c0.1-0.1,0.2-0.2,0.2-0.4c0-0.1,0.1-0.3,0.1-0.5c0-0.2,0-0.4,0-0.7c0-0.2,0-0.5,0-0.8l6.9-1.9
							c0,0.3,0,0.6,0,0.8c0,0.2,0,0.5,0,0.7c0,0.2-0.1,0.4-0.1,0.5c0,0.1-0.1,0.3-0.2,0.4c0,0-0.1,0.1-0.1,0.1s-0.1,0.1-0.1,0.1
							c0,0-0.1,0.1-0.1,0.1C91,105.9,90.9,105.9,90.9,105.9z"/>
					</defs>
					<clipPath id="SVGID_48_">
						<use xlink:href="#SVGID_47_"  style="overflow:visible;"/>
					</clipPath>
					<g class="st34">
						<path class="st6" d="M84.8,105l6.9-1.9c0,0.2,0,0.4,0,0.6c0,0.2,0,0.3,0,0.5c0,0.1,0,0.3,0,0.4c0,0.1,0,0.2-0.1,0.3l-6.9,1.9
							c0-0.1,0-0.2,0.1-0.3c0-0.1,0-0.3,0-0.4s0-0.3,0-0.5C84.9,105.4,84.9,105.2,84.8,105"/>
						<path class="st5" d="M84.8,106.9l6.9-1.9c0,0,0,0.1,0,0.1c0,0,0,0.1,0,0.1c0,0,0,0.1,0,0.1c0,0,0,0.1,0,0.1l-6.9,1.9
							c0,0,0-0.1,0-0.1c0,0,0-0.1,0-0.1C84.8,107,84.8,107,84.8,106.9C84.8,106.9,84.8,106.9,84.8,106.9"/>
						<path class="st4" d="M84.7,107.2l6.9-1.9c0,0,0,0,0,0.1c0,0,0,0,0,0.1c0,0,0,0,0,0c0,0,0,0,0,0c0,0,0,0,0,0c0,0,0,0,0,0
							c0,0,0,0,0,0c0,0,0,0,0,0l-6.9,1.9c0,0,0,0,0,0c0,0,0,0,0,0c0,0,0,0,0,0s0,0,0,0c0,0,0,0,0,0c0,0,0,0,0,0
							C84.6,107.3,84.6,107.3,84.7,107.2C84.7,107.2,84.7,107.2,84.7,107.2"/>
						<path class="st3" d="M84.5,107.4l6.9-1.9c0,0,0,0-0.1,0.1c0,0,0,0-0.1,0.1c0,0,0,0-0.1,0s0,0-0.1,0l-6.9,1.9c0,0,0,0,0.1,0
							c0,0,0,0,0.1,0C84.4,107.5,84.4,107.5,84.5,107.4C84.5,107.5,84.5,107.5,84.5,107.4"/>
						<path class="st2" d="M84.3,107.7l6.9-1.9c0,0,0,0-0.1,0c0,0,0,0-0.1,0c0,0,0,0-0.1,0s0,0-0.1,0l-6.9,1.9c0,0,0,0,0.1,0
							s0,0,0.1,0C84.2,107.7,84.2,107.7,84.3,107.7C84.2,107.7,84.2,107.7,84.3,107.7"/>
					</g>
				</g>
				<g class="st0">
					<defs>
						<path id="SVGID_49_" class="st0" d="M42.3,16.2l6.9-1.5c1.1-0.2,2.1-0.4,3-0.4c1-0.1,1.9-0.1,2.7,0c0.8,0,1.6,0.1,2.2,0.2
							c0.6,0.1,1.2,0.2,1.6,0.3c0.7,0.2,1.9,0.5,3.3,1c1.4,0.5,3.1,1.3,4.9,2.5c1.8,1.1,3.8,2.6,5.9,4.5c2,1.9,4.1,4.3,6.2,7.2
							c1.8,2.6,3.3,5.2,4.5,7.8c1.2,2.6,2.2,5.1,3,7.3c0.8,2.3,1.3,4.3,1.7,6c0.4,1.7,0.6,3,0.8,3.7c0.3,1.7,0.5,3.1,0.6,4.6
							c0.1,1.4,0.2,2.9,0.2,4.6c0,1.7,0.1,3.7,0.1,6.3c0,2.6,0.1,5.7,0.3,9.6c0.1,2,0.2,3.9,0.3,5.7c0.1,1.8,0.2,3.5,0.3,5
							c0.1,1.6,0.2,3,0.3,4.3c0.1,1.3,0.2,2.5,0.3,3.6l-6.9,1.8c-0.1-1.1-0.2-2.2-0.3-3.6c-0.1-1.3-0.2-2.8-0.3-4.4
							c-0.1-1.6-0.2-3.3-0.3-5.1c-0.1-1.8-0.2-3.7-0.3-5.7c-0.2-4-0.2-7.1-0.3-9.6c0-2.6-0.1-4.6-0.1-6.3c0-1.7-0.1-3.2-0.2-4.6
							c-0.1-1.4-0.3-2.9-0.6-4.6c-0.1-0.8-0.4-2.1-0.8-3.7s-1-3.7-1.7-6c-0.8-2.3-1.7-4.8-3-7.4c-1.2-2.6-2.7-5.2-4.5-7.8
							c-2-2.9-4.1-5.3-6.2-7.2c-2-1.9-4-3.4-5.9-4.5c-1.8-1.1-3.5-1.9-4.9-2.5c-1.4-0.6-2.5-0.9-3.3-1.1c-0.4-0.1-1-0.2-1.6-0.3
							c-0.6-0.1-1.4-0.2-2.2-0.2c-0.8,0-1.7-0.1-2.7,0C44.4,15.8,43.3,16,42.3,16.2z"/>
					</defs>
					<clipPath id="SVGID_50_">
						<use xlink:href="#SVGID_49_"  style="overflow:visible;"/>
					</clipPath>
					<g class="st35">
						<path class="st2" d="M42.3,16.2l6.9-1.5c1.1-0.2,2.1-0.4,3-0.4c1-0.1,1.9-0.1,2.7,0c0.8,0,1.6,0.1,2.2,0.2
							c0.6,0.1,1.2,0.2,1.6,0.3c0.5,0.1,1.2,0.3,2,0.6c0.8,0.3,1.8,0.6,2.9,1.1c1.1,0.5,2.3,1.1,3.5,1.9c1.3,0.8,2.6,1.7,3.9,2.8
							l-7,1.5c-1.4-1.1-2.7-2.1-3.9-2.9c-1.3-0.8-2.4-1.4-3.5-1.9c-1.1-0.5-2-0.9-2.9-1.1c-0.8-0.3-1.5-0.5-2-0.6
							c-0.4-0.1-1-0.2-1.6-0.3c-0.6-0.1-1.4-0.2-2.2-0.2c-0.8,0-1.7-0.1-2.7,0C44.4,15.8,43.3,16,42.3,16.2"/>
						<path class="st3" d="M64.2,22.8l7-1.5c0.5,0.4,1,0.9,1.5,1.3c0.5,0.5,1,1,1.5,1.5c0.5,0.5,1,1.1,1.5,1.7
							c0.5,0.6,1,1.2,1.5,1.8l-7,1.6c-0.5-0.6-1-1.3-1.5-1.8c-0.5-0.6-1-1.1-1.5-1.7c-0.5-0.5-1-1-1.5-1.5
							C65.2,23.7,64.7,23.2,64.2,22.8"/>
						<path class="st4" d="M70.3,29.2l7-1.6c0.2,0.2,0.3,0.4,0.5,0.6c0.2,0.2,0.3,0.4,0.5,0.6c0.1,0.2,0.3,0.4,0.4,0.6
							c0.1,0.2,0.3,0.4,0.4,0.6c0.3,0.4,0.6,0.8,0.8,1.2c0.3,0.4,0.5,0.8,0.8,1.2c0.3,0.4,0.5,0.8,0.7,1.2c0.2,0.4,0.5,0.8,0.7,1.2
							l-6.9,1.6c-0.2-0.4-0.5-0.8-0.7-1.2c-0.2-0.4-0.5-0.8-0.7-1.2c-0.3-0.4-0.5-0.8-0.8-1.2c-0.3-0.4-0.5-0.8-0.8-1.2
							c-0.1-0.2-0.3-0.4-0.4-0.6c-0.1-0.2-0.3-0.4-0.4-0.6c-0.2-0.2-0.3-0.4-0.5-0.6C70.6,29.5,70.4,29.3,70.3,29.2"/>
						<path class="st5" d="M75.1,36.5l6.9-1.6c0.5,0.9,1,1.9,1.4,2.8c0.4,0.9,0.8,1.8,1.2,2.7c0.4,0.9,0.7,1.8,1,2.6
							c0.3,0.9,0.6,1.7,0.9,2.5l-6.9,1.6c-0.3-0.8-0.6-1.6-0.9-2.5c-0.3-0.9-0.7-1.7-1-2.6c-0.4-0.9-0.8-1.8-1.2-2.7
							C76.1,38.4,75.6,37.5,75.1,36.5"/>
						<path class="st6" d="M79.6,47.1l6.9-1.6c0.4,1.1,0.7,2.1,0.9,3.1c0.3,1,0.5,1.9,0.7,2.7c0.2,0.8,0.3,1.5,0.5,2.1
							c0.1,0.6,0.2,1.1,0.3,1.5c0.3,1.7,0.5,3.1,0.6,4.6c0.1,1.4,0.2,2.9,0.2,4.6c0,1.7,0.1,3.7,0.1,6.3c0,2.6,0.1,5.7,0.3,9.6
							c0.1,2,0.2,3.9,0.3,5.7c0.1,1.8,0.2,3.5,0.3,5c0.1,1.6,0.2,3,0.3,4.3c0.1,1.3,0.2,2.5,0.3,3.6l-6.9,1.8
							c-0.1-1.1-0.2-2.2-0.3-3.6c-0.1-1.3-0.2-2.8-0.3-4.4c-0.1-1.6-0.2-3.3-0.3-5.1c-0.1-1.8-0.2-3.7-0.3-5.7
							c-0.2-4-0.2-7.1-0.3-9.6c0-2.6-0.1-4.6-0.1-6.3c0-1.7-0.1-3.2-0.2-4.6c-0.1-1.4-0.3-2.9-0.6-4.6c-0.1-0.4-0.2-0.9-0.3-1.5
							c-0.1-0.6-0.3-1.3-0.5-2.1c-0.2-0.8-0.4-1.7-0.7-2.7C80.3,49.3,80,48.2,79.6,47.1"/>
					</g>
				</g>
				<g>
					<path class="st36" d="M84.8,105c0,0.3,0,0.6,0,0.8c0,0.2,0,0.5,0,0.7c0,0.2-0.1,0.4-0.1,0.5c0,0.1-0.1,0.3-0.2,0.4
						c-0.1,0.1-0.1,0.2-0.2,0.2c-0.1,0.1-0.2,0.1-0.3,0.1c-0.1,0-0.2,0-0.3,0c-0.1,0-0.2,0-0.3,0c0,0-0.1,0-0.1,0s-0.1,0-0.1,0
						c0,0-0.1,0-0.1,0c0,0-0.1,0-0.1-0.1c-0.2-0.1-0.3-0.3-0.4-0.4c-0.1-0.2-0.2-0.4-0.3-0.6c-0.1-0.2-0.2-0.4-0.2-0.6
						c-0.1-0.2-0.1-0.3-0.1-0.5c-0.1-0.3-0.1-0.5-0.1-0.7c0-0.2,0-0.4,0-0.6c0-0.2,0-0.4,0-0.6c0-0.2-0.1-0.5-0.2-0.8
						c0-0.1-0.1-0.3-0.1-0.4c0-0.1-0.1-0.3-0.1-0.4c-0.1-0.1-0.1-0.3-0.2-0.4c-0.1-0.1-0.2-0.2-0.3-0.3c0,0-0.1,0-0.1-0.1
						c0,0-0.1,0-0.1-0.1c0,0-0.1,0-0.1,0c0,0-0.1,0-0.1,0c-0.1,0-0.2,0-0.3,0s-0.2,0-0.2,0c-0.1,0-0.1,0-0.2,0.1c0,0-0.1,0-0.1,0
						c-0.3,0.2-0.5,0.5-0.6,0.9c-0.1,0.4-0.2,0.9-0.2,1.4c0,0.5-0.1,1-0.2,1.4c-0.1,0.4-0.3,0.8-0.6,0.9c0,0,0,0-0.1,0
						c0,0-0.1,0-0.2,0.1c-0.1,0-0.1,0-0.2,0c-0.1,0-0.2,0-0.3,0c0,0-0.1,0-0.1,0c0,0-0.1,0-0.1,0c0,0-0.1,0-0.1-0.1
						c0,0-0.1,0-0.1-0.1c-0.3-0.3-0.5-0.7-0.6-1.2c-0.1-0.5-0.2-1.1-0.2-1.7c-0.1-0.6-0.1-1.2-0.3-1.8c-0.1-0.5-0.3-1-0.7-1.3
						c0,0-0.1-0.1-0.1-0.1c0,0-0.1-0.1-0.1-0.1c0,0-0.1-0.1-0.1-0.1c0,0-0.1,0-0.1-0.1c0,0-0.1,0-0.1,0c0,0-0.1,0-0.1,0
						c0,0-0.1,0-0.1,0c0,0-0.1,0-0.1,0c-0.3,0.1-0.5,0.3-0.6,0.6c-0.1,0.3-0.2,0.7-0.3,1.2c-0.1,0.4-0.2,0.9-0.3,1.2
						c-0.1,0.4-0.3,0.7-0.6,0.8c-0.1,0-0.1,0.1-0.2,0.1c-0.1,0-0.1,0-0.2,0c-0.1,0-0.2,0-0.2,0c-0.1,0-0.2,0-0.2,0
						c-0.1,0-0.2-0.1-0.3-0.1c-0.1-0.1-0.2-0.1-0.3-0.2c-0.1-0.1-0.2-0.2-0.3-0.3c-0.1-0.1-0.2-0.2-0.2-0.3
						c-0.1-0.2-0.2-0.5-0.3-0.8c-0.1-0.3-0.1-0.6-0.1-0.9c0-0.3,0.1-0.6,0.1-0.9c0.1-0.3,0.2-0.6,0.4-0.8c0.2-0.6,0.3-1.3,0.5-1.9
						c0.2-0.7,0.4-1.4,0.6-2.2c0.2-0.8,0.4-1.6,0.6-2.4c0.2-0.8,0.4-1.7,0.7-2.6c0.5-1.8,0.9-3.4,1.2-4.7c0.3-1.3,0.6-2.5,0.7-3.5
						c0.2-1,0.3-1.9,0.3-2.8c0-0.9,0-1.7-0.1-2.6c-0.1-0.6-0.2-1.2-0.3-1.7c-0.1-0.5-0.2-1.1-0.3-1.5s-0.2-0.9-0.4-1.3
						c-0.1-0.4-0.2-0.8-0.4-1.1c0-0.1-0.2-0.3-0.4-0.6c-0.2-0.3-0.5-0.7-0.8-1.1c-0.3-0.4-0.7-0.8-1.2-1.1c-0.4-0.3-0.9-0.6-1.5-0.8
						c-0.1,0-0.1,0-0.2,0c-0.1,0-0.1,0-0.2,0c-0.1,0-0.1,0-0.2,0s-0.1,0-0.2,0c-0.2,0-0.4,0-0.6,0.1c-0.2,0-0.3,0.1-0.5,0.2
						c-0.2,0.1-0.3,0.1-0.4,0.2c-0.1,0.1-0.2,0.2-0.3,0.3c-0.2,0.3-0.3,0.6-0.5,1c-0.2,0.4-0.3,0.8-0.5,1.2
						c-0.2,0.4-0.3,0.9-0.5,1.4c-0.2,0.5-0.3,1.1-0.4,1.7c-0.1,0.6-0.2,1.3-0.3,1.9C65,75.6,65,76.3,65,77c0,0.7,0,1.6,0,2.5
						c0,0.9,0,2,0.1,3.1c0,1.3,0.1,2.4,0.1,3.5c0,1,0.1,2,0.1,2.9c0,0.9,0.1,1.8,0.2,2.7c0.1,0.9,0.1,1.8,0.2,2.9
						c0.1,0.8,0.2,1.6,0.2,2.5c0.1,0.9,0.2,1.8,0.3,2.8c0.1,1,0.2,2,0.4,3.1c0.1,1.1,0.3,2.2,0.5,3.3c0.1,0.5,0.1,1,0,1.5
						c-0.1,0.4-0.2,0.8-0.4,1.1c-0.2,0.3-0.5,0.5-0.8,0.6c-0.3,0.1-0.6,0.1-1,0l-9.3-2.8c-0.4-0.1-0.8-0.4-1.1-0.7
						c-0.3-0.4-0.6-0.8-0.8-1.3c-0.2-0.5-0.3-1-0.4-1.6c0-0.5,0-1.1,0.2-1.5c0.2-0.5,0.4-1,0.6-1.4c0.2-0.4,0.4-0.7,0.6-1.1
						c0.2-0.4,0.4-0.7,0.7-1.1c0.2-0.4,0.5-0.9,0.7-1.5c0.1-0.3,0.3-0.7,0.4-1c0.1-0.3,0.2-0.6,0.3-0.9c0.1-0.3,0.2-0.6,0.2-0.8
						c0.1-0.3,0.1-0.5,0.2-0.7c0.2-1.3,0.3-2.6,0.4-3.9c0-1.3-0.1-2.6-0.3-3.8c-0.2-1.2-0.5-2.3-1-3.4c-0.4-1-0.9-1.9-1.5-2.7
						c-0.1-0.2-0.3-0.3-0.5-0.5c-0.2-0.2-0.4-0.4-0.6-0.6c-0.2-0.2-0.5-0.4-0.7-0.5c-0.3-0.2-0.6-0.3-0.9-0.5c-0.3,0-0.6,0-0.9,0
						c-0.3,0-0.5,0.1-0.7,0.1c-0.2,0.1-0.4,0.1-0.6,0.2c-0.2,0.1-0.3,0.2-0.5,0.3c-0.6,0.4-1.1,1-1.5,1.8c-0.4,0.8-0.7,1.7-0.9,2.8
						c-0.2,1.1-0.3,2.3-0.3,3.6c0,1.3,0.1,2.7,0.4,4.1c0,0.2,0.1,0.5,0.2,0.8c0.1,0.3,0.1,0.6,0.2,1c0.1,0.3,0.2,0.7,0.3,1.1
						c0.1,0.4,0.3,0.8,0.4,1.2c0.3,0.7,0.5,1.3,0.7,1.9c0.2,0.6,0.5,1,0.7,1.5c0.2,0.5,0.4,0.9,0.6,1.4c0.2,0.5,0.4,1.1,0.6,1.7
						c0.2,0.6,0.3,1.2,0.2,1.7c0,0.5-0.1,1-0.3,1.4c-0.2,0.4-0.5,0.7-0.8,0.8c-0.3,0.2-0.7,0.2-1.1,0.1l-9.1-2.7
						c-0.4-0.1-0.7-0.3-1-0.6c-0.3-0.3-0.5-0.7-0.8-1.1c-0.2-0.4-0.4-0.9-0.4-1.3c-0.1-0.5-0.1-1,0-1.4c0.2-1,0.3-2,0.4-3
						c0.1-1,0.2-1.9,0.3-2.8c0.1-0.9,0.2-1.8,0.3-2.6c0.1-0.8,0.2-1.6,0.2-2.4c0.1-1,0.2-1.9,0.2-2.7c0.1-0.9,0.1-1.7,0.1-2.6
						c0-0.9,0.1-1.8,0.1-2.8c0-1,0.1-2.1,0.1-3.3c0-1.1,0.1-2.1,0.1-3c0-0.9,0-1.7,0-2.5c0-0.7-0.1-1.4-0.2-2.1
						c-0.1-0.7-0.2-1.4-0.3-2.1c-0.1-0.7-0.3-1.3-0.4-1.9c-0.2-0.6-0.3-1.1-0.5-1.7c-0.2-0.5-0.3-1-0.5-1.5
						c-0.2-0.5-0.3-0.9-0.5-1.3c-0.1-0.1-0.2-0.3-0.3-0.4c-0.1-0.1-0.3-0.3-0.4-0.4c-0.1-0.1-0.3-0.3-0.5-0.4
						c-0.2-0.1-0.4-0.3-0.5-0.4c-0.1,0-0.1-0.1-0.2-0.1c-0.1,0-0.1-0.1-0.2-0.1c-0.1,0-0.1,0-0.2-0.1c-0.1,0-0.1,0-0.2-0.1
						c-0.5-0.1-1-0.1-1.4,0c-0.4,0.1-0.8,0.3-1.1,0.5c-0.3,0.2-0.6,0.4-0.8,0.6c-0.2,0.2-0.3,0.3-0.4,0.4c-0.1,0.3-0.2,0.5-0.3,0.9
						c-0.1,0.3-0.2,0.7-0.3,1.1c-0.1,0.4-0.2,0.8-0.3,1.3c-0.1,0.5-0.2,1-0.2,1.5c-0.1,0.8-0.1,1.6-0.1,2.5c0,0.9,0.1,1.8,0.3,2.9
						c0.2,1.1,0.4,2.3,0.7,3.8c0.3,1.5,0.7,3.2,1.2,5.2c0.2,1,0.4,2,0.7,2.9c0.2,0.9,0.4,1.8,0.6,2.7c0.2,0.9,0.4,1.7,0.6,2.4
						c0.2,0.8,0.4,1.5,0.5,2.2c0.2,0.3,0.3,0.7,0.4,1c0.1,0.3,0.1,0.7,0.1,1c0,0.3,0,0.6-0.1,0.8c-0.1,0.2-0.1,0.4-0.3,0.6
						c-0.1,0.1-0.1,0.2-0.2,0.2c-0.1,0.1-0.2,0.1-0.3,0.1c-0.1,0-0.2,0-0.3,0c-0.1,0-0.2,0-0.3-0.1c-0.1,0-0.2-0.1-0.2-0.1
						c-0.1,0-0.1-0.1-0.2-0.1c-0.1,0-0.1-0.1-0.2-0.2c-0.1-0.1-0.1-0.1-0.2-0.2c-0.3-0.3-0.5-0.7-0.6-1.2c-0.1-0.4-0.2-0.9-0.3-1.4
						c-0.1-0.5-0.2-0.9-0.3-1.3c-0.1-0.4-0.3-0.7-0.6-1c0,0-0.1-0.1-0.1-0.1s-0.1,0-0.1-0.1c0,0-0.1,0-0.1-0.1s-0.1,0-0.1,0
						c0,0-0.1,0-0.1,0c0,0-0.1,0-0.1,0c0,0-0.1,0-0.1,0c0,0-0.1,0-0.1,0c-0.3,0.1-0.5,0.5-0.6,0.9c-0.1,0.5-0.2,1-0.2,1.6
						c-0.1,0.6-0.1,1.1-0.2,1.6c-0.1,0.4-0.3,0.8-0.5,0.9c0,0-0.1,0-0.1,0c0,0-0.1,0-0.1,0c0,0-0.1,0-0.1,0c0,0-0.1,0-0.1,0
						c-0.1,0-0.2-0.1-0.3-0.1c-0.1,0-0.2-0.1-0.2-0.2C27.1,91,27,91,27,90.9c0,0-0.1-0.1-0.1-0.1c-0.3-0.3-0.4-0.7-0.5-1.2
						c-0.1-0.5-0.2-1-0.2-1.5c0-0.5-0.1-1-0.2-1.5s-0.3-0.9-0.6-1.2c0,0,0,0-0.1-0.1c0,0-0.1-0.1-0.1-0.1C25.1,85.1,25,85.1,25,85
						c-0.1,0-0.2-0.1-0.2-0.1c0,0-0.1,0-0.1,0c0,0-0.1,0-0.1,0c0,0-0.1,0-0.1,0c0,0-0.1,0-0.1,0c-0.1,0-0.2,0.1-0.2,0.1
						c-0.1,0.1-0.1,0.2-0.2,0.2c-0.1,0.1-0.1,0.2-0.1,0.3c0,0.1-0.1,0.2-0.1,0.3c-0.1,0.3-0.1,0.5-0.2,0.7c0,0.2,0,0.4,0,0.6
						c0,0.2,0,0.4,0,0.5c0,0.2-0.1,0.4-0.1,0.6c0,0.1-0.1,0.2-0.1,0.4c-0.1,0.1-0.1,0.3-0.2,0.4c-0.1,0.1-0.2,0.3-0.3,0.4
						c-0.1,0.1-0.2,0.2-0.4,0.2c0,0-0.1,0-0.1,0c0,0-0.1,0-0.1,0c0,0-0.1,0-0.1,0c0,0-0.1,0-0.1,0c-0.1,0-0.2-0.1-0.3-0.1
						c-0.1-0.1-0.2-0.1-0.3-0.2c-0.1-0.1-0.2-0.2-0.2-0.3c-0.1-0.1-0.1-0.2-0.2-0.3c-0.1-0.2-0.1-0.3-0.2-0.5s-0.1-0.3-0.1-0.5
						c0-0.2,0-0.4,0-0.6c0-0.2,0-0.5,0-0.8c0-0.3,0-0.6,0-0.9c0-0.3,0-0.6,0.1-1c0-0.4,0.1-0.7,0.1-1.1c0-0.4,0.1-0.8,0.2-1.2
						c0.1-1,0.1-2.1,0.2-3.3c0.1-1.2,0.2-2.6,0.2-4c0.1-1.5,0.2-3,0.2-4.7c0.1-1.7,0.1-3.5,0.2-5.3c0.1-3.7,0.2-6.7,0.2-9.1
						c0-2.5,0-4.4,0.1-6c0-1.7,0.1-3,0.2-4.4c0.1-1.3,0.3-2.6,0.5-4.1c0.1-0.7,0.3-1.8,0.7-3.2c0.4-1.4,0.9-3.1,1.6-5
						c0.7-1.8,1.6-3.8,2.7-5.7c1.1-1.9,2.5-3.8,4.2-5.5c1.9-1.9,3.9-3.2,5.9-4.2c2-0.9,3.9-1.4,5.7-1.7c1.8-0.2,3.4-0.2,4.8-0.1
						c1.4,0.1,2.5,0.3,3.3,0.5c0.7,0.2,1.9,0.5,3.3,1.1c1.4,0.6,3.1,1.3,4.9,2.5c1.8,1.1,3.8,2.6,5.9,4.5c2,1.9,4.1,4.3,6.2,7.2
						c1.8,2.6,3.3,5.3,4.5,7.8c1.2,2.6,2.2,5.1,3,7.4c0.8,2.3,1.3,4.3,1.7,6s0.6,3,0.8,3.7c0.3,1.7,0.5,3.1,0.6,4.6
						c0.1,1.4,0.2,2.9,0.2,4.6c0,1.7,0.1,3.8,0.1,6.3c0,2.6,0.1,5.7,0.3,9.6c0.1,2,0.2,3.9,0.3,5.7c0.1,1.8,0.2,3.5,0.3,5.1
						c0.1,1.6,0.2,3,0.3,4.4c0.1,1.3,0.2,2.5,0.3,3.6c0.1,0.5,0.1,0.9,0.2,1.4c0.1,0.4,0.1,0.8,0.1,1.2c0,0.4,0.1,0.8,0.1,1.1
						C84.8,104.4,84.8,104.7,84.8,105z M52.1,65.4c2,0.5,3.9,0.5,5.6-0.1c1.7-0.6,3.3-1.6,4.6-3.1c1.3-1.5,2.4-3.4,3.1-5.7
						c0.7-2.3,1.1-4.9,1.1-7.7c0-2.8-0.4-5.7-1.2-8.3c-0.7-2.7-1.8-5.1-3.1-7.3c-1.3-2.2-2.9-4.1-4.6-5.6c-1.7-1.5-3.6-2.5-5.6-3
						c-2-0.5-3.9-0.4-5.6,0.2c-1.7,0.6-3.2,1.7-4.5,3.3c-1.3,1.5-2.3,3.5-3,5.7c-0.7,2.2-1.1,4.8-1.1,7.6c0,2.8,0.4,5.6,1.2,8.2
						c0.7,2.6,1.8,5.1,3.1,7.2c1.3,2.2,2.8,4.1,4.5,5.5C48.3,63.7,50.1,64.8,52.1,65.4"/>
				</g>
				<g>
					<path d="M52,40.6c0.4,0.1,0.8,0.3,1.2,0.7c0.4,0.3,0.7,0.7,1,1.2c0.3,0.5,0.5,1,0.7,1.6c0.2,0.6,0.2,1.2,0.3,1.8
						c0,0.6-0.1,1.2-0.2,1.7c-0.2,0.5-0.4,0.9-0.7,1.2c-0.3,0.3-0.6,0.6-1,0.7c-0.4,0.1-0.8,0.1-1.2,0c-0.4-0.1-0.8-0.3-1.2-0.7
						c-0.4-0.3-0.7-0.7-1-1.2c-0.3-0.5-0.5-1-0.7-1.6c-0.2-0.6-0.2-1.2-0.2-1.8c0-0.6,0.1-1.2,0.2-1.6c0.2-0.5,0.4-0.9,0.7-1.2
						c0.3-0.3,0.6-0.6,1-0.7C51.2,40.5,51.6,40.5,52,40.6z"/>
				</g>
				<g>
					<path class="st37" d="M51.9,24.5c2,0.5,3.9,1.5,5.6,3c1.7,1.5,3.3,3.4,4.6,5.6c1.3,2.2,2.4,4.7,3.1,7.3
						c0.7,2.7,1.2,5.5,1.2,8.3c0,2.8-0.4,5.4-1.1,7.7c-0.7,2.3-1.8,4.2-3.1,5.7c-1.3,1.5-2.9,2.6-4.6,3.1c-1.7,0.6-3.6,0.6-5.6,0.1
						c-2-0.5-3.8-1.6-5.6-3.1c-1.7-1.5-3.2-3.4-4.5-5.5c-1.3-2.2-2.3-4.6-3.1-7.2c-0.7-2.6-1.1-5.4-1.2-8.2c0-2.8,0.4-5.4,1.1-7.6
						c0.7-2.3,1.7-4.2,3-5.7c1.3-1.5,2.8-2.6,4.5-3.3C48.1,24.2,50,24,51.9,24.5z M52,49.4c0.4,0.1,0.8,0.1,1.2,0
						c0.4-0.1,0.7-0.4,1-0.7c0.3-0.3,0.5-0.7,0.7-1.2c0.2-0.5,0.2-1,0.2-1.7c0-0.6-0.1-1.2-0.3-1.8c-0.2-0.6-0.4-1.1-0.7-1.6
						c-0.3-0.5-0.6-0.9-1-1.2c-0.4-0.3-0.8-0.5-1.2-0.7c-0.4-0.1-0.8-0.1-1.2,0c-0.4,0.1-0.7,0.4-1,0.7c-0.3,0.3-0.5,0.7-0.7,1.2
						c-0.2,0.5-0.2,1-0.2,1.6c0,0.6,0.1,1.2,0.2,1.8c0.2,0.6,0.4,1.1,0.7,1.6c0.3,0.5,0.6,0.9,1,1.2C51.2,49.1,51.6,49.3,52,49.4"/>
				</g>
				<g class="st0">
					<defs>
						<path id="SVGID_51_" class="st0" d="M84.4,100.4l6.9-1.8c0.1,0.5,0.1,0.9,0.2,1.4c0.1,0.4,0.1,0.8,0.1,1.2
							c0,0.4,0.1,0.8,0.1,1.1c0,0.3,0,0.7,0.1,0.9l-6.9,1.9c0-0.3,0-0.6-0.1-0.9c0-0.3-0.1-0.7-0.1-1.1c0-0.4-0.1-0.8-0.1-1.2
							C84.5,101.3,84.4,100.9,84.4,100.4z"/>
					</defs>
					<clipPath id="SVGID_52_">
						<use xlink:href="#SVGID_51_"  style="overflow:visible;"/>
					</clipPath>
					<g class="st38">
						<path class="st6" d="M84.4,100.4l6.9-1.8c0.1,0.5,0.1,0.9,0.2,1.4c0.1,0.4,0.1,0.8,0.1,1.2c0,0.4,0.1,0.8,0.1,1.1
							c0,0.3,0,0.7,0.1,0.9l-6.9,1.9c0-0.3,0-0.6-0.1-0.9c0-0.3-0.1-0.7-0.1-1.1c0-0.4-0.1-0.8-0.1-1.2
							C84.5,101.3,84.4,100.9,84.4,100.4"/>
					</g>
				</g>
			</g>
		</g>
	</g>
	<rect x="-0.1" y="0.2" class="st39" width="112" height="112"/>
</g>
</svg>
