<?xml version="1.0" encoding="utf-8"?>
<!-- Generator: Adobe Illustrator 21.0.0, SVG Export Plug-In . SVG Version: 6.00 Build 0)  -->
<svg version="1.1" id="Layer_1" xmlns="http://www.w3.org/2000/svg" xmlns:xlink="http://www.w3.org/1999/xlink" x="0px" y="0px"
	 viewBox="0 0 112 112" style="enable-background:new 0 0 112 112;" xml:space="preserve">
<style type="text/css">
	.st0{fill:none;stroke:#000000;stroke-width:1.0983;stroke-linecap:round;stroke-linejoin:round;}
	.st1{fill:none;stroke:#000000;stroke-width:1.0983;stroke-linecap:round;stroke-linejoin:round;stroke-dasharray:2.3677,2.3677;}
	.st2{fill:none;stroke:#000000;stroke-width:1.0983;stroke-linecap:round;stroke-linejoin:round;stroke-dasharray:2.3216,2.3216;}
	.st3{fill:none;stroke:#000000;stroke-width:1.0983;stroke-linecap:round;stroke-linejoin:round;stroke-dasharray:2.4113,2.4113;}
	.st4{fill:none;stroke:#000000;stroke-width:1.0983;stroke-linecap:round;stroke-linejoin:round;stroke-dasharray:2.3008,2.3008;}
	.st5{fill:none;}
</style>
<g>
	<g>
		<path d="M54.1,7.4h-7.9c-0.6,0-1,0.5-1,1v14.7c0,0.6,0.5,1,1,1h7.9c0.6,0,1-0.5,1-1V8.5C55.1,7.9,54.7,7.4,54.1,7.4z M52.9,8.2
			c0.2,0,0.4,0.2,0.4,0.4c0,0.2-0.2,0.4-0.4,0.4s-0.4-0.2-0.4-0.4C52.5,8.4,52.6,8.2,52.9,8.2z M49.3,8.2h1.4c0.2,0,0.4,0.2,0.4,0.4
			c0,0.2-0.2,0.4-0.4,0.4h-1.4c-0.2,0-0.4-0.2-0.4-0.4C48.9,8.4,49.1,8.2,49.3,8.2z M50.7,23.4h-1.5c-0.2,0-0.4-0.2-0.4-0.4
			c0-0.2,0.2-0.4,0.4-0.4h1.5c0.2,0,0.4,0.2,0.4,0.4C51.1,23.2,51,23.4,50.7,23.4z M54,21.7h-7.7V10H54V21.7z"/>
		<path d="M18.2,75.4H4.7c-0.7,0-1.3,0.6-1.3,1.3v18.7c0,0.7,0.6,1.3,1.3,1.3h13.5c0.7,0,1.3-0.6,1.3-1.3V76.7
			C19.5,76,18.9,75.4,18.2,75.4z M12.4,94.8c0,0.2-0.2,0.4-0.4,0.4H11c-0.2,0-0.4-0.2-0.4-0.4v-0.1c0-0.2,0.2-0.4,0.4-0.4h0.9
			C12.2,94.3,12.4,94.5,12.4,94.8L12.4,94.8z M17.4,93.2H5.5V77.7h11.9V93.2z"/>
		<path d="M68.2,94.1h-3.2V75c0-1-0.8-1.8-1.8-1.8H36.9c-1,0-1.8,0.8-1.8,1.8v19.1h-3.2c-0.7,0-1.2,0.6-1.2,1.2v0
			c0,0.7,0.6,1.2,1.2,1.2h36.3c0.7,0,1.2-0.6,1.2-1.2v0C69.4,94.7,68.9,94.1,68.2,94.1z M62.5,92.9h-25V75.7h25V92.9z"/>
		<path d="M106.9,66.3H80c-1.1,0-1.9,0.9-1.9,1.9v20.6c0,1.1,0.9,1.9,1.9,1.9h9.9v3.6h-2.2c-1.3,0-2.3,1-2.3,2.3v0h16.2v0
			c0-1.3-1-2.3-2.3-2.3H97v-3.6h9.9c1.1,0,1.9-0.9,1.9-1.9V68.2C108.8,67.1,108,66.3,106.9,66.3z M106.2,88.1H80.7V68.8h25.5V88.1z"
			/>
		<g>
			<g>
				<line class="st0" x1="50.1" y1="27.4" x2="50.1" y2="28.6"/>
				<line class="st1" x1="50.1" y1="30.9" x2="50.1" y2="67.6"/>
				<line class="st0" x1="50.1" y1="68.8" x2="50.1" y2="70"/>
			</g>
		</g>
		<g>
			<g>
				<line class="st0" x1="11.5" y1="72" x2="11.5" y2="70.8"/>
				<line class="st2" x1="11.5" y1="68.5" x2="11.5" y2="51.1"/>
				<polyline class="st0" points="11.5,49.9 11.5,48.7 12.7,48.7 				"/>
				<line class="st3" x1="15.1" y1="48.7" x2="91" y2="48.7"/>
				<polyline class="st0" points="92.2,48.7 93.5,48.7 93.5,49.9 				"/>
				<line class="st4" x1="93.5" y1="52.2" x2="93.5" y2="60.3"/>
				<line class="st0" x1="93.5" y1="61.4" x2="93.5" y2="62.6"/>
			</g>
		</g>
	</g>
	<rect x="0.1" y="-0.2" class="st5" width="112" height="112"/>
</g>
</svg>
