<?xml version="1.0" encoding="utf-8"?>
<!-- Generator: Adobe Illustrator 21.0.0, SVG Export Plug-In . SVG Version: 6.00 Build 0)  -->
<svg version="1.1" id="Layer_1" xmlns="http://www.w3.org/2000/svg" xmlns:xlink="http://www.w3.org/1999/xlink" x="0px" y="0px"
	 viewBox="0 0 112 112" style="enable-background:new 0 0 112 112;" xml:space="preserve">
<style type="text/css">
	.st0{fill:#FFFFFF;}
	.st1{fill:none;}
</style>
<g>
	<g>
		<circle class="st0" cx="89.2" cy="30.2" r="7.9"/>
		<path class="st0" d="M41.8,69.4l13.8,12.3l-15.9-9.2l-9.6-11.1l-5.3,8.6l14.8,16.5L15.3,67.1c0,0-3.5-2.5-1.5-7
			s12.5-23.8,12.5-23.8l16.2,21.2L80,86.6L39.2,63.2L41.8,69.4z M39.9,78.6l6.7,5.9h1.9L58.8,91l-10-9.3h-3.1L39.9,78.6z M66.6,62.7
			l6.6-15.6l8.5,21.7L97,80l-5-7.4l-7.2-6.5L73.5,39.7l-9.1,19.4l-6.9,8L66.6,62.7z"/>
	</g>
	<rect x="0" y="-0.2" class="st1" width="112" height="112"/>
</g>
</svg>
