<?xml version="1.0" encoding="utf-8"?>
<!-- Generator: Adobe Illustrator 21.0.0, SVG Export Plug-In . SVG Version: 6.00 Build 0)  -->
<svg version="1.1" id="Layer_1" xmlns="http://www.w3.org/2000/svg" xmlns:xlink="http://www.w3.org/1999/xlink" x="0px" y="0px"
	 viewBox="0 0 112 112" style="enable-background:new 0 0 112 112;" xml:space="preserve">
<style type="text/css">
	.st0{fill:none;}
</style>
<g>
	<path d="M60.8,67.1c-0.7,0-1.2,0-1.7,0c-5.6,0-11.2,0-16.8,0c-2.6,0-3.6-1-3.6-3.6c0-5,0-10,0-15c0-2.4,1-3.4,3.4-3.4
		c5.6,0,11.3,0,16.9,0c0.5,0,1,0,1.7,0c0-0.8,0-1.4,0-2c0-3.3,0-6.6,0-9.9c0-1.3,0.4-2.3,1.7-2.9c1.3-0.6,2.3-0.1,3.2,0.8
		c7.6,7.6,15.3,15.2,22.9,22.9c1.5,1.5,1.5,2.9,0,4.4C81,65.9,73.4,73.5,65.8,81.1c-0.9,0.9-1.9,1.5-3.2,0.9c-1.3-0.6-1.8-1.6-1.8-3
		c0-3.4,0-6.7,0-10.1C60.8,68.4,60.8,67.8,60.8,67.1z M22.2,56.1c0,5,0,9.9,0,14.9c0.1,7.3,5.4,12.6,12.7,12.6c4.3,0,8.6,0,12.9,0
		c1.2,0,1.8-0.5,1.9-1.6c0.1-0.6,0.1-1.3,0-1.9c-0.1-1.7-0.4-2-2.1-2c-4.2,0-8.4,0-12.5,0c-4.5,0-7.4-2.8-7.4-7.3
		c-0.1-9.9-0.1-19.7,0-29.6c0-4.5,2.9-7.2,7.4-7.2c4.2,0,8.4,0,12.5,0c1.7,0,2-0.3,2.1-2c0-0.5,0-1,0-1.5c-0.2-1.8-0.4-2-2.2-2
		c-4.1,0-8.3,0-12.4,0c-7.6,0-12.9,5.3-12.9,12.9C22.2,46.3,22.2,51.2,22.2,56.1C22.2,56.1,22.2,56.1,22.2,56.1z"/>
	<rect x="0" y="-0.2" class="st0" width="112" height="112"/>
</g>
</svg>
