<?xml version="1.0" encoding="utf-8"?>
<!-- Generator: Adobe Illustrator 21.0.0, SVG Export Plug-In . SVG Version: 6.00 Build 0)  -->
<svg version="1.1" id="Layer_1" xmlns="http://www.w3.org/2000/svg" xmlns:xlink="http://www.w3.org/1999/xlink" x="0px" y="0px"
	 viewBox="0 0 112 112" style="enable-background:new 0 0 112 112;" xml:space="preserve">
<style type="text/css">
	.st0{fill:none;stroke:#000000;stroke-width:4.9423;stroke-miterlimit:10;}
	.st1{fill:none;}
</style>
<g>
	<g>
		<g>
			<circle cx="45.1" cy="71.7" r="6.2"/>
			<circle cx="67.7" cy="71.7" r="6.2"/>
			<path d="M98.9,86.1L88.5,48.5c-1.5-5.4-6.4-9.1-12-9.1H62v-5.1H50.8v5.1H36.4c-5.6,0-10.5,3.7-12,9.1L14,86.1
				c-1.1,4,1.2,8.2,5.2,9.4c3.6,1.1,7.5-0.6,9.2-4.1l8.1-17.2c-0.2-0.8-0.4-1.7-0.4-2.5c0-5,4.1-9.1,9.1-9.1c4.7,0,8.5,3.5,9.1,8.1
				h4.5c0.5-4.6,4.4-8.1,9.1-8.1c5,0,9.1,4.1,9.1,9.1c0,0.9-0.1,1.7-0.4,2.5l8.1,17.2c1.6,3.4,5.5,5.2,9.2,4.1
				C97.7,94.2,100,90.1,98.9,86.1z M43.9,57.3h-4.8v4.8h-5.6v-4.8h-4.8v-5.6h4.8v-4.8h5.6v4.8h4.8V57.3z M75.4,46.6c1.6,0,3,1.3,3,3
				c0,1.6-1.3,3-3,3s-3-1.3-3-3C72.4,47.9,73.7,46.6,75.4,46.6z M53.7,59.6h-2.2c-0.9,0-1.7-0.8-1.7-1.7s0.8-1.7,1.7-1.7h2.2
				c0.9,0,1.7,0.8,1.7,1.7S54.6,59.6,53.7,59.6z M61.3,59.6h-2.2c-0.9,0-1.7-0.8-1.7-1.7s0.8-1.7,1.7-1.7h2.2c0.9,0,1.7,0.8,1.7,1.7
				S62.2,59.6,61.3,59.6z M69.6,58.3c-1.6,0-3-1.3-3-3s1.3-3,3-3s3,1.3,3,3S71.2,58.3,69.6,58.3z M75.4,64.1c-1.6,0-3-1.3-3-3
				c0-1.6,1.3-3,3-3s3,1.3,3,3C78.3,62.8,77,64.1,75.4,64.1z M81.2,58.3c-1.6,0-3-1.3-3-3s1.3-3,3-3s3,1.3,3,3S82.8,58.3,81.2,58.3z
				"/>
		</g>
		<path class="st0" d="M56.7,37.5v-3.3c0-2.8,2.3-5.1,5.1-5.1h9.3c2.8,0,5.1-2.3,5.1-5.1v-8.1"/>
	</g>
	<rect x="0" y="-0.2" class="st1" width="112" height="112"/>
</g>
</svg>
