<?xml version="1.0" encoding="utf-8"?>
<!-- Generator: Adobe Illustrator 21.0.0, SVG Export Plug-In . SVG Version: 6.00 Build 0)  -->
<svg version="1.1" id="Layer_1" xmlns="http://www.w3.org/2000/svg" xmlns:xlink="http://www.w3.org/1999/xlink" x="0px" y="0px"
	 viewBox="0 0 112 112" style="enable-background:new 0 0 112 112;" xml:space="preserve">
<style type="text/css">
	.st0{fill:#FFFFFF;}
	.st1{fill:none;}
</style>
<g>
	<g>
		<g>
			<rect x="30.9" y="44.3" width="49.8" height="36.1"/>
			<path d="M105.7,45.4h-0.9c-6.3,0-11.4-5.1-11.4-11.4v0v0c0-0.5-0.4-0.8-0.8-0.8H19.3c-0.5,0-0.8,0.4-0.8,0.8v0v0
				c0,6.3-5.1,11.4-11.4,11.4H5.9c-1.7,0-3.1,1.4-3.1,3.1v27.8c0,1.7,1.4,3.1,3.1,3.1h1.1c6.3,0,11.4,5.1,11.4,11.4v0v0
				c0,0.3,0.2,0.5,0.5,0.5h73.9c0.3,0,0.5-0.2,0.5-0.5v0v0c0-6.3,5.1-11.4,11.4-11.4h0.9c1.7,0,3.1-1.4,3.1-3.1V48.5
				C108.8,46.8,107.4,45.4,105.7,45.4z M23.3,64.5h-5.5v5.7h-6.2v-5.7H6v-6.2h5.5v-5.4h6.2v5.4h5.5V64.5z M83.8,83.3H28.1V41.6h55.7
				V83.3z M89.1,65.6c-1.7,0-3.2-1.4-3.2-3.2c0-1.7,1.4-3.2,3.2-3.2s3.2,1.4,3.2,3.2C92.3,64.2,90.9,65.6,89.1,65.6z M95.8,72.1
				c-1.7,0-3.2-1.4-3.2-3.2s1.4-3.2,3.2-3.2s3.2,1.4,3.2,3.2S97.5,72.1,95.8,72.1z M95.8,59c-1.7,0-3.2-1.4-3.2-3.2s1.4-3.2,3.2-3.2
				s3.2,1.4,3.2,3.2S97.5,59,95.8,59z M102.4,65.6c-1.7,0-3.2-1.4-3.2-3.2c0-1.7,1.4-3.2,3.2-3.2s3.2,1.4,3.2,3.2
				C105.6,64.2,104.2,65.6,102.4,65.6z"/>
		</g>
		<path class="st0" d="M76.2,56.8l-1.1-0.6c-1.1-0.6-1.6-1.9-1.3-3.1l0.4-1.2c0.4-1.5-0.9-2.8-2.4-2.4l-1.2,0.4
			c-1.2,0.3-2.5-0.2-3.1-1.3l-0.6-1.1c-0.7-1.3-2.7-1.3-3.4,0l-0.6,1.1c-0.6,1.1-1.9,1.6-3.1,1.3l-1.2-0.4c-1.5-0.4-2.8,0.9-2.4,2.4
			l0.4,1.2c0.3,1.2-0.2,2.5-1.3,3.1l-1.1,0.6c-1.3,0.7-1.3,2.7,0,3.4l1.1,0.6c1.1,0.6,1.6,1.9,1.3,3.1L56.2,65
			c-0.4,1.5,0.9,2.8,2.4,2.4l1.2-0.4c1.2-0.3,2.5,0.2,3.1,1.3l0.6,1.1c0.7,1.3,2.7,1.3,3.4,0l0.6-1.1c0.6-1.1,1.9-1.6,3.1-1.3
			l1.2,0.4c1.5,0.4,2.8-0.9,2.4-2.4l-0.4-1.2c-0.3-1.2,0.2-2.5,1.3-3.1l1.1-0.6C77.5,59.4,77.5,57.5,76.2,56.8z M65.2,63.1
			c-2.6,0-4.7-2.1-4.7-4.7s2.1-4.7,4.7-4.7c2.6,0,4.7,2.1,4.7,4.7S67.8,63.1,65.2,63.1z"/>
		<path class="st0" d="M56.7,68.6l-0.8-0.4c-0.8-0.3-1.2-1.2-1.1-2l0.2-0.9c0.2-1-0.8-1.9-1.8-1.5l-0.8,0.3c-0.8,0.3-1.7,0-2.2-0.7
			l-0.5-0.7c-0.6-0.9-1.9-0.8-2.3,0.2L47,63.8c-0.3,0.8-1.2,1.2-2,1.1l-0.9-0.2c-1-0.2-1.9,0.8-1.5,1.8l0.3,0.8
			c0.3,0.8,0,1.7-0.7,2.2L41.5,70c-0.9,0.6-0.8,1.9,0.2,2.3l0.8,0.4c0.8,0.3,1.2,1.2,1.1,2l-0.2,0.9c-0.2,1,0.8,1.9,1.8,1.5l0.8-0.3
			c0.8-0.3,1.7,0,2.2,0.7l0.5,0.7c0.6,0.9,1.9,0.8,2.3-0.2l0.4-0.8c0.3-0.8,1.2-1.2,2-1.1l0.9,0.2c1,0.2,1.9-0.8,1.5-1.8l-0.3-0.8
			c-0.3-0.8,0-1.7,0.7-2.2l0.7-0.5C57.8,70.4,57.7,69.1,56.7,68.6z M49.5,73.7c-1.8,0.2-3.4-1.2-3.5-2.9s1.2-3.4,2.9-3.5
			s3.4,1.2,3.5,2.9S51.3,73.6,49.5,73.7z"/>
	</g>
	<rect x="-0.2" y="0.5" class="st1" width="112" height="112"/>
</g>
</svg>
