<?xml version="1.0" encoding="utf-8"?>
<!-- Generator: Adobe Illustrator 21.0.0, SVG Export Plug-In . SVG Version: 6.00 Build 0)  -->
<svg version="1.1" id="Layer_1" xmlns="http://www.w3.org/2000/svg" xmlns:xlink="http://www.w3.org/1999/xlink" x="0px" y="0px"
	 viewBox="0 0 112 112" style="enable-background:new 0 0 112 112;" xml:space="preserve">
<style type="text/css">
	.st0{fill:none;stroke:#000000;stroke-width:3.3557;stroke-linecap:round;stroke-linejoin:round;stroke-miterlimit:10;}
	.st1{fill:none;}
</style>
<g>
	<path class="st0" d="M63.2,28.4l3.7-8.2l3.7,8.2l8.1,3.4l-8.1,3.4L67,43.5l-3.7-8.2l-8.1-3.4L63.2,28.4z M44.2,55.2l8.1,3.4
		l3.7,8.2l3.7-8.2l8.1-3.4l-8.1-3.4l-3.7-8.2l-3.7,8.2L44.2,55.2z M63.9,82l6.5,2.7l3,6.5l3-6.5l6.5-2.7l-6.5-2.7l-3-6.5l-3,6.5
		L63.9,82z M31.9,52.7c-1.2,1.2-2.8,3.2-2.6,5.5c0.4,4.2,6.5,6.4,10.1,7.7c2.5,0.9,6.3,1.9,11.2,1.9 M41.7,43.8
		c-2.5,0.4-6.4,1.4-10.6,3.9c-3.9,2.3-10.6,6.2-10.9,12.2c-0.2,4.9,3.9,8.8,5.7,10.4c3,2.8,6.2,3.9,10.6,5.4
		c1.1,0.4,4.9,1.6,10.3,2.3c3.4,0.4,8.2,0.7,13.9,0.1 M65.3,66.7c1.3,0,3.1,0,5.1-0.4c1.2-0.2,3.1-0.5,5.1-1.5
		c1.9-0.9,6.3-2.9,6.6-6.4c0.2-2.2-1.3-4.1-2-4.9c-1.4-1.8-3.2-2.6-4.1-3 M78.4,74.1c3.7-1.6,6.4-3.5,8.2-4.9c2.6-2.1,3.5-3.5,4-4.5
		c1.1-2.2,1.2-4.2,1.2-4.8c0-3.4-1.5-5.8-2.2-6.8c-1.9-2.8-4.4-4.2-7.7-6c-2.3-1.3-4.4-2-5.8-2.5 M23.2,81.2
		c3.9,2.7,10.8,6.8,20.2,8.9c10.1,2.2,18.5,1.1,23.2,0.2"/>
	<rect x="0" y="-0.2" class="st1" width="112" height="112"/>
</g>
</svg>
