<?xml version="1.0" encoding="utf-8"?>
<!-- Generator: Adobe Illustrator 21.0.0, SVG Export Plug-In . SVG Version: 6.00 Build 0)  -->
<svg version="1.1" id="Layer_1" xmlns="http://www.w3.org/2000/svg" xmlns:xlink="http://www.w3.org/1999/xlink" x="0px" y="0px"
	 viewBox="0 0 112 112" style="enable-background:new 0 0 112 112;" xml:space="preserve">
<style type="text/css">
	.st0{fill:none;stroke:#000000;stroke-width:6;stroke-miterlimit:10;}
	.st1{fill:#FFFFFF;stroke:#000000;stroke-width:6;stroke-linecap:round;stroke-linejoin:round;stroke-miterlimit:10;}
	.st2{fill:#FFFFFF;stroke:#000000;stroke-width:6;stroke-miterlimit:10;}
	.st3{fill:none;stroke:#000000;stroke-width:6;stroke-linecap:round;stroke-linejoin:round;stroke-miterlimit:10;}
	.st4{fill:none;}
</style>
<g>
	<g>
		<g>
			<circle class="st0" cx="52.4" cy="59.1" r="43.3"/>
			<path class="st0" d="M52.4,102.5c-11.3-5.1-24-19.4-24-43.3s12.7-38.2,24-43.3"/>
			<path class="st0" d="M52.4,102.5c11.3-5.1,24-19.4,24-43.3s-12.7-38.2-24-43.3"/>
			<path class="st0" d="M16,35.6c4.3,1.8,16.3,3.8,36.3,3.8s32-2,36.3-3.8"/>
			<path class="st0" d="M16,83.6c4.3-1.8,16.3-3.8,36.3-3.8s32,2,36.3,3.8"/>
			<line class="st0" x1="9" y1="59.1" x2="95.7" y2="59.1"/>
			<line class="st0" x1="52.4" y1="15.8" x2="52.4" y2="102.5"/>
		</g>
		<g>
			<g>
				<polyline class="st1" points="84.2,73.3 107.7,94.8 99.4,103.2 76.4,81.2 				"/>
				<circle class="st2" cx="64.7" cy="61.8" r="22.7"/>
				<polyline class="st3" points="53.4,60.6 62.9,70.1 75.5,55.6 				"/>
			</g>
			<line class="st3" x1="86.7" y1="89.2" x2="92.6" y2="83.5"/>
		</g>
	</g>
	<rect x="-0.3" y="0.5" class="st4" width="112" height="112"/>
</g>
</svg>
