<?xml version="1.0" encoding="utf-8"?>
<!-- Generator: Adobe Illustrator 21.0.0, SVG Export Plug-In . SVG Version: 6.00 Build 0)  -->
<svg version="1.1" id="Layer_1" xmlns="http://www.w3.org/2000/svg" xmlns:xlink="http://www.w3.org/1999/xlink" x="0px" y="0px"
	 viewBox="0 0 112 112" style="enable-background:new 0 0 112 112;" xml:space="preserve">
<style type="text/css">
	.st0{fill:none;}
</style>
<g>
	<path d="M26.4,43.8v-4l1.9-1.9h23.4l1.8,1.7v4.2H26.4z M36.7,85.8H43l2-3.2V48.3H35v34.3L36.7,85.8z M26.4,85.9l13.8,19.4
		l13.3-19.1V48.3h-5v34.3l1.5,2.9l-7.2,9.9h-5.4l-7.2-9.6l1.8-3.2V48.3h-5.5V85.9z M79.4,26.6c-0.2,0.6-2.6,9.4-8.8,10.2
		c-2.9,0.4-5.3-1.3-5.7-1.6c-3-2.2-4.2-6.1-3.8-9.4c0.8-6.5,7.7-7.6,8.2-13.9c0.3-3.7-1.9-6.3-1.1-6.9c0.9-0.7,4.4,2.6,8,6.5
		C76.9,12.6,81.4,19,79.4,26.6z M70.4,39.5c-4.2,0-7.6-1.7-7.6,15.9s3.4,47.8,7.6,47.8S78,73.1,78,55.4S74.6,39.5,70.4,39.5z"/>
	<rect x="-0.1" y="0.1" class="st0" width="112" height="112"/>
</g>
</svg>
