<?xml version="1.0" encoding="utf-8"?>
<!-- Generator: Adobe Illustrator 21.0.0, SVG Export Plug-In . SVG Version: 6.00 Build 0)  -->
<svg version="1.1" id="Layer_1" xmlns="http://www.w3.org/2000/svg" xmlns:xlink="http://www.w3.org/1999/xlink" x="0px" y="0px"
	 viewBox="0 0 112 112" style="enable-background:new 0 0 112 112;" xml:space="preserve">
<style type="text/css">
	.st0{fill:none;}
</style>
<g>
	<path d="M88.2,108.1h-4.5V102C75.6,101.3,70.3,97.3,68,90l7.1-1.7c1.3,4.7,4.2,7.2,8.6,7.5V82.8c-5.8-1.3-9.7-3.1-11.4-5.1
		c-1.8-2.1-2.6-4.5-2.6-7.4c0-7.4,4.7-11.7,14.1-12.9v-4.8h4.5v4.8c6.9,0.9,11.2,4.3,13,10.2L94.5,69c-1.1-3.4-3.2-5.2-6.3-5.5v11.6
		c4.3,1.2,7.2,2.2,8.7,2.8c1.5,0.7,2.9,2,4.1,3.9c1.2,1.9,1.8,4.2,1.8,6.8c0,3.7-1.2,6.7-3.7,9.1c-2.5,2.4-6.1,3.9-10.9,4.3V108.1z
		 M83.8,63.5c-1.9,0-3.5,0.5-4.8,1.4c-1.3,0.9-1.9,2.3-1.9,4.2c0,3.1,2.3,4.9,6.8,5.5V63.5z M88.2,95.9c2.1,0,3.8-0.6,5.2-1.8
		c1.4-1.2,2.1-2.7,2.1-4.7c0-3.2-2.4-5.3-7.3-6.2V95.9z M38.8,14.7c0,5.9,4.2,10.7,9.4,10.7s9.4-4.8,9.4-10.7S53.4,4,48.2,4
		S38.8,8.8,38.8,14.7z M47,34.9l-1.1,3.8v16.4l2.2,2.4l1.8-2.1v-17l-0.7-3.5l1.9-2.6l-1.7-2c-0.6-0.7-1.8-0.8-2.4,0l-1.8,2L47,34.9z
		 M34.1,31.5c-2.4,1.4-4,3-4.9,4.1c-3.9,4.6-4.3,10-4.5,13.2c-0.2,2-0.3,3.7,0.2,5.9c0.7,3.3,2.2,5.5,4.1,8.1c1.1,1.6,2.8,3.7,5.2,6
		v39.6h10.4c0-0.2,0.1-1.1-0.5-1.9c-0.4-0.5-0.8-0.7-1-0.8l5.4-25.2l5.3,28h10.7c0-0.4,0-1.4-0.6-2.5c-0.5-0.9-1.2-1.3-1.5-1.5V70.9
		H66c0.5,0,0.8-0.4,0.8-0.8v-23l19.9,5.2c1.9,0.5,3.9-1.3,2.9-3.9c-0.4-1.1-1.2-1.9-2.2-2.5L55.2,27v35.5H38l3.3-5.9V27
		C38.9,28.5,36.5,30,34.1,31.5z"/>
	<rect x="-0.1" y="0.1" class="st0" width="112" height="112"/>
</g>
</svg>
