<?xml version="1.0" encoding="utf-8"?>
<!-- Generator: Adobe Illustrator 21.0.0, SVG Export Plug-In . SVG Version: 6.00 Build 0)  -->
<svg version="1.1" id="Layer_1" xmlns="http://www.w3.org/2000/svg" xmlns:xlink="http://www.w3.org/1999/xlink" x="0px" y="0px"
	 viewBox="0 0 112 112" style="enable-background:new 0 0 112 112;" xml:space="preserve">
<style type="text/css">
	.st0{fill:none;stroke:#000000;stroke-width:2.9821;stroke-miterlimit:10;}
	.st1{fill:none;stroke:#000000;stroke-width:2.9821;}
	.st2{fill:none;stroke:#000000;stroke-width:2.9821;stroke-linecap:round;stroke-linejoin:round;stroke-miterlimit:10;}
	.st3{fill:none;}
</style>
<g>
	<g>
		<g>
			<path class="st0" d="M88.6,84.7l-7.1-7.1 M95.7,97h5.2l-4.2-4.3 M79.5,97h9.8 M72.8,68.9l-59-59V97H75 M27.7,43.3l39.8,39.8H27.7
				V43.3z"/>
			<line class="st0" x1="13.8" y1="91.6" x2="20.9" y2="91.6"/>
			<line class="st0" x1="13.8" y1="86.7" x2="17.9" y2="86.7"/>
			<line class="st0" x1="13.8" y1="81.7" x2="20.9" y2="81.7"/>
			<line class="st0" x1="13.8" y1="76.8" x2="17.9" y2="76.8"/>
			<line class="st0" x1="13.8" y1="71.8" x2="20.9" y2="71.8"/>
			<line class="st0" x1="13.8" y1="66.9" x2="17.9" y2="66.9"/>
			<line class="st0" x1="13.8" y1="61.9" x2="20.9" y2="61.9"/>
			<line class="st0" x1="13.8" y1="57" x2="17.9" y2="57"/>
			<line class="st0" x1="13.8" y1="52" x2="20.9" y2="52"/>
			<line class="st0" x1="13.8" y1="47" x2="17.9" y2="47"/>
			<line class="st0" x1="13.8" y1="42.1" x2="20.9" y2="42.1"/>
			<line class="st0" x1="13.8" y1="37.1" x2="17.9" y2="37.1"/>
			<line class="st0" x1="13.8" y1="32.2" x2="20.9" y2="32.2"/>
			<line class="st0" x1="13.8" y1="27.2" x2="17.9" y2="27.2"/>
			<line class="st0" x1="13.8" y1="22.3" x2="20.9" y2="22.3"/>
		</g>
		<g>
			<path class="st1" d="M80.6,92c0.7-10.8,1.1-24.2,1.1-38.8c0-14.8-0.3-28.7-0.9-40H74c-0.6,11.3-0.9,25.2-0.9,40
				c0,14.6,0.4,28,1.1,38.8H80.6z"/>
			<path class="st1" d="M74,13.2h6.8c-0.1-1.8-0.2-3.6-0.3-5.3c-1.8-1-4.4-1-6.2,0C74.2,9.6,74.1,11.4,74,13.2z"/>
			<path class="st1" d="M74.4,91.9c0.7,4.2,1.3,7.9,1.7,11.1c0.8,0,1.7,0,2.5,0c0.4-3.2,1-7,1.7-11.1C78.4,91.9,76.4,91.9,74.4,91.9
				z"/>
			<line class="st1" x1="73.6" y1="51.2" x2="81.1" y2="51.2"/>
			<polyline class="st1" points="68.9,46.6 68.9,15.8 74.1,13.2 77.7,13.2 			"/>
			<line class="st0" x1="77.4" y1="103.4" x2="77.4" y2="107.4"/>
		</g>
		<g>
			<g>
				<path class="st2" d="M88.5,8.5v5.3h7.9V8.5c0-0.3-0.4-0.6-0.9-0.6h-6.1C88.9,7.9,88.5,8.1,88.5,8.5z"/>
				<rect x="88.5" y="13.8" class="st2" width="7.9" height="79.6"/>
			</g>
			<path class="st2" d="M92.4,92.7c-1.4,0-2.7,0.2-3.9,0.6l3.9,10.2l3.9-10.2C95.1,92.9,93.8,92.7,92.4,92.7z"/>
			<g>
				<rect x="88.4" y="13.6" class="st2" width="8" height="6.8"/>
			</g>
			<path class="st0" d="M93.7,100.1c-0.4,0-0.8-0.1-1.2-0.1c-0.5,0-0.9,0-1.4,0.1l1.3,3.3L93.7,100.1z"/>
		</g>
	</g>
	<rect x="-0.2" y="0.1" class="st3" width="112" height="112"/>
</g>
</svg>
