<?xml version="1.0" encoding="utf-8"?>
<!-- Generator: Adobe Illustrator 21.0.0, SVG Export Plug-In . SVG Version: 6.00 Build 0)  -->
<svg version="1.1" id="Layer_1" xmlns="http://www.w3.org/2000/svg" xmlns:xlink="http://www.w3.org/1999/xlink" x="0px" y="0px"
	 viewBox="0 0 112 112" style="enable-background:new 0 0 112 112;" xml:space="preserve">
<style type="text/css">
	.st0{fill:none;}
</style>
<g>
	<g>
		<g>
			<path d="M56.5,21.2c-1,0-2.1,0.1-3,0.4c0.9,1,1.5,2.4,1.5,3.9c0,3.2-2.6,5.8-5.8,5.8c-1.5,0-3-0.6-4-1.6c-0.3,1-0.5,2.1-0.5,3.3
				c0,6.5,5.3,11.8,11.8,11.8s11.8-5.3,11.8-11.8S63,21.2,56.5,21.2z"/>
		</g>
		<path d="M56.5,12c-11.6,0-21,9.4-21,21s9.4,21,21,21s21-9.4,21-21S68.1,12,56.5,12z M56.5,49.6c-9.2,0-16.6-7.4-16.6-16.6
			s7.4-16.6,16.6-16.6s16.6,7.4,16.6,16.6S65.7,49.6,56.5,49.6z"/>
		<polygon points="47.7,55.8 47.7,71.4 61.8,63.8 		"/>
		<g>
			<path d="M66.4,60.2c0,0,0.9-0.1,2.3-0.4c0.8-0.1,1.6-0.3,2.6-0.4c1-0.2,2.1-0.4,3.3-0.7c1.2-0.3,2.5-0.6,3.8-1
				c1.3-0.4,2.7-0.9,4.1-1.4c1.4-0.6,2.8-1.2,4.1-1.9c0.7-0.4,1.3-0.7,1.9-1.2c0.6-0.4,1.2-0.9,1.7-1.3c1-0.9,1.9-2,2.3-3
				c0.1-0.3,0.2-0.5,0.2-0.7c0.1-0.2,0.1-0.5,0.1-0.7l0-0.1l0,0l0,0l0,0c0,0,0,0.3,0,0.2l0-0.3l0-0.6c0-0.1,0-0.2-0.1-0.2l0-0.1
				L92.8,46c-0.3-1-0.9-2-1.6-2.9c-0.8-0.9-1.7-1.7-2.6-2.5c-0.9-0.7-1.8-1.3-2.7-1.8c-0.8-0.5-1.6-1-2.2-1.3c-1.3-0.7-2-1.1-2-1.1
				l-0.1,0c-0.9-0.4-1.2-1.5-0.8-2.4c0.4-0.8,1.2-1.1,2-0.9c0,0,0.2,0.1,0.6,0.2c0.4,0.1,1,0.3,1.8,0.5c0.8,0.2,1.7,0.6,2.7,1
				c1,0.5,2.2,1,3.4,1.7c1.2,0.7,2.5,1.6,3.8,2.9c1.2,1.2,2.5,2.8,3.2,4.9l0.1,0.4l0.1,0.5c0.1,0.3,0.1,0.6,0.2,1l0.1,0.6l0,0.3
				l0,0.2l0,0l0,0.1l0,0.1l0,0.2c-0.1,0.6-0.1,1.2-0.2,1.7c-0.1,0.6-0.3,1.1-0.5,1.7c-0.8,2.1-2.2,3.8-3.7,5.3
				c-0.8,0.7-1.5,1.4-2.3,1.9c-0.8,0.6-1.6,1.1-2.4,1.6c-1.6,1-3.3,1.7-4.9,2.4c-1.6,0.6-3.2,1.2-4.7,1.6c-0.7,0.2-1.5,0.4-2.2,0.6
				c-0.7,0.2-1.4,0.4-2.1,0.5c-1.3,0.3-2.5,0.5-3.6,0.7c-1.1,0.2-2.1,0.4-2.8,0.4c-1.5,0.2-2.4,0.3-2.4,0.3c-1.7,0.2-3.3-1-3.5-2.8
				C63.6,62,64.7,60.5,66.4,60.2z"/>
		</g>
		<g>
			<path d="M32.3,36.1c0,0-0.2,0.1-0.7,0.4c-0.4,0.2-1.1,0.6-1.8,1c-0.7,0.4-1.7,0.9-2.6,1.6c-1,0.6-2.1,1.4-3.1,2.3
				c-1,0.9-2,1.9-2.7,3c-0.3,0.6-0.6,1.1-0.8,1.7c-0.1,0.3-0.1,0.5-0.2,0.8l0,0.4l0,0.1l0,0l0,0c0-0.1,0,0.2,0-0.2l0,0.1l0,0.4
				l0,0.4c0,0.1,0,0.1,0,0.1c0,0.1,0,0.1,0.1,0.3c0.1,0.3,0.2,0.6,0.3,0.8c0.3,0.6,0.7,1.1,1.2,1.7c1.1,1.1,2.5,2.2,4.1,3.1
				c1.6,0.9,3.3,1.7,5.1,2.4c1.8,0.7,3.6,1.3,5.3,1.7c1.8,0.5,3.5,0.9,5.2,1.2c1.7,0.3,3.3,0.6,4.7,0.8c1.5,0.2,2.8,0.4,4.1,0.5
				c1.2,0.1,2.3,0.2,3.1,0.5c0.9,0.2,1.6,0.5,2,0.7c0.5,0.2,0.7,0.4,0.7,0.4l0,0c1,0.6,1.2,1.9,0.6,2.9c-0.2,0.3-0.4,0.5-0.7,0.6
				c0,0-1.1,0.6-2.9,1c-0.9,0.2-2.1,0.2-3.4,0.1c-1.3-0.1-2.8-0.1-4.4-0.3c-1.6-0.1-3.3-0.4-5.2-0.6c-1.8-0.3-3.8-0.7-5.7-1.2
				c-2-0.5-4-1.1-6.1-1.9c-2-0.8-4.1-1.8-6.1-2.9c-2-1.2-3.9-2.7-5.6-4.6c-0.8-1-1.6-2.1-2.1-3.3c-0.3-0.6-0.5-1.3-0.7-2
				c-0.1-0.3-0.2-0.8-0.2-1.1c0-0.2-0.1-0.4-0.1-0.6l0-0.4l0-0.4l0-0.1c0-0.4,0-0.1,0-0.2l0,0l0-0.1l0-0.3c0-0.3,0.1-0.7,0.1-1
				c0.1-0.7,0.3-1.3,0.5-1.9c0.4-1.2,1.1-2.3,1.7-3.2c1.4-1.8,2.9-3,4.4-4c1.5-1,2.9-1.6,4.1-2.2c1.3-0.5,2.4-0.9,3.3-1.2
				c1-0.3,1.7-0.5,2.1-0.5c0.5-0.1,0.7-0.2,0.7-0.2c1-0.2,1.9,0.4,2.1,1.4C33.4,34.9,33,35.7,32.3,36.1z"/>
		</g>
		<g>
			<path d="M28.1,91.1l3.2-0.4c0.4,1.8,1,3.1,1.9,4c0.9,0.8,2,1.2,3.3,1.2c1.5,0,2.8-0.5,3.8-1.6c1-1.1,1.6-2.4,1.6-3.9
				c0-1.5-0.5-2.7-1.5-3.7c-1-1-2.2-1.4-3.7-1.4c-0.6,0-1.4,0.1-2.3,0.4l0.4-2.8c0.2,0,0.4,0,0.5,0c1.4,0,2.6-0.4,3.7-1.1
				c1.1-0.7,1.7-1.8,1.7-3.3c0-1.2-0.4-2.2-1.2-2.9c-0.8-0.8-1.8-1.2-3.1-1.2c-1.3,0-2.3,0.4-3.1,1.2c-0.8,0.8-1.4,2-1.6,3.6
				l-3.2-0.6c0.4-2.2,1.3-3.8,2.7-5c1.4-1.2,3.1-1.8,5.2-1.8c1.4,0,2.8,0.3,4,0.9c1.2,0.6,2.1,1.5,2.8,2.5c0.6,1.1,1,2.2,1,3.4
				c0,1.1-0.3,2.2-0.9,3.1c-0.6,0.9-1.5,1.7-2.7,2.2c1.6,0.4,2.8,1.1,3.6,2.2c0.9,1.1,1.3,2.5,1.3,4.2c0,2.3-0.8,4.2-2.5,5.8
				c-1.7,1.6-3.8,2.4-6.4,2.4c-2.3,0-4.2-0.7-5.8-2.1C29.2,95.1,28.3,93.3,28.1,91.1z"/>
			<path d="M65.3,78.2l-3.2,0.3c-0.3-1.3-0.7-2.2-1.2-2.8c-0.9-0.9-1.9-1.4-3.2-1.4c-1,0-1.9,0.3-2.7,0.9c-1,0.7-1.8,1.8-2.4,3.2
				c-0.6,1.4-0.9,3.5-0.9,6.1c0.8-1.2,1.7-2.1,2.9-2.6c1.1-0.6,2.3-0.9,3.5-0.9c2.2,0,4,0.8,5.5,2.4c1.5,1.6,2.3,3.6,2.3,6.1
				c0,1.7-0.4,3.2-1.1,4.6c-0.7,1.4-1.7,2.5-2.9,3.3c-1.2,0.8-2.7,1.1-4.2,1.1c-2.7,0-4.9-1-6.6-3c-1.7-2-2.5-5.2-2.5-9.8
				c0-5.1,0.9-8.8,2.8-11.1c1.6-2,3.8-3,6.6-3c2.1,0,3.8,0.6,5.1,1.7C64.2,74.6,65,76.2,65.3,78.2z M52.1,89.5
				c0,1.1,0.2,2.2,0.7,3.2c0.5,1,1.1,1.8,2,2.3c0.8,0.5,1.7,0.8,2.7,0.8c1.4,0,2.5-0.6,3.5-1.7c1-1.1,1.5-2.6,1.5-4.5
				c0-1.8-0.5-3.3-1.5-4.3c-1-1-2.2-1.6-3.7-1.6c-1.5,0-2.7,0.5-3.7,1.6C52.6,86.5,52.1,87.8,52.1,89.5z"/>
			<path d="M69,85.1c0-3.1,0.3-5.6,1-7.5c0.6-1.9,1.6-3.4,2.9-4.4c1.3-1,2.8-1.5,4.8-1.5c1.4,0,2.6,0.3,3.7,0.9
				c1.1,0.6,1.9,1.4,2.6,2.5c0.7,1.1,1.2,2.4,1.6,3.9c0.4,1.5,0.6,3.6,0.6,6.2c0,3.1-0.3,5.6-1,7.5c-0.6,1.9-1.6,3.4-2.8,4.4
				c-1.3,1-2.9,1.6-4.8,1.6c-2.5,0-4.5-0.9-6-2.7C69.8,93.6,69,90,69,85.1z M72.3,85.1c0,4.3,0.5,7.2,1.5,8.6c1,1.4,2.3,2.1,3.7,2.1
				s2.7-0.7,3.7-2.2c1-1.4,1.5-4.3,1.5-8.6c0-4.3-0.5-7.2-1.5-8.6c-1-1.4-2.3-2.1-3.8-2.1c-1.5,0-2.7,0.6-3.6,1.9
				C72.9,77.8,72.3,80.8,72.3,85.1z"/>
			<path d="M89.1,69.3c0-1,0.4-1.9,1.1-2.7c0.8-0.7,1.6-1.1,2.7-1.1c1,0,1.9,0.4,2.7,1.1c0.7,0.8,1.1,1.7,1.1,2.7
				c0,1.1-0.4,2-1.1,2.8c-0.7,0.7-1.6,1.1-2.7,1.1c-1.1,0-2-0.4-2.7-1.1C89.5,71.3,89.1,70.4,89.1,69.3z M90.7,69.3
				c0,0.7,0.2,1.2,0.7,1.7c0.4,0.5,1,0.7,1.6,0.7c0.6,0,1.1-0.2,1.6-0.7c0.4-0.5,0.7-1,0.7-1.6c0-0.6-0.2-1.2-0.7-1.6
				c-0.4-0.5-1-0.7-1.6-0.7c-0.6,0-1.1,0.2-1.6,0.7C90.9,68.1,90.7,68.7,90.7,69.3z"/>
		</g>
	</g>
	<rect x="0" y="-0.2" class="st0" width="112" height="112"/>
</g>
</svg>
