<?xml version="1.0" encoding="utf-8"?>
<!-- Generator: Adobe Illustrator 21.0.0, SVG Export Plug-In . SVG Version: 6.00 Build 0)  -->
<svg version="1.1" id="Layer_1" xmlns="http://www.w3.org/2000/svg" xmlns:xlink="http://www.w3.org/1999/xlink" x="0px" y="0px"
	 viewBox="0 0 112 112" style="enable-background:new 0 0 112 112;" xml:space="preserve">
<style type="text/css">
	.st0{fill:none;stroke:#000000;stroke-width:3.2587;stroke-linecap:round;stroke-miterlimit:10;}
	.st1{fill:#FFFFFF;}
	.st2{fill:none;}
</style>
<g>
	<g>
		<path class="st0" d="M7.3,102.3c5.2-1.2,16.3-4.5,25.8-14.3c4.9-5.1,7.9-10.3,9.7-14.2"/>
		<path class="st0" d="M103.1,102.3C98,101.1,86.9,97.8,77.3,88c-4.9-5.1-7.9-10.3-9.7-14.2"/>
		<g>
			<path class="st1" d="M55.2,83c-12.4,0-23.7-20.5-26-38.9c-1.5-11.9,0.9-22.2,6.9-29c4.8-5.4,11.4-8.2,19.2-8.2s14.4,2.9,19.2,8.2
				c5.9,6.8,8.4,17,6.9,29C78.9,62.5,67.6,83,55.2,83z"/>
			<path d="M55.2,8.5c16.5,0,27.2,13.7,24.4,35.4c-2.2,17.7-13,37.5-24.4,37.5S33,61.5,30.8,43.9C28,22.2,38.7,8.5,55.2,8.5
				 M55.2,5.2c-8.3,0-15.3,3-20.4,8.8c-6.3,7.1-8.8,17.8-7.3,30.2C30,63.8,41.7,84.6,55.2,84.6c13.5,0,25.2-20.8,27.6-40.3
				c1.6-12.4-1-23.1-7.3-30.2C70.5,8.3,63.5,5.2,55.2,5.2L55.2,5.2z"/>
		</g>
		<g>
			<path class="st1" d="M41.3,56.5c-8.6,0-15.5-7-15.5-15.5s7-15.5,15.5-15.5h28.2c8.6,0,15.5,7,15.5,15.5s-7,15.5-15.5,15.5H41.3z"
				/>
			<path d="M69.5,27c7.7,0,13.9,6.2,13.9,13.9s-6.2,13.9-13.9,13.9H41.3c-7.7,0-13.9-6.2-13.9-13.9S33.6,27,41.3,27H69.5 M69.5,23.8
				H41.3c-9.5,0-17.2,7.7-17.2,17.2s7.7,17.2,17.2,17.2h28.2c9.5,0,17.2-7.7,17.2-17.2S79,23.8,69.5,23.8L69.5,23.8z"/>
		</g>
		<g>
			<path d="M39.5,30.8c1,0,1.9,0.7,2.3,1.7l4.4,13.1c0.1,0.2,0.4,0.2,0.4,0l4.4-13.1c0.3-1.1,1.3-1.8,2.3-1.8c1.3,0,2.3,1.1,2.3,2.5
				c0,0.4-0.1,0.6-0.1,0.9l-4.8,13.2c-0.8,2.3-2.2,3.4-4.2,3.4c-2,0-3.4-1.1-4.2-3.4l-4.7-13.2c-0.1-0.3-0.1-0.6-0.1-0.9
				C37.3,31.9,38.2,30.8,39.5,30.8z"/>
			<path d="M62.5,44.1v4c0,1.3-1.1,2.4-2.4,2.4c-1.2,0-2.3-1.1-2.3-2.4V33.6c0-1.6,1.1-2.8,2.9-2.8h5.7c2,0,3.6,0.6,4.9,1.7
				c1.3,1.2,2,2.8,2,4.8c0,3-1.5,4.7-3.4,5.5l3.3,3.6c0.4,0.4,0.6,1,0.6,1.7c0,0.7-0.2,1.2-0.6,1.6c-0.5,0.5-1.1,0.7-1.8,0.7
				c-0.7,0-1.2-0.2-1.6-0.7l-4-4.9c-0.5-0.6-0.9-0.9-1.5-0.9H62.5z M62.5,39.8h3.4c1.8,0,2.7-0.8,2.7-2.3c0-1.5-0.8-2.4-2.6-2.4
				h-3.5V39.8z"/>
		</g>
	</g>
	<rect x="0" y="-0.2" class="st2" width="112" height="112"/>
</g>
</svg>
