<?xml version="1.0" encoding="utf-8"?>
<!-- Generator: Adobe Illustrator 21.0.0, SVG Export Plug-In . SVG Version: 6.00 Build 0)  -->
<svg version="1.1" id="Layer_1" xmlns="http://www.w3.org/2000/svg" xmlns:xlink="http://www.w3.org/1999/xlink" x="0px" y="0px"
	 viewBox="0 0 112 112" style="enable-background:new 0 0 112 112;" xml:space="preserve">
<style type="text/css">
	.st0{fill:none;stroke:#000000;stroke-width:2;stroke-linecap:round;stroke-linejoin:round;stroke-miterlimit:10;}
	.st1{fill:none;stroke:#000000;stroke-width:2;stroke-linecap:round;stroke-miterlimit:10;stroke-dasharray:0.2023,2.4271;}
	.st2{fill:#FFFFFF;}
	.st3{fill:#FFFFFF;stroke:#000000;stroke-width:2;stroke-linecap:round;stroke-linejoin:round;stroke-miterlimit:10;}
	.st4{fill:none;}
</style>
<g>
	<g>
		<path class="st0" d="M37.1,32.6h19.5h35.2c2.9,0,5.2,2.3,5.2,5.2v4.6 M97,61.7V46.3 M16.2,59.3v11.5c0,2.6,2.1,4.7,4.7,4.7h23.4
			c0.5,0,1.2-0.2,2-0.6c1.4-0.8,2.1-2,2.3-2.5c0.8-3.3,1.9-7,2.7-10.2c0.2-0.5,0.9-1.8,2.5-2.6c1.2-0.6,2.5-0.7,2.9-0.7
			s1.8,0.1,2.9,0.7c1.6,0.8,2.2,2.2,2.5,2.6c0.8,3.3,1.9,7,2.7,10.2c0.2,0.5,0.9,1.7,2.3,2.5c0.8,0.4,1.5,0.6,2,0.6h23.4
			c2.6,0,4.7-2.1,4.7-4.7v-5.3"/>
		<path class="st1" d="M33.9,32.6H21.4c-2.9,0-5.2,2.3-5.2,5.2v19.5"/>
		<g>
			<g>
				<path class="st2" d="M37.1,59.9c-5.4,0-9.8-4.4-9.8-9.8c0-5.4,4.4-9.8,9.8-9.8s9.8,4.4,9.8,9.8C46.9,55.5,42.5,59.9,37.1,59.9z"
					/>
				<path d="M37.1,41.3c4.8,0,8.8,3.9,8.8,8.8c0,4.8-3.9,8.8-8.8,8.8c-4.8,0-8.8-3.9-8.8-8.8C28.3,45.3,32.3,41.3,37.1,41.3
					 M37.1,39.3c-5.9,0-10.8,4.8-10.8,10.8c0,5.9,4.8,10.8,10.8,10.8c5.9,0,10.8-4.8,10.8-10.8C47.9,44.2,43,39.3,37.1,39.3
					L37.1,39.3z"/>
			</g>
			<path class="st3" d="M37.1,44.4c-3.2,0-5.7,2.6-5.7,5.7"/>
		</g>
		<g>
			<g>
				<path class="st2" d="M76.4,59.9c-5.4,0-9.8-4.4-9.8-9.8c0-5.4,4.4-9.8,9.8-9.8s9.8,4.4,9.8,9.8C86.2,55.5,81.8,59.9,76.4,59.9z"
					/>
				<path d="M76.4,41.3c4.8,0,8.8,3.9,8.8,8.8c0,4.8-3.9,8.8-8.8,8.8c-4.8,0-8.8-3.9-8.8-8.8C67.7,45.3,71.6,41.3,76.4,41.3
					 M76.4,39.3c-5.9,0-10.8,4.8-10.8,10.8c0,5.9,4.8,10.8,10.8,10.8c5.9,0,10.8-4.8,10.8-10.8C87.2,44.2,82.4,39.3,76.4,39.3
					L76.4,39.3z"/>
			</g>
			<path class="st3" d="M76.4,44.4c-3.2,0-5.7,2.6-5.7,5.7"/>
		</g>
	</g>
	<rect x="0" y="-0.2" class="st4" width="112" height="112"/>
</g>
</svg>
