<?xml version="1.0" encoding="utf-8"?>
<!-- Generator: Adobe Illustrator 21.0.0, SVG Export Plug-In . SVG Version: 6.00 Build 0)  -->
<svg version="1.1" id="Layer_1" xmlns="http://www.w3.org/2000/svg" xmlns:xlink="http://www.w3.org/1999/xlink" x="0px" y="0px"
	 viewBox="0 0 112 112" style="enable-background:new 0 0 112 112;" xml:space="preserve">
<style type="text/css">
	.st0{fill:none;}
</style>
<g>
	<path d="M92.6,80.8c-4.2-4.2-12.4-12.8-19.8-23.2c-3.8-5.4-7.5-11.5-8.4-13c-2.3-3.9-3.5-5.8-4-7.1c-0.9-2.2-1.6-4.3-3.5-7
		c-1.1-1.6-2.2-2.7-3.7-3c-1-0.2-1.8,0-2.4,0.2l-4,2.9l-2.7-3.8l1,1.4c2.8-4.9,2.7-11.3-0.9-16.2c-4.8-6.7-14.1-8.1-20.8-3.3
		c-6.7,4.8-8.1,14.1-3.3,20.8c3.6,4.9,9.5,7,15.1,5.8l1.7,2.3l-4,2.9c-0.3,0.5-0.8,1.2-0.9,2.2c-0.2,1.6,0.5,2.9,1.7,4.5
		c2,2.7,3.8,3.9,5.6,5.5c1.1,0.9,2.5,2.6,5.5,6c1.2,1.4,5.9,6.8,9.8,12c7.7,10.3,13.3,20.8,16,26c0.7,0.9,3.7,4.3,9,5.1
		c5.2,0.8,9.1-1.5,10.1-2.1c0.9-0.7,4.3-3.7,5.1-8.9C95.5,85.7,93.2,81.8,92.6,80.8z M58,52.1c0.2,0.3,0.2,0.8-0.2,1l-3,2.2
		c-0.3,0.2-0.8,0.2-1-0.2l-2.2-3l-3,2.2c-0.3,0.2-0.8,0.2-1-0.2l-2.2-3c-0.2-0.3-0.2-0.8,0.2-1l3-2.2l-2.2-3c-0.2-0.3-0.2-0.8,0.2-1
		l3-2.2c0.3-0.2,0.8-0.2,1,0.2l2.2,3l3-2.2c0.3-0.2,0.8-0.2,1,0.2l2.2,3c0.2,0.3,0.2,0.8-0.2,1l-3,2.2L58,52.1z M65.5,66.8
		c-1.9,1.4-4.5,0.9-5.8-0.9c-1.4-1.9-0.9-4.5,0.9-5.8c1.9-1.4,4.5-0.9,5.8,0.9C67.8,62.8,67.3,65.4,65.5,66.8z"/>
	<rect x="0" y="-0.2" class="st0" width="112" height="112"/>
</g>
</svg>
